//Event file generated from Sappy .s format.
	#include "MPlayDef.event"

	#define	ScatteredAndLost_grp  voicegroup000
	#define	ScatteredAndLost_pri  0
	#define	ScatteredAndLost_rev  117
	#define	ScatteredAndLost_mvl  127
	#define	ScatteredAndLost_key  0
	#define	ScatteredAndLost_tbs  1
	#define	ScatteredAndLost_exg  0
	#define	ScatteredAndLost_cmp  1

	// .rodata
	//	ScatteredAndLost
	ALIGN 4


//**************** Track 1 (Midi-Chn.0) ****************//

ScatteredAndLost_001:
// 000   ----------------------------------------
 BYTE   VOL   80*ScatteredAndLost_mvl/mxv
 BYTE   KEYSH   ScatteredAndLost_key+0
 BYTE   TEMPO   98*ScatteredAndLost_tbs/2
 BYTE   VOICE   81
 BYTE   W96
// 001   ----------------------------------------
 BYTE   W96
// 002   ----------------------------------------
 BYTE   W96
// 003   ----------------------------------------
 BYTE   W96
// 004   ----------------------------------------
 BYTE   W96
// 005   ----------------------------------------
 BYTE   W96
// 006   ----------------------------------------
 BYTE   W96
// 007   ----------------------------------------
 BYTE   W96
// 008   ----------------------------------------
 BYTE   W96
// 009   ----------------------------------------
 BYTE   W96
// 010   ----------------------------------------
 BYTE   W96
// 011   ----------------------------------------
 BYTE   W96
// 012   ----------------------------------------
Label_0_55029C:
 BYTE   W96
// 013   ----------------------------------------
 BYTE   W96
// 014   ----------------------------------------
 BYTE   W96
// 015   ----------------------------------------
 BYTE   W96
// 016   ----------------------------------------
 BYTE   W96
// 017   ----------------------------------------
 BYTE   W96
// 018   ----------------------------------------
 BYTE   W96
// 019   ----------------------------------------
 BYTE   W96
// 020   ----------------------------------------
 BYTE   W96
// 021   ----------------------------------------
 BYTE   W96
// 022   ----------------------------------------
 BYTE   W96
// 023   ----------------------------------------
 BYTE   W96
// 024   ----------------------------------------
 BYTE   W96
// 025   ----------------------------------------
 BYTE   W96
// 026   ----------------------------------------
 BYTE   W96
// 027   ----------------------------------------
 BYTE   W96
// 028   ----------------------------------------
 BYTE   W96
// 029   ----------------------------------------
Label_0_5502AD:
 BYTE   W06
 BYTE   N06  An4  v100
 BYTE   W06
 BYTE   Bn4
 BYTE   W06
 BYTE   N18  Cn5
 BYTE   W17
 BYTE   N12  An4
 BYTE   W19
 BYTE   N06
 BYTE   W06
 BYTE   Bn4
 BYTE   W06
 BYTE   N30  Cn5
 BYTE   W30
 BYTE   PEND 
// 030   ----------------------------------------
 BYTE   PATT
  POIN2 Label_0_5502AD
// 031   ----------------------------------------
 BYTE   PATT
  POIN2 Label_0_5502AD
// 032   ----------------------------------------
 BYTE   PATT
  POIN2 Label_0_5502AD
// 033   ----------------------------------------
 BYTE   PATT
  POIN2 Label_0_5502AD
// 034   ----------------------------------------
 BYTE   PATT
  POIN2 Label_0_5502AD
// 035   ----------------------------------------
 BYTE   PATT
  POIN2 Label_0_5502AD
// 036   ----------------------------------------
 BYTE   PATT
  POIN2 Label_0_5502AD
// 037   ----------------------------------------
 BYTE   W96
// 038   ----------------------------------------
 BYTE   W96
// 039   ----------------------------------------
 BYTE   W96
// 040   ----------------------------------------
 BYTE   W96
// 041   ----------------------------------------
 BYTE   W96
// 042   ----------------------------------------
 BYTE   W96
// 043   ----------------------------------------
 BYTE   W96
// 044   ----------------------------------------
 BYTE   W96
// 045   ----------------------------------------
 BYTE   W96
// 046   ----------------------------------------
 BYTE   W96
// 047   ----------------------------------------
 BYTE   W96
// 048   ----------------------------------------
 BYTE   W96
// 049   ----------------------------------------
 BYTE   GoTo
  POIN2 Label_0_55029C
 BYTE   FINE

//**************** Track 2 (Midi-Chn.1) ****************//

ScatteredAndLost_002:
// 000   ----------------------------------------
 BYTE   VOL   80*ScatteredAndLost_mvl/mxv
 BYTE   KEYSH   ScatteredAndLost_key+0
 BYTE   VOICE   4
 BYTE   N24  An2  v100
 BYTE   W24
 BYTE   En3
 BYTE   W24
 BYTE   Fn2
 BYTE   W24
 BYTE   N12  Dn3
 BYTE   W12
 BYTE   Bn2
 BYTE   W12
// 001   ----------------------------------------
Label_1_54F8A3:
 BYTE   N24  An2  v100
 BYTE   W24
 BYTE   En3
 BYTE   W24
 BYTE   Fn2
 BYTE   W24
 BYTE   N06  Dn3
 BYTE   W06
 BYTE   Cn3
 BYTE   W06
 BYTE   Bn2
 BYTE   W06
 BYTE   Dn3
 BYTE   W06
 BYTE   PEND 
// 002   ----------------------------------------
Label_1_54F8B5:
 BYTE   N24  An2  v100
 BYTE   W24
 BYTE   En3
 BYTE   W24
 BYTE   Fn2
 BYTE   W24
 BYTE   N12  Dn3
 BYTE   W12
 BYTE   Bn2
 BYTE   W12
 BYTE   PEND 
// 003   ----------------------------------------
 BYTE   PATT
  POIN2 Label_1_54F8A3
// 004   ----------------------------------------
Label_1_54F8C8:
 BYTE   N24  Fn2  v100
 BYTE   W24
 BYTE   An2
 BYTE   W24
 BYTE   Dn2
 BYTE   W24
 BYTE   N12  Dn3
 BYTE   W12
 BYTE   Bn2
 BYTE   W12
 BYTE   PEND 
// 005   ----------------------------------------
Label_1_54F8D6:
 BYTE   N24  En2  v100
 BYTE   W24
 BYTE   Bn2
 BYTE   W24
 BYTE   En2
 BYTE   W24
 BYTE   Ds2
 BYTE   W24
 BYTE   PEND 
// 006   ----------------------------------------
Label_1_54F8E1:
 BYTE   N24  En2  v100
 BYTE   W24
 BYTE   Gn2
 BYTE   W24
 BYTE   Cn2
 BYTE   W24
 BYTE   N12  An2
 BYTE   W12
 BYTE   Fs2
 BYTE   W12
 BYTE   PEND 
// 007   ----------------------------------------
Label_1_54F8EF:
 BYTE   N24  En2  v100
 BYTE   W24
 BYTE   Gn2
 BYTE   W24
 BYTE   Cn2
 BYTE   W24
 BYTE   N06  An2
 BYTE   W06
 BYTE   Gn2
 BYTE   W06
 BYTE   Fs2
 BYTE   W06
 BYTE   An2
 BYTE   W06
 BYTE   PEND 
// 008   ----------------------------------------
 BYTE   PATT
  POIN2 Label_1_54F8E1
// 009   ----------------------------------------
 BYTE   PATT
  POIN2 Label_1_54F8EF
// 010   ----------------------------------------
Label_1_54F90B:
 BYTE   N24  Cn2  v100
 BYTE   W24
 BYTE   En2
 BYTE   W24
 BYTE   An1
 BYTE   W24
 BYTE   N12  An2
 BYTE   W12
 BYTE   Fs2
 BYTE   W12
 BYTE   PEND 
// 011   ----------------------------------------
Label_1_54F919:
 BYTE   N24  Bn1  v100
 BYTE   W24
 BYTE   Fs2
 BYTE   W24
 BYTE   Bn1
 BYTE   W24
 BYTE   As1
 BYTE   W24
 BYTE   PEND 
// 012   ----------------------------------------
Label_1_54F924:
 BYTE   N24  Bn1  v100
 BYTE   W24
 BYTE   N24
 BYTE   W24
 BYTE   N24
 BYTE   W24
 BYTE   N24
 BYTE   W24
// 013   ----------------------------------------
 BYTE   As1
 BYTE   W24
 BYTE   N24
 BYTE   W24
 BYTE   N24
 BYTE   W24
 BYTE   N24
 BYTE   W24
// 014   ----------------------------------------
 BYTE   An1
 BYTE   W24
 BYTE   N24
 BYTE   W24
 BYTE   N24
 BYTE   W24
 BYTE   N24
 BYTE   W24
// 015   ----------------------------------------
 BYTE   Gs1
 BYTE   W24
 BYTE   N24
 BYTE   W24
 BYTE   N24
 BYTE   W24
 BYTE   N24
 BYTE   W24
// 016   ----------------------------------------
 BYTE   N12  Bn1
 BYTE   W12
 BYTE   Bn2
 BYTE   W12
 BYTE   Bn1
 BYTE   W12
 BYTE   Bn2
 BYTE   W12
 BYTE   Bn1
 BYTE   W12
 BYTE   Bn2
 BYTE   W12
 BYTE   Bn1
 BYTE   W12
 BYTE   Bn2
 BYTE   W12
// 017   ----------------------------------------
 BYTE   As1
 BYTE   W12
 BYTE   As2
 BYTE   W12
 BYTE   As1
 BYTE   W12
 BYTE   As2
 BYTE   W12
 BYTE   As1
 BYTE   W12
 BYTE   As2
 BYTE   W12
 BYTE   As1
 BYTE   W12
 BYTE   As2
 BYTE   W12
// 018   ----------------------------------------
 BYTE   An1
 BYTE   W12
 BYTE   An2
 BYTE   W12
 BYTE   An1
 BYTE   W12
 BYTE   An2
 BYTE   W12
 BYTE   An1
 BYTE   W12
 BYTE   An2
 BYTE   W12
 BYTE   An1
 BYTE   W12
 BYTE   An2
 BYTE   W12
// 019   ----------------------------------------
 BYTE   Gs1
 BYTE   W12
 BYTE   Gs2
 BYTE   W12
 BYTE   Gs1
 BYTE   W12
 BYTE   Gs2
 BYTE   W12
 BYTE   Gs1
 BYTE   W12
 BYTE   Gs2
 BYTE   W12
 BYTE   Gs1
 BYTE   W12
 BYTE   Gs2
 BYTE   W12
// 020   ----------------------------------------
 BYTE   N06  Bn1
 BYTE   N06  En2
 BYTE   N06  Fs2
 BYTE   N06  Bn2
 BYTE   W18
 BYTE   Bn1
 BYTE   N06  En2
 BYTE   N06  Fs2
 BYTE   N06  Bn2
 BYTE   W18
 BYTE   Bn1
 BYTE   N06  En2
 BYTE   N06  Fs2
 BYTE   N06  Bn2
 BYTE   W06
 BYTE   Bn1
 BYTE   N06  En2
 BYTE   N06  Fs2
 BYTE   N06  Bn2
 BYTE   W12
 BYTE   Bn1
 BYTE   N06  En2
 BYTE   N06  Fs2
 BYTE   N06  Bn2
 BYTE   W18
 BYTE   Bn1
 BYTE   N06  En2
 BYTE   N06  Fs2
 BYTE   N06  Bn2
 BYTE   W18
 BYTE   Bn1
 BYTE   N06  En2
 BYTE   N06  Fs2
 BYTE   N06  Bn2
 BYTE   W06
// 021   ----------------------------------------
 BYTE   W12
 BYTE   Bn1
 BYTE   N06  En2
 BYTE   N06  Fs2
 BYTE   N06  Bn2
 BYTE   W06
 BYTE   Bn1
 BYTE   N06  En2
 BYTE   N06  Fs2
 BYTE   N06  Bn2
 BYTE   W12
 BYTE   Bn1
 BYTE   N06  En2
 BYTE   N06  Fs2
 BYTE   N06  Bn2
 BYTE   W18
 BYTE   As1
 BYTE   N06  Ds2
 BYTE   N06  Fn2
 BYTE   N06  As2
 BYTE   W18
 BYTE   As1
 BYTE   N06  Ds2
 BYTE   N06  Fn2
 BYTE   N06  As2
 BYTE   W18
 BYTE   As1
 BYTE   N06  Ds2
 BYTE   N06  Fn2
 BYTE   N06  As2
 BYTE   W06
 BYTE   As1
 BYTE   N06  Ds2
 BYTE   N06  Fn2
 BYTE   N06  As2
 BYTE   W06
// 022   ----------------------------------------
 BYTE   W06
 BYTE   As1
 BYTE   N06  Ds2
 BYTE   N06  Fn2
 BYTE   N06  As2
 BYTE   W18
 BYTE   As1
 BYTE   N06  Ds2
 BYTE   N06  Fn2
 BYTE   N06  As2
 BYTE   W18
 BYTE   As1
 BYTE   N06  Ds2
 BYTE   N06  Fn2
 BYTE   N06  As2
 BYTE   W18
 BYTE   As1
 BYTE   N06  Ds2
 BYTE   N06  Fn2
 BYTE   N06  As2
 BYTE   W06
 BYTE   As1
 BYTE   N06  Ds2
 BYTE   N06  Fn2
 BYTE   N06  As2
 BYTE   W12
 BYTE   As1
 BYTE   N06  Ds2
 BYTE   N06  Fn2
 BYTE   N06  As2
 BYTE   W18
// 023   ----------------------------------------
 BYTE   An1
 BYTE   N06  Dn2
 BYTE   N06  En2
 BYTE   N06  An2
 BYTE   W18
 BYTE   An1
 BYTE   N06  Dn2
 BYTE   N06  En2
 BYTE   N06  An2
 BYTE   W18
 BYTE   An1
 BYTE   N06  Dn2
 BYTE   N06  En2
 BYTE   N06  An2
 BYTE   W06
 BYTE   An1
 BYTE   N06  Dn2
 BYTE   N06  En2
 BYTE   N06  An2
 BYTE   W12
 BYTE   An1
 BYTE   N06  Dn2
 BYTE   N06  En2
 BYTE   N06  An2
 BYTE   W18
 BYTE   An1
 BYTE   N06  Dn2
 BYTE   N06  En2
 BYTE   N06  An2
 BYTE   W18
 BYTE   An1
 BYTE   N06  Dn2
 BYTE   N06  En2
 BYTE   N06  An2
 BYTE   W06
// 024   ----------------------------------------
 BYTE   W12
 BYTE   An1
 BYTE   N06  Dn2
 BYTE   N06  En2
 BYTE   N06  An2
 BYTE   W06
 BYTE   An1
 BYTE   N06  Dn2
 BYTE   N06  En2
 BYTE   N06  An2
 BYTE   W12
 BYTE   An1
 BYTE   N06  Dn2
 BYTE   N06  En2
 BYTE   N06  An2
 BYTE   W18
 BYTE   An1
 BYTE   N06  Dn2
 BYTE   N06  En2
 BYTE   N06  An2
 BYTE   W18
 BYTE   An1
 BYTE   N06  Dn2
 BYTE   N06  En2
 BYTE   N06  An2
 BYTE   W18
 BYTE   An1
 BYTE   N06  Dn2
 BYTE   N06  En2
 BYTE   N06  An2
 BYTE   W06
 BYTE   An1
 BYTE   N06  Dn2
 BYTE   N06  En2
 BYTE   N05  An2
 BYTE   W06
// 025   ----------------------------------------
 BYTE   N01
 BYTE   W24
 BYTE   N24  En3
 BYTE   W24
 BYTE   Fn2
 BYTE   W24
 BYTE   N12  Dn3
 BYTE   W12
 BYTE   Bn2
 BYTE   W12
// 026   ----------------------------------------
 BYTE   PATT
  POIN2 Label_1_54F8A3
// 027   ----------------------------------------
 BYTE   PATT
  POIN2 Label_1_54F8B5
// 028   ----------------------------------------
 BYTE   PATT
  POIN2 Label_1_54F8A3
// 029   ----------------------------------------
 BYTE   PATT
  POIN2 Label_1_54F8B5
// 030   ----------------------------------------
 BYTE   PATT
  POIN2 Label_1_54F8A3
// 031   ----------------------------------------
 BYTE   PATT
  POIN2 Label_1_54F8B5
// 032   ----------------------------------------
 BYTE   PATT
  POIN2 Label_1_54F8A3
// 033   ----------------------------------------
 BYTE   W96
// 034   ----------------------------------------
 BYTE   W96
// 035   ----------------------------------------
 BYTE   W96
// 036   ----------------------------------------
 BYTE   W96
// 037   ----------------------------------------
 BYTE   PATT
  POIN2 Label_1_54F8B5
// 038   ----------------------------------------
 BYTE   PATT
  POIN2 Label_1_54F8A3
// 039   ----------------------------------------
 BYTE   PATT
  POIN2 Label_1_54F8B5
// 040   ----------------------------------------
 BYTE   PATT
  POIN2 Label_1_54F8A3
// 041   ----------------------------------------
 BYTE   PATT
  POIN2 Label_1_54F8C8
// 042   ----------------------------------------
 BYTE   PATT
  POIN2 Label_1_54F8D6
// 043   ----------------------------------------
 BYTE   PATT
  POIN2 Label_1_54F8E1
// 044   ----------------------------------------
 BYTE   PATT
  POIN2 Label_1_54F8EF
// 045   ----------------------------------------
 BYTE   PATT
  POIN2 Label_1_54F8E1
// 046   ----------------------------------------
 BYTE   PATT
  POIN2 Label_1_54F8EF
// 047   ----------------------------------------
 BYTE   PATT
  POIN2 Label_1_54F90B
// 048   ----------------------------------------
 BYTE   PATT
  POIN2 Label_1_54F919
// 049   ----------------------------------------
 BYTE   GoTo
  POIN2 Label_1_54F924
 BYTE   FINE

//**************** Track 3 (Midi-Chn.2) ****************//

ScatteredAndLost_003:
// 000   ----------------------------------------
 BYTE   VOL   80*ScatteredAndLost_mvl/mxv
 BYTE   KEYSH   ScatteredAndLost_key+0
 BYTE   VOICE   100
 BYTE   W06
 BYTE   N06  An3  v100
 BYTE   W06
 BYTE   Bn3
 BYTE   W06
 BYTE   N18  Cn4
 BYTE   W17
 BYTE   N12  An3
 BYTE   W19
 BYTE   N06
 BYTE   W06
 BYTE   Bn3
 BYTE   W06
 BYTE   N30  Cn4
 BYTE   W30
// 001   ----------------------------------------
Label_2_54F3FA:
 BYTE   W06
 BYTE   N06  An3  v100
 BYTE   W06
 BYTE   Bn3
 BYTE   W06
 BYTE   N18  Cn4
 BYTE   W17
 BYTE   N12  An3
 BYTE   W19
 BYTE   N06
 BYTE   W06
 BYTE   Bn3
 BYTE   W06
 BYTE   N30  Cn4
 BYTE   W30
 BYTE   PEND 
// 002   ----------------------------------------
 BYTE   PATT
  POIN2 Label_2_54F3FA
// 003   ----------------------------------------
 BYTE   PATT
  POIN2 Label_2_54F3FA
// 004   ----------------------------------------
Label_2_54F419:
 BYTE   W06
 BYTE   N06  Fn3  v100
 BYTE   W06
 BYTE   Gn3
 BYTE   W06
 BYTE   N18  An3
 BYTE   W17
 BYTE   N12  Fn3
 BYTE   W19
 BYTE   N06
 BYTE   W06
 BYTE   Gn3
 BYTE   W06
 BYTE   N30  An3
 BYTE   W30
 BYTE   PEND 
// 005   ----------------------------------------
Label_2_54F42E:
 BYTE   W06
 BYTE   N06  En3  v100
 BYTE   W06
 BYTE   Gn3
 BYTE   W06
 BYTE   N18  Bn3
 BYTE   W18
 BYTE   N12  En3
 BYTE   W18
 BYTE   N06  Bn2
 BYTE   W06
 BYTE   En3
 BYTE   W06
 BYTE   Gn3
 BYTE   W12
 BYTE   Bn2
 BYTE   W06
 BYTE   Ds3
 BYTE   W06
 BYTE   Fs3
 BYTE   W06
 BYTE   PEND 
// 006   ----------------------------------------
Label_2_54F449:
 BYTE   W06
 BYTE   N06  En3  v100
 BYTE   W06
 BYTE   Fs3
 BYTE   W06
 BYTE   N18  Gn3
 BYTE   W17
 BYTE   N12  En3
 BYTE   W19
 BYTE   N06
 BYTE   W06
 BYTE   Fs3
 BYTE   W06
 BYTE   N30  Gn3
 BYTE   W30
 BYTE   PEND 
// 007   ----------------------------------------
 BYTE   PATT
  POIN2 Label_2_54F449
// 008   ----------------------------------------
Label_2_54F463:
 BYTE   W05
 BYTE   N06  En3  v100
 BYTE   W06
 BYTE   Fs3
 BYTE   W06
 BYTE   N18  Gn3
 BYTE   W18
 BYTE   N12  En3
 BYTE   W18
 BYTE   N06
 BYTE   W06
 BYTE   Fs3
 BYTE   W06
 BYTE   N30  Gn3
 BYTE   W30
 BYTE   W01
 BYTE   PEND 
// 009   ----------------------------------------
 BYTE   PATT
  POIN2 Label_2_54F463
// 010   ----------------------------------------
Label_2_54F47E:
 BYTE   W06
 BYTE   N06  Cn3  v100
 BYTE   W06
 BYTE   Dn3
 BYTE   W06
 BYTE   N18  En3
 BYTE   W17
 BYTE   N12  Cn3
 BYTE   W19
 BYTE   N06
 BYTE   W06
 BYTE   Dn3
 BYTE   W06
 BYTE   N30  En3
 BYTE   W30
 BYTE   PEND 
// 011   ----------------------------------------
Label_2_54F493:
 BYTE   W06
 BYTE   N06  Bn2  v100
 BYTE   W06
 BYTE   Dn3
 BYTE   W06
 BYTE   N18  Fs3
 BYTE   W18
 BYTE   N12  Dn3
 BYTE   W18
 BYTE   N06  Fs2
 BYTE   W06
 BYTE   Bn2
 BYTE   W06
 BYTE   Dn3
 BYTE   W12
 BYTE   Fs2
 BYTE   W06
 BYTE   As2
 BYTE   W06
 BYTE   Cs3
 BYTE   W06
 BYTE   PEND 
// 012   ----------------------------------------
Label_2_54F4AE:
 BYTE   N06  Bn2  v100
 BYTE   W06
 BYTE   Fs2
 BYTE   W06
 BYTE   Bn3
 BYTE   W06
 BYTE   Fs3
 BYTE   W06
 BYTE   Bn2
 BYTE   W06
 BYTE   Fs2
 BYTE   W06
 BYTE   Bn3
 BYTE   W06
 BYTE   Fs3
 BYTE   W06
 BYTE   Bn2
 BYTE   W06
 BYTE   Fs2
 BYTE   W06
 BYTE   Bn3
 BYTE   W06
 BYTE   Fs3
 BYTE   W06
 BYTE   Bn2
 BYTE   W06
 BYTE   Fs2
 BYTE   W06
 BYTE   Bn3
 BYTE   W06
 BYTE   Cs4
 BYTE   W06
 BYTE   PEND 
// 013   ----------------------------------------
Label_2_54F4D1:
 BYTE   N06  As2  v100
 BYTE   W06
 BYTE   Fs2
 BYTE   W06
 BYTE   As3
 BYTE   W06
 BYTE   Fs3
 BYTE   W06
 BYTE   As2
 BYTE   W06
 BYTE   Fs2
 BYTE   W06
 BYTE   As3
 BYTE   W06
 BYTE   Fs3
 BYTE   W06
 BYTE   As2
 BYTE   W06
 BYTE   Fs2
 BYTE   W06
 BYTE   As3
 BYTE   W06
 BYTE   Fs3
 BYTE   W06
 BYTE   As2
 BYTE   W06
 BYTE   Fs2
 BYTE   W06
 BYTE   As3
 BYTE   W06
 BYTE   N06
 BYTE   W06
 BYTE   PEND 
// 014   ----------------------------------------
Label_2_54F4F4:
 BYTE   N06  An2  v100
 BYTE   W06
 BYTE   Fs2
 BYTE   W06
 BYTE   An3
 BYTE   W06
 BYTE   Fs3
 BYTE   W06
 BYTE   An2
 BYTE   W06
 BYTE   Fs2
 BYTE   W06
 BYTE   An3
 BYTE   W06
 BYTE   Fs3
 BYTE   W06
 BYTE   An2
 BYTE   W06
 BYTE   Fs2
 BYTE   W06
 BYTE   An3
 BYTE   W06
 BYTE   Fs3
 BYTE   W06
 BYTE   An2
 BYTE   W06
 BYTE   Fs2
 BYTE   W06
 BYTE   An3
 BYTE   W06
 BYTE   Bn3
 BYTE   W06
 BYTE   PEND 
// 015   ----------------------------------------
 BYTE   Gs2
 BYTE   W06
 BYTE   En2
 BYTE   W06
 BYTE   Gs3
 BYTE   W06
 BYTE   En3
 BYTE   W06
 BYTE   Gs2
 BYTE   W06
 BYTE   En2
 BYTE   W06
 BYTE   Gs3
 BYTE   W06
 BYTE   En3
 BYTE   W06
 BYTE   Gs2
 BYTE   W06
 BYTE   En2
 BYTE   W06
 BYTE   Gs3
 BYTE   W06
 BYTE   En3
 BYTE   W06
 BYTE   Gs2
 BYTE   W06
 BYTE   En2
 BYTE   W06
 BYTE   Gs3
 BYTE   W06
 BYTE   As3
 BYTE   W06
// 016   ----------------------------------------
 BYTE   PATT
  POIN2 Label_2_54F4AE
// 017   ----------------------------------------
 BYTE   PATT
  POIN2 Label_2_54F4D1
// 018   ----------------------------------------
 BYTE   PATT
  POIN2 Label_2_54F4F4
// 019   ----------------------------------------
 BYTE   N06  Gs2  v100
 BYTE   W06
 BYTE   En2
 BYTE   W06
 BYTE   Gs3
 BYTE   W06
 BYTE   En3
 BYTE   W06
 BYTE   Gs2
 BYTE   W06
 BYTE   En2
 BYTE   W06
 BYTE   Gs3
 BYTE   W06
 BYTE   En3
 BYTE   W06
 BYTE   Gs2
 BYTE   W06
 BYTE   En2
 BYTE   W06
 BYTE   Gs3
 BYTE   W06
 BYTE   En3
 BYTE   W06
 BYTE   Gs2
 BYTE   W06
 BYTE   N12  Gs3
 BYTE   W12
 BYTE   N06  As3
 BYTE   W06
// 020   ----------------------------------------
 BYTE   N24  Bn3
 BYTE   W48
 BYTE   Fs4
 BYTE   W48
// 021   ----------------------------------------
 BYTE   Gn3
 BYTE   W24
 BYTE   N12  En4
 BYTE   W12
 BYTE   Bn3
 BYTE   W12
 BYTE   N24  Fn3
 BYTE   W48
// 022   ----------------------------------------
 BYTE   Fn4
 BYTE   W48
 BYTE   Fn3
 BYTE   W24
 BYTE   N12  Fn4
 BYTE   W12
 BYTE   N03  Gn4
 BYTE   W03
 BYTE   Fn4
 BYTE   W03
 BYTE   N06  Gn4
 BYTE   W06
// 023   ----------------------------------------
 BYTE   N48  En4
 BYTE   W48
 BYTE   An4
 BYTE   W48
// 024   ----------------------------------------
 BYTE   N96  An3
 BYTE   W96
// 025   ----------------------------------------
 BYTE   PATT
  POIN2 Label_2_54F3FA
// 026   ----------------------------------------
 BYTE   PATT
  POIN2 Label_2_54F3FA
// 027   ----------------------------------------
 BYTE   PATT
  POIN2 Label_2_54F3FA
// 028   ----------------------------------------
 BYTE   PATT
  POIN2 Label_2_54F3FA
// 029   ----------------------------------------
 BYTE   PATT
  POIN2 Label_2_54F3FA
// 030   ----------------------------------------
 BYTE   PATT
  POIN2 Label_2_54F3FA
// 031   ----------------------------------------
 BYTE   PATT
  POIN2 Label_2_54F3FA
// 032   ----------------------------------------
 BYTE   PATT
  POIN2 Label_2_54F3FA
// 033   ----------------------------------------
Label_2_54F5B6:
 BYTE   N06  En4  v100
 BYTE   W06
 BYTE   Cn4
 BYTE   W06
 BYTE   An3
 BYTE   W06
 BYTE   En3
 BYTE   W06
 BYTE   An3
 BYTE   W06
 BYTE   En3
 BYTE   W06
 BYTE   Cn3
 BYTE   W06
 BYTE   An2
 BYTE   W06
 BYTE   En4
 BYTE   W06
 BYTE   Cn4
 BYTE   W06
 BYTE   An3
 BYTE   W06
 BYTE   En3
 BYTE   W06
 BYTE   An3
 BYTE   W06
 BYTE   En3
 BYTE   W06
 BYTE   Cn3
 BYTE   W06
 BYTE   An2
 BYTE   W06
 BYTE   PEND 
// 034   ----------------------------------------
Label_2_54F5D9:
 BYTE   N06  Fn4  v100
 BYTE   W06
 BYTE   Cn4
 BYTE   W06
 BYTE   An3
 BYTE   W06
 BYTE   Fn3
 BYTE   W06
 BYTE   An3
 BYTE   W06
 BYTE   Fn3
 BYTE   W06
 BYTE   Cn3
 BYTE   W06
 BYTE   An2
 BYTE   W06
 BYTE   En4
 BYTE   W06
 BYTE   Cn4
 BYTE   W06
 BYTE   An3
 BYTE   W06
 BYTE   En3
 BYTE   W06
 BYTE   An3
 BYTE   W06
 BYTE   En3
 BYTE   W06
 BYTE   Cn3
 BYTE   W06
 BYTE   An2
 BYTE   W06
 BYTE   PEND 
// 035   ----------------------------------------
 BYTE   PATT
  POIN2 Label_2_54F5B6
// 036   ----------------------------------------
 BYTE   PATT
  POIN2 Label_2_54F5D9
// 037   ----------------------------------------
 BYTE   PATT
  POIN2 Label_2_54F3FA
// 038   ----------------------------------------
 BYTE   PATT
  POIN2 Label_2_54F3FA
// 039   ----------------------------------------
 BYTE   PATT
  POIN2 Label_2_54F3FA
// 040   ----------------------------------------
 BYTE   PATT
  POIN2 Label_2_54F3FA
// 041   ----------------------------------------
 BYTE   PATT
  POIN2 Label_2_54F419
// 042   ----------------------------------------
 BYTE   PATT
  POIN2 Label_2_54F42E
// 043   ----------------------------------------
 BYTE   PATT
  POIN2 Label_2_54F449
// 044   ----------------------------------------
 BYTE   PATT
  POIN2 Label_2_54F449
// 045   ----------------------------------------
 BYTE   PATT
  POIN2 Label_2_54F463
// 046   ----------------------------------------
 BYTE   PATT
  POIN2 Label_2_54F463
// 047   ----------------------------------------
 BYTE   PATT
  POIN2 Label_2_54F47E
// 048   ----------------------------------------
 BYTE   PATT
  POIN2 Label_2_54F493
// 049   ----------------------------------------
 BYTE   GoTo
  POIN2 Label_2_54F4AE
 BYTE   FINE

//**************** Track 4 (Midi-Chn.3) ****************//

ScatteredAndLost_004:
// 000   ----------------------------------------
 BYTE   VOL   80*ScatteredAndLost_mvl/mxv
 BYTE   KEYSH   ScatteredAndLost_key+0
 BYTE   VOICE   42
 BYTE   W96
// 001   ----------------------------------------
 BYTE   W96
// 002   ----------------------------------------
 BYTE   W96
// 003   ----------------------------------------
 BYTE   W96
// 004   ----------------------------------------
 BYTE   W96
// 005   ----------------------------------------
 BYTE   W96
// 006   ----------------------------------------
 BYTE   W96
// 007   ----------------------------------------
 BYTE   W96
// 008   ----------------------------------------
 BYTE   W96
// 009   ----------------------------------------
 BYTE   W96
// 010   ----------------------------------------
 BYTE   W96
// 011   ----------------------------------------
 BYTE   W96
// 012   ----------------------------------------
Label_3_54FE1E:
 BYTE   W96
// 013   ----------------------------------------
 BYTE   W96
// 014   ----------------------------------------
 BYTE   W96
// 015   ----------------------------------------
 BYTE   W96
// 016   ----------------------------------------
 BYTE   W96
// 017   ----------------------------------------
 BYTE   W96
// 018   ----------------------------------------
 BYTE   W96
// 019   ----------------------------------------
 BYTE   W96
// 020   ----------------------------------------
 BYTE   W96
// 021   ----------------------------------------
 BYTE   W96
// 022   ----------------------------------------
 BYTE   W96
// 023   ----------------------------------------
 BYTE   W96
// 024   ----------------------------------------
 BYTE   W96
// 025   ----------------------------------------
 BYTE   W96
// 026   ----------------------------------------
 BYTE   W96
// 027   ----------------------------------------
 BYTE   W96
// 028   ----------------------------------------
 BYTE   W96
// 029   ----------------------------------------
 BYTE   W96
// 030   ----------------------------------------
 BYTE   W96
// 031   ----------------------------------------
 BYTE   W96
// 032   ----------------------------------------
 BYTE   W96
// 033   ----------------------------------------
 BYTE   N72  An2  v100
 BYTE   W72
 BYTE   N24  Bn2
 BYTE   W24
// 034   ----------------------------------------
 BYTE   N48  Cn3
 BYTE   W48
 BYTE   Fn3
 BYTE   W48
// 035   ----------------------------------------
 BYTE   N72  En3
 BYTE   W72
 BYTE   N12  An3
 BYTE   W12
 BYTE   Bn3
 BYTE   W12
// 036   ----------------------------------------
 BYTE   N48  Cn4
 BYTE   W48
 BYTE   Fn4
 BYTE   W48
// 037   ----------------------------------------
 BYTE   N96  En4
 BYTE   W96
// 038   ----------------------------------------
 BYTE   TIE  An3
 BYTE   W96
// 039   ----------------------------------------
 BYTE   W72
 BYTE   EOT
 BYTE   N23  Bn3
 BYTE   W24
// 040   ----------------------------------------
 BYTE   N72  Cn4
 BYTE   W72
 BYTE   N23  Bn3
 BYTE   W24
// 041   ----------------------------------------
 BYTE   N72  An3
 BYTE   W72
 BYTE   N24
 BYTE   W24
// 042   ----------------------------------------
 BYTE   N48  Bn3
 BYTE   W48
 BYTE   N24  En4
 BYTE   W24
 BYTE   Ds4
 BYTE   W24
// 043   ----------------------------------------
 BYTE   N72  En4
 BYTE   W72
 BYTE   N12  En3
 BYTE   W12
 BYTE   En4
 BYTE   W12
// 044   ----------------------------------------
Label_3_54FE72:
 BYTE   N72  En3  v100
 BYTE   W72
 BYTE   N12
 BYTE   W12
 BYTE   En4
 BYTE   W12
 BYTE   PEND 
// 045   ----------------------------------------
 BYTE   PATT
  POIN2 Label_3_54FE72
// 046   ----------------------------------------
 BYTE   N48  En3  v100
 BYTE   W48
 BYTE   N12
 BYTE   W12
 BYTE   En4
 BYTE   W12
 BYTE   N24  Dn4
 BYTE   W24
// 047   ----------------------------------------
 BYTE   N48  Cn4
 BYTE   W72
 BYTE   N24
 BYTE   W24
// 048   ----------------------------------------
 BYTE   N48  Bn3
 BYTE   W48
 BYTE   N24
 BYTE   W24
 BYTE   As3
 BYTE   W24
// 049   ----------------------------------------
 BYTE   GoTo
  POIN2 Label_3_54FE1E
 BYTE   FINE

//**************** Track 5 (Midi-Chn.4) ****************//

ScatteredAndLost_005:
// 000   ----------------------------------------
 BYTE   VOL   80*ScatteredAndLost_mvl/mxv
 BYTE   KEYSH   ScatteredAndLost_key+0
 BYTE   VOICE   124
 BYTE   N06  Cn1  v127
 BYTE   W24
 BYTE   N06
 BYTE   W24
 BYTE   N06
 BYTE   W24
 BYTE   N06
 BYTE   W24
// 001   ----------------------------------------
Label_4_54FEB0:
 BYTE   N06  Cn1  v127
 BYTE   W24
 BYTE   N06
 BYTE   W24
 BYTE   N06
 BYTE   W24
 BYTE   N06
 BYTE   W24
 BYTE   PEND 
// 002   ----------------------------------------
 BYTE   PATT
  POIN2 Label_4_54FEB0
// 003   ----------------------------------------
 BYTE   PATT
  POIN2 Label_4_54FEB0
// 004   ----------------------------------------
 BYTE   PATT
  POIN2 Label_4_54FEB0
// 005   ----------------------------------------
 BYTE   N06  Cn1  v127
 BYTE   W24
 BYTE   N06
 BYTE   W24
 BYTE   N06
 BYTE   W12
 BYTE   Cs2
 BYTE   W12
 BYTE   Cn1
 BYTE   W12
 BYTE   Cs2
 BYTE   W12
// 006   ----------------------------------------
Label_4_54FED8:
 BYTE   N06  Cn1  v127
 BYTE   W24
 BYTE   Dn1
 BYTE   W12
 BYTE   Cn1
 BYTE   W12
 BYTE   N06
 BYTE   W24
 BYTE   Dn1
 BYTE   W12
 BYTE   Cn1
 BYTE   W12
 BYTE   PEND 
// 007   ----------------------------------------
 BYTE   PATT
  POIN2 Label_4_54FED8
// 008   ----------------------------------------
 BYTE   PATT
  POIN2 Label_4_54FED8
// 009   ----------------------------------------
 BYTE   PATT
  POIN2 Label_4_54FED8
// 010   ----------------------------------------
 BYTE   PATT
  POIN2 Label_4_54FED8
// 011   ----------------------------------------
 BYTE   N06  Cn1  v127
 BYTE   W24
 BYTE   Dn1
 BYTE   W12
 BYTE   Cn1
 BYTE   W12
 BYTE   N06
 BYTE   W06
 BYTE   Dn1
 BYTE   W06
 BYTE   Cs2
 BYTE   W12
 BYTE   Fs1
 BYTE   W06
 BYTE   Dn1
 BYTE   W06
 BYTE   Cs2
 BYTE   W12
// 012   ----------------------------------------
Label_4_54FF0F:
 BYTE   N06  Cn1  v127
 BYTE   W12
 BYTE   Dn1
 BYTE   W12
 BYTE   Cn1
 BYTE   W06
 BYTE   N06
 BYTE   W06
 BYTE   Dn1
 BYTE   W12
 BYTE   Cn1
 BYTE   W12
 BYTE   Dn1
 BYTE   W12
 BYTE   Cn1
 BYTE   W06
 BYTE   N06
 BYTE   W06
 BYTE   Dn1
 BYTE   W12
 BYTE   PEND 
// 013   ----------------------------------------
 BYTE   PATT
  POIN2 Label_4_54FF0F
// 014   ----------------------------------------
 BYTE   PATT
  POIN2 Label_4_54FF0F
// 015   ----------------------------------------
 BYTE   PATT
  POIN2 Label_4_54FF0F
// 016   ----------------------------------------
 BYTE   PATT
  POIN2 Label_4_54FF0F
// 017   ----------------------------------------
 BYTE   PATT
  POIN2 Label_4_54FF0F
// 018   ----------------------------------------
 BYTE   PATT
  POIN2 Label_4_54FF0F
// 019   ----------------------------------------
 BYTE   PATT
  POIN2 Label_4_54FF0F
// 020   ----------------------------------------
Label_4_54FF49:
 BYTE   N06  Cn1  v127
 BYTE   W12
 BYTE   Fs1
 BYTE   W12
 BYTE   Cn1
 BYTE   W12
 BYTE   Dn1
 BYTE   W12
 BYTE   Cn1
 BYTE   W12
 BYTE   Fs1
 BYTE   W12
 BYTE   Cn1
 BYTE   W12
 BYTE   Dn1
 BYTE   W12
 BYTE   PEND 
// 021   ----------------------------------------
 BYTE   PATT
  POIN2 Label_4_54FF49
// 022   ----------------------------------------
 BYTE   PATT
  POIN2 Label_4_54FF49
// 023   ----------------------------------------
 BYTE   PATT
  POIN2 Label_4_54FF49
// 024   ----------------------------------------
 BYTE   PATT
  POIN2 Label_4_54FF49
// 025   ----------------------------------------
 BYTE   PATT
  POIN2 Label_4_54FF0F
// 026   ----------------------------------------
 BYTE   PATT
  POIN2 Label_4_54FF0F
// 027   ----------------------------------------
 BYTE   PATT
  POIN2 Label_4_54FF0F
// 028   ----------------------------------------
 BYTE   PATT
  POIN2 Label_4_54FF0F
// 029   ----------------------------------------
 BYTE   PATT
  POIN2 Label_4_54FF0F
// 030   ----------------------------------------
 BYTE   PATT
  POIN2 Label_4_54FF0F
// 031   ----------------------------------------
 BYTE   PATT
  POIN2 Label_4_54FF0F
// 032   ----------------------------------------
 BYTE   PATT
  POIN2 Label_4_54FF0F
// 033   ----------------------------------------
Label_4_54FF98:
 BYTE   N06  Cn1  v127
 BYTE   W06
 BYTE   N06
 BYTE   W06
 BYTE   Dn1
 BYTE   N06  Fs1
 BYTE   W06
 BYTE   Cn1
 BYTE   W06
 BYTE   N06
 BYTE   W06
 BYTE   N06
 BYTE   W06
 BYTE   Dn1
 BYTE   N06  Fs1
 BYTE   W06
 BYTE   Cn1
 BYTE   W06
 BYTE   N06
 BYTE   W06
 BYTE   N06
 BYTE   W06
 BYTE   Dn1
 BYTE   N06  Fs1
 BYTE   W06
 BYTE   Cn1
 BYTE   W06
 BYTE   N06
 BYTE   W06
 BYTE   N06
 BYTE   W06
 BYTE   Dn1
 BYTE   N06  Fs1
 BYTE   W06
 BYTE   Cn1
 BYTE   W06
 BYTE   PEND 
// 034   ----------------------------------------
 BYTE   PATT
  POIN2 Label_4_54FF98
// 035   ----------------------------------------
 BYTE   PATT
  POIN2 Label_4_54FF98
// 036   ----------------------------------------
 BYTE   PATT
  POIN2 Label_4_54FF98
// 037   ----------------------------------------
 BYTE   PATT
  POIN2 Label_4_54FF0F
// 038   ----------------------------------------
 BYTE   PATT
  POIN2 Label_4_54FF0F
// 039   ----------------------------------------
 BYTE   PATT
  POIN2 Label_4_54FF0F
// 040   ----------------------------------------
 BYTE   PATT
  POIN2 Label_4_54FF0F
// 041   ----------------------------------------
 BYTE   PATT
  POIN2 Label_4_54FF0F
// 042   ----------------------------------------
 BYTE   PATT
  POIN2 Label_4_54FF0F
// 043   ----------------------------------------
 BYTE   PATT
  POIN2 Label_4_54FF0F
// 044   ----------------------------------------
 BYTE   PATT
  POIN2 Label_4_54FF0F
// 045   ----------------------------------------
 BYTE   PATT
  POIN2 Label_4_54FF0F
// 046   ----------------------------------------
 BYTE   PATT
  POIN2 Label_4_54FF0F
// 047   ----------------------------------------
 BYTE   PATT
  POIN2 Label_4_54FF0F
// 048   ----------------------------------------
 BYTE   PATT
  POIN2 Label_4_54FF0F
// 049   ----------------------------------------
 BYTE   GoTo
  POIN2 Label_4_54FF0F
 BYTE   FINE

//******************************************************//
	ALIGN 4

ScatteredAndLost:
	BYTE	5	// NumTrks
	BYTE	0	// NumBlks
	BYTE	ScatteredAndLost_pri	// Priority
	BYTE	ScatteredAndLost_rev	// Reverb.
    
	POIN2	ScatteredAndLost_grp
    
	POIN2	ScatteredAndLost_001
	POIN2	ScatteredAndLost_002
	POIN2	ScatteredAndLost_003
	POIN2	ScatteredAndLost_004
	POIN2	ScatteredAndLost_005

	
