//Event file generated from Sappy .s format.
	#include "MPlayDef.event"

	#define	OrganJawsFin_FINAL_grp  voicegroup000
	#define	OrganJawsFin_FINAL_pri  0
	#define	OrganJawsFin_FINAL_rev  0
	#define	OrganJawsFin_FINAL_mvl  95
	#define	OrganJawsFin_FINAL_key  0
	#define	OrganJawsFin_FINAL_tbs  1
	#define	OrganJawsFin_FINAL_exg  0
	#define	OrganJawsFin_FINAL_cmp  1

	// .rodata
	//	OrganJawsFin_FINAL
	ALIGN 4

//**************** Track 1 (Midi-Chn.1) ****************//

OrganJawsFin_FINAL_1:
	BYTE		VOL     127*OrganJawsFin_FINAL_mvl/mxv
	BYTE	KEYSH   OrganJawsFin_FINAL_key+0
// 000   ----------------------------------------
	BYTE	TEMPO   100*OrganJawsFin_FINAL_tbs/2
	BYTE		VOICE   19
	BYTE		MODT    0
	BYTE		LFOS    44
	BYTE		N48     Cn2   v088
	BYTE		N48     Cn3 
	BYTE	W48
	BYTE		N24     Dn2 
	BYTE		N24     Dn3 
	BYTE	W24
	BYTE		        Ds2 
	BYTE		N24     Ds3 
	BYTE	W24
// 001   ----------------------------------------
OrganJawsFin_FINAL_1_001:
	BYTE		N48     Gn2   v088
	BYTE		N48     Gn3 
	BYTE	W48
	BYTE		        Dn2 
	BYTE		N48     Dn3 
	BYTE	W48
	BYTE	PEND
// 002   ----------------------------------------
OrganJawsFin_FINAL_1_002:
	BYTE		N48     Fn2   v088
	BYTE		N48     Fn3 
	BYTE	W48
	BYTE		N24     Ds2 
	BYTE		N24     Ds3 
	BYTE	W24
	BYTE		        Dn2 
	BYTE		N24     Dn3 
	BYTE	W24
	BYTE	PEND
// 003   ----------------------------------------
OrganJawsFin_FINAL_1_003:
	BYTE		N48     Ds2   v088
	BYTE		N48     Ds3 
	BYTE	W48
	BYTE		        Dn2 
	BYTE		N48     Dn3 
	BYTE	W48
	BYTE	PEND
// 004   ----------------------------------------
OrganJawsFin_FINAL_1_004:
	BYTE		N48     Cn2   v088
	BYTE		N48     Cn3 
	BYTE	W48
	BYTE		N24     Dn2 
	BYTE		N24     Dn3 
	BYTE	W24
	BYTE		        Ds2 
	BYTE		N24     Ds3 
	BYTE	W24
	BYTE	PEND
// 005   ----------------------------------------
	BYTE	PATT
	 POIN2	OrganJawsFin_FINAL_1_001
// 006   ----------------------------------------
	BYTE	PATT
	 POIN2	OrganJawsFin_FINAL_1_002
// 007   ----------------------------------------
OrganJawsFin_FINAL_1_007:
	BYTE		N48     Ds2   v088
	BYTE		N48     Ds3 
	BYTE	W48
	BYTE		        Cn2 
	BYTE		N48     Cn3 
	BYTE	W48
	BYTE	PEND
OrganJawsFin_FINAL_1_B1:
// 008   ----------------------------------------
	BYTE	PATT
	 POIN2	OrganJawsFin_FINAL_1_004
// 009   ----------------------------------------
	BYTE	PATT
	 POIN2	OrganJawsFin_FINAL_1_001
// 010   ----------------------------------------
	BYTE	PATT
	 POIN2	OrganJawsFin_FINAL_1_002
// 011   ----------------------------------------
	BYTE	PATT
	 POIN2	OrganJawsFin_FINAL_1_003
// 012   ----------------------------------------
	BYTE	PATT
	 POIN2	OrganJawsFin_FINAL_1_004
// 013   ----------------------------------------
	BYTE	PATT
	 POIN2	OrganJawsFin_FINAL_1_001
// 014   ----------------------------------------
	BYTE	PATT
	 POIN2	OrganJawsFin_FINAL_1_002
// 015   ----------------------------------------
	BYTE	PATT
	 POIN2	OrganJawsFin_FINAL_1_007
// 016   ----------------------------------------
	BYTE	W96
// 017   ----------------------------------------
	BYTE	W96
// 018   ----------------------------------------
	BYTE	W96
// 019   ----------------------------------------
	BYTE	W96
// 020   ----------------------------------------
	BYTE	W96
// 021   ----------------------------------------
	BYTE	W96
// 022   ----------------------------------------
	BYTE	W96
// 023   ----------------------------------------
	BYTE	W96
// 024   ----------------------------------------
	BYTE	W96
// 025   ----------------------------------------
	BYTE	W96
// 026   ----------------------------------------
	BYTE	W96
// 027   ----------------------------------------
	BYTE	W96
// 028   ----------------------------------------
	BYTE	PATT
	 POIN2	OrganJawsFin_FINAL_1_004
// 029   ----------------------------------------
	BYTE	PATT
	 POIN2	OrganJawsFin_FINAL_1_001
// 030   ----------------------------------------
	BYTE	PATT
	 POIN2	OrganJawsFin_FINAL_1_002
// 031   ----------------------------------------
	BYTE	PATT
	 POIN2	OrganJawsFin_FINAL_1_007
// 032   ----------------------------------------
	BYTE	W96
// 033   ----------------------------------------
	BYTE	W96
// 034   ----------------------------------------
	BYTE	W96
// 035   ----------------------------------------
	BYTE	W96
// 036   ----------------------------------------
	BYTE	W96
// 037   ----------------------------------------
	BYTE	W96
// 038   ----------------------------------------
	BYTE	W96
// 039   ----------------------------------------
	BYTE	W96
// 040   ----------------------------------------
	BYTE	W96
// 041   ----------------------------------------
	BYTE	W96
// 042   ----------------------------------------
	BYTE	W96
// 043   ----------------------------------------
	BYTE	W96
// 044   ----------------------------------------
	BYTE	W96
// 045   ----------------------------------------
	BYTE	W96
// 046   ----------------------------------------
	BYTE	W96
// 047   ----------------------------------------
	BYTE	W96
// 048   ----------------------------------------
	BYTE	PATT
	 POIN2	OrganJawsFin_FINAL_1_004
// 049   ----------------------------------------
	BYTE	PATT
	 POIN2	OrganJawsFin_FINAL_1_001
// 050   ----------------------------------------
	BYTE	PATT
	 POIN2	OrganJawsFin_FINAL_1_002
// 051   ----------------------------------------
	BYTE	PATT
	 POIN2	OrganJawsFin_FINAL_1_003
// 052   ----------------------------------------
	BYTE	PATT
	 POIN2	OrganJawsFin_FINAL_1_004
// 053   ----------------------------------------
	BYTE	PATT
	 POIN2	OrganJawsFin_FINAL_1_001
// 054   ----------------------------------------
	BYTE	PATT
	 POIN2	OrganJawsFin_FINAL_1_002
// 055   ----------------------------------------
	BYTE	PATT
	 POIN2	OrganJawsFin_FINAL_1_007
// 056   ----------------------------------------
	BYTE	PATT
	 POIN2	OrganJawsFin_FINAL_1_004
// 057   ----------------------------------------
	BYTE	PATT
	 POIN2	OrganJawsFin_FINAL_1_001
// 058   ----------------------------------------
	BYTE	PATT
	 POIN2	OrganJawsFin_FINAL_1_002
// 059   ----------------------------------------
	BYTE	PATT
	 POIN2	OrganJawsFin_FINAL_1_003
// 060   ----------------------------------------
	BYTE	PATT
	 POIN2	OrganJawsFin_FINAL_1_004
// 061   ----------------------------------------
	BYTE	PATT
	 POIN2	OrganJawsFin_FINAL_1_001
// 062   ----------------------------------------
	BYTE	PATT
	 POIN2	OrganJawsFin_FINAL_1_002
// 063   ----------------------------------------
	BYTE	PATT
	 POIN2	OrganJawsFin_FINAL_1_007
	BYTE	GoTo
	 POIN2	OrganJawsFin_FINAL_1_B1
OrganJawsFin_FINAL_1_B2:
// 064   ----------------------------------------
	BYTE	FINE

//**************** Track 2 (Midi-Chn.2) ****************//

OrganJawsFin_FINAL_2:
	BYTE	KEYSH   OrganJawsFin_FINAL_key+0
// 000   ----------------------------------------
	BYTE		VOICE   69
	BYTE		MODT    0
	BYTE		LFOS    44
	BYTE		VOL     105*OrganJawsFin_FINAL_mvl/mxv
	BYTE		N48     Ds1   v088
	BYTE	W48
	BYTE		        Dn1 
	BYTE	W48
// 001   ----------------------------------------
OrganJawsFin_FINAL_2_001:
	BYTE		N48     Ds1   v088
	BYTE	W48
	BYTE		        Dn1 
	BYTE	W48
	BYTE	PEND
// 002   ----------------------------------------
OrganJawsFin_FINAL_2_002:
	BYTE		N48     Cn1   v088
	BYTE	W48
	BYTE		        Dn1 
	BYTE	W48
	BYTE	PEND
// 003   ----------------------------------------
	BYTE	PATT
	 POIN2	OrganJawsFin_FINAL_2_002
// 004   ----------------------------------------
	BYTE	PATT
	 POIN2	OrganJawsFin_FINAL_2_001
// 005   ----------------------------------------
	BYTE	PATT
	 POIN2	OrganJawsFin_FINAL_2_001
// 006   ----------------------------------------
	BYTE	PATT
	 POIN2	OrganJawsFin_FINAL_2_002
// 007   ----------------------------------------
	BYTE	PATT
	 POIN2	OrganJawsFin_FINAL_2_002
OrganJawsFin_FINAL_2_B1:
// 008   ----------------------------------------
	BYTE	PATT
	 POIN2	OrganJawsFin_FINAL_2_001
// 009   ----------------------------------------
	BYTE	PATT
	 POIN2	OrganJawsFin_FINAL_2_001
// 010   ----------------------------------------
	BYTE	PATT
	 POIN2	OrganJawsFin_FINAL_2_002
// 011   ----------------------------------------
	BYTE	PATT
	 POIN2	OrganJawsFin_FINAL_2_002
// 012   ----------------------------------------
	BYTE	PATT
	 POIN2	OrganJawsFin_FINAL_2_001
// 013   ----------------------------------------
	BYTE	PATT
	 POIN2	OrganJawsFin_FINAL_2_001
// 014   ----------------------------------------
	BYTE	PATT
	 POIN2	OrganJawsFin_FINAL_2_002
// 015   ----------------------------------------
	BYTE	PATT
	 POIN2	OrganJawsFin_FINAL_2_002
// 016   ----------------------------------------
OrganJawsFin_FINAL_2_016:
	BYTE		N06     Ds3   v088
	BYTE	W06
	BYTE		        Cn3 
	BYTE	W06
	BYTE		        Ds3 
	BYTE	W06
	BYTE		        Gn3 
	BYTE	W06
	BYTE		        Ds3 
	BYTE	W06
	BYTE		        Cn3 
	BYTE	W06
	BYTE		        Gn2 
	BYTE	W12
	BYTE		        Dn3 
	BYTE	W06
	BYTE		        Bn2 
	BYTE	W06
	BYTE		        Dn3 
	BYTE	W06
	BYTE		        Fn3 
	BYTE	W06
	BYTE		        Dn3 
	BYTE	W06
	BYTE		        Cn3 
	BYTE	W06
	BYTE		        Fn3 
	BYTE	W12
	BYTE	PEND
// 017   ----------------------------------------
OrganJawsFin_FINAL_2_017:
	BYTE		N06     Cn3   v088
	BYTE	W06
	BYTE		        Gs2 
	BYTE	W06
	BYTE		        Cn3 
	BYTE	W06
	BYTE		        Ds3 
	BYTE	W06
	BYTE		N06   
	BYTE	W06
	BYTE		        Cn3 
	BYTE	W06
	BYTE		        Gs2 
	BYTE	W12
	BYTE		        Ds3 
	BYTE	W06
	BYTE		        Cn3 
	BYTE	W06
	BYTE		        Ds3 
	BYTE	W06
	BYTE		        Gn3 
	BYTE	W06
	BYTE		        Dn3 
	BYTE	W06
	BYTE		        As2 
	BYTE	W06
	BYTE		        Gn2 
	BYTE	W12
	BYTE	PEND
// 018   ----------------------------------------
OrganJawsFin_FINAL_2_018:
	BYTE		N06     As2   v088
	BYTE	W06
	BYTE		        Gn2 
	BYTE	W06
	BYTE		        As2 
	BYTE	W06
	BYTE		        Dn3 
	BYTE	W06
	BYTE		        As2 
	BYTE	W06
	BYTE		        Gn2 
	BYTE	W06
	BYTE		        Dn3 
	BYTE	W12
	BYTE		N06   
	BYTE	W06
	BYTE		        As2 
	BYTE	W06
	BYTE		        Dn3 
	BYTE	W06
	BYTE		        Fn3 
	BYTE	W06
	BYTE		        Dn3 
	BYTE	W06
	BYTE		        As2 
	BYTE	W06
	BYTE		        Fn3 
	BYTE	W12
	BYTE	PEND
// 019   ----------------------------------------
OrganJawsFin_FINAL_2_019:
	BYTE		N06     Cn3   v088
	BYTE	W06
	BYTE		        Gs2 
	BYTE	W06
	BYTE		        Cn3 
	BYTE	W06
	BYTE		        Ds3 
	BYTE	W06
	BYTE		        Cn3 
	BYTE	W06
	BYTE		        Gs2 
	BYTE	W06
	BYTE		        Ds2 
	BYTE	W12
	BYTE		        Dn3 
	BYTE	W06
	BYTE		        As2 
	BYTE	W06
	BYTE		        Dn3 
	BYTE	W06
	BYTE		        Fn3 
	BYTE	W06
	BYTE		        Dn3 
	BYTE	W06
	BYTE		        As2 
	BYTE	W06
	BYTE		        Dn3 
	BYTE	W12
	BYTE	PEND
// 020   ----------------------------------------
	BYTE	PATT
	 POIN2	OrganJawsFin_FINAL_2_016
// 021   ----------------------------------------
	BYTE	PATT
	 POIN2	OrganJawsFin_FINAL_2_017
// 022   ----------------------------------------
	BYTE	PATT
	 POIN2	OrganJawsFin_FINAL_2_018
// 023   ----------------------------------------
	BYTE	PATT
	 POIN2	OrganJawsFin_FINAL_2_019
// 024   ----------------------------------------
	BYTE	PATT
	 POIN2	OrganJawsFin_FINAL_2_016
// 025   ----------------------------------------
	BYTE	PATT
	 POIN2	OrganJawsFin_FINAL_2_017
// 026   ----------------------------------------
	BYTE	PATT
	 POIN2	OrganJawsFin_FINAL_2_018
// 027   ----------------------------------------
	BYTE	PATT
	 POIN2	OrganJawsFin_FINAL_2_019
// 028   ----------------------------------------
	BYTE	PATT
	 POIN2	OrganJawsFin_FINAL_2_016
// 029   ----------------------------------------
	BYTE	PATT
	 POIN2	OrganJawsFin_FINAL_2_017
// 030   ----------------------------------------
	BYTE	PATT
	 POIN2	OrganJawsFin_FINAL_2_018
// 031   ----------------------------------------
	BYTE	PATT
	 POIN2	OrganJawsFin_FINAL_2_019
// 032   ----------------------------------------
	BYTE	W96
// 033   ----------------------------------------
	BYTE	W96
// 034   ----------------------------------------
	BYTE	W96
// 035   ----------------------------------------
	BYTE	W96
// 036   ----------------------------------------
	BYTE	W96
// 037   ----------------------------------------
	BYTE	W96
// 038   ----------------------------------------
	BYTE	W96
// 039   ----------------------------------------
	BYTE	W96
// 040   ----------------------------------------
	BYTE	W96
// 041   ----------------------------------------
	BYTE	W96
// 042   ----------------------------------------
	BYTE	W96
// 043   ----------------------------------------
	BYTE	W96
// 044   ----------------------------------------
	BYTE	W96
// 045   ----------------------------------------
	BYTE	W96
// 046   ----------------------------------------
	BYTE	W96
// 047   ----------------------------------------
	BYTE	W96
// 048   ----------------------------------------
	BYTE	W96
// 049   ----------------------------------------
	BYTE	W96
// 050   ----------------------------------------
	BYTE	W96
// 051   ----------------------------------------
	BYTE	W96
// 052   ----------------------------------------
	BYTE	W96
// 053   ----------------------------------------
	BYTE	W96
// 054   ----------------------------------------
	BYTE	W96
// 055   ----------------------------------------
	BYTE	W96
// 056   ----------------------------------------
	BYTE	PATT
	 POIN2	OrganJawsFin_FINAL_2_016
// 057   ----------------------------------------
	BYTE	PATT
	 POIN2	OrganJawsFin_FINAL_2_017
// 058   ----------------------------------------
	BYTE	PATT
	 POIN2	OrganJawsFin_FINAL_2_018
// 059   ----------------------------------------
	BYTE	PATT
	 POIN2	OrganJawsFin_FINAL_2_019
// 060   ----------------------------------------
	BYTE	PATT
	 POIN2	OrganJawsFin_FINAL_2_016
// 061   ----------------------------------------
	BYTE	PATT
	 POIN2	OrganJawsFin_FINAL_2_017
// 062   ----------------------------------------
	BYTE	PATT
	 POIN2	OrganJawsFin_FINAL_2_018
// 063   ----------------------------------------
	BYTE	PATT
	 POIN2	OrganJawsFin_FINAL_2_019
	BYTE	GoTo
	 POIN2	OrganJawsFin_FINAL_2_B1
OrganJawsFin_FINAL_2_B2:
// 064   ----------------------------------------
	BYTE	FINE

//**************** Track 3 (Midi-Chn.3) ****************//

OrganJawsFin_FINAL_3:
	BYTE	KEYSH   OrganJawsFin_FINAL_key+0
// 000   ----------------------------------------
	BYTE		VOICE   60
	BYTE		MODT    0
	BYTE		LFOS    44
	BYTE		VOL     61*OrganJawsFin_FINAL_mvl/mxv
	BYTE	W96
// 001   ----------------------------------------
	BYTE	W96
// 002   ----------------------------------------
	BYTE	W96
// 003   ----------------------------------------
	BYTE	W96
// 004   ----------------------------------------
	BYTE	W96
// 005   ----------------------------------------
	BYTE	W96
// 006   ----------------------------------------
	BYTE	W96
// 007   ----------------------------------------
	BYTE	W96
OrganJawsFin_FINAL_3_B1:
// 008   ----------------------------------------
	BYTE	W96
// 009   ----------------------------------------
	BYTE	W96
// 010   ----------------------------------------
	BYTE	W96
// 011   ----------------------------------------
	BYTE	W96
// 012   ----------------------------------------
	BYTE	W96
// 013   ----------------------------------------
	BYTE	W96
// 014   ----------------------------------------
	BYTE	W96
// 015   ----------------------------------------
	BYTE	W96
// 016   ----------------------------------------
	BYTE	W96
// 017   ----------------------------------------
	BYTE	W96
// 018   ----------------------------------------
	BYTE	W96
// 019   ----------------------------------------
	BYTE	W96
// 020   ----------------------------------------
	BYTE	W96
// 021   ----------------------------------------
	BYTE	W96
// 022   ----------------------------------------
	BYTE	W96
// 023   ----------------------------------------
	BYTE	W96
// 024   ----------------------------------------
	BYTE	W96
// 025   ----------------------------------------
	BYTE	W96
// 026   ----------------------------------------
	BYTE	W96
// 027   ----------------------------------------
	BYTE	W96
// 028   ----------------------------------------
	BYTE	W96
// 029   ----------------------------------------
	BYTE	W96
// 030   ----------------------------------------
	BYTE	W96
// 031   ----------------------------------------
	BYTE	W96
// 032   ----------------------------------------
	BYTE	W96
// 033   ----------------------------------------
	BYTE	W96
// 034   ----------------------------------------
	BYTE	W96
// 035   ----------------------------------------
	BYTE	W96
// 036   ----------------------------------------
	BYTE	W96
// 037   ----------------------------------------
	BYTE	W96
// 038   ----------------------------------------
	BYTE	W96
// 039   ----------------------------------------
	BYTE	W96
// 040   ----------------------------------------
	BYTE	W96
// 041   ----------------------------------------
	BYTE	W96
// 042   ----------------------------------------
	BYTE	W96
// 043   ----------------------------------------
	BYTE	W96
// 044   ----------------------------------------
	BYTE	W96
// 045   ----------------------------------------
	BYTE	W96
// 046   ----------------------------------------
	BYTE	W96
// 047   ----------------------------------------
	BYTE	W96
// 048   ----------------------------------------
OrganJawsFin_FINAL_3_048:
	BYTE		N48     Cn3   v088
	BYTE		N48     Cn4 
	BYTE	W48
	BYTE		N24     Dn3 
	BYTE		N24     Dn4 
	BYTE	W24
	BYTE		        Ds3 
	BYTE		N24     Ds4 
	BYTE	W24
	BYTE	PEND
// 049   ----------------------------------------
OrganJawsFin_FINAL_3_049:
	BYTE		N48     Gn3   v088
	BYTE		N48     Gn4 
	BYTE	W48
	BYTE		        Dn3 
	BYTE		N48     Dn4 
	BYTE	W48
	BYTE	PEND
// 050   ----------------------------------------
OrganJawsFin_FINAL_3_050:
	BYTE		N48     Fn3   v088
	BYTE		N48     Fn4 
	BYTE	W48
	BYTE		N24     Ds3 
	BYTE		N24     Ds4 
	BYTE	W24
	BYTE		        Dn3 
	BYTE		N24     Dn4 
	BYTE	W24
	BYTE	PEND
// 051   ----------------------------------------
OrganJawsFin_FINAL_3_051:
	BYTE		N48     Ds3   v088
	BYTE		N48     Ds4 
	BYTE	W48
	BYTE		        Dn3 
	BYTE		N48     Dn4 
	BYTE	W48
	BYTE	PEND
// 052   ----------------------------------------
	BYTE	PATT
	 POIN2	OrganJawsFin_FINAL_3_048
// 053   ----------------------------------------
	BYTE	PATT
	 POIN2	OrganJawsFin_FINAL_3_049
// 054   ----------------------------------------
	BYTE	PATT
	 POIN2	OrganJawsFin_FINAL_3_050
// 055   ----------------------------------------
OrganJawsFin_FINAL_3_055:
	BYTE		N48     Ds3   v088
	BYTE		N48     Ds4 
	BYTE	W48
	BYTE		        Cn3 
	BYTE		N48     Cn4 
	BYTE	W48
	BYTE	PEND
// 056   ----------------------------------------
	BYTE	PATT
	 POIN2	OrganJawsFin_FINAL_3_048
// 057   ----------------------------------------
	BYTE	PATT
	 POIN2	OrganJawsFin_FINAL_3_049
// 058   ----------------------------------------
	BYTE	PATT
	 POIN2	OrganJawsFin_FINAL_3_050
// 059   ----------------------------------------
	BYTE	PATT
	 POIN2	OrganJawsFin_FINAL_3_051
// 060   ----------------------------------------
	BYTE	PATT
	 POIN2	OrganJawsFin_FINAL_3_048
// 061   ----------------------------------------
	BYTE	PATT
	 POIN2	OrganJawsFin_FINAL_3_049
// 062   ----------------------------------------
	BYTE	PATT
	 POIN2	OrganJawsFin_FINAL_3_050
// 063   ----------------------------------------
	BYTE	PATT
	 POIN2	OrganJawsFin_FINAL_3_055
	BYTE	GoTo
	 POIN2	OrganJawsFin_FINAL_3_B1
OrganJawsFin_FINAL_3_B2:
// 064   ----------------------------------------
	BYTE	FINE

//**************** Track 4 (Midi-Chn.4) ****************//

OrganJawsFin_FINAL_4:
	BYTE	KEYSH   OrganJawsFin_FINAL_key+0
// 000   ----------------------------------------
	BYTE		VOICE   40
	BYTE		MODT    0
	BYTE		LFOS    44
	BYTE		VOL     65*OrganJawsFin_FINAL_mvl/mxv
	BYTE	W96
// 001   ----------------------------------------
	BYTE	W96
// 002   ----------------------------------------
	BYTE	W96
// 003   ----------------------------------------
	BYTE	W96
// 004   ----------------------------------------
	BYTE	W96
// 005   ----------------------------------------
	BYTE	W96
// 006   ----------------------------------------
	BYTE	W96
// 007   ----------------------------------------
	BYTE	W96
OrganJawsFin_FINAL_4_B1:
// 008   ----------------------------------------
	BYTE	W96
// 009   ----------------------------------------
	BYTE	W96
// 010   ----------------------------------------
	BYTE	W96
// 011   ----------------------------------------
	BYTE	W96
// 012   ----------------------------------------
	BYTE	W96
// 013   ----------------------------------------
	BYTE	W96
// 014   ----------------------------------------
	BYTE	W96
// 015   ----------------------------------------
	BYTE	W96
// 016   ----------------------------------------
	BYTE	W96
// 017   ----------------------------------------
	BYTE	W96
// 018   ----------------------------------------
	BYTE	W96
// 019   ----------------------------------------
	BYTE	W96
// 020   ----------------------------------------
	BYTE	W96
// 021   ----------------------------------------
	BYTE	W96
// 022   ----------------------------------------
	BYTE	W96
// 023   ----------------------------------------
	BYTE	W48
	BYTE		N48     Cn3   v088
	BYTE	W48
// 024   ----------------------------------------
OrganJawsFin_FINAL_4_024:
	BYTE		N48     Cn3   v088
	BYTE		N48     Cn4 
	BYTE	W48
	BYTE		N24     Dn3 
	BYTE		N24     Dn4 
	BYTE	W24
	BYTE		        Ds3 
	BYTE		N24     Ds4 
	BYTE	W24
	BYTE	PEND
// 025   ----------------------------------------
OrganJawsFin_FINAL_4_025:
	BYTE		N48     Gn3   v088
	BYTE		N48     Gn4 
	BYTE	W48
	BYTE		        Dn3 
	BYTE		N48     Dn4 
	BYTE	W48
	BYTE	PEND
// 026   ----------------------------------------
OrganJawsFin_FINAL_4_026:
	BYTE		N48     Fn3   v088
	BYTE		N48     Fn4 
	BYTE	W48
	BYTE		N24     Ds3 
	BYTE		N24     Ds4 
	BYTE	W24
	BYTE		        Dn3 
	BYTE		N24     Dn4 
	BYTE	W24
	BYTE	PEND
// 027   ----------------------------------------
OrganJawsFin_FINAL_4_027:
	BYTE		N48     Ds3   v088
	BYTE		N48     Ds4 
	BYTE	W48
	BYTE		        Dn3 
	BYTE		N48     Dn4 
	BYTE	W48
	BYTE	PEND
// 028   ----------------------------------------
	BYTE	PATT
	 POIN2	OrganJawsFin_FINAL_4_024
// 029   ----------------------------------------
	BYTE	PATT
	 POIN2	OrganJawsFin_FINAL_4_025
// 030   ----------------------------------------
	BYTE	PATT
	 POIN2	OrganJawsFin_FINAL_4_026
// 031   ----------------------------------------
OrganJawsFin_FINAL_4_031:
	BYTE		N48     Ds3   v088
	BYTE		N48     Ds4 
	BYTE	W48
	BYTE		        Cn3 
	BYTE		N48     Cn4 
	BYTE	W48
	BYTE	PEND
// 032   ----------------------------------------
	BYTE		        Cn3 
	BYTE	W96
// 033   ----------------------------------------
	BYTE	W96
// 034   ----------------------------------------
	BYTE	W96
// 035   ----------------------------------------
	BYTE	W96
// 036   ----------------------------------------
	BYTE	W96
// 037   ----------------------------------------
	BYTE	W96
// 038   ----------------------------------------
	BYTE	W96
// 039   ----------------------------------------
	BYTE	W96
// 040   ----------------------------------------
	BYTE	W96
// 041   ----------------------------------------
	BYTE	W96
// 042   ----------------------------------------
	BYTE	W96
// 043   ----------------------------------------
	BYTE	W96
// 044   ----------------------------------------
	BYTE	W96
// 045   ----------------------------------------
	BYTE	W96
// 046   ----------------------------------------
	BYTE	W96
// 047   ----------------------------------------
	BYTE	W96
// 048   ----------------------------------------
	BYTE	W96
// 049   ----------------------------------------
	BYTE	W96
// 050   ----------------------------------------
	BYTE	W96
// 051   ----------------------------------------
	BYTE	W96
// 052   ----------------------------------------
	BYTE	W96
// 053   ----------------------------------------
	BYTE	W96
// 054   ----------------------------------------
	BYTE	W96
// 055   ----------------------------------------
	BYTE	W48
	BYTE		N48   
	BYTE	W48
// 056   ----------------------------------------
	BYTE	PATT
	 POIN2	OrganJawsFin_FINAL_4_024
// 057   ----------------------------------------
	BYTE	PATT
	 POIN2	OrganJawsFin_FINAL_4_025
// 058   ----------------------------------------
	BYTE	PATT
	 POIN2	OrganJawsFin_FINAL_4_026
// 059   ----------------------------------------
	BYTE	PATT
	 POIN2	OrganJawsFin_FINAL_4_027
// 060   ----------------------------------------
	BYTE	PATT
	 POIN2	OrganJawsFin_FINAL_4_024
// 061   ----------------------------------------
	BYTE	PATT
	 POIN2	OrganJawsFin_FINAL_4_025
// 062   ----------------------------------------
	BYTE	PATT
	 POIN2	OrganJawsFin_FINAL_4_026
// 063   ----------------------------------------
	BYTE	PATT
	 POIN2	OrganJawsFin_FINAL_4_031
	BYTE	GoTo
	 POIN2	OrganJawsFin_FINAL_4_B1
OrganJawsFin_FINAL_4_B2:
// 064   ----------------------------------------
	BYTE	FINE

//**************** Track 5 (Midi-Chn.5) ****************//

OrganJawsFin_FINAL_5:
	BYTE		VOL     127*OrganJawsFin_FINAL_mvl/mxv
	BYTE	KEYSH   OrganJawsFin_FINAL_key+0
// 000   ----------------------------------------
	BYTE		VOICE   14
	BYTE		MODT    0
	BYTE		LFOS    44
	BYTE	W96
// 001   ----------------------------------------
	BYTE	W96
// 002   ----------------------------------------
	BYTE	W96
// 003   ----------------------------------------
	BYTE	W96
// 004   ----------------------------------------
	BYTE	W96
// 005   ----------------------------------------
	BYTE	W96
// 006   ----------------------------------------
	BYTE	W96
// 007   ----------------------------------------
	BYTE	W96
OrganJawsFin_FINAL_5_B1:
// 008   ----------------------------------------
	BYTE	W96
// 009   ----------------------------------------
	BYTE	W96
// 010   ----------------------------------------
	BYTE	W96
// 011   ----------------------------------------
	BYTE	W96
// 012   ----------------------------------------
	BYTE	W96
// 013   ----------------------------------------
	BYTE	W96
// 014   ----------------------------------------
	BYTE	W96
// 015   ----------------------------------------
	BYTE	W96
// 016   ----------------------------------------
	BYTE	W96
// 017   ----------------------------------------
	BYTE	W96
// 018   ----------------------------------------
	BYTE	W96
// 019   ----------------------------------------
	BYTE	W96
// 020   ----------------------------------------
	BYTE	W96
// 021   ----------------------------------------
	BYTE	W96
// 022   ----------------------------------------
	BYTE	W96
// 023   ----------------------------------------
	BYTE	W96
// 024   ----------------------------------------
	BYTE	W96
// 025   ----------------------------------------
	BYTE	W96
// 026   ----------------------------------------
	BYTE	W96
// 027   ----------------------------------------
	BYTE	W96
// 028   ----------------------------------------
	BYTE	W96
// 029   ----------------------------------------
	BYTE	W96
// 030   ----------------------------------------
	BYTE	W96
// 031   ----------------------------------------
	BYTE	W96
// 032   ----------------------------------------
	BYTE		N96     Cn3   v088
	BYTE	W96
// 033   ----------------------------------------
	BYTE	W96
// 034   ----------------------------------------
	BYTE		N96   
	BYTE	W96
// 035   ----------------------------------------
	BYTE	W96
// 036   ----------------------------------------
	BYTE		N96   
	BYTE	W96
// 037   ----------------------------------------
	BYTE	W96
// 038   ----------------------------------------
	BYTE		N96   
	BYTE	W96
// 039   ----------------------------------------
	BYTE	W96
// 040   ----------------------------------------
	BYTE		N96   
	BYTE	W96
// 041   ----------------------------------------
	BYTE		N96   
	BYTE	W96
// 042   ----------------------------------------
	BYTE		N96   
	BYTE	W96
// 043   ----------------------------------------
	BYTE		N96   
	BYTE	W96
// 044   ----------------------------------------
	BYTE		N96   
	BYTE	W96
// 045   ----------------------------------------
	BYTE		N96   
	BYTE	W96
// 046   ----------------------------------------
	BYTE		N96   
	BYTE	W96
// 047   ----------------------------------------
	BYTE		N96   
	BYTE	W96
// 048   ----------------------------------------
	BYTE	W96
// 049   ----------------------------------------
	BYTE	W96
// 050   ----------------------------------------
	BYTE	W96
// 051   ----------------------------------------
	BYTE	W96
// 052   ----------------------------------------
	BYTE	W96
// 053   ----------------------------------------
	BYTE	W96
// 054   ----------------------------------------
	BYTE	W96
// 055   ----------------------------------------
	BYTE	W96
// 056   ----------------------------------------
	BYTE	W96
// 057   ----------------------------------------
	BYTE	W96
// 058   ----------------------------------------
	BYTE	W96
// 059   ----------------------------------------
	BYTE	W96
// 060   ----------------------------------------
	BYTE	W96
// 061   ----------------------------------------
	BYTE	W96
// 062   ----------------------------------------
	BYTE	W96
// 063   ----------------------------------------
	BYTE	W96
	BYTE	GoTo
	 POIN2	OrganJawsFin_FINAL_5_B1
OrganJawsFin_FINAL_5_B2:
// 064   ----------------------------------------
	BYTE	FINE

//**************** Track 6 (Midi-Chn.6) ****************//

OrganJawsFin_FINAL_6:
	BYTE		VOL     127*OrganJawsFin_FINAL_mvl/mxv
	BYTE	KEYSH   OrganJawsFin_FINAL_key+0
// 000   ----------------------------------------
	BYTE		VOICE   52
	BYTE		MODT    0
	BYTE		LFOS    44
	BYTE	W96
// 001   ----------------------------------------
	BYTE	W96
// 002   ----------------------------------------
	BYTE	W96
// 003   ----------------------------------------
	BYTE	W96
// 004   ----------------------------------------
	BYTE	W96
// 005   ----------------------------------------
	BYTE	W96
// 006   ----------------------------------------
	BYTE	W96
// 007   ----------------------------------------
	BYTE	W96
OrganJawsFin_FINAL_6_B1:
// 008   ----------------------------------------
	BYTE	W96
// 009   ----------------------------------------
	BYTE	W96
// 010   ----------------------------------------
	BYTE	W96
// 011   ----------------------------------------
	BYTE	W96
// 012   ----------------------------------------
	BYTE	W96
// 013   ----------------------------------------
	BYTE	W96
// 014   ----------------------------------------
	BYTE	W96
// 015   ----------------------------------------
	BYTE	W96
// 016   ----------------------------------------
OrganJawsFin_FINAL_6_016:
	BYTE		N48     Ds4   v088
	BYTE	W48
	BYTE		        Dn4 
	BYTE	W48
	BYTE	PEND
// 017   ----------------------------------------
OrganJawsFin_FINAL_6_017:
	BYTE		N48     Cn4   v088
	BYTE		N48     Ds4 
	BYTE	W48
	BYTE		        Dn4 
	BYTE	W48
	BYTE	PEND
// 018   ----------------------------------------
OrganJawsFin_FINAL_6_018:
	BYTE		N48     Cn4   v088
	BYTE	W48
	BYTE		        Dn4 
	BYTE	W48
	BYTE	PEND
// 019   ----------------------------------------
	BYTE	PATT
	 POIN2	OrganJawsFin_FINAL_6_017
// 020   ----------------------------------------
	BYTE	PATT
	 POIN2	OrganJawsFin_FINAL_6_016
// 021   ----------------------------------------
	BYTE	PATT
	 POIN2	OrganJawsFin_FINAL_6_017
// 022   ----------------------------------------
	BYTE	PATT
	 POIN2	OrganJawsFin_FINAL_6_018
// 023   ----------------------------------------
	BYTE	PATT
	 POIN2	OrganJawsFin_FINAL_6_017
// 024   ----------------------------------------
	BYTE	PATT
	 POIN2	OrganJawsFin_FINAL_6_016
// 025   ----------------------------------------
	BYTE	PATT
	 POIN2	OrganJawsFin_FINAL_6_017
// 026   ----------------------------------------
	BYTE	PATT
	 POIN2	OrganJawsFin_FINAL_6_018
// 027   ----------------------------------------
	BYTE	PATT
	 POIN2	OrganJawsFin_FINAL_6_017
// 028   ----------------------------------------
	BYTE	PATT
	 POIN2	OrganJawsFin_FINAL_6_016
// 029   ----------------------------------------
	BYTE	PATT
	 POIN2	OrganJawsFin_FINAL_6_017
// 030   ----------------------------------------
	BYTE	PATT
	 POIN2	OrganJawsFin_FINAL_6_018
// 031   ----------------------------------------
	BYTE	PATT
	 POIN2	OrganJawsFin_FINAL_6_017
// 032   ----------------------------------------
OrganJawsFin_FINAL_6_032:
	BYTE		N96     Ds2   v088
	BYTE		N96     Gn2 
	BYTE		N96     Cn3 
	BYTE	W96
	BYTE	PEND
// 033   ----------------------------------------
OrganJawsFin_FINAL_6_033:
	BYTE		N96     Dn2   v088
	BYTE		N96     Gn2 
	BYTE		N96     Cn3 
	BYTE	W96
	BYTE	PEND
// 034   ----------------------------------------
OrganJawsFin_FINAL_6_034:
	BYTE		N96     Dn2   v088
	BYTE		N96     Fn2 
	BYTE		N96     As2 
	BYTE	W96
	BYTE	PEND
// 035   ----------------------------------------
OrganJawsFin_FINAL_6_035:
	BYTE		N96     Cn2   v088
	BYTE		N96     Fn2 
	BYTE		N96     As2 
	BYTE	W96
	BYTE	PEND
// 036   ----------------------------------------
OrganJawsFin_FINAL_6_036:
	BYTE		N96     Cn2   v088
	BYTE		N96     Fn2 
	BYTE		N96     Gs2 
	BYTE	W96
	BYTE	PEND
// 037   ----------------------------------------
OrganJawsFin_FINAL_6_037:
	BYTE		N96     Cn2   v088
	BYTE		N96     Ds2 
	BYTE		N96     Gs2 
	BYTE	W96
	BYTE	PEND
// 038   ----------------------------------------
OrganJawsFin_FINAL_6_038:
	BYTE		N96     Cn2   v088
	BYTE		N96     Ds2 
	BYTE		N96     Gn2 
	BYTE	W96
	BYTE	PEND
// 039   ----------------------------------------
OrganJawsFin_FINAL_6_039:
	BYTE		N96     As1   v088
	BYTE		N96     Dn2 
	BYTE		N96     Gn2 
	BYTE	W96
	BYTE	PEND
// 040   ----------------------------------------
	BYTE	PATT
	 POIN2	OrganJawsFin_FINAL_6_032
// 041   ----------------------------------------
	BYTE	PATT
	 POIN2	OrganJawsFin_FINAL_6_033
// 042   ----------------------------------------
	BYTE	PATT
	 POIN2	OrganJawsFin_FINAL_6_034
// 043   ----------------------------------------
	BYTE	PATT
	 POIN2	OrganJawsFin_FINAL_6_035
// 044   ----------------------------------------
	BYTE	PATT
	 POIN2	OrganJawsFin_FINAL_6_036
// 045   ----------------------------------------
	BYTE	PATT
	 POIN2	OrganJawsFin_FINAL_6_037
// 046   ----------------------------------------
	BYTE	PATT
	 POIN2	OrganJawsFin_FINAL_6_038
// 047   ----------------------------------------
	BYTE	PATT
	 POIN2	OrganJawsFin_FINAL_6_039
// 048   ----------------------------------------
OrganJawsFin_FINAL_6_048:
	BYTE		N48     Ds2   v088
	BYTE		N48     Ds3 
	BYTE	W48
	BYTE		        Dn2 
	BYTE		N48     Dn3 
	BYTE	W48
	BYTE	PEND
// 049   ----------------------------------------
	BYTE	PATT
	 POIN2	OrganJawsFin_FINAL_6_048
// 050   ----------------------------------------
OrganJawsFin_FINAL_6_050:
	BYTE		N48     Cn2   v088
	BYTE		N48     Cn3 
	BYTE	W48
	BYTE		        Dn2 
	BYTE		N48     Dn3 
	BYTE	W48
	BYTE	PEND
// 051   ----------------------------------------
	BYTE	PATT
	 POIN2	OrganJawsFin_FINAL_6_050
// 052   ----------------------------------------
	BYTE	PATT
	 POIN2	OrganJawsFin_FINAL_6_048
// 053   ----------------------------------------
	BYTE	PATT
	 POIN2	OrganJawsFin_FINAL_6_048
// 054   ----------------------------------------
	BYTE	PATT
	 POIN2	OrganJawsFin_FINAL_6_050
// 055   ----------------------------------------
	BYTE	PATT
	 POIN2	OrganJawsFin_FINAL_6_050
// 056   ----------------------------------------
	BYTE	PATT
	 POIN2	OrganJawsFin_FINAL_6_048
// 057   ----------------------------------------
	BYTE	PATT
	 POIN2	OrganJawsFin_FINAL_6_048
// 058   ----------------------------------------
	BYTE	PATT
	 POIN2	OrganJawsFin_FINAL_6_050
// 059   ----------------------------------------
	BYTE	PATT
	 POIN2	OrganJawsFin_FINAL_6_050
// 060   ----------------------------------------
	BYTE	PATT
	 POIN2	OrganJawsFin_FINAL_6_048
// 061   ----------------------------------------
	BYTE	PATT
	 POIN2	OrganJawsFin_FINAL_6_048
// 062   ----------------------------------------
	BYTE	PATT
	 POIN2	OrganJawsFin_FINAL_6_050
// 063   ----------------------------------------
	BYTE	PATT
	 POIN2	OrganJawsFin_FINAL_6_050
	BYTE	GoTo
	 POIN2	OrganJawsFin_FINAL_6_B1
OrganJawsFin_FINAL_6_B2:
// 064   ----------------------------------------
	BYTE	FINE

//**************** Track 7 (Midi-Chn.7) ****************//

OrganJawsFin_FINAL_7:
	BYTE	KEYSH   OrganJawsFin_FINAL_key+0
// 000   ----------------------------------------
	BYTE		VOICE   121
	BYTE		MODT    0
	BYTE		LFOS    44
	BYTE		VOL     76*OrganJawsFin_FINAL_mvl/mxv
	BYTE	W96
// 001   ----------------------------------------
	BYTE	W96
// 002   ----------------------------------------
	BYTE	W96
// 003   ----------------------------------------
	BYTE	W96
// 004   ----------------------------------------
	BYTE	W96
// 005   ----------------------------------------
	BYTE	W96
// 006   ----------------------------------------
	BYTE	W96
// 007   ----------------------------------------
	BYTE	W96
OrganJawsFin_FINAL_7_B1:
// 008   ----------------------------------------
OrganJawsFin_FINAL_7_008:
	BYTE		N12     Fn1   v088
	BYTE	W12
	BYTE		N12   
	BYTE	W12
	BYTE		        As1 
	BYTE	W12
	BYTE		        Fn1 
	BYTE	W12
	BYTE		N12   
	BYTE	W12
	BYTE		N12   
	BYTE	W12
	BYTE		        As1 
	BYTE	W24
	BYTE	PEND
// 009   ----------------------------------------
	BYTE	PATT
	 POIN2	OrganJawsFin_FINAL_7_008
// 010   ----------------------------------------
	BYTE	PATT
	 POIN2	OrganJawsFin_FINAL_7_008
// 011   ----------------------------------------
OrganJawsFin_FINAL_7_011:
	BYTE		N12     Fn1   v088
	BYTE	W12
	BYTE		N12   
	BYTE	W12
	BYTE		        As1 
	BYTE	W12
	BYTE		        Fn1 
	BYTE	W12
	BYTE		N12   
	BYTE	W12
	BYTE		N12   
	BYTE	W12
	BYTE		        As1 
	BYTE	W12
	BYTE		N06     Fn1 
	BYTE	W06
	BYTE		N06   
	BYTE	W06
	BYTE	PEND
// 012   ----------------------------------------
	BYTE	PATT
	 POIN2	OrganJawsFin_FINAL_7_008
// 013   ----------------------------------------
	BYTE	PATT
	 POIN2	OrganJawsFin_FINAL_7_008
// 014   ----------------------------------------
	BYTE	PATT
	 POIN2	OrganJawsFin_FINAL_7_008
// 015   ----------------------------------------
	BYTE	PATT
	 POIN2	OrganJawsFin_FINAL_7_011
// 016   ----------------------------------------
	BYTE	PATT
	 POIN2	OrganJawsFin_FINAL_7_008
// 017   ----------------------------------------
	BYTE	PATT
	 POIN2	OrganJawsFin_FINAL_7_008
// 018   ----------------------------------------
	BYTE	PATT
	 POIN2	OrganJawsFin_FINAL_7_008
// 019   ----------------------------------------
	BYTE	PATT
	 POIN2	OrganJawsFin_FINAL_7_011
// 020   ----------------------------------------
	BYTE	PATT
	 POIN2	OrganJawsFin_FINAL_7_008
// 021   ----------------------------------------
	BYTE	PATT
	 POIN2	OrganJawsFin_FINAL_7_008
// 022   ----------------------------------------
	BYTE	PATT
	 POIN2	OrganJawsFin_FINAL_7_008
// 023   ----------------------------------------
	BYTE	PATT
	 POIN2	OrganJawsFin_FINAL_7_011
// 024   ----------------------------------------
OrganJawsFin_FINAL_7_024:
	BYTE		N12     Fn1   v088
	BYTE	W12
	BYTE		N12   
	BYTE	W12
	BYTE		        Gs1 
	BYTE		N12     As1 
	BYTE	W12
	BYTE		N06     Fn1 
	BYTE	W06
	BYTE		        Fs1 
	BYTE		N06     Gs1 
	BYTE	W06
	BYTE		N12     Fn1 
	BYTE	W12
	BYTE		N12   
	BYTE	W12
	BYTE		        Gs1 
	BYTE		N12     As1 
	BYTE	W18
	BYTE		N06     Gs1 
	BYTE	W06
	BYTE	PEND
// 025   ----------------------------------------
	BYTE	PATT
	 POIN2	OrganJawsFin_FINAL_7_024
// 026   ----------------------------------------
	BYTE	PATT
	 POIN2	OrganJawsFin_FINAL_7_024
// 027   ----------------------------------------
OrganJawsFin_FINAL_7_027:
	BYTE		N12     Fn1   v088
	BYTE	W12
	BYTE		N12   
	BYTE	W12
	BYTE		        Gs1 
	BYTE		N12     As1 
	BYTE	W12
	BYTE		N06     Fn1 
	BYTE	W06
	BYTE		        Fs1 
	BYTE		N06     Gs1 
	BYTE	W06
	BYTE		N12     Fn1 
	BYTE	W12
	BYTE		N12   
	BYTE	W12
	BYTE		        Gs1 
	BYTE		N12     As1 
	BYTE	W12
	BYTE		N06     Fn1 
	BYTE	W06
	BYTE		        Fs1 
	BYTE		N06     Gs1 
	BYTE	W06
	BYTE	PEND
// 028   ----------------------------------------
	BYTE	PATT
	 POIN2	OrganJawsFin_FINAL_7_024
// 029   ----------------------------------------
	BYTE	PATT
	 POIN2	OrganJawsFin_FINAL_7_024
// 030   ----------------------------------------
	BYTE	PATT
	 POIN2	OrganJawsFin_FINAL_7_024
// 031   ----------------------------------------
	BYTE	PATT
	 POIN2	OrganJawsFin_FINAL_7_027
// 032   ----------------------------------------
	BYTE	W96
// 033   ----------------------------------------
	BYTE	W96
// 034   ----------------------------------------
	BYTE	W96
// 035   ----------------------------------------
	BYTE	W96
// 036   ----------------------------------------
	BYTE	W96
// 037   ----------------------------------------
	BYTE	W96
// 038   ----------------------------------------
	BYTE	W96
// 039   ----------------------------------------
	BYTE	W96
// 040   ----------------------------------------
	BYTE	PATT
	 POIN2	OrganJawsFin_FINAL_7_008
// 041   ----------------------------------------
	BYTE	PATT
	 POIN2	OrganJawsFin_FINAL_7_008
// 042   ----------------------------------------
	BYTE	PATT
	 POIN2	OrganJawsFin_FINAL_7_008
// 043   ----------------------------------------
	BYTE	PATT
	 POIN2	OrganJawsFin_FINAL_7_011
// 044   ----------------------------------------
	BYTE	PATT
	 POIN2	OrganJawsFin_FINAL_7_008
// 045   ----------------------------------------
	BYTE	PATT
	 POIN2	OrganJawsFin_FINAL_7_008
// 046   ----------------------------------------
	BYTE	PATT
	 POIN2	OrganJawsFin_FINAL_7_008
// 047   ----------------------------------------
	BYTE	PATT
	 POIN2	OrganJawsFin_FINAL_7_011
// 048   ----------------------------------------
	BYTE	PATT
	 POIN2	OrganJawsFin_FINAL_7_024
// 049   ----------------------------------------
	BYTE	PATT
	 POIN2	OrganJawsFin_FINAL_7_024
// 050   ----------------------------------------
	BYTE	PATT
	 POIN2	OrganJawsFin_FINAL_7_024
// 051   ----------------------------------------
	BYTE	PATT
	 POIN2	OrganJawsFin_FINAL_7_027
// 052   ----------------------------------------
	BYTE	PATT
	 POIN2	OrganJawsFin_FINAL_7_024
// 053   ----------------------------------------
	BYTE	PATT
	 POIN2	OrganJawsFin_FINAL_7_024
// 054   ----------------------------------------
	BYTE	PATT
	 POIN2	OrganJawsFin_FINAL_7_024
// 055   ----------------------------------------
	BYTE	PATT
	 POIN2	OrganJawsFin_FINAL_7_027
// 056   ----------------------------------------
	BYTE	PATT
	 POIN2	OrganJawsFin_FINAL_7_024
// 057   ----------------------------------------
	BYTE	PATT
	 POIN2	OrganJawsFin_FINAL_7_024
// 058   ----------------------------------------
	BYTE	PATT
	 POIN2	OrganJawsFin_FINAL_7_024
// 059   ----------------------------------------
	BYTE	PATT
	 POIN2	OrganJawsFin_FINAL_7_027
// 060   ----------------------------------------
	BYTE	PATT
	 POIN2	OrganJawsFin_FINAL_7_024
// 061   ----------------------------------------
	BYTE	PATT
	 POIN2	OrganJawsFin_FINAL_7_024
// 062   ----------------------------------------
	BYTE	PATT
	 POIN2	OrganJawsFin_FINAL_7_024
// 063   ----------------------------------------
	BYTE	PATT
	 POIN2	OrganJawsFin_FINAL_7_027
	BYTE	GoTo
	 POIN2	OrganJawsFin_FINAL_7_B1
OrganJawsFin_FINAL_7_B2:
// 064   ----------------------------------------
	BYTE	FINE

//******************************************************//
	ALIGN 4

OrganJawsFin_FINAL:
	BYTE	7	// NumTrks
	BYTE	0	// NumBlks
	BYTE	OrganJawsFin_FINAL_pri	// Priority
	BYTE	OrganJawsFin_FINAL_rev	// Reverb.

	POIN2	OrganJawsFin_FINAL_grp

	POIN2	OrganJawsFin_FINAL_1
	POIN2	OrganJawsFin_FINAL_2
	POIN2	OrganJawsFin_FINAL_3
	POIN2	OrganJawsFin_FINAL_4
	POIN2	OrganJawsFin_FINAL_5
	POIN2	OrganJawsFin_FINAL_6
	POIN2	OrganJawsFin_FINAL_7

	
