//Event file generated from Sappy .s format.
	#include "MPlayDef.event"

	#define	ABleedingFight_grp  voicegroup000
	#define	ABleedingFight_pri  0
	#define	ABleedingFight_rev  0
	#define	ABleedingFight_mvl  127
	#define	ABleedingFight_key  0
	#define	ABleedingFight_tbs  1
	#define	ABleedingFight_exg  0
	#define	ABleedingFight_cmp  1

	// .rodata
	//	ABleedingFight
	ALIGN 4


//**************** Track 1 (Midi-Chn.0) ****************//

ABleedingFight_001:
//  #01 //000   ----------------------------------------
 BYTE   KEYSH   ABleedingFight_key+0
 BYTE   TEMPO   100*ABleedingFight_tbs/2
 BYTE   VOICE   6
 BYTE   N12  Dn4  v100
 BYTE   VOL   62*ABleedingFight_mvl/mxv
 BYTE   W12
 BYTE   N12  An4
 BYTE   W12
 BYTE   Dn4
 BYTE   W12
 BYTE   Fn4
 BYTE   W12
 BYTE   Dn4
 BYTE   W12
 BYTE   An4
 BYTE   W12
 BYTE   Gn4
 BYTE   W12
 BYTE   Fn4
 BYTE   W12
//  #01 //001   ----------------------------------------
Label_013C20D3:
 BYTE   N12  Dn4  v100
 BYTE   W12
 BYTE   Gs4
 BYTE   W12
 BYTE   Dn4
 BYTE   W12
 BYTE   Fn4
 BYTE   W12
 BYTE   Dn4
 BYTE   W12
 BYTE   Gs4
 BYTE   W12
 BYTE   Gn4
 BYTE   W12
 BYTE   Fn4
 BYTE   W12
 BYTE   PEND 
//  #01 //002   ----------------------------------------
Label_013C20E6:
 BYTE   N12  Cs4  v100
 BYTE   W12
 BYTE   Gs4
 BYTE   W12
 BYTE   Cs4
 BYTE   W12
 BYTE   En4
 BYTE   W12
 BYTE   Cs4
 BYTE   W12
 BYTE   Gs4
 BYTE   W12
 BYTE   Fs4
 BYTE   W12
 BYTE   En4
 BYTE   W12
 BYTE   PEND 
//  #01 //003   ----------------------------------------
Label_013C20F9:
 BYTE   N12  Cn4  v100
 BYTE   W12
 BYTE   Gn4
 BYTE   W12
 BYTE   Cn4
 BYTE   W12
 BYTE   En4
 BYTE   W12
 BYTE   Cn4
 BYTE   W12
 BYTE   Gn4
 BYTE   W12
 BYTE   Fn4
 BYTE   W12
 BYTE   En4
 BYTE   W12
 BYTE   PEND 
//  #01 //004   ----------------------------------------
Label_013C210C:
 BYTE   N12  Dn4  v100
 BYTE   W12
 BYTE   An4
 BYTE   W12
 BYTE   Dn4
 BYTE   W12
 BYTE   Fn4
 BYTE   W12
 BYTE   Dn4
 BYTE   W12
 BYTE   An4
 BYTE   W12
 BYTE   Gn4
 BYTE   W12
 BYTE   Fn4
 BYTE   W12
//  #01 //005   ----------------------------------------
 BYTE   PATT
  POIN2 Label_013C20D3
//  #01 //006   ----------------------------------------
 BYTE   PATT
  POIN2 Label_013C20E6
//  #01 //007   ----------------------------------------
 BYTE   PATT
  POIN2 Label_013C20F9
//  #01 //008   ----------------------------------------
Label_013C212D:
 BYTE   N12  Dn4  v100
 BYTE   W12
 BYTE   An4
 BYTE   W12
 BYTE   Dn4
 BYTE   W12
 BYTE   Fn4
 BYTE   W12
 BYTE   Dn4
 BYTE   W12
 BYTE   An4
 BYTE   W12
 BYTE   Gn4
 BYTE   W12
 BYTE   Fn4
 BYTE   W12
 BYTE   PEND 
//  #01 //009   ----------------------------------------
 BYTE   PATT
  POIN2 Label_013C20D3
//  #01 //010   ----------------------------------------
 BYTE   PATT
  POIN2 Label_013C20E6
//  #01 //011   ----------------------------------------
 BYTE   PATT
  POIN2 Label_013C20F9
//  #01 //012   ----------------------------------------
 BYTE   PATT
  POIN2 Label_013C212D
//  #01 //013   ----------------------------------------
 BYTE   PATT
  POIN2 Label_013C20D3
//  #01 //014   ----------------------------------------
 BYTE   PATT
  POIN2 Label_013C20E6
//  #01 //015   ----------------------------------------
 BYTE   PATT
  POIN2 Label_013C20F9
//  #01 //016   ----------------------------------------
 BYTE   PATT
  POIN2 Label_013C212D
//  #01 //017   ----------------------------------------
 BYTE   PATT
  POIN2 Label_013C20D3
//  #01 //018   ----------------------------------------
 BYTE   PATT
  POIN2 Label_013C20E6
//  #01 //019   ----------------------------------------
 BYTE   PATT
  POIN2 Label_013C20F9
//  #01 //020   ----------------------------------------
 BYTE   PATT
  POIN2 Label_013C212D
//  #01 //021   ----------------------------------------
 BYTE   PATT
  POIN2 Label_013C20D3
//  #01 //022   ----------------------------------------
 BYTE   PATT
  POIN2 Label_013C20E6
//  #01 //023   ----------------------------------------
 BYTE   PATT
  POIN2 Label_013C20F9
//  #01 //024   ----------------------------------------
 BYTE   PATT
  POIN2 Label_013C212D
//  #01 //025   ----------------------------------------
 BYTE   PATT
  POIN2 Label_013C20D3
//  #01 //026   ----------------------------------------
 BYTE   PATT
  POIN2 Label_013C20E6
//  #01 //027   ----------------------------------------
 BYTE   PATT
  POIN2 Label_013C20F9
//  #01 //028   ----------------------------------------
 BYTE   PATT
  POIN2 Label_013C212D
//  #01 //029   ----------------------------------------
 BYTE   PATT
  POIN2 Label_013C20D3
//  #01 //030   ----------------------------------------
 BYTE   PATT
  POIN2 Label_013C20E6
//  #01 //031   ----------------------------------------
 BYTE   PATT
  POIN2 Label_013C20F9
//  #01 //032   ----------------------------------------
 BYTE   PATT
  POIN2 Label_013C212D
//  #01 //033   ----------------------------------------
 BYTE   PATT
  POIN2 Label_013C20D3
//  #01 //034   ----------------------------------------
 BYTE   PATT
  POIN2 Label_013C20E6
//  #01 //035   ----------------------------------------
 BYTE   PATT
  POIN2 Label_013C20F9
//  #01 //036   ----------------------------------------
 BYTE   PATT
  POIN2 Label_013C212D
//  #01 //037   ----------------------------------------
 BYTE   PATT
  POIN2 Label_013C20D3
//  #01 //038   ----------------------------------------
 BYTE   PATT
  POIN2 Label_013C20E6
//  #01 //039   ----------------------------------------
 BYTE   PATT
  POIN2 Label_013C20F9
//  #01 //040   ----------------------------------------
 BYTE   PATT
  POIN2 Label_013C212D
//  #01 //041   ----------------------------------------
 BYTE   PATT
  POIN2 Label_013C20D3
//  #01 //042   ----------------------------------------
 BYTE   PATT
  POIN2 Label_013C20E6
//  #01 //043   ----------------------------------------
 BYTE   PATT
  POIN2 Label_013C20F9
//  #01 //044   ----------------------------------------
 BYTE   GoTo
  POIN2 Label_013C210C
 BYTE   FINE

//**************** Track 2 (Midi-Chn.1) ****************//

ABleedingFight_002:
//  #02 //000   ----------------------------------------
 BYTE   KEYSH   ABleedingFight_key+0
 BYTE   VOICE   20
 BYTE   N06  An3  v100
 BYTE   VOL   62*ABleedingFight_mvl/mxv
 BYTE   W12
 BYTE   N06
 BYTE   W12
 BYTE   An3
 BYTE   W12
 BYTE   An3
 BYTE   W12
 BYTE   An3
 BYTE   W12
 BYTE   An3
 BYTE   W12
 BYTE   An3
 BYTE   W12
 BYTE   An3
 BYTE   W12
//  #02 //001   ----------------------------------------
Label_013AD59C:
 BYTE   N06  Gs3  v100
 BYTE   W12
 BYTE   Gs3
 BYTE   W12
 BYTE   Gs3
 BYTE   W12
 BYTE   Gs3
 BYTE   W12
 BYTE   Gs3
 BYTE   W12
 BYTE   Gs3
 BYTE   W12
 BYTE   Gs3
 BYTE   W12
 BYTE   Gs3
 BYTE   W12
 BYTE   PEND 
//  #02 //002   ----------------------------------------
 BYTE   PATT
  POIN2 Label_013AD59C
//  #02 //003   ----------------------------------------
Label_013AD5B4:
 BYTE   N06  Gn3  v100
 BYTE   W12
 BYTE   Gn3
 BYTE   W12
 BYTE   Gn3
 BYTE   W12
 BYTE   Gn3
 BYTE   W12
 BYTE   Gn3
 BYTE   W12
 BYTE   Gn3
 BYTE   W12
 BYTE   Gn3
 BYTE   W12
 BYTE   Gn3
 BYTE   W12
 BYTE   PEND 
//  #02 //004   ----------------------------------------
Label_013AD5C7:
 BYTE   N06  An3  v100
 BYTE   W12
 BYTE   An3
 BYTE   W12
 BYTE   An3
 BYTE   W12
 BYTE   An3
 BYTE   W12
 BYTE   An3
 BYTE   W12
 BYTE   An3
 BYTE   W12
 BYTE   An3
 BYTE   W12
 BYTE   An3
 BYTE   W12
//  #02 //005   ----------------------------------------
 BYTE   PATT
  POIN2 Label_013AD59C
//  #02 //006   ----------------------------------------
 BYTE   PATT
  POIN2 Label_013AD59C
//  #02 //007   ----------------------------------------
 BYTE   PATT
  POIN2 Label_013AD5B4
//  #02 //008   ----------------------------------------
Label_013AD5E8:
 BYTE   N06  An3  v100
 BYTE   W12
 BYTE   An3
 BYTE   W12
 BYTE   An3
 BYTE   W12
 BYTE   An3
 BYTE   W12
 BYTE   An3
 BYTE   W12
 BYTE   An3
 BYTE   W12
 BYTE   An3
 BYTE   W12
 BYTE   An3
 BYTE   W12
 BYTE   PEND 
//  #02 //009   ----------------------------------------
 BYTE   PATT
  POIN2 Label_013AD59C
//  #02 //010   ----------------------------------------
 BYTE   PATT
  POIN2 Label_013AD59C
//  #02 //011   ----------------------------------------
 BYTE   PATT
  POIN2 Label_013AD5B4
//  #02 //012   ----------------------------------------
 BYTE   PATT
  POIN2 Label_013AD5E8
//  #02 //013   ----------------------------------------
 BYTE   PATT
  POIN2 Label_013AD59C
//  #02 //014   ----------------------------------------
 BYTE   PATT
  POIN2 Label_013AD59C
//  #02 //015   ----------------------------------------
 BYTE   PATT
  POIN2 Label_013AD5B4
//  #02 //016   ----------------------------------------
 BYTE   PATT
  POIN2 Label_013AD5E8
//  #02 //017   ----------------------------------------
 BYTE   PATT
  POIN2 Label_013AD59C
//  #02 //018   ----------------------------------------
 BYTE   PATT
  POIN2 Label_013AD59C
//  #02 //019   ----------------------------------------
 BYTE   PATT
  POIN2 Label_013AD5B4
//  #02 //020   ----------------------------------------
 BYTE   PATT
  POIN2 Label_013AD5E8
//  #02 //021   ----------------------------------------
 BYTE   PATT
  POIN2 Label_013AD59C
//  #02 //022   ----------------------------------------
 BYTE   PATT
  POIN2 Label_013AD59C
//  #02 //023   ----------------------------------------
 BYTE   PATT
  POIN2 Label_013AD5B4
//  #02 //024   ----------------------------------------
 BYTE   PATT
  POIN2 Label_013AD5E8
//  #02 //025   ----------------------------------------
 BYTE   PATT
  POIN2 Label_013AD59C
//  #02 //026   ----------------------------------------
 BYTE   PATT
  POIN2 Label_013AD59C
//  #02 //027   ----------------------------------------
 BYTE   PATT
  POIN2 Label_013AD5B4
//  #02 //028   ----------------------------------------
 BYTE   PATT
  POIN2 Label_013AD5E8
//  #02 //029   ----------------------------------------
 BYTE   PATT
  POIN2 Label_013AD59C
//  #02 //030   ----------------------------------------
 BYTE   PATT
  POIN2 Label_013AD59C
//  #02 //031   ----------------------------------------
 BYTE   PATT
  POIN2 Label_013AD5B4
//  #02 //032   ----------------------------------------
 BYTE   PATT
  POIN2 Label_013AD5E8
//  #02 //033   ----------------------------------------
 BYTE   PATT
  POIN2 Label_013AD59C
//  #02 //034   ----------------------------------------
 BYTE   PATT
  POIN2 Label_013AD59C
//  #02 //035   ----------------------------------------
 BYTE   PATT
  POIN2 Label_013AD5B4
//  #02 //036   ----------------------------------------
 BYTE   PATT
  POIN2 Label_013AD5E8
//  #02 //037   ----------------------------------------
 BYTE   PATT
  POIN2 Label_013AD59C
//  #02 //038   ----------------------------------------
 BYTE   PATT
  POIN2 Label_013AD59C
//  #02 //039   ----------------------------------------
 BYTE   PATT
  POIN2 Label_013AD5B4
//  #02 //040   ----------------------------------------
 BYTE   PATT
  POIN2 Label_013AD5E8
//  #02 //041   ----------------------------------------
 BYTE   PATT
  POIN2 Label_013AD59C
//  #02 //042   ----------------------------------------
 BYTE   PATT
  POIN2 Label_013AD59C
//  #02 //043   ----------------------------------------
 BYTE   PATT
  POIN2 Label_013AD5B4
//  #02 //044   ----------------------------------------
 BYTE   GoTo
  POIN2 Label_013AD5C7
 BYTE   FINE

//**************** Track 3 (Midi-Chn.2) ****************//

ABleedingFight_003:
//  #03 //000   ----------------------------------------
 BYTE   KEYSH   ABleedingFight_key+0
 BYTE   VOICE   70
 BYTE   N96  An1  v100
 BYTE   VOL   62*ABleedingFight_mvl/mxv
 BYTE   W96
//  #03 //001   ----------------------------------------
 BYTE   N96  Gs1
 BYTE   W96
//  #03 //002   ----------------------------------------
 BYTE   Gs1
 BYTE   W96
//  #03 //003   ----------------------------------------
 BYTE   Gn1
 BYTE   W96
//  #03 //004   ----------------------------------------
Label_013AD9A9:
 BYTE   N96  An1  v100
 BYTE   W96
//  #03 //005   ----------------------------------------
 BYTE   Gs1
 BYTE   W96
//  #03 //006   ----------------------------------------
 BYTE   Gs1
 BYTE   W96
//  #03 //007   ----------------------------------------
 BYTE   Gn1
 BYTE   W96
//  #03 //008   ----------------------------------------
 BYTE   An1
 BYTE   W96
//  #03 //009   ----------------------------------------
 BYTE   Gs1
 BYTE   W96
//  #03 //010   ----------------------------------------
 BYTE   Gs1
 BYTE   W96
//  #03 //011   ----------------------------------------
 BYTE   Gn1
 BYTE   W96
//  #03 //012   ----------------------------------------
 BYTE   An1
 BYTE   W96
//  #03 //013   ----------------------------------------
 BYTE   Gs1
 BYTE   W96
//  #03 //014   ----------------------------------------
 BYTE   Gs1
 BYTE   W96
//  #03 //015   ----------------------------------------
 BYTE   Gn1
 BYTE   W96
//  #03 //016   ----------------------------------------
 BYTE   W96
//  #03 //017   ----------------------------------------
 BYTE   W96
//  #03 //018   ----------------------------------------
 BYTE   W96
//  #03 //019   ----------------------------------------
 BYTE   W96
//  #03 //020   ----------------------------------------
 BYTE   W96
//  #03 //021   ----------------------------------------
 BYTE   W96
//  #03 //022   ----------------------------------------
 BYTE   W96
//  #03 //023   ----------------------------------------
 BYTE   W96
//  #03 //024   ----------------------------------------
 BYTE   W96
//  #03 //025   ----------------------------------------
 BYTE   W96
//  #03 //026   ----------------------------------------
 BYTE   W96
//  #03 //027   ----------------------------------------
 BYTE   W96
//  #03 //028   ----------------------------------------
 BYTE   W96
//  #03 //029   ----------------------------------------
 BYTE   W96
//  #03 //030   ----------------------------------------
 BYTE   W96
//  #03 //031   ----------------------------------------
 BYTE   W96
//  #03 //032   ----------------------------------------
 BYTE   An1
 BYTE   W96
//  #03 //033   ----------------------------------------
 BYTE   Gs1
 BYTE   W96
//  #03 //034   ----------------------------------------
 BYTE   Gs1
 BYTE   W96
//  #03 //035   ----------------------------------------
 BYTE   Gn1
 BYTE   W96
//  #03 //036   ----------------------------------------
 BYTE   An1
 BYTE   W96
//  #03 //037   ----------------------------------------
 BYTE   Gs1
 BYTE   W96
//  #03 //038   ----------------------------------------
 BYTE   Gs1
 BYTE   W96
//  #03 //039   ----------------------------------------
 BYTE   Gn1
 BYTE   W96
//  #03 //040   ----------------------------------------
 BYTE   An1
 BYTE   W96
//  #03 //041   ----------------------------------------
 BYTE   Gs1
 BYTE   W96
//  #03 //042   ----------------------------------------
 BYTE   Gs1
 BYTE   W96
//  #03 //043   ----------------------------------------
 BYTE   Gn1
 BYTE   W96
//  #03 //044   ----------------------------------------
 BYTE   GoTo
  POIN2 Label_013AD9A9
 BYTE   FINE

//**************** Track 4 (Midi-Chn.3) ****************//

ABleedingFight_004:
//  #04 //000   ----------------------------------------
 BYTE   KEYSH   ABleedingFight_key+0
 BYTE   VOICE   68
 BYTE   N96  An3  v100
 BYTE   VOL   62*ABleedingFight_mvl/mxv
 BYTE   W96
//  #04 //001   ----------------------------------------
 BYTE   N96  Gs3
 BYTE   W96
//  #04 //002   ----------------------------------------
 BYTE   Gs3
 BYTE   W96
//  #04 //003   ----------------------------------------
 BYTE   Gn3
 BYTE   W96
//  #04 //004   ----------------------------------------
Label_013AD7E5:
 BYTE   N96  An3  v100
 BYTE   W96
//  #04 //005   ----------------------------------------
 BYTE   Gs3
 BYTE   W96
//  #04 //006   ----------------------------------------
 BYTE   Gs3
 BYTE   W96
//  #04 //007   ----------------------------------------
 BYTE   Gn3
 BYTE   W96
//  #04 //008   ----------------------------------------
 BYTE   An3
 BYTE   W96
//  #04 //009   ----------------------------------------
 BYTE   Gs3
 BYTE   W96
//  #04 //010   ----------------------------------------
 BYTE   Gs3
 BYTE   W96
//  #04 //011   ----------------------------------------
 BYTE   Gn3
 BYTE   W96
//  #04 //012   ----------------------------------------
 BYTE   An3
 BYTE   W96
//  #04 //013   ----------------------------------------
 BYTE   Gs3
 BYTE   W96
//  #04 //014   ----------------------------------------
 BYTE   Gs3
 BYTE   W96
//  #04 //015   ----------------------------------------
 BYTE   Gn3
 BYTE   W96
//  #04 //016   ----------------------------------------
 BYTE   W96
//  #04 //017   ----------------------------------------
 BYTE   W96
//  #04 //018   ----------------------------------------
 BYTE   W96
//  #04 //019   ----------------------------------------
 BYTE   W96
//  #04 //020   ----------------------------------------
 BYTE   W96
//  #04 //021   ----------------------------------------
 BYTE   W96
//  #04 //022   ----------------------------------------
 BYTE   W96
//  #04 //023   ----------------------------------------
 BYTE   W96
//  #04 //024   ----------------------------------------
 BYTE   W96
//  #04 //025   ----------------------------------------
 BYTE   W96
//  #04 //026   ----------------------------------------
 BYTE   W96
//  #04 //027   ----------------------------------------
 BYTE   W96
//  #04 //028   ----------------------------------------
 BYTE   W96
//  #04 //029   ----------------------------------------
 BYTE   W96
//  #04 //030   ----------------------------------------
 BYTE   W96
//  #04 //031   ----------------------------------------
 BYTE   W96
//  #04 //032   ----------------------------------------
 BYTE   W96
//  #04 //033   ----------------------------------------
 BYTE   W96
//  #04 //034   ----------------------------------------
 BYTE   W96
//  #04 //035   ----------------------------------------
 BYTE   W96
//  #04 //036   ----------------------------------------
 BYTE   W96
//  #04 //037   ----------------------------------------
 BYTE   W96
//  #04 //038   ----------------------------------------
 BYTE   W96
//  #04 //039   ----------------------------------------
 BYTE   W96
//  #04 //040   ----------------------------------------
 BYTE   An3
 BYTE   W96
//  #04 //041   ----------------------------------------
 BYTE   Gs3
 BYTE   W96
//  #04 //042   ----------------------------------------
 BYTE   Gs3
 BYTE   W96
//  #04 //043   ----------------------------------------
 BYTE   Gn3
 BYTE   W96
//  #04 //044   ----------------------------------------
 BYTE   GoTo
  POIN2 Label_013AD7E5
 BYTE   FINE

//**************** Track 5 (Midi-Chn.4) ****************//

ABleedingFight_005:
//  #05 //000   ----------------------------------------
 BYTE   KEYSH   ABleedingFight_key+0
 BYTE   VOICE   10
 BYTE   VOL   62*ABleedingFight_mvl/mxv
 BYTE   W96
//  #05 //001   ----------------------------------------
 BYTE   W96
//  #05 //002   ----------------------------------------
 BYTE   W96
//  #05 //003   ----------------------------------------
 BYTE   W96
//  #05 //004   ----------------------------------------
Label_013C2202:
 BYTE   N12  Dn1  v100
 BYTE   N12  An1
 BYTE   N12  Dn2
 BYTE   W24
 BYTE   Dn1
 BYTE   N12  An1
 BYTE   N12  Dn2
 BYTE   W24
 BYTE   Dn2
 BYTE   N12  Dn1
 BYTE   N12  An1
 BYTE   W24
 BYTE   Dn2
 BYTE   N12  Dn1
 BYTE   N12  An1
 BYTE   W12
 BYTE   N06  Dn2
 BYTE   N06  An1
 BYTE   N06  Dn1
 BYTE   W06
 BYTE   Dn2
 BYTE   N06  An1
 BYTE   N06  Dn1
 BYTE   W06
//  #05 //005   ----------------------------------------
 BYTE   N12
 BYTE   N12  Gs1
 BYTE   N12  Dn2
 BYTE   W24
 BYTE   Dn1
 BYTE   N12  Gs1
 BYTE   N12  Dn2
 BYTE   W24
 BYTE   Dn2
 BYTE   N12  Dn1
 BYTE   N12  Gs1
 BYTE   W24
 BYTE   Dn2
 BYTE   N12  Dn1
 BYTE   N12  Gs1
 BYTE   W12
 BYTE   N06  Dn2
 BYTE   N06  Gs1
 BYTE   N06  Dn1
 BYTE   W06
 BYTE   Dn2
 BYTE   N06  Gs1
 BYTE   N06  Dn1
 BYTE   W06
//  #05 //006   ----------------------------------------
 BYTE   N12  Cs1
 BYTE   N12  Gs1
 BYTE   N12  Cs2
 BYTE   W24
 BYTE   Cs1
 BYTE   N12  Gs1
 BYTE   N12  Cs2
 BYTE   W24
 BYTE   Cs2
 BYTE   N12  Cs1
 BYTE   N12  Gs1
 BYTE   W24
 BYTE   Cs2
 BYTE   N12  Cs1
 BYTE   N12  Gs1
 BYTE   W12
 BYTE   N06  Cs2
 BYTE   N06  Gs1
 BYTE   N06  Cs1
 BYTE   W06
 BYTE   Cs2
 BYTE   N06  Gs1
 BYTE   N06  Cs1
 BYTE   W06
//  #05 //007   ----------------------------------------
 BYTE   N12  Cn1
 BYTE   N12  Gn1
 BYTE   N12  Cn2
 BYTE   W24
 BYTE   Cn1
 BYTE   N12  Gn1
 BYTE   N12  Cn2
 BYTE   W24
 BYTE   Cn2
 BYTE   N12  Cn1
 BYTE   N12  Gn1
 BYTE   W24
 BYTE   Cn2
 BYTE   N12  Cn1
 BYTE   N12  Gn1
 BYTE   W12
 BYTE   N06  Cn2
 BYTE   N06  Gn1
 BYTE   N06  Cn1
 BYTE   W06
 BYTE   Cn2
 BYTE   N06  Gn1
 BYTE   N06  Cn1
 BYTE   W06
//  #05 //008   ----------------------------------------
Label_013C229A:
 BYTE   N12  Dn2  v100
 BYTE   N12  An1
 BYTE   N12  Dn1
 BYTE   W24
 BYTE   Dn2
 BYTE   N12  An1
 BYTE   N12  Dn1
 BYTE   W24
 BYTE   An1
 BYTE   N12  Dn1
 BYTE   N12  Dn2
 BYTE   W24
 BYTE   An1
 BYTE   N12  Dn1
 BYTE   N12  Dn2
 BYTE   W12
 BYTE   N06  Dn1
 BYTE   N06  An1
 BYTE   N06  Dn2
 BYTE   W06
 BYTE   Dn1
 BYTE   N06  An1
 BYTE   N06  Dn2
 BYTE   W06
 BYTE   PEND 
//  #05 //009   ----------------------------------------
Label_013C22C2:
 BYTE   N12  Dn2  v100
 BYTE   N12  Gs1
 BYTE   N12  Dn1
 BYTE   W24
 BYTE   Dn2
 BYTE   N12  Gs1
 BYTE   N12  Dn1
 BYTE   W24
 BYTE   Gs1
 BYTE   N12  Dn1
 BYTE   N12  Dn2
 BYTE   W24
 BYTE   Gs1
 BYTE   N12  Dn1
 BYTE   N12  Dn2
 BYTE   W12
 BYTE   N06  Dn1
 BYTE   N06  Gs1
 BYTE   N06  Dn2
 BYTE   W06
 BYTE   Dn1
 BYTE   N06  Gs1
 BYTE   N06  Dn2
 BYTE   W06
 BYTE   PEND 
//  #05 //010   ----------------------------------------
Label_013C22EA:
 BYTE   N12  Cs2  v100
 BYTE   N12  Gs1
 BYTE   N12  Cs1
 BYTE   W24
 BYTE   Cs2
 BYTE   N12  Gs1
 BYTE   N12  Cs1
 BYTE   W24
 BYTE   Gs1
 BYTE   N12  Cs1
 BYTE   N12  Cs2
 BYTE   W24
 BYTE   Gs1
 BYTE   N12  Cs1
 BYTE   N12  Cs2
 BYTE   W12
 BYTE   N06  Cs1
 BYTE   N06  Gs1
 BYTE   N06  Cs2
 BYTE   W06
 BYTE   Cs1
 BYTE   N06  Gs1
 BYTE   N06  Cs2
 BYTE   W06
 BYTE   PEND 
//  #05 //011   ----------------------------------------
Label_013C2312:
 BYTE   N12  Cn2  v100
 BYTE   N12  Gn1
 BYTE   N12  Cn1
 BYTE   W24
 BYTE   Cn2
 BYTE   N12  Gn1
 BYTE   N12  Cn1
 BYTE   W24
 BYTE   Gn1
 BYTE   N12  Cn1
 BYTE   N12  Cn2
 BYTE   W24
 BYTE   Gn1
 BYTE   N12  Cn1
 BYTE   N12  Cn2
 BYTE   W12
 BYTE   N06  Cn1
 BYTE   N06  Gn1
 BYTE   N06  Cn2
 BYTE   W06
 BYTE   Cn1
 BYTE   N06  Gn1
 BYTE   N06  Cn2
 BYTE   W06
 BYTE   PEND 
//  #05 //012   ----------------------------------------
 BYTE   PATT
  POIN2 Label_013C229A
//  #05 //013   ----------------------------------------
 BYTE   PATT
  POIN2 Label_013C22C2
//  #05 //014   ----------------------------------------
 BYTE   PATT
  POIN2 Label_013C22EA
//  #05 //015   ----------------------------------------
 BYTE   PATT
  POIN2 Label_013C2312
//  #05 //016   ----------------------------------------
 BYTE   N12  Dn2  v100
 BYTE   N12  An1
 BYTE   N12  Dn1
 BYTE   W96
//  #05 //017   ----------------------------------------
 BYTE   W96
//  #05 //018   ----------------------------------------
 BYTE   W96
//  #05 //019   ----------------------------------------
 BYTE   W96
//  #05 //020   ----------------------------------------
 BYTE   W96
//  #05 //021   ----------------------------------------
 BYTE   W96
//  #05 //022   ----------------------------------------
 BYTE   W96
//  #05 //023   ----------------------------------------
 BYTE   W96
//  #05 //024   ----------------------------------------
 BYTE   W96
//  #05 //025   ----------------------------------------
 BYTE   W96
//  #05 //026   ----------------------------------------
 BYTE   W96
//  #05 //027   ----------------------------------------
 BYTE   W96
//  #05 //028   ----------------------------------------
 BYTE   W96
//  #05 //029   ----------------------------------------
 BYTE   W96
//  #05 //030   ----------------------------------------
 BYTE   W96
//  #05 //031   ----------------------------------------
 BYTE   W96
//  #05 //032   ----------------------------------------
 BYTE   PATT
  POIN2 Label_013C229A
//  #05 //033   ----------------------------------------
 BYTE   PATT
  POIN2 Label_013C22C2
//  #05 //034   ----------------------------------------
 BYTE   PATT
  POIN2 Label_013C22EA
//  #05 //035   ----------------------------------------
 BYTE   PATT
  POIN2 Label_013C2312
//  #05 //036   ----------------------------------------
 BYTE   PATT
  POIN2 Label_013C229A
//  #05 //037   ----------------------------------------
 BYTE   PATT
  POIN2 Label_013C22C2
//  #05 //038   ----------------------------------------
 BYTE   PATT
  POIN2 Label_013C22EA
//  #05 //039   ----------------------------------------
 BYTE   PATT
  POIN2 Label_013C2312
//  #05 //040   ----------------------------------------
 BYTE   W96
//  #05 //041   ----------------------------------------
 BYTE   W96
//  #05 //042   ----------------------------------------
 BYTE   W96
//  #05 //043   ----------------------------------------
 BYTE   W96
//  #05 //044   ----------------------------------------
 BYTE   GoTo
  POIN2 Label_013C2202
 BYTE   FINE

//**************** Track 6 (Midi-Chn.5) ****************//

ABleedingFight_006:
//  #06 //000   ----------------------------------------
 BYTE   KEYSH   ABleedingFight_key+0
 BYTE   VOICE   60
 BYTE   VOL   62*ABleedingFight_mvl/mxv
 BYTE   W96
//  #06 //001   ----------------------------------------
 BYTE   W96
//  #06 //002   ----------------------------------------
 BYTE   W96
//  #06 //003   ----------------------------------------
 BYTE   W96
//  #06 //004   ----------------------------------------
Label_013ADACE:
 BYTE   W96
//  #06 //005   ----------------------------------------
 BYTE   W96
//  #06 //006   ----------------------------------------
 BYTE   W96
//  #06 //007   ----------------------------------------
 BYTE   W96
//  #06 //008   ----------------------------------------
 BYTE   N48  Dn3  v100
 BYTE   N48  An2
 BYTE   W96
//  #06 //009   ----------------------------------------
 BYTE   Gs2
 BYTE   N48  Dn3
 BYTE   W96
//  #06 //010   ----------------------------------------
 BYTE   Cs3
 BYTE   N48  Gs2
 BYTE   W96
//  #06 //011   ----------------------------------------
 BYTE   Gn2
 BYTE   N48  Cn3
 BYTE   W96
//  #06 //012   ----------------------------------------
Label_013ADAE4:
 BYTE   N36  An2  v100
 BYTE   N36  Dn3
 BYTE   W48
 BYTE   Dn3
 BYTE   N36  An2
 BYTE   W48
 BYTE   PEND 
//  #06 //013   ----------------------------------------
Label_013ADAEF:
 BYTE   N36  Gs2  v100
 BYTE   N36  Dn3
 BYTE   W48
 BYTE   Dn3
 BYTE   N36  Gs2
 BYTE   W48
 BYTE   PEND 
//  #06 //014   ----------------------------------------
Label_013ADAFA:
 BYTE   N36  Gs2  v100
 BYTE   N36  Cs3
 BYTE   W48
 BYTE   Gs2
 BYTE   N36  Cs3
 BYTE   W48
 BYTE   PEND 
//  #06 //015   ----------------------------------------
Label_013ADB05:
 BYTE   N36  Gn2  v100
 BYTE   N36  Cn3
 BYTE   W48
 BYTE   Gn2
 BYTE   N36  Cn3
 BYTE   W48
 BYTE   PEND 
//  #06 //016   ----------------------------------------
 BYTE   W96
//  #06 //017   ----------------------------------------
 BYTE   W96
//  #06 //018   ----------------------------------------
 BYTE   W96
//  #06 //019   ----------------------------------------
 BYTE   W96
//  #06 //020   ----------------------------------------
 BYTE   W96
//  #06 //021   ----------------------------------------
 BYTE   W96
//  #06 //022   ----------------------------------------
 BYTE   W96
//  #06 //023   ----------------------------------------
 BYTE   W96
//  #06 //024   ----------------------------------------
 BYTE   W96
//  #06 //025   ----------------------------------------
 BYTE   W96
//  #06 //026   ----------------------------------------
 BYTE   W96
//  #06 //027   ----------------------------------------
 BYTE   W96
//  #06 //028   ----------------------------------------
 BYTE   W96
//  #06 //029   ----------------------------------------
 BYTE   W96
//  #06 //030   ----------------------------------------
 BYTE   W96
//  #06 //031   ----------------------------------------
 BYTE   W96
//  #06 //032   ----------------------------------------
 BYTE   PATT
  POIN2 Label_013ADAE4
//  #06 //033   ----------------------------------------
 BYTE   PATT
  POIN2 Label_013ADAEF
//  #06 //034   ----------------------------------------
 BYTE   PATT
  POIN2 Label_013ADAFA
//  #06 //035   ----------------------------------------
 BYTE   PATT
  POIN2 Label_013ADB05
//  #06 //036   ----------------------------------------
 BYTE   PATT
  POIN2 Label_013ADAE4
//  #06 //037   ----------------------------------------
 BYTE   PATT
  POIN2 Label_013ADAEF
//  #06 //038   ----------------------------------------
 BYTE   PATT
  POIN2 Label_013ADAFA
//  #06 //039   ----------------------------------------
 BYTE   PATT
  POIN2 Label_013ADB05
//  #06 //040   ----------------------------------------
 BYTE   W96
//  #06 //041   ----------------------------------------
 BYTE   W96
//  #06 //042   ----------------------------------------
 BYTE   W96
//  #06 //043   ----------------------------------------
 BYTE   W96
//  #06 //044   ----------------------------------------
 BYTE   GoTo
  POIN2 Label_013ADACE
 BYTE   FINE

//**************** Track 7 (Midi-Chn.6) ****************//

ABleedingFight_007:
//  #07 //000   ----------------------------------------
 BYTE   KEYSH   ABleedingFight_key+0
 BYTE   VOICE   40
 BYTE   VOL   62*ABleedingFight_mvl/mxv
 BYTE   W96
//  #07 //001   ----------------------------------------
 BYTE   W96
//  #07 //002   ----------------------------------------
 BYTE   W96
//  #07 //003   ----------------------------------------
 BYTE   W96
//  #07 //004   ----------------------------------------
Label_013AD886:
 BYTE   W96
//  #07 //005   ----------------------------------------
 BYTE   W96
//  #07 //006   ----------------------------------------
 BYTE   W96
//  #07 //007   ----------------------------------------
 BYTE   W96
//  #07 //008   ----------------------------------------
Label_013AD88A:
 BYTE   N48  An1  v100
 BYTE   N48  Dn2
 BYTE   W96
 BYTE   PEND 
//  #07 //009   ----------------------------------------
Label_013AD891:
 BYTE   N48  Dn2  v100
 BYTE   N48  Gs1
 BYTE   W96
 BYTE   PEND 
//  #07 //010   ----------------------------------------
Label_013AD898:
 BYTE   N48  Gs1  v100
 BYTE   N48  Cs2
 BYTE   W96
 BYTE   PEND 
//  #07 //011   ----------------------------------------
Label_013AD89F:
 BYTE   N48  Cn2  v100
 BYTE   N48  Gn1
 BYTE   W96
 BYTE   PEND 
//  #07 //012   ----------------------------------------
Label_013AD8A6:
 BYTE   N36  Dn2  v100
 BYTE   N36  An1
 BYTE   W48
 BYTE   An1
 BYTE   N36  Dn2
 BYTE   W48
 BYTE   PEND 
//  #07 //013   ----------------------------------------
Label_013AD8B1:
 BYTE   N36  Dn2  v100
 BYTE   N36  Gs1
 BYTE   W48
 BYTE   Gs1
 BYTE   N36  Dn2
 BYTE   W48
 BYTE   PEND 
//  #07 //014   ----------------------------------------
Label_013AD8BC:
 BYTE   N36  Cs2  v100
 BYTE   N36  Gs1
 BYTE   W48
 BYTE   Cs2
 BYTE   N36  Gs1
 BYTE   W48
 BYTE   PEND 
//  #07 //015   ----------------------------------------
Label_013AD8C7:
 BYTE   N36  Cn2  v100
 BYTE   N36  Gn1
 BYTE   W48
 BYTE   Cn2
 BYTE   N36  Gn1
 BYTE   W48
 BYTE   PEND 
//  #07 //016   ----------------------------------------
 BYTE   W96
//  #07 //017   ----------------------------------------
 BYTE   W96
//  #07 //018   ----------------------------------------
 BYTE   W96
//  #07 //019   ----------------------------------------
 BYTE   W96
//  #07 //020   ----------------------------------------
 BYTE   W96
//  #07 //021   ----------------------------------------
 BYTE   W96
//  #07 //022   ----------------------------------------
 BYTE   W96
//  #07 //023   ----------------------------------------
 BYTE   W96
//  #07 //024   ----------------------------------------
 BYTE   W96
//  #07 //025   ----------------------------------------
 BYTE   W96
//  #07 //026   ----------------------------------------
 BYTE   W96
//  #07 //027   ----------------------------------------
 BYTE   W96
//  #07 //028   ----------------------------------------
 BYTE   PATT
  POIN2 Label_013AD88A
//  #07 //029   ----------------------------------------
 BYTE   PATT
  POIN2 Label_013AD891
//  #07 //030   ----------------------------------------
 BYTE   PATT
  POIN2 Label_013AD898
//  #07 //031   ----------------------------------------
 BYTE   PATT
  POIN2 Label_013AD89F
//  #07 //032   ----------------------------------------
 BYTE   PATT
  POIN2 Label_013AD8A6
//  #07 //033   ----------------------------------------
 BYTE   PATT
  POIN2 Label_013AD8B1
//  #07 //034   ----------------------------------------
 BYTE   PATT
  POIN2 Label_013AD8BC
//  #07 //035   ----------------------------------------
 BYTE   PATT
  POIN2 Label_013AD8C7
//  #07 //036   ----------------------------------------
 BYTE   PATT
  POIN2 Label_013AD8A6
//  #07 //037   ----------------------------------------
 BYTE   PATT
  POIN2 Label_013AD8B1
//  #07 //038   ----------------------------------------
 BYTE   PATT
  POIN2 Label_013AD8BC
//  #07 //039   ----------------------------------------
 BYTE   PATT
  POIN2 Label_013AD8C7
//  #07 //040   ----------------------------------------
 BYTE   W96
//  #07 //041   ----------------------------------------
 BYTE   W96
//  #07 //042   ----------------------------------------
 BYTE   W96
//  #07 //043   ----------------------------------------
 BYTE   W96
//  #07 //044   ----------------------------------------
 BYTE   GoTo
  POIN2 Label_013AD886
 BYTE   FINE

//**************** Track 8 (Midi-Chn.7) ****************//

ABleedingFight_008:
//  #08 //000   ----------------------------------------
 BYTE   KEYSH   ABleedingFight_key+0
 BYTE   VOICE   30
 BYTE   VOL   62*ABleedingFight_mvl/mxv
 BYTE   W96
//  #08 //001   ----------------------------------------
 BYTE   W96
//  #08 //002   ----------------------------------------
 BYTE   W96
//  #08 //003   ----------------------------------------
 BYTE   W96
//  #08 //004   ----------------------------------------
Label_013ADA32:
 BYTE   W96
//  #08 //005   ----------------------------------------
 BYTE   W96
//  #08 //006   ----------------------------------------
 BYTE   W96
//  #08 //007   ----------------------------------------
 BYTE   W96
//  #08 //008   ----------------------------------------
 BYTE   W96
//  #08 //009   ----------------------------------------
 BYTE   W96
//  #08 //010   ----------------------------------------
 BYTE   W96
//  #08 //011   ----------------------------------------
 BYTE   W96
//  #08 //012   ----------------------------------------
 BYTE   W96
//  #08 //013   ----------------------------------------
 BYTE   W96
//  #08 //014   ----------------------------------------
 BYTE   W96
//  #08 //015   ----------------------------------------
 BYTE   W96
//  #08 //016   ----------------------------------------
 BYTE   W96
//  #08 //017   ----------------------------------------
 BYTE   W96
//  #08 //018   ----------------------------------------
 BYTE   W96
//  #08 //019   ----------------------------------------
 BYTE   W96
//  #08 //020   ----------------------------------------
Label_013ADA42:
 BYTE   N96  Dn1  v100
 BYTE   W48
 BYTE   N48  An1
 BYTE   W48
 BYTE   PEND 
//  #08 //021   ----------------------------------------
Label_013ADA4A:
 BYTE   N96  Dn1  v100
 BYTE   W48
 BYTE   N48  Gs1
 BYTE   W48
 BYTE   PEND 
//  #08 //022   ----------------------------------------
Label_013ADA52:
 BYTE   N96  Cs1  v100
 BYTE   W48
 BYTE   N48  Gs1
 BYTE   W48
 BYTE   PEND 
//  #08 //023   ----------------------------------------
Label_013ADA5A:
 BYTE   N96  Cn1  v100
 BYTE   W48
 BYTE   N48  Gn1
 BYTE   W48
 BYTE   PEND 
//  #08 //024   ----------------------------------------
 BYTE   PATT
  POIN2 Label_013ADA42
//  #08 //025   ----------------------------------------
 BYTE   PATT
  POIN2 Label_013ADA4A
//  #08 //026   ----------------------------------------
 BYTE   PATT
  POIN2 Label_013ADA52
//  #08 //027   ----------------------------------------
 BYTE   PATT
  POIN2 Label_013ADA5A
//  #08 //028   ----------------------------------------
 BYTE   PATT
  POIN2 Label_013ADA42
//  #08 //029   ----------------------------------------
 BYTE   PATT
  POIN2 Label_013ADA4A
//  #08 //030   ----------------------------------------
 BYTE   PATT
  POIN2 Label_013ADA52
//  #08 //031   ----------------------------------------
 BYTE   PATT
  POIN2 Label_013ADA5A
//  #08 //032   ----------------------------------------
 BYTE   PATT
  POIN2 Label_013ADA42
//  #08 //033   ----------------------------------------
 BYTE   PATT
  POIN2 Label_013ADA4A
//  #08 //034   ----------------------------------------
 BYTE   PATT
  POIN2 Label_013ADA52
//  #08 //035   ----------------------------------------
 BYTE   PATT
  POIN2 Label_013ADA5A
//  #08 //036   ----------------------------------------
 BYTE   PATT
  POIN2 Label_013ADA42
//  #08 //037   ----------------------------------------
 BYTE   PATT
  POIN2 Label_013ADA4A
//  #08 //038   ----------------------------------------
 BYTE   PATT
  POIN2 Label_013ADA52
//  #08 //039   ----------------------------------------
 BYTE   PATT
  POIN2 Label_013ADA5A
//  #08 //040   ----------------------------------------
 BYTE   W96
//  #08 //041   ----------------------------------------
 BYTE   W96
//  #08 //042   ----------------------------------------
 BYTE   W96
//  #08 //043   ----------------------------------------
 BYTE   W96
//  #08 //044   ----------------------------------------
 BYTE   GoTo
  POIN2 Label_013ADA32
 BYTE   FINE

//**************** Track 9 (Midi-Chn.8) ****************//

ABleedingFight_009:
//  #09 //000   ----------------------------------------
 BYTE   KEYSH   ABleedingFight_key+0
 BYTE   VOICE   104
 BYTE   VOL   45*ABleedingFight_mvl/mxv
 BYTE   W96
//  #09 //001   ----------------------------------------
 BYTE   W96
//  #09 //002   ----------------------------------------
 BYTE   W96
//  #09 //003   ----------------------------------------
 BYTE   W96
//  #09 //004   ----------------------------------------
Label_013ADB62:
 BYTE   W96
//  #09 //005   ----------------------------------------
 BYTE   W96
//  #09 //006   ----------------------------------------
 BYTE   W96
//  #09 //007   ----------------------------------------
 BYTE   W96
//  #09 //008   ----------------------------------------
 BYTE   W96
//  #09 //009   ----------------------------------------
 BYTE   W96
//  #09 //010   ----------------------------------------
 BYTE   W96
//  #09 //011   ----------------------------------------
 BYTE   W96
//  #09 //012   ----------------------------------------
 BYTE   W96
//  #09 //013   ----------------------------------------
 BYTE   W96
//  #09 //014   ----------------------------------------
 BYTE   W96
//  #09 //015   ----------------------------------------
 BYTE   W96
//  #09 //016   ----------------------------------------
 BYTE   W96
//  #09 //017   ----------------------------------------
 BYTE   W96
//  #09 //018   ----------------------------------------
 BYTE   W96
//  #09 //019   ----------------------------------------
 BYTE   W96
//  #09 //020   ----------------------------------------
 BYTE   W96
//  #09 //021   ----------------------------------------
 BYTE   W96
//  #09 //022   ----------------------------------------
 BYTE   W96
//  #09 //023   ----------------------------------------
 BYTE   W96
//  #09 //024   ----------------------------------------
Label_013ADB76:
 BYTE   N36  Dn4  v100
 BYTE   N48  Dn3
 BYTE   W48
 BYTE   N24  Fn4
 BYTE   N24  Fn3
 BYTE   W24
 BYTE   An4
 BYTE   N24  An3
 BYTE   W24
 BYTE   PEND 
//  #09 //025   ----------------------------------------
Label_013ADB86:
 BYTE   N36  Gs4  v100
 BYTE   N48  Gs3
 BYTE   W48
 BYTE   N36  Fn4
 BYTE   N48  Fn3
 BYTE   W48
 BYTE   PEND 
//  #09 //026   ----------------------------------------
Label_013ADB92:
 BYTE   N36  Gs4  v100
 BYTE   N48  Gs3
 BYTE   W48
 BYTE   N36  En4
 BYTE   N48  En3
 BYTE   W48
 BYTE   PEND 
//  #09 //027   ----------------------------------------
Label_013ADB9E:
 BYTE   N36  Gn4  v100
 BYTE   N48  Gn3
 BYTE   W48
 BYTE   N36  En4
 BYTE   N48  En3
 BYTE   W48
 BYTE   PEND 
//  #09 //028   ----------------------------------------
 BYTE   PATT
  POIN2 Label_013ADB76
//  #09 //029   ----------------------------------------
 BYTE   PATT
  POIN2 Label_013ADB86
//  #09 //030   ----------------------------------------
 BYTE   PATT
  POIN2 Label_013ADB92
//  #09 //031   ----------------------------------------
 BYTE   PATT
  POIN2 Label_013ADB9E
//  #09 //032   ----------------------------------------
 BYTE   PATT
  POIN2 Label_013ADB76
//  #09 //033   ----------------------------------------
 BYTE   PATT
  POIN2 Label_013ADB86
//  #09 //034   ----------------------------------------
 BYTE   PATT
  POIN2 Label_013ADB92
//  #09 //035   ----------------------------------------
 BYTE   PATT
  POIN2 Label_013ADB9E
//  #09 //036   ----------------------------------------
 BYTE   PATT
  POIN2 Label_013ADB76
//  #09 //037   ----------------------------------------
 BYTE   PATT
  POIN2 Label_013ADB86
//  #09 //038   ----------------------------------------
 BYTE   PATT
  POIN2 Label_013ADB92
//  #09 //039   ----------------------------------------
 BYTE   PATT
  POIN2 Label_013ADB9E
//  #09 //040   ----------------------------------------
 BYTE   N36  Dn4  v100
 BYTE   N48  Dn3
 BYTE   W96
//  #09 //041   ----------------------------------------
 BYTE   W96
//  #09 //042   ----------------------------------------
 BYTE   W96
//  #09 //043   ----------------------------------------
 BYTE   W96
//  #09 //044   ----------------------------------------
 BYTE   GoTo
  POIN2 Label_013ADB62
 BYTE   FINE

//**************** Track 10 (Midi-Chn.9) ****************//

ABleedingFight_010:
//  #10 //000   ----------------------------------------
 BYTE   KEYSH   ABleedingFight_key+0
 BYTE   VOICE   127
 BYTE   VOL   60*ABleedingFight_mvl/mxv
 BYTE   N06  Cn1  v100
 BYTE   W24
 BYTE   Cn1
 BYTE   W24
 BYTE   Cn1
 BYTE   W24
 BYTE   Cn1
 BYTE   W24
//  #10 //001   ----------------------------------------
Label_013C23A8:
 BYTE   N06  Cn1  v100
 BYTE   W24
 BYTE   Cn1
 BYTE   W24
 BYTE   Cn1
 BYTE   W24
 BYTE   Cn1
 BYTE   W12
 BYTE   Cn1
 BYTE   W12
 BYTE   PEND 
//  #10 //002   ----------------------------------------
 BYTE   Cn1
 BYTE   W24
 BYTE   Cn1
 BYTE   W24
 BYTE   Cn1
 BYTE   W24
 BYTE   Cn1
 BYTE   W24
//  #10 //003   ----------------------------------------
 BYTE   PATT
  POIN2 Label_013C23A8
//  #10 //004   ----------------------------------------
Label_013C23C2:
 BYTE   N06  Cn1  v100
 BYTE   W24
 BYTE   Cn1
 BYTE   N06  Dn1
 BYTE   W24
 BYTE   Cn1
 BYTE   W24
 BYTE   Cn1
 BYTE   N06  Dn1
 BYTE   W24
//  #10 //005   ----------------------------------------
Label_013C23D0:
 BYTE   N06  Cn1  v100
 BYTE   W24
 BYTE   Cn1
 BYTE   N06  Dn1
 BYTE   W24
 BYTE   Cn1
 BYTE   W24
 BYTE   Cn1
 BYTE   N06  Dn1
 BYTE   W12
 BYTE   Cn1
 BYTE   N06  Dn1
 BYTE   W06
 BYTE   Dn1
 BYTE   W06
 BYTE   PEND 
//  #10 //006   ----------------------------------------
Label_013C23E5:
 BYTE   N06  Cn1  v100
 BYTE   W24
 BYTE   Cn1
 BYTE   N06  Dn1
 BYTE   W24
 BYTE   Cn1
 BYTE   W24
 BYTE   Cn1
 BYTE   N06  Dn1
 BYTE   W24
 BYTE   PEND 
//  #10 //007   ----------------------------------------
 BYTE   PATT
  POIN2 Label_013C23D0
//  #10 //008   ----------------------------------------
Label_013C23F9:
 BYTE   N06  Cn1  v100
 BYTE   W12
 BYTE   Cn1
 BYTE   W12
 BYTE   Cn1
 BYTE   N06  Dn1
 BYTE   W12
 BYTE   Cn1
 BYTE   W12
 BYTE   Cn1
 BYTE   W12
 BYTE   Cn1
 BYTE   W12
 BYTE   Cn1
 BYTE   N06  Dn1
 BYTE   W12
 BYTE   Cn1
 BYTE   W12
 BYTE   PEND 
//  #10 //009   ----------------------------------------
Label_013C2410:
 BYTE   N06  Cn1  v100
 BYTE   W12
 BYTE   Cn1
 BYTE   W12
 BYTE   Cn1
 BYTE   N06  Dn1
 BYTE   W12
 BYTE   Cn1
 BYTE   W12
 BYTE   Cn1
 BYTE   W12
 BYTE   Cn1
 BYTE   W12
 BYTE   Cn1
 BYTE   N06  Dn1
 BYTE   W06
 BYTE   En1
 BYTE   W06
 BYTE   Cn1
 BYTE   N06  Dn1
 BYTE   W06
 BYTE   Dn1
 BYTE   W06
 BYTE   PEND 
//  #10 //010   ----------------------------------------
 BYTE   PATT
  POIN2 Label_013C23F9
//  #10 //011   ----------------------------------------
 BYTE   PATT
  POIN2 Label_013C2410
//  #10 //012   ----------------------------------------
 BYTE   PATT
  POIN2 Label_013C23F9
//  #10 //013   ----------------------------------------
 BYTE   PATT
  POIN2 Label_013C2410
//  #10 //014   ----------------------------------------
 BYTE   PATT
  POIN2 Label_013C23F9
//  #10 //015   ----------------------------------------
 BYTE   PATT
  POIN2 Label_013C2410
//  #10 //016   ----------------------------------------
 BYTE   PATT
  POIN2 Label_013C23E5
//  #10 //017   ----------------------------------------
 BYTE   PATT
  POIN2 Label_013C23D0
//  #10 //018   ----------------------------------------
 BYTE   PATT
  POIN2 Label_013C23E5
//  #10 //019   ----------------------------------------
 BYTE   PATT
  POIN2 Label_013C23D0
//  #10 //020   ----------------------------------------
 BYTE   PATT
  POIN2 Label_013C23E5
//  #10 //021   ----------------------------------------
 BYTE   PATT
  POIN2 Label_013C23D0
//  #10 //022   ----------------------------------------
 BYTE   PATT
  POIN2 Label_013C23E5
//  #10 //023   ----------------------------------------
 BYTE   PATT
  POIN2 Label_013C23D0
//  #10 //024   ----------------------------------------
 BYTE   PATT
  POIN2 Label_013C23F9
//  #10 //025   ----------------------------------------
 BYTE   PATT
  POIN2 Label_013C2410
//  #10 //026   ----------------------------------------
 BYTE   PATT
  POIN2 Label_013C23F9
//  #10 //027   ----------------------------------------
 BYTE   PATT
  POIN2 Label_013C2410
//  #10 //028   ----------------------------------------
 BYTE   PATT
  POIN2 Label_013C23F9
//  #10 //029   ----------------------------------------
 BYTE   PATT
  POIN2 Label_013C2410
//  #10 //030   ----------------------------------------
 BYTE   PATT
  POIN2 Label_013C23F9
//  #10 //031   ----------------------------------------
 BYTE   PATT
  POIN2 Label_013C2410
//  #10 //032   ----------------------------------------
 BYTE   PATT
  POIN2 Label_013C23F9
//  #10 //033   ----------------------------------------
 BYTE   PATT
  POIN2 Label_013C2410
//  #10 //034   ----------------------------------------
 BYTE   PATT
  POIN2 Label_013C23F9
//  #10 //035   ----------------------------------------
 BYTE   PATT
  POIN2 Label_013C2410
//  #10 //036   ----------------------------------------
 BYTE   PATT
  POIN2 Label_013C23F9
//  #10 //037   ----------------------------------------
 BYTE   PATT
  POIN2 Label_013C2410
//  #10 //038   ----------------------------------------
 BYTE   PATT
  POIN2 Label_013C23F9
//  #10 //039   ----------------------------------------
 BYTE   PATT
  POIN2 Label_013C2410
//  #10 //040   ----------------------------------------
 BYTE   PATT
  POIN2 Label_013C23E5
//  #10 //041   ----------------------------------------
 BYTE   PATT
  POIN2 Label_013C23D0
//  #10 //042   ----------------------------------------
 BYTE   PATT
  POIN2 Label_013C23E5
//  #10 //043   ----------------------------------------
 BYTE   PATT
  POIN2 Label_013C23D0
//  #10 //044   ----------------------------------------
 BYTE   GoTo
  POIN2 Label_013C23C2
 BYTE   FINE

//******************************************************//
	ALIGN 4

ABleedingFight:
	BYTE	10	// NumTrks
	BYTE	0	// NumBlks
	BYTE	ABleedingFight_pri	// Priority
	BYTE	ABleedingFight_rev	// Reverb.
    
	POIN2	ABleedingFight_grp
    
	POIN2	ABleedingFight_001
	POIN2	ABleedingFight_002
	POIN2	ABleedingFight_003
	POIN2	ABleedingFight_004
	POIN2	ABleedingFight_005
	POIN2	ABleedingFight_006
	POIN2	ABleedingFight_007
	POIN2	ABleedingFight_008
	POIN2	ABleedingFight_009
	POIN2	ABleedingFight_010

	
