	.include "MPlayDef.s"

	.equ	song0389_grp, voicegroup000
	.equ	song0389_pri, 0
	.equ	song0389_rev, 0
	.equ	song0389_mvl, 127
	.equ	song0389_key, 0
	.equ	song0389_tbs, 1
	.equ	song0389_exg, 0
	.equ	song0389_cmp, 1

	.section .rodata
	.global	song0389
	.align	2


@**************** Track 1 (Midi-Chn.0) ****************@

song0389_001:
@  #01 @000   ----------------------------------------
 .byte   KEYSH , song0389_key+0
 .byte   TEMPO , 100*song0389_tbs/2
 .byte   VOICE , 6
 .byte   N12 ,Dn4 ,v100
 .byte   VOL , 62*song0389_mvl/mxv
 .byte   W12
 .byte   N12 ,An4
 .byte   W12
 .byte   Dn4
 .byte   W12
 .byte   Fn4
 .byte   W12
 .byte   Dn4
 .byte   W12
 .byte   An4
 .byte   W12
 .byte   Gn4
 .byte   W12
 .byte   Fn4
 .byte   W12
@  #01 @001   ----------------------------------------
Label_013C20D3:
 .byte   N12 ,Dn4 ,v100
 .byte   W12
 .byte   Gs4
 .byte   W12
 .byte   Dn4
 .byte   W12
 .byte   Fn4
 .byte   W12
 .byte   Dn4
 .byte   W12
 .byte   Gs4
 .byte   W12
 .byte   Gn4
 .byte   W12
 .byte   Fn4
 .byte   W12
 .byte   PEND 
@  #01 @002   ----------------------------------------
Label_013C20E6:
 .byte   N12 ,Cs4 ,v100
 .byte   W12
 .byte   Gs4
 .byte   W12
 .byte   Cs4
 .byte   W12
 .byte   En4
 .byte   W12
 .byte   Cs4
 .byte   W12
 .byte   Gs4
 .byte   W12
 .byte   Fs4
 .byte   W12
 .byte   En4
 .byte   W12
 .byte   PEND 
@  #01 @003   ----------------------------------------
Label_013C20F9:
 .byte   N12 ,Cn4 ,v100
 .byte   W12
 .byte   Gn4
 .byte   W12
 .byte   Cn4
 .byte   W12
 .byte   En4
 .byte   W12
 .byte   Cn4
 .byte   W12
 .byte   Gn4
 .byte   W12
 .byte   Fn4
 .byte   W12
 .byte   En4
 .byte   W12
 .byte   PEND 
@  #01 @004   ----------------------------------------
Label_013C210C:
 .byte   N12 ,Dn4 ,v100
 .byte   W12
 .byte   An4
 .byte   W12
 .byte   Dn4
 .byte   W12
 .byte   Fn4
 .byte   W12
 .byte   Dn4
 .byte   W12
 .byte   An4
 .byte   W12
 .byte   Gn4
 .byte   W12
 .byte   Fn4
 .byte   W12
@  #01 @005   ----------------------------------------
 .byte   PATT
  .word Label_013C20D3
@  #01 @006   ----------------------------------------
 .byte   PATT
  .word Label_013C20E6
@  #01 @007   ----------------------------------------
 .byte   PATT
  .word Label_013C20F9
@  #01 @008   ----------------------------------------
Label_013C212D:
 .byte   N12 ,Dn4 ,v100
 .byte   W12
 .byte   An4
 .byte   W12
 .byte   Dn4
 .byte   W12
 .byte   Fn4
 .byte   W12
 .byte   Dn4
 .byte   W12
 .byte   An4
 .byte   W12
 .byte   Gn4
 .byte   W12
 .byte   Fn4
 .byte   W12
 .byte   PEND 
@  #01 @009   ----------------------------------------
 .byte   PATT
  .word Label_013C20D3
@  #01 @010   ----------------------------------------
 .byte   PATT
  .word Label_013C20E6
@  #01 @011   ----------------------------------------
 .byte   PATT
  .word Label_013C20F9
@  #01 @012   ----------------------------------------
 .byte   PATT
  .word Label_013C212D
@  #01 @013   ----------------------------------------
 .byte   PATT
  .word Label_013C20D3
@  #01 @014   ----------------------------------------
 .byte   PATT
  .word Label_013C20E6
@  #01 @015   ----------------------------------------
 .byte   PATT
  .word Label_013C20F9
@  #01 @016   ----------------------------------------
 .byte   PATT
  .word Label_013C212D
@  #01 @017   ----------------------------------------
 .byte   PATT
  .word Label_013C20D3
@  #01 @018   ----------------------------------------
 .byte   PATT
  .word Label_013C20E6
@  #01 @019   ----------------------------------------
 .byte   PATT
  .word Label_013C20F9
@  #01 @020   ----------------------------------------
 .byte   PATT
  .word Label_013C212D
@  #01 @021   ----------------------------------------
 .byte   PATT
  .word Label_013C20D3
@  #01 @022   ----------------------------------------
 .byte   PATT
  .word Label_013C20E6
@  #01 @023   ----------------------------------------
 .byte   PATT
  .word Label_013C20F9
@  #01 @024   ----------------------------------------
 .byte   PATT
  .word Label_013C212D
@  #01 @025   ----------------------------------------
 .byte   PATT
  .word Label_013C20D3
@  #01 @026   ----------------------------------------
 .byte   PATT
  .word Label_013C20E6
@  #01 @027   ----------------------------------------
 .byte   PATT
  .word Label_013C20F9
@  #01 @028   ----------------------------------------
 .byte   PATT
  .word Label_013C212D
@  #01 @029   ----------------------------------------
 .byte   PATT
  .word Label_013C20D3
@  #01 @030   ----------------------------------------
 .byte   PATT
  .word Label_013C20E6
@  #01 @031   ----------------------------------------
 .byte   PATT
  .word Label_013C20F9
@  #01 @032   ----------------------------------------
 .byte   PATT
  .word Label_013C212D
@  #01 @033   ----------------------------------------
 .byte   PATT
  .word Label_013C20D3
@  #01 @034   ----------------------------------------
 .byte   PATT
  .word Label_013C20E6
@  #01 @035   ----------------------------------------
 .byte   PATT
  .word Label_013C20F9
@  #01 @036   ----------------------------------------
 .byte   PATT
  .word Label_013C212D
@  #01 @037   ----------------------------------------
 .byte   PATT
  .word Label_013C20D3
@  #01 @038   ----------------------------------------
 .byte   PATT
  .word Label_013C20E6
@  #01 @039   ----------------------------------------
 .byte   PATT
  .word Label_013C20F9
@  #01 @040   ----------------------------------------
 .byte   PATT
  .word Label_013C212D
@  #01 @041   ----------------------------------------
 .byte   PATT
  .word Label_013C20D3
@  #01 @042   ----------------------------------------
 .byte   PATT
  .word Label_013C20E6
@  #01 @043   ----------------------------------------
 .byte   PATT
  .word Label_013C20F9
@  #01 @044   ----------------------------------------
 .byte   GOTO
  .word Label_013C210C
 .byte   FINE

@**************** Track 2 (Midi-Chn.1) ****************@

song0389_002:
@  #02 @000   ----------------------------------------
 .byte   KEYSH , song0389_key+0
 .byte   VOICE , 20
 .byte   N06 ,An3 ,v100
 .byte   VOL , 62*song0389_mvl/mxv
 .byte   W12
 .byte   N06
 .byte   W12
 .byte   An3
 .byte   W12
 .byte   An3
 .byte   W12
 .byte   An3
 .byte   W12
 .byte   An3
 .byte   W12
 .byte   An3
 .byte   W12
 .byte   An3
 .byte   W12
@  #02 @001   ----------------------------------------
Label_013AD59C:
 .byte   N06 ,Gs3 ,v100
 .byte   W12
 .byte   Gs3
 .byte   W12
 .byte   Gs3
 .byte   W12
 .byte   Gs3
 .byte   W12
 .byte   Gs3
 .byte   W12
 .byte   Gs3
 .byte   W12
 .byte   Gs3
 .byte   W12
 .byte   Gs3
 .byte   W12
 .byte   PEND 
@  #02 @002   ----------------------------------------
 .byte   PATT
  .word Label_013AD59C
@  #02 @003   ----------------------------------------
Label_013AD5B4:
 .byte   N06 ,Gn3 ,v100
 .byte   W12
 .byte   Gn3
 .byte   W12
 .byte   Gn3
 .byte   W12
 .byte   Gn3
 .byte   W12
 .byte   Gn3
 .byte   W12
 .byte   Gn3
 .byte   W12
 .byte   Gn3
 .byte   W12
 .byte   Gn3
 .byte   W12
 .byte   PEND 
@  #02 @004   ----------------------------------------
Label_013AD5C7:
 .byte   N06 ,An3 ,v100
 .byte   W12
 .byte   An3
 .byte   W12
 .byte   An3
 .byte   W12
 .byte   An3
 .byte   W12
 .byte   An3
 .byte   W12
 .byte   An3
 .byte   W12
 .byte   An3
 .byte   W12
 .byte   An3
 .byte   W12
@  #02 @005   ----------------------------------------
 .byte   PATT
  .word Label_013AD59C
@  #02 @006   ----------------------------------------
 .byte   PATT
  .word Label_013AD59C
@  #02 @007   ----------------------------------------
 .byte   PATT
  .word Label_013AD5B4
@  #02 @008   ----------------------------------------
Label_013AD5E8:
 .byte   N06 ,An3 ,v100
 .byte   W12
 .byte   An3
 .byte   W12
 .byte   An3
 .byte   W12
 .byte   An3
 .byte   W12
 .byte   An3
 .byte   W12
 .byte   An3
 .byte   W12
 .byte   An3
 .byte   W12
 .byte   An3
 .byte   W12
 .byte   PEND 
@  #02 @009   ----------------------------------------
 .byte   PATT
  .word Label_013AD59C
@  #02 @010   ----------------------------------------
 .byte   PATT
  .word Label_013AD59C
@  #02 @011   ----------------------------------------
 .byte   PATT
  .word Label_013AD5B4
@  #02 @012   ----------------------------------------
 .byte   PATT
  .word Label_013AD5E8
@  #02 @013   ----------------------------------------
 .byte   PATT
  .word Label_013AD59C
@  #02 @014   ----------------------------------------
 .byte   PATT
  .word Label_013AD59C
@  #02 @015   ----------------------------------------
 .byte   PATT
  .word Label_013AD5B4
@  #02 @016   ----------------------------------------
 .byte   PATT
  .word Label_013AD5E8
@  #02 @017   ----------------------------------------
 .byte   PATT
  .word Label_013AD59C
@  #02 @018   ----------------------------------------
 .byte   PATT
  .word Label_013AD59C
@  #02 @019   ----------------------------------------
 .byte   PATT
  .word Label_013AD5B4
@  #02 @020   ----------------------------------------
 .byte   PATT
  .word Label_013AD5E8
@  #02 @021   ----------------------------------------
 .byte   PATT
  .word Label_013AD59C
@  #02 @022   ----------------------------------------
 .byte   PATT
  .word Label_013AD59C
@  #02 @023   ----------------------------------------
 .byte   PATT
  .word Label_013AD5B4
@  #02 @024   ----------------------------------------
 .byte   PATT
  .word Label_013AD5E8
@  #02 @025   ----------------------------------------
 .byte   PATT
  .word Label_013AD59C
@  #02 @026   ----------------------------------------
 .byte   PATT
  .word Label_013AD59C
@  #02 @027   ----------------------------------------
 .byte   PATT
  .word Label_013AD5B4
@  #02 @028   ----------------------------------------
 .byte   PATT
  .word Label_013AD5E8
@  #02 @029   ----------------------------------------
 .byte   PATT
  .word Label_013AD59C
@  #02 @030   ----------------------------------------
 .byte   PATT
  .word Label_013AD59C
@  #02 @031   ----------------------------------------
 .byte   PATT
  .word Label_013AD5B4
@  #02 @032   ----------------------------------------
 .byte   PATT
  .word Label_013AD5E8
@  #02 @033   ----------------------------------------
 .byte   PATT
  .word Label_013AD59C
@  #02 @034   ----------------------------------------
 .byte   PATT
  .word Label_013AD59C
@  #02 @035   ----------------------------------------
 .byte   PATT
  .word Label_013AD5B4
@  #02 @036   ----------------------------------------
 .byte   PATT
  .word Label_013AD5E8
@  #02 @037   ----------------------------------------
 .byte   PATT
  .word Label_013AD59C
@  #02 @038   ----------------------------------------
 .byte   PATT
  .word Label_013AD59C
@  #02 @039   ----------------------------------------
 .byte   PATT
  .word Label_013AD5B4
@  #02 @040   ----------------------------------------
 .byte   PATT
  .word Label_013AD5E8
@  #02 @041   ----------------------------------------
 .byte   PATT
  .word Label_013AD59C
@  #02 @042   ----------------------------------------
 .byte   PATT
  .word Label_013AD59C
@  #02 @043   ----------------------------------------
 .byte   PATT
  .word Label_013AD5B4
@  #02 @044   ----------------------------------------
 .byte   GOTO
  .word Label_013AD5C7
 .byte   FINE

@**************** Track 3 (Midi-Chn.2) ****************@

song0389_003:
@  #03 @000   ----------------------------------------
 .byte   KEYSH , song0389_key+0
 .byte   VOICE , 70
 .byte   N96 ,An1 ,v100
 .byte   VOL , 62*song0389_mvl/mxv
 .byte   W96
@  #03 @001   ----------------------------------------
 .byte   N96 ,Gs1
 .byte   W96
@  #03 @002   ----------------------------------------
 .byte   Gs1
 .byte   W96
@  #03 @003   ----------------------------------------
 .byte   Gn1
 .byte   W96
@  #03 @004   ----------------------------------------
Label_013AD9A9:
 .byte   N96 ,An1 ,v100
 .byte   W96
@  #03 @005   ----------------------------------------
 .byte   Gs1
 .byte   W96
@  #03 @006   ----------------------------------------
 .byte   Gs1
 .byte   W96
@  #03 @007   ----------------------------------------
 .byte   Gn1
 .byte   W96
@  #03 @008   ----------------------------------------
 .byte   An1
 .byte   W96
@  #03 @009   ----------------------------------------
 .byte   Gs1
 .byte   W96
@  #03 @010   ----------------------------------------
 .byte   Gs1
 .byte   W96
@  #03 @011   ----------------------------------------
 .byte   Gn1
 .byte   W96
@  #03 @012   ----------------------------------------
 .byte   An1
 .byte   W96
@  #03 @013   ----------------------------------------
 .byte   Gs1
 .byte   W96
@  #03 @014   ----------------------------------------
 .byte   Gs1
 .byte   W96
@  #03 @015   ----------------------------------------
 .byte   Gn1
 .byte   W96
@  #03 @016   ----------------------------------------
 .byte   W96
@  #03 @017   ----------------------------------------
 .byte   W96
@  #03 @018   ----------------------------------------
 .byte   W96
@  #03 @019   ----------------------------------------
 .byte   W96
@  #03 @020   ----------------------------------------
 .byte   W96
@  #03 @021   ----------------------------------------
 .byte   W96
@  #03 @022   ----------------------------------------
 .byte   W96
@  #03 @023   ----------------------------------------
 .byte   W96
@  #03 @024   ----------------------------------------
 .byte   W96
@  #03 @025   ----------------------------------------
 .byte   W96
@  #03 @026   ----------------------------------------
 .byte   W96
@  #03 @027   ----------------------------------------
 .byte   W96
@  #03 @028   ----------------------------------------
 .byte   W96
@  #03 @029   ----------------------------------------
 .byte   W96
@  #03 @030   ----------------------------------------
 .byte   W96
@  #03 @031   ----------------------------------------
 .byte   W96
@  #03 @032   ----------------------------------------
 .byte   An1
 .byte   W96
@  #03 @033   ----------------------------------------
 .byte   Gs1
 .byte   W96
@  #03 @034   ----------------------------------------
 .byte   Gs1
 .byte   W96
@  #03 @035   ----------------------------------------
 .byte   Gn1
 .byte   W96
@  #03 @036   ----------------------------------------
 .byte   An1
 .byte   W96
@  #03 @037   ----------------------------------------
 .byte   Gs1
 .byte   W96
@  #03 @038   ----------------------------------------
 .byte   Gs1
 .byte   W96
@  #03 @039   ----------------------------------------
 .byte   Gn1
 .byte   W96
@  #03 @040   ----------------------------------------
 .byte   An1
 .byte   W96
@  #03 @041   ----------------------------------------
 .byte   Gs1
 .byte   W96
@  #03 @042   ----------------------------------------
 .byte   Gs1
 .byte   W96
@  #03 @043   ----------------------------------------
 .byte   Gn1
 .byte   W96
@  #03 @044   ----------------------------------------
 .byte   GOTO
  .word Label_013AD9A9
 .byte   FINE

@**************** Track 4 (Midi-Chn.3) ****************@

song0389_004:
@  #04 @000   ----------------------------------------
 .byte   KEYSH , song0389_key+0
 .byte   VOICE , 68
 .byte   N96 ,An3 ,v100
 .byte   VOL , 62*song0389_mvl/mxv
 .byte   W96
@  #04 @001   ----------------------------------------
 .byte   N96 ,Gs3
 .byte   W96
@  #04 @002   ----------------------------------------
 .byte   Gs3
 .byte   W96
@  #04 @003   ----------------------------------------
 .byte   Gn3
 .byte   W96
@  #04 @004   ----------------------------------------
Label_013AD7E5:
 .byte   N96 ,An3 ,v100
 .byte   W96
@  #04 @005   ----------------------------------------
 .byte   Gs3
 .byte   W96
@  #04 @006   ----------------------------------------
 .byte   Gs3
 .byte   W96
@  #04 @007   ----------------------------------------
 .byte   Gn3
 .byte   W96
@  #04 @008   ----------------------------------------
 .byte   An3
 .byte   W96
@  #04 @009   ----------------------------------------
 .byte   Gs3
 .byte   W96
@  #04 @010   ----------------------------------------
 .byte   Gs3
 .byte   W96
@  #04 @011   ----------------------------------------
 .byte   Gn3
 .byte   W96
@  #04 @012   ----------------------------------------
 .byte   An3
 .byte   W96
@  #04 @013   ----------------------------------------
 .byte   Gs3
 .byte   W96
@  #04 @014   ----------------------------------------
 .byte   Gs3
 .byte   W96
@  #04 @015   ----------------------------------------
 .byte   Gn3
 .byte   W96
@  #04 @016   ----------------------------------------
 .byte   W96
@  #04 @017   ----------------------------------------
 .byte   W96
@  #04 @018   ----------------------------------------
 .byte   W96
@  #04 @019   ----------------------------------------
 .byte   W96
@  #04 @020   ----------------------------------------
 .byte   W96
@  #04 @021   ----------------------------------------
 .byte   W96
@  #04 @022   ----------------------------------------
 .byte   W96
@  #04 @023   ----------------------------------------
 .byte   W96
@  #04 @024   ----------------------------------------
 .byte   W96
@  #04 @025   ----------------------------------------
 .byte   W96
@  #04 @026   ----------------------------------------
 .byte   W96
@  #04 @027   ----------------------------------------
 .byte   W96
@  #04 @028   ----------------------------------------
 .byte   W96
@  #04 @029   ----------------------------------------
 .byte   W96
@  #04 @030   ----------------------------------------
 .byte   W96
@  #04 @031   ----------------------------------------
 .byte   W96
@  #04 @032   ----------------------------------------
 .byte   W96
@  #04 @033   ----------------------------------------
 .byte   W96
@  #04 @034   ----------------------------------------
 .byte   W96
@  #04 @035   ----------------------------------------
 .byte   W96
@  #04 @036   ----------------------------------------
 .byte   W96
@  #04 @037   ----------------------------------------
 .byte   W96
@  #04 @038   ----------------------------------------
 .byte   W96
@  #04 @039   ----------------------------------------
 .byte   W96
@  #04 @040   ----------------------------------------
 .byte   An3
 .byte   W96
@  #04 @041   ----------------------------------------
 .byte   Gs3
 .byte   W96
@  #04 @042   ----------------------------------------
 .byte   Gs3
 .byte   W96
@  #04 @043   ----------------------------------------
 .byte   Gn3
 .byte   W96
@  #04 @044   ----------------------------------------
 .byte   GOTO
  .word Label_013AD7E5
 .byte   FINE

@**************** Track 5 (Midi-Chn.4) ****************@

song0389_005:
@  #05 @000   ----------------------------------------
 .byte   KEYSH , song0389_key+0
 .byte   VOICE , 10
 .byte   VOL , 62*song0389_mvl/mxv
 .byte   W96
@  #05 @001   ----------------------------------------
 .byte   W96
@  #05 @002   ----------------------------------------
 .byte   W96
@  #05 @003   ----------------------------------------
 .byte   W96
@  #05 @004   ----------------------------------------
Label_013C2202:
 .byte   N12 ,Dn1 ,v100
 .byte   N12 ,An1
 .byte   N12 ,Dn2
 .byte   W24
 .byte   Dn1
 .byte   N12 ,An1
 .byte   N12 ,Dn2
 .byte   W24
 .byte   Dn2
 .byte   N12 ,Dn1
 .byte   N12 ,An1
 .byte   W24
 .byte   Dn2
 .byte   N12 ,Dn1
 .byte   N12 ,An1
 .byte   W12
 .byte   N06 ,Dn2
 .byte   N06 ,An1
 .byte   N06 ,Dn1
 .byte   W06
 .byte   Dn2
 .byte   N06 ,An1
 .byte   N06 ,Dn1
 .byte   W06
@  #05 @005   ----------------------------------------
 .byte   N12
 .byte   N12 ,Gs1
 .byte   N12 ,Dn2
 .byte   W24
 .byte   Dn1
 .byte   N12 ,Gs1
 .byte   N12 ,Dn2
 .byte   W24
 .byte   Dn2
 .byte   N12 ,Dn1
 .byte   N12 ,Gs1
 .byte   W24
 .byte   Dn2
 .byte   N12 ,Dn1
 .byte   N12 ,Gs1
 .byte   W12
 .byte   N06 ,Dn2
 .byte   N06 ,Gs1
 .byte   N06 ,Dn1
 .byte   W06
 .byte   Dn2
 .byte   N06 ,Gs1
 .byte   N06 ,Dn1
 .byte   W06
@  #05 @006   ----------------------------------------
 .byte   N12 ,Cs1
 .byte   N12 ,Gs1
 .byte   N12 ,Cs2
 .byte   W24
 .byte   Cs1
 .byte   N12 ,Gs1
 .byte   N12 ,Cs2
 .byte   W24
 .byte   Cs2
 .byte   N12 ,Cs1
 .byte   N12 ,Gs1
 .byte   W24
 .byte   Cs2
 .byte   N12 ,Cs1
 .byte   N12 ,Gs1
 .byte   W12
 .byte   N06 ,Cs2
 .byte   N06 ,Gs1
 .byte   N06 ,Cs1
 .byte   W06
 .byte   Cs2
 .byte   N06 ,Gs1
 .byte   N06 ,Cs1
 .byte   W06
@  #05 @007   ----------------------------------------
 .byte   N12 ,Cn1
 .byte   N12 ,Gn1
 .byte   N12 ,Cn2
 .byte   W24
 .byte   Cn1
 .byte   N12 ,Gn1
 .byte   N12 ,Cn2
 .byte   W24
 .byte   Cn2
 .byte   N12 ,Cn1
 .byte   N12 ,Gn1
 .byte   W24
 .byte   Cn2
 .byte   N12 ,Cn1
 .byte   N12 ,Gn1
 .byte   W12
 .byte   N06 ,Cn2
 .byte   N06 ,Gn1
 .byte   N06 ,Cn1
 .byte   W06
 .byte   Cn2
 .byte   N06 ,Gn1
 .byte   N06 ,Cn1
 .byte   W06
@  #05 @008   ----------------------------------------
Label_013C229A:
 .byte   N12 ,Dn2 ,v100
 .byte   N12 ,An1
 .byte   N12 ,Dn1
 .byte   W24
 .byte   Dn2
 .byte   N12 ,An1
 .byte   N12 ,Dn1
 .byte   W24
 .byte   An1
 .byte   N12 ,Dn1
 .byte   N12 ,Dn2
 .byte   W24
 .byte   An1
 .byte   N12 ,Dn1
 .byte   N12 ,Dn2
 .byte   W12
 .byte   N06 ,Dn1
 .byte   N06 ,An1
 .byte   N06 ,Dn2
 .byte   W06
 .byte   Dn1
 .byte   N06 ,An1
 .byte   N06 ,Dn2
 .byte   W06
 .byte   PEND 
@  #05 @009   ----------------------------------------
Label_013C22C2:
 .byte   N12 ,Dn2 ,v100
 .byte   N12 ,Gs1
 .byte   N12 ,Dn1
 .byte   W24
 .byte   Dn2
 .byte   N12 ,Gs1
 .byte   N12 ,Dn1
 .byte   W24
 .byte   Gs1
 .byte   N12 ,Dn1
 .byte   N12 ,Dn2
 .byte   W24
 .byte   Gs1
 .byte   N12 ,Dn1
 .byte   N12 ,Dn2
 .byte   W12
 .byte   N06 ,Dn1
 .byte   N06 ,Gs1
 .byte   N06 ,Dn2
 .byte   W06
 .byte   Dn1
 .byte   N06 ,Gs1
 .byte   N06 ,Dn2
 .byte   W06
 .byte   PEND 
@  #05 @010   ----------------------------------------
Label_013C22EA:
 .byte   N12 ,Cs2 ,v100
 .byte   N12 ,Gs1
 .byte   N12 ,Cs1
 .byte   W24
 .byte   Cs2
 .byte   N12 ,Gs1
 .byte   N12 ,Cs1
 .byte   W24
 .byte   Gs1
 .byte   N12 ,Cs1
 .byte   N12 ,Cs2
 .byte   W24
 .byte   Gs1
 .byte   N12 ,Cs1
 .byte   N12 ,Cs2
 .byte   W12
 .byte   N06 ,Cs1
 .byte   N06 ,Gs1
 .byte   N06 ,Cs2
 .byte   W06
 .byte   Cs1
 .byte   N06 ,Gs1
 .byte   N06 ,Cs2
 .byte   W06
 .byte   PEND 
@  #05 @011   ----------------------------------------
Label_013C2312:
 .byte   N12 ,Cn2 ,v100
 .byte   N12 ,Gn1
 .byte   N12 ,Cn1
 .byte   W24
 .byte   Cn2
 .byte   N12 ,Gn1
 .byte   N12 ,Cn1
 .byte   W24
 .byte   Gn1
 .byte   N12 ,Cn1
 .byte   N12 ,Cn2
 .byte   W24
 .byte   Gn1
 .byte   N12 ,Cn1
 .byte   N12 ,Cn2
 .byte   W12
 .byte   N06 ,Cn1
 .byte   N06 ,Gn1
 .byte   N06 ,Cn2
 .byte   W06
 .byte   Cn1
 .byte   N06 ,Gn1
 .byte   N06 ,Cn2
 .byte   W06
 .byte   PEND 
@  #05 @012   ----------------------------------------
 .byte   PATT
  .word Label_013C229A
@  #05 @013   ----------------------------------------
 .byte   PATT
  .word Label_013C22C2
@  #05 @014   ----------------------------------------
 .byte   PATT
  .word Label_013C22EA
@  #05 @015   ----------------------------------------
 .byte   PATT
  .word Label_013C2312
@  #05 @016   ----------------------------------------
 .byte   N12 ,Dn2 ,v100
 .byte   N12 ,An1
 .byte   N12 ,Dn1
 .byte   W96
@  #05 @017   ----------------------------------------
 .byte   W96
@  #05 @018   ----------------------------------------
 .byte   W96
@  #05 @019   ----------------------------------------
 .byte   W96
@  #05 @020   ----------------------------------------
 .byte   W96
@  #05 @021   ----------------------------------------
 .byte   W96
@  #05 @022   ----------------------------------------
 .byte   W96
@  #05 @023   ----------------------------------------
 .byte   W96
@  #05 @024   ----------------------------------------
 .byte   W96
@  #05 @025   ----------------------------------------
 .byte   W96
@  #05 @026   ----------------------------------------
 .byte   W96
@  #05 @027   ----------------------------------------
 .byte   W96
@  #05 @028   ----------------------------------------
 .byte   W96
@  #05 @029   ----------------------------------------
 .byte   W96
@  #05 @030   ----------------------------------------
 .byte   W96
@  #05 @031   ----------------------------------------
 .byte   W96
@  #05 @032   ----------------------------------------
 .byte   PATT
  .word Label_013C229A
@  #05 @033   ----------------------------------------
 .byte   PATT
  .word Label_013C22C2
@  #05 @034   ----------------------------------------
 .byte   PATT
  .word Label_013C22EA
@  #05 @035   ----------------------------------------
 .byte   PATT
  .word Label_013C2312
@  #05 @036   ----------------------------------------
 .byte   PATT
  .word Label_013C229A
@  #05 @037   ----------------------------------------
 .byte   PATT
  .word Label_013C22C2
@  #05 @038   ----------------------------------------
 .byte   PATT
  .word Label_013C22EA
@  #05 @039   ----------------------------------------
 .byte   PATT
  .word Label_013C2312
@  #05 @040   ----------------------------------------
 .byte   W96
@  #05 @041   ----------------------------------------
 .byte   W96
@  #05 @042   ----------------------------------------
 .byte   W96
@  #05 @043   ----------------------------------------
 .byte   W96
@  #05 @044   ----------------------------------------
 .byte   GOTO
  .word Label_013C2202
 .byte   FINE

@**************** Track 6 (Midi-Chn.5) ****************@

song0389_006:
@  #06 @000   ----------------------------------------
 .byte   KEYSH , song0389_key+0
 .byte   VOICE , 60
 .byte   VOL , 62*song0389_mvl/mxv
 .byte   W96
@  #06 @001   ----------------------------------------
 .byte   W96
@  #06 @002   ----------------------------------------
 .byte   W96
@  #06 @003   ----------------------------------------
 .byte   W96
@  #06 @004   ----------------------------------------
Label_013ADACE:
 .byte   W96
@  #06 @005   ----------------------------------------
 .byte   W96
@  #06 @006   ----------------------------------------
 .byte   W96
@  #06 @007   ----------------------------------------
 .byte   W96
@  #06 @008   ----------------------------------------
 .byte   N48 ,Dn3 ,v100
 .byte   N48 ,An2
 .byte   W96
@  #06 @009   ----------------------------------------
 .byte   Gs2
 .byte   N48 ,Dn3
 .byte   W96
@  #06 @010   ----------------------------------------
 .byte   Cs3
 .byte   N48 ,Gs2
 .byte   W96
@  #06 @011   ----------------------------------------
 .byte   Gn2
 .byte   N48 ,Cn3
 .byte   W96
@  #06 @012   ----------------------------------------
Label_013ADAE4:
 .byte   N36 ,An2 ,v100
 .byte   N36 ,Dn3
 .byte   W48
 .byte   Dn3
 .byte   N36 ,An2
 .byte   W48
 .byte   PEND 
@  #06 @013   ----------------------------------------
Label_013ADAEF:
 .byte   N36 ,Gs2 ,v100
 .byte   N36 ,Dn3
 .byte   W48
 .byte   Dn3
 .byte   N36 ,Gs2
 .byte   W48
 .byte   PEND 
@  #06 @014   ----------------------------------------
Label_013ADAFA:
 .byte   N36 ,Gs2 ,v100
 .byte   N36 ,Cs3
 .byte   W48
 .byte   Gs2
 .byte   N36 ,Cs3
 .byte   W48
 .byte   PEND 
@  #06 @015   ----------------------------------------
Label_013ADB05:
 .byte   N36 ,Gn2 ,v100
 .byte   N36 ,Cn3
 .byte   W48
 .byte   Gn2
 .byte   N36 ,Cn3
 .byte   W48
 .byte   PEND 
@  #06 @016   ----------------------------------------
 .byte   W96
@  #06 @017   ----------------------------------------
 .byte   W96
@  #06 @018   ----------------------------------------
 .byte   W96
@  #06 @019   ----------------------------------------
 .byte   W96
@  #06 @020   ----------------------------------------
 .byte   W96
@  #06 @021   ----------------------------------------
 .byte   W96
@  #06 @022   ----------------------------------------
 .byte   W96
@  #06 @023   ----------------------------------------
 .byte   W96
@  #06 @024   ----------------------------------------
 .byte   W96
@  #06 @025   ----------------------------------------
 .byte   W96
@  #06 @026   ----------------------------------------
 .byte   W96
@  #06 @027   ----------------------------------------
 .byte   W96
@  #06 @028   ----------------------------------------
 .byte   W96
@  #06 @029   ----------------------------------------
 .byte   W96
@  #06 @030   ----------------------------------------
 .byte   W96
@  #06 @031   ----------------------------------------
 .byte   W96
@  #06 @032   ----------------------------------------
 .byte   PATT
  .word Label_013ADAE4
@  #06 @033   ----------------------------------------
 .byte   PATT
  .word Label_013ADAEF
@  #06 @034   ----------------------------------------
 .byte   PATT
  .word Label_013ADAFA
@  #06 @035   ----------------------------------------
 .byte   PATT
  .word Label_013ADB05
@  #06 @036   ----------------------------------------
 .byte   PATT
  .word Label_013ADAE4
@  #06 @037   ----------------------------------------
 .byte   PATT
  .word Label_013ADAEF
@  #06 @038   ----------------------------------------
 .byte   PATT
  .word Label_013ADAFA
@  #06 @039   ----------------------------------------
 .byte   PATT
  .word Label_013ADB05
@  #06 @040   ----------------------------------------
 .byte   W96
@  #06 @041   ----------------------------------------
 .byte   W96
@  #06 @042   ----------------------------------------
 .byte   W96
@  #06 @043   ----------------------------------------
 .byte   W96
@  #06 @044   ----------------------------------------
 .byte   GOTO
  .word Label_013ADACE
 .byte   FINE

@**************** Track 7 (Midi-Chn.6) ****************@

song0389_007:
@  #07 @000   ----------------------------------------
 .byte   KEYSH , song0389_key+0
 .byte   VOICE , 40
 .byte   VOL , 62*song0389_mvl/mxv
 .byte   W96
@  #07 @001   ----------------------------------------
 .byte   W96
@  #07 @002   ----------------------------------------
 .byte   W96
@  #07 @003   ----------------------------------------
 .byte   W96
@  #07 @004   ----------------------------------------
Label_013AD886:
 .byte   W96
@  #07 @005   ----------------------------------------
 .byte   W96
@  #07 @006   ----------------------------------------
 .byte   W96
@  #07 @007   ----------------------------------------
 .byte   W96
@  #07 @008   ----------------------------------------
Label_013AD88A:
 .byte   N48 ,An1 ,v100
 .byte   N48 ,Dn2
 .byte   W96
 .byte   PEND 
@  #07 @009   ----------------------------------------
Label_013AD891:
 .byte   N48 ,Dn2 ,v100
 .byte   N48 ,Gs1
 .byte   W96
 .byte   PEND 
@  #07 @010   ----------------------------------------
Label_013AD898:
 .byte   N48 ,Gs1 ,v100
 .byte   N48 ,Cs2
 .byte   W96
 .byte   PEND 
@  #07 @011   ----------------------------------------
Label_013AD89F:
 .byte   N48 ,Cn2 ,v100
 .byte   N48 ,Gn1
 .byte   W96
 .byte   PEND 
@  #07 @012   ----------------------------------------
Label_013AD8A6:
 .byte   N36 ,Dn2 ,v100
 .byte   N36 ,An1
 .byte   W48
 .byte   An1
 .byte   N36 ,Dn2
 .byte   W48
 .byte   PEND 
@  #07 @013   ----------------------------------------
Label_013AD8B1:
 .byte   N36 ,Dn2 ,v100
 .byte   N36 ,Gs1
 .byte   W48
 .byte   Gs1
 .byte   N36 ,Dn2
 .byte   W48
 .byte   PEND 
@  #07 @014   ----------------------------------------
Label_013AD8BC:
 .byte   N36 ,Cs2 ,v100
 .byte   N36 ,Gs1
 .byte   W48
 .byte   Cs2
 .byte   N36 ,Gs1
 .byte   W48
 .byte   PEND 
@  #07 @015   ----------------------------------------
Label_013AD8C7:
 .byte   N36 ,Cn2 ,v100
 .byte   N36 ,Gn1
 .byte   W48
 .byte   Cn2
 .byte   N36 ,Gn1
 .byte   W48
 .byte   PEND 
@  #07 @016   ----------------------------------------
 .byte   W96
@  #07 @017   ----------------------------------------
 .byte   W96
@  #07 @018   ----------------------------------------
 .byte   W96
@  #07 @019   ----------------------------------------
 .byte   W96
@  #07 @020   ----------------------------------------
 .byte   W96
@  #07 @021   ----------------------------------------
 .byte   W96
@  #07 @022   ----------------------------------------
 .byte   W96
@  #07 @023   ----------------------------------------
 .byte   W96
@  #07 @024   ----------------------------------------
 .byte   W96
@  #07 @025   ----------------------------------------
 .byte   W96
@  #07 @026   ----------------------------------------
 .byte   W96
@  #07 @027   ----------------------------------------
 .byte   W96
@  #07 @028   ----------------------------------------
 .byte   PATT
  .word Label_013AD88A
@  #07 @029   ----------------------------------------
 .byte   PATT
  .word Label_013AD891
@  #07 @030   ----------------------------------------
 .byte   PATT
  .word Label_013AD898
@  #07 @031   ----------------------------------------
 .byte   PATT
  .word Label_013AD89F
@  #07 @032   ----------------------------------------
 .byte   PATT
  .word Label_013AD8A6
@  #07 @033   ----------------------------------------
 .byte   PATT
  .word Label_013AD8B1
@  #07 @034   ----------------------------------------
 .byte   PATT
  .word Label_013AD8BC
@  #07 @035   ----------------------------------------
 .byte   PATT
  .word Label_013AD8C7
@  #07 @036   ----------------------------------------
 .byte   PATT
  .word Label_013AD8A6
@  #07 @037   ----------------------------------------
 .byte   PATT
  .word Label_013AD8B1
@  #07 @038   ----------------------------------------
 .byte   PATT
  .word Label_013AD8BC
@  #07 @039   ----------------------------------------
 .byte   PATT
  .word Label_013AD8C7
@  #07 @040   ----------------------------------------
 .byte   W96
@  #07 @041   ----------------------------------------
 .byte   W96
@  #07 @042   ----------------------------------------
 .byte   W96
@  #07 @043   ----------------------------------------
 .byte   W96
@  #07 @044   ----------------------------------------
 .byte   GOTO
  .word Label_013AD886
 .byte   FINE

@**************** Track 8 (Midi-Chn.7) ****************@

song0389_008:
@  #08 @000   ----------------------------------------
 .byte   KEYSH , song0389_key+0
 .byte   VOICE , 30
 .byte   VOL , 62*song0389_mvl/mxv
 .byte   W96
@  #08 @001   ----------------------------------------
 .byte   W96
@  #08 @002   ----------------------------------------
 .byte   W96
@  #08 @003   ----------------------------------------
 .byte   W96
@  #08 @004   ----------------------------------------
Label_013ADA32:
 .byte   W96
@  #08 @005   ----------------------------------------
 .byte   W96
@  #08 @006   ----------------------------------------
 .byte   W96
@  #08 @007   ----------------------------------------
 .byte   W96
@  #08 @008   ----------------------------------------
 .byte   W96
@  #08 @009   ----------------------------------------
 .byte   W96
@  #08 @010   ----------------------------------------
 .byte   W96
@  #08 @011   ----------------------------------------
 .byte   W96
@  #08 @012   ----------------------------------------
 .byte   W96
@  #08 @013   ----------------------------------------
 .byte   W96
@  #08 @014   ----------------------------------------
 .byte   W96
@  #08 @015   ----------------------------------------
 .byte   W96
@  #08 @016   ----------------------------------------
 .byte   W96
@  #08 @017   ----------------------------------------
 .byte   W96
@  #08 @018   ----------------------------------------
 .byte   W96
@  #08 @019   ----------------------------------------
 .byte   W96
@  #08 @020   ----------------------------------------
Label_013ADA42:
 .byte   N96 ,Dn1 ,v100
 .byte   W48
 .byte   N48 ,An1
 .byte   W48
 .byte   PEND 
@  #08 @021   ----------------------------------------
Label_013ADA4A:
 .byte   N96 ,Dn1 ,v100
 .byte   W48
 .byte   N48 ,Gs1
 .byte   W48
 .byte   PEND 
@  #08 @022   ----------------------------------------
Label_013ADA52:
 .byte   N96 ,Cs1 ,v100
 .byte   W48
 .byte   N48 ,Gs1
 .byte   W48
 .byte   PEND 
@  #08 @023   ----------------------------------------
Label_013ADA5A:
 .byte   N96 ,Cn1 ,v100
 .byte   W48
 .byte   N48 ,Gn1
 .byte   W48
 .byte   PEND 
@  #08 @024   ----------------------------------------
 .byte   PATT
  .word Label_013ADA42
@  #08 @025   ----------------------------------------
 .byte   PATT
  .word Label_013ADA4A
@  #08 @026   ----------------------------------------
 .byte   PATT
  .word Label_013ADA52
@  #08 @027   ----------------------------------------
 .byte   PATT
  .word Label_013ADA5A
@  #08 @028   ----------------------------------------
 .byte   PATT
  .word Label_013ADA42
@  #08 @029   ----------------------------------------
 .byte   PATT
  .word Label_013ADA4A
@  #08 @030   ----------------------------------------
 .byte   PATT
  .word Label_013ADA52
@  #08 @031   ----------------------------------------
 .byte   PATT
  .word Label_013ADA5A
@  #08 @032   ----------------------------------------
 .byte   PATT
  .word Label_013ADA42
@  #08 @033   ----------------------------------------
 .byte   PATT
  .word Label_013ADA4A
@  #08 @034   ----------------------------------------
 .byte   PATT
  .word Label_013ADA52
@  #08 @035   ----------------------------------------
 .byte   PATT
  .word Label_013ADA5A
@  #08 @036   ----------------------------------------
 .byte   PATT
  .word Label_013ADA42
@  #08 @037   ----------------------------------------
 .byte   PATT
  .word Label_013ADA4A
@  #08 @038   ----------------------------------------
 .byte   PATT
  .word Label_013ADA52
@  #08 @039   ----------------------------------------
 .byte   PATT
  .word Label_013ADA5A
@  #08 @040   ----------------------------------------
 .byte   W96
@  #08 @041   ----------------------------------------
 .byte   W96
@  #08 @042   ----------------------------------------
 .byte   W96
@  #08 @043   ----------------------------------------
 .byte   W96
@  #08 @044   ----------------------------------------
 .byte   GOTO
  .word Label_013ADA32
 .byte   FINE

@**************** Track 9 (Midi-Chn.8) ****************@

song0389_009:
@  #09 @000   ----------------------------------------
 .byte   KEYSH , song0389_key+0
 .byte   VOICE , 104
 .byte   VOL , 45*song0389_mvl/mxv
 .byte   W96
@  #09 @001   ----------------------------------------
 .byte   W96
@  #09 @002   ----------------------------------------
 .byte   W96
@  #09 @003   ----------------------------------------
 .byte   W96
@  #09 @004   ----------------------------------------
Label_013ADB62:
 .byte   W96
@  #09 @005   ----------------------------------------
 .byte   W96
@  #09 @006   ----------------------------------------
 .byte   W96
@  #09 @007   ----------------------------------------
 .byte   W96
@  #09 @008   ----------------------------------------
 .byte   W96
@  #09 @009   ----------------------------------------
 .byte   W96
@  #09 @010   ----------------------------------------
 .byte   W96
@  #09 @011   ----------------------------------------
 .byte   W96
@  #09 @012   ----------------------------------------
 .byte   W96
@  #09 @013   ----------------------------------------
 .byte   W96
@  #09 @014   ----------------------------------------
 .byte   W96
@  #09 @015   ----------------------------------------
 .byte   W96
@  #09 @016   ----------------------------------------
 .byte   W96
@  #09 @017   ----------------------------------------
 .byte   W96
@  #09 @018   ----------------------------------------
 .byte   W96
@  #09 @019   ----------------------------------------
 .byte   W96
@  #09 @020   ----------------------------------------
 .byte   W96
@  #09 @021   ----------------------------------------
 .byte   W96
@  #09 @022   ----------------------------------------
 .byte   W96
@  #09 @023   ----------------------------------------
 .byte   W96
@  #09 @024   ----------------------------------------
Label_013ADB76:
 .byte   N36 ,Dn4 ,v100
 .byte   N48 ,Dn3
 .byte   W48
 .byte   N24 ,Fn4
 .byte   N24 ,Fn3
 .byte   W24
 .byte   An4
 .byte   N24 ,An3
 .byte   W24
 .byte   PEND 
@  #09 @025   ----------------------------------------
Label_013ADB86:
 .byte   N36 ,Gs4 ,v100
 .byte   N48 ,Gs3
 .byte   W48
 .byte   N36 ,Fn4
 .byte   N48 ,Fn3
 .byte   W48
 .byte   PEND 
@  #09 @026   ----------------------------------------
Label_013ADB92:
 .byte   N36 ,Gs4 ,v100
 .byte   N48 ,Gs3
 .byte   W48
 .byte   N36 ,En4
 .byte   N48 ,En3
 .byte   W48
 .byte   PEND 
@  #09 @027   ----------------------------------------
Label_013ADB9E:
 .byte   N36 ,Gn4 ,v100
 .byte   N48 ,Gn3
 .byte   W48
 .byte   N36 ,En4
 .byte   N48 ,En3
 .byte   W48
 .byte   PEND 
@  #09 @028   ----------------------------------------
 .byte   PATT
  .word Label_013ADB76
@  #09 @029   ----------------------------------------
 .byte   PATT
  .word Label_013ADB86
@  #09 @030   ----------------------------------------
 .byte   PATT
  .word Label_013ADB92
@  #09 @031   ----------------------------------------
 .byte   PATT
  .word Label_013ADB9E
@  #09 @032   ----------------------------------------
 .byte   PATT
  .word Label_013ADB76
@  #09 @033   ----------------------------------------
 .byte   PATT
  .word Label_013ADB86
@  #09 @034   ----------------------------------------
 .byte   PATT
  .word Label_013ADB92
@  #09 @035   ----------------------------------------
 .byte   PATT
  .word Label_013ADB9E
@  #09 @036   ----------------------------------------
 .byte   PATT
  .word Label_013ADB76
@  #09 @037   ----------------------------------------
 .byte   PATT
  .word Label_013ADB86
@  #09 @038   ----------------------------------------
 .byte   PATT
  .word Label_013ADB92
@  #09 @039   ----------------------------------------
 .byte   PATT
  .word Label_013ADB9E
@  #09 @040   ----------------------------------------
 .byte   N36 ,Dn4 ,v100
 .byte   N48 ,Dn3
 .byte   W96
@  #09 @041   ----------------------------------------
 .byte   W96
@  #09 @042   ----------------------------------------
 .byte   W96
@  #09 @043   ----------------------------------------
 .byte   W96
@  #09 @044   ----------------------------------------
 .byte   GOTO
  .word Label_013ADB62
 .byte   FINE

@**************** Track 10 (Midi-Chn.9) ****************@

song0389_010:
@  #10 @000   ----------------------------------------
 .byte   KEYSH , song0389_key+0
 .byte   VOICE , 127
 .byte   VOL , 60*song0389_mvl/mxv
 .byte   N06 ,Cn1 ,v100
 .byte   W24
 .byte   Cn1
 .byte   W24
 .byte   Cn1
 .byte   W24
 .byte   Cn1
 .byte   W24
@  #10 @001   ----------------------------------------
Label_013C23A8:
 .byte   N06 ,Cn1 ,v100
 .byte   W24
 .byte   Cn1
 .byte   W24
 .byte   Cn1
 .byte   W24
 .byte   Cn1
 .byte   W12
 .byte   Cn1
 .byte   W12
 .byte   PEND 
@  #10 @002   ----------------------------------------
 .byte   Cn1
 .byte   W24
 .byte   Cn1
 .byte   W24
 .byte   Cn1
 .byte   W24
 .byte   Cn1
 .byte   W24
@  #10 @003   ----------------------------------------
 .byte   PATT
  .word Label_013C23A8
@  #10 @004   ----------------------------------------
Label_013C23C2:
 .byte   N06 ,Cn1 ,v100
 .byte   W24
 .byte   Cn1
 .byte   N06 ,Dn1
 .byte   W24
 .byte   Cn1
 .byte   W24
 .byte   Cn1
 .byte   N06 ,Dn1
 .byte   W24
@  #10 @005   ----------------------------------------
Label_013C23D0:
 .byte   N06 ,Cn1 ,v100
 .byte   W24
 .byte   Cn1
 .byte   N06 ,Dn1
 .byte   W24
 .byte   Cn1
 .byte   W24
 .byte   Cn1
 .byte   N06 ,Dn1
 .byte   W12
 .byte   Cn1
 .byte   N06 ,Dn1
 .byte   W06
 .byte   Dn1
 .byte   W06
 .byte   PEND 
@  #10 @006   ----------------------------------------
Label_013C23E5:
 .byte   N06 ,Cn1 ,v100
 .byte   W24
 .byte   Cn1
 .byte   N06 ,Dn1
 .byte   W24
 .byte   Cn1
 .byte   W24
 .byte   Cn1
 .byte   N06 ,Dn1
 .byte   W24
 .byte   PEND 
@  #10 @007   ----------------------------------------
 .byte   PATT
  .word Label_013C23D0
@  #10 @008   ----------------------------------------
Label_013C23F9:
 .byte   N06 ,Cn1 ,v100
 .byte   W12
 .byte   Cn1
 .byte   W12
 .byte   Cn1
 .byte   N06 ,Dn1
 .byte   W12
 .byte   Cn1
 .byte   W12
 .byte   Cn1
 .byte   W12
 .byte   Cn1
 .byte   W12
 .byte   Cn1
 .byte   N06 ,Dn1
 .byte   W12
 .byte   Cn1
 .byte   W12
 .byte   PEND 
@  #10 @009   ----------------------------------------
Label_013C2410:
 .byte   N06 ,Cn1 ,v100
 .byte   W12
 .byte   Cn1
 .byte   W12
 .byte   Cn1
 .byte   N06 ,Dn1
 .byte   W12
 .byte   Cn1
 .byte   W12
 .byte   Cn1
 .byte   W12
 .byte   Cn1
 .byte   W12
 .byte   Cn1
 .byte   N06 ,Dn1
 .byte   W06
 .byte   En1
 .byte   W06
 .byte   Cn1
 .byte   N06 ,Dn1
 .byte   W06
 .byte   Dn1
 .byte   W06
 .byte   PEND 
@  #10 @010   ----------------------------------------
 .byte   PATT
  .word Label_013C23F9
@  #10 @011   ----------------------------------------
 .byte   PATT
  .word Label_013C2410
@  #10 @012   ----------------------------------------
 .byte   PATT
  .word Label_013C23F9
@  #10 @013   ----------------------------------------
 .byte   PATT
  .word Label_013C2410
@  #10 @014   ----------------------------------------
 .byte   PATT
  .word Label_013C23F9
@  #10 @015   ----------------------------------------
 .byte   PATT
  .word Label_013C2410
@  #10 @016   ----------------------------------------
 .byte   PATT
  .word Label_013C23E5
@  #10 @017   ----------------------------------------
 .byte   PATT
  .word Label_013C23D0
@  #10 @018   ----------------------------------------
 .byte   PATT
  .word Label_013C23E5
@  #10 @019   ----------------------------------------
 .byte   PATT
  .word Label_013C23D0
@  #10 @020   ----------------------------------------
 .byte   PATT
  .word Label_013C23E5
@  #10 @021   ----------------------------------------
 .byte   PATT
  .word Label_013C23D0
@  #10 @022   ----------------------------------------
 .byte   PATT
  .word Label_013C23E5
@  #10 @023   ----------------------------------------
 .byte   PATT
  .word Label_013C23D0
@  #10 @024   ----------------------------------------
 .byte   PATT
  .word Label_013C23F9
@  #10 @025   ----------------------------------------
 .byte   PATT
  .word Label_013C2410
@  #10 @026   ----------------------------------------
 .byte   PATT
  .word Label_013C23F9
@  #10 @027   ----------------------------------------
 .byte   PATT
  .word Label_013C2410
@  #10 @028   ----------------------------------------
 .byte   PATT
  .word Label_013C23F9
@  #10 @029   ----------------------------------------
 .byte   PATT
  .word Label_013C2410
@  #10 @030   ----------------------------------------
 .byte   PATT
  .word Label_013C23F9
@  #10 @031   ----------------------------------------
 .byte   PATT
  .word Label_013C2410
@  #10 @032   ----------------------------------------
 .byte   PATT
  .word Label_013C23F9
@  #10 @033   ----------------------------------------
 .byte   PATT
  .word Label_013C2410
@  #10 @034   ----------------------------------------
 .byte   PATT
  .word Label_013C23F9
@  #10 @035   ----------------------------------------
 .byte   PATT
  .word Label_013C2410
@  #10 @036   ----------------------------------------
 .byte   PATT
  .word Label_013C23F9
@  #10 @037   ----------------------------------------
 .byte   PATT
  .word Label_013C2410
@  #10 @038   ----------------------------------------
 .byte   PATT
  .word Label_013C23F9
@  #10 @039   ----------------------------------------
 .byte   PATT
  .word Label_013C2410
@  #10 @040   ----------------------------------------
 .byte   PATT
  .word Label_013C23E5
@  #10 @041   ----------------------------------------
 .byte   PATT
  .word Label_013C23D0
@  #10 @042   ----------------------------------------
 .byte   PATT
  .word Label_013C23E5
@  #10 @043   ----------------------------------------
 .byte   PATT
  .word Label_013C23D0
@  #10 @044   ----------------------------------------
 .byte   GOTO
  .word Label_013C23C2
 .byte   FINE

@******************************************************@
	.align	2

song0389:
	.byte	10	@ NumTrks
	.byte	0	@ NumBlks
	.byte	song0389_pri	@ Priority
	.byte	song0389_rev	@ Reverb.
    
	.word	song0389_grp
    
	.word	song0389_001
	.word	song0389_002
	.word	song0389_003
	.word	song0389_004
	.word	song0389_005
	.word	song0389_006
	.word	song0389_007
	.word	song0389_008
	.word	song0389_009
	.word	song0389_010

	.end
