	.include "MPlayDef.s"

	.equ	song06_grp, voicegroup000
	.equ	song06_pri, 0
	.equ	song06_rev, 0
	.equ	song06_mvl, 127
	.equ	song06_key, 0
	.equ	song06_tbs, 1
	.equ	song06_exg, 0
	.equ	song06_cmp, 1

	.section .rodata
	.global	song06
	.align	2


@**************** Track 1 (Midi-Chn.0) ****************@

song06_001:
@  #01 @000   ----------------------------------------
 .byte   KEYSH , song06_key+0
 .byte   TEMPO , 100*song06_tbs/2
 .byte   VOICE , 40
 .byte   VOL , 57*song06_mvl/mxv
 .byte   PAN , c_v-10
 .byte   W96
@  #01 @001   ----------------------------------------
 .byte   W96
@  #01 @002   ----------------------------------------
 .byte   W96
@  #01 @003   ----------------------------------------
 .byte   W96
@  #01 @004   ----------------------------------------
 .byte   W96
@  #01 @005   ----------------------------------------
Label_01023F23:
 .byte   W72
 .byte   TEMPO , 24*song06_tbs/2
 .byte   W23
 .byte   TEMPO , 100*song06_tbs/2
 .byte   W01
 .byte   PEND 
@  #01 @006   ----------------------------------------
 .byte   W12
Label_01023F2C:
 .byte   W84
@  #01 @007   ----------------------------------------
 .byte   W96
@  #01 @008   ----------------------------------------
 .byte   W96
@  #01 @009   ----------------------------------------
 .byte   W96
@  #01 @010   ----------------------------------------
 .byte   W96
@  #01 @011   ----------------------------------------
 .byte   W96
@  #01 @012   ----------------------------------------
 .byte   W96
@  #01 @013   ----------------------------------------
Label_01023F33:
 .byte   W48
 .byte   N05 ,An3 ,v080
 .byte   W06
 .byte   Bn3
 .byte   W06
 .byte   Cs4
 .byte   W06
 .byte   Dn4
 .byte   W06
 .byte   En4
 .byte   W06
 .byte   Fs4
 .byte   W06
 .byte   Gn4
 .byte   W06
 .byte   An4
 .byte   W06
 .byte   PEND 
@  #01 @014   ----------------------------------------
Label_01023F47:
 .byte   W06
 .byte   N05 ,Gn3 ,v080
 .byte   W06
 .byte   As3
 .byte   W06
 .byte   Dn4
 .byte   W06
 .byte   Gn4
 .byte   W06
 .byte   Fs4
 .byte   W06
 .byte   Gn4
 .byte   W06
 .byte   Dn4
 .byte   W12
 .byte   Gn3
 .byte   W06
 .byte   Dn4
 .byte   W06
 .byte   Gn4
 .byte   W06
 .byte   An4
 .byte   W06
 .byte   Gn4
 .byte   W06
 .byte   An4
 .byte   W06
 .byte   Dn4
 .byte   W06
 .byte   PEND 
@  #01 @015   ----------------------------------------
Label_01023F67:
 .byte   W06
 .byte   N05 ,Gn3 ,v080
 .byte   W06
 .byte   Dn4
 .byte   W06
 .byte   Gn4
 .byte   W06
 .byte   As4
 .byte   W06
 .byte   An4
 .byte   W06
 .byte   As4
 .byte   W06
 .byte   Gn4
 .byte   W06
 .byte   Fs4
 .byte   W06
 .byte   En4
 .byte   W06
 .byte   Fs4
 .byte   W06
 .byte   Dn4
 .byte   W06
 .byte   Gn4
 .byte   W06
 .byte   Dn5
 .byte   W06
 .byte   Ds5
 .byte   W06
 .byte   Cn5
 .byte   W06
 .byte   PEND 
@  #01 @016   ----------------------------------------
Label_01023F89:
 .byte   N05 ,As4 ,v080
 .byte   W06
 .byte   Dn5
 .byte   W06
 .byte   N11 ,Gn5
 .byte   W12
 .byte   N05 ,Fs5
 .byte   W06
 .byte   Dn5
 .byte   W06
 .byte   N11 ,Cn5
 .byte   W12
 .byte   N05 ,As4
 .byte   W06
 .byte   Dn5
 .byte   W06
 .byte   N11 ,As5
 .byte   W12
 .byte   N05 ,An5
 .byte   W06
 .byte   Gn5
 .byte   W06
 .byte   N02 ,Fs5
 .byte   W03
 .byte   Gn5
 .byte   W03
 .byte   N05 ,An5
 .byte   W06
 .byte   PEND 
@  #01 @017   ----------------------------------------
Label_01023FB0:
 .byte   N02 ,Gn5 ,v080
 .byte   W06
 .byte   Fs5
 .byte   W06
 .byte   Gn5
 .byte   W06
 .byte   Fs5
 .byte   W06
 .byte   Gn5
 .byte   W06
 .byte   Fs5
 .byte   W06
 .byte   Gn5
 .byte   W06
 .byte   Fs5
 .byte   W06
 .byte   N05 ,Gn5
 .byte   W06
 .byte   Dn5
 .byte   W06
 .byte   Cn5
 .byte   W06
 .byte   As4
 .byte   W06
 .byte   An4
 .byte   W06
 .byte   Gn4
 .byte   W06
 .byte   Fs4
 .byte   W06
 .byte   Dn4
 .byte   W06
 .byte   PEND 
@  #01 @018   ----------------------------------------
Label_01023FD4:
 .byte   W06
 .byte   N05 ,Ds4 ,v080
 .byte   W06
 .byte   Dn4
 .byte   W06
 .byte   Cn4
 .byte   W06
 .byte   As3
 .byte   W06
 .byte   An3
 .byte   W06
 .byte   N02 ,Fs3
 .byte   W03
 .byte   Gn3
 .byte   W03
 .byte   N05 ,Fs3
 .byte   W06
 .byte   N11 ,As3
 .byte   N11 ,Gn4
 .byte   W24
 .byte   An3
 .byte   N11 ,Fs4
 .byte   W24
 .byte   PEND 
@  #01 @019   ----------------------------------------
Label_01023FF3:
 .byte   TEMPO , 78*song06_tbs/2
 .byte   N11 ,As3 ,v080
 .byte   N11 ,Gn4
 .byte   W48
 .byte   PEND 
Label_01023FFC:
 .byte   N23 ,As3 ,v080
 .byte   W24
 .byte   Dn4
 .byte   W24
@  #01 @020   ----------------------------------------
 .byte   Ds4
 .byte   W24
 .byte   Cn4
 .byte   W24
 .byte   PEND 
Label_01024007:
 .byte   N23 ,Ds4 ,v080
 .byte   W24
 .byte   Cn4
 .byte   W24
@  #01 @021   ----------------------------------------
 .byte   Dn4
 .byte   W24
 .byte   Gn3
 .byte   W24
 .byte   PEND 
Label_01024012:
 .byte   N23 ,An3 ,v080
 .byte   W24
 .byte   Ds4
 .byte   W24
@  #01 @022   ----------------------------------------
 .byte   As3
 .byte   W24
 .byte   Cn4
 .byte   W24
 .byte   PEND 
Label_0102401D:
 .byte   N23 ,As3 ,v080
 .byte   W24
 .byte   An3
 .byte   W24
@  #01 @023   ----------------------------------------
 .byte   Fs3
 .byte   W24
 .byte   Dn3
 .byte   W24
 .byte   PEND 
Label_01024028:
 .byte   N23 ,Gn3 ,v080
 .byte   W24
 .byte   Dn4
 .byte   W24
@  #01 @024   ----------------------------------------
 .byte   Ds4
 .byte   W24
 .byte   An4
 .byte   W24
 .byte   PEND 
Label_01024033:
 .byte   N23 ,An4 ,v080
 .byte   W24
 .byte   As4
 .byte   W24
@  #01 @025   ----------------------------------------
 .byte   An4
 .byte   W24
 .byte   Dn4
 .byte   W24
 .byte   PEND 
Label_0102403E:
 .byte   N68 ,Gn4 ,v080
 .byte   W72
@  #01 @026   ----------------------------------------
 .byte   N23 ,Cn4
 .byte   W24
 .byte   PEND 
Label_01024046:
 .byte   N23 ,Gn4 ,v080
 .byte   W24
 .byte   Cs4
 .byte   W24
 .byte   An3
 .byte   W24
@  #01 @027   ----------------------------------------
 .byte   En3
 .byte   W24
 .byte   PEND 
Label_01024051:
 .byte   TEMPO , 60*song06_tbs/2
 .byte   N44 ,Cs3 ,v080
 .byte   W48
 .byte   N05
 .byte   W12
 .byte   Dn3
 .byte   W12
@  #01 @028   ----------------------------------------
 .byte   En3
 .byte   W12
 .byte   Fn3
 .byte   W12
 .byte   PEND 
Label_01024060:
 .byte   TEMPO , 78*song06_tbs/2
 .byte   N44 ,Cs3 ,v080
 .byte   W48
 .byte   N23 ,En3
 .byte   W24
@  #01 @029   ----------------------------------------
 .byte   Fn3
 .byte   W24
 .byte   PEND 
Label_0102406C:
 .byte   N44 ,An2 ,v080
 .byte   W24
 .byte   TEMPO , 44*song06_tbs/2
 .byte   W23
 .byte   TEMPO , 78*song06_tbs/2
 .byte   W48
@  #01 @030   ----------------------------------------
 .byte   W01
 .byte   PEND 
 .byte   TEMPO , 100*song06_tbs/2
 .byte   W96
@  #01 @031   ----------------------------------------
 .byte   W96
@  #01 @032   ----------------------------------------
 .byte   W96
@  #01 @033   ----------------------------------------
 .byte   W96
@  #01 @034   ----------------------------------------
 .byte   W96
@  #01 @035   ----------------------------------------
 .byte   W96
@  #01 @036   ----------------------------------------
 .byte   W96
@  #01 @037   ----------------------------------------
 .byte   W96
@  #01 @038   ----------------------------------------
 .byte   W96
@  #01 @039   ----------------------------------------
 .byte   W96
@  #01 @040   ----------------------------------------
 .byte   PATT
  .word Label_01023F23
@  #01 @041   ----------------------------------------
 .byte   W12
 .byte   GOTO
  .word Label_01023F2C
@  #01 @042   ----------------------------------------
 .byte   W84
 .byte   W96
@  #01 @043   ----------------------------------------
 .byte   W96
@  #01 @044   ----------------------------------------
 .byte   W96
@  #01 @045   ----------------------------------------
 .byte   W96
@  #01 @046   ----------------------------------------
 .byte   W96
@  #01 @047   ----------------------------------------
 .byte   W96
@  #01 @048   ----------------------------------------
 .byte   PATT
  .word Label_01023F33
@  #01 @049   ----------------------------------------
 .byte   PATT
  .word Label_01023F47
@  #01 @050   ----------------------------------------
 .byte   PATT
  .word Label_01023F67
@  #01 @051   ----------------------------------------
 .byte   PATT
  .word Label_01023F89
@  #01 @052   ----------------------------------------
 .byte   PATT
  .word Label_01023FB0
@  #01 @053   ----------------------------------------
 .byte   PATT
  .word Label_01023FD4
@  #01 @054   ----------------------------------------
 .byte   PATT
  .word Label_01023FF3
@  #01 @055   ----------------------------------------
 .byte   PATT
  .word Label_01023FFC
@  #01 @056   ----------------------------------------
 .byte   PATT
  .word Label_01024007
@  #01 @057   ----------------------------------------
 .byte   PATT
  .word Label_01024012
@  #01 @058   ----------------------------------------
 .byte   PATT
  .word Label_0102401D
@  #01 @059   ----------------------------------------
 .byte   PATT
  .word Label_01024028
@  #01 @060   ----------------------------------------
 .byte   PATT
  .word Label_01024033
@  #01 @061   ----------------------------------------
 .byte   PATT
  .word Label_0102403E
@  #01 @062   ----------------------------------------
 .byte   PATT
  .word Label_01024046
@  #01 @063   ----------------------------------------
 .byte   PATT
  .word Label_01024051
@  #01 @064   ----------------------------------------
 .byte   PATT
  .word Label_01024060
@  #01 @065   ----------------------------------------
 .byte   PATT
  .word Label_0102406C
@  #01 @066   ----------------------------------------
 .byte   TEMPO , 100*song06_tbs/2
 .byte   W96
@  #01 @067   ----------------------------------------
 .byte   W96
@  #01 @068   ----------------------------------------
 .byte   W96
@  #01 @069   ----------------------------------------
 .byte   W96
@  #01 @070   ----------------------------------------
 .byte   W96
@  #01 @071   ----------------------------------------
 .byte   W96
@  #01 @072   ----------------------------------------
 .byte   W96
@  #01 @073   ----------------------------------------
 .byte   W96
@  #01 @074   ----------------------------------------
 .byte   W96
@  #01 @075   ----------------------------------------
 .byte   W96
@  #01 @076   ----------------------------------------
 .byte   PATT
  .word Label_01023F23
@  #01 @077   ----------------------------------------
 .byte   W96
@  #01 @078   ----------------------------------------
 .byte   W96
@  #01 @079   ----------------------------------------
 .byte   W96
@  #01 @080   ----------------------------------------
 .byte   W96
@  #01 @081   ----------------------------------------
 .byte   W96
@  #01 @082   ----------------------------------------
 .byte   W96
@  #01 @083   ----------------------------------------
 .byte   W96
@  #01 @084   ----------------------------------------
 .byte   PATT
  .word Label_01023F33
@  #01 @085   ----------------------------------------
 .byte   PATT
  .word Label_01023F47
@  #01 @086   ----------------------------------------
 .byte   PATT
  .word Label_01023F67
@  #01 @087   ----------------------------------------
 .byte   PATT
  .word Label_01023F89
@  #01 @088   ----------------------------------------
 .byte   PATT
  .word Label_01023FB0
@  #01 @089   ----------------------------------------
 .byte   PATT
  .word Label_01023FD4
@  #01 @090   ----------------------------------------
 .byte   PATT
  .word Label_01023FF3
@  #01 @091   ----------------------------------------
 .byte   PATT
  .word Label_01023FFC
@  #01 @092   ----------------------------------------
 .byte   PATT
  .word Label_01024007
@  #01 @093   ----------------------------------------
 .byte   PATT
  .word Label_01024012
@  #01 @094   ----------------------------------------
 .byte   PATT
  .word Label_0102401D
@  #01 @095   ----------------------------------------
 .byte   PATT
  .word Label_01024028
@  #01 @096   ----------------------------------------
 .byte   PATT
  .word Label_01024033
@  #01 @097   ----------------------------------------
 .byte   PATT
  .word Label_0102403E
@  #01 @098   ----------------------------------------
 .byte   PATT
  .word Label_01024046
@  #01 @099   ----------------------------------------
 .byte   PATT
  .word Label_01024051
@  #01 @100   ----------------------------------------
 .byte   PATT
  .word Label_01024060
@  #01 @101   ----------------------------------------
 .byte   PATT
  .word Label_0102406C
@  #01 @102   ----------------------------------------
 .byte   TEMPO , 100*song06_tbs/2
 .byte   W96
@  #01 @103   ----------------------------------------
 .byte   W96
@  #01 @104   ----------------------------------------
 .byte   W96
@  #01 @105   ----------------------------------------
 .byte   W96
@  #01 @106   ----------------------------------------
 .byte   W96
@  #01 @107   ----------------------------------------
 .byte   W96
@  #01 @108   ----------------------------------------
 .byte   W96
@  #01 @109   ----------------------------------------
 .byte   W96
@  #01 @110   ----------------------------------------
 .byte   W96
@  #01 @111   ----------------------------------------
 .byte   W96
@  #01 @112   ----------------------------------------
 .byte   PATT
  .word Label_01023F23
@  #01 @113   ----------------------------------------
 .byte   W96
@  #01 @114   ----------------------------------------
 .byte   W96
@  #01 @115   ----------------------------------------
 .byte   W96
@  #01 @116   ----------------------------------------
 .byte   W96
@  #01 @117   ----------------------------------------
 .byte   W96
@  #01 @118   ----------------------------------------
 .byte   W96
@  #01 @119   ----------------------------------------
 .byte   W96
@  #01 @120   ----------------------------------------
 .byte   PATT
  .word Label_01023F33
@  #01 @121   ----------------------------------------
 .byte   PATT
  .word Label_01023F47
@  #01 @122   ----------------------------------------
 .byte   PATT
  .word Label_01023F67
@  #01 @123   ----------------------------------------
 .byte   PATT
  .word Label_01023F89
@  #01 @124   ----------------------------------------
 .byte   PATT
  .word Label_01023FB0
@  #01 @125   ----------------------------------------
 .byte   PATT
  .word Label_01023FD4
@  #01 @126   ----------------------------------------
 .byte   PATT
  .word Label_01023FF3
@  #01 @127   ----------------------------------------
 .byte   PATT
  .word Label_01023FFC
@  #01 @128   ----------------------------------------
 .byte   PATT
  .word Label_01024007
@  #01 @129   ----------------------------------------
 .byte   PATT
  .word Label_01024012
@  #01 @130   ----------------------------------------
 .byte   PATT
  .word Label_0102401D
@  #01 @131   ----------------------------------------
 .byte   PATT
  .word Label_01024028
@  #01 @132   ----------------------------------------
 .byte   PATT
  .word Label_01024033
@  #01 @133   ----------------------------------------
 .byte   PATT
  .word Label_0102403E
@  #01 @134   ----------------------------------------
 .byte   PATT
  .word Label_01024046
@  #01 @135   ----------------------------------------
 .byte   PATT
  .word Label_01024051
@  #01 @136   ----------------------------------------
 .byte   PATT
  .word Label_01024060
@  #01 @137   ----------------------------------------
 .byte   PATT
  .word Label_0102406C
@  #01 @138   ----------------------------------------
 .byte   TEMPO , 100*song06_tbs/2
 .byte   W96
@  #01 @139   ----------------------------------------
 .byte   W96
@  #01 @140   ----------------------------------------
 .byte   W96
@  #01 @141   ----------------------------------------
 .byte   W96
@  #01 @142   ----------------------------------------
 .byte   W96
@  #01 @143   ----------------------------------------
 .byte   W96
@  #01 @144   ----------------------------------------
 .byte   W96
@  #01 @145   ----------------------------------------
 .byte   W96
@  #01 @146   ----------------------------------------
 .byte   W96
@  #01 @147   ----------------------------------------
 .byte   W96
@  #01 @148   ----------------------------------------
 .byte   PATT
  .word Label_01023F23
@  #01 @149   ----------------------------------------
 .byte   W96
@  #01 @150   ----------------------------------------
 .byte   W96
@  #01 @151   ----------------------------------------
 .byte   W96
@  #01 @152   ----------------------------------------
 .byte   W96
@  #01 @153   ----------------------------------------
 .byte   W96
@  #01 @154   ----------------------------------------
 .byte   W96
@  #01 @155   ----------------------------------------
 .byte   W96
@  #01 @156   ----------------------------------------
 .byte   PATT
  .word Label_01023F33
@  #01 @157   ----------------------------------------
 .byte   PATT
  .word Label_01023F47
@  #01 @158   ----------------------------------------
 .byte   PATT
  .word Label_01023F67
@  #01 @159   ----------------------------------------
 .byte   PATT
  .word Label_01023F89
@  #01 @160   ----------------------------------------
 .byte   PATT
  .word Label_01023FB0
@  #01 @161   ----------------------------------------
 .byte   PATT
  .word Label_01023FD4
@  #01 @162   ----------------------------------------
 .byte   PATT
  .word Label_01023FF3
@  #01 @163   ----------------------------------------
 .byte   PATT
  .word Label_01023FFC
@  #01 @164   ----------------------------------------
 .byte   PATT
  .word Label_01024007
@  #01 @165   ----------------------------------------
 .byte   PATT
  .word Label_01024012
@  #01 @166   ----------------------------------------
 .byte   PATT
  .word Label_0102401D
@  #01 @167   ----------------------------------------
 .byte   PATT
  .word Label_01024028
@  #01 @168   ----------------------------------------
 .byte   PATT
  .word Label_01024033
@  #01 @169   ----------------------------------------
 .byte   PATT
  .word Label_0102403E
@  #01 @170   ----------------------------------------
 .byte   PATT
  .word Label_01024046
@  #01 @171   ----------------------------------------
 .byte   PATT
  .word Label_01024051
@  #01 @172   ----------------------------------------
 .byte   PATT
  .word Label_01024060
@  #01 @173   ----------------------------------------
 .byte   PATT
  .word Label_0102406C
@  #01 @174   ----------------------------------------
 .byte   TEMPO , 100*song06_tbs/2
 .byte   W96
@  #01 @175   ----------------------------------------
 .byte   W96
@  #01 @176   ----------------------------------------
 .byte   W96
@  #01 @177   ----------------------------------------
 .byte   W96
@  #01 @178   ----------------------------------------
 .byte   W96
@  #01 @179   ----------------------------------------
 .byte   W96
@  #01 @180   ----------------------------------------
 .byte   W96
@  #01 @181   ----------------------------------------
 .byte   W96
@  #01 @182   ----------------------------------------
 .byte   W96
@  #01 @183   ----------------------------------------
 .byte   W96
@  #01 @184   ----------------------------------------
 .byte   PATT
  .word Label_01023F23
@  #01 @185   ----------------------------------------
 .byte   W96
@  #01 @186   ----------------------------------------
 .byte   W96
@  #01 @187   ----------------------------------------
 .byte   W96
@  #01 @188   ----------------------------------------
 .byte   W96
@  #01 @189   ----------------------------------------
 .byte   W96
@  #01 @190   ----------------------------------------
 .byte   W96
@  #01 @191   ----------------------------------------
 .byte   W96
@  #01 @192   ----------------------------------------
 .byte   PATT
  .word Label_01023F33
@  #01 @193   ----------------------------------------
 .byte   PATT
  .word Label_01023F47
@  #01 @194   ----------------------------------------
 .byte   PATT
  .word Label_01023F67
@  #01 @195   ----------------------------------------
 .byte   PATT
  .word Label_01023F89
@  #01 @196   ----------------------------------------
 .byte   PATT
  .word Label_01023FB0
@  #01 @197   ----------------------------------------
 .byte   PATT
  .word Label_01023FD4
@  #01 @198   ----------------------------------------
 .byte   PATT
  .word Label_01023FF3
@  #01 @199   ----------------------------------------
 .byte   PATT
  .word Label_01023FFC
@  #01 @200   ----------------------------------------
 .byte   PATT
  .word Label_01024007
@  #01 @201   ----------------------------------------
 .byte   PATT
  .word Label_01024012
@  #01 @202   ----------------------------------------
 .byte   PATT
  .word Label_0102401D
@  #01 @203   ----------------------------------------
 .byte   PATT
  .word Label_01024028
@  #01 @204   ----------------------------------------
 .byte   PATT
  .word Label_01024033
@  #01 @205   ----------------------------------------
 .byte   PATT
  .word Label_0102403E
@  #01 @206   ----------------------------------------
 .byte   PATT
  .word Label_01024046
@  #01 @207   ----------------------------------------
 .byte   PATT
  .word Label_01024051
@  #01 @208   ----------------------------------------
 .byte   PATT
  .word Label_01024060
@  #01 @209   ----------------------------------------
 .byte   PATT
  .word Label_0102406C
@  #01 @210   ----------------------------------------
 .byte   TEMPO , 100*song06_tbs/2
 .byte   W96
@  #01 @211   ----------------------------------------
 .byte   W96
@  #01 @212   ----------------------------------------
 .byte   W96
@  #01 @213   ----------------------------------------
 .byte   W96
@  #01 @214   ----------------------------------------
 .byte   W96
@  #01 @215   ----------------------------------------
 .byte   W96
@  #01 @216   ----------------------------------------
 .byte   W96
@  #01 @217   ----------------------------------------
 .byte   W96
@  #01 @218   ----------------------------------------
 .byte   W96
@  #01 @219   ----------------------------------------
 .byte   W96
@  #01 @220   ----------------------------------------
 .byte   PATT
  .word Label_01023F23
@  #01 @221   ----------------------------------------
 .byte   W96
@  #01 @222   ----------------------------------------
 .byte   W96
@  #01 @223   ----------------------------------------
 .byte   W96
@  #01 @224   ----------------------------------------
 .byte   W96
@  #01 @225   ----------------------------------------
 .byte   W96
@  #01 @226   ----------------------------------------
 .byte   W96
@  #01 @227   ----------------------------------------
 .byte   W96
@  #01 @228   ----------------------------------------
 .byte   PATT
  .word Label_01023F33
@  #01 @229   ----------------------------------------
 .byte   PATT
  .word Label_01023F47
@  #01 @230   ----------------------------------------
 .byte   PATT
  .word Label_01023F67
@  #01 @231   ----------------------------------------
 .byte   PATT
  .word Label_01023F89
@  #01 @232   ----------------------------------------
 .byte   PATT
  .word Label_01023FB0
@  #01 @233   ----------------------------------------
 .byte   PATT
  .word Label_01023FD4
@  #01 @234   ----------------------------------------
 .byte   PATT
  .word Label_01023FF3
@  #01 @235   ----------------------------------------
 .byte   PATT
  .word Label_01023FFC
@  #01 @236   ----------------------------------------
 .byte   PATT
  .word Label_01024007
@  #01 @237   ----------------------------------------
 .byte   PATT
  .word Label_01024012
@  #01 @238   ----------------------------------------
 .byte   PATT
  .word Label_0102401D
@  #01 @239   ----------------------------------------
 .byte   PATT
  .word Label_01024028
@  #01 @240   ----------------------------------------
 .byte   PATT
  .word Label_01024033
@  #01 @241   ----------------------------------------
 .byte   PATT
  .word Label_0102403E
@  #01 @242   ----------------------------------------
 .byte   PATT
  .word Label_01024046
@  #01 @243   ----------------------------------------
 .byte   PATT
  .word Label_01024051
@  #01 @244   ----------------------------------------
 .byte   PATT
  .word Label_01024060
@  #01 @245   ----------------------------------------
 .byte   PATT
  .word Label_0102406C
@  #01 @246   ----------------------------------------
 .byte   TEMPO , 100*song06_tbs/2
 .byte   W96
@  #01 @247   ----------------------------------------
 .byte   W96
@  #01 @248   ----------------------------------------
 .byte   W96
@  #01 @249   ----------------------------------------
 .byte   W96
@  #01 @250   ----------------------------------------
 .byte   W96
@  #01 @251   ----------------------------------------
 .byte   W96
@  #01 @252   ----------------------------------------
 .byte   W96
@  #01 @253   ----------------------------------------
 .byte   W96
@  #01 @254   ----------------------------------------
 .byte   W96
@  #01 @255   ----------------------------------------
 .byte   W96
@  #01 @256   ----------------------------------------
 .byte   PATT
  .word Label_01023F23
@  #01 @257   ----------------------------------------
 .byte   W96
@  #01 @258   ----------------------------------------
 .byte   W96
@  #01 @259   ----------------------------------------
 .byte   W96
@  #01 @260   ----------------------------------------
 .byte   W96
@  #01 @261   ----------------------------------------
 .byte   W96
@  #01 @262   ----------------------------------------
 .byte   W96
@  #01 @263   ----------------------------------------
 .byte   W96
@  #01 @264   ----------------------------------------
 .byte   PATT
  .word Label_01023F33
@  #01 @265   ----------------------------------------
 .byte   PATT
  .word Label_01023F47
@  #01 @266   ----------------------------------------
 .byte   PATT
  .word Label_01023F67
@  #01 @267   ----------------------------------------
 .byte   PATT
  .word Label_01023F89
@  #01 @268   ----------------------------------------
 .byte   PATT
  .word Label_01023FB0
@  #01 @269   ----------------------------------------
 .byte   PATT
  .word Label_01023FD4
@  #01 @270   ----------------------------------------
 .byte   PATT
  .word Label_01023FF3
@  #01 @271   ----------------------------------------
 .byte   PATT
  .word Label_01023FFC
@  #01 @272   ----------------------------------------
 .byte   PATT
  .word Label_01024007
@  #01 @273   ----------------------------------------
 .byte   PATT
  .word Label_01024012
@  #01 @274   ----------------------------------------
 .byte   PATT
  .word Label_0102401D
@  #01 @275   ----------------------------------------
 .byte   PATT
  .word Label_01024028
@  #01 @276   ----------------------------------------
 .byte   PATT
  .word Label_01024033
@  #01 @277   ----------------------------------------
 .byte   PATT
  .word Label_0102403E
@  #01 @278   ----------------------------------------
 .byte   PATT
  .word Label_01024046
@  #01 @279   ----------------------------------------
 .byte   PATT
  .word Label_01024051
@  #01 @280   ----------------------------------------
 .byte   PATT
  .word Label_01024060
@  #01 @281   ----------------------------------------
 .byte   PATT
  .word Label_0102406C
@  #01 @282   ----------------------------------------
 .byte   TEMPO , 100*song06_tbs/2
 .byte   W96
@  #01 @283   ----------------------------------------
 .byte   W96
@  #01 @284   ----------------------------------------
 .byte   W96
@  #01 @285   ----------------------------------------
 .byte   W96
@  #01 @286   ----------------------------------------
 .byte   W96
@  #01 @287   ----------------------------------------
 .byte   W96
@  #01 @288   ----------------------------------------
 .byte   W96
@  #01 @289   ----------------------------------------
 .byte   W96
@  #01 @290   ----------------------------------------
 .byte   W96
@  #01 @291   ----------------------------------------
 .byte   W96
@  #01 @292   ----------------------------------------
 .byte   PATT
  .word Label_01023F23
@  #01 @293   ----------------------------------------
 .byte   W96
@  #01 @294   ----------------------------------------
 .byte   W96
@  #01 @295   ----------------------------------------
 .byte   W96
@  #01 @296   ----------------------------------------
 .byte   W96
@  #01 @297   ----------------------------------------
 .byte   W96
@  #01 @298   ----------------------------------------
 .byte   W96
@  #01 @299   ----------------------------------------
 .byte   W96
@  #01 @300   ----------------------------------------
 .byte   PATT
  .word Label_01023F33
@  #01 @301   ----------------------------------------
 .byte   PATT
  .word Label_01023F47
@  #01 @302   ----------------------------------------
 .byte   PATT
  .word Label_01023F67
@  #01 @303   ----------------------------------------
 .byte   PATT
  .word Label_01023F89
@  #01 @304   ----------------------------------------
 .byte   PATT
  .word Label_01023FB0
@  #01 @305   ----------------------------------------
 .byte   PATT
  .word Label_01023FD4
@  #01 @306   ----------------------------------------
 .byte   PATT
  .word Label_01023FF3
@  #01 @307   ----------------------------------------
 .byte   PATT
  .word Label_01023FFC
@  #01 @308   ----------------------------------------
 .byte   PATT
  .word Label_01024007
@  #01 @309   ----------------------------------------
 .byte   PATT
  .word Label_01024012
@  #01 @310   ----------------------------------------
 .byte   PATT
  .word Label_0102401D
@  #01 @311   ----------------------------------------
 .byte   PATT
  .word Label_01024028
@  #01 @312   ----------------------------------------
 .byte   PATT
  .word Label_01024033
@  #01 @313   ----------------------------------------
 .byte   PATT
  .word Label_0102403E
@  #01 @314   ----------------------------------------
 .byte   PATT
  .word Label_01024046
@  #01 @315   ----------------------------------------
 .byte   PATT
  .word Label_01024051
@  #01 @316   ----------------------------------------
 .byte   PATT
  .word Label_01024060
@  #01 @317   ----------------------------------------
 .byte   PATT
  .word Label_0102406C
@  #01 @318   ----------------------------------------
 .byte   TEMPO , 100*song06_tbs/2
 .byte   W96
@  #01 @319   ----------------------------------------
 .byte   W96
@  #01 @320   ----------------------------------------
 .byte   W96
@  #01 @321   ----------------------------------------
 .byte   W96
@  #01 @322   ----------------------------------------
 .byte   W96
@  #01 @323   ----------------------------------------
 .byte   W96
@  #01 @324   ----------------------------------------
 .byte   W96
@  #01 @325   ----------------------------------------
 .byte   W96
@  #01 @326   ----------------------------------------
 .byte   W96
@  #01 @327   ----------------------------------------
 .byte   W96
@  #01 @328   ----------------------------------------
 .byte   PATT
  .word Label_01023F23
@  #01 @329   ----------------------------------------
 .byte   W96
@  #01 @330   ----------------------------------------
 .byte   W96
@  #01 @331   ----------------------------------------
 .byte   W96
@  #01 @332   ----------------------------------------
 .byte   W96
@  #01 @333   ----------------------------------------
 .byte   W96
@  #01 @334   ----------------------------------------
 .byte   W96
@  #01 @335   ----------------------------------------
 .byte   W96
@  #01 @336   ----------------------------------------
 .byte   PATT
  .word Label_01023F33
@  #01 @337   ----------------------------------------
 .byte   PATT
  .word Label_01023F47
@  #01 @338   ----------------------------------------
 .byte   PATT
  .word Label_01023F67
@  #01 @339   ----------------------------------------
 .byte   PATT
  .word Label_01023F89
@  #01 @340   ----------------------------------------
 .byte   PATT
  .word Label_01023FB0
@  #01 @341   ----------------------------------------
 .byte   PATT
  .word Label_01023FD4
@  #01 @342   ----------------------------------------
 .byte   PATT
  .word Label_01023FF3
@  #01 @343   ----------------------------------------
 .byte   PATT
  .word Label_01023FFC
@  #01 @344   ----------------------------------------
 .byte   PATT
  .word Label_01024007
@  #01 @345   ----------------------------------------
 .byte   PATT
  .word Label_01024012
@  #01 @346   ----------------------------------------
 .byte   PATT
  .word Label_0102401D
@  #01 @347   ----------------------------------------
 .byte   PATT
  .word Label_01024028
@  #01 @348   ----------------------------------------
 .byte   PATT
  .word Label_01024033
@  #01 @349   ----------------------------------------
 .byte   PATT
  .word Label_0102403E
@  #01 @350   ----------------------------------------
 .byte   PATT
  .word Label_01024046
@  #01 @351   ----------------------------------------
 .byte   PATT
  .word Label_01024051
@  #01 @352   ----------------------------------------
 .byte   PATT
  .word Label_01024060
@  #01 @353   ----------------------------------------
 .byte   PATT
  .word Label_0102406C
@  #01 @354   ----------------------------------------
 .byte   TEMPO , 100*song06_tbs/2
 .byte   W96
@  #01 @355   ----------------------------------------
 .byte   W96
@  #01 @356   ----------------------------------------
 .byte   W96
@  #01 @357   ----------------------------------------
 .byte   W96
@  #01 @358   ----------------------------------------
 .byte   W96
@  #01 @359   ----------------------------------------
 .byte   W96
@  #01 @360   ----------------------------------------
 .byte   W96
@  #01 @361   ----------------------------------------
 .byte   W96
@  #01 @362   ----------------------------------------
 .byte   W96
@  #01 @363   ----------------------------------------
 .byte   W96
@  #01 @364   ----------------------------------------
 .byte   W72
 .byte   TEMPO , 24*song06_tbs/2
 .byte   W23
 .byte   TEMPO , 100*song06_tbs/2
 .byte   FINE

@**************** Track 2 (Midi-Chn.1) ****************@

song06_002:
@  #02 @000   ----------------------------------------
 .byte   KEYSH , song06_key+0
 .byte   VOICE , 19
 .byte   PAN , c_v+5
 .byte   VOL , 57*song06_mvl/mxv
 .byte   N44 ,Dn1 ,v080
 .byte   W06
 .byte   N05 ,Dn3
 .byte   W06
 .byte   Fn3
 .byte   W06
 .byte   An3
 .byte   W06
 .byte   Dn4
 .byte   W06
 .byte   Cs4
 .byte   W06
 .byte   Dn4
 .byte   W06
 .byte   An3
 .byte   W06
 .byte   N44 ,Gn1
 .byte   W06
 .byte   N05 ,Dn3
 .byte   W06
 .byte   An3
 .byte   W06
 .byte   Dn4
 .byte   W06
 .byte   En4
 .byte   W06
 .byte   Dn4
 .byte   W06
 .byte   En4
 .byte   W06
 .byte   An3
 .byte   W06
@  #02 @001   ----------------------------------------
 .byte   N23 ,Fn1
 .byte   W06
 .byte   N05 ,Dn3
 .byte   W06
 .byte   An3
 .byte   W06
 .byte   Dn4
 .byte   W06
 .byte   N11 ,Gn1
 .byte   N05 ,Fn4
 .byte   W06
 .byte   En4
 .byte   W06
 .byte   N11 ,Gs1
 .byte   N05 ,Fn4
 .byte   W06
 .byte   Dn4
 .byte   W06
 .byte   N11 ,An1
 .byte   N05 ,Cs4
 .byte   W06
 .byte   Bn3
 .byte   W06
 .byte   N11 ,Gn1
 .byte   N05 ,Cs4
 .byte   W06
 .byte   An3
 .byte   W06
 .byte   N11 ,Fn1
 .byte   N05 ,Dn4
 .byte   W06
 .byte   An4
 .byte   W06
 .byte   N11 ,Dn1
 .byte   N05 ,As4
 .byte   W06
 .byte   Gn4
 .byte   W06
@  #02 @002   ----------------------------------------
Label_01031689:
 .byte   N23 ,Dn2 ,v080
 .byte   N05 ,Fn4
 .byte   W06
 .byte   An4
 .byte   W06
 .byte   N11 ,Dn5
 .byte   W12
 .byte   N23 ,En1
 .byte   N05 ,Cs5
 .byte   W06
 .byte   An4
 .byte   W06
 .byte   N11 ,Gn4
 .byte   W12
 .byte   N23 ,Dn1
 .byte   N05 ,Fn4
 .byte   W06
 .byte   An4
 .byte   W06
 .byte   N11 ,Fn5
 .byte   W12
 .byte   Gn1
 .byte   N11 ,Dn2
 .byte   N05 ,En5
 .byte   W06
 .byte   Dn5
 .byte   W06
 .byte   N11 ,An1
 .byte   N11 ,En2
 .byte   N02 ,Cs5
 .byte   W03
 .byte   Dn5
 .byte   W03
 .byte   N05 ,En5
 .byte   W06
 .byte   PEND 
@  #02 @003   ----------------------------------------
Label_010316BD:
 .byte   N11 ,An2 ,v080
 .byte   N05 ,Dn5
 .byte   W06
 .byte   Cs5
 .byte   W06
 .byte   N11 ,Gs2
 .byte   N05 ,Dn5
 .byte   W06
 .byte   Cs5
 .byte   W06
 .byte   N11 ,Gn2
 .byte   N05 ,Dn5
 .byte   W06
 .byte   Cs5
 .byte   W06
 .byte   N11 ,Fs2
 .byte   N05 ,Dn5
 .byte   W06
 .byte   Cs5
 .byte   W06
 .byte   N11 ,Fn2
 .byte   N05 ,Dn5
 .byte   W06
 .byte   An4
 .byte   W06
 .byte   N11 ,En2
 .byte   N05 ,Gn4
 .byte   W06
 .byte   Fn4
 .byte   W06
 .byte   N11 ,Dn2
 .byte   N05 ,En4
 .byte   W06
 .byte   Dn4
 .byte   W06
 .byte   N11 ,An1
 .byte   N11 ,An2
 .byte   N05 ,Cs4
 .byte   W06
 .byte   An3
 .byte   W06
 .byte   PEND 
@  #02 @004   ----------------------------------------
Label_010316F9:
 .byte   N23 ,As1 ,v080
 .byte   N23 ,Gn2
 .byte   W06
 .byte   N05 ,As3
 .byte   W06
 .byte   An3
 .byte   W06
 .byte   Gn3
 .byte   W06
 .byte   N23 ,Bn1
 .byte   N23 ,Gs2
 .byte   N05 ,Fn3
 .byte   W06
 .byte   En3
 .byte   W06
 .byte   N02 ,Cs3
 .byte   W03
 .byte   Dn3
 .byte   W03
 .byte   N05 ,Cs3
 .byte   W06
 .byte   N11 ,Dn2
 .byte   N11 ,Fn2
 .byte   N11 ,An2
 .byte   N11 ,Dn3
 .byte   N11 ,Fn3
 .byte   W24
 .byte   En2
 .byte   N11 ,Gn2
 .byte   N11 ,An2
 .byte   N11 ,Cs3
 .byte   N11 ,En3
 .byte   N11 ,Gn3
 .byte   W24
 .byte   PEND 
@  #02 @005   ----------------------------------------
Label_0103172F:
 .byte   N44 ,Dn2 ,v080
 .byte   N44 ,Fn2
 .byte   N44 ,An2
 .byte   N11 ,Dn3
 .byte   W12
 .byte   Fn3
 .byte   W12
 .byte   N02 ,En3
 .byte   W03
 .byte   Fn3
 .byte   W03
 .byte   En3
 .byte   W03
 .byte   Fn3
 .byte   W03
 .byte   N56 ,Dn3
 .byte   W12
 .byte   N11 ,An1
 .byte   W12
 .byte   Fn1
 .byte   W12
 .byte   N23 ,Dn1
 .byte   W24
 .byte   PEND 
@  #02 @006   ----------------------------------------
Label_01031750:
 .byte   N44 ,Fn2 ,v080
 .byte   N11 ,Dn4
 .byte   W12
 .byte   PEND 
Label_01031757:
 .byte   N11 ,An3 ,v080
 .byte   W12
 .byte   Gn3
 .byte   W12
 .byte   Dn3
 .byte   W12
 .byte   N44 ,En2
 .byte   N11 ,Cs4
 .byte   W12
 .byte   An3
 .byte   W12
 .byte   Gn3
 .byte   W12
 .byte   Cs3
 .byte   W12
@  #02 @007   ----------------------------------------
Label_0103176A:
 .byte   N44 ,Ds2 ,v080
 .byte   N11 ,Cn4
 .byte   W12
 .byte   An3
 .byte   W12
 .byte   Gn3
 .byte   W12
 .byte   Cn3
 .byte   W12
 .byte   N44 ,Dn2
 .byte   N11 ,Bn3
 .byte   W12
 .byte   Gn3
 .byte   W12
 .byte   Fn3
 .byte   W12
 .byte   Bn2
 .byte   W12
 .byte   PEND 
@  #02 @008   ----------------------------------------
Label_01031782:
 .byte   N44 ,Cs2 ,v080
 .byte   N11 ,As3
 .byte   W12
 .byte   Gn3
 .byte   W12
 .byte   Fn3
 .byte   W12
 .byte   As2
 .byte   W12
 .byte   N44 ,Cn2
 .byte   N11 ,An3
 .byte   W12
 .byte   Gn3
 .byte   W12
 .byte   Fn3
 .byte   W12
 .byte   An2
 .byte   W12
 .byte   PEND 
@  #02 @009   ----------------------------------------
Label_0103179A:
 .byte   N44 ,Bn1 ,v080
 .byte   N11 ,Gs3
 .byte   W12
 .byte   Fn3
 .byte   W12
 .byte   En3
 .byte   W12
 .byte   Gs2
 .byte   W12
 .byte   N05 ,Cs2
 .byte   N05 ,An2
 .byte   W06
 .byte   Dn2
 .byte   N05 ,Bn2
 .byte   W06
 .byte   En2
 .byte   N05 ,Cs3
 .byte   W06
 .byte   Fn2
 .byte   N05 ,Dn3
 .byte   W06
 .byte   Gn2
 .byte   N05 ,En3
 .byte   W06
 .byte   An2
 .byte   N05 ,Fn3
 .byte   W06
 .byte   Bn2
 .byte   N05 ,Gn3
 .byte   W06
 .byte   Cs3
 .byte   N05 ,An3
 .byte   W06
 .byte   PEND 
@  #02 @010   ----------------------------------------
Label_010317C8:
 .byte   N23 ,Fn2 ,v080
 .byte   N11 ,Dn4
 .byte   W12
 .byte   An3
 .byte   W12
 .byte   Gn2
 .byte   N11 ,Gn3
 .byte   W12
 .byte   N05 ,Fn2
 .byte   N11 ,Dn3
 .byte   N11 ,Dn4
 .byte   W06
 .byte   N02 ,En2
 .byte   W03
 .byte   Fn2
 .byte   W03
 .byte   N23 ,En2
 .byte   N11 ,Cs4
 .byte   W12
 .byte   An3
 .byte   W12
 .byte   Fn2
 .byte   N11 ,Gn3
 .byte   W12
 .byte   Gn2
 .byte   N11 ,Cs3
 .byte   N11 ,Cs4
 .byte   W12
 .byte   PEND 
@  #02 @011   ----------------------------------------
Label_010317F2:
 .byte   N11 ,An2 ,v080
 .byte   N11 ,Cn4
 .byte   W12
 .byte   As2
 .byte   N11 ,An3
 .byte   W12
 .byte   An2
 .byte   N11 ,Gn3
 .byte   W12
 .byte   Fn2
 .byte   N11 ,Fn3
 .byte   N11 ,Cn4
 .byte   W12
 .byte   N44 ,Gn2
 .byte   N11 ,Bn3
 .byte   W12
 .byte   Gn3
 .byte   W12
 .byte   Fn3
 .byte   W12
 .byte   Bn2
 .byte   N11 ,Bn3
 .byte   W12
 .byte   PEND 
@  #02 @012   ----------------------------------------
Label_01031814:
 .byte   N11 ,Gn2 ,v080
 .byte   N11 ,As3
 .byte   W12
 .byte   An2
 .byte   N11 ,Gn3
 .byte   W12
 .byte   Gn2
 .byte   N11 ,Fn3
 .byte   W12
 .byte   En2
 .byte   N11 ,As2
 .byte   N11 ,En3
 .byte   W12
 .byte   Fn2
 .byte   N11 ,An3
 .byte   W12
 .byte   As2
 .byte   N11 ,Gn3
 .byte   W12
 .byte   An2
 .byte   N11 ,Fn3
 .byte   W12
 .byte   Fn2
 .byte   N11 ,An2
 .byte   N11 ,Fn3
 .byte   W12
 .byte   PEND 
@  #02 @013   ----------------------------------------
Label_0103183B:
 .byte   N11 ,Gs2 ,v080
 .byte   N11 ,Gs3
 .byte   W12
 .byte   Fn2
 .byte   N11 ,Fn3
 .byte   W12
 .byte   En2
 .byte   N11 ,En3
 .byte   W12
 .byte   Gs1
 .byte   N11 ,Gs2
 .byte   W12
 .byte   N05 ,Cs2
 .byte   N05 ,An2
 .byte   W06
 .byte   Dn2
 .byte   N05 ,Bn2
 .byte   W06
 .byte   En2
 .byte   N05 ,Cs3
 .byte   W06
 .byte   Fs2
 .byte   N05 ,Dn3
 .byte   W06
 .byte   Gn2
 .byte   N05 ,En3
 .byte   W06
 .byte   An2
 .byte   N05 ,Fs3
 .byte   W06
 .byte   Bn2
 .byte   N05 ,Gn3
 .byte   W06
 .byte   Cs3
 .byte   N05 ,An3
 .byte   W06
 .byte   PEND 
@  #02 @014   ----------------------------------------
Label_0103186F:
 .byte   N23 ,As1 ,v080
 .byte   W06
 .byte   N05 ,Gn3
 .byte   W06
 .byte   As3
 .byte   W06
 .byte   Dn4
 .byte   W06
 .byte   N23 ,Cn2
 .byte   N05 ,Gn4
 .byte   W06
 .byte   Fs4
 .byte   W06
 .byte   Gn4
 .byte   W06
 .byte   Dn4
 .byte   W06
 .byte   N23 ,As1
 .byte   W06
 .byte   N05 ,Gn3
 .byte   W06
 .byte   Dn4
 .byte   W06
 .byte   Gn4
 .byte   W06
 .byte   N23 ,Cn2
 .byte   N05 ,An4
 .byte   W06
 .byte   Gn4
 .byte   W06
 .byte   An4
 .byte   W06
 .byte   Dn4
 .byte   W06
 .byte   PEND 
@  #02 @015   ----------------------------------------
Label_0103189B:
 .byte   N23 ,As1 ,v080
 .byte   W06
 .byte   N05 ,Gn3
 .byte   W06
 .byte   Dn4
 .byte   W06
 .byte   Gn4
 .byte   W06
 .byte   N11 ,Cn2
 .byte   N05 ,As4
 .byte   W06
 .byte   An4
 .byte   W06
 .byte   N11 ,Cs2
 .byte   N05 ,As4
 .byte   W06
 .byte   Gn4
 .byte   W06
 .byte   N11 ,Dn2
 .byte   N05 ,Fs4
 .byte   W06
 .byte   En4
 .byte   W06
 .byte   N11 ,Cn2
 .byte   N05 ,Fs4
 .byte   W06
 .byte   Dn4
 .byte   W06
 .byte   N23 ,As1
 .byte   N05 ,Gn4
 .byte   W06
 .byte   Dn4
 .byte   W06
 .byte   Ds4
 .byte   W06
 .byte   Cn4
 .byte   W06
 .byte   PEND 
@  #02 @016   ----------------------------------------
Label_010318CE:
 .byte   N11 ,Gn1 ,v080
 .byte   N11 ,Gn3
 .byte   W12
 .byte   Cn4
 .byte   W12
 .byte   An1
 .byte   N11 ,Ds4
 .byte   W12
 .byte   An3
 .byte   W12
 .byte   As1
 .byte   N11 ,Gn3
 .byte   W12
 .byte   As3
 .byte   W12
 .byte   An1
 .byte   N11 ,Fs4
 .byte   W12
 .byte   Dn4
 .byte   W12
 .byte   PEND 
@  #02 @017   ----------------------------------------
Label_010318E9:
 .byte   N11 ,Dn2 ,v080
 .byte   N11 ,Dn4
 .byte   W48
 .byte   Dn2
 .byte   N11 ,Dn4
 .byte   W48
 .byte   PEND 
@  #02 @018   ----------------------------------------
Label_010318F4:
 .byte   N11 ,Cn4 ,v080
 .byte   W12
 .byte   As3
 .byte   W12
 .byte   An3
 .byte   W12
 .byte   Fs3
 .byte   W12
 .byte   Gn3
 .byte   N11 ,As3
 .byte   N11 ,Dn4
 .byte   N11 ,Gn4
 .byte   W24
 .byte   Fs3
 .byte   N11 ,An3
 .byte   N11 ,Dn4
 .byte   N11 ,Fs4
 .byte   W24
 .byte   PEND 
@  #02 @019   ----------------------------------------
Label_0103190F:
 .byte   N11 ,Gn3 ,v080
 .byte   N11 ,As3
 .byte   N11 ,Dn4
 .byte   N11 ,Gn4
 .byte   W48
 .byte   PEND 
Label_0103191A:
 .byte   N11 ,Gn3 ,v080
 .byte   N11 ,As3
 .byte   N11 ,Dn4
 .byte   W48
@  #02 @020   ----------------------------------------
 .byte   Gn3
 .byte   N11 ,Cn4
 .byte   N11 ,Ds4
 .byte   W48
 .byte   PEND 
Label_01031929:
 .byte   N11 ,Fn3 ,v080
 .byte   N11 ,An3
 .byte   N11 ,Ds4
 .byte   W48
@  #02 @021   ----------------------------------------
 .byte   Fn3
 .byte   N11 ,An3
 .byte   N11 ,Dn4
 .byte   W48
 .byte   PEND 
Label_01031938:
 .byte   N11 ,Gn3 ,v080
 .byte   N11 ,An3
 .byte   N11 ,Dn4
 .byte   W48
@  #02 @022   ----------------------------------------
 .byte   Gn3
 .byte   N11 ,As3
 .byte   N11 ,Dn4
 .byte   W48
 .byte   PEND 
Label_01031947:
 .byte   N11 ,Gn3 ,v080
 .byte   N11 ,As3
 .byte   N11 ,Dn4
 .byte   W48
@  #02 @023   ----------------------------------------
 .byte   Fs3
 .byte   N11 ,An3
 .byte   N11 ,Dn4
 .byte   W48
 .byte   PEND 
Label_01031956:
 .byte   N44 ,Gn2 ,v080
 .byte   N11 ,Gn3
 .byte   N11 ,As3
 .byte   N11 ,Dn4
 .byte   W12
 .byte   Gn3
 .byte   W12
 .byte   As3
 .byte   W12
 .byte   Dn4
 .byte   W12
@  #02 @024   ----------------------------------------
 .byte   N44 ,Gn2
 .byte   N11 ,Gn3
 .byte   N11 ,As3
 .byte   N11 ,Ds4
 .byte   W12
 .byte   Gn3
 .byte   W12
 .byte   As3
 .byte   W12
 .byte   Cn4
 .byte   W12
 .byte   PEND 
Label_01031976:
 .byte   N44 ,Fn2 ,v080
 .byte   N11 ,Fn3
 .byte   N11 ,An3
 .byte   N11 ,Cn4
 .byte   W12
 .byte   Fn3
 .byte   W12
 .byte   An3
 .byte   W12
 .byte   Cn4
 .byte   W12
@  #02 @025   ----------------------------------------
 .byte   N44 ,As1
 .byte   N11 ,Fn3
 .byte   N11 ,An3
 .byte   N11 ,Dn4
 .byte   W12
 .byte   As3
 .byte   W12
 .byte   An3
 .byte   W12
 .byte   Fn3
 .byte   W12
 .byte   PEND 
Label_01031996:
 .byte   N44 ,As2 ,v080
 .byte   N11 ,Gn3
 .byte   N11 ,As3
 .byte   N11 ,Dn4
 .byte   W12
 .byte   Gn3
 .byte   W12
 .byte   As3
 .byte   W12
 .byte   Dn4
 .byte   W12
@  #02 @026   ----------------------------------------
 .byte   N44 ,Gs2
 .byte   N11 ,Ds3
 .byte   N11 ,Gs3
 .byte   N11 ,Cn4
 .byte   W12
 .byte   N11
 .byte   W12
 .byte   Gs3
 .byte   W12
 .byte   Fn3
 .byte   W12
 .byte   PEND 
Label_010319B6:
 .byte   N44 ,Cs2 ,v080
 .byte   N11 ,En3
 .byte   N11 ,Gn3
 .byte   N11 ,Cs4
 .byte   W12
 .byte   En3
 .byte   W12
 .byte   Gn3
 .byte   W12
 .byte   Cs4
 .byte   W12
@  #02 @027   ----------------------------------------
 .byte   N44 ,An1
 .byte   N11 ,En3
 .byte   N11 ,An3
 .byte   N11 ,Cs4
 .byte   W48
 .byte   PEND 
Label_010319D0:
 .byte   N05 ,An1 ,v080
 .byte   W12
 .byte   Bn1
 .byte   W12
 .byte   Cs2
 .byte   W12
 .byte   En2
 .byte   W12
@  #02 @028   ----------------------------------------
 .byte   N44 ,An1
 .byte   N44 ,An3
 .byte   W48
 .byte   PEND 
 .byte   An1
 .byte   N44 ,An3
 .byte   W96
@  #02 @029   ----------------------------------------
 .byte   An1
 .byte   N44 ,An3
 .byte   W96
@  #02 @030   ----------------------------------------
Label_010319E8:
 .byte   N44 ,Dn1 ,v080
 .byte   W06
 .byte   N05 ,Dn3
 .byte   W06
 .byte   Fn3
 .byte   W06
 .byte   An3
 .byte   W06
 .byte   Dn4
 .byte   W06
 .byte   Cs4
 .byte   W06
 .byte   Dn4
 .byte   W06
 .byte   An3
 .byte   W06
 .byte   N44 ,Dn1
 .byte   W06
 .byte   N05 ,Dn3
 .byte   W06
 .byte   An3
 .byte   W06
 .byte   Dn4
 .byte   W06
 .byte   En4
 .byte   W06
 .byte   Dn4
 .byte   W06
 .byte   En4
 .byte   W06
 .byte   An3
 .byte   W06
 .byte   PEND 
@  #02 @031   ----------------------------------------
Label_01031A0E:
 .byte   N23 ,Dn1 ,v080
 .byte   W06
 .byte   N05 ,Dn3
 .byte   W06
 .byte   An3
 .byte   W06
 .byte   Dn4
 .byte   W06
 .byte   N11 ,Gn1
 .byte   N05 ,Fn4
 .byte   W06
 .byte   En4
 .byte   W06
 .byte   N11 ,Gs1
 .byte   N05 ,Fn4
 .byte   W06
 .byte   Dn4
 .byte   W06
 .byte   N11 ,An1
 .byte   N05 ,Cs4
 .byte   W06
 .byte   Bn3
 .byte   W06
 .byte   N11 ,Gn1
 .byte   N05 ,Cs4
 .byte   W06
 .byte   An3
 .byte   W06
 .byte   N23 ,Fn1
 .byte   N05 ,Dn4
 .byte   W06
 .byte   An4
 .byte   W06
 .byte   As4
 .byte   W06
 .byte   Gn4
 .byte   W06
 .byte   PEND 
@  #02 @032   ----------------------------------------
 .byte   PATT
  .word Label_01031689
@  #02 @033   ----------------------------------------
 .byte   PATT
  .word Label_010316BD
@  #02 @034   ----------------------------------------
Label_01031A4B:
 .byte   N23 ,As1 ,v080
 .byte   N23 ,Gn2
 .byte   W06
 .byte   N05 ,As3
 .byte   W06
 .byte   An3
 .byte   W06
 .byte   Gn3
 .byte   W06
 .byte   N23 ,Bn1
 .byte   N23 ,Gs2
 .byte   N05 ,Fn3
 .byte   W06
 .byte   En3
 .byte   W06
 .byte   N02 ,Cs3
 .byte   W03
 .byte   Dn3
 .byte   W03
 .byte   N05 ,Cs3
 .byte   W06
 .byte   Dn1
 .byte   N05 ,Dn2
 .byte   N23 ,Dn3
 .byte   N23 ,Fn3
 .byte   W06
 .byte   N05 ,Gn1
 .byte   N05 ,Gn2
 .byte   W06
 .byte   Fn1
 .byte   N05 ,Fn2
 .byte   W06
 .byte   En1
 .byte   N05 ,En2
 .byte   W06
 .byte   Dn1
 .byte   N05 ,Cs2
 .byte   N23 ,Cs3
 .byte   N23 ,En3
 .byte   N23 ,Gn3
 .byte   W06
 .byte   N05 ,Cs1
 .byte   N05 ,An1
 .byte   W06
 .byte   Fn1
 .byte   W06
 .byte   An1
 .byte   W06
 .byte   PEND 
@  #02 @035   ----------------------------------------
Label_01031A92:
 .byte   N44 ,As1 ,v080
 .byte   W06
 .byte   N05 ,Dn3
 .byte   W06
 .byte   Fn3
 .byte   W06
 .byte   An3
 .byte   W06
 .byte   Dn4
 .byte   W06
 .byte   Cs4
 .byte   W06
 .byte   Dn4
 .byte   W06
 .byte   An3
 .byte   W06
 .byte   N44 ,Gn2
 .byte   W06
 .byte   N05 ,Dn3
 .byte   W06
 .byte   An3
 .byte   W06
 .byte   Dn4
 .byte   W06
 .byte   En4
 .byte   W06
 .byte   Dn4
 .byte   W06
 .byte   En4
 .byte   W06
 .byte   An3
 .byte   W06
 .byte   PEND 
@  #02 @036   ----------------------------------------
Label_01031AB8:
 .byte   N23 ,Fn2 ,v080
 .byte   W06
 .byte   N05 ,Dn3
 .byte   W06
 .byte   An3
 .byte   W06
 .byte   Dn4
 .byte   W06
 .byte   N11 ,An1
 .byte   N11 ,Gn2
 .byte   N05 ,Fn4
 .byte   W06
 .byte   En4
 .byte   W06
 .byte   N11 ,Bn1
 .byte   N11 ,Gs2
 .byte   N05 ,Fn4
 .byte   W06
 .byte   Dn4
 .byte   W06
 .byte   N11 ,Cs2
 .byte   N11 ,An2
 .byte   N05 ,Cs4
 .byte   W06
 .byte   Bn3
 .byte   W06
 .byte   N11 ,An1
 .byte   N11 ,Gn2
 .byte   N05 ,Cs4
 .byte   W06
 .byte   An3
 .byte   W06
 .byte   N11 ,Fn1
 .byte   N11 ,Fn2
 .byte   N05 ,Dn4
 .byte   W06
 .byte   An4
 .byte   W06
 .byte   N11 ,Dn1
 .byte   N05 ,As4
 .byte   W06
 .byte   Gn4
 .byte   W06
 .byte   PEND 
@  #02 @037   ----------------------------------------
 .byte   PATT
  .word Label_01031689
@  #02 @038   ----------------------------------------
 .byte   PATT
  .word Label_010316BD
@  #02 @039   ----------------------------------------
 .byte   PATT
  .word Label_010316F9
@  #02 @040   ----------------------------------------
 .byte   PATT
  .word Label_0103172F
@  #02 @041   ----------------------------------------
 .byte   PATT
  .word Label_01031750
@  #02 @042   ----------------------------------------
 .byte   GOTO
  .word Label_01031757
@  #02 @043   ----------------------------------------
 .byte   N11 ,An3 ,v080
 .byte   W12
 .byte   Gn3
 .byte   W12
 .byte   Dn3
 .byte   W12
 .byte   N44 ,En2
 .byte   N11 ,Cs4
 .byte   W12
 .byte   An3
 .byte   W12
 .byte   Gn3
 .byte   W12
 .byte   Cs3
 .byte   W12
@  #02 @044   ----------------------------------------
 .byte   PATT
  .word Label_0103176A
@  #02 @045   ----------------------------------------
 .byte   PATT
  .word Label_01031782
@  #02 @046   ----------------------------------------
 .byte   PATT
  .word Label_0103179A
@  #02 @047   ----------------------------------------
 .byte   PATT
  .word Label_010317C8
@  #02 @048   ----------------------------------------
 .byte   PATT
  .word Label_010317F2
@  #02 @049   ----------------------------------------
 .byte   PATT
  .word Label_01031814
@  #02 @050   ----------------------------------------
 .byte   PATT
  .word Label_0103183B
@  #02 @051   ----------------------------------------
 .byte   PATT
  .word Label_0103186F
@  #02 @052   ----------------------------------------
 .byte   PATT
  .word Label_0103189B
@  #02 @053   ----------------------------------------
 .byte   PATT
  .word Label_010318CE
@  #02 @054   ----------------------------------------
 .byte   PATT
  .word Label_010318E9
@  #02 @055   ----------------------------------------
 .byte   PATT
  .word Label_010318F4
@  #02 @056   ----------------------------------------
 .byte   PATT
  .word Label_0103190F
@  #02 @057   ----------------------------------------
 .byte   PATT
  .word Label_0103191A
@  #02 @058   ----------------------------------------
 .byte   PATT
  .word Label_01031929
@  #02 @059   ----------------------------------------
 .byte   PATT
  .word Label_01031938
@  #02 @060   ----------------------------------------
 .byte   PATT
  .word Label_01031947
@  #02 @061   ----------------------------------------
 .byte   PATT
  .word Label_01031956
@  #02 @062   ----------------------------------------
 .byte   PATT
  .word Label_01031976
@  #02 @063   ----------------------------------------
 .byte   PATT
  .word Label_01031996
@  #02 @064   ----------------------------------------
 .byte   PATT
  .word Label_010319B6
@  #02 @065   ----------------------------------------
 .byte   PATT
  .word Label_010319D0
@  #02 @066   ----------------------------------------
 .byte   N44 ,An1 ,v080
 .byte   N44 ,An3
 .byte   W96
@  #02 @067   ----------------------------------------
 .byte   An1
 .byte   N44 ,An3
 .byte   W96
@  #02 @068   ----------------------------------------
 .byte   PATT
  .word Label_010319E8
@  #02 @069   ----------------------------------------
 .byte   PATT
  .word Label_01031A0E
@  #02 @070   ----------------------------------------
 .byte   PATT
  .word Label_01031689
@  #02 @071   ----------------------------------------
 .byte   PATT
  .word Label_010316BD
@  #02 @072   ----------------------------------------
 .byte   PATT
  .word Label_01031A4B
@  #02 @073   ----------------------------------------
 .byte   PATT
  .word Label_01031A92
@  #02 @074   ----------------------------------------
 .byte   PATT
  .word Label_01031AB8
@  #02 @075   ----------------------------------------
 .byte   PATT
  .word Label_01031689
@  #02 @076   ----------------------------------------
 .byte   PATT
  .word Label_010316BD
@  #02 @077   ----------------------------------------
 .byte   PATT
  .word Label_010316F9
@  #02 @078   ----------------------------------------
 .byte   PATT
  .word Label_0103172F
@  #02 @079   ----------------------------------------
Label_01031BD8:
 .byte   N44 ,Fn2 ,v080
 .byte   N11 ,Dn4
 .byte   W12
 .byte   An3
 .byte   W12
 .byte   Gn3
 .byte   W12
 .byte   Dn3
 .byte   W12
 .byte   N44 ,En2
 .byte   N11 ,Cs4
 .byte   W12
 .byte   An3
 .byte   W12
 .byte   Gn3
 .byte   W12
 .byte   Cs3
 .byte   W12
 .byte   PEND 
@  #02 @080   ----------------------------------------
 .byte   PATT
  .word Label_0103176A
@  #02 @081   ----------------------------------------
 .byte   PATT
  .word Label_01031782
@  #02 @082   ----------------------------------------
 .byte   PATT
  .word Label_0103179A
@  #02 @083   ----------------------------------------
 .byte   PATT
  .word Label_010317C8
@  #02 @084   ----------------------------------------
 .byte   PATT
  .word Label_010317F2
@  #02 @085   ----------------------------------------
 .byte   PATT
  .word Label_01031814
@  #02 @086   ----------------------------------------
 .byte   PATT
  .word Label_0103183B
@  #02 @087   ----------------------------------------
 .byte   PATT
  .word Label_0103186F
@  #02 @088   ----------------------------------------
 .byte   PATT
  .word Label_0103189B
@  #02 @089   ----------------------------------------
 .byte   PATT
  .word Label_010318CE
@  #02 @090   ----------------------------------------
 .byte   PATT
  .word Label_010318E9
@  #02 @091   ----------------------------------------
 .byte   PATT
  .word Label_010318F4
@  #02 @092   ----------------------------------------
 .byte   PATT
  .word Label_0103190F
@  #02 @093   ----------------------------------------
 .byte   PATT
  .word Label_0103191A
@  #02 @094   ----------------------------------------
 .byte   PATT
  .word Label_01031929
@  #02 @095   ----------------------------------------
 .byte   PATT
  .word Label_01031938
@  #02 @096   ----------------------------------------
 .byte   PATT
  .word Label_01031947
@  #02 @097   ----------------------------------------
 .byte   PATT
  .word Label_01031956
@  #02 @098   ----------------------------------------
 .byte   PATT
  .word Label_01031976
@  #02 @099   ----------------------------------------
 .byte   PATT
  .word Label_01031996
@  #02 @100   ----------------------------------------
 .byte   PATT
  .word Label_010319B6
@  #02 @101   ----------------------------------------
 .byte   PATT
  .word Label_010319D0
@  #02 @102   ----------------------------------------
 .byte   N44 ,An1 ,v080
 .byte   N44 ,An3
 .byte   W96
@  #02 @103   ----------------------------------------
 .byte   An1
 .byte   N44 ,An3
 .byte   W96
@  #02 @104   ----------------------------------------
 .byte   PATT
  .word Label_010319E8
@  #02 @105   ----------------------------------------
 .byte   PATT
  .word Label_01031A0E
@  #02 @106   ----------------------------------------
 .byte   PATT
  .word Label_01031689
@  #02 @107   ----------------------------------------
 .byte   PATT
  .word Label_010316BD
@  #02 @108   ----------------------------------------
 .byte   PATT
  .word Label_01031A4B
@  #02 @109   ----------------------------------------
 .byte   PATT
  .word Label_01031A92
@  #02 @110   ----------------------------------------
 .byte   PATT
  .word Label_01031AB8
@  #02 @111   ----------------------------------------
 .byte   PATT
  .word Label_01031689
@  #02 @112   ----------------------------------------
 .byte   PATT
  .word Label_010316BD
@  #02 @113   ----------------------------------------
 .byte   PATT
  .word Label_010316F9
@  #02 @114   ----------------------------------------
 .byte   PATT
  .word Label_0103172F
@  #02 @115   ----------------------------------------
 .byte   PATT
  .word Label_01031BD8
@  #02 @116   ----------------------------------------
 .byte   PATT
  .word Label_0103176A
@  #02 @117   ----------------------------------------
 .byte   PATT
  .word Label_01031782
@  #02 @118   ----------------------------------------
 .byte   PATT
  .word Label_0103179A
@  #02 @119   ----------------------------------------
 .byte   PATT
  .word Label_010317C8
@  #02 @120   ----------------------------------------
 .byte   PATT
  .word Label_010317F2
@  #02 @121   ----------------------------------------
 .byte   PATT
  .word Label_01031814
@  #02 @122   ----------------------------------------
 .byte   PATT
  .word Label_0103183B
@  #02 @123   ----------------------------------------
 .byte   PATT
  .word Label_0103186F
@  #02 @124   ----------------------------------------
 .byte   PATT
  .word Label_0103189B
@  #02 @125   ----------------------------------------
 .byte   PATT
  .word Label_010318CE
@  #02 @126   ----------------------------------------
 .byte   PATT
  .word Label_010318E9
@  #02 @127   ----------------------------------------
 .byte   PATT
  .word Label_010318F4
@  #02 @128   ----------------------------------------
 .byte   PATT
  .word Label_0103190F
@  #02 @129   ----------------------------------------
 .byte   PATT
  .word Label_0103191A
@  #02 @130   ----------------------------------------
 .byte   PATT
  .word Label_01031929
@  #02 @131   ----------------------------------------
 .byte   PATT
  .word Label_01031938
@  #02 @132   ----------------------------------------
 .byte   PATT
  .word Label_01031947
@  #02 @133   ----------------------------------------
 .byte   PATT
  .word Label_01031956
@  #02 @134   ----------------------------------------
 .byte   PATT
  .word Label_01031976
@  #02 @135   ----------------------------------------
 .byte   PATT
  .word Label_01031996
@  #02 @136   ----------------------------------------
 .byte   PATT
  .word Label_010319B6
@  #02 @137   ----------------------------------------
 .byte   PATT
  .word Label_010319D0
@  #02 @138   ----------------------------------------
 .byte   N44 ,An1 ,v080
 .byte   N44 ,An3
 .byte   W96
@  #02 @139   ----------------------------------------
 .byte   An1
 .byte   N44 ,An3
 .byte   W96
@  #02 @140   ----------------------------------------
 .byte   PATT
  .word Label_010319E8
@  #02 @141   ----------------------------------------
 .byte   PATT
  .word Label_01031A0E
@  #02 @142   ----------------------------------------
 .byte   PATT
  .word Label_01031689
@  #02 @143   ----------------------------------------
 .byte   PATT
  .word Label_010316BD
@  #02 @144   ----------------------------------------
 .byte   PATT
  .word Label_01031A4B
@  #02 @145   ----------------------------------------
 .byte   PATT
  .word Label_01031A92
@  #02 @146   ----------------------------------------
 .byte   PATT
  .word Label_01031AB8
@  #02 @147   ----------------------------------------
 .byte   PATT
  .word Label_01031689
@  #02 @148   ----------------------------------------
 .byte   PATT
  .word Label_010316BD
@  #02 @149   ----------------------------------------
 .byte   PATT
  .word Label_010316F9
@  #02 @150   ----------------------------------------
 .byte   PATT
  .word Label_0103172F
@  #02 @151   ----------------------------------------
 .byte   PATT
  .word Label_01031BD8
@  #02 @152   ----------------------------------------
 .byte   PATT
  .word Label_0103176A
@  #02 @153   ----------------------------------------
 .byte   PATT
  .word Label_01031782
@  #02 @154   ----------------------------------------
 .byte   PATT
  .word Label_0103179A
@  #02 @155   ----------------------------------------
 .byte   PATT
  .word Label_010317C8
@  #02 @156   ----------------------------------------
 .byte   PATT
  .word Label_010317F2
@  #02 @157   ----------------------------------------
 .byte   PATT
  .word Label_01031814
@  #02 @158   ----------------------------------------
 .byte   PATT
  .word Label_0103183B
@  #02 @159   ----------------------------------------
 .byte   PATT
  .word Label_0103186F
@  #02 @160   ----------------------------------------
 .byte   PATT
  .word Label_0103189B
@  #02 @161   ----------------------------------------
 .byte   PATT
  .word Label_010318CE
@  #02 @162   ----------------------------------------
 .byte   PATT
  .word Label_010318E9
@  #02 @163   ----------------------------------------
 .byte   PATT
  .word Label_010318F4
@  #02 @164   ----------------------------------------
 .byte   PATT
  .word Label_0103190F
@  #02 @165   ----------------------------------------
 .byte   PATT
  .word Label_0103191A
@  #02 @166   ----------------------------------------
 .byte   PATT
  .word Label_01031929
@  #02 @167   ----------------------------------------
 .byte   PATT
  .word Label_01031938
@  #02 @168   ----------------------------------------
 .byte   PATT
  .word Label_01031947
@  #02 @169   ----------------------------------------
 .byte   PATT
  .word Label_01031956
@  #02 @170   ----------------------------------------
 .byte   PATT
  .word Label_01031976
@  #02 @171   ----------------------------------------
 .byte   PATT
  .word Label_01031996
@  #02 @172   ----------------------------------------
 .byte   PATT
  .word Label_010319B6
@  #02 @173   ----------------------------------------
 .byte   PATT
  .word Label_010319D0
@  #02 @174   ----------------------------------------
 .byte   N44 ,An1 ,v080
 .byte   N44 ,An3
 .byte   W96
@  #02 @175   ----------------------------------------
 .byte   An1
 .byte   N44 ,An3
 .byte   W96
@  #02 @176   ----------------------------------------
 .byte   PATT
  .word Label_010319E8
@  #02 @177   ----------------------------------------
 .byte   PATT
  .word Label_01031A0E
@  #02 @178   ----------------------------------------
 .byte   PATT
  .word Label_01031689
@  #02 @179   ----------------------------------------
 .byte   PATT
  .word Label_010316BD
@  #02 @180   ----------------------------------------
 .byte   PATT
  .word Label_01031A4B
@  #02 @181   ----------------------------------------
 .byte   PATT
  .word Label_01031A92
@  #02 @182   ----------------------------------------
 .byte   PATT
  .word Label_01031AB8
@  #02 @183   ----------------------------------------
 .byte   PATT
  .word Label_01031689
@  #02 @184   ----------------------------------------
 .byte   PATT
  .word Label_010316BD
@  #02 @185   ----------------------------------------
 .byte   PATT
  .word Label_010316F9
@  #02 @186   ----------------------------------------
 .byte   PATT
  .word Label_0103172F
@  #02 @187   ----------------------------------------
 .byte   PATT
  .word Label_01031BD8
@  #02 @188   ----------------------------------------
 .byte   PATT
  .word Label_0103176A
@  #02 @189   ----------------------------------------
 .byte   PATT
  .word Label_01031782
@  #02 @190   ----------------------------------------
 .byte   PATT
  .word Label_0103179A
@  #02 @191   ----------------------------------------
 .byte   PATT
  .word Label_010317C8
@  #02 @192   ----------------------------------------
 .byte   PATT
  .word Label_010317F2
@  #02 @193   ----------------------------------------
 .byte   PATT
  .word Label_01031814
@  #02 @194   ----------------------------------------
 .byte   PATT
  .word Label_0103183B
@  #02 @195   ----------------------------------------
 .byte   PATT
  .word Label_0103186F
@  #02 @196   ----------------------------------------
 .byte   PATT
  .word Label_0103189B
@  #02 @197   ----------------------------------------
 .byte   PATT
  .word Label_010318CE
@  #02 @198   ----------------------------------------
 .byte   PATT
  .word Label_010318E9
@  #02 @199   ----------------------------------------
 .byte   PATT
  .word Label_010318F4
@  #02 @200   ----------------------------------------
 .byte   PATT
  .word Label_0103190F
@  #02 @201   ----------------------------------------
 .byte   PATT
  .word Label_0103191A
@  #02 @202   ----------------------------------------
 .byte   PATT
  .word Label_01031929
@  #02 @203   ----------------------------------------
 .byte   PATT
  .word Label_01031938
@  #02 @204   ----------------------------------------
 .byte   PATT
  .word Label_01031947
@  #02 @205   ----------------------------------------
 .byte   PATT
  .word Label_01031956
@  #02 @206   ----------------------------------------
 .byte   PATT
  .word Label_01031976
@  #02 @207   ----------------------------------------
 .byte   PATT
  .word Label_01031996
@  #02 @208   ----------------------------------------
 .byte   PATT
  .word Label_010319B6
@  #02 @209   ----------------------------------------
 .byte   PATT
  .word Label_010319D0
@  #02 @210   ----------------------------------------
 .byte   N44 ,An1 ,v080
 .byte   N44 ,An3
 .byte   W96
@  #02 @211   ----------------------------------------
 .byte   An1
 .byte   N44 ,An3
 .byte   W96
@  #02 @212   ----------------------------------------
 .byte   PATT
  .word Label_010319E8
@  #02 @213   ----------------------------------------
 .byte   PATT
  .word Label_01031A0E
@  #02 @214   ----------------------------------------
 .byte   PATT
  .word Label_01031689
@  #02 @215   ----------------------------------------
 .byte   PATT
  .word Label_010316BD
@  #02 @216   ----------------------------------------
 .byte   PATT
  .word Label_01031A4B
@  #02 @217   ----------------------------------------
 .byte   PATT
  .word Label_01031A92
@  #02 @218   ----------------------------------------
 .byte   PATT
  .word Label_01031AB8
@  #02 @219   ----------------------------------------
 .byte   PATT
  .word Label_01031689
@  #02 @220   ----------------------------------------
 .byte   PATT
  .word Label_010316BD
@  #02 @221   ----------------------------------------
 .byte   PATT
  .word Label_010316F9
@  #02 @222   ----------------------------------------
 .byte   PATT
  .word Label_0103172F
@  #02 @223   ----------------------------------------
 .byte   PATT
  .word Label_01031BD8
@  #02 @224   ----------------------------------------
 .byte   PATT
  .word Label_0103176A
@  #02 @225   ----------------------------------------
 .byte   PATT
  .word Label_01031782
@  #02 @226   ----------------------------------------
 .byte   PATT
  .word Label_0103179A
@  #02 @227   ----------------------------------------
 .byte   PATT
  .word Label_010317C8
@  #02 @228   ----------------------------------------
 .byte   PATT
  .word Label_010317F2
@  #02 @229   ----------------------------------------
 .byte   PATT
  .word Label_01031814
@  #02 @230   ----------------------------------------
 .byte   PATT
  .word Label_0103183B
@  #02 @231   ----------------------------------------
 .byte   PATT
  .word Label_0103186F
@  #02 @232   ----------------------------------------
 .byte   PATT
  .word Label_0103189B
@  #02 @233   ----------------------------------------
 .byte   PATT
  .word Label_010318CE
@  #02 @234   ----------------------------------------
 .byte   PATT
  .word Label_010318E9
@  #02 @235   ----------------------------------------
 .byte   PATT
  .word Label_010318F4
@  #02 @236   ----------------------------------------
 .byte   PATT
  .word Label_0103190F
@  #02 @237   ----------------------------------------
 .byte   PATT
  .word Label_0103191A
@  #02 @238   ----------------------------------------
 .byte   PATT
  .word Label_01031929
@  #02 @239   ----------------------------------------
 .byte   PATT
  .word Label_01031938
@  #02 @240   ----------------------------------------
 .byte   PATT
  .word Label_01031947
@  #02 @241   ----------------------------------------
 .byte   PATT
  .word Label_01031956
@  #02 @242   ----------------------------------------
 .byte   PATT
  .word Label_01031976
@  #02 @243   ----------------------------------------
 .byte   PATT
  .word Label_01031996
@  #02 @244   ----------------------------------------
 .byte   PATT
  .word Label_010319B6
@  #02 @245   ----------------------------------------
 .byte   PATT
  .word Label_010319D0
@  #02 @246   ----------------------------------------
 .byte   N44 ,An1 ,v080
 .byte   N44 ,An3
 .byte   W96
@  #02 @247   ----------------------------------------
 .byte   An1
 .byte   N44 ,An3
 .byte   W96
@  #02 @248   ----------------------------------------
 .byte   PATT
  .word Label_010319E8
@  #02 @249   ----------------------------------------
 .byte   PATT
  .word Label_01031A0E
@  #02 @250   ----------------------------------------
 .byte   PATT
  .word Label_01031689
@  #02 @251   ----------------------------------------
 .byte   PATT
  .word Label_010316BD
@  #02 @252   ----------------------------------------
 .byte   PATT
  .word Label_01031A4B
@  #02 @253   ----------------------------------------
 .byte   PATT
  .word Label_01031A92
@  #02 @254   ----------------------------------------
 .byte   PATT
  .word Label_01031AB8
@  #02 @255   ----------------------------------------
 .byte   PATT
  .word Label_01031689
@  #02 @256   ----------------------------------------
 .byte   PATT
  .word Label_010316BD
@  #02 @257   ----------------------------------------
 .byte   PATT
  .word Label_010316F9
@  #02 @258   ----------------------------------------
 .byte   PATT
  .word Label_0103172F
@  #02 @259   ----------------------------------------
 .byte   PATT
  .word Label_01031BD8
@  #02 @260   ----------------------------------------
 .byte   PATT
  .word Label_0103176A
@  #02 @261   ----------------------------------------
 .byte   PATT
  .word Label_01031782
@  #02 @262   ----------------------------------------
 .byte   PATT
  .word Label_0103179A
@  #02 @263   ----------------------------------------
 .byte   PATT
  .word Label_010317C8
@  #02 @264   ----------------------------------------
 .byte   PATT
  .word Label_010317F2
@  #02 @265   ----------------------------------------
 .byte   PATT
  .word Label_01031814
@  #02 @266   ----------------------------------------
 .byte   PATT
  .word Label_0103183B
@  #02 @267   ----------------------------------------
 .byte   PATT
  .word Label_0103186F
@  #02 @268   ----------------------------------------
 .byte   PATT
  .word Label_0103189B
@  #02 @269   ----------------------------------------
 .byte   PATT
  .word Label_010318CE
@  #02 @270   ----------------------------------------
 .byte   PATT
  .word Label_010318E9
@  #02 @271   ----------------------------------------
 .byte   PATT
  .word Label_010318F4
@  #02 @272   ----------------------------------------
 .byte   PATT
  .word Label_0103190F
@  #02 @273   ----------------------------------------
 .byte   PATT
  .word Label_0103191A
@  #02 @274   ----------------------------------------
 .byte   PATT
  .word Label_01031929
@  #02 @275   ----------------------------------------
 .byte   PATT
  .word Label_01031938
@  #02 @276   ----------------------------------------
 .byte   PATT
  .word Label_01031947
@  #02 @277   ----------------------------------------
 .byte   PATT
  .word Label_01031956
@  #02 @278   ----------------------------------------
 .byte   PATT
  .word Label_01031976
@  #02 @279   ----------------------------------------
 .byte   PATT
  .word Label_01031996
@  #02 @280   ----------------------------------------
 .byte   PATT
  .word Label_010319B6
@  #02 @281   ----------------------------------------
 .byte   PATT
  .word Label_010319D0
@  #02 @282   ----------------------------------------
 .byte   N44 ,An1 ,v080
 .byte   N44 ,An3
 .byte   W96
@  #02 @283   ----------------------------------------
 .byte   An1
 .byte   N44 ,An3
 .byte   W96
@  #02 @284   ----------------------------------------
 .byte   PATT
  .word Label_010319E8
@  #02 @285   ----------------------------------------
 .byte   PATT
  .word Label_01031A0E
@  #02 @286   ----------------------------------------
 .byte   PATT
  .word Label_01031689
@  #02 @287   ----------------------------------------
 .byte   PATT
  .word Label_010316BD
@  #02 @288   ----------------------------------------
 .byte   PATT
  .word Label_01031A4B
@  #02 @289   ----------------------------------------
 .byte   PATT
  .word Label_01031A92
@  #02 @290   ----------------------------------------
 .byte   PATT
  .word Label_01031AB8
@  #02 @291   ----------------------------------------
 .byte   PATT
  .word Label_01031689
@  #02 @292   ----------------------------------------
 .byte   PATT
  .word Label_010316BD
@  #02 @293   ----------------------------------------
 .byte   PATT
  .word Label_010316F9
@  #02 @294   ----------------------------------------
 .byte   PATT
  .word Label_0103172F
@  #02 @295   ----------------------------------------
 .byte   PATT
  .word Label_01031BD8
@  #02 @296   ----------------------------------------
 .byte   PATT
  .word Label_0103176A
@  #02 @297   ----------------------------------------
 .byte   PATT
  .word Label_01031782
@  #02 @298   ----------------------------------------
 .byte   PATT
  .word Label_0103179A
@  #02 @299   ----------------------------------------
 .byte   PATT
  .word Label_010317C8
@  #02 @300   ----------------------------------------
 .byte   PATT
  .word Label_010317F2
@  #02 @301   ----------------------------------------
 .byte   PATT
  .word Label_01031814
@  #02 @302   ----------------------------------------
 .byte   PATT
  .word Label_0103183B
@  #02 @303   ----------------------------------------
 .byte   PATT
  .word Label_0103186F
@  #02 @304   ----------------------------------------
 .byte   PATT
  .word Label_0103189B
@  #02 @305   ----------------------------------------
 .byte   PATT
  .word Label_010318CE
@  #02 @306   ----------------------------------------
 .byte   PATT
  .word Label_010318E9
@  #02 @307   ----------------------------------------
 .byte   PATT
  .word Label_010318F4
@  #02 @308   ----------------------------------------
 .byte   PATT
  .word Label_0103190F
@  #02 @309   ----------------------------------------
 .byte   PATT
  .word Label_0103191A
@  #02 @310   ----------------------------------------
 .byte   PATT
  .word Label_01031929
@  #02 @311   ----------------------------------------
 .byte   PATT
  .word Label_01031938
@  #02 @312   ----------------------------------------
 .byte   PATT
  .word Label_01031947
@  #02 @313   ----------------------------------------
 .byte   PATT
  .word Label_01031956
@  #02 @314   ----------------------------------------
 .byte   PATT
  .word Label_01031976
@  #02 @315   ----------------------------------------
 .byte   PATT
  .word Label_01031996
@  #02 @316   ----------------------------------------
 .byte   PATT
  .word Label_010319B6
@  #02 @317   ----------------------------------------
 .byte   PATT
  .word Label_010319D0
@  #02 @318   ----------------------------------------
 .byte   N44 ,An1 ,v080
 .byte   N44 ,An3
 .byte   W96
@  #02 @319   ----------------------------------------
 .byte   An1
 .byte   N44 ,An3
 .byte   W96
@  #02 @320   ----------------------------------------
 .byte   PATT
  .word Label_010319E8
@  #02 @321   ----------------------------------------
 .byte   PATT
  .word Label_01031A0E
@  #02 @322   ----------------------------------------
 .byte   PATT
  .word Label_01031689
@  #02 @323   ----------------------------------------
 .byte   PATT
  .word Label_010316BD
@  #02 @324   ----------------------------------------
 .byte   PATT
  .word Label_01031A4B
@  #02 @325   ----------------------------------------
 .byte   PATT
  .word Label_01031A92
@  #02 @326   ----------------------------------------
 .byte   PATT
  .word Label_01031AB8
@  #02 @327   ----------------------------------------
 .byte   PATT
  .word Label_01031689
@  #02 @328   ----------------------------------------
 .byte   PATT
  .word Label_010316BD
@  #02 @329   ----------------------------------------
 .byte   PATT
  .word Label_010316F9
@  #02 @330   ----------------------------------------
 .byte   PATT
  .word Label_0103172F
@  #02 @331   ----------------------------------------
 .byte   PATT
  .word Label_01031BD8
@  #02 @332   ----------------------------------------
 .byte   PATT
  .word Label_0103176A
@  #02 @333   ----------------------------------------
 .byte   PATT
  .word Label_01031782
@  #02 @334   ----------------------------------------
 .byte   PATT
  .word Label_0103179A
@  #02 @335   ----------------------------------------
 .byte   PATT
  .word Label_010317C8
@  #02 @336   ----------------------------------------
 .byte   PATT
  .word Label_010317F2
@  #02 @337   ----------------------------------------
 .byte   PATT
  .word Label_01031814
@  #02 @338   ----------------------------------------
 .byte   PATT
  .word Label_0103183B
@  #02 @339   ----------------------------------------
 .byte   PATT
  .word Label_0103186F
@  #02 @340   ----------------------------------------
 .byte   PATT
  .word Label_0103189B
@  #02 @341   ----------------------------------------
 .byte   PATT
  .word Label_010318CE
@  #02 @342   ----------------------------------------
 .byte   PATT
  .word Label_010318E9
@  #02 @343   ----------------------------------------
 .byte   PATT
  .word Label_010318F4
@  #02 @344   ----------------------------------------
 .byte   PATT
  .word Label_0103190F
@  #02 @345   ----------------------------------------
 .byte   PATT
  .word Label_0103191A
@  #02 @346   ----------------------------------------
 .byte   PATT
  .word Label_01031929
@  #02 @347   ----------------------------------------
 .byte   PATT
  .word Label_01031938
@  #02 @348   ----------------------------------------
 .byte   PATT
  .word Label_01031947
@  #02 @349   ----------------------------------------
 .byte   PATT
  .word Label_01031956
@  #02 @350   ----------------------------------------
 .byte   PATT
  .word Label_01031976
@  #02 @351   ----------------------------------------
 .byte   PATT
  .word Label_01031996
@  #02 @352   ----------------------------------------
 .byte   PATT
  .word Label_010319B6
@  #02 @353   ----------------------------------------
 .byte   PATT
  .word Label_010319D0
@  #02 @354   ----------------------------------------
 .byte   N44 ,An1 ,v080
 .byte   N44 ,An3
 .byte   W96
@  #02 @355   ----------------------------------------
 .byte   An1
 .byte   N44 ,An3
 .byte   W96
@  #02 @356   ----------------------------------------
 .byte   PATT
  .word Label_010319E8
@  #02 @357   ----------------------------------------
 .byte   PATT
  .word Label_01031A0E
@  #02 @358   ----------------------------------------
 .byte   PATT
  .word Label_01031689
@  #02 @359   ----------------------------------------
 .byte   PATT
  .word Label_010316BD
@  #02 @360   ----------------------------------------
 .byte   PATT
  .word Label_01031A4B
@  #02 @361   ----------------------------------------
 .byte   PATT
  .word Label_01031A92
@  #02 @362   ----------------------------------------
 .byte   PATT
  .word Label_01031AB8
@  #02 @363   ----------------------------------------
 .byte   PATT
  .word Label_01031689
@  #02 @364   ----------------------------------------
 .byte   PATT
  .word Label_010316BD
@  #02 @365   ----------------------------------------
 .byte   PATT
  .word Label_010316F9
@  #02 @366   ----------------------------------------
 .byte   N44 ,Dn2 ,v080
 .byte   N44 ,Fn2
 .byte   N44 ,An2
 .byte   N11 ,Dn3
 .byte   W12
 .byte   Fn3
 .byte   W12
 .byte   N02 ,En3
 .byte   W03
 .byte   Fn3
 .byte   W03
 .byte   En3
 .byte   W03
 .byte   Fn3
 .byte   W03
 .byte   N56 ,Dn3
 .byte   W12
 .byte   N11 ,An1
 .byte   W12
 .byte   Fn1
 .byte   W12
 .byte   N23 ,Dn1
 .byte   W23
 .byte   FINE

@**************** Track 3 (Midi-Chn.2) ****************@

song06_003:
@  #03 @000   ----------------------------------------
 .byte   KEYSH , song06_key+0
 .byte   VOICE , 49
 .byte   VOL , 57*song06_mvl/mxv
 .byte   PAN , c_v+10
 .byte   W96
@  #03 @001   ----------------------------------------
 .byte   W96
@  #03 @002   ----------------------------------------
 .byte   W96
@  #03 @003   ----------------------------------------
 .byte   W96
@  #03 @004   ----------------------------------------
 .byte   W96
@  #03 @005   ----------------------------------------
 .byte   W96
@  #03 @006   ----------------------------------------
 .byte   W12
Label_01024543:
 .byte   W84
@  #03 @007   ----------------------------------------
 .byte   W96
@  #03 @008   ----------------------------------------
 .byte   W96
@  #03 @009   ----------------------------------------
 .byte   W96
@  #03 @010   ----------------------------------------
 .byte   W96
@  #03 @011   ----------------------------------------
 .byte   W96
@  #03 @012   ----------------------------------------
 .byte   W96
@  #03 @013   ----------------------------------------
 .byte   W96
@  #03 @014   ----------------------------------------
Label_0102454B:
 .byte   N23 ,Dn3 ,v080
 .byte   W24
 .byte   Gn3
 .byte   W24
 .byte   Dn3
 .byte   W24
 .byte   N17 ,Gn3
 .byte   W18
 .byte   N05
 .byte   W06
 .byte   PEND 
@  #03 @015   ----------------------------------------
Label_01024559:
 .byte   N05 ,Fs3 ,v080
 .byte   W06
 .byte   Gn3
 .byte   W06
 .byte   An3
 .byte   W06
 .byte   As3
 .byte   W06
 .byte   Gn3
 .byte   W06
 .byte   Dn4
 .byte   W06
 .byte   Cn4
 .byte   W06
 .byte   As3
 .byte   W06
 .byte   An3
 .byte   W06
 .byte   Cn4
 .byte   W06
 .byte   An3
 .byte   W06
 .byte   Dn4
 .byte   W06
 .byte   Gn3
 .byte   W06
 .byte   As4
 .byte   W06
 .byte   Cn5
 .byte   W06
 .byte   An4
 .byte   W06
 .byte   PEND 
@  #03 @016   ----------------------------------------
Label_0102457C:
 .byte   N05 ,Gn4 ,v080
 .byte   W06
 .byte   As4
 .byte   W06
 .byte   N11 ,Dn5
 .byte   W12
 .byte   N05 ,Cn5
 .byte   W06
 .byte   An4
 .byte   W06
 .byte   N11 ,Fs4
 .byte   W12
 .byte   N05 ,Gn4
 .byte   W06
 .byte   As4
 .byte   W06
 .byte   N11 ,Gn5
 .byte   W12
 .byte   N05 ,Fs5
 .byte   W06
 .byte   Ds5
 .byte   W06
 .byte   Dn5
 .byte   W06
 .byte   Cn5
 .byte   W06
 .byte   PEND 
@  #03 @017   ----------------------------------------
Label_0102459F:
 .byte   N02 ,As4 ,v080
 .byte   W06
 .byte   An4
 .byte   W06
 .byte   As4
 .byte   W06
 .byte   An4
 .byte   W06
 .byte   As4
 .byte   W06
 .byte   An4
 .byte   W06
 .byte   As4
 .byte   W06
 .byte   An4
 .byte   W06
 .byte   N05 ,Gn3
 .byte   W06
 .byte   As3
 .byte   W06
 .byte   An3
 .byte   W06
 .byte   Gn3
 .byte   W06
 .byte   Fs3
 .byte   W06
 .byte   Gn3
 .byte   W06
 .byte   An3
 .byte   W06
 .byte   As3
 .byte   W06
 .byte   PEND 
@  #03 @018   ----------------------------------------
Label_010245C3:
 .byte   W06
 .byte   N05 ,Cn4 ,v080
 .byte   W06
 .byte   As3
 .byte   W06
 .byte   An3
 .byte   W06
 .byte   Gn3
 .byte   W06
 .byte   Fs3
 .byte   W06
 .byte   Dn3
 .byte   W06
 .byte   Cn3
 .byte   W06
 .byte   N11 ,As2
 .byte   N11 ,Dn3
 .byte   W24
 .byte   An2
 .byte   N11 ,Dn3
 .byte   W24
 .byte   PEND 
@  #03 @019   ----------------------------------------
Label_010245DE:
 .byte   N11 ,As2 ,v080
 .byte   N11 ,Dn3
 .byte   W48
 .byte   PEND 
Label_010245E5:
 .byte   N23 ,Gn3 ,v080
 .byte   W24
 .byte   N44
 .byte   W24
@  #03 @020   ----------------------------------------
 .byte   W24
 .byte   N23
 .byte   W24
 .byte   PEND 
Label_010245EF:
 .byte   N23 ,As3 ,v080
 .byte   W24
 .byte   An3
 .byte   W24
@  #03 @021   ----------------------------------------
 .byte   As3
 .byte   W24
 .byte   N44 ,Dn4
 .byte   W24
 .byte   PEND 
Label_010245FB:
 .byte   W24
 .byte   N23 ,An3 ,v080
 .byte   W24
@  #03 @022   ----------------------------------------
 .byte   Gn3
 .byte   W24
 .byte   N23
 .byte   W24
 .byte   PEND 
Label_01024605:
 .byte   N23 ,En3 ,v080
 .byte   W24
 .byte   N23
 .byte   W24
@  #03 @023   ----------------------------------------
 .byte   Dn3
 .byte   W24
 .byte   N44
 .byte   W24
 .byte   PEND 
Label_01024610:
 .byte   W24
 .byte   N44 ,Gn3 ,v080
 .byte   W24
@  #03 @024   ----------------------------------------
 .byte   W24
 .byte   N23 ,Cn4
 .byte   W24
 .byte   PEND 
Label_0102461A:
 .byte   N23 ,Cn4 ,v080
 .byte   W24
 .byte   As3
 .byte   W24
@  #03 @025   ----------------------------------------
 .byte   An3
 .byte   W24
 .byte   N44
 .byte   W24
 .byte   PEND 
Label_01024625:
 .byte   W24
 .byte   N23 ,As3 ,v080
 .byte   W24
@  #03 @026   ----------------------------------------
 .byte   Gs3
 .byte   W24
 .byte   N23
 .byte   W24
 .byte   PEND 
Label_0102462F:
 .byte   N23 ,As3 ,v080
 .byte   W24
 .byte   Gn3
 .byte   W24
@  #03 @027   ----------------------------------------
 .byte   En3
 .byte   W24
 .byte   Cs3
 .byte   W24
 .byte   PEND 
Label_0102463A:
 .byte   N44 ,An2 ,v080
 .byte   W48
@  #03 @028   ----------------------------------------
 .byte   N05 ,Cs3
 .byte   W12
 .byte   Dn3
 .byte   W12
 .byte   En3
 .byte   W12
 .byte   Fn3
 .byte   W12
 .byte   PEND 
Label_01024648:
 .byte   N44 ,Cs3 ,v080
 .byte   W48
@  #03 @029   ----------------------------------------
 .byte   N23 ,En3
 .byte   W24
 .byte   Fn3
 .byte   W24
 .byte   PEND 
Label_01024652:
 .byte   N44 ,Cs3 ,v080
 .byte   W96
 .byte   PEND 
@  #03 @030   ----------------------------------------
 .byte   W96
@  #03 @031   ----------------------------------------
 .byte   W96
@  #03 @032   ----------------------------------------
 .byte   W96
@  #03 @033   ----------------------------------------
 .byte   W96
@  #03 @034   ----------------------------------------
 .byte   W96
@  #03 @035   ----------------------------------------
 .byte   W96
@  #03 @036   ----------------------------------------
 .byte   W96
@  #03 @037   ----------------------------------------
 .byte   W96
@  #03 @038   ----------------------------------------
 .byte   W96
@  #03 @039   ----------------------------------------
 .byte   W96
@  #03 @040   ----------------------------------------
 .byte   W96
@  #03 @041   ----------------------------------------
 .byte   W12
 .byte   GOTO
  .word Label_01024543
@  #03 @042   ----------------------------------------
 .byte   W84
 .byte   W96
@  #03 @043   ----------------------------------------
 .byte   W96
@  #03 @044   ----------------------------------------
 .byte   W96
@  #03 @045   ----------------------------------------
 .byte   W96
@  #03 @046   ----------------------------------------
 .byte   W96
@  #03 @047   ----------------------------------------
 .byte   W96
@  #03 @048   ----------------------------------------
 .byte   W96
@  #03 @049   ----------------------------------------
 .byte   PATT
  .word Label_0102454B
@  #03 @050   ----------------------------------------
 .byte   PATT
  .word Label_01024559
@  #03 @051   ----------------------------------------
 .byte   PATT
  .word Label_0102457C
@  #03 @052   ----------------------------------------
 .byte   PATT
  .word Label_0102459F
@  #03 @053   ----------------------------------------
 .byte   PATT
  .word Label_010245C3
@  #03 @054   ----------------------------------------
 .byte   PATT
  .word Label_010245DE
@  #03 @055   ----------------------------------------
 .byte   PATT
  .word Label_010245E5
@  #03 @056   ----------------------------------------
 .byte   PATT
  .word Label_010245EF
@  #03 @057   ----------------------------------------
 .byte   PATT
  .word Label_010245FB
@  #03 @058   ----------------------------------------
 .byte   PATT
  .word Label_01024605
@  #03 @059   ----------------------------------------
 .byte   PATT
  .word Label_01024610
@  #03 @060   ----------------------------------------
 .byte   PATT
  .word Label_0102461A
@  #03 @061   ----------------------------------------
 .byte   PATT
  .word Label_01024625
@  #03 @062   ----------------------------------------
 .byte   PATT
  .word Label_0102462F
@  #03 @063   ----------------------------------------
 .byte   PATT
  .word Label_0102463A
@  #03 @064   ----------------------------------------
 .byte   PATT
  .word Label_01024648
@  #03 @065   ----------------------------------------
 .byte   PATT
  .word Label_01024652
@  #03 @066   ----------------------------------------
 .byte   W96
@  #03 @067   ----------------------------------------
 .byte   W96
@  #03 @068   ----------------------------------------
 .byte   W96
@  #03 @069   ----------------------------------------
 .byte   W96
@  #03 @070   ----------------------------------------
 .byte   W96
@  #03 @071   ----------------------------------------
 .byte   W96
@  #03 @072   ----------------------------------------
 .byte   W96
@  #03 @073   ----------------------------------------
 .byte   W96
@  #03 @074   ----------------------------------------
 .byte   W96
@  #03 @075   ----------------------------------------
 .byte   W96
@  #03 @076   ----------------------------------------
 .byte   W96
@  #03 @077   ----------------------------------------
 .byte   W96
@  #03 @078   ----------------------------------------
 .byte   W96
@  #03 @079   ----------------------------------------
 .byte   W96
@  #03 @080   ----------------------------------------
 .byte   W96
@  #03 @081   ----------------------------------------
 .byte   W96
@  #03 @082   ----------------------------------------
 .byte   W96
@  #03 @083   ----------------------------------------
 .byte   W96
@  #03 @084   ----------------------------------------
 .byte   W96
@  #03 @085   ----------------------------------------
 .byte   PATT
  .word Label_0102454B
@  #03 @086   ----------------------------------------
 .byte   PATT
  .word Label_01024559
@  #03 @087   ----------------------------------------
 .byte   PATT
  .word Label_0102457C
@  #03 @088   ----------------------------------------
 .byte   PATT
  .word Label_0102459F
@  #03 @089   ----------------------------------------
 .byte   PATT
  .word Label_010245C3
@  #03 @090   ----------------------------------------
 .byte   PATT
  .word Label_010245DE
@  #03 @091   ----------------------------------------
 .byte   PATT
  .word Label_010245E5
@  #03 @092   ----------------------------------------
 .byte   PATT
  .word Label_010245EF
@  #03 @093   ----------------------------------------
 .byte   PATT
  .word Label_010245FB
@  #03 @094   ----------------------------------------
 .byte   PATT
  .word Label_01024605
@  #03 @095   ----------------------------------------
 .byte   PATT
  .word Label_01024610
@  #03 @096   ----------------------------------------
 .byte   PATT
  .word Label_0102461A
@  #03 @097   ----------------------------------------
 .byte   PATT
  .word Label_01024625
@  #03 @098   ----------------------------------------
 .byte   PATT
  .word Label_0102462F
@  #03 @099   ----------------------------------------
 .byte   PATT
  .word Label_0102463A
@  #03 @100   ----------------------------------------
 .byte   PATT
  .word Label_01024648
@  #03 @101   ----------------------------------------
 .byte   PATT
  .word Label_01024652
@  #03 @102   ----------------------------------------
 .byte   W96
@  #03 @103   ----------------------------------------
 .byte   W96
@  #03 @104   ----------------------------------------
 .byte   W96
@  #03 @105   ----------------------------------------
 .byte   W96
@  #03 @106   ----------------------------------------
 .byte   W96
@  #03 @107   ----------------------------------------
 .byte   W96
@  #03 @108   ----------------------------------------
 .byte   W96
@  #03 @109   ----------------------------------------
 .byte   W96
@  #03 @110   ----------------------------------------
 .byte   W96
@  #03 @111   ----------------------------------------
 .byte   W96
@  #03 @112   ----------------------------------------
 .byte   W96
@  #03 @113   ----------------------------------------
 .byte   W96
@  #03 @114   ----------------------------------------
 .byte   W96
@  #03 @115   ----------------------------------------
 .byte   W96
@  #03 @116   ----------------------------------------
 .byte   W96
@  #03 @117   ----------------------------------------
 .byte   W96
@  #03 @118   ----------------------------------------
 .byte   W96
@  #03 @119   ----------------------------------------
 .byte   W96
@  #03 @120   ----------------------------------------
 .byte   W96
@  #03 @121   ----------------------------------------
 .byte   PATT
  .word Label_0102454B
@  #03 @122   ----------------------------------------
 .byte   PATT
  .word Label_01024559
@  #03 @123   ----------------------------------------
 .byte   PATT
  .word Label_0102457C
@  #03 @124   ----------------------------------------
 .byte   PATT
  .word Label_0102459F
@  #03 @125   ----------------------------------------
 .byte   PATT
  .word Label_010245C3
@  #03 @126   ----------------------------------------
 .byte   PATT
  .word Label_010245DE
@  #03 @127   ----------------------------------------
 .byte   PATT
  .word Label_010245E5
@  #03 @128   ----------------------------------------
 .byte   PATT
  .word Label_010245EF
@  #03 @129   ----------------------------------------
 .byte   PATT
  .word Label_010245FB
@  #03 @130   ----------------------------------------
 .byte   PATT
  .word Label_01024605
@  #03 @131   ----------------------------------------
 .byte   PATT
  .word Label_01024610
@  #03 @132   ----------------------------------------
 .byte   PATT
  .word Label_0102461A
@  #03 @133   ----------------------------------------
 .byte   PATT
  .word Label_01024625
@  #03 @134   ----------------------------------------
 .byte   PATT
  .word Label_0102462F
@  #03 @135   ----------------------------------------
 .byte   PATT
  .word Label_0102463A
@  #03 @136   ----------------------------------------
 .byte   PATT
  .word Label_01024648
@  #03 @137   ----------------------------------------
 .byte   PATT
  .word Label_01024652
@  #03 @138   ----------------------------------------
 .byte   W96
@  #03 @139   ----------------------------------------
 .byte   W96
@  #03 @140   ----------------------------------------
 .byte   W96
@  #03 @141   ----------------------------------------
 .byte   W96
@  #03 @142   ----------------------------------------
 .byte   W96
@  #03 @143   ----------------------------------------
 .byte   W96
@  #03 @144   ----------------------------------------
 .byte   W96
@  #03 @145   ----------------------------------------
 .byte   W96
@  #03 @146   ----------------------------------------
 .byte   W96
@  #03 @147   ----------------------------------------
 .byte   W96
@  #03 @148   ----------------------------------------
 .byte   W96
@  #03 @149   ----------------------------------------
 .byte   W96
@  #03 @150   ----------------------------------------
 .byte   W96
@  #03 @151   ----------------------------------------
 .byte   W96
@  #03 @152   ----------------------------------------
 .byte   W96
@  #03 @153   ----------------------------------------
 .byte   W96
@  #03 @154   ----------------------------------------
 .byte   W96
@  #03 @155   ----------------------------------------
 .byte   W96
@  #03 @156   ----------------------------------------
 .byte   W96
@  #03 @157   ----------------------------------------
 .byte   PATT
  .word Label_0102454B
@  #03 @158   ----------------------------------------
 .byte   PATT
  .word Label_01024559
@  #03 @159   ----------------------------------------
 .byte   PATT
  .word Label_0102457C
@  #03 @160   ----------------------------------------
 .byte   PATT
  .word Label_0102459F
@  #03 @161   ----------------------------------------
 .byte   PATT
  .word Label_010245C3
@  #03 @162   ----------------------------------------
 .byte   PATT
  .word Label_010245DE
@  #03 @163   ----------------------------------------
 .byte   PATT
  .word Label_010245E5
@  #03 @164   ----------------------------------------
 .byte   PATT
  .word Label_010245EF
@  #03 @165   ----------------------------------------
 .byte   PATT
  .word Label_010245FB
@  #03 @166   ----------------------------------------
 .byte   PATT
  .word Label_01024605
@  #03 @167   ----------------------------------------
 .byte   PATT
  .word Label_01024610
@  #03 @168   ----------------------------------------
 .byte   PATT
  .word Label_0102461A
@  #03 @169   ----------------------------------------
 .byte   PATT
  .word Label_01024625
@  #03 @170   ----------------------------------------
 .byte   PATT
  .word Label_0102462F
@  #03 @171   ----------------------------------------
 .byte   PATT
  .word Label_0102463A
@  #03 @172   ----------------------------------------
 .byte   PATT
  .word Label_01024648
@  #03 @173   ----------------------------------------
 .byte   PATT
  .word Label_01024652
@  #03 @174   ----------------------------------------
 .byte   W96
@  #03 @175   ----------------------------------------
 .byte   W96
@  #03 @176   ----------------------------------------
 .byte   W96
@  #03 @177   ----------------------------------------
 .byte   W96
@  #03 @178   ----------------------------------------
 .byte   W96
@  #03 @179   ----------------------------------------
 .byte   W96
@  #03 @180   ----------------------------------------
 .byte   W96
@  #03 @181   ----------------------------------------
 .byte   W96
@  #03 @182   ----------------------------------------
 .byte   W96
@  #03 @183   ----------------------------------------
 .byte   W96
@  #03 @184   ----------------------------------------
 .byte   W96
@  #03 @185   ----------------------------------------
 .byte   W96
@  #03 @186   ----------------------------------------
 .byte   W96
@  #03 @187   ----------------------------------------
 .byte   W96
@  #03 @188   ----------------------------------------
 .byte   W96
@  #03 @189   ----------------------------------------
 .byte   W96
@  #03 @190   ----------------------------------------
 .byte   W96
@  #03 @191   ----------------------------------------
 .byte   W96
@  #03 @192   ----------------------------------------
 .byte   W96
@  #03 @193   ----------------------------------------
 .byte   PATT
  .word Label_0102454B
@  #03 @194   ----------------------------------------
 .byte   PATT
  .word Label_01024559
@  #03 @195   ----------------------------------------
 .byte   PATT
  .word Label_0102457C
@  #03 @196   ----------------------------------------
 .byte   PATT
  .word Label_0102459F
@  #03 @197   ----------------------------------------
 .byte   PATT
  .word Label_010245C3
@  #03 @198   ----------------------------------------
 .byte   PATT
  .word Label_010245DE
@  #03 @199   ----------------------------------------
 .byte   PATT
  .word Label_010245E5
@  #03 @200   ----------------------------------------
 .byte   PATT
  .word Label_010245EF
@  #03 @201   ----------------------------------------
 .byte   PATT
  .word Label_010245FB
@  #03 @202   ----------------------------------------
 .byte   PATT
  .word Label_01024605
@  #03 @203   ----------------------------------------
 .byte   PATT
  .word Label_01024610
@  #03 @204   ----------------------------------------
 .byte   PATT
  .word Label_0102461A
@  #03 @205   ----------------------------------------
 .byte   PATT
  .word Label_01024625
@  #03 @206   ----------------------------------------
 .byte   PATT
  .word Label_0102462F
@  #03 @207   ----------------------------------------
 .byte   PATT
  .word Label_0102463A
@  #03 @208   ----------------------------------------
 .byte   PATT
  .word Label_01024648
@  #03 @209   ----------------------------------------
 .byte   PATT
  .word Label_01024652
@  #03 @210   ----------------------------------------
 .byte   W96
@  #03 @211   ----------------------------------------
 .byte   W96
@  #03 @212   ----------------------------------------
 .byte   W96
@  #03 @213   ----------------------------------------
 .byte   W96
@  #03 @214   ----------------------------------------
 .byte   W96
@  #03 @215   ----------------------------------------
 .byte   W96
@  #03 @216   ----------------------------------------
 .byte   W96
@  #03 @217   ----------------------------------------
 .byte   W96
@  #03 @218   ----------------------------------------
 .byte   W96
@  #03 @219   ----------------------------------------
 .byte   W96
@  #03 @220   ----------------------------------------
 .byte   W96
@  #03 @221   ----------------------------------------
 .byte   W96
@  #03 @222   ----------------------------------------
 .byte   W96
@  #03 @223   ----------------------------------------
 .byte   W96
@  #03 @224   ----------------------------------------
 .byte   W96
@  #03 @225   ----------------------------------------
 .byte   W96
@  #03 @226   ----------------------------------------
 .byte   W96
@  #03 @227   ----------------------------------------
 .byte   W96
@  #03 @228   ----------------------------------------
 .byte   W96
@  #03 @229   ----------------------------------------
 .byte   PATT
  .word Label_0102454B
@  #03 @230   ----------------------------------------
 .byte   PATT
  .word Label_01024559
@  #03 @231   ----------------------------------------
 .byte   PATT
  .word Label_0102457C
@  #03 @232   ----------------------------------------
 .byte   PATT
  .word Label_0102459F
@  #03 @233   ----------------------------------------
 .byte   PATT
  .word Label_010245C3
@  #03 @234   ----------------------------------------
 .byte   PATT
  .word Label_010245DE
@  #03 @235   ----------------------------------------
 .byte   PATT
  .word Label_010245E5
@  #03 @236   ----------------------------------------
 .byte   PATT
  .word Label_010245EF
@  #03 @237   ----------------------------------------
 .byte   PATT
  .word Label_010245FB
@  #03 @238   ----------------------------------------
 .byte   PATT
  .word Label_01024605
@  #03 @239   ----------------------------------------
 .byte   PATT
  .word Label_01024610
@  #03 @240   ----------------------------------------
 .byte   PATT
  .word Label_0102461A
@  #03 @241   ----------------------------------------
 .byte   PATT
  .word Label_01024625
@  #03 @242   ----------------------------------------
 .byte   PATT
  .word Label_0102462F
@  #03 @243   ----------------------------------------
 .byte   PATT
  .word Label_0102463A
@  #03 @244   ----------------------------------------
 .byte   PATT
  .word Label_01024648
@  #03 @245   ----------------------------------------
 .byte   PATT
  .word Label_01024652
@  #03 @246   ----------------------------------------
 .byte   W96
@  #03 @247   ----------------------------------------
 .byte   W96
@  #03 @248   ----------------------------------------
 .byte   W96
@  #03 @249   ----------------------------------------
 .byte   W96
@  #03 @250   ----------------------------------------
 .byte   W96
@  #03 @251   ----------------------------------------
 .byte   W96
@  #03 @252   ----------------------------------------
 .byte   W96
@  #03 @253   ----------------------------------------
 .byte   W96
@  #03 @254   ----------------------------------------
 .byte   W96
@  #03 @255   ----------------------------------------
 .byte   W96
@  #03 @256   ----------------------------------------
 .byte   W96
@  #03 @257   ----------------------------------------
 .byte   W96
@  #03 @258   ----------------------------------------
 .byte   W96
@  #03 @259   ----------------------------------------
 .byte   W96
@  #03 @260   ----------------------------------------
 .byte   W96
@  #03 @261   ----------------------------------------
 .byte   W96
@  #03 @262   ----------------------------------------
 .byte   W96
@  #03 @263   ----------------------------------------
 .byte   W96
@  #03 @264   ----------------------------------------
 .byte   W96
@  #03 @265   ----------------------------------------
 .byte   PATT
  .word Label_0102454B
@  #03 @266   ----------------------------------------
 .byte   PATT
  .word Label_01024559
@  #03 @267   ----------------------------------------
 .byte   PATT
  .word Label_0102457C
@  #03 @268   ----------------------------------------
 .byte   PATT
  .word Label_0102459F
@  #03 @269   ----------------------------------------
 .byte   PATT
  .word Label_010245C3
@  #03 @270   ----------------------------------------
 .byte   PATT
  .word Label_010245DE
@  #03 @271   ----------------------------------------
 .byte   PATT
  .word Label_010245E5
@  #03 @272   ----------------------------------------
 .byte   PATT
  .word Label_010245EF
@  #03 @273   ----------------------------------------
 .byte   PATT
  .word Label_010245FB
@  #03 @274   ----------------------------------------
 .byte   PATT
  .word Label_01024605
@  #03 @275   ----------------------------------------
 .byte   PATT
  .word Label_01024610
@  #03 @276   ----------------------------------------
 .byte   PATT
  .word Label_0102461A
@  #03 @277   ----------------------------------------
 .byte   PATT
  .word Label_01024625
@  #03 @278   ----------------------------------------
 .byte   PATT
  .word Label_0102462F
@  #03 @279   ----------------------------------------
 .byte   PATT
  .word Label_0102463A
@  #03 @280   ----------------------------------------
 .byte   PATT
  .word Label_01024648
@  #03 @281   ----------------------------------------
 .byte   PATT
  .word Label_01024652
@  #03 @282   ----------------------------------------
 .byte   W96
@  #03 @283   ----------------------------------------
 .byte   W96
@  #03 @284   ----------------------------------------
 .byte   W96
@  #03 @285   ----------------------------------------
 .byte   W96
@  #03 @286   ----------------------------------------
 .byte   W96
@  #03 @287   ----------------------------------------
 .byte   W96
@  #03 @288   ----------------------------------------
 .byte   W96
@  #03 @289   ----------------------------------------
 .byte   W96
@  #03 @290   ----------------------------------------
 .byte   W96
@  #03 @291   ----------------------------------------
 .byte   W96
@  #03 @292   ----------------------------------------
 .byte   W96
@  #03 @293   ----------------------------------------
 .byte   W96
@  #03 @294   ----------------------------------------
 .byte   W96
@  #03 @295   ----------------------------------------
 .byte   W96
@  #03 @296   ----------------------------------------
 .byte   W96
@  #03 @297   ----------------------------------------
 .byte   W96
@  #03 @298   ----------------------------------------
 .byte   W96
@  #03 @299   ----------------------------------------
 .byte   W96
@  #03 @300   ----------------------------------------
 .byte   W96
@  #03 @301   ----------------------------------------
 .byte   PATT
  .word Label_0102454B
@  #03 @302   ----------------------------------------
 .byte   PATT
  .word Label_01024559
@  #03 @303   ----------------------------------------
 .byte   PATT
  .word Label_0102457C
@  #03 @304   ----------------------------------------
 .byte   PATT
  .word Label_0102459F
@  #03 @305   ----------------------------------------
 .byte   PATT
  .word Label_010245C3
@  #03 @306   ----------------------------------------
 .byte   PATT
  .word Label_010245DE
@  #03 @307   ----------------------------------------
 .byte   PATT
  .word Label_010245E5
@  #03 @308   ----------------------------------------
 .byte   PATT
  .word Label_010245EF
@  #03 @309   ----------------------------------------
 .byte   PATT
  .word Label_010245FB
@  #03 @310   ----------------------------------------
 .byte   PATT
  .word Label_01024605
@  #03 @311   ----------------------------------------
 .byte   PATT
  .word Label_01024610
@  #03 @312   ----------------------------------------
 .byte   PATT
  .word Label_0102461A
@  #03 @313   ----------------------------------------
 .byte   PATT
  .word Label_01024625
@  #03 @314   ----------------------------------------
 .byte   PATT
  .word Label_0102462F
@  #03 @315   ----------------------------------------
 .byte   PATT
  .word Label_0102463A
@  #03 @316   ----------------------------------------
 .byte   PATT
  .word Label_01024648
@  #03 @317   ----------------------------------------
 .byte   PATT
  .word Label_01024652
@  #03 @318   ----------------------------------------
 .byte   W96
@  #03 @319   ----------------------------------------
 .byte   W96
@  #03 @320   ----------------------------------------
 .byte   W96
@  #03 @321   ----------------------------------------
 .byte   W96
@  #03 @322   ----------------------------------------
 .byte   W96
@  #03 @323   ----------------------------------------
 .byte   W96
@  #03 @324   ----------------------------------------
 .byte   W96
@  #03 @325   ----------------------------------------
 .byte   W96
@  #03 @326   ----------------------------------------
 .byte   W96
@  #03 @327   ----------------------------------------
 .byte   W96
@  #03 @328   ----------------------------------------
 .byte   W96
@  #03 @329   ----------------------------------------
 .byte   W96
@  #03 @330   ----------------------------------------
 .byte   W96
@  #03 @331   ----------------------------------------
 .byte   W96
@  #03 @332   ----------------------------------------
 .byte   W96
@  #03 @333   ----------------------------------------
 .byte   W96
@  #03 @334   ----------------------------------------
 .byte   W96
@  #03 @335   ----------------------------------------
 .byte   W96
@  #03 @336   ----------------------------------------
 .byte   W96
@  #03 @337   ----------------------------------------
 .byte   PATT
  .word Label_0102454B
@  #03 @338   ----------------------------------------
 .byte   PATT
  .word Label_01024559
@  #03 @339   ----------------------------------------
 .byte   PATT
  .word Label_0102457C
@  #03 @340   ----------------------------------------
 .byte   PATT
  .word Label_0102459F
@  #03 @341   ----------------------------------------
 .byte   PATT
  .word Label_010245C3
@  #03 @342   ----------------------------------------
 .byte   PATT
  .word Label_010245DE
@  #03 @343   ----------------------------------------
 .byte   PATT
  .word Label_010245E5
@  #03 @344   ----------------------------------------
 .byte   PATT
  .word Label_010245EF
@  #03 @345   ----------------------------------------
 .byte   PATT
  .word Label_010245FB
@  #03 @346   ----------------------------------------
 .byte   PATT
  .word Label_01024605
@  #03 @347   ----------------------------------------
 .byte   PATT
  .word Label_01024610
@  #03 @348   ----------------------------------------
 .byte   PATT
  .word Label_0102461A
@  #03 @349   ----------------------------------------
 .byte   PATT
  .word Label_01024625
@  #03 @350   ----------------------------------------
 .byte   PATT
  .word Label_0102462F
@  #03 @351   ----------------------------------------
 .byte   PATT
  .word Label_0102463A
@  #03 @352   ----------------------------------------
 .byte   PATT
  .word Label_01024648
@  #03 @353   ----------------------------------------
 .byte   PATT
  .word Label_01024652
@  #03 @354   ----------------------------------------
 .byte   W96
@  #03 @355   ----------------------------------------
 .byte   W96
@  #03 @356   ----------------------------------------
 .byte   W96
@  #03 @357   ----------------------------------------
 .byte   W96
@  #03 @358   ----------------------------------------
 .byte   W96
@  #03 @359   ----------------------------------------
 .byte   W96
@  #03 @360   ----------------------------------------
 .byte   W96
@  #03 @361   ----------------------------------------
 .byte   W96
@  #03 @362   ----------------------------------------
 .byte   W96
@  #03 @363   ----------------------------------------
 .byte   W96
@  #03 @364   ----------------------------------------
 .byte   W92
 .byte   W03
 .byte   FINE

@**************** Track 4 (Midi-Chn.3) ****************@

song06_004:
@  #04 @000   ----------------------------------------
 .byte   KEYSH , song06_key+0
 .byte   VOICE , 49
 .byte   VOL , 57*song06_mvl/mxv
 .byte   PAN , c_v+0
 .byte   W96
@  #04 @001   ----------------------------------------
 .byte   W96
@  #04 @002   ----------------------------------------
 .byte   W96
@  #04 @003   ----------------------------------------
 .byte   W96
@  #04 @004   ----------------------------------------
 .byte   W96
@  #04 @005   ----------------------------------------
 .byte   W96
@  #04 @006   ----------------------------------------
 .byte   W12
Label_0102689F:
 .byte   W84
@  #04 @007   ----------------------------------------
 .byte   W96
@  #04 @008   ----------------------------------------
 .byte   W96
@  #04 @009   ----------------------------------------
 .byte   W96
@  #04 @010   ----------------------------------------
 .byte   W96
@  #04 @011   ----------------------------------------
 .byte   W96
@  #04 @012   ----------------------------------------
 .byte   W96
@  #04 @013   ----------------------------------------
 .byte   W96
@  #04 @014   ----------------------------------------
Label_010268A7:
 .byte   N23 ,As1 ,v080
 .byte   W24
 .byte   Cn2
 .byte   W24
 .byte   As1
 .byte   W24
 .byte   Cn2
 .byte   W24
 .byte   PEND 
@  #04 @015   ----------------------------------------
Label_010268B2:
 .byte   N23 ,As1 ,v080
 .byte   W24
 .byte   N11 ,Cn2
 .byte   W12
 .byte   Cs2
 .byte   W12
 .byte   Dn2
 .byte   W12
 .byte   Cn2
 .byte   W12
 .byte   N23 ,As1
 .byte   W24
 .byte   PEND 
@  #04 @016   ----------------------------------------
Label_010268C3:
 .byte   N11 ,Gn1 ,v080
 .byte   W12
 .byte   Cn2
 .byte   W12
 .byte   An1
 .byte   W12
 .byte   An2
 .byte   W12
 .byte   As2
 .byte   W12
 .byte   Gn2
 .byte   W12
 .byte   Dn2
 .byte   N11 ,An2
 .byte   W12
 .byte   Fs2
 .byte   W12
 .byte   PEND 
@  #04 @017   ----------------------------------------
Label_010268D8:
 .byte   N02 ,Dn2 ,v080
 .byte   W03
 .byte   Ds2
 .byte   W03
 .byte   Dn2
 .byte   W03
 .byte   Ds2
 .byte   W03
 .byte   Dn2
 .byte   W03
 .byte   Ds2
 .byte   W03
 .byte   Dn2
 .byte   W03
 .byte   Ds2
 .byte   W03
 .byte   Dn2
 .byte   W03
 .byte   Ds2
 .byte   W03
 .byte   Dn2
 .byte   W03
 .byte   Ds2
 .byte   W03
 .byte   Dn2
 .byte   W03
 .byte   Ds2
 .byte   W03
 .byte   Dn2
 .byte   W03
 .byte   Ds2
 .byte   W03
 .byte   Dn2
 .byte   W03
 .byte   Ds2
 .byte   W03
 .byte   Dn2
 .byte   W03
 .byte   Ds2
 .byte   W03
 .byte   Dn2
 .byte   W03
 .byte   Ds2
 .byte   W03
 .byte   Dn2
 .byte   W03
 .byte   Ds2
 .byte   W03
 .byte   Dn2
 .byte   W03
 .byte   Ds2
 .byte   W03
 .byte   Dn2
 .byte   W03
 .byte   Ds2
 .byte   W03
 .byte   Dn2
 .byte   W03
 .byte   Ds2
 .byte   W03
 .byte   Dn2
 .byte   W03
 .byte   Ds2
 .byte   W03
 .byte   PEND 
@  #04 @018   ----------------------------------------
Label_0102691B:
 .byte   N11 ,Cn2 ,v080
 .byte   W12
 .byte   As1
 .byte   W12
 .byte   An2
 .byte   W12
 .byte   N05 ,Dn3
 .byte   W06
 .byte   Cn3
 .byte   W06
 .byte   N11 ,As2
 .byte   W24
 .byte   An2
 .byte   W24
 .byte   PEND 
@  #04 @019   ----------------------------------------
Label_0102692E:
 .byte   TIE ,Gn1 ,v080
 .byte   N11 ,As2
 .byte   W48
 .byte   PEND 
Label_01026935:
 .byte   W68
@  #04 @020   ----------------------------------------
 .byte   W03
 .byte   PEND 
 .byte   EOT
 .byte   Gn1
 .byte   W24
 .byte   W01
Label_0102693C:
 .byte   N44 ,Fn2 ,v080
 .byte   W48
 .byte   As1
 .byte   W48
 .byte   PEND 
@  #04 @021   ----------------------------------------
Label_01026943:
 .byte   N44 ,Dn2 ,v080
 .byte   W48
 .byte   Gs1
 .byte   W48
 .byte   PEND 
@  #04 @022   ----------------------------------------
Label_0102694A:
 .byte   N44 ,En2 ,v080
 .byte   W48
 .byte   Dn2
 .byte   W48
 .byte   PEND 
@  #04 @023   ----------------------------------------
 .byte   W96
@  #04 @024   ----------------------------------------
 .byte   W96
@  #04 @025   ----------------------------------------
 .byte   W96
@  #04 @026   ----------------------------------------
 .byte   W96
@  #04 @027   ----------------------------------------
Label_01026955:
 .byte   N05 ,An1 ,v080
 .byte   W12
 .byte   Bn1
 .byte   W12
 .byte   Cs2
 .byte   W12
 .byte   En2
 .byte   W12
 .byte   N44 ,An1
 .byte   W48
 .byte   PEND 
@  #04 @028   ----------------------------------------
Label_01026963:
 .byte   N02 ,An1 ,v080
 .byte   W03
 .byte   As1
 .byte   W03
 .byte   An1
 .byte   W03
 .byte   As1
 .byte   W03
 .byte   An1
 .byte   W03
 .byte   As1
 .byte   W03
 .byte   An1
 .byte   W03
 .byte   As1
 .byte   W03
 .byte   An1
 .byte   W03
 .byte   As1
 .byte   W03
 .byte   An1
 .byte   W03
 .byte   As1
 .byte   W03
 .byte   An1
 .byte   W03
 .byte   As1
 .byte   W03
 .byte   An1
 .byte   W03
 .byte   As1
 .byte   W03
 .byte   N68 ,An1
 .byte   W48
 .byte   PEND 
@  #04 @029   ----------------------------------------
Label_01026989:
 .byte   W24
 .byte   N68 ,An3 ,v080
 .byte   W72
 .byte   PEND 
@  #04 @030   ----------------------------------------
 .byte   W96
@  #04 @031   ----------------------------------------
 .byte   W96
@  #04 @032   ----------------------------------------
 .byte   W96
@  #04 @033   ----------------------------------------
 .byte   W96
@  #04 @034   ----------------------------------------
 .byte   W96
@  #04 @035   ----------------------------------------
 .byte   W96
@  #04 @036   ----------------------------------------
 .byte   W96
@  #04 @037   ----------------------------------------
 .byte   W96
@  #04 @038   ----------------------------------------
 .byte   W96
@  #04 @039   ----------------------------------------
 .byte   W96
@  #04 @040   ----------------------------------------
 .byte   W96
@  #04 @041   ----------------------------------------
 .byte   W12
 .byte   GOTO
  .word Label_0102689F
@  #04 @042   ----------------------------------------
 .byte   W84
 .byte   W96
@  #04 @043   ----------------------------------------
 .byte   W96
@  #04 @044   ----------------------------------------
 .byte   W96
@  #04 @045   ----------------------------------------
 .byte   W96
@  #04 @046   ----------------------------------------
 .byte   W96
@  #04 @047   ----------------------------------------
 .byte   W96
@  #04 @048   ----------------------------------------
 .byte   W96
@  #04 @049   ----------------------------------------
 .byte   PATT
  .word Label_010268A7
@  #04 @050   ----------------------------------------
 .byte   PATT
  .word Label_010268B2
@  #04 @051   ----------------------------------------
 .byte   PATT
  .word Label_010268C3
@  #04 @052   ----------------------------------------
 .byte   PATT
  .word Label_010268D8
@  #04 @053   ----------------------------------------
 .byte   PATT
  .word Label_0102691B
@  #04 @054   ----------------------------------------
 .byte   PATT
  .word Label_0102692E
@  #04 @055   ----------------------------------------
 .byte   PATT
  .word Label_01026935
@  #04 @056   ----------------------------------------
 .byte   EOT
 .byte   Gn1
 .byte   W24
 .byte   W01
@  #04 @057   ----------------------------------------
 .byte   PATT
  .word Label_0102693C
@  #04 @058   ----------------------------------------
 .byte   PATT
  .word Label_01026943
@  #04 @059   ----------------------------------------
 .byte   PATT
  .word Label_0102694A
@  #04 @060   ----------------------------------------
 .byte   W96
@  #04 @061   ----------------------------------------
 .byte   W96
@  #04 @062   ----------------------------------------
 .byte   W96
@  #04 @063   ----------------------------------------
 .byte   W96
@  #04 @064   ----------------------------------------
 .byte   PATT
  .word Label_01026955
@  #04 @065   ----------------------------------------
 .byte   PATT
  .word Label_01026963
@  #04 @066   ----------------------------------------
 .byte   PATT
  .word Label_01026989
@  #04 @067   ----------------------------------------
 .byte   W96
@  #04 @068   ----------------------------------------
 .byte   W96
@  #04 @069   ----------------------------------------
 .byte   W96
@  #04 @070   ----------------------------------------
 .byte   W96
@  #04 @071   ----------------------------------------
 .byte   W96
@  #04 @072   ----------------------------------------
 .byte   W96
@  #04 @073   ----------------------------------------
 .byte   W96
@  #04 @074   ----------------------------------------
 .byte   W96
@  #04 @075   ----------------------------------------
 .byte   W96
@  #04 @076   ----------------------------------------
 .byte   W96
@  #04 @077   ----------------------------------------
 .byte   W96
@  #04 @078   ----------------------------------------
 .byte   W96
@  #04 @079   ----------------------------------------
 .byte   W96
@  #04 @080   ----------------------------------------
 .byte   W96
@  #04 @081   ----------------------------------------
 .byte   W96
@  #04 @082   ----------------------------------------
 .byte   W96
@  #04 @083   ----------------------------------------
 .byte   W96
@  #04 @084   ----------------------------------------
 .byte   W96
@  #04 @085   ----------------------------------------
 .byte   W96
@  #04 @086   ----------------------------------------
 .byte   PATT
  .word Label_010268A7
@  #04 @087   ----------------------------------------
 .byte   PATT
  .word Label_010268B2
@  #04 @088   ----------------------------------------
 .byte   PATT
  .word Label_010268C3
@  #04 @089   ----------------------------------------
 .byte   PATT
  .word Label_010268D8
@  #04 @090   ----------------------------------------
 .byte   PATT
  .word Label_0102691B
@  #04 @091   ----------------------------------------
 .byte   PATT
  .word Label_0102692E
@  #04 @092   ----------------------------------------
 .byte   PATT
  .word Label_01026935
@  #04 @093   ----------------------------------------
 .byte   EOT
 .byte   Gn1
 .byte   W24
 .byte   W01
@  #04 @094   ----------------------------------------
 .byte   PATT
  .word Label_0102693C
@  #04 @095   ----------------------------------------
 .byte   PATT
  .word Label_01026943
@  #04 @096   ----------------------------------------
 .byte   PATT
  .word Label_0102694A
@  #04 @097   ----------------------------------------
 .byte   W96
@  #04 @098   ----------------------------------------
 .byte   W96
@  #04 @099   ----------------------------------------
 .byte   W96
@  #04 @100   ----------------------------------------
 .byte   W96
@  #04 @101   ----------------------------------------
 .byte   PATT
  .word Label_01026955
@  #04 @102   ----------------------------------------
 .byte   PATT
  .word Label_01026963
@  #04 @103   ----------------------------------------
 .byte   PATT
  .word Label_01026989
@  #04 @104   ----------------------------------------
 .byte   W96
@  #04 @105   ----------------------------------------
 .byte   W96
@  #04 @106   ----------------------------------------
 .byte   W96
@  #04 @107   ----------------------------------------
 .byte   W96
@  #04 @108   ----------------------------------------
 .byte   W96
@  #04 @109   ----------------------------------------
 .byte   W96
@  #04 @110   ----------------------------------------
 .byte   W96
@  #04 @111   ----------------------------------------
 .byte   W96
@  #04 @112   ----------------------------------------
 .byte   W96
@  #04 @113   ----------------------------------------
 .byte   W96
@  #04 @114   ----------------------------------------
 .byte   W96
@  #04 @115   ----------------------------------------
 .byte   W96
@  #04 @116   ----------------------------------------
 .byte   W96
@  #04 @117   ----------------------------------------
 .byte   W96
@  #04 @118   ----------------------------------------
 .byte   W96
@  #04 @119   ----------------------------------------
 .byte   W96
@  #04 @120   ----------------------------------------
 .byte   W96
@  #04 @121   ----------------------------------------
 .byte   W96
@  #04 @122   ----------------------------------------
 .byte   W96
@  #04 @123   ----------------------------------------
 .byte   PATT
  .word Label_010268A7
@  #04 @124   ----------------------------------------
 .byte   PATT
  .word Label_010268B2
@  #04 @125   ----------------------------------------
 .byte   PATT
  .word Label_010268C3
@  #04 @126   ----------------------------------------
 .byte   PATT
  .word Label_010268D8
@  #04 @127   ----------------------------------------
 .byte   PATT
  .word Label_0102691B
@  #04 @128   ----------------------------------------
 .byte   PATT
  .word Label_0102692E
@  #04 @129   ----------------------------------------
 .byte   PATT
  .word Label_01026935
@  #04 @130   ----------------------------------------
 .byte   EOT
 .byte   Gn1
 .byte   W24
 .byte   W01
@  #04 @131   ----------------------------------------
 .byte   PATT
  .word Label_0102693C
@  #04 @132   ----------------------------------------
 .byte   PATT
  .word Label_01026943
@  #04 @133   ----------------------------------------
 .byte   PATT
  .word Label_0102694A
@  #04 @134   ----------------------------------------
 .byte   W96
@  #04 @135   ----------------------------------------
 .byte   W96
@  #04 @136   ----------------------------------------
 .byte   W96
@  #04 @137   ----------------------------------------
 .byte   W96
@  #04 @138   ----------------------------------------
 .byte   PATT
  .word Label_01026955
@  #04 @139   ----------------------------------------
 .byte   PATT
  .word Label_01026963
@  #04 @140   ----------------------------------------
 .byte   PATT
  .word Label_01026989
@  #04 @141   ----------------------------------------
 .byte   W96
@  #04 @142   ----------------------------------------
 .byte   W96
@  #04 @143   ----------------------------------------
 .byte   W96
@  #04 @144   ----------------------------------------
 .byte   W96
@  #04 @145   ----------------------------------------
 .byte   W96
@  #04 @146   ----------------------------------------
 .byte   W96
@  #04 @147   ----------------------------------------
 .byte   W96
@  #04 @148   ----------------------------------------
 .byte   W96
@  #04 @149   ----------------------------------------
 .byte   W96
@  #04 @150   ----------------------------------------
 .byte   W96
@  #04 @151   ----------------------------------------
 .byte   W96
@  #04 @152   ----------------------------------------
 .byte   W96
@  #04 @153   ----------------------------------------
 .byte   W96
@  #04 @154   ----------------------------------------
 .byte   W96
@  #04 @155   ----------------------------------------
 .byte   W96
@  #04 @156   ----------------------------------------
 .byte   W96
@  #04 @157   ----------------------------------------
 .byte   W96
@  #04 @158   ----------------------------------------
 .byte   W96
@  #04 @159   ----------------------------------------
 .byte   W96
@  #04 @160   ----------------------------------------
 .byte   PATT
  .word Label_010268A7
@  #04 @161   ----------------------------------------
 .byte   PATT
  .word Label_010268B2
@  #04 @162   ----------------------------------------
 .byte   PATT
  .word Label_010268C3
@  #04 @163   ----------------------------------------
 .byte   PATT
  .word Label_010268D8
@  #04 @164   ----------------------------------------
 .byte   PATT
  .word Label_0102691B
@  #04 @165   ----------------------------------------
 .byte   PATT
  .word Label_0102692E
@  #04 @166   ----------------------------------------
 .byte   PATT
  .word Label_01026935
@  #04 @167   ----------------------------------------
 .byte   EOT
 .byte   Gn1
 .byte   W24
 .byte   W01
@  #04 @168   ----------------------------------------
 .byte   PATT
  .word Label_0102693C
@  #04 @169   ----------------------------------------
 .byte   PATT
  .word Label_01026943
@  #04 @170   ----------------------------------------
 .byte   PATT
  .word Label_0102694A
@  #04 @171   ----------------------------------------
 .byte   W96
@  #04 @172   ----------------------------------------
 .byte   W96
@  #04 @173   ----------------------------------------
 .byte   W96
@  #04 @174   ----------------------------------------
 .byte   W96
@  #04 @175   ----------------------------------------
 .byte   PATT
  .word Label_01026955
@  #04 @176   ----------------------------------------
 .byte   PATT
  .word Label_01026963
@  #04 @177   ----------------------------------------
 .byte   PATT
  .word Label_01026989
@  #04 @178   ----------------------------------------
 .byte   W96
@  #04 @179   ----------------------------------------
 .byte   W96
@  #04 @180   ----------------------------------------
 .byte   W96
@  #04 @181   ----------------------------------------
 .byte   W96
@  #04 @182   ----------------------------------------
 .byte   W96
@  #04 @183   ----------------------------------------
 .byte   W96
@  #04 @184   ----------------------------------------
 .byte   W96
@  #04 @185   ----------------------------------------
 .byte   W96
@  #04 @186   ----------------------------------------
 .byte   W96
@  #04 @187   ----------------------------------------
 .byte   W96
@  #04 @188   ----------------------------------------
 .byte   W96
@  #04 @189   ----------------------------------------
 .byte   W96
@  #04 @190   ----------------------------------------
 .byte   W96
@  #04 @191   ----------------------------------------
 .byte   W96
@  #04 @192   ----------------------------------------
 .byte   W96
@  #04 @193   ----------------------------------------
 .byte   W96
@  #04 @194   ----------------------------------------
 .byte   W96
@  #04 @195   ----------------------------------------
 .byte   W96
@  #04 @196   ----------------------------------------
 .byte   W96
@  #04 @197   ----------------------------------------
 .byte   PATT
  .word Label_010268A7
@  #04 @198   ----------------------------------------
 .byte   PATT
  .word Label_010268B2
@  #04 @199   ----------------------------------------
 .byte   PATT
  .word Label_010268C3
@  #04 @200   ----------------------------------------
 .byte   PATT
  .word Label_010268D8
@  #04 @201   ----------------------------------------
 .byte   PATT
  .word Label_0102691B
@  #04 @202   ----------------------------------------
 .byte   PATT
  .word Label_0102692E
@  #04 @203   ----------------------------------------
 .byte   PATT
  .word Label_01026935
@  #04 @204   ----------------------------------------
 .byte   EOT
 .byte   Gn1
 .byte   W24
 .byte   W01
@  #04 @205   ----------------------------------------
 .byte   PATT
  .word Label_0102693C
@  #04 @206   ----------------------------------------
 .byte   PATT
  .word Label_01026943
@  #04 @207   ----------------------------------------
 .byte   PATT
  .word Label_0102694A
@  #04 @208   ----------------------------------------
 .byte   W96
@  #04 @209   ----------------------------------------
 .byte   W96
@  #04 @210   ----------------------------------------
 .byte   W96
@  #04 @211   ----------------------------------------
 .byte   W96
@  #04 @212   ----------------------------------------
 .byte   PATT
  .word Label_01026955
@  #04 @213   ----------------------------------------
 .byte   PATT
  .word Label_01026963
@  #04 @214   ----------------------------------------
 .byte   PATT
  .word Label_01026989
@  #04 @215   ----------------------------------------
 .byte   W96
@  #04 @216   ----------------------------------------
 .byte   W96
@  #04 @217   ----------------------------------------
 .byte   W96
@  #04 @218   ----------------------------------------
 .byte   W96
@  #04 @219   ----------------------------------------
 .byte   W96
@  #04 @220   ----------------------------------------
 .byte   W96
@  #04 @221   ----------------------------------------
 .byte   W96
@  #04 @222   ----------------------------------------
 .byte   W96
@  #04 @223   ----------------------------------------
 .byte   W96
@  #04 @224   ----------------------------------------
 .byte   W96
@  #04 @225   ----------------------------------------
 .byte   W96
@  #04 @226   ----------------------------------------
 .byte   W96
@  #04 @227   ----------------------------------------
 .byte   W96
@  #04 @228   ----------------------------------------
 .byte   W96
@  #04 @229   ----------------------------------------
 .byte   W96
@  #04 @230   ----------------------------------------
 .byte   W96
@  #04 @231   ----------------------------------------
 .byte   W96
@  #04 @232   ----------------------------------------
 .byte   W96
@  #04 @233   ----------------------------------------
 .byte   W96
@  #04 @234   ----------------------------------------
 .byte   PATT
  .word Label_010268A7
@  #04 @235   ----------------------------------------
 .byte   PATT
  .word Label_010268B2
@  #04 @236   ----------------------------------------
 .byte   PATT
  .word Label_010268C3
@  #04 @237   ----------------------------------------
 .byte   PATT
  .word Label_010268D8
@  #04 @238   ----------------------------------------
 .byte   PATT
  .word Label_0102691B
@  #04 @239   ----------------------------------------
 .byte   PATT
  .word Label_0102692E
@  #04 @240   ----------------------------------------
 .byte   PATT
  .word Label_01026935
@  #04 @241   ----------------------------------------
 .byte   EOT
 .byte   Gn1
 .byte   W24
 .byte   W01
@  #04 @242   ----------------------------------------
 .byte   PATT
  .word Label_0102693C
@  #04 @243   ----------------------------------------
 .byte   PATT
  .word Label_01026943
@  #04 @244   ----------------------------------------
 .byte   PATT
  .word Label_0102694A
@  #04 @245   ----------------------------------------
 .byte   W96
@  #04 @246   ----------------------------------------
 .byte   W96
@  #04 @247   ----------------------------------------
 .byte   W96
@  #04 @248   ----------------------------------------
 .byte   W96
@  #04 @249   ----------------------------------------
 .byte   PATT
  .word Label_01026955
@  #04 @250   ----------------------------------------
 .byte   PATT
  .word Label_01026963
@  #04 @251   ----------------------------------------
 .byte   PATT
  .word Label_01026989
@  #04 @252   ----------------------------------------
 .byte   W96
@  #04 @253   ----------------------------------------
 .byte   W96
@  #04 @254   ----------------------------------------
 .byte   W96
@  #04 @255   ----------------------------------------
 .byte   W96
@  #04 @256   ----------------------------------------
 .byte   W96
@  #04 @257   ----------------------------------------
 .byte   W96
@  #04 @258   ----------------------------------------
 .byte   W96
@  #04 @259   ----------------------------------------
 .byte   W96
@  #04 @260   ----------------------------------------
 .byte   W96
@  #04 @261   ----------------------------------------
 .byte   W96
@  #04 @262   ----------------------------------------
 .byte   W96
@  #04 @263   ----------------------------------------
 .byte   W96
@  #04 @264   ----------------------------------------
 .byte   W96
@  #04 @265   ----------------------------------------
 .byte   W96
@  #04 @266   ----------------------------------------
 .byte   W96
@  #04 @267   ----------------------------------------
 .byte   W96
@  #04 @268   ----------------------------------------
 .byte   W96
@  #04 @269   ----------------------------------------
 .byte   W96
@  #04 @270   ----------------------------------------
 .byte   W96
@  #04 @271   ----------------------------------------
 .byte   PATT
  .word Label_010268A7
@  #04 @272   ----------------------------------------
 .byte   PATT
  .word Label_010268B2
@  #04 @273   ----------------------------------------
 .byte   PATT
  .word Label_010268C3
@  #04 @274   ----------------------------------------
 .byte   PATT
  .word Label_010268D8
@  #04 @275   ----------------------------------------
 .byte   PATT
  .word Label_0102691B
@  #04 @276   ----------------------------------------
 .byte   PATT
  .word Label_0102692E
@  #04 @277   ----------------------------------------
 .byte   PATT
  .word Label_01026935
@  #04 @278   ----------------------------------------
 .byte   EOT
 .byte   Gn1
 .byte   W24
 .byte   W01
@  #04 @279   ----------------------------------------
 .byte   PATT
  .word Label_0102693C
@  #04 @280   ----------------------------------------
 .byte   PATT
  .word Label_01026943
@  #04 @281   ----------------------------------------
 .byte   PATT
  .word Label_0102694A
@  #04 @282   ----------------------------------------
 .byte   W96
@  #04 @283   ----------------------------------------
 .byte   W96
@  #04 @284   ----------------------------------------
 .byte   W96
@  #04 @285   ----------------------------------------
 .byte   W96
@  #04 @286   ----------------------------------------
 .byte   PATT
  .word Label_01026955
@  #04 @287   ----------------------------------------
 .byte   PATT
  .word Label_01026963
@  #04 @288   ----------------------------------------
 .byte   PATT
  .word Label_01026989
@  #04 @289   ----------------------------------------
 .byte   W96
@  #04 @290   ----------------------------------------
 .byte   W96
@  #04 @291   ----------------------------------------
 .byte   W96
@  #04 @292   ----------------------------------------
 .byte   W96
@  #04 @293   ----------------------------------------
 .byte   W96
@  #04 @294   ----------------------------------------
 .byte   W96
@  #04 @295   ----------------------------------------
 .byte   W96
@  #04 @296   ----------------------------------------
 .byte   W96
@  #04 @297   ----------------------------------------
 .byte   W96
@  #04 @298   ----------------------------------------
 .byte   W96
@  #04 @299   ----------------------------------------
 .byte   W96
@  #04 @300   ----------------------------------------
 .byte   W96
@  #04 @301   ----------------------------------------
 .byte   W96
@  #04 @302   ----------------------------------------
 .byte   W96
@  #04 @303   ----------------------------------------
 .byte   W96
@  #04 @304   ----------------------------------------
 .byte   W96
@  #04 @305   ----------------------------------------
 .byte   W96
@  #04 @306   ----------------------------------------
 .byte   W96
@  #04 @307   ----------------------------------------
 .byte   W96
@  #04 @308   ----------------------------------------
 .byte   PATT
  .word Label_010268A7
@  #04 @309   ----------------------------------------
 .byte   PATT
  .word Label_010268B2
@  #04 @310   ----------------------------------------
 .byte   PATT
  .word Label_010268C3
@  #04 @311   ----------------------------------------
 .byte   PATT
  .word Label_010268D8
@  #04 @312   ----------------------------------------
 .byte   PATT
  .word Label_0102691B
@  #04 @313   ----------------------------------------
 .byte   PATT
  .word Label_0102692E
@  #04 @314   ----------------------------------------
 .byte   PATT
  .word Label_01026935
@  #04 @315   ----------------------------------------
 .byte   EOT
 .byte   Gn1
 .byte   W24
 .byte   W01
@  #04 @316   ----------------------------------------
 .byte   PATT
  .word Label_0102693C
@  #04 @317   ----------------------------------------
 .byte   PATT
  .word Label_01026943
@  #04 @318   ----------------------------------------
 .byte   PATT
  .word Label_0102694A
@  #04 @319   ----------------------------------------
 .byte   W96
@  #04 @320   ----------------------------------------
 .byte   W96
@  #04 @321   ----------------------------------------
 .byte   W96
@  #04 @322   ----------------------------------------
 .byte   W96
@  #04 @323   ----------------------------------------
 .byte   PATT
  .word Label_01026955
@  #04 @324   ----------------------------------------
 .byte   PATT
  .word Label_01026963
@  #04 @325   ----------------------------------------
 .byte   PATT
  .word Label_01026989
@  #04 @326   ----------------------------------------
 .byte   W96
@  #04 @327   ----------------------------------------
 .byte   W96
@  #04 @328   ----------------------------------------
 .byte   W96
@  #04 @329   ----------------------------------------
 .byte   W96
@  #04 @330   ----------------------------------------
 .byte   W96
@  #04 @331   ----------------------------------------
 .byte   W96
@  #04 @332   ----------------------------------------
 .byte   W96
@  #04 @333   ----------------------------------------
 .byte   W96
@  #04 @334   ----------------------------------------
 .byte   W96
@  #04 @335   ----------------------------------------
 .byte   W96
@  #04 @336   ----------------------------------------
 .byte   W96
@  #04 @337   ----------------------------------------
 .byte   W96
@  #04 @338   ----------------------------------------
 .byte   W96
@  #04 @339   ----------------------------------------
 .byte   W96
@  #04 @340   ----------------------------------------
 .byte   W96
@  #04 @341   ----------------------------------------
 .byte   W96
@  #04 @342   ----------------------------------------
 .byte   W96
@  #04 @343   ----------------------------------------
 .byte   W96
@  #04 @344   ----------------------------------------
 .byte   W96
@  #04 @345   ----------------------------------------
 .byte   PATT
  .word Label_010268A7
@  #04 @346   ----------------------------------------
 .byte   PATT
  .word Label_010268B2
@  #04 @347   ----------------------------------------
 .byte   PATT
  .word Label_010268C3
@  #04 @348   ----------------------------------------
 .byte   PATT
  .word Label_010268D8
@  #04 @349   ----------------------------------------
 .byte   PATT
  .word Label_0102691B
@  #04 @350   ----------------------------------------
 .byte   PATT
  .word Label_0102692E
@  #04 @351   ----------------------------------------
 .byte   PATT
  .word Label_01026935
@  #04 @352   ----------------------------------------
 .byte   EOT
 .byte   Gn1
 .byte   W24
 .byte   W01
@  #04 @353   ----------------------------------------
 .byte   PATT
  .word Label_0102693C
@  #04 @354   ----------------------------------------
 .byte   PATT
  .word Label_01026943
@  #04 @355   ----------------------------------------
 .byte   PATT
  .word Label_0102694A
@  #04 @356   ----------------------------------------
 .byte   W96
@  #04 @357   ----------------------------------------
 .byte   W96
@  #04 @358   ----------------------------------------
 .byte   W96
@  #04 @359   ----------------------------------------
 .byte   W96
@  #04 @360   ----------------------------------------
 .byte   PATT
  .word Label_01026955
@  #04 @361   ----------------------------------------
 .byte   PATT
  .word Label_01026963
@  #04 @362   ----------------------------------------
 .byte   PATT
  .word Label_01026989
@  #04 @363   ----------------------------------------
 .byte   W96
@  #04 @364   ----------------------------------------
 .byte   W96
@  #04 @365   ----------------------------------------
 .byte   W96
@  #04 @366   ----------------------------------------
 .byte   W96
@  #04 @367   ----------------------------------------
 .byte   W96
@  #04 @368   ----------------------------------------
 .byte   W96
@  #04 @369   ----------------------------------------
 .byte   W96
@  #04 @370   ----------------------------------------
 .byte   W96
@  #04 @371   ----------------------------------------
 .byte   W96
@  #04 @372   ----------------------------------------
 .byte   W96
@  #04 @373   ----------------------------------------
 .byte   W92
 .byte   W03
 .byte   FINE

@**************** Track 5 (Midi-Chn.4) ****************@

song06_005:
@  #05 @000   ----------------------------------------
 .byte   KEYSH , song06_key+0
 .byte   VOICE , 7
 .byte   VOL , 57*song06_mvl/mxv
 .byte   PAN , c_v+0
 .byte   N44 ,Dn1 ,v080
 .byte   W06
 .byte   N05 ,Dn3
 .byte   W06
 .byte   Fn3
 .byte   W06
 .byte   An3
 .byte   W06
 .byte   Dn4
 .byte   W06
 .byte   Cs4
 .byte   W06
 .byte   Dn4
 .byte   W06
 .byte   An3
 .byte   W06
 .byte   N44 ,Gn1
 .byte   W06
 .byte   N05 ,Dn3
 .byte   W06
 .byte   An3
 .byte   W06
 .byte   Dn4
 .byte   W06
 .byte   En4
 .byte   W06
 .byte   Dn4
 .byte   W06
 .byte   En4
 .byte   W06
 .byte   An3
 .byte   W06
@  #05 @001   ----------------------------------------
 .byte   N23 ,Fn1
 .byte   W06
 .byte   N05 ,Dn3
 .byte   W06
 .byte   An3
 .byte   W06
 .byte   Dn4
 .byte   W06
 .byte   N11 ,Gn1
 .byte   N05 ,Fn4
 .byte   W06
 .byte   En4
 .byte   W06
 .byte   N11 ,Gs1
 .byte   N05 ,Fn4
 .byte   W06
 .byte   Dn4
 .byte   W06
 .byte   N11 ,An1
 .byte   N05 ,Cs4
 .byte   W06
 .byte   Bn3
 .byte   W06
 .byte   N11 ,Gn1
 .byte   N05 ,Cs4
 .byte   W06
 .byte   An3
 .byte   W06
 .byte   N11 ,Fn1
 .byte   N05 ,Dn4
 .byte   W06
 .byte   An4
 .byte   W06
 .byte   N11 ,Dn1
 .byte   N05 ,As4
 .byte   W06
 .byte   Gn4
 .byte   W06
@  #05 @002   ----------------------------------------
Label_01032209:
 .byte   N23 ,Dn2 ,v080
 .byte   N05 ,Fn4
 .byte   W06
 .byte   An4
 .byte   W06
 .byte   N11 ,Dn5
 .byte   W12
 .byte   N23 ,En1
 .byte   N05 ,Cs5
 .byte   W06
 .byte   An4
 .byte   W06
 .byte   N11 ,Gn4
 .byte   W12
 .byte   N23 ,Dn1
 .byte   N05 ,Fn4
 .byte   W06
 .byte   An4
 .byte   W06
 .byte   N11 ,Fn5
 .byte   W12
 .byte   Gn1
 .byte   N11 ,Dn2
 .byte   N05 ,En5
 .byte   W06
 .byte   Dn5
 .byte   W06
 .byte   N11 ,An1
 .byte   N11 ,En2
 .byte   N02 ,Cs5
 .byte   W03
 .byte   Dn5
 .byte   W03
 .byte   N05 ,En5
 .byte   W06
 .byte   PEND 
@  #05 @003   ----------------------------------------
Label_0103223D:
 .byte   N11 ,An2 ,v080
 .byte   N05 ,Dn5
 .byte   W06
 .byte   Cs5
 .byte   W06
 .byte   N11 ,Gs2
 .byte   N05 ,Dn5
 .byte   W06
 .byte   Cs5
 .byte   W06
 .byte   N11 ,Gn2
 .byte   N05 ,Dn5
 .byte   W06
 .byte   Cs5
 .byte   W06
 .byte   N11 ,Fs2
 .byte   N05 ,Dn5
 .byte   W06
 .byte   Cs5
 .byte   W06
 .byte   N11 ,Fn2
 .byte   N05 ,Dn5
 .byte   W06
 .byte   An4
 .byte   W06
 .byte   N11 ,En2
 .byte   N05 ,Gn4
 .byte   W06
 .byte   Fn4
 .byte   W06
 .byte   N11 ,Dn2
 .byte   N05 ,En4
 .byte   W06
 .byte   Dn4
 .byte   W06
 .byte   N11 ,An1
 .byte   N11 ,An2
 .byte   N05 ,Cs4
 .byte   W06
 .byte   An3
 .byte   W06
 .byte   PEND 
@  #05 @004   ----------------------------------------
Label_01032279:
 .byte   N23 ,As1 ,v080
 .byte   N23 ,Gn2
 .byte   W06
 .byte   N05 ,As3
 .byte   W06
 .byte   An3
 .byte   W06
 .byte   Gn3
 .byte   W06
 .byte   N23 ,Bn1
 .byte   N23 ,Gs2
 .byte   N05 ,Fn3
 .byte   W06
 .byte   En3
 .byte   W06
 .byte   N02 ,Cs3
 .byte   W03
 .byte   Dn3
 .byte   W03
 .byte   N05 ,Cs3
 .byte   W06
 .byte   N11 ,Dn2
 .byte   N11 ,Fn2
 .byte   N11 ,An2
 .byte   N11 ,Dn3
 .byte   N11 ,Fn3
 .byte   W24
 .byte   En2
 .byte   N11 ,Gn2
 .byte   N11 ,An2
 .byte   N11 ,Cs3
 .byte   N11 ,En3
 .byte   N11 ,Gn3
 .byte   W24
 .byte   PEND 
@  #05 @005   ----------------------------------------
Label_010322AF:
 .byte   N44 ,Dn2 ,v080
 .byte   N44 ,Fn2
 .byte   N44 ,An2
 .byte   N11 ,Dn3
 .byte   W12
 .byte   Fn3
 .byte   W12
 .byte   N02 ,En3
 .byte   W03
 .byte   Fn3
 .byte   W03
 .byte   En3
 .byte   W03
 .byte   Fn3
 .byte   W03
 .byte   N56 ,Dn3
 .byte   W12
 .byte   N11 ,An1
 .byte   W12
 .byte   Fn1
 .byte   W12
 .byte   N23 ,Dn1
 .byte   W24
 .byte   PEND 
@  #05 @006   ----------------------------------------
Label_010322D0:
 .byte   N44 ,Fn2 ,v080
 .byte   N11 ,Dn4
 .byte   W12
 .byte   PEND 
Label_010322D7:
 .byte   N11 ,An3 ,v080
 .byte   W12
 .byte   Gn3
 .byte   W12
 .byte   Dn3
 .byte   W12
 .byte   N44 ,En2
 .byte   N11 ,Cs4
 .byte   W12
 .byte   An3
 .byte   W12
 .byte   Gn3
 .byte   W12
 .byte   Cs3
 .byte   W12
@  #05 @007   ----------------------------------------
Label_010322EA:
 .byte   N44 ,Ds2 ,v080
 .byte   N11 ,Cn4
 .byte   W12
 .byte   An3
 .byte   W12
 .byte   Gn3
 .byte   W12
 .byte   Cn3
 .byte   W12
 .byte   N44 ,Dn2
 .byte   N11 ,Bn3
 .byte   W12
 .byte   Gn3
 .byte   W12
 .byte   Fn3
 .byte   W12
 .byte   Bn2
 .byte   W12
 .byte   PEND 
@  #05 @008   ----------------------------------------
Label_01032302:
 .byte   N44 ,Cs2 ,v080
 .byte   N11 ,As3
 .byte   W12
 .byte   Gn3
 .byte   W12
 .byte   Fn3
 .byte   W12
 .byte   As2
 .byte   W12
 .byte   N44 ,Cn2
 .byte   N11 ,An3
 .byte   W12
 .byte   Gn3
 .byte   W12
 .byte   Fn3
 .byte   W12
 .byte   An2
 .byte   W12
 .byte   PEND 
@  #05 @009   ----------------------------------------
Label_0103231A:
 .byte   N44 ,Bn1 ,v080
 .byte   N11 ,Gs3
 .byte   W12
 .byte   Fn3
 .byte   W12
 .byte   En3
 .byte   W12
 .byte   Gs2
 .byte   W12
 .byte   N05 ,Cs2
 .byte   N05 ,An2
 .byte   W06
 .byte   Dn2
 .byte   N05 ,Bn2
 .byte   W06
 .byte   En2
 .byte   N05 ,Cs3
 .byte   W06
 .byte   Fn2
 .byte   N05 ,Dn3
 .byte   W06
 .byte   Gn2
 .byte   N05 ,En3
 .byte   W06
 .byte   An2
 .byte   N05 ,Fn3
 .byte   W06
 .byte   Bn2
 .byte   N05 ,Gn3
 .byte   W06
 .byte   Cs3
 .byte   N05 ,An3
 .byte   W06
 .byte   PEND 
@  #05 @010   ----------------------------------------
Label_01032348:
 .byte   N23 ,Fn2 ,v080
 .byte   N11 ,Dn4
 .byte   W12
 .byte   An3
 .byte   W12
 .byte   Gn2
 .byte   N11 ,Gn3
 .byte   W12
 .byte   N05 ,Fn2
 .byte   N11 ,Dn3
 .byte   N11 ,Dn4
 .byte   W06
 .byte   N02 ,En2
 .byte   W03
 .byte   Fn2
 .byte   W03
 .byte   N23 ,En2
 .byte   N11 ,Cs4
 .byte   W12
 .byte   An3
 .byte   W12
 .byte   Fn2
 .byte   N11 ,Gn3
 .byte   W12
 .byte   Gn2
 .byte   N11 ,Cs3
 .byte   N11 ,Cs4
 .byte   W12
 .byte   PEND 
@  #05 @011   ----------------------------------------
Label_01032372:
 .byte   N11 ,An2 ,v080
 .byte   N11 ,Cn4
 .byte   W12
 .byte   As2
 .byte   N11 ,An3
 .byte   W12
 .byte   An2
 .byte   N11 ,Gn3
 .byte   W12
 .byte   Fn2
 .byte   N11 ,Fn3
 .byte   N11 ,Cn4
 .byte   W12
 .byte   N44 ,Gn2
 .byte   N11 ,Bn3
 .byte   W12
 .byte   Gn3
 .byte   W12
 .byte   Fn3
 .byte   W12
 .byte   Bn2
 .byte   N11 ,Bn3
 .byte   W12
 .byte   PEND 
@  #05 @012   ----------------------------------------
Label_01032394:
 .byte   N11 ,Gn2 ,v080
 .byte   N11 ,As3
 .byte   W12
 .byte   An2
 .byte   N11 ,Gn3
 .byte   W12
 .byte   Gn2
 .byte   N11 ,Fn3
 .byte   W12
 .byte   En2
 .byte   N11 ,As2
 .byte   N11 ,En3
 .byte   W12
 .byte   Fn2
 .byte   N11 ,An3
 .byte   W12
 .byte   As2
 .byte   N11 ,Gn3
 .byte   W12
 .byte   An2
 .byte   N11 ,Fn3
 .byte   W12
 .byte   Fn2
 .byte   N11 ,An2
 .byte   N11 ,Fn3
 .byte   W12
 .byte   PEND 
@  #05 @013   ----------------------------------------
Label_010323BB:
 .byte   N11 ,Gs2 ,v080
 .byte   N11 ,Gs3
 .byte   W12
 .byte   Fn2
 .byte   N11 ,Fn3
 .byte   W12
 .byte   En2
 .byte   N11 ,En3
 .byte   W12
 .byte   Gs1
 .byte   N11 ,Gs2
 .byte   W12
 .byte   N05 ,Cs2
 .byte   N05 ,An2
 .byte   W06
 .byte   Dn2
 .byte   N05 ,Bn2
 .byte   W06
 .byte   En2
 .byte   N05 ,Cs3
 .byte   W06
 .byte   Fs2
 .byte   N05 ,Dn3
 .byte   W06
 .byte   Gn2
 .byte   N05 ,En3
 .byte   W06
 .byte   An2
 .byte   N05 ,Fs3
 .byte   W06
 .byte   Bn2
 .byte   N05 ,Gn3
 .byte   W06
 .byte   Cs3
 .byte   N05 ,An3
 .byte   W06
 .byte   PEND 
@  #05 @014   ----------------------------------------
Label_010323EF:
 .byte   N23 ,As1 ,v080
 .byte   W06
 .byte   N05 ,Gn3
 .byte   W06
 .byte   As3
 .byte   W06
 .byte   Dn4
 .byte   W06
 .byte   N23 ,Cn2
 .byte   N05 ,Gn4
 .byte   W06
 .byte   Fs4
 .byte   W06
 .byte   Gn4
 .byte   W06
 .byte   Dn4
 .byte   W06
 .byte   N23 ,As1
 .byte   W06
 .byte   N05 ,Gn3
 .byte   W06
 .byte   Dn4
 .byte   W06
 .byte   Gn4
 .byte   W06
 .byte   N23 ,Cn2
 .byte   N05 ,An4
 .byte   W06
 .byte   Gn4
 .byte   W06
 .byte   An4
 .byte   W06
 .byte   Dn4
 .byte   W06
 .byte   PEND 
@  #05 @015   ----------------------------------------
Label_0103241B:
 .byte   N23 ,As1 ,v080
 .byte   W06
 .byte   N05 ,Gn3
 .byte   W06
 .byte   Dn4
 .byte   W06
 .byte   Gn4
 .byte   W06
 .byte   N11 ,Cn2
 .byte   N05 ,As4
 .byte   W06
 .byte   An4
 .byte   W06
 .byte   N11 ,Cs2
 .byte   N05 ,As4
 .byte   W06
 .byte   Gn4
 .byte   W06
 .byte   N11 ,Dn2
 .byte   N05 ,Fs4
 .byte   W06
 .byte   En4
 .byte   W06
 .byte   N11 ,Cn2
 .byte   N05 ,Fs4
 .byte   W06
 .byte   Dn4
 .byte   W06
 .byte   N23 ,As1
 .byte   N05 ,Gn4
 .byte   W06
 .byte   Dn4
 .byte   W06
 .byte   Ds4
 .byte   W06
 .byte   Cn4
 .byte   W06
 .byte   PEND 
@  #05 @016   ----------------------------------------
Label_0103244E:
 .byte   N11 ,Gn1 ,v080
 .byte   N11 ,Gn3
 .byte   W12
 .byte   Cn4
 .byte   W12
 .byte   An1
 .byte   N11 ,Ds4
 .byte   W12
 .byte   An3
 .byte   W12
 .byte   As1
 .byte   N11 ,Gn3
 .byte   W12
 .byte   As3
 .byte   W12
 .byte   An1
 .byte   N11 ,Fs4
 .byte   W12
 .byte   Dn4
 .byte   W12
 .byte   PEND 
@  #05 @017   ----------------------------------------
Label_01032469:
 .byte   N11 ,Dn2 ,v080
 .byte   N11 ,Dn4
 .byte   W48
 .byte   Dn2
 .byte   N11 ,Dn4
 .byte   W48
 .byte   PEND 
@  #05 @018   ----------------------------------------
Label_01032474:
 .byte   N11 ,Cn4 ,v080
 .byte   W12
 .byte   As3
 .byte   W12
 .byte   An3
 .byte   W12
 .byte   Fs3
 .byte   W12
 .byte   Gn3
 .byte   N11 ,As3
 .byte   N11 ,Dn4
 .byte   N11 ,Gn4
 .byte   W24
 .byte   Fs3
 .byte   N11 ,An3
 .byte   N11 ,Dn4
 .byte   N11 ,Fs4
 .byte   W24
 .byte   PEND 
@  #05 @019   ----------------------------------------
Label_0103248F:
 .byte   N11 ,Gn3 ,v080
 .byte   N11 ,As3
 .byte   N11 ,Dn4
 .byte   N11 ,Gn4
 .byte   W48
 .byte   PEND 
Label_0103249A:
 .byte   N11 ,Gn3 ,v080
 .byte   N11 ,As3
 .byte   N11 ,Dn4
 .byte   W48
@  #05 @020   ----------------------------------------
 .byte   Gn3
 .byte   N11 ,Cn4
 .byte   N11 ,Ds4
 .byte   W48
 .byte   PEND 
Label_010324A9:
 .byte   N11 ,Fn3 ,v080
 .byte   N11 ,An3
 .byte   N11 ,Ds4
 .byte   W48
@  #05 @021   ----------------------------------------
 .byte   Fn3
 .byte   N11 ,An3
 .byte   N11 ,Dn4
 .byte   W48
 .byte   PEND 
Label_010324B8:
 .byte   N11 ,Gn3 ,v080
 .byte   N11 ,An3
 .byte   N11 ,Dn4
 .byte   W48
@  #05 @022   ----------------------------------------
 .byte   Gn3
 .byte   N11 ,As3
 .byte   N11 ,Dn4
 .byte   W48
 .byte   PEND 
Label_010324C7:
 .byte   N11 ,Gn3 ,v080
 .byte   N11 ,As3
 .byte   N11 ,Dn4
 .byte   W48
@  #05 @023   ----------------------------------------
 .byte   Fs3
 .byte   N11 ,An3
 .byte   N11 ,Dn4
 .byte   W48
 .byte   PEND 
Label_010324D6:
 .byte   N44 ,Gn2 ,v080
 .byte   N11 ,Gn3
 .byte   N11 ,As3
 .byte   N11 ,Dn4
 .byte   W12
 .byte   Gn3
 .byte   W12
 .byte   As3
 .byte   W12
 .byte   Dn4
 .byte   W12
@  #05 @024   ----------------------------------------
 .byte   N44 ,Gn2
 .byte   N11 ,Gn3
 .byte   N11 ,As3
 .byte   N11 ,Ds4
 .byte   W12
 .byte   Gn3
 .byte   W12
 .byte   As3
 .byte   W12
 .byte   Cn4
 .byte   W12
 .byte   PEND 
Label_010324F6:
 .byte   N44 ,Fn2 ,v080
 .byte   N11 ,Fn3
 .byte   N11 ,An3
 .byte   N11 ,Cn4
 .byte   W12
 .byte   Fn3
 .byte   W12
 .byte   An3
 .byte   W12
 .byte   Cn4
 .byte   W12
@  #05 @025   ----------------------------------------
 .byte   N44 ,As1
 .byte   N11 ,Fn3
 .byte   N11 ,An3
 .byte   N11 ,Dn4
 .byte   W12
 .byte   As3
 .byte   W12
 .byte   An3
 .byte   W12
 .byte   Fn3
 .byte   W12
 .byte   PEND 
Label_01032516:
 .byte   N44 ,As2 ,v080
 .byte   N11 ,Gn3
 .byte   N11 ,As3
 .byte   N11 ,Dn4
 .byte   W12
 .byte   Gn3
 .byte   W12
 .byte   As3
 .byte   W12
 .byte   Dn4
 .byte   W12
@  #05 @026   ----------------------------------------
 .byte   N44 ,Gs2
 .byte   N11 ,Ds3
 .byte   N11 ,Gs3
 .byte   N11 ,Cn4
 .byte   W12
 .byte   N11
 .byte   W12
 .byte   Gs3
 .byte   W12
 .byte   Fn3
 .byte   W12
 .byte   PEND 
Label_01032536:
 .byte   N44 ,Cs2 ,v080
 .byte   N11 ,En3
 .byte   N11 ,Gn3
 .byte   N11 ,Cs4
 .byte   W12
 .byte   En3
 .byte   W12
 .byte   Gn3
 .byte   W12
 .byte   Cs4
 .byte   W12
@  #05 @027   ----------------------------------------
 .byte   N44 ,An1
 .byte   N11 ,En3
 .byte   N11 ,An3
 .byte   N11 ,Cs4
 .byte   W48
 .byte   PEND 
Label_01032550:
 .byte   N05 ,An1 ,v080
 .byte   W12
 .byte   Bn1
 .byte   W12
 .byte   Cs2
 .byte   W12
 .byte   En2
 .byte   W12
@  #05 @028   ----------------------------------------
 .byte   N44 ,An1
 .byte   N44 ,An3
 .byte   W48
 .byte   PEND 
 .byte   An1
 .byte   N44 ,An3
 .byte   W96
@  #05 @029   ----------------------------------------
 .byte   An1
 .byte   N44 ,An3
 .byte   W96
@  #05 @030   ----------------------------------------
Label_01032568:
 .byte   N44 ,Dn1 ,v080
 .byte   W06
 .byte   N05 ,Dn3
 .byte   W06
 .byte   Fn3
 .byte   W06
 .byte   An3
 .byte   W06
 .byte   Dn4
 .byte   W06
 .byte   Cs4
 .byte   W06
 .byte   Dn4
 .byte   W06
 .byte   An3
 .byte   W06
 .byte   N44 ,Dn1
 .byte   W06
 .byte   N05 ,Dn3
 .byte   W06
 .byte   An3
 .byte   W06
 .byte   Dn4
 .byte   W06
 .byte   En4
 .byte   W06
 .byte   Dn4
 .byte   W06
 .byte   En4
 .byte   W06
 .byte   An3
 .byte   W06
 .byte   PEND 
@  #05 @031   ----------------------------------------
Label_0103258E:
 .byte   N23 ,Dn1 ,v080
 .byte   W06
 .byte   N05 ,Dn3
 .byte   W06
 .byte   An3
 .byte   W06
 .byte   Dn4
 .byte   W06
 .byte   N11 ,Gn1
 .byte   N05 ,Fn4
 .byte   W06
 .byte   En4
 .byte   W06
 .byte   N11 ,Gs1
 .byte   N05 ,Fn4
 .byte   W06
 .byte   Dn4
 .byte   W06
 .byte   N11 ,An1
 .byte   N05 ,Cs4
 .byte   W06
 .byte   Bn3
 .byte   W06
 .byte   N11 ,Gn1
 .byte   N05 ,Cs4
 .byte   W06
 .byte   An3
 .byte   W06
 .byte   N23 ,Fn1
 .byte   N05 ,Dn4
 .byte   W06
 .byte   An4
 .byte   W06
 .byte   As4
 .byte   W06
 .byte   Gn4
 .byte   W06
 .byte   PEND 
@  #05 @032   ----------------------------------------
 .byte   PATT
  .word Label_01032209
@  #05 @033   ----------------------------------------
 .byte   PATT
  .word Label_0103223D
@  #05 @034   ----------------------------------------
Label_010325CB:
 .byte   N23 ,As1 ,v080
 .byte   N23 ,Gn2
 .byte   W06
 .byte   N05 ,As3
 .byte   W06
 .byte   An3
 .byte   W06
 .byte   Gn3
 .byte   W06
 .byte   N23 ,Bn1
 .byte   N23 ,Gs2
 .byte   N05 ,Fn3
 .byte   W06
 .byte   En3
 .byte   W06
 .byte   N02 ,Cs3
 .byte   W03
 .byte   Dn3
 .byte   W03
 .byte   N05 ,Cs3
 .byte   W06
 .byte   Dn1
 .byte   N05 ,Dn2
 .byte   N23 ,Dn3
 .byte   N23 ,Fn3
 .byte   W06
 .byte   N05 ,Gn1
 .byte   N05 ,Gn2
 .byte   W06
 .byte   Fn1
 .byte   N05 ,Fn2
 .byte   W06
 .byte   En1
 .byte   N05 ,En2
 .byte   W06
 .byte   Dn1
 .byte   N05 ,Cs2
 .byte   N23 ,Cs3
 .byte   N23 ,En3
 .byte   N23 ,Gn3
 .byte   W06
 .byte   N05 ,Cs1
 .byte   N05 ,An1
 .byte   W06
 .byte   Fn1
 .byte   W06
 .byte   An1
 .byte   W06
 .byte   PEND 
@  #05 @035   ----------------------------------------
Label_01032612:
 .byte   N44 ,As1 ,v080
 .byte   W06
 .byte   N05 ,Dn3
 .byte   W06
 .byte   Fn3
 .byte   W06
 .byte   An3
 .byte   W06
 .byte   Dn4
 .byte   W06
 .byte   Cs4
 .byte   W06
 .byte   Dn4
 .byte   W06
 .byte   An3
 .byte   W06
 .byte   N44 ,Gn2
 .byte   W06
 .byte   N05 ,Dn3
 .byte   W06
 .byte   An3
 .byte   W06
 .byte   Dn4
 .byte   W06
 .byte   En4
 .byte   W06
 .byte   Dn4
 .byte   W06
 .byte   En4
 .byte   W06
 .byte   An3
 .byte   W06
 .byte   PEND 
@  #05 @036   ----------------------------------------
Label_01032638:
 .byte   N23 ,Fn2 ,v080
 .byte   W06
 .byte   N05 ,Dn3
 .byte   W06
 .byte   An3
 .byte   W06
 .byte   Dn4
 .byte   W06
 .byte   N11 ,An1
 .byte   N11 ,Gn2
 .byte   N05 ,Fn4
 .byte   W06
 .byte   En4
 .byte   W06
 .byte   N11 ,Bn1
 .byte   N11 ,Gs2
 .byte   N05 ,Fn4
 .byte   W06
 .byte   Dn4
 .byte   W06
 .byte   N11 ,Cs2
 .byte   N11 ,An2
 .byte   N05 ,Cs4
 .byte   W06
 .byte   Bn3
 .byte   W06
 .byte   N11 ,An1
 .byte   N11 ,Gn2
 .byte   N05 ,Cs4
 .byte   W06
 .byte   An3
 .byte   W06
 .byte   N11 ,Fn1
 .byte   N11 ,Fn2
 .byte   N05 ,Dn4
 .byte   W06
 .byte   An4
 .byte   W06
 .byte   N11 ,Dn1
 .byte   N05 ,As4
 .byte   W06
 .byte   Gn4
 .byte   W06
 .byte   PEND 
@  #05 @037   ----------------------------------------
 .byte   PATT
  .word Label_01032209
@  #05 @038   ----------------------------------------
 .byte   PATT
  .word Label_0103223D
@  #05 @039   ----------------------------------------
 .byte   PATT
  .word Label_01032279
@  #05 @040   ----------------------------------------
 .byte   PATT
  .word Label_010322AF
@  #05 @041   ----------------------------------------
 .byte   PATT
  .word Label_010322D0
@  #05 @042   ----------------------------------------
 .byte   GOTO
  .word Label_010322D7
@  #05 @043   ----------------------------------------
 .byte   N11 ,An3 ,v080
 .byte   W12
 .byte   Gn3
 .byte   W12
 .byte   Dn3
 .byte   W12
 .byte   N44 ,En2
 .byte   N11 ,Cs4
 .byte   W12
 .byte   An3
 .byte   W12
 .byte   Gn3
 .byte   W12
 .byte   Cs3
 .byte   W12
@  #05 @044   ----------------------------------------
 .byte   PATT
  .word Label_010322EA
@  #05 @045   ----------------------------------------
 .byte   PATT
  .word Label_01032302
@  #05 @046   ----------------------------------------
 .byte   PATT
  .word Label_0103231A
@  #05 @047   ----------------------------------------
 .byte   PATT
  .word Label_01032348
@  #05 @048   ----------------------------------------
 .byte   PATT
  .word Label_01032372
@  #05 @049   ----------------------------------------
 .byte   PATT
  .word Label_01032394
@  #05 @050   ----------------------------------------
 .byte   PATT
  .word Label_010323BB
@  #05 @051   ----------------------------------------
 .byte   PATT
  .word Label_010323EF
@  #05 @052   ----------------------------------------
 .byte   PATT
  .word Label_0103241B
@  #05 @053   ----------------------------------------
 .byte   PATT
  .word Label_0103244E
@  #05 @054   ----------------------------------------
 .byte   PATT
  .word Label_01032469
@  #05 @055   ----------------------------------------
 .byte   PATT
  .word Label_01032474
@  #05 @056   ----------------------------------------
 .byte   PATT
  .word Label_0103248F
@  #05 @057   ----------------------------------------
 .byte   PATT
  .word Label_0103249A
@  #05 @058   ----------------------------------------
 .byte   PATT
  .word Label_010324A9
@  #05 @059   ----------------------------------------
 .byte   PATT
  .word Label_010324B8
@  #05 @060   ----------------------------------------
 .byte   PATT
  .word Label_010324C7
@  #05 @061   ----------------------------------------
 .byte   PATT
  .word Label_010324D6
@  #05 @062   ----------------------------------------
 .byte   PATT
  .word Label_010324F6
@  #05 @063   ----------------------------------------
 .byte   PATT
  .word Label_01032516
@  #05 @064   ----------------------------------------
 .byte   PATT
  .word Label_01032536
@  #05 @065   ----------------------------------------
 .byte   PATT
  .word Label_01032550
@  #05 @066   ----------------------------------------
 .byte   N44 ,An1 ,v080
 .byte   N44 ,An3
 .byte   W96
@  #05 @067   ----------------------------------------
 .byte   An1
 .byte   N44 ,An3
 .byte   W96
@  #05 @068   ----------------------------------------
 .byte   PATT
  .word Label_01032568
@  #05 @069   ----------------------------------------
 .byte   PATT
  .word Label_0103258E
@  #05 @070   ----------------------------------------
 .byte   PATT
  .word Label_01032209
@  #05 @071   ----------------------------------------
 .byte   PATT
  .word Label_0103223D
@  #05 @072   ----------------------------------------
 .byte   PATT
  .word Label_010325CB
@  #05 @073   ----------------------------------------
 .byte   PATT
  .word Label_01032612
@  #05 @074   ----------------------------------------
 .byte   PATT
  .word Label_01032638
@  #05 @075   ----------------------------------------
 .byte   PATT
  .word Label_01032209
@  #05 @076   ----------------------------------------
 .byte   PATT
  .word Label_0103223D
@  #05 @077   ----------------------------------------
 .byte   PATT
  .word Label_01032279
@  #05 @078   ----------------------------------------
 .byte   PATT
  .word Label_010322AF
@  #05 @079   ----------------------------------------
Label_01032758:
 .byte   N44 ,Fn2 ,v080
 .byte   N11 ,Dn4
 .byte   W12
 .byte   An3
 .byte   W12
 .byte   Gn3
 .byte   W12
 .byte   Dn3
 .byte   W12
 .byte   N44 ,En2
 .byte   N11 ,Cs4
 .byte   W12
 .byte   An3
 .byte   W12
 .byte   Gn3
 .byte   W12
 .byte   Cs3
 .byte   W12
 .byte   PEND 
@  #05 @080   ----------------------------------------
 .byte   PATT
  .word Label_010322EA
@  #05 @081   ----------------------------------------
 .byte   PATT
  .word Label_01032302
@  #05 @082   ----------------------------------------
 .byte   PATT
  .word Label_0103231A
@  #05 @083   ----------------------------------------
 .byte   PATT
  .word Label_01032348
@  #05 @084   ----------------------------------------
 .byte   PATT
  .word Label_01032372
@  #05 @085   ----------------------------------------
 .byte   PATT
  .word Label_01032394
@  #05 @086   ----------------------------------------
 .byte   PATT
  .word Label_010323BB
@  #05 @087   ----------------------------------------
 .byte   PATT
  .word Label_010323EF
@  #05 @088   ----------------------------------------
 .byte   PATT
  .word Label_0103241B
@  #05 @089   ----------------------------------------
 .byte   PATT
  .word Label_0103244E
@  #05 @090   ----------------------------------------
 .byte   PATT
  .word Label_01032469
@  #05 @091   ----------------------------------------
 .byte   PATT
  .word Label_01032474
@  #05 @092   ----------------------------------------
 .byte   PATT
  .word Label_0103248F
@  #05 @093   ----------------------------------------
 .byte   PATT
  .word Label_0103249A
@  #05 @094   ----------------------------------------
 .byte   PATT
  .word Label_010324A9
@  #05 @095   ----------------------------------------
 .byte   PATT
  .word Label_010324B8
@  #05 @096   ----------------------------------------
 .byte   PATT
  .word Label_010324C7
@  #05 @097   ----------------------------------------
 .byte   PATT
  .word Label_010324D6
@  #05 @098   ----------------------------------------
 .byte   PATT
  .word Label_010324F6
@  #05 @099   ----------------------------------------
 .byte   PATT
  .word Label_01032516
@  #05 @100   ----------------------------------------
 .byte   PATT
  .word Label_01032536
@  #05 @101   ----------------------------------------
 .byte   PATT
  .word Label_01032550
@  #05 @102   ----------------------------------------
 .byte   N44 ,An1 ,v080
 .byte   N44 ,An3
 .byte   W96
@  #05 @103   ----------------------------------------
 .byte   An1
 .byte   N44 ,An3
 .byte   W96
@  #05 @104   ----------------------------------------
 .byte   PATT
  .word Label_01032568
@  #05 @105   ----------------------------------------
 .byte   PATT
  .word Label_0103258E
@  #05 @106   ----------------------------------------
 .byte   PATT
  .word Label_01032209
@  #05 @107   ----------------------------------------
 .byte   PATT
  .word Label_0103223D
@  #05 @108   ----------------------------------------
 .byte   PATT
  .word Label_010325CB
@  #05 @109   ----------------------------------------
 .byte   PATT
  .word Label_01032612
@  #05 @110   ----------------------------------------
 .byte   PATT
  .word Label_01032638
@  #05 @111   ----------------------------------------
 .byte   PATT
  .word Label_01032209
@  #05 @112   ----------------------------------------
 .byte   PATT
  .word Label_0103223D
@  #05 @113   ----------------------------------------
 .byte   PATT
  .word Label_01032279
@  #05 @114   ----------------------------------------
 .byte   PATT
  .word Label_010322AF
@  #05 @115   ----------------------------------------
 .byte   PATT
  .word Label_01032758
@  #05 @116   ----------------------------------------
 .byte   PATT
  .word Label_010322EA
@  #05 @117   ----------------------------------------
 .byte   PATT
  .word Label_01032302
@  #05 @118   ----------------------------------------
 .byte   PATT
  .word Label_0103231A
@  #05 @119   ----------------------------------------
 .byte   PATT
  .word Label_01032348
@  #05 @120   ----------------------------------------
 .byte   PATT
  .word Label_01032372
@  #05 @121   ----------------------------------------
 .byte   PATT
  .word Label_01032394
@  #05 @122   ----------------------------------------
 .byte   PATT
  .word Label_010323BB
@  #05 @123   ----------------------------------------
 .byte   PATT
  .word Label_010323EF
@  #05 @124   ----------------------------------------
 .byte   PATT
  .word Label_0103241B
@  #05 @125   ----------------------------------------
 .byte   PATT
  .word Label_0103244E
@  #05 @126   ----------------------------------------
 .byte   PATT
  .word Label_01032469
@  #05 @127   ----------------------------------------
 .byte   PATT
  .word Label_01032474
@  #05 @128   ----------------------------------------
 .byte   PATT
  .word Label_0103248F
@  #05 @129   ----------------------------------------
 .byte   PATT
  .word Label_0103249A
@  #05 @130   ----------------------------------------
 .byte   PATT
  .word Label_010324A9
@  #05 @131   ----------------------------------------
 .byte   PATT
  .word Label_010324B8
@  #05 @132   ----------------------------------------
 .byte   PATT
  .word Label_010324C7
@  #05 @133   ----------------------------------------
 .byte   PATT
  .word Label_010324D6
@  #05 @134   ----------------------------------------
 .byte   PATT
  .word Label_010324F6
@  #05 @135   ----------------------------------------
 .byte   PATT
  .word Label_01032516
@  #05 @136   ----------------------------------------
 .byte   PATT
  .word Label_01032536
@  #05 @137   ----------------------------------------
 .byte   PATT
  .word Label_01032550
@  #05 @138   ----------------------------------------
 .byte   N44 ,An1 ,v080
 .byte   N44 ,An3
 .byte   W96
@  #05 @139   ----------------------------------------
 .byte   An1
 .byte   N44 ,An3
 .byte   W96
@  #05 @140   ----------------------------------------
 .byte   PATT
  .word Label_01032568
@  #05 @141   ----------------------------------------
 .byte   PATT
  .word Label_0103258E
@  #05 @142   ----------------------------------------
 .byte   PATT
  .word Label_01032209
@  #05 @143   ----------------------------------------
 .byte   PATT
  .word Label_0103223D
@  #05 @144   ----------------------------------------
 .byte   PATT
  .word Label_010325CB
@  #05 @145   ----------------------------------------
 .byte   PATT
  .word Label_01032612
@  #05 @146   ----------------------------------------
 .byte   PATT
  .word Label_01032638
@  #05 @147   ----------------------------------------
 .byte   PATT
  .word Label_01032209
@  #05 @148   ----------------------------------------
 .byte   PATT
  .word Label_0103223D
@  #05 @149   ----------------------------------------
 .byte   PATT
  .word Label_01032279
@  #05 @150   ----------------------------------------
 .byte   PATT
  .word Label_010322AF
@  #05 @151   ----------------------------------------
 .byte   PATT
  .word Label_01032758
@  #05 @152   ----------------------------------------
 .byte   PATT
  .word Label_010322EA
@  #05 @153   ----------------------------------------
 .byte   PATT
  .word Label_01032302
@  #05 @154   ----------------------------------------
 .byte   PATT
  .word Label_0103231A
@  #05 @155   ----------------------------------------
 .byte   PATT
  .word Label_01032348
@  #05 @156   ----------------------------------------
 .byte   PATT
  .word Label_01032372
@  #05 @157   ----------------------------------------
 .byte   PATT
  .word Label_01032394
@  #05 @158   ----------------------------------------
 .byte   PATT
  .word Label_010323BB
@  #05 @159   ----------------------------------------
 .byte   PATT
  .word Label_010323EF
@  #05 @160   ----------------------------------------
 .byte   PATT
  .word Label_0103241B
@  #05 @161   ----------------------------------------
 .byte   PATT
  .word Label_0103244E
@  #05 @162   ----------------------------------------
 .byte   PATT
  .word Label_01032469
@  #05 @163   ----------------------------------------
 .byte   PATT
  .word Label_01032474
@  #05 @164   ----------------------------------------
 .byte   PATT
  .word Label_0103248F
@  #05 @165   ----------------------------------------
 .byte   PATT
  .word Label_0103249A
@  #05 @166   ----------------------------------------
 .byte   PATT
  .word Label_010324A9
@  #05 @167   ----------------------------------------
 .byte   PATT
  .word Label_010324B8
@  #05 @168   ----------------------------------------
 .byte   PATT
  .word Label_010324C7
@  #05 @169   ----------------------------------------
 .byte   PATT
  .word Label_010324D6
@  #05 @170   ----------------------------------------
 .byte   PATT
  .word Label_010324F6
@  #05 @171   ----------------------------------------
 .byte   PATT
  .word Label_01032516
@  #05 @172   ----------------------------------------
 .byte   PATT
  .word Label_01032536
@  #05 @173   ----------------------------------------
 .byte   PATT
  .word Label_01032550
@  #05 @174   ----------------------------------------
 .byte   N44 ,An1 ,v080
 .byte   N44 ,An3
 .byte   W96
@  #05 @175   ----------------------------------------
 .byte   An1
 .byte   N44 ,An3
 .byte   W96
@  #05 @176   ----------------------------------------
 .byte   PATT
  .word Label_01032568
@  #05 @177   ----------------------------------------
 .byte   PATT
  .word Label_0103258E
@  #05 @178   ----------------------------------------
 .byte   PATT
  .word Label_01032209
@  #05 @179   ----------------------------------------
 .byte   PATT
  .word Label_0103223D
@  #05 @180   ----------------------------------------
 .byte   PATT
  .word Label_010325CB
@  #05 @181   ----------------------------------------
 .byte   PATT
  .word Label_01032612
@  #05 @182   ----------------------------------------
 .byte   PATT
  .word Label_01032638
@  #05 @183   ----------------------------------------
 .byte   PATT
  .word Label_01032209
@  #05 @184   ----------------------------------------
 .byte   PATT
  .word Label_0103223D
@  #05 @185   ----------------------------------------
 .byte   PATT
  .word Label_01032279
@  #05 @186   ----------------------------------------
 .byte   PATT
  .word Label_010322AF
@  #05 @187   ----------------------------------------
 .byte   PATT
  .word Label_01032758
@  #05 @188   ----------------------------------------
 .byte   PATT
  .word Label_010322EA
@  #05 @189   ----------------------------------------
 .byte   PATT
  .word Label_01032302
@  #05 @190   ----------------------------------------
 .byte   PATT
  .word Label_0103231A
@  #05 @191   ----------------------------------------
 .byte   PATT
  .word Label_01032348
@  #05 @192   ----------------------------------------
 .byte   PATT
  .word Label_01032372
@  #05 @193   ----------------------------------------
 .byte   PATT
  .word Label_01032394
@  #05 @194   ----------------------------------------
 .byte   PATT
  .word Label_010323BB
@  #05 @195   ----------------------------------------
 .byte   PATT
  .word Label_010323EF
@  #05 @196   ----------------------------------------
 .byte   PATT
  .word Label_0103241B
@  #05 @197   ----------------------------------------
 .byte   PATT
  .word Label_0103244E
@  #05 @198   ----------------------------------------
 .byte   PATT
  .word Label_01032469
@  #05 @199   ----------------------------------------
 .byte   PATT
  .word Label_01032474
@  #05 @200   ----------------------------------------
 .byte   PATT
  .word Label_0103248F
@  #05 @201   ----------------------------------------
 .byte   PATT
  .word Label_0103249A
@  #05 @202   ----------------------------------------
 .byte   PATT
  .word Label_010324A9
@  #05 @203   ----------------------------------------
 .byte   PATT
  .word Label_010324B8
@  #05 @204   ----------------------------------------
 .byte   PATT
  .word Label_010324C7
@  #05 @205   ----------------------------------------
 .byte   PATT
  .word Label_010324D6
@  #05 @206   ----------------------------------------
 .byte   PATT
  .word Label_010324F6
@  #05 @207   ----------------------------------------
 .byte   PATT
  .word Label_01032516
@  #05 @208   ----------------------------------------
 .byte   PATT
  .word Label_01032536
@  #05 @209   ----------------------------------------
 .byte   PATT
  .word Label_01032550
@  #05 @210   ----------------------------------------
 .byte   N44 ,An1 ,v080
 .byte   N44 ,An3
 .byte   W96
@  #05 @211   ----------------------------------------
 .byte   An1
 .byte   N44 ,An3
 .byte   W96
@  #05 @212   ----------------------------------------
 .byte   PATT
  .word Label_01032568
@  #05 @213   ----------------------------------------
 .byte   PATT
  .word Label_0103258E
@  #05 @214   ----------------------------------------
 .byte   PATT
  .word Label_01032209
@  #05 @215   ----------------------------------------
 .byte   PATT
  .word Label_0103223D
@  #05 @216   ----------------------------------------
 .byte   PATT
  .word Label_010325CB
@  #05 @217   ----------------------------------------
 .byte   PATT
  .word Label_01032612
@  #05 @218   ----------------------------------------
 .byte   PATT
  .word Label_01032638
@  #05 @219   ----------------------------------------
 .byte   PATT
  .word Label_01032209
@  #05 @220   ----------------------------------------
 .byte   PATT
  .word Label_0103223D
@  #05 @221   ----------------------------------------
 .byte   PATT
  .word Label_01032279
@  #05 @222   ----------------------------------------
 .byte   PATT
  .word Label_010322AF
@  #05 @223   ----------------------------------------
 .byte   PATT
  .word Label_01032758
@  #05 @224   ----------------------------------------
 .byte   PATT
  .word Label_010322EA
@  #05 @225   ----------------------------------------
 .byte   PATT
  .word Label_01032302
@  #05 @226   ----------------------------------------
 .byte   PATT
  .word Label_0103231A
@  #05 @227   ----------------------------------------
 .byte   PATT
  .word Label_01032348
@  #05 @228   ----------------------------------------
 .byte   PATT
  .word Label_01032372
@  #05 @229   ----------------------------------------
 .byte   PATT
  .word Label_01032394
@  #05 @230   ----------------------------------------
 .byte   PATT
  .word Label_010323BB
@  #05 @231   ----------------------------------------
 .byte   PATT
  .word Label_010323EF
@  #05 @232   ----------------------------------------
 .byte   PATT
  .word Label_0103241B
@  #05 @233   ----------------------------------------
 .byte   PATT
  .word Label_0103244E
@  #05 @234   ----------------------------------------
 .byte   PATT
  .word Label_01032469
@  #05 @235   ----------------------------------------
 .byte   PATT
  .word Label_01032474
@  #05 @236   ----------------------------------------
 .byte   PATT
  .word Label_0103248F
@  #05 @237   ----------------------------------------
 .byte   PATT
  .word Label_0103249A
@  #05 @238   ----------------------------------------
 .byte   PATT
  .word Label_010324A9
@  #05 @239   ----------------------------------------
 .byte   PATT
  .word Label_010324B8
@  #05 @240   ----------------------------------------
 .byte   PATT
  .word Label_010324C7
@  #05 @241   ----------------------------------------
 .byte   PATT
  .word Label_010324D6
@  #05 @242   ----------------------------------------
 .byte   PATT
  .word Label_010324F6
@  #05 @243   ----------------------------------------
 .byte   PATT
  .word Label_01032516
@  #05 @244   ----------------------------------------
 .byte   PATT
  .word Label_01032536
@  #05 @245   ----------------------------------------
 .byte   PATT
  .word Label_01032550
@  #05 @246   ----------------------------------------
 .byte   N44 ,An1 ,v080
 .byte   N44 ,An3
 .byte   W96
@  #05 @247   ----------------------------------------
 .byte   An1
 .byte   N44 ,An3
 .byte   W96
@  #05 @248   ----------------------------------------
 .byte   PATT
  .word Label_01032568
@  #05 @249   ----------------------------------------
 .byte   PATT
  .word Label_0103258E
@  #05 @250   ----------------------------------------
 .byte   PATT
  .word Label_01032209
@  #05 @251   ----------------------------------------
 .byte   PATT
  .word Label_0103223D
@  #05 @252   ----------------------------------------
 .byte   PATT
  .word Label_010325CB
@  #05 @253   ----------------------------------------
 .byte   PATT
  .word Label_01032612
@  #05 @254   ----------------------------------------
 .byte   PATT
  .word Label_01032638
@  #05 @255   ----------------------------------------
 .byte   PATT
  .word Label_01032209
@  #05 @256   ----------------------------------------
 .byte   PATT
  .word Label_0103223D
@  #05 @257   ----------------------------------------
 .byte   PATT
  .word Label_01032279
@  #05 @258   ----------------------------------------
 .byte   PATT
  .word Label_010322AF
@  #05 @259   ----------------------------------------
 .byte   PATT
  .word Label_01032758
@  #05 @260   ----------------------------------------
 .byte   PATT
  .word Label_010322EA
@  #05 @261   ----------------------------------------
 .byte   PATT
  .word Label_01032302
@  #05 @262   ----------------------------------------
 .byte   PATT
  .word Label_0103231A
@  #05 @263   ----------------------------------------
 .byte   PATT
  .word Label_01032348
@  #05 @264   ----------------------------------------
 .byte   PATT
  .word Label_01032372
@  #05 @265   ----------------------------------------
 .byte   PATT
  .word Label_01032394
@  #05 @266   ----------------------------------------
 .byte   PATT
  .word Label_010323BB
@  #05 @267   ----------------------------------------
 .byte   PATT
  .word Label_010323EF
@  #05 @268   ----------------------------------------
 .byte   PATT
  .word Label_0103241B
@  #05 @269   ----------------------------------------
 .byte   PATT
  .word Label_0103244E
@  #05 @270   ----------------------------------------
 .byte   PATT
  .word Label_01032469
@  #05 @271   ----------------------------------------
 .byte   PATT
  .word Label_01032474
@  #05 @272   ----------------------------------------
 .byte   PATT
  .word Label_0103248F
@  #05 @273   ----------------------------------------
 .byte   PATT
  .word Label_0103249A
@  #05 @274   ----------------------------------------
 .byte   PATT
  .word Label_010324A9
@  #05 @275   ----------------------------------------
 .byte   PATT
  .word Label_010324B8
@  #05 @276   ----------------------------------------
 .byte   PATT
  .word Label_010324C7
@  #05 @277   ----------------------------------------
 .byte   PATT
  .word Label_010324D6
@  #05 @278   ----------------------------------------
 .byte   PATT
  .word Label_010324F6
@  #05 @279   ----------------------------------------
 .byte   PATT
  .word Label_01032516
@  #05 @280   ----------------------------------------
 .byte   PATT
  .word Label_01032536
@  #05 @281   ----------------------------------------
 .byte   PATT
  .word Label_01032550
@  #05 @282   ----------------------------------------
 .byte   N44 ,An1 ,v080
 .byte   N44 ,An3
 .byte   W96
@  #05 @283   ----------------------------------------
 .byte   An1
 .byte   N44 ,An3
 .byte   W96
@  #05 @284   ----------------------------------------
 .byte   PATT
  .word Label_01032568
@  #05 @285   ----------------------------------------
 .byte   PATT
  .word Label_0103258E
@  #05 @286   ----------------------------------------
 .byte   PATT
  .word Label_01032209
@  #05 @287   ----------------------------------------
 .byte   PATT
  .word Label_0103223D
@  #05 @288   ----------------------------------------
 .byte   PATT
  .word Label_010325CB
@  #05 @289   ----------------------------------------
 .byte   PATT
  .word Label_01032612
@  #05 @290   ----------------------------------------
 .byte   PATT
  .word Label_01032638
@  #05 @291   ----------------------------------------
 .byte   PATT
  .word Label_01032209
@  #05 @292   ----------------------------------------
 .byte   PATT
  .word Label_0103223D
@  #05 @293   ----------------------------------------
 .byte   PATT
  .word Label_01032279
@  #05 @294   ----------------------------------------
 .byte   PATT
  .word Label_010322AF
@  #05 @295   ----------------------------------------
 .byte   PATT
  .word Label_01032758
@  #05 @296   ----------------------------------------
 .byte   PATT
  .word Label_010322EA
@  #05 @297   ----------------------------------------
 .byte   PATT
  .word Label_01032302
@  #05 @298   ----------------------------------------
 .byte   PATT
  .word Label_0103231A
@  #05 @299   ----------------------------------------
 .byte   PATT
  .word Label_01032348
@  #05 @300   ----------------------------------------
 .byte   PATT
  .word Label_01032372
@  #05 @301   ----------------------------------------
 .byte   PATT
  .word Label_01032394
@  #05 @302   ----------------------------------------
 .byte   PATT
  .word Label_010323BB
@  #05 @303   ----------------------------------------
 .byte   PATT
  .word Label_010323EF
@  #05 @304   ----------------------------------------
 .byte   PATT
  .word Label_0103241B
@  #05 @305   ----------------------------------------
 .byte   PATT
  .word Label_0103244E
@  #05 @306   ----------------------------------------
 .byte   PATT
  .word Label_01032469
@  #05 @307   ----------------------------------------
 .byte   PATT
  .word Label_01032474
@  #05 @308   ----------------------------------------
 .byte   PATT
  .word Label_0103248F
@  #05 @309   ----------------------------------------
 .byte   PATT
  .word Label_0103249A
@  #05 @310   ----------------------------------------
 .byte   PATT
  .word Label_010324A9
@  #05 @311   ----------------------------------------
 .byte   PATT
  .word Label_010324B8
@  #05 @312   ----------------------------------------
 .byte   PATT
  .word Label_010324C7
@  #05 @313   ----------------------------------------
 .byte   PATT
  .word Label_010324D6
@  #05 @314   ----------------------------------------
 .byte   PATT
  .word Label_010324F6
@  #05 @315   ----------------------------------------
 .byte   PATT
  .word Label_01032516
@  #05 @316   ----------------------------------------
 .byte   PATT
  .word Label_01032536
@  #05 @317   ----------------------------------------
 .byte   PATT
  .word Label_01032550
@  #05 @318   ----------------------------------------
 .byte   N44 ,An1 ,v080
 .byte   N44 ,An3
 .byte   W96
@  #05 @319   ----------------------------------------
 .byte   An1
 .byte   N44 ,An3
 .byte   W96
@  #05 @320   ----------------------------------------
 .byte   PATT
  .word Label_01032568
@  #05 @321   ----------------------------------------
 .byte   PATT
  .word Label_0103258E
@  #05 @322   ----------------------------------------
 .byte   PATT
  .word Label_01032209
@  #05 @323   ----------------------------------------
 .byte   PATT
  .word Label_0103223D
@  #05 @324   ----------------------------------------
 .byte   PATT
  .word Label_010325CB
@  #05 @325   ----------------------------------------
 .byte   PATT
  .word Label_01032612
@  #05 @326   ----------------------------------------
 .byte   PATT
  .word Label_01032638
@  #05 @327   ----------------------------------------
 .byte   PATT
  .word Label_01032209
@  #05 @328   ----------------------------------------
 .byte   PATT
  .word Label_0103223D
@  #05 @329   ----------------------------------------
 .byte   PATT
  .word Label_01032279
@  #05 @330   ----------------------------------------
 .byte   PATT
  .word Label_010322AF
@  #05 @331   ----------------------------------------
 .byte   PATT
  .word Label_01032758
@  #05 @332   ----------------------------------------
 .byte   PATT
  .word Label_010322EA
@  #05 @333   ----------------------------------------
 .byte   PATT
  .word Label_01032302
@  #05 @334   ----------------------------------------
 .byte   PATT
  .word Label_0103231A
@  #05 @335   ----------------------------------------
 .byte   PATT
  .word Label_01032348
@  #05 @336   ----------------------------------------
 .byte   PATT
  .word Label_01032372
@  #05 @337   ----------------------------------------
 .byte   PATT
  .word Label_01032394
@  #05 @338   ----------------------------------------
 .byte   PATT
  .word Label_010323BB
@  #05 @339   ----------------------------------------
 .byte   PATT
  .word Label_010323EF
@  #05 @340   ----------------------------------------
 .byte   PATT
  .word Label_0103241B
@  #05 @341   ----------------------------------------
 .byte   PATT
  .word Label_0103244E
@  #05 @342   ----------------------------------------
 .byte   PATT
  .word Label_01032469
@  #05 @343   ----------------------------------------
 .byte   PATT
  .word Label_01032474
@  #05 @344   ----------------------------------------
 .byte   PATT
  .word Label_0103248F
@  #05 @345   ----------------------------------------
 .byte   PATT
  .word Label_0103249A
@  #05 @346   ----------------------------------------
 .byte   PATT
  .word Label_010324A9
@  #05 @347   ----------------------------------------
 .byte   PATT
  .word Label_010324B8
@  #05 @348   ----------------------------------------
 .byte   PATT
  .word Label_010324C7
@  #05 @349   ----------------------------------------
 .byte   PATT
  .word Label_010324D6
@  #05 @350   ----------------------------------------
 .byte   PATT
  .word Label_010324F6
@  #05 @351   ----------------------------------------
 .byte   PATT
  .word Label_01032516
@  #05 @352   ----------------------------------------
 .byte   PATT
  .word Label_01032536
@  #05 @353   ----------------------------------------
 .byte   PATT
  .word Label_01032550
@  #05 @354   ----------------------------------------
 .byte   N44 ,An1 ,v080
 .byte   N44 ,An3
 .byte   W96
@  #05 @355   ----------------------------------------
 .byte   An1
 .byte   N44 ,An3
 .byte   W96
@  #05 @356   ----------------------------------------
 .byte   PATT
  .word Label_01032568
@  #05 @357   ----------------------------------------
 .byte   PATT
  .word Label_0103258E
@  #05 @358   ----------------------------------------
 .byte   PATT
  .word Label_01032209
@  #05 @359   ----------------------------------------
 .byte   PATT
  .word Label_0103223D
@  #05 @360   ----------------------------------------
 .byte   PATT
  .word Label_010325CB
@  #05 @361   ----------------------------------------
 .byte   PATT
  .word Label_01032612
@  #05 @362   ----------------------------------------
 .byte   PATT
  .word Label_01032638
@  #05 @363   ----------------------------------------
 .byte   PATT
  .word Label_01032209
@  #05 @364   ----------------------------------------
 .byte   PATT
  .word Label_0103223D
@  #05 @365   ----------------------------------------
 .byte   PATT
  .word Label_01032279
@  #05 @366   ----------------------------------------
 .byte   N44 ,Dn2 ,v080
 .byte   N44 ,Fn2
 .byte   N44 ,An2
 .byte   N11 ,Dn3
 .byte   W12
 .byte   Fn3
 .byte   W12
 .byte   N02 ,En3
 .byte   W03
 .byte   Fn3
 .byte   W03
 .byte   En3
 .byte   W03
 .byte   Fn3
 .byte   W03
 .byte   N56 ,Dn3
 .byte   W12
 .byte   N11 ,An1
 .byte   W12
 .byte   Fn1
 .byte   W12
 .byte   N23 ,Dn1
 .byte   W23
 .byte   FINE

@******************************************************@
	.align	2

song06:
	.byte	5	@ NumTrks
	.byte	0	@ NumBlks
	.byte	song06_pri	@ Priority
	.byte	song06_rev	@ Reverb.
    
	.word	song06_grp
    
	.word	song06_001
	.word	song06_002
	.word	song06_003
	.word	song06_004
	.word	song06_005

	.end
