//Event file generated from Sappy .s format.
	#include "MPlayDef.event"

	#define	PowerHungryFool_grp  voicegroup000
	#define	PowerHungryFool_pri  0
	#define	PowerHungryFool_rev  0
	#define	PowerHungryFool_mvl  127
	#define	PowerHungryFool_key  0
	#define	PowerHungryFool_tbs  1
	#define	PowerHungryFool_exg  0
	#define	PowerHungryFool_cmp  1

	// .rodata
	//	PowerHungryFool
	ALIGN 4


//**************** Track 1 (Midi-Chn.0) ****************//

PowerHungryFool_001:
//  #01 //000   ----------------------------------------
 BYTE   KEYSH   PowerHungryFool_key+0
 BYTE   TEMPO   100*PowerHungryFool_tbs/2
 BYTE   VOICE   40
 BYTE   VOL   57*PowerHungryFool_mvl/mxv
 BYTE   PAN   c_v-10
 BYTE   W96
//  #01 //001   ----------------------------------------
 BYTE   W96
//  #01 //002   ----------------------------------------
 BYTE   W96
//  #01 //003   ----------------------------------------
 BYTE   W96
//  #01 //004   ----------------------------------------
 BYTE   W96
//  #01 //005   ----------------------------------------
Label_01023F23:
 BYTE   W72
 BYTE   TEMPO   24*PowerHungryFool_tbs/2
 BYTE   W23
 BYTE   TEMPO   100*PowerHungryFool_tbs/2
 BYTE   W01
 BYTE   PEND 
//  #01 //006   ----------------------------------------
 BYTE   W12
Label_01023F2C:
 BYTE   W84
//  #01 //007   ----------------------------------------
 BYTE   W96
//  #01 //008   ----------------------------------------
 BYTE   W96
//  #01 //009   ----------------------------------------
 BYTE   W96
//  #01 //010   ----------------------------------------
 BYTE   W96
//  #01 //011   ----------------------------------------
 BYTE   W96
//  #01 //012   ----------------------------------------
 BYTE   W96
//  #01 //013   ----------------------------------------
Label_01023F33:
 BYTE   W48
 BYTE   N05  An3  v080
 BYTE   W06
 BYTE   Bn3
 BYTE   W06
 BYTE   Cs4
 BYTE   W06
 BYTE   Dn4
 BYTE   W06
 BYTE   En4
 BYTE   W06
 BYTE   Fs4
 BYTE   W06
 BYTE   Gn4
 BYTE   W06
 BYTE   An4
 BYTE   W06
 BYTE   PEND 
//  #01 //014   ----------------------------------------
Label_01023F47:
 BYTE   W06
 BYTE   N05  Gn3  v080
 BYTE   W06
 BYTE   As3
 BYTE   W06
 BYTE   Dn4
 BYTE   W06
 BYTE   Gn4
 BYTE   W06
 BYTE   Fs4
 BYTE   W06
 BYTE   Gn4
 BYTE   W06
 BYTE   Dn4
 BYTE   W12
 BYTE   Gn3
 BYTE   W06
 BYTE   Dn4
 BYTE   W06
 BYTE   Gn4
 BYTE   W06
 BYTE   An4
 BYTE   W06
 BYTE   Gn4
 BYTE   W06
 BYTE   An4
 BYTE   W06
 BYTE   Dn4
 BYTE   W06
 BYTE   PEND 
//  #01 //015   ----------------------------------------
Label_01023F67:
 BYTE   W06
 BYTE   N05  Gn3  v080
 BYTE   W06
 BYTE   Dn4
 BYTE   W06
 BYTE   Gn4
 BYTE   W06
 BYTE   As4
 BYTE   W06
 BYTE   An4
 BYTE   W06
 BYTE   As4
 BYTE   W06
 BYTE   Gn4
 BYTE   W06
 BYTE   Fs4
 BYTE   W06
 BYTE   En4
 BYTE   W06
 BYTE   Fs4
 BYTE   W06
 BYTE   Dn4
 BYTE   W06
 BYTE   Gn4
 BYTE   W06
 BYTE   Dn5
 BYTE   W06
 BYTE   Ds5
 BYTE   W06
 BYTE   Cn5
 BYTE   W06
 BYTE   PEND 
//  #01 //016   ----------------------------------------
Label_01023F89:
 BYTE   N05  As4  v080
 BYTE   W06
 BYTE   Dn5
 BYTE   W06
 BYTE   N11  Gn5
 BYTE   W12
 BYTE   N05  Fs5
 BYTE   W06
 BYTE   Dn5
 BYTE   W06
 BYTE   N11  Cn5
 BYTE   W12
 BYTE   N05  As4
 BYTE   W06
 BYTE   Dn5
 BYTE   W06
 BYTE   N11  As5
 BYTE   W12
 BYTE   N05  An5
 BYTE   W06
 BYTE   Gn5
 BYTE   W06
 BYTE   N02  Fs5
 BYTE   W03
 BYTE   Gn5
 BYTE   W03
 BYTE   N05  An5
 BYTE   W06
 BYTE   PEND 
//  #01 //017   ----------------------------------------
Label_01023FB0:
 BYTE   N02  Gn5  v080
 BYTE   W06
 BYTE   Fs5
 BYTE   W06
 BYTE   Gn5
 BYTE   W06
 BYTE   Fs5
 BYTE   W06
 BYTE   Gn5
 BYTE   W06
 BYTE   Fs5
 BYTE   W06
 BYTE   Gn5
 BYTE   W06
 BYTE   Fs5
 BYTE   W06
 BYTE   N05  Gn5
 BYTE   W06
 BYTE   Dn5
 BYTE   W06
 BYTE   Cn5
 BYTE   W06
 BYTE   As4
 BYTE   W06
 BYTE   An4
 BYTE   W06
 BYTE   Gn4
 BYTE   W06
 BYTE   Fs4
 BYTE   W06
 BYTE   Dn4
 BYTE   W06
 BYTE   PEND 
//  #01 //018   ----------------------------------------
Label_01023FD4:
 BYTE   W06
 BYTE   N05  Ds4  v080
 BYTE   W06
 BYTE   Dn4
 BYTE   W06
 BYTE   Cn4
 BYTE   W06
 BYTE   As3
 BYTE   W06
 BYTE   An3
 BYTE   W06
 BYTE   N02  Fs3
 BYTE   W03
 BYTE   Gn3
 BYTE   W03
 BYTE   N05  Fs3
 BYTE   W06
 BYTE   N11  As3
 BYTE   N11  Gn4
 BYTE   W24
 BYTE   An3
 BYTE   N11  Fs4
 BYTE   W24
 BYTE   PEND 
//  #01 //019   ----------------------------------------
Label_01023FF3:
 BYTE   TEMPO   78*PowerHungryFool_tbs/2
 BYTE   N11  As3  v080
 BYTE   N11  Gn4
 BYTE   W48
 BYTE   PEND 
Label_01023FFC:
 BYTE   N23  As3  v080
 BYTE   W24
 BYTE   Dn4
 BYTE   W24
//  #01 //020   ----------------------------------------
 BYTE   Ds4
 BYTE   W24
 BYTE   Cn4
 BYTE   W24
 BYTE   PEND 
Label_01024007:
 BYTE   N23  Ds4  v080
 BYTE   W24
 BYTE   Cn4
 BYTE   W24
//  #01 //021   ----------------------------------------
 BYTE   Dn4
 BYTE   W24
 BYTE   Gn3
 BYTE   W24
 BYTE   PEND 
Label_01024012:
 BYTE   N23  An3  v080
 BYTE   W24
 BYTE   Ds4
 BYTE   W24
//  #01 //022   ----------------------------------------
 BYTE   As3
 BYTE   W24
 BYTE   Cn4
 BYTE   W24
 BYTE   PEND 
Label_0102401D:
 BYTE   N23  As3  v080
 BYTE   W24
 BYTE   An3
 BYTE   W24
//  #01 //023   ----------------------------------------
 BYTE   Fs3
 BYTE   W24
 BYTE   Dn3
 BYTE   W24
 BYTE   PEND 
Label_01024028:
 BYTE   N23  Gn3  v080
 BYTE   W24
 BYTE   Dn4
 BYTE   W24
//  #01 //024   ----------------------------------------
 BYTE   Ds4
 BYTE   W24
 BYTE   An4
 BYTE   W24
 BYTE   PEND 
Label_01024033:
 BYTE   N23  An4  v080
 BYTE   W24
 BYTE   As4
 BYTE   W24
//  #01 //025   ----------------------------------------
 BYTE   An4
 BYTE   W24
 BYTE   Dn4
 BYTE   W24
 BYTE   PEND 
Label_0102403E:
 BYTE   N68  Gn4  v080
 BYTE   W72
//  #01 //026   ----------------------------------------
 BYTE   N23  Cn4
 BYTE   W24
 BYTE   PEND 
Label_01024046:
 BYTE   N23  Gn4  v080
 BYTE   W24
 BYTE   Cs4
 BYTE   W24
 BYTE   An3
 BYTE   W24
//  #01 //027   ----------------------------------------
 BYTE   En3
 BYTE   W24
 BYTE   PEND 
Label_01024051:
 BYTE   TEMPO   60*PowerHungryFool_tbs/2
 BYTE   N44  Cs3  v080
 BYTE   W48
 BYTE   N05
 BYTE   W12
 BYTE   Dn3
 BYTE   W12
//  #01 //028   ----------------------------------------
 BYTE   En3
 BYTE   W12
 BYTE   Fn3
 BYTE   W12
 BYTE   PEND 
Label_01024060:
 BYTE   TEMPO   78*PowerHungryFool_tbs/2
 BYTE   N44  Cs3  v080
 BYTE   W48
 BYTE   N23  En3
 BYTE   W24
//  #01 //029   ----------------------------------------
 BYTE   Fn3
 BYTE   W24
 BYTE   PEND 
Label_0102406C:
 BYTE   N44  An2  v080
 BYTE   W24
 BYTE   TEMPO   44*PowerHungryFool_tbs/2
 BYTE   W23
 BYTE   TEMPO   78*PowerHungryFool_tbs/2
 BYTE   W48
//  #01 //030   ----------------------------------------
 BYTE   W01
 BYTE   PEND 
 BYTE   TEMPO   100*PowerHungryFool_tbs/2
 BYTE   W96
//  #01 //031   ----------------------------------------
 BYTE   W96
//  #01 //032   ----------------------------------------
 BYTE   W96
//  #01 //033   ----------------------------------------
 BYTE   W96
//  #01 //034   ----------------------------------------
 BYTE   W96
//  #01 //035   ----------------------------------------
 BYTE   W96
//  #01 //036   ----------------------------------------
 BYTE   W96
//  #01 //037   ----------------------------------------
 BYTE   W96
//  #01 //038   ----------------------------------------
 BYTE   W96
//  #01 //039   ----------------------------------------
 BYTE   W96
//  #01 //040   ----------------------------------------
 BYTE   PATT
  POIN2 Label_01023F23
//  #01 //041   ----------------------------------------
 BYTE   W12
 BYTE   GoTo
  POIN2 Label_01023F2C
//  #01 //042   ----------------------------------------
 BYTE   W84
 BYTE   W96
//  #01 //043   ----------------------------------------
 BYTE   W96
//  #01 //044   ----------------------------------------
 BYTE   W96
//  #01 //045   ----------------------------------------
 BYTE   W96
//  #01 //046   ----------------------------------------
 BYTE   W96
//  #01 //047   ----------------------------------------
 BYTE   W96
//  #01 //048   ----------------------------------------
 BYTE   PATT
  POIN2 Label_01023F33
//  #01 //049   ----------------------------------------
 BYTE   PATT
  POIN2 Label_01023F47
//  #01 //050   ----------------------------------------
 BYTE   PATT
  POIN2 Label_01023F67
//  #01 //051   ----------------------------------------
 BYTE   PATT
  POIN2 Label_01023F89
//  #01 //052   ----------------------------------------
 BYTE   PATT
  POIN2 Label_01023FB0
//  #01 //053   ----------------------------------------
 BYTE   PATT
  POIN2 Label_01023FD4
//  #01 //054   ----------------------------------------
 BYTE   PATT
  POIN2 Label_01023FF3
//  #01 //055   ----------------------------------------
 BYTE   PATT
  POIN2 Label_01023FFC
//  #01 //056   ----------------------------------------
 BYTE   PATT
  POIN2 Label_01024007
//  #01 //057   ----------------------------------------
 BYTE   PATT
  POIN2 Label_01024012
//  #01 //058   ----------------------------------------
 BYTE   PATT
  POIN2 Label_0102401D
//  #01 //059   ----------------------------------------
 BYTE   PATT
  POIN2 Label_01024028
//  #01 //060   ----------------------------------------
 BYTE   PATT
  POIN2 Label_01024033
//  #01 //061   ----------------------------------------
 BYTE   PATT
  POIN2 Label_0102403E
//  #01 //062   ----------------------------------------
 BYTE   PATT
  POIN2 Label_01024046
//  #01 //063   ----------------------------------------
 BYTE   PATT
  POIN2 Label_01024051
//  #01 //064   ----------------------------------------
 BYTE   PATT
  POIN2 Label_01024060
//  #01 //065   ----------------------------------------
 BYTE   PATT
  POIN2 Label_0102406C
//  #01 //066   ----------------------------------------
 BYTE   TEMPO   100*PowerHungryFool_tbs/2
 BYTE   W96
//  #01 //067   ----------------------------------------
 BYTE   W96
//  #01 //068   ----------------------------------------
 BYTE   W96
//  #01 //069   ----------------------------------------
 BYTE   W96
//  #01 //070   ----------------------------------------
 BYTE   W96
//  #01 //071   ----------------------------------------
 BYTE   W96
//  #01 //072   ----------------------------------------
 BYTE   W96
//  #01 //073   ----------------------------------------
 BYTE   W96
//  #01 //074   ----------------------------------------
 BYTE   W96
//  #01 //075   ----------------------------------------
 BYTE   W96
//  #01 //076   ----------------------------------------
 BYTE   PATT
  POIN2 Label_01023F23
//  #01 //077   ----------------------------------------
 BYTE   W96
//  #01 //078   ----------------------------------------
 BYTE   W96
//  #01 //079   ----------------------------------------
 BYTE   W96
//  #01 //080   ----------------------------------------
 BYTE   W96
//  #01 //081   ----------------------------------------
 BYTE   W96
//  #01 //082   ----------------------------------------
 BYTE   W96
//  #01 //083   ----------------------------------------
 BYTE   W96
//  #01 //084   ----------------------------------------
 BYTE   PATT
  POIN2 Label_01023F33
//  #01 //085   ----------------------------------------
 BYTE   PATT
  POIN2 Label_01023F47
//  #01 //086   ----------------------------------------
 BYTE   PATT
  POIN2 Label_01023F67
//  #01 //087   ----------------------------------------
 BYTE   PATT
  POIN2 Label_01023F89
//  #01 //088   ----------------------------------------
 BYTE   PATT
  POIN2 Label_01023FB0
//  #01 //089   ----------------------------------------
 BYTE   PATT
  POIN2 Label_01023FD4
//  #01 //090   ----------------------------------------
 BYTE   PATT
  POIN2 Label_01023FF3
//  #01 //091   ----------------------------------------
 BYTE   PATT
  POIN2 Label_01023FFC
//  #01 //092   ----------------------------------------
 BYTE   PATT
  POIN2 Label_01024007
//  #01 //093   ----------------------------------------
 BYTE   PATT
  POIN2 Label_01024012
//  #01 //094   ----------------------------------------
 BYTE   PATT
  POIN2 Label_0102401D
//  #01 //095   ----------------------------------------
 BYTE   PATT
  POIN2 Label_01024028
//  #01 //096   ----------------------------------------
 BYTE   PATT
  POIN2 Label_01024033
//  #01 //097   ----------------------------------------
 BYTE   PATT
  POIN2 Label_0102403E
//  #01 //098   ----------------------------------------
 BYTE   PATT
  POIN2 Label_01024046
//  #01 //099   ----------------------------------------
 BYTE   PATT
  POIN2 Label_01024051
//  #01 //100   ----------------------------------------
 BYTE   PATT
  POIN2 Label_01024060
//  #01 //101   ----------------------------------------
 BYTE   PATT
  POIN2 Label_0102406C
//  #01 //102   ----------------------------------------
 BYTE   TEMPO   100*PowerHungryFool_tbs/2
 BYTE   W96
//  #01 //103   ----------------------------------------
 BYTE   W96
//  #01 //104   ----------------------------------------
 BYTE   W96
//  #01 //105   ----------------------------------------
 BYTE   W96
//  #01 //106   ----------------------------------------
 BYTE   W96
//  #01 //107   ----------------------------------------
 BYTE   W96
//  #01 //108   ----------------------------------------
 BYTE   W96
//  #01 //109   ----------------------------------------
 BYTE   W96
//  #01 //110   ----------------------------------------
 BYTE   W96
//  #01 //111   ----------------------------------------
 BYTE   W96
//  #01 //112   ----------------------------------------
 BYTE   PATT
  POIN2 Label_01023F23
//  #01 //113   ----------------------------------------
 BYTE   W96
//  #01 //114   ----------------------------------------
 BYTE   W96
//  #01 //115   ----------------------------------------
 BYTE   W96
//  #01 //116   ----------------------------------------
 BYTE   W96
//  #01 //117   ----------------------------------------
 BYTE   W96
//  #01 //118   ----------------------------------------
 BYTE   W96
//  #01 //119   ----------------------------------------
 BYTE   W96
//  #01 //120   ----------------------------------------
 BYTE   PATT
  POIN2 Label_01023F33
//  #01 //121   ----------------------------------------
 BYTE   PATT
  POIN2 Label_01023F47
//  #01 //122   ----------------------------------------
 BYTE   PATT
  POIN2 Label_01023F67
//  #01 //123   ----------------------------------------
 BYTE   PATT
  POIN2 Label_01023F89
//  #01 //124   ----------------------------------------
 BYTE   PATT
  POIN2 Label_01023FB0
//  #01 //125   ----------------------------------------
 BYTE   PATT
  POIN2 Label_01023FD4
//  #01 //126   ----------------------------------------
 BYTE   PATT
  POIN2 Label_01023FF3
//  #01 //127   ----------------------------------------
 BYTE   PATT
  POIN2 Label_01023FFC
//  #01 //128   ----------------------------------------
 BYTE   PATT
  POIN2 Label_01024007
//  #01 //129   ----------------------------------------
 BYTE   PATT
  POIN2 Label_01024012
//  #01 //130   ----------------------------------------
 BYTE   PATT
  POIN2 Label_0102401D
//  #01 //131   ----------------------------------------
 BYTE   PATT
  POIN2 Label_01024028
//  #01 //132   ----------------------------------------
 BYTE   PATT
  POIN2 Label_01024033
//  #01 //133   ----------------------------------------
 BYTE   PATT
  POIN2 Label_0102403E
//  #01 //134   ----------------------------------------
 BYTE   PATT
  POIN2 Label_01024046
//  #01 //135   ----------------------------------------
 BYTE   PATT
  POIN2 Label_01024051
//  #01 //136   ----------------------------------------
 BYTE   PATT
  POIN2 Label_01024060
//  #01 //137   ----------------------------------------
 BYTE   PATT
  POIN2 Label_0102406C
//  #01 //138   ----------------------------------------
 BYTE   TEMPO   100*PowerHungryFool_tbs/2
 BYTE   W96
//  #01 //139   ----------------------------------------
 BYTE   W96
//  #01 //140   ----------------------------------------
 BYTE   W96
//  #01 //141   ----------------------------------------
 BYTE   W96
//  #01 //142   ----------------------------------------
 BYTE   W96
//  #01 //143   ----------------------------------------
 BYTE   W96
//  #01 //144   ----------------------------------------
 BYTE   W96
//  #01 //145   ----------------------------------------
 BYTE   W96
//  #01 //146   ----------------------------------------
 BYTE   W96
//  #01 //147   ----------------------------------------
 BYTE   W96
//  #01 //148   ----------------------------------------
 BYTE   PATT
  POIN2 Label_01023F23
//  #01 //149   ----------------------------------------
 BYTE   W96
//  #01 //150   ----------------------------------------
 BYTE   W96
//  #01 //151   ----------------------------------------
 BYTE   W96
//  #01 //152   ----------------------------------------
 BYTE   W96
//  #01 //153   ----------------------------------------
 BYTE   W96
//  #01 //154   ----------------------------------------
 BYTE   W96
//  #01 //155   ----------------------------------------
 BYTE   W96
//  #01 //156   ----------------------------------------
 BYTE   PATT
  POIN2 Label_01023F33
//  #01 //157   ----------------------------------------
 BYTE   PATT
  POIN2 Label_01023F47
//  #01 //158   ----------------------------------------
 BYTE   PATT
  POIN2 Label_01023F67
//  #01 //159   ----------------------------------------
 BYTE   PATT
  POIN2 Label_01023F89
//  #01 //160   ----------------------------------------
 BYTE   PATT
  POIN2 Label_01023FB0
//  #01 //161   ----------------------------------------
 BYTE   PATT
  POIN2 Label_01023FD4
//  #01 //162   ----------------------------------------
 BYTE   PATT
  POIN2 Label_01023FF3
//  #01 //163   ----------------------------------------
 BYTE   PATT
  POIN2 Label_01023FFC
//  #01 //164   ----------------------------------------
 BYTE   PATT
  POIN2 Label_01024007
//  #01 //165   ----------------------------------------
 BYTE   PATT
  POIN2 Label_01024012
//  #01 //166   ----------------------------------------
 BYTE   PATT
  POIN2 Label_0102401D
//  #01 //167   ----------------------------------------
 BYTE   PATT
  POIN2 Label_01024028
//  #01 //168   ----------------------------------------
 BYTE   PATT
  POIN2 Label_01024033
//  #01 //169   ----------------------------------------
 BYTE   PATT
  POIN2 Label_0102403E
//  #01 //170   ----------------------------------------
 BYTE   PATT
  POIN2 Label_01024046
//  #01 //171   ----------------------------------------
 BYTE   PATT
  POIN2 Label_01024051
//  #01 //172   ----------------------------------------
 BYTE   PATT
  POIN2 Label_01024060
//  #01 //173   ----------------------------------------
 BYTE   PATT
  POIN2 Label_0102406C
//  #01 //174   ----------------------------------------
 BYTE   TEMPO   100*PowerHungryFool_tbs/2
 BYTE   W96
//  #01 //175   ----------------------------------------
 BYTE   W96
//  #01 //176   ----------------------------------------
 BYTE   W96
//  #01 //177   ----------------------------------------
 BYTE   W96
//  #01 //178   ----------------------------------------
 BYTE   W96
//  #01 //179   ----------------------------------------
 BYTE   W96
//  #01 //180   ----------------------------------------
 BYTE   W96
//  #01 //181   ----------------------------------------
 BYTE   W96
//  #01 //182   ----------------------------------------
 BYTE   W96
//  #01 //183   ----------------------------------------
 BYTE   W96
//  #01 //184   ----------------------------------------
 BYTE   PATT
  POIN2 Label_01023F23
//  #01 //185   ----------------------------------------
 BYTE   W96
//  #01 //186   ----------------------------------------
 BYTE   W96
//  #01 //187   ----------------------------------------
 BYTE   W96
//  #01 //188   ----------------------------------------
 BYTE   W96
//  #01 //189   ----------------------------------------
 BYTE   W96
//  #01 //190   ----------------------------------------
 BYTE   W96
//  #01 //191   ----------------------------------------
 BYTE   W96
//  #01 //192   ----------------------------------------
 BYTE   PATT
  POIN2 Label_01023F33
//  #01 //193   ----------------------------------------
 BYTE   PATT
  POIN2 Label_01023F47
//  #01 //194   ----------------------------------------
 BYTE   PATT
  POIN2 Label_01023F67
//  #01 //195   ----------------------------------------
 BYTE   PATT
  POIN2 Label_01023F89
//  #01 //196   ----------------------------------------
 BYTE   PATT
  POIN2 Label_01023FB0
//  #01 //197   ----------------------------------------
 BYTE   PATT
  POIN2 Label_01023FD4
//  #01 //198   ----------------------------------------
 BYTE   PATT
  POIN2 Label_01023FF3
//  #01 //199   ----------------------------------------
 BYTE   PATT
  POIN2 Label_01023FFC
//  #01 //200   ----------------------------------------
 BYTE   PATT
  POIN2 Label_01024007
//  #01 //201   ----------------------------------------
 BYTE   PATT
  POIN2 Label_01024012
//  #01 //202   ----------------------------------------
 BYTE   PATT
  POIN2 Label_0102401D
//  #01 //203   ----------------------------------------
 BYTE   PATT
  POIN2 Label_01024028
//  #01 //204   ----------------------------------------
 BYTE   PATT
  POIN2 Label_01024033
//  #01 //205   ----------------------------------------
 BYTE   PATT
  POIN2 Label_0102403E
//  #01 //206   ----------------------------------------
 BYTE   PATT
  POIN2 Label_01024046
//  #01 //207   ----------------------------------------
 BYTE   PATT
  POIN2 Label_01024051
//  #01 //208   ----------------------------------------
 BYTE   PATT
  POIN2 Label_01024060
//  #01 //209   ----------------------------------------
 BYTE   PATT
  POIN2 Label_0102406C
//  #01 //210   ----------------------------------------
 BYTE   TEMPO   100*PowerHungryFool_tbs/2
 BYTE   W96
//  #01 //211   ----------------------------------------
 BYTE   W96
//  #01 //212   ----------------------------------------
 BYTE   W96
//  #01 //213   ----------------------------------------
 BYTE   W96
//  #01 //214   ----------------------------------------
 BYTE   W96
//  #01 //215   ----------------------------------------
 BYTE   W96
//  #01 //216   ----------------------------------------
 BYTE   W96
//  #01 //217   ----------------------------------------
 BYTE   W96
//  #01 //218   ----------------------------------------
 BYTE   W96
//  #01 //219   ----------------------------------------
 BYTE   W96
//  #01 //220   ----------------------------------------
 BYTE   PATT
  POIN2 Label_01023F23
//  #01 //221   ----------------------------------------
 BYTE   W96
//  #01 //222   ----------------------------------------
 BYTE   W96
//  #01 //223   ----------------------------------------
 BYTE   W96
//  #01 //224   ----------------------------------------
 BYTE   W96
//  #01 //225   ----------------------------------------
 BYTE   W96
//  #01 //226   ----------------------------------------
 BYTE   W96
//  #01 //227   ----------------------------------------
 BYTE   W96
//  #01 //228   ----------------------------------------
 BYTE   PATT
  POIN2 Label_01023F33
//  #01 //229   ----------------------------------------
 BYTE   PATT
  POIN2 Label_01023F47
//  #01 //230   ----------------------------------------
 BYTE   PATT
  POIN2 Label_01023F67
//  #01 //231   ----------------------------------------
 BYTE   PATT
  POIN2 Label_01023F89
//  #01 //232   ----------------------------------------
 BYTE   PATT
  POIN2 Label_01023FB0
//  #01 //233   ----------------------------------------
 BYTE   PATT
  POIN2 Label_01023FD4
//  #01 //234   ----------------------------------------
 BYTE   PATT
  POIN2 Label_01023FF3
//  #01 //235   ----------------------------------------
 BYTE   PATT
  POIN2 Label_01023FFC
//  #01 //236   ----------------------------------------
 BYTE   PATT
  POIN2 Label_01024007
//  #01 //237   ----------------------------------------
 BYTE   PATT
  POIN2 Label_01024012
//  #01 //238   ----------------------------------------
 BYTE   PATT
  POIN2 Label_0102401D
//  #01 //239   ----------------------------------------
 BYTE   PATT
  POIN2 Label_01024028
//  #01 //240   ----------------------------------------
 BYTE   PATT
  POIN2 Label_01024033
//  #01 //241   ----------------------------------------
 BYTE   PATT
  POIN2 Label_0102403E
//  #01 //242   ----------------------------------------
 BYTE   PATT
  POIN2 Label_01024046
//  #01 //243   ----------------------------------------
 BYTE   PATT
  POIN2 Label_01024051
//  #01 //244   ----------------------------------------
 BYTE   PATT
  POIN2 Label_01024060
//  #01 //245   ----------------------------------------
 BYTE   PATT
  POIN2 Label_0102406C
//  #01 //246   ----------------------------------------
 BYTE   TEMPO   100*PowerHungryFool_tbs/2
 BYTE   W96
//  #01 //247   ----------------------------------------
 BYTE   W96
//  #01 //248   ----------------------------------------
 BYTE   W96
//  #01 //249   ----------------------------------------
 BYTE   W96
//  #01 //250   ----------------------------------------
 BYTE   W96
//  #01 //251   ----------------------------------------
 BYTE   W96
//  #01 //252   ----------------------------------------
 BYTE   W96
//  #01 //253   ----------------------------------------
 BYTE   W96
//  #01 //254   ----------------------------------------
 BYTE   W96
//  #01 //255   ----------------------------------------
 BYTE   W96
//  #01 //256   ----------------------------------------
 BYTE   PATT
  POIN2 Label_01023F23
//  #01 //257   ----------------------------------------
 BYTE   W96
//  #01 //258   ----------------------------------------
 BYTE   W96
//  #01 //259   ----------------------------------------
 BYTE   W96
//  #01 //260   ----------------------------------------
 BYTE   W96
//  #01 //261   ----------------------------------------
 BYTE   W96
//  #01 //262   ----------------------------------------
 BYTE   W96
//  #01 //263   ----------------------------------------
 BYTE   W96
//  #01 //264   ----------------------------------------
 BYTE   PATT
  POIN2 Label_01023F33
//  #01 //265   ----------------------------------------
 BYTE   PATT
  POIN2 Label_01023F47
//  #01 //266   ----------------------------------------
 BYTE   PATT
  POIN2 Label_01023F67
//  #01 //267   ----------------------------------------
 BYTE   PATT
  POIN2 Label_01023F89
//  #01 //268   ----------------------------------------
 BYTE   PATT
  POIN2 Label_01023FB0
//  #01 //269   ----------------------------------------
 BYTE   PATT
  POIN2 Label_01023FD4
//  #01 //270   ----------------------------------------
 BYTE   PATT
  POIN2 Label_01023FF3
//  #01 //271   ----------------------------------------
 BYTE   PATT
  POIN2 Label_01023FFC
//  #01 //272   ----------------------------------------
 BYTE   PATT
  POIN2 Label_01024007
//  #01 //273   ----------------------------------------
 BYTE   PATT
  POIN2 Label_01024012
//  #01 //274   ----------------------------------------
 BYTE   PATT
  POIN2 Label_0102401D
//  #01 //275   ----------------------------------------
 BYTE   PATT
  POIN2 Label_01024028
//  #01 //276   ----------------------------------------
 BYTE   PATT
  POIN2 Label_01024033
//  #01 //277   ----------------------------------------
 BYTE   PATT
  POIN2 Label_0102403E
//  #01 //278   ----------------------------------------
 BYTE   PATT
  POIN2 Label_01024046
//  #01 //279   ----------------------------------------
 BYTE   PATT
  POIN2 Label_01024051
//  #01 //280   ----------------------------------------
 BYTE   PATT
  POIN2 Label_01024060
//  #01 //281   ----------------------------------------
 BYTE   PATT
  POIN2 Label_0102406C
//  #01 //282   ----------------------------------------
 BYTE   TEMPO   100*PowerHungryFool_tbs/2
 BYTE   W96
//  #01 //283   ----------------------------------------
 BYTE   W96
//  #01 //284   ----------------------------------------
 BYTE   W96
//  #01 //285   ----------------------------------------
 BYTE   W96
//  #01 //286   ----------------------------------------
 BYTE   W96
//  #01 //287   ----------------------------------------
 BYTE   W96
//  #01 //288   ----------------------------------------
 BYTE   W96
//  #01 //289   ----------------------------------------
 BYTE   W96
//  #01 //290   ----------------------------------------
 BYTE   W96
//  #01 //291   ----------------------------------------
 BYTE   W96
//  #01 //292   ----------------------------------------
 BYTE   PATT
  POIN2 Label_01023F23
//  #01 //293   ----------------------------------------
 BYTE   W96
//  #01 //294   ----------------------------------------
 BYTE   W96
//  #01 //295   ----------------------------------------
 BYTE   W96
//  #01 //296   ----------------------------------------
 BYTE   W96
//  #01 //297   ----------------------------------------
 BYTE   W96
//  #01 //298   ----------------------------------------
 BYTE   W96
//  #01 //299   ----------------------------------------
 BYTE   W96
//  #01 //300   ----------------------------------------
 BYTE   PATT
  POIN2 Label_01023F33
//  #01 //301   ----------------------------------------
 BYTE   PATT
  POIN2 Label_01023F47
//  #01 //302   ----------------------------------------
 BYTE   PATT
  POIN2 Label_01023F67
//  #01 //303   ----------------------------------------
 BYTE   PATT
  POIN2 Label_01023F89
//  #01 //304   ----------------------------------------
 BYTE   PATT
  POIN2 Label_01023FB0
//  #01 //305   ----------------------------------------
 BYTE   PATT
  POIN2 Label_01023FD4
//  #01 //306   ----------------------------------------
 BYTE   PATT
  POIN2 Label_01023FF3
//  #01 //307   ----------------------------------------
 BYTE   PATT
  POIN2 Label_01023FFC
//  #01 //308   ----------------------------------------
 BYTE   PATT
  POIN2 Label_01024007
//  #01 //309   ----------------------------------------
 BYTE   PATT
  POIN2 Label_01024012
//  #01 //310   ----------------------------------------
 BYTE   PATT
  POIN2 Label_0102401D
//  #01 //311   ----------------------------------------
 BYTE   PATT
  POIN2 Label_01024028
//  #01 //312   ----------------------------------------
 BYTE   PATT
  POIN2 Label_01024033
//  #01 //313   ----------------------------------------
 BYTE   PATT
  POIN2 Label_0102403E
//  #01 //314   ----------------------------------------
 BYTE   PATT
  POIN2 Label_01024046
//  #01 //315   ----------------------------------------
 BYTE   PATT
  POIN2 Label_01024051
//  #01 //316   ----------------------------------------
 BYTE   PATT
  POIN2 Label_01024060
//  #01 //317   ----------------------------------------
 BYTE   PATT
  POIN2 Label_0102406C
//  #01 //318   ----------------------------------------
 BYTE   TEMPO   100*PowerHungryFool_tbs/2
 BYTE   W96
//  #01 //319   ----------------------------------------
 BYTE   W96
//  #01 //320   ----------------------------------------
 BYTE   W96
//  #01 //321   ----------------------------------------
 BYTE   W96
//  #01 //322   ----------------------------------------
 BYTE   W96
//  #01 //323   ----------------------------------------
 BYTE   W96
//  #01 //324   ----------------------------------------
 BYTE   W96
//  #01 //325   ----------------------------------------
 BYTE   W96
//  #01 //326   ----------------------------------------
 BYTE   W96
//  #01 //327   ----------------------------------------
 BYTE   W96
//  #01 //328   ----------------------------------------
 BYTE   PATT
  POIN2 Label_01023F23
//  #01 //329   ----------------------------------------
 BYTE   W96
//  #01 //330   ----------------------------------------
 BYTE   W96
//  #01 //331   ----------------------------------------
 BYTE   W96
//  #01 //332   ----------------------------------------
 BYTE   W96
//  #01 //333   ----------------------------------------
 BYTE   W96
//  #01 //334   ----------------------------------------
 BYTE   W96
//  #01 //335   ----------------------------------------
 BYTE   W96
//  #01 //336   ----------------------------------------
 BYTE   PATT
  POIN2 Label_01023F33
//  #01 //337   ----------------------------------------
 BYTE   PATT
  POIN2 Label_01023F47
//  #01 //338   ----------------------------------------
 BYTE   PATT
  POIN2 Label_01023F67
//  #01 //339   ----------------------------------------
 BYTE   PATT
  POIN2 Label_01023F89
//  #01 //340   ----------------------------------------
 BYTE   PATT
  POIN2 Label_01023FB0
//  #01 //341   ----------------------------------------
 BYTE   PATT
  POIN2 Label_01023FD4
//  #01 //342   ----------------------------------------
 BYTE   PATT
  POIN2 Label_01023FF3
//  #01 //343   ----------------------------------------
 BYTE   PATT
  POIN2 Label_01023FFC
//  #01 //344   ----------------------------------------
 BYTE   PATT
  POIN2 Label_01024007
//  #01 //345   ----------------------------------------
 BYTE   PATT
  POIN2 Label_01024012
//  #01 //346   ----------------------------------------
 BYTE   PATT
  POIN2 Label_0102401D
//  #01 //347   ----------------------------------------
 BYTE   PATT
  POIN2 Label_01024028
//  #01 //348   ----------------------------------------
 BYTE   PATT
  POIN2 Label_01024033
//  #01 //349   ----------------------------------------
 BYTE   PATT
  POIN2 Label_0102403E
//  #01 //350   ----------------------------------------
 BYTE   PATT
  POIN2 Label_01024046
//  #01 //351   ----------------------------------------
 BYTE   PATT
  POIN2 Label_01024051
//  #01 //352   ----------------------------------------
 BYTE   PATT
  POIN2 Label_01024060
//  #01 //353   ----------------------------------------
 BYTE   PATT
  POIN2 Label_0102406C
//  #01 //354   ----------------------------------------
 BYTE   TEMPO   100*PowerHungryFool_tbs/2
 BYTE   W96
//  #01 //355   ----------------------------------------
 BYTE   W96
//  #01 //356   ----------------------------------------
 BYTE   W96
//  #01 //357   ----------------------------------------
 BYTE   W96
//  #01 //358   ----------------------------------------
 BYTE   W96
//  #01 //359   ----------------------------------------
 BYTE   W96
//  #01 //360   ----------------------------------------
 BYTE   W96
//  #01 //361   ----------------------------------------
 BYTE   W96
//  #01 //362   ----------------------------------------
 BYTE   W96
//  #01 //363   ----------------------------------------
 BYTE   W96
//  #01 //364   ----------------------------------------
 BYTE   W72
 BYTE   TEMPO   24*PowerHungryFool_tbs/2
 BYTE   W23
 BYTE   TEMPO   100*PowerHungryFool_tbs/2
 BYTE   FINE

//**************** Track 2 (Midi-Chn.1) ****************//

PowerHungryFool_002:
//  #02 //000   ----------------------------------------
 BYTE   KEYSH   PowerHungryFool_key+0
 BYTE   VOICE   19
 BYTE   PAN   c_v+5
 BYTE   VOL   57*PowerHungryFool_mvl/mxv
 BYTE   N44  Dn1  v080
 BYTE   W06
 BYTE   N05  Dn3
 BYTE   W06
 BYTE   Fn3
 BYTE   W06
 BYTE   An3
 BYTE   W06
 BYTE   Dn4
 BYTE   W06
 BYTE   Cs4
 BYTE   W06
 BYTE   Dn4
 BYTE   W06
 BYTE   An3
 BYTE   W06
 BYTE   N44  Gn1
 BYTE   W06
 BYTE   N05  Dn3
 BYTE   W06
 BYTE   An3
 BYTE   W06
 BYTE   Dn4
 BYTE   W06
 BYTE   En4
 BYTE   W06
 BYTE   Dn4
 BYTE   W06
 BYTE   En4
 BYTE   W06
 BYTE   An3
 BYTE   W06
//  #02 //001   ----------------------------------------
 BYTE   N23  Fn1
 BYTE   W06
 BYTE   N05  Dn3
 BYTE   W06
 BYTE   An3
 BYTE   W06
 BYTE   Dn4
 BYTE   W06
 BYTE   N11  Gn1
 BYTE   N05  Fn4
 BYTE   W06
 BYTE   En4
 BYTE   W06
 BYTE   N11  Gs1
 BYTE   N05  Fn4
 BYTE   W06
 BYTE   Dn4
 BYTE   W06
 BYTE   N11  An1
 BYTE   N05  Cs4
 BYTE   W06
 BYTE   Bn3
 BYTE   W06
 BYTE   N11  Gn1
 BYTE   N05  Cs4
 BYTE   W06
 BYTE   An3
 BYTE   W06
 BYTE   N11  Fn1
 BYTE   N05  Dn4
 BYTE   W06
 BYTE   An4
 BYTE   W06
 BYTE   N11  Dn1
 BYTE   N05  As4
 BYTE   W06
 BYTE   Gn4
 BYTE   W06
//  #02 //002   ----------------------------------------
Label_01031689:
 BYTE   N23  Dn2  v080
 BYTE   N05  Fn4
 BYTE   W06
 BYTE   An4
 BYTE   W06
 BYTE   N11  Dn5
 BYTE   W12
 BYTE   N23  En1
 BYTE   N05  Cs5
 BYTE   W06
 BYTE   An4
 BYTE   W06
 BYTE   N11  Gn4
 BYTE   W12
 BYTE   N23  Dn1
 BYTE   N05  Fn4
 BYTE   W06
 BYTE   An4
 BYTE   W06
 BYTE   N11  Fn5
 BYTE   W12
 BYTE   Gn1
 BYTE   N11  Dn2
 BYTE   N05  En5
 BYTE   W06
 BYTE   Dn5
 BYTE   W06
 BYTE   N11  An1
 BYTE   N11  En2
 BYTE   N02  Cs5
 BYTE   W03
 BYTE   Dn5
 BYTE   W03
 BYTE   N05  En5
 BYTE   W06
 BYTE   PEND 
//  #02 //003   ----------------------------------------
Label_010316BD:
 BYTE   N11  An2  v080
 BYTE   N05  Dn5
 BYTE   W06
 BYTE   Cs5
 BYTE   W06
 BYTE   N11  Gs2
 BYTE   N05  Dn5
 BYTE   W06
 BYTE   Cs5
 BYTE   W06
 BYTE   N11  Gn2
 BYTE   N05  Dn5
 BYTE   W06
 BYTE   Cs5
 BYTE   W06
 BYTE   N11  Fs2
 BYTE   N05  Dn5
 BYTE   W06
 BYTE   Cs5
 BYTE   W06
 BYTE   N11  Fn2
 BYTE   N05  Dn5
 BYTE   W06
 BYTE   An4
 BYTE   W06
 BYTE   N11  En2
 BYTE   N05  Gn4
 BYTE   W06
 BYTE   Fn4
 BYTE   W06
 BYTE   N11  Dn2
 BYTE   N05  En4
 BYTE   W06
 BYTE   Dn4
 BYTE   W06
 BYTE   N11  An1
 BYTE   N11  An2
 BYTE   N05  Cs4
 BYTE   W06
 BYTE   An3
 BYTE   W06
 BYTE   PEND 
//  #02 //004   ----------------------------------------
Label_010316F9:
 BYTE   N23  As1  v080
 BYTE   N23  Gn2
 BYTE   W06
 BYTE   N05  As3
 BYTE   W06
 BYTE   An3
 BYTE   W06
 BYTE   Gn3
 BYTE   W06
 BYTE   N23  Bn1
 BYTE   N23  Gs2
 BYTE   N05  Fn3
 BYTE   W06
 BYTE   En3
 BYTE   W06
 BYTE   N02  Cs3
 BYTE   W03
 BYTE   Dn3
 BYTE   W03
 BYTE   N05  Cs3
 BYTE   W06
 BYTE   N11  Dn2
 BYTE   N11  Fn2
 BYTE   N11  An2
 BYTE   N11  Dn3
 BYTE   N11  Fn3
 BYTE   W24
 BYTE   En2
 BYTE   N11  Gn2
 BYTE   N11  An2
 BYTE   N11  Cs3
 BYTE   N11  En3
 BYTE   N11  Gn3
 BYTE   W24
 BYTE   PEND 
//  #02 //005   ----------------------------------------
Label_0103172F:
 BYTE   N44  Dn2  v080
 BYTE   N44  Fn2
 BYTE   N44  An2
 BYTE   N11  Dn3
 BYTE   W12
 BYTE   Fn3
 BYTE   W12
 BYTE   N02  En3
 BYTE   W03
 BYTE   Fn3
 BYTE   W03
 BYTE   En3
 BYTE   W03
 BYTE   Fn3
 BYTE   W03
 BYTE   N56  Dn3
 BYTE   W12
 BYTE   N11  An1
 BYTE   W12
 BYTE   Fn1
 BYTE   W12
 BYTE   N23  Dn1
 BYTE   W24
 BYTE   PEND 
//  #02 //006   ----------------------------------------
Label_01031750:
 BYTE   N44  Fn2  v080
 BYTE   N11  Dn4
 BYTE   W12
 BYTE   PEND 
Label_01031757:
 BYTE   N11  An3  v080
 BYTE   W12
 BYTE   Gn3
 BYTE   W12
 BYTE   Dn3
 BYTE   W12
 BYTE   N44  En2
 BYTE   N11  Cs4
 BYTE   W12
 BYTE   An3
 BYTE   W12
 BYTE   Gn3
 BYTE   W12
 BYTE   Cs3
 BYTE   W12
//  #02 //007   ----------------------------------------
Label_0103176A:
 BYTE   N44  Ds2  v080
 BYTE   N11  Cn4
 BYTE   W12
 BYTE   An3
 BYTE   W12
 BYTE   Gn3
 BYTE   W12
 BYTE   Cn3
 BYTE   W12
 BYTE   N44  Dn2
 BYTE   N11  Bn3
 BYTE   W12
 BYTE   Gn3
 BYTE   W12
 BYTE   Fn3
 BYTE   W12
 BYTE   Bn2
 BYTE   W12
 BYTE   PEND 
//  #02 //008   ----------------------------------------
Label_01031782:
 BYTE   N44  Cs2  v080
 BYTE   N11  As3
 BYTE   W12
 BYTE   Gn3
 BYTE   W12
 BYTE   Fn3
 BYTE   W12
 BYTE   As2
 BYTE   W12
 BYTE   N44  Cn2
 BYTE   N11  An3
 BYTE   W12
 BYTE   Gn3
 BYTE   W12
 BYTE   Fn3
 BYTE   W12
 BYTE   An2
 BYTE   W12
 BYTE   PEND 
//  #02 //009   ----------------------------------------
Label_0103179A:
 BYTE   N44  Bn1  v080
 BYTE   N11  Gs3
 BYTE   W12
 BYTE   Fn3
 BYTE   W12
 BYTE   En3
 BYTE   W12
 BYTE   Gs2
 BYTE   W12
 BYTE   N05  Cs2
 BYTE   N05  An2
 BYTE   W06
 BYTE   Dn2
 BYTE   N05  Bn2
 BYTE   W06
 BYTE   En2
 BYTE   N05  Cs3
 BYTE   W06
 BYTE   Fn2
 BYTE   N05  Dn3
 BYTE   W06
 BYTE   Gn2
 BYTE   N05  En3
 BYTE   W06
 BYTE   An2
 BYTE   N05  Fn3
 BYTE   W06
 BYTE   Bn2
 BYTE   N05  Gn3
 BYTE   W06
 BYTE   Cs3
 BYTE   N05  An3
 BYTE   W06
 BYTE   PEND 
//  #02 //010   ----------------------------------------
Label_010317C8:
 BYTE   N23  Fn2  v080
 BYTE   N11  Dn4
 BYTE   W12
 BYTE   An3
 BYTE   W12
 BYTE   Gn2
 BYTE   N11  Gn3
 BYTE   W12
 BYTE   N05  Fn2
 BYTE   N11  Dn3
 BYTE   N11  Dn4
 BYTE   W06
 BYTE   N02  En2
 BYTE   W03
 BYTE   Fn2
 BYTE   W03
 BYTE   N23  En2
 BYTE   N11  Cs4
 BYTE   W12
 BYTE   An3
 BYTE   W12
 BYTE   Fn2
 BYTE   N11  Gn3
 BYTE   W12
 BYTE   Gn2
 BYTE   N11  Cs3
 BYTE   N11  Cs4
 BYTE   W12
 BYTE   PEND 
//  #02 //011   ----------------------------------------
Label_010317F2:
 BYTE   N11  An2  v080
 BYTE   N11  Cn4
 BYTE   W12
 BYTE   As2
 BYTE   N11  An3
 BYTE   W12
 BYTE   An2
 BYTE   N11  Gn3
 BYTE   W12
 BYTE   Fn2
 BYTE   N11  Fn3
 BYTE   N11  Cn4
 BYTE   W12
 BYTE   N44  Gn2
 BYTE   N11  Bn3
 BYTE   W12
 BYTE   Gn3
 BYTE   W12
 BYTE   Fn3
 BYTE   W12
 BYTE   Bn2
 BYTE   N11  Bn3
 BYTE   W12
 BYTE   PEND 
//  #02 //012   ----------------------------------------
Label_01031814:
 BYTE   N11  Gn2  v080
 BYTE   N11  As3
 BYTE   W12
 BYTE   An2
 BYTE   N11  Gn3
 BYTE   W12
 BYTE   Gn2
 BYTE   N11  Fn3
 BYTE   W12
 BYTE   En2
 BYTE   N11  As2
 BYTE   N11  En3
 BYTE   W12
 BYTE   Fn2
 BYTE   N11  An3
 BYTE   W12
 BYTE   As2
 BYTE   N11  Gn3
 BYTE   W12
 BYTE   An2
 BYTE   N11  Fn3
 BYTE   W12
 BYTE   Fn2
 BYTE   N11  An2
 BYTE   N11  Fn3
 BYTE   W12
 BYTE   PEND 
//  #02 //013   ----------------------------------------
Label_0103183B:
 BYTE   N11  Gs2  v080
 BYTE   N11  Gs3
 BYTE   W12
 BYTE   Fn2
 BYTE   N11  Fn3
 BYTE   W12
 BYTE   En2
 BYTE   N11  En3
 BYTE   W12
 BYTE   Gs1
 BYTE   N11  Gs2
 BYTE   W12
 BYTE   N05  Cs2
 BYTE   N05  An2
 BYTE   W06
 BYTE   Dn2
 BYTE   N05  Bn2
 BYTE   W06
 BYTE   En2
 BYTE   N05  Cs3
 BYTE   W06
 BYTE   Fs2
 BYTE   N05  Dn3
 BYTE   W06
 BYTE   Gn2
 BYTE   N05  En3
 BYTE   W06
 BYTE   An2
 BYTE   N05  Fs3
 BYTE   W06
 BYTE   Bn2
 BYTE   N05  Gn3
 BYTE   W06
 BYTE   Cs3
 BYTE   N05  An3
 BYTE   W06
 BYTE   PEND 
//  #02 //014   ----------------------------------------
Label_0103186F:
 BYTE   N23  As1  v080
 BYTE   W06
 BYTE   N05  Gn3
 BYTE   W06
 BYTE   As3
 BYTE   W06
 BYTE   Dn4
 BYTE   W06
 BYTE   N23  Cn2
 BYTE   N05  Gn4
 BYTE   W06
 BYTE   Fs4
 BYTE   W06
 BYTE   Gn4
 BYTE   W06
 BYTE   Dn4
 BYTE   W06
 BYTE   N23  As1
 BYTE   W06
 BYTE   N05  Gn3
 BYTE   W06
 BYTE   Dn4
 BYTE   W06
 BYTE   Gn4
 BYTE   W06
 BYTE   N23  Cn2
 BYTE   N05  An4
 BYTE   W06
 BYTE   Gn4
 BYTE   W06
 BYTE   An4
 BYTE   W06
 BYTE   Dn4
 BYTE   W06
 BYTE   PEND 
//  #02 //015   ----------------------------------------
Label_0103189B:
 BYTE   N23  As1  v080
 BYTE   W06
 BYTE   N05  Gn3
 BYTE   W06
 BYTE   Dn4
 BYTE   W06
 BYTE   Gn4
 BYTE   W06
 BYTE   N11  Cn2
 BYTE   N05  As4
 BYTE   W06
 BYTE   An4
 BYTE   W06
 BYTE   N11  Cs2
 BYTE   N05  As4
 BYTE   W06
 BYTE   Gn4
 BYTE   W06
 BYTE   N11  Dn2
 BYTE   N05  Fs4
 BYTE   W06
 BYTE   En4
 BYTE   W06
 BYTE   N11  Cn2
 BYTE   N05  Fs4
 BYTE   W06
 BYTE   Dn4
 BYTE   W06
 BYTE   N23  As1
 BYTE   N05  Gn4
 BYTE   W06
 BYTE   Dn4
 BYTE   W06
 BYTE   Ds4
 BYTE   W06
 BYTE   Cn4
 BYTE   W06
 BYTE   PEND 
//  #02 //016   ----------------------------------------
Label_010318CE:
 BYTE   N11  Gn1  v080
 BYTE   N11  Gn3
 BYTE   W12
 BYTE   Cn4
 BYTE   W12
 BYTE   An1
 BYTE   N11  Ds4
 BYTE   W12
 BYTE   An3
 BYTE   W12
 BYTE   As1
 BYTE   N11  Gn3
 BYTE   W12
 BYTE   As3
 BYTE   W12
 BYTE   An1
 BYTE   N11  Fs4
 BYTE   W12
 BYTE   Dn4
 BYTE   W12
 BYTE   PEND 
//  #02 //017   ----------------------------------------
Label_010318E9:
 BYTE   N11  Dn2  v080
 BYTE   N11  Dn4
 BYTE   W48
 BYTE   Dn2
 BYTE   N11  Dn4
 BYTE   W48
 BYTE   PEND 
//  #02 //018   ----------------------------------------
Label_010318F4:
 BYTE   N11  Cn4  v080
 BYTE   W12
 BYTE   As3
 BYTE   W12
 BYTE   An3
 BYTE   W12
 BYTE   Fs3
 BYTE   W12
 BYTE   Gn3
 BYTE   N11  As3
 BYTE   N11  Dn4
 BYTE   N11  Gn4
 BYTE   W24
 BYTE   Fs3
 BYTE   N11  An3
 BYTE   N11  Dn4
 BYTE   N11  Fs4
 BYTE   W24
 BYTE   PEND 
//  #02 //019   ----------------------------------------
Label_0103190F:
 BYTE   N11  Gn3  v080
 BYTE   N11  As3
 BYTE   N11  Dn4
 BYTE   N11  Gn4
 BYTE   W48
 BYTE   PEND 
Label_0103191A:
 BYTE   N11  Gn3  v080
 BYTE   N11  As3
 BYTE   N11  Dn4
 BYTE   W48
//  #02 //020   ----------------------------------------
 BYTE   Gn3
 BYTE   N11  Cn4
 BYTE   N11  Ds4
 BYTE   W48
 BYTE   PEND 
Label_01031929:
 BYTE   N11  Fn3  v080
 BYTE   N11  An3
 BYTE   N11  Ds4
 BYTE   W48
//  #02 //021   ----------------------------------------
 BYTE   Fn3
 BYTE   N11  An3
 BYTE   N11  Dn4
 BYTE   W48
 BYTE   PEND 
Label_01031938:
 BYTE   N11  Gn3  v080
 BYTE   N11  An3
 BYTE   N11  Dn4
 BYTE   W48
//  #02 //022   ----------------------------------------
 BYTE   Gn3
 BYTE   N11  As3
 BYTE   N11  Dn4
 BYTE   W48
 BYTE   PEND 
Label_01031947:
 BYTE   N11  Gn3  v080
 BYTE   N11  As3
 BYTE   N11  Dn4
 BYTE   W48
//  #02 //023   ----------------------------------------
 BYTE   Fs3
 BYTE   N11  An3
 BYTE   N11  Dn4
 BYTE   W48
 BYTE   PEND 
Label_01031956:
 BYTE   N44  Gn2  v080
 BYTE   N11  Gn3
 BYTE   N11  As3
 BYTE   N11  Dn4
 BYTE   W12
 BYTE   Gn3
 BYTE   W12
 BYTE   As3
 BYTE   W12
 BYTE   Dn4
 BYTE   W12
//  #02 //024   ----------------------------------------
 BYTE   N44  Gn2
 BYTE   N11  Gn3
 BYTE   N11  As3
 BYTE   N11  Ds4
 BYTE   W12
 BYTE   Gn3
 BYTE   W12
 BYTE   As3
 BYTE   W12
 BYTE   Cn4
 BYTE   W12
 BYTE   PEND 
Label_01031976:
 BYTE   N44  Fn2  v080
 BYTE   N11  Fn3
 BYTE   N11  An3
 BYTE   N11  Cn4
 BYTE   W12
 BYTE   Fn3
 BYTE   W12
 BYTE   An3
 BYTE   W12
 BYTE   Cn4
 BYTE   W12
//  #02 //025   ----------------------------------------
 BYTE   N44  As1
 BYTE   N11  Fn3
 BYTE   N11  An3
 BYTE   N11  Dn4
 BYTE   W12
 BYTE   As3
 BYTE   W12
 BYTE   An3
 BYTE   W12
 BYTE   Fn3
 BYTE   W12
 BYTE   PEND 
Label_01031996:
 BYTE   N44  As2  v080
 BYTE   N11  Gn3
 BYTE   N11  As3
 BYTE   N11  Dn4
 BYTE   W12
 BYTE   Gn3
 BYTE   W12
 BYTE   As3
 BYTE   W12
 BYTE   Dn4
 BYTE   W12
//  #02 //026   ----------------------------------------
 BYTE   N44  Gs2
 BYTE   N11  Ds3
 BYTE   N11  Gs3
 BYTE   N11  Cn4
 BYTE   W12
 BYTE   N11
 BYTE   W12
 BYTE   Gs3
 BYTE   W12
 BYTE   Fn3
 BYTE   W12
 BYTE   PEND 
Label_010319B6:
 BYTE   N44  Cs2  v080
 BYTE   N11  En3
 BYTE   N11  Gn3
 BYTE   N11  Cs4
 BYTE   W12
 BYTE   En3
 BYTE   W12
 BYTE   Gn3
 BYTE   W12
 BYTE   Cs4
 BYTE   W12
//  #02 //027   ----------------------------------------
 BYTE   N44  An1
 BYTE   N11  En3
 BYTE   N11  An3
 BYTE   N11  Cs4
 BYTE   W48
 BYTE   PEND 
Label_010319D0:
 BYTE   N05  An1  v080
 BYTE   W12
 BYTE   Bn1
 BYTE   W12
 BYTE   Cs2
 BYTE   W12
 BYTE   En2
 BYTE   W12
//  #02 //028   ----------------------------------------
 BYTE   N44  An1
 BYTE   N44  An3
 BYTE   W48
 BYTE   PEND 
 BYTE   An1
 BYTE   N44  An3
 BYTE   W96
//  #02 //029   ----------------------------------------
 BYTE   An1
 BYTE   N44  An3
 BYTE   W96
//  #02 //030   ----------------------------------------
Label_010319E8:
 BYTE   N44  Dn1  v080
 BYTE   W06
 BYTE   N05  Dn3
 BYTE   W06
 BYTE   Fn3
 BYTE   W06
 BYTE   An3
 BYTE   W06
 BYTE   Dn4
 BYTE   W06
 BYTE   Cs4
 BYTE   W06
 BYTE   Dn4
 BYTE   W06
 BYTE   An3
 BYTE   W06
 BYTE   N44  Dn1
 BYTE   W06
 BYTE   N05  Dn3
 BYTE   W06
 BYTE   An3
 BYTE   W06
 BYTE   Dn4
 BYTE   W06
 BYTE   En4
 BYTE   W06
 BYTE   Dn4
 BYTE   W06
 BYTE   En4
 BYTE   W06
 BYTE   An3
 BYTE   W06
 BYTE   PEND 
//  #02 //031   ----------------------------------------
Label_01031A0E:
 BYTE   N23  Dn1  v080
 BYTE   W06
 BYTE   N05  Dn3
 BYTE   W06
 BYTE   An3
 BYTE   W06
 BYTE   Dn4
 BYTE   W06
 BYTE   N11  Gn1
 BYTE   N05  Fn4
 BYTE   W06
 BYTE   En4
 BYTE   W06
 BYTE   N11  Gs1
 BYTE   N05  Fn4
 BYTE   W06
 BYTE   Dn4
 BYTE   W06
 BYTE   N11  An1
 BYTE   N05  Cs4
 BYTE   W06
 BYTE   Bn3
 BYTE   W06
 BYTE   N11  Gn1
 BYTE   N05  Cs4
 BYTE   W06
 BYTE   An3
 BYTE   W06
 BYTE   N23  Fn1
 BYTE   N05  Dn4
 BYTE   W06
 BYTE   An4
 BYTE   W06
 BYTE   As4
 BYTE   W06
 BYTE   Gn4
 BYTE   W06
 BYTE   PEND 
//  #02 //032   ----------------------------------------
 BYTE   PATT
  POIN2 Label_01031689
//  #02 //033   ----------------------------------------
 BYTE   PATT
  POIN2 Label_010316BD
//  #02 //034   ----------------------------------------
Label_01031A4B:
 BYTE   N23  As1  v080
 BYTE   N23  Gn2
 BYTE   W06
 BYTE   N05  As3
 BYTE   W06
 BYTE   An3
 BYTE   W06
 BYTE   Gn3
 BYTE   W06
 BYTE   N23  Bn1
 BYTE   N23  Gs2
 BYTE   N05  Fn3
 BYTE   W06
 BYTE   En3
 BYTE   W06
 BYTE   N02  Cs3
 BYTE   W03
 BYTE   Dn3
 BYTE   W03
 BYTE   N05  Cs3
 BYTE   W06
 BYTE   Dn1
 BYTE   N05  Dn2
 BYTE   N23  Dn3
 BYTE   N23  Fn3
 BYTE   W06
 BYTE   N05  Gn1
 BYTE   N05  Gn2
 BYTE   W06
 BYTE   Fn1
 BYTE   N05  Fn2
 BYTE   W06
 BYTE   En1
 BYTE   N05  En2
 BYTE   W06
 BYTE   Dn1
 BYTE   N05  Cs2
 BYTE   N23  Cs3
 BYTE   N23  En3
 BYTE   N23  Gn3
 BYTE   W06
 BYTE   N05  Cs1
 BYTE   N05  An1
 BYTE   W06
 BYTE   Fn1
 BYTE   W06
 BYTE   An1
 BYTE   W06
 BYTE   PEND 
//  #02 //035   ----------------------------------------
Label_01031A92:
 BYTE   N44  As1  v080
 BYTE   W06
 BYTE   N05  Dn3
 BYTE   W06
 BYTE   Fn3
 BYTE   W06
 BYTE   An3
 BYTE   W06
 BYTE   Dn4
 BYTE   W06
 BYTE   Cs4
 BYTE   W06
 BYTE   Dn4
 BYTE   W06
 BYTE   An3
 BYTE   W06
 BYTE   N44  Gn2
 BYTE   W06
 BYTE   N05  Dn3
 BYTE   W06
 BYTE   An3
 BYTE   W06
 BYTE   Dn4
 BYTE   W06
 BYTE   En4
 BYTE   W06
 BYTE   Dn4
 BYTE   W06
 BYTE   En4
 BYTE   W06
 BYTE   An3
 BYTE   W06
 BYTE   PEND 
//  #02 //036   ----------------------------------------
Label_01031AB8:
 BYTE   N23  Fn2  v080
 BYTE   W06
 BYTE   N05  Dn3
 BYTE   W06
 BYTE   An3
 BYTE   W06
 BYTE   Dn4
 BYTE   W06
 BYTE   N11  An1
 BYTE   N11  Gn2
 BYTE   N05  Fn4
 BYTE   W06
 BYTE   En4
 BYTE   W06
 BYTE   N11  Bn1
 BYTE   N11  Gs2
 BYTE   N05  Fn4
 BYTE   W06
 BYTE   Dn4
 BYTE   W06
 BYTE   N11  Cs2
 BYTE   N11  An2
 BYTE   N05  Cs4
 BYTE   W06
 BYTE   Bn3
 BYTE   W06
 BYTE   N11  An1
 BYTE   N11  Gn2
 BYTE   N05  Cs4
 BYTE   W06
 BYTE   An3
 BYTE   W06
 BYTE   N11  Fn1
 BYTE   N11  Fn2
 BYTE   N05  Dn4
 BYTE   W06
 BYTE   An4
 BYTE   W06
 BYTE   N11  Dn1
 BYTE   N05  As4
 BYTE   W06
 BYTE   Gn4
 BYTE   W06
 BYTE   PEND 
//  #02 //037   ----------------------------------------
 BYTE   PATT
  POIN2 Label_01031689
//  #02 //038   ----------------------------------------
 BYTE   PATT
  POIN2 Label_010316BD
//  #02 //039   ----------------------------------------
 BYTE   PATT
  POIN2 Label_010316F9
//  #02 //040   ----------------------------------------
 BYTE   PATT
  POIN2 Label_0103172F
//  #02 //041   ----------------------------------------
 BYTE   PATT
  POIN2 Label_01031750
//  #02 //042   ----------------------------------------
 BYTE   GoTo
  POIN2 Label_01031757
//  #02 //043   ----------------------------------------
 BYTE   N11  An3  v080
 BYTE   W12
 BYTE   Gn3
 BYTE   W12
 BYTE   Dn3
 BYTE   W12
 BYTE   N44  En2
 BYTE   N11  Cs4
 BYTE   W12
 BYTE   An3
 BYTE   W12
 BYTE   Gn3
 BYTE   W12
 BYTE   Cs3
 BYTE   W12
//  #02 //044   ----------------------------------------
 BYTE   PATT
  POIN2 Label_0103176A
//  #02 //045   ----------------------------------------
 BYTE   PATT
  POIN2 Label_01031782
//  #02 //046   ----------------------------------------
 BYTE   PATT
  POIN2 Label_0103179A
//  #02 //047   ----------------------------------------
 BYTE   PATT
  POIN2 Label_010317C8
//  #02 //048   ----------------------------------------
 BYTE   PATT
  POIN2 Label_010317F2
//  #02 //049   ----------------------------------------
 BYTE   PATT
  POIN2 Label_01031814
//  #02 //050   ----------------------------------------
 BYTE   PATT
  POIN2 Label_0103183B
//  #02 //051   ----------------------------------------
 BYTE   PATT
  POIN2 Label_0103186F
//  #02 //052   ----------------------------------------
 BYTE   PATT
  POIN2 Label_0103189B
//  #02 //053   ----------------------------------------
 BYTE   PATT
  POIN2 Label_010318CE
//  #02 //054   ----------------------------------------
 BYTE   PATT
  POIN2 Label_010318E9
//  #02 //055   ----------------------------------------
 BYTE   PATT
  POIN2 Label_010318F4
//  #02 //056   ----------------------------------------
 BYTE   PATT
  POIN2 Label_0103190F
//  #02 //057   ----------------------------------------
 BYTE   PATT
  POIN2 Label_0103191A
//  #02 //058   ----------------------------------------
 BYTE   PATT
  POIN2 Label_01031929
//  #02 //059   ----------------------------------------
 BYTE   PATT
  POIN2 Label_01031938
//  #02 //060   ----------------------------------------
 BYTE   PATT
  POIN2 Label_01031947
//  #02 //061   ----------------------------------------
 BYTE   PATT
  POIN2 Label_01031956
//  #02 //062   ----------------------------------------
 BYTE   PATT
  POIN2 Label_01031976
//  #02 //063   ----------------------------------------
 BYTE   PATT
  POIN2 Label_01031996
//  #02 //064   ----------------------------------------
 BYTE   PATT
  POIN2 Label_010319B6
//  #02 //065   ----------------------------------------
 BYTE   PATT
  POIN2 Label_010319D0
//  #02 //066   ----------------------------------------
 BYTE   N44  An1  v080
 BYTE   N44  An3
 BYTE   W96
//  #02 //067   ----------------------------------------
 BYTE   An1
 BYTE   N44  An3
 BYTE   W96
//  #02 //068   ----------------------------------------
 BYTE   PATT
  POIN2 Label_010319E8
//  #02 //069   ----------------------------------------
 BYTE   PATT
  POIN2 Label_01031A0E
//  #02 //070   ----------------------------------------
 BYTE   PATT
  POIN2 Label_01031689
//  #02 //071   ----------------------------------------
 BYTE   PATT
  POIN2 Label_010316BD
//  #02 //072   ----------------------------------------
 BYTE   PATT
  POIN2 Label_01031A4B
//  #02 //073   ----------------------------------------
 BYTE   PATT
  POIN2 Label_01031A92
//  #02 //074   ----------------------------------------
 BYTE   PATT
  POIN2 Label_01031AB8
//  #02 //075   ----------------------------------------
 BYTE   PATT
  POIN2 Label_01031689
//  #02 //076   ----------------------------------------
 BYTE   PATT
  POIN2 Label_010316BD
//  #02 //077   ----------------------------------------
 BYTE   PATT
  POIN2 Label_010316F9
//  #02 //078   ----------------------------------------
 BYTE   PATT
  POIN2 Label_0103172F
//  #02 //079   ----------------------------------------
Label_01031BD8:
 BYTE   N44  Fn2  v080
 BYTE   N11  Dn4
 BYTE   W12
 BYTE   An3
 BYTE   W12
 BYTE   Gn3
 BYTE   W12
 BYTE   Dn3
 BYTE   W12
 BYTE   N44  En2
 BYTE   N11  Cs4
 BYTE   W12
 BYTE   An3
 BYTE   W12
 BYTE   Gn3
 BYTE   W12
 BYTE   Cs3
 BYTE   W12
 BYTE   PEND 
//  #02 //080   ----------------------------------------
 BYTE   PATT
  POIN2 Label_0103176A
//  #02 //081   ----------------------------------------
 BYTE   PATT
  POIN2 Label_01031782
//  #02 //082   ----------------------------------------
 BYTE   PATT
  POIN2 Label_0103179A
//  #02 //083   ----------------------------------------
 BYTE   PATT
  POIN2 Label_010317C8
//  #02 //084   ----------------------------------------
 BYTE   PATT
  POIN2 Label_010317F2
//  #02 //085   ----------------------------------------
 BYTE   PATT
  POIN2 Label_01031814
//  #02 //086   ----------------------------------------
 BYTE   PATT
  POIN2 Label_0103183B
//  #02 //087   ----------------------------------------
 BYTE   PATT
  POIN2 Label_0103186F
//  #02 //088   ----------------------------------------
 BYTE   PATT
  POIN2 Label_0103189B
//  #02 //089   ----------------------------------------
 BYTE   PATT
  POIN2 Label_010318CE
//  #02 //090   ----------------------------------------
 BYTE   PATT
  POIN2 Label_010318E9
//  #02 //091   ----------------------------------------
 BYTE   PATT
  POIN2 Label_010318F4
//  #02 //092   ----------------------------------------
 BYTE   PATT
  POIN2 Label_0103190F
//  #02 //093   ----------------------------------------
 BYTE   PATT
  POIN2 Label_0103191A
//  #02 //094   ----------------------------------------
 BYTE   PATT
  POIN2 Label_01031929
//  #02 //095   ----------------------------------------
 BYTE   PATT
  POIN2 Label_01031938
//  #02 //096   ----------------------------------------
 BYTE   PATT
  POIN2 Label_01031947
//  #02 //097   ----------------------------------------
 BYTE   PATT
  POIN2 Label_01031956
//  #02 //098   ----------------------------------------
 BYTE   PATT
  POIN2 Label_01031976
//  #02 //099   ----------------------------------------
 BYTE   PATT
  POIN2 Label_01031996
//  #02 //100   ----------------------------------------
 BYTE   PATT
  POIN2 Label_010319B6
//  #02 //101   ----------------------------------------
 BYTE   PATT
  POIN2 Label_010319D0
//  #02 //102   ----------------------------------------
 BYTE   N44  An1  v080
 BYTE   N44  An3
 BYTE   W96
//  #02 //103   ----------------------------------------
 BYTE   An1
 BYTE   N44  An3
 BYTE   W96
//  #02 //104   ----------------------------------------
 BYTE   PATT
  POIN2 Label_010319E8
//  #02 //105   ----------------------------------------
 BYTE   PATT
  POIN2 Label_01031A0E
//  #02 //106   ----------------------------------------
 BYTE   PATT
  POIN2 Label_01031689
//  #02 //107   ----------------------------------------
 BYTE   PATT
  POIN2 Label_010316BD
//  #02 //108   ----------------------------------------
 BYTE   PATT
  POIN2 Label_01031A4B
//  #02 //109   ----------------------------------------
 BYTE   PATT
  POIN2 Label_01031A92
//  #02 //110   ----------------------------------------
 BYTE   PATT
  POIN2 Label_01031AB8
//  #02 //111   ----------------------------------------
 BYTE   PATT
  POIN2 Label_01031689
//  #02 //112   ----------------------------------------
 BYTE   PATT
  POIN2 Label_010316BD
//  #02 //113   ----------------------------------------
 BYTE   PATT
  POIN2 Label_010316F9
//  #02 //114   ----------------------------------------
 BYTE   PATT
  POIN2 Label_0103172F
//  #02 //115   ----------------------------------------
 BYTE   PATT
  POIN2 Label_01031BD8
//  #02 //116   ----------------------------------------
 BYTE   PATT
  POIN2 Label_0103176A
//  #02 //117   ----------------------------------------
 BYTE   PATT
  POIN2 Label_01031782
//  #02 //118   ----------------------------------------
 BYTE   PATT
  POIN2 Label_0103179A
//  #02 //119   ----------------------------------------
 BYTE   PATT
  POIN2 Label_010317C8
//  #02 //120   ----------------------------------------
 BYTE   PATT
  POIN2 Label_010317F2
//  #02 //121   ----------------------------------------
 BYTE   PATT
  POIN2 Label_01031814
//  #02 //122   ----------------------------------------
 BYTE   PATT
  POIN2 Label_0103183B
//  #02 //123   ----------------------------------------
 BYTE   PATT
  POIN2 Label_0103186F
//  #02 //124   ----------------------------------------
 BYTE   PATT
  POIN2 Label_0103189B
//  #02 //125   ----------------------------------------
 BYTE   PATT
  POIN2 Label_010318CE
//  #02 //126   ----------------------------------------
 BYTE   PATT
  POIN2 Label_010318E9
//  #02 //127   ----------------------------------------
 BYTE   PATT
  POIN2 Label_010318F4
//  #02 //128   ----------------------------------------
 BYTE   PATT
  POIN2 Label_0103190F
//  #02 //129   ----------------------------------------
 BYTE   PATT
  POIN2 Label_0103191A
//  #02 //130   ----------------------------------------
 BYTE   PATT
  POIN2 Label_01031929
//  #02 //131   ----------------------------------------
 BYTE   PATT
  POIN2 Label_01031938
//  #02 //132   ----------------------------------------
 BYTE   PATT
  POIN2 Label_01031947
//  #02 //133   ----------------------------------------
 BYTE   PATT
  POIN2 Label_01031956
//  #02 //134   ----------------------------------------
 BYTE   PATT
  POIN2 Label_01031976
//  #02 //135   ----------------------------------------
 BYTE   PATT
  POIN2 Label_01031996
//  #02 //136   ----------------------------------------
 BYTE   PATT
  POIN2 Label_010319B6
//  #02 //137   ----------------------------------------
 BYTE   PATT
  POIN2 Label_010319D0
//  #02 //138   ----------------------------------------
 BYTE   N44  An1  v080
 BYTE   N44  An3
 BYTE   W96
//  #02 //139   ----------------------------------------
 BYTE   An1
 BYTE   N44  An3
 BYTE   W96
//  #02 //140   ----------------------------------------
 BYTE   PATT
  POIN2 Label_010319E8
//  #02 //141   ----------------------------------------
 BYTE   PATT
  POIN2 Label_01031A0E
//  #02 //142   ----------------------------------------
 BYTE   PATT
  POIN2 Label_01031689
//  #02 //143   ----------------------------------------
 BYTE   PATT
  POIN2 Label_010316BD
//  #02 //144   ----------------------------------------
 BYTE   PATT
  POIN2 Label_01031A4B
//  #02 //145   ----------------------------------------
 BYTE   PATT
  POIN2 Label_01031A92
//  #02 //146   ----------------------------------------
 BYTE   PATT
  POIN2 Label_01031AB8
//  #02 //147   ----------------------------------------
 BYTE   PATT
  POIN2 Label_01031689
//  #02 //148   ----------------------------------------
 BYTE   PATT
  POIN2 Label_010316BD
//  #02 //149   ----------------------------------------
 BYTE   PATT
  POIN2 Label_010316F9
//  #02 //150   ----------------------------------------
 BYTE   PATT
  POIN2 Label_0103172F
//  #02 //151   ----------------------------------------
 BYTE   PATT
  POIN2 Label_01031BD8
//  #02 //152   ----------------------------------------
 BYTE   PATT
  POIN2 Label_0103176A
//  #02 //153   ----------------------------------------
 BYTE   PATT
  POIN2 Label_01031782
//  #02 //154   ----------------------------------------
 BYTE   PATT
  POIN2 Label_0103179A
//  #02 //155   ----------------------------------------
 BYTE   PATT
  POIN2 Label_010317C8
//  #02 //156   ----------------------------------------
 BYTE   PATT
  POIN2 Label_010317F2
//  #02 //157   ----------------------------------------
 BYTE   PATT
  POIN2 Label_01031814
//  #02 //158   ----------------------------------------
 BYTE   PATT
  POIN2 Label_0103183B
//  #02 //159   ----------------------------------------
 BYTE   PATT
  POIN2 Label_0103186F
//  #02 //160   ----------------------------------------
 BYTE   PATT
  POIN2 Label_0103189B
//  #02 //161   ----------------------------------------
 BYTE   PATT
  POIN2 Label_010318CE
//  #02 //162   ----------------------------------------
 BYTE   PATT
  POIN2 Label_010318E9
//  #02 //163   ----------------------------------------
 BYTE   PATT
  POIN2 Label_010318F4
//  #02 //164   ----------------------------------------
 BYTE   PATT
  POIN2 Label_0103190F
//  #02 //165   ----------------------------------------
 BYTE   PATT
  POIN2 Label_0103191A
//  #02 //166   ----------------------------------------
 BYTE   PATT
  POIN2 Label_01031929
//  #02 //167   ----------------------------------------
 BYTE   PATT
  POIN2 Label_01031938
//  #02 //168   ----------------------------------------
 BYTE   PATT
  POIN2 Label_01031947
//  #02 //169   ----------------------------------------
 BYTE   PATT
  POIN2 Label_01031956
//  #02 //170   ----------------------------------------
 BYTE   PATT
  POIN2 Label_01031976
//  #02 //171   ----------------------------------------
 BYTE   PATT
  POIN2 Label_01031996
//  #02 //172   ----------------------------------------
 BYTE   PATT
  POIN2 Label_010319B6
//  #02 //173   ----------------------------------------
 BYTE   PATT
  POIN2 Label_010319D0
//  #02 //174   ----------------------------------------
 BYTE   N44  An1  v080
 BYTE   N44  An3
 BYTE   W96
//  #02 //175   ----------------------------------------
 BYTE   An1
 BYTE   N44  An3
 BYTE   W96
//  #02 //176   ----------------------------------------
 BYTE   PATT
  POIN2 Label_010319E8
//  #02 //177   ----------------------------------------
 BYTE   PATT
  POIN2 Label_01031A0E
//  #02 //178   ----------------------------------------
 BYTE   PATT
  POIN2 Label_01031689
//  #02 //179   ----------------------------------------
 BYTE   PATT
  POIN2 Label_010316BD
//  #02 //180   ----------------------------------------
 BYTE   PATT
  POIN2 Label_01031A4B
//  #02 //181   ----------------------------------------
 BYTE   PATT
  POIN2 Label_01031A92
//  #02 //182   ----------------------------------------
 BYTE   PATT
  POIN2 Label_01031AB8
//  #02 //183   ----------------------------------------
 BYTE   PATT
  POIN2 Label_01031689
//  #02 //184   ----------------------------------------
 BYTE   PATT
  POIN2 Label_010316BD
//  #02 //185   ----------------------------------------
 BYTE   PATT
  POIN2 Label_010316F9
//  #02 //186   ----------------------------------------
 BYTE   PATT
  POIN2 Label_0103172F
//  #02 //187   ----------------------------------------
 BYTE   PATT
  POIN2 Label_01031BD8
//  #02 //188   ----------------------------------------
 BYTE   PATT
  POIN2 Label_0103176A
//  #02 //189   ----------------------------------------
 BYTE   PATT
  POIN2 Label_01031782
//  #02 //190   ----------------------------------------
 BYTE   PATT
  POIN2 Label_0103179A
//  #02 //191   ----------------------------------------
 BYTE   PATT
  POIN2 Label_010317C8
//  #02 //192   ----------------------------------------
 BYTE   PATT
  POIN2 Label_010317F2
//  #02 //193   ----------------------------------------
 BYTE   PATT
  POIN2 Label_01031814
//  #02 //194   ----------------------------------------
 BYTE   PATT
  POIN2 Label_0103183B
//  #02 //195   ----------------------------------------
 BYTE   PATT
  POIN2 Label_0103186F
//  #02 //196   ----------------------------------------
 BYTE   PATT
  POIN2 Label_0103189B
//  #02 //197   ----------------------------------------
 BYTE   PATT
  POIN2 Label_010318CE
//  #02 //198   ----------------------------------------
 BYTE   PATT
  POIN2 Label_010318E9
//  #02 //199   ----------------------------------------
 BYTE   PATT
  POIN2 Label_010318F4
//  #02 //200   ----------------------------------------
 BYTE   PATT
  POIN2 Label_0103190F
//  #02 //201   ----------------------------------------
 BYTE   PATT
  POIN2 Label_0103191A
//  #02 //202   ----------------------------------------
 BYTE   PATT
  POIN2 Label_01031929
//  #02 //203   ----------------------------------------
 BYTE   PATT
  POIN2 Label_01031938
//  #02 //204   ----------------------------------------
 BYTE   PATT
  POIN2 Label_01031947
//  #02 //205   ----------------------------------------
 BYTE   PATT
  POIN2 Label_01031956
//  #02 //206   ----------------------------------------
 BYTE   PATT
  POIN2 Label_01031976
//  #02 //207   ----------------------------------------
 BYTE   PATT
  POIN2 Label_01031996
//  #02 //208   ----------------------------------------
 BYTE   PATT
  POIN2 Label_010319B6
//  #02 //209   ----------------------------------------
 BYTE   PATT
  POIN2 Label_010319D0
//  #02 //210   ----------------------------------------
 BYTE   N44  An1  v080
 BYTE   N44  An3
 BYTE   W96
//  #02 //211   ----------------------------------------
 BYTE   An1
 BYTE   N44  An3
 BYTE   W96
//  #02 //212   ----------------------------------------
 BYTE   PATT
  POIN2 Label_010319E8
//  #02 //213   ----------------------------------------
 BYTE   PATT
  POIN2 Label_01031A0E
//  #02 //214   ----------------------------------------
 BYTE   PATT
  POIN2 Label_01031689
//  #02 //215   ----------------------------------------
 BYTE   PATT
  POIN2 Label_010316BD
//  #02 //216   ----------------------------------------
 BYTE   PATT
  POIN2 Label_01031A4B
//  #02 //217   ----------------------------------------
 BYTE   PATT
  POIN2 Label_01031A92
//  #02 //218   ----------------------------------------
 BYTE   PATT
  POIN2 Label_01031AB8
//  #02 //219   ----------------------------------------
 BYTE   PATT
  POIN2 Label_01031689
//  #02 //220   ----------------------------------------
 BYTE   PATT
  POIN2 Label_010316BD
//  #02 //221   ----------------------------------------
 BYTE   PATT
  POIN2 Label_010316F9
//  #02 //222   ----------------------------------------
 BYTE   PATT
  POIN2 Label_0103172F
//  #02 //223   ----------------------------------------
 BYTE   PATT
  POIN2 Label_01031BD8
//  #02 //224   ----------------------------------------
 BYTE   PATT
  POIN2 Label_0103176A
//  #02 //225   ----------------------------------------
 BYTE   PATT
  POIN2 Label_01031782
//  #02 //226   ----------------------------------------
 BYTE   PATT
  POIN2 Label_0103179A
//  #02 //227   ----------------------------------------
 BYTE   PATT
  POIN2 Label_010317C8
//  #02 //228   ----------------------------------------
 BYTE   PATT
  POIN2 Label_010317F2
//  #02 //229   ----------------------------------------
 BYTE   PATT
  POIN2 Label_01031814
//  #02 //230   ----------------------------------------
 BYTE   PATT
  POIN2 Label_0103183B
//  #02 //231   ----------------------------------------
 BYTE   PATT
  POIN2 Label_0103186F
//  #02 //232   ----------------------------------------
 BYTE   PATT
  POIN2 Label_0103189B
//  #02 //233   ----------------------------------------
 BYTE   PATT
  POIN2 Label_010318CE
//  #02 //234   ----------------------------------------
 BYTE   PATT
  POIN2 Label_010318E9
//  #02 //235   ----------------------------------------
 BYTE   PATT
  POIN2 Label_010318F4
//  #02 //236   ----------------------------------------
 BYTE   PATT
  POIN2 Label_0103190F
//  #02 //237   ----------------------------------------
 BYTE   PATT
  POIN2 Label_0103191A
//  #02 //238   ----------------------------------------
 BYTE   PATT
  POIN2 Label_01031929
//  #02 //239   ----------------------------------------
 BYTE   PATT
  POIN2 Label_01031938
//  #02 //240   ----------------------------------------
 BYTE   PATT
  POIN2 Label_01031947
//  #02 //241   ----------------------------------------
 BYTE   PATT
  POIN2 Label_01031956
//  #02 //242   ----------------------------------------
 BYTE   PATT
  POIN2 Label_01031976
//  #02 //243   ----------------------------------------
 BYTE   PATT
  POIN2 Label_01031996
//  #02 //244   ----------------------------------------
 BYTE   PATT
  POIN2 Label_010319B6
//  #02 //245   ----------------------------------------
 BYTE   PATT
  POIN2 Label_010319D0
//  #02 //246   ----------------------------------------
 BYTE   N44  An1  v080
 BYTE   N44  An3
 BYTE   W96
//  #02 //247   ----------------------------------------
 BYTE   An1
 BYTE   N44  An3
 BYTE   W96
//  #02 //248   ----------------------------------------
 BYTE   PATT
  POIN2 Label_010319E8
//  #02 //249   ----------------------------------------
 BYTE   PATT
  POIN2 Label_01031A0E
//  #02 //250   ----------------------------------------
 BYTE   PATT
  POIN2 Label_01031689
//  #02 //251   ----------------------------------------
 BYTE   PATT
  POIN2 Label_010316BD
//  #02 //252   ----------------------------------------
 BYTE   PATT
  POIN2 Label_01031A4B
//  #02 //253   ----------------------------------------
 BYTE   PATT
  POIN2 Label_01031A92
//  #02 //254   ----------------------------------------
 BYTE   PATT
  POIN2 Label_01031AB8
//  #02 //255   ----------------------------------------
 BYTE   PATT
  POIN2 Label_01031689
//  #02 //256   ----------------------------------------
 BYTE   PATT
  POIN2 Label_010316BD
//  #02 //257   ----------------------------------------
 BYTE   PATT
  POIN2 Label_010316F9
//  #02 //258   ----------------------------------------
 BYTE   PATT
  POIN2 Label_0103172F
//  #02 //259   ----------------------------------------
 BYTE   PATT
  POIN2 Label_01031BD8
//  #02 //260   ----------------------------------------
 BYTE   PATT
  POIN2 Label_0103176A
//  #02 //261   ----------------------------------------
 BYTE   PATT
  POIN2 Label_01031782
//  #02 //262   ----------------------------------------
 BYTE   PATT
  POIN2 Label_0103179A
//  #02 //263   ----------------------------------------
 BYTE   PATT
  POIN2 Label_010317C8
//  #02 //264   ----------------------------------------
 BYTE   PATT
  POIN2 Label_010317F2
//  #02 //265   ----------------------------------------
 BYTE   PATT
  POIN2 Label_01031814
//  #02 //266   ----------------------------------------
 BYTE   PATT
  POIN2 Label_0103183B
//  #02 //267   ----------------------------------------
 BYTE   PATT
  POIN2 Label_0103186F
//  #02 //268   ----------------------------------------
 BYTE   PATT
  POIN2 Label_0103189B
//  #02 //269   ----------------------------------------
 BYTE   PATT
  POIN2 Label_010318CE
//  #02 //270   ----------------------------------------
 BYTE   PATT
  POIN2 Label_010318E9
//  #02 //271   ----------------------------------------
 BYTE   PATT
  POIN2 Label_010318F4
//  #02 //272   ----------------------------------------
 BYTE   PATT
  POIN2 Label_0103190F
//  #02 //273   ----------------------------------------
 BYTE   PATT
  POIN2 Label_0103191A
//  #02 //274   ----------------------------------------
 BYTE   PATT
  POIN2 Label_01031929
//  #02 //275   ----------------------------------------
 BYTE   PATT
  POIN2 Label_01031938
//  #02 //276   ----------------------------------------
 BYTE   PATT
  POIN2 Label_01031947
//  #02 //277   ----------------------------------------
 BYTE   PATT
  POIN2 Label_01031956
//  #02 //278   ----------------------------------------
 BYTE   PATT
  POIN2 Label_01031976
//  #02 //279   ----------------------------------------
 BYTE   PATT
  POIN2 Label_01031996
//  #02 //280   ----------------------------------------
 BYTE   PATT
  POIN2 Label_010319B6
//  #02 //281   ----------------------------------------
 BYTE   PATT
  POIN2 Label_010319D0
//  #02 //282   ----------------------------------------
 BYTE   N44  An1  v080
 BYTE   N44  An3
 BYTE   W96
//  #02 //283   ----------------------------------------
 BYTE   An1
 BYTE   N44  An3
 BYTE   W96
//  #02 //284   ----------------------------------------
 BYTE   PATT
  POIN2 Label_010319E8
//  #02 //285   ----------------------------------------
 BYTE   PATT
  POIN2 Label_01031A0E
//  #02 //286   ----------------------------------------
 BYTE   PATT
  POIN2 Label_01031689
//  #02 //287   ----------------------------------------
 BYTE   PATT
  POIN2 Label_010316BD
//  #02 //288   ----------------------------------------
 BYTE   PATT
  POIN2 Label_01031A4B
//  #02 //289   ----------------------------------------
 BYTE   PATT
  POIN2 Label_01031A92
//  #02 //290   ----------------------------------------
 BYTE   PATT
  POIN2 Label_01031AB8
//  #02 //291   ----------------------------------------
 BYTE   PATT
  POIN2 Label_01031689
//  #02 //292   ----------------------------------------
 BYTE   PATT
  POIN2 Label_010316BD
//  #02 //293   ----------------------------------------
 BYTE   PATT
  POIN2 Label_010316F9
//  #02 //294   ----------------------------------------
 BYTE   PATT
  POIN2 Label_0103172F
//  #02 //295   ----------------------------------------
 BYTE   PATT
  POIN2 Label_01031BD8
//  #02 //296   ----------------------------------------
 BYTE   PATT
  POIN2 Label_0103176A
//  #02 //297   ----------------------------------------
 BYTE   PATT
  POIN2 Label_01031782
//  #02 //298   ----------------------------------------
 BYTE   PATT
  POIN2 Label_0103179A
//  #02 //299   ----------------------------------------
 BYTE   PATT
  POIN2 Label_010317C8
//  #02 //300   ----------------------------------------
 BYTE   PATT
  POIN2 Label_010317F2
//  #02 //301   ----------------------------------------
 BYTE   PATT
  POIN2 Label_01031814
//  #02 //302   ----------------------------------------
 BYTE   PATT
  POIN2 Label_0103183B
//  #02 //303   ----------------------------------------
 BYTE   PATT
  POIN2 Label_0103186F
//  #02 //304   ----------------------------------------
 BYTE   PATT
  POIN2 Label_0103189B
//  #02 //305   ----------------------------------------
 BYTE   PATT
  POIN2 Label_010318CE
//  #02 //306   ----------------------------------------
 BYTE   PATT
  POIN2 Label_010318E9
//  #02 //307   ----------------------------------------
 BYTE   PATT
  POIN2 Label_010318F4
//  #02 //308   ----------------------------------------
 BYTE   PATT
  POIN2 Label_0103190F
//  #02 //309   ----------------------------------------
 BYTE   PATT
  POIN2 Label_0103191A
//  #02 //310   ----------------------------------------
 BYTE   PATT
  POIN2 Label_01031929
//  #02 //311   ----------------------------------------
 BYTE   PATT
  POIN2 Label_01031938
//  #02 //312   ----------------------------------------
 BYTE   PATT
  POIN2 Label_01031947
//  #02 //313   ----------------------------------------
 BYTE   PATT
  POIN2 Label_01031956
//  #02 //314   ----------------------------------------
 BYTE   PATT
  POIN2 Label_01031976
//  #02 //315   ----------------------------------------
 BYTE   PATT
  POIN2 Label_01031996
//  #02 //316   ----------------------------------------
 BYTE   PATT
  POIN2 Label_010319B6
//  #02 //317   ----------------------------------------
 BYTE   PATT
  POIN2 Label_010319D0
//  #02 //318   ----------------------------------------
 BYTE   N44  An1  v080
 BYTE   N44  An3
 BYTE   W96
//  #02 //319   ----------------------------------------
 BYTE   An1
 BYTE   N44  An3
 BYTE   W96
//  #02 //320   ----------------------------------------
 BYTE   PATT
  POIN2 Label_010319E8
//  #02 //321   ----------------------------------------
 BYTE   PATT
  POIN2 Label_01031A0E
//  #02 //322   ----------------------------------------
 BYTE   PATT
  POIN2 Label_01031689
//  #02 //323   ----------------------------------------
 BYTE   PATT
  POIN2 Label_010316BD
//  #02 //324   ----------------------------------------
 BYTE   PATT
  POIN2 Label_01031A4B
//  #02 //325   ----------------------------------------
 BYTE   PATT
  POIN2 Label_01031A92
//  #02 //326   ----------------------------------------
 BYTE   PATT
  POIN2 Label_01031AB8
//  #02 //327   ----------------------------------------
 BYTE   PATT
  POIN2 Label_01031689
//  #02 //328   ----------------------------------------
 BYTE   PATT
  POIN2 Label_010316BD
//  #02 //329   ----------------------------------------
 BYTE   PATT
  POIN2 Label_010316F9
//  #02 //330   ----------------------------------------
 BYTE   PATT
  POIN2 Label_0103172F
//  #02 //331   ----------------------------------------
 BYTE   PATT
  POIN2 Label_01031BD8
//  #02 //332   ----------------------------------------
 BYTE   PATT
  POIN2 Label_0103176A
//  #02 //333   ----------------------------------------
 BYTE   PATT
  POIN2 Label_01031782
//  #02 //334   ----------------------------------------
 BYTE   PATT
  POIN2 Label_0103179A
//  #02 //335   ----------------------------------------
 BYTE   PATT
  POIN2 Label_010317C8
//  #02 //336   ----------------------------------------
 BYTE   PATT
  POIN2 Label_010317F2
//  #02 //337   ----------------------------------------
 BYTE   PATT
  POIN2 Label_01031814
//  #02 //338   ----------------------------------------
 BYTE   PATT
  POIN2 Label_0103183B
//  #02 //339   ----------------------------------------
 BYTE   PATT
  POIN2 Label_0103186F
//  #02 //340   ----------------------------------------
 BYTE   PATT
  POIN2 Label_0103189B
//  #02 //341   ----------------------------------------
 BYTE   PATT
  POIN2 Label_010318CE
//  #02 //342   ----------------------------------------
 BYTE   PATT
  POIN2 Label_010318E9
//  #02 //343   ----------------------------------------
 BYTE   PATT
  POIN2 Label_010318F4
//  #02 //344   ----------------------------------------
 BYTE   PATT
  POIN2 Label_0103190F
//  #02 //345   ----------------------------------------
 BYTE   PATT
  POIN2 Label_0103191A
//  #02 //346   ----------------------------------------
 BYTE   PATT
  POIN2 Label_01031929
//  #02 //347   ----------------------------------------
 BYTE   PATT
  POIN2 Label_01031938
//  #02 //348   ----------------------------------------
 BYTE   PATT
  POIN2 Label_01031947
//  #02 //349   ----------------------------------------
 BYTE   PATT
  POIN2 Label_01031956
//  #02 //350   ----------------------------------------
 BYTE   PATT
  POIN2 Label_01031976
//  #02 //351   ----------------------------------------
 BYTE   PATT
  POIN2 Label_01031996
//  #02 //352   ----------------------------------------
 BYTE   PATT
  POIN2 Label_010319B6
//  #02 //353   ----------------------------------------
 BYTE   PATT
  POIN2 Label_010319D0
//  #02 //354   ----------------------------------------
 BYTE   N44  An1  v080
 BYTE   N44  An3
 BYTE   W96
//  #02 //355   ----------------------------------------
 BYTE   An1
 BYTE   N44  An3
 BYTE   W96
//  #02 //356   ----------------------------------------
 BYTE   PATT
  POIN2 Label_010319E8
//  #02 //357   ----------------------------------------
 BYTE   PATT
  POIN2 Label_01031A0E
//  #02 //358   ----------------------------------------
 BYTE   PATT
  POIN2 Label_01031689
//  #02 //359   ----------------------------------------
 BYTE   PATT
  POIN2 Label_010316BD
//  #02 //360   ----------------------------------------
 BYTE   PATT
  POIN2 Label_01031A4B
//  #02 //361   ----------------------------------------
 BYTE   PATT
  POIN2 Label_01031A92
//  #02 //362   ----------------------------------------
 BYTE   PATT
  POIN2 Label_01031AB8
//  #02 //363   ----------------------------------------
 BYTE   PATT
  POIN2 Label_01031689
//  #02 //364   ----------------------------------------
 BYTE   PATT
  POIN2 Label_010316BD
//  #02 //365   ----------------------------------------
 BYTE   PATT
  POIN2 Label_010316F9
//  #02 //366   ----------------------------------------
 BYTE   N44  Dn2  v080
 BYTE   N44  Fn2
 BYTE   N44  An2
 BYTE   N11  Dn3
 BYTE   W12
 BYTE   Fn3
 BYTE   W12
 BYTE   N02  En3
 BYTE   W03
 BYTE   Fn3
 BYTE   W03
 BYTE   En3
 BYTE   W03
 BYTE   Fn3
 BYTE   W03
 BYTE   N56  Dn3
 BYTE   W12
 BYTE   N11  An1
 BYTE   W12
 BYTE   Fn1
 BYTE   W12
 BYTE   N23  Dn1
 BYTE   W23
 BYTE   FINE

//**************** Track 3 (Midi-Chn.2) ****************//

PowerHungryFool_003:
//  #03 //000   ----------------------------------------
 BYTE   KEYSH   PowerHungryFool_key+0
 BYTE   VOICE   49
 BYTE   VOL   57*PowerHungryFool_mvl/mxv
 BYTE   PAN   c_v+10
 BYTE   W96
//  #03 //001   ----------------------------------------
 BYTE   W96
//  #03 //002   ----------------------------------------
 BYTE   W96
//  #03 //003   ----------------------------------------
 BYTE   W96
//  #03 //004   ----------------------------------------
 BYTE   W96
//  #03 //005   ----------------------------------------
 BYTE   W96
//  #03 //006   ----------------------------------------
 BYTE   W12
Label_01024543:
 BYTE   W84
//  #03 //007   ----------------------------------------
 BYTE   W96
//  #03 //008   ----------------------------------------
 BYTE   W96
//  #03 //009   ----------------------------------------
 BYTE   W96
//  #03 //010   ----------------------------------------
 BYTE   W96
//  #03 //011   ----------------------------------------
 BYTE   W96
//  #03 //012   ----------------------------------------
 BYTE   W96
//  #03 //013   ----------------------------------------
 BYTE   W96
//  #03 //014   ----------------------------------------
Label_0102454B:
 BYTE   N23  Dn3  v080
 BYTE   W24
 BYTE   Gn3
 BYTE   W24
 BYTE   Dn3
 BYTE   W24
 BYTE   N17  Gn3
 BYTE   W18
 BYTE   N05
 BYTE   W06
 BYTE   PEND 
//  #03 //015   ----------------------------------------
Label_01024559:
 BYTE   N05  Fs3  v080
 BYTE   W06
 BYTE   Gn3
 BYTE   W06
 BYTE   An3
 BYTE   W06
 BYTE   As3
 BYTE   W06
 BYTE   Gn3
 BYTE   W06
 BYTE   Dn4
 BYTE   W06
 BYTE   Cn4
 BYTE   W06
 BYTE   As3
 BYTE   W06
 BYTE   An3
 BYTE   W06
 BYTE   Cn4
 BYTE   W06
 BYTE   An3
 BYTE   W06
 BYTE   Dn4
 BYTE   W06
 BYTE   Gn3
 BYTE   W06
 BYTE   As4
 BYTE   W06
 BYTE   Cn5
 BYTE   W06
 BYTE   An4
 BYTE   W06
 BYTE   PEND 
//  #03 //016   ----------------------------------------
Label_0102457C:
 BYTE   N05  Gn4  v080
 BYTE   W06
 BYTE   As4
 BYTE   W06
 BYTE   N11  Dn5
 BYTE   W12
 BYTE   N05  Cn5
 BYTE   W06
 BYTE   An4
 BYTE   W06
 BYTE   N11  Fs4
 BYTE   W12
 BYTE   N05  Gn4
 BYTE   W06
 BYTE   As4
 BYTE   W06
 BYTE   N11  Gn5
 BYTE   W12
 BYTE   N05  Fs5
 BYTE   W06
 BYTE   Ds5
 BYTE   W06
 BYTE   Dn5
 BYTE   W06
 BYTE   Cn5
 BYTE   W06
 BYTE   PEND 
//  #03 //017   ----------------------------------------
Label_0102459F:
 BYTE   N02  As4  v080
 BYTE   W06
 BYTE   An4
 BYTE   W06
 BYTE   As4
 BYTE   W06
 BYTE   An4
 BYTE   W06
 BYTE   As4
 BYTE   W06
 BYTE   An4
 BYTE   W06
 BYTE   As4
 BYTE   W06
 BYTE   An4
 BYTE   W06
 BYTE   N05  Gn3
 BYTE   W06
 BYTE   As3
 BYTE   W06
 BYTE   An3
 BYTE   W06
 BYTE   Gn3
 BYTE   W06
 BYTE   Fs3
 BYTE   W06
 BYTE   Gn3
 BYTE   W06
 BYTE   An3
 BYTE   W06
 BYTE   As3
 BYTE   W06
 BYTE   PEND 
//  #03 //018   ----------------------------------------
Label_010245C3:
 BYTE   W06
 BYTE   N05  Cn4  v080
 BYTE   W06
 BYTE   As3
 BYTE   W06
 BYTE   An3
 BYTE   W06
 BYTE   Gn3
 BYTE   W06
 BYTE   Fs3
 BYTE   W06
 BYTE   Dn3
 BYTE   W06
 BYTE   Cn3
 BYTE   W06
 BYTE   N11  As2
 BYTE   N11  Dn3
 BYTE   W24
 BYTE   An2
 BYTE   N11  Dn3
 BYTE   W24
 BYTE   PEND 
//  #03 //019   ----------------------------------------
Label_010245DE:
 BYTE   N11  As2  v080
 BYTE   N11  Dn3
 BYTE   W48
 BYTE   PEND 
Label_010245E5:
 BYTE   N23  Gn3  v080
 BYTE   W24
 BYTE   N44
 BYTE   W24
//  #03 //020   ----------------------------------------
 BYTE   W24
 BYTE   N23
 BYTE   W24
 BYTE   PEND 
Label_010245EF:
 BYTE   N23  As3  v080
 BYTE   W24
 BYTE   An3
 BYTE   W24
//  #03 //021   ----------------------------------------
 BYTE   As3
 BYTE   W24
 BYTE   N44  Dn4
 BYTE   W24
 BYTE   PEND 
Label_010245FB:
 BYTE   W24
 BYTE   N23  An3  v080
 BYTE   W24
//  #03 //022   ----------------------------------------
 BYTE   Gn3
 BYTE   W24
 BYTE   N23
 BYTE   W24
 BYTE   PEND 
Label_01024605:
 BYTE   N23  En3  v080
 BYTE   W24
 BYTE   N23
 BYTE   W24
//  #03 //023   ----------------------------------------
 BYTE   Dn3
 BYTE   W24
 BYTE   N44
 BYTE   W24
 BYTE   PEND 
Label_01024610:
 BYTE   W24
 BYTE   N44  Gn3  v080
 BYTE   W24
//  #03 //024   ----------------------------------------
 BYTE   W24
 BYTE   N23  Cn4
 BYTE   W24
 BYTE   PEND 
Label_0102461A:
 BYTE   N23  Cn4  v080
 BYTE   W24
 BYTE   As3
 BYTE   W24
//  #03 //025   ----------------------------------------
 BYTE   An3
 BYTE   W24
 BYTE   N44
 BYTE   W24
 BYTE   PEND 
Label_01024625:
 BYTE   W24
 BYTE   N23  As3  v080
 BYTE   W24
//  #03 //026   ----------------------------------------
 BYTE   Gs3
 BYTE   W24
 BYTE   N23
 BYTE   W24
 BYTE   PEND 
Label_0102462F:
 BYTE   N23  As3  v080
 BYTE   W24
 BYTE   Gn3
 BYTE   W24
//  #03 //027   ----------------------------------------
 BYTE   En3
 BYTE   W24
 BYTE   Cs3
 BYTE   W24
 BYTE   PEND 
Label_0102463A:
 BYTE   N44  An2  v080
 BYTE   W48
//  #03 //028   ----------------------------------------
 BYTE   N05  Cs3
 BYTE   W12
 BYTE   Dn3
 BYTE   W12
 BYTE   En3
 BYTE   W12
 BYTE   Fn3
 BYTE   W12
 BYTE   PEND 
Label_01024648:
 BYTE   N44  Cs3  v080
 BYTE   W48
//  #03 //029   ----------------------------------------
 BYTE   N23  En3
 BYTE   W24
 BYTE   Fn3
 BYTE   W24
 BYTE   PEND 
Label_01024652:
 BYTE   N44  Cs3  v080
 BYTE   W96
 BYTE   PEND 
//  #03 //030   ----------------------------------------
 BYTE   W96
//  #03 //031   ----------------------------------------
 BYTE   W96
//  #03 //032   ----------------------------------------
 BYTE   W96
//  #03 //033   ----------------------------------------
 BYTE   W96
//  #03 //034   ----------------------------------------
 BYTE   W96
//  #03 //035   ----------------------------------------
 BYTE   W96
//  #03 //036   ----------------------------------------
 BYTE   W96
//  #03 //037   ----------------------------------------
 BYTE   W96
//  #03 //038   ----------------------------------------
 BYTE   W96
//  #03 //039   ----------------------------------------
 BYTE   W96
//  #03 //040   ----------------------------------------
 BYTE   W96
//  #03 //041   ----------------------------------------
 BYTE   W12
 BYTE   GoTo
  POIN2 Label_01024543
//  #03 //042   ----------------------------------------
 BYTE   W84
 BYTE   W96
//  #03 //043   ----------------------------------------
 BYTE   W96
//  #03 //044   ----------------------------------------
 BYTE   W96
//  #03 //045   ----------------------------------------
 BYTE   W96
//  #03 //046   ----------------------------------------
 BYTE   W96
//  #03 //047   ----------------------------------------
 BYTE   W96
//  #03 //048   ----------------------------------------
 BYTE   W96
//  #03 //049   ----------------------------------------
 BYTE   PATT
  POIN2 Label_0102454B
//  #03 //050   ----------------------------------------
 BYTE   PATT
  POIN2 Label_01024559
//  #03 //051   ----------------------------------------
 BYTE   PATT
  POIN2 Label_0102457C
//  #03 //052   ----------------------------------------
 BYTE   PATT
  POIN2 Label_0102459F
//  #03 //053   ----------------------------------------
 BYTE   PATT
  POIN2 Label_010245C3
//  #03 //054   ----------------------------------------
 BYTE   PATT
  POIN2 Label_010245DE
//  #03 //055   ----------------------------------------
 BYTE   PATT
  POIN2 Label_010245E5
//  #03 //056   ----------------------------------------
 BYTE   PATT
  POIN2 Label_010245EF
//  #03 //057   ----------------------------------------
 BYTE   PATT
  POIN2 Label_010245FB
//  #03 //058   ----------------------------------------
 BYTE   PATT
  POIN2 Label_01024605
//  #03 //059   ----------------------------------------
 BYTE   PATT
  POIN2 Label_01024610
//  #03 //060   ----------------------------------------
 BYTE   PATT
  POIN2 Label_0102461A
//  #03 //061   ----------------------------------------
 BYTE   PATT
  POIN2 Label_01024625
//  #03 //062   ----------------------------------------
 BYTE   PATT
  POIN2 Label_0102462F
//  #03 //063   ----------------------------------------
 BYTE   PATT
  POIN2 Label_0102463A
//  #03 //064   ----------------------------------------
 BYTE   PATT
  POIN2 Label_01024648
//  #03 //065   ----------------------------------------
 BYTE   PATT
  POIN2 Label_01024652
//  #03 //066   ----------------------------------------
 BYTE   W96
//  #03 //067   ----------------------------------------
 BYTE   W96
//  #03 //068   ----------------------------------------
 BYTE   W96
//  #03 //069   ----------------------------------------
 BYTE   W96
//  #03 //070   ----------------------------------------
 BYTE   W96
//  #03 //071   ----------------------------------------
 BYTE   W96
//  #03 //072   ----------------------------------------
 BYTE   W96
//  #03 //073   ----------------------------------------
 BYTE   W96
//  #03 //074   ----------------------------------------
 BYTE   W96
//  #03 //075   ----------------------------------------
 BYTE   W96
//  #03 //076   ----------------------------------------
 BYTE   W96
//  #03 //077   ----------------------------------------
 BYTE   W96
//  #03 //078   ----------------------------------------
 BYTE   W96
//  #03 //079   ----------------------------------------
 BYTE   W96
//  #03 //080   ----------------------------------------
 BYTE   W96
//  #03 //081   ----------------------------------------
 BYTE   W96
//  #03 //082   ----------------------------------------
 BYTE   W96
//  #03 //083   ----------------------------------------
 BYTE   W96
//  #03 //084   ----------------------------------------
 BYTE   W96
//  #03 //085   ----------------------------------------
 BYTE   PATT
  POIN2 Label_0102454B
//  #03 //086   ----------------------------------------
 BYTE   PATT
  POIN2 Label_01024559
//  #03 //087   ----------------------------------------
 BYTE   PATT
  POIN2 Label_0102457C
//  #03 //088   ----------------------------------------
 BYTE   PATT
  POIN2 Label_0102459F
//  #03 //089   ----------------------------------------
 BYTE   PATT
  POIN2 Label_010245C3
//  #03 //090   ----------------------------------------
 BYTE   PATT
  POIN2 Label_010245DE
//  #03 //091   ----------------------------------------
 BYTE   PATT
  POIN2 Label_010245E5
//  #03 //092   ----------------------------------------
 BYTE   PATT
  POIN2 Label_010245EF
//  #03 //093   ----------------------------------------
 BYTE   PATT
  POIN2 Label_010245FB
//  #03 //094   ----------------------------------------
 BYTE   PATT
  POIN2 Label_01024605
//  #03 //095   ----------------------------------------
 BYTE   PATT
  POIN2 Label_01024610
//  #03 //096   ----------------------------------------
 BYTE   PATT
  POIN2 Label_0102461A
//  #03 //097   ----------------------------------------
 BYTE   PATT
  POIN2 Label_01024625
//  #03 //098   ----------------------------------------
 BYTE   PATT
  POIN2 Label_0102462F
//  #03 //099   ----------------------------------------
 BYTE   PATT
  POIN2 Label_0102463A
//  #03 //100   ----------------------------------------
 BYTE   PATT
  POIN2 Label_01024648
//  #03 //101   ----------------------------------------
 BYTE   PATT
  POIN2 Label_01024652
//  #03 //102   ----------------------------------------
 BYTE   W96
//  #03 //103   ----------------------------------------
 BYTE   W96
//  #03 //104   ----------------------------------------
 BYTE   W96
//  #03 //105   ----------------------------------------
 BYTE   W96
//  #03 //106   ----------------------------------------
 BYTE   W96
//  #03 //107   ----------------------------------------
 BYTE   W96
//  #03 //108   ----------------------------------------
 BYTE   W96
//  #03 //109   ----------------------------------------
 BYTE   W96
//  #03 //110   ----------------------------------------
 BYTE   W96
//  #03 //111   ----------------------------------------
 BYTE   W96
//  #03 //112   ----------------------------------------
 BYTE   W96
//  #03 //113   ----------------------------------------
 BYTE   W96
//  #03 //114   ----------------------------------------
 BYTE   W96
//  #03 //115   ----------------------------------------
 BYTE   W96
//  #03 //116   ----------------------------------------
 BYTE   W96
//  #03 //117   ----------------------------------------
 BYTE   W96
//  #03 //118   ----------------------------------------
 BYTE   W96
//  #03 //119   ----------------------------------------
 BYTE   W96
//  #03 //120   ----------------------------------------
 BYTE   W96
//  #03 //121   ----------------------------------------
 BYTE   PATT
  POIN2 Label_0102454B
//  #03 //122   ----------------------------------------
 BYTE   PATT
  POIN2 Label_01024559
//  #03 //123   ----------------------------------------
 BYTE   PATT
  POIN2 Label_0102457C
//  #03 //124   ----------------------------------------
 BYTE   PATT
  POIN2 Label_0102459F
//  #03 //125   ----------------------------------------
 BYTE   PATT
  POIN2 Label_010245C3
//  #03 //126   ----------------------------------------
 BYTE   PATT
  POIN2 Label_010245DE
//  #03 //127   ----------------------------------------
 BYTE   PATT
  POIN2 Label_010245E5
//  #03 //128   ----------------------------------------
 BYTE   PATT
  POIN2 Label_010245EF
//  #03 //129   ----------------------------------------
 BYTE   PATT
  POIN2 Label_010245FB
//  #03 //130   ----------------------------------------
 BYTE   PATT
  POIN2 Label_01024605
//  #03 //131   ----------------------------------------
 BYTE   PATT
  POIN2 Label_01024610
//  #03 //132   ----------------------------------------
 BYTE   PATT
  POIN2 Label_0102461A
//  #03 //133   ----------------------------------------
 BYTE   PATT
  POIN2 Label_01024625
//  #03 //134   ----------------------------------------
 BYTE   PATT
  POIN2 Label_0102462F
//  #03 //135   ----------------------------------------
 BYTE   PATT
  POIN2 Label_0102463A
//  #03 //136   ----------------------------------------
 BYTE   PATT
  POIN2 Label_01024648
//  #03 //137   ----------------------------------------
 BYTE   PATT
  POIN2 Label_01024652
//  #03 //138   ----------------------------------------
 BYTE   W96
//  #03 //139   ----------------------------------------
 BYTE   W96
//  #03 //140   ----------------------------------------
 BYTE   W96
//  #03 //141   ----------------------------------------
 BYTE   W96
//  #03 //142   ----------------------------------------
 BYTE   W96
//  #03 //143   ----------------------------------------
 BYTE   W96
//  #03 //144   ----------------------------------------
 BYTE   W96
//  #03 //145   ----------------------------------------
 BYTE   W96
//  #03 //146   ----------------------------------------
 BYTE   W96
//  #03 //147   ----------------------------------------
 BYTE   W96
//  #03 //148   ----------------------------------------
 BYTE   W96
//  #03 //149   ----------------------------------------
 BYTE   W96
//  #03 //150   ----------------------------------------
 BYTE   W96
//  #03 //151   ----------------------------------------
 BYTE   W96
//  #03 //152   ----------------------------------------
 BYTE   W96
//  #03 //153   ----------------------------------------
 BYTE   W96
//  #03 //154   ----------------------------------------
 BYTE   W96
//  #03 //155   ----------------------------------------
 BYTE   W96
//  #03 //156   ----------------------------------------
 BYTE   W96
//  #03 //157   ----------------------------------------
 BYTE   PATT
  POIN2 Label_0102454B
//  #03 //158   ----------------------------------------
 BYTE   PATT
  POIN2 Label_01024559
//  #03 //159   ----------------------------------------
 BYTE   PATT
  POIN2 Label_0102457C
//  #03 //160   ----------------------------------------
 BYTE   PATT
  POIN2 Label_0102459F
//  #03 //161   ----------------------------------------
 BYTE   PATT
  POIN2 Label_010245C3
//  #03 //162   ----------------------------------------
 BYTE   PATT
  POIN2 Label_010245DE
//  #03 //163   ----------------------------------------
 BYTE   PATT
  POIN2 Label_010245E5
//  #03 //164   ----------------------------------------
 BYTE   PATT
  POIN2 Label_010245EF
//  #03 //165   ----------------------------------------
 BYTE   PATT
  POIN2 Label_010245FB
//  #03 //166   ----------------------------------------
 BYTE   PATT
  POIN2 Label_01024605
//  #03 //167   ----------------------------------------
 BYTE   PATT
  POIN2 Label_01024610
//  #03 //168   ----------------------------------------
 BYTE   PATT
  POIN2 Label_0102461A
//  #03 //169   ----------------------------------------
 BYTE   PATT
  POIN2 Label_01024625
//  #03 //170   ----------------------------------------
 BYTE   PATT
  POIN2 Label_0102462F
//  #03 //171   ----------------------------------------
 BYTE   PATT
  POIN2 Label_0102463A
//  #03 //172   ----------------------------------------
 BYTE   PATT
  POIN2 Label_01024648
//  #03 //173   ----------------------------------------
 BYTE   PATT
  POIN2 Label_01024652
//  #03 //174   ----------------------------------------
 BYTE   W96
//  #03 //175   ----------------------------------------
 BYTE   W96
//  #03 //176   ----------------------------------------
 BYTE   W96
//  #03 //177   ----------------------------------------
 BYTE   W96
//  #03 //178   ----------------------------------------
 BYTE   W96
//  #03 //179   ----------------------------------------
 BYTE   W96
//  #03 //180   ----------------------------------------
 BYTE   W96
//  #03 //181   ----------------------------------------
 BYTE   W96
//  #03 //182   ----------------------------------------
 BYTE   W96
//  #03 //183   ----------------------------------------
 BYTE   W96
//  #03 //184   ----------------------------------------
 BYTE   W96
//  #03 //185   ----------------------------------------
 BYTE   W96
//  #03 //186   ----------------------------------------
 BYTE   W96
//  #03 //187   ----------------------------------------
 BYTE   W96
//  #03 //188   ----------------------------------------
 BYTE   W96
//  #03 //189   ----------------------------------------
 BYTE   W96
//  #03 //190   ----------------------------------------
 BYTE   W96
//  #03 //191   ----------------------------------------
 BYTE   W96
//  #03 //192   ----------------------------------------
 BYTE   W96
//  #03 //193   ----------------------------------------
 BYTE   PATT
  POIN2 Label_0102454B
//  #03 //194   ----------------------------------------
 BYTE   PATT
  POIN2 Label_01024559
//  #03 //195   ----------------------------------------
 BYTE   PATT
  POIN2 Label_0102457C
//  #03 //196   ----------------------------------------
 BYTE   PATT
  POIN2 Label_0102459F
//  #03 //197   ----------------------------------------
 BYTE   PATT
  POIN2 Label_010245C3
//  #03 //198   ----------------------------------------
 BYTE   PATT
  POIN2 Label_010245DE
//  #03 //199   ----------------------------------------
 BYTE   PATT
  POIN2 Label_010245E5
//  #03 //200   ----------------------------------------
 BYTE   PATT
  POIN2 Label_010245EF
//  #03 //201   ----------------------------------------
 BYTE   PATT
  POIN2 Label_010245FB
//  #03 //202   ----------------------------------------
 BYTE   PATT
  POIN2 Label_01024605
//  #03 //203   ----------------------------------------
 BYTE   PATT
  POIN2 Label_01024610
//  #03 //204   ----------------------------------------
 BYTE   PATT
  POIN2 Label_0102461A
//  #03 //205   ----------------------------------------
 BYTE   PATT
  POIN2 Label_01024625
//  #03 //206   ----------------------------------------
 BYTE   PATT
  POIN2 Label_0102462F
//  #03 //207   ----------------------------------------
 BYTE   PATT
  POIN2 Label_0102463A
//  #03 //208   ----------------------------------------
 BYTE   PATT
  POIN2 Label_01024648
//  #03 //209   ----------------------------------------
 BYTE   PATT
  POIN2 Label_01024652
//  #03 //210   ----------------------------------------
 BYTE   W96
//  #03 //211   ----------------------------------------
 BYTE   W96
//  #03 //212   ----------------------------------------
 BYTE   W96
//  #03 //213   ----------------------------------------
 BYTE   W96
//  #03 //214   ----------------------------------------
 BYTE   W96
//  #03 //215   ----------------------------------------
 BYTE   W96
//  #03 //216   ----------------------------------------
 BYTE   W96
//  #03 //217   ----------------------------------------
 BYTE   W96
//  #03 //218   ----------------------------------------
 BYTE   W96
//  #03 //219   ----------------------------------------
 BYTE   W96
//  #03 //220   ----------------------------------------
 BYTE   W96
//  #03 //221   ----------------------------------------
 BYTE   W96
//  #03 //222   ----------------------------------------
 BYTE   W96
//  #03 //223   ----------------------------------------
 BYTE   W96
//  #03 //224   ----------------------------------------
 BYTE   W96
//  #03 //225   ----------------------------------------
 BYTE   W96
//  #03 //226   ----------------------------------------
 BYTE   W96
//  #03 //227   ----------------------------------------
 BYTE   W96
//  #03 //228   ----------------------------------------
 BYTE   W96
//  #03 //229   ----------------------------------------
 BYTE   PATT
  POIN2 Label_0102454B
//  #03 //230   ----------------------------------------
 BYTE   PATT
  POIN2 Label_01024559
//  #03 //231   ----------------------------------------
 BYTE   PATT
  POIN2 Label_0102457C
//  #03 //232   ----------------------------------------
 BYTE   PATT
  POIN2 Label_0102459F
//  #03 //233   ----------------------------------------
 BYTE   PATT
  POIN2 Label_010245C3
//  #03 //234   ----------------------------------------
 BYTE   PATT
  POIN2 Label_010245DE
//  #03 //235   ----------------------------------------
 BYTE   PATT
  POIN2 Label_010245E5
//  #03 //236   ----------------------------------------
 BYTE   PATT
  POIN2 Label_010245EF
//  #03 //237   ----------------------------------------
 BYTE   PATT
  POIN2 Label_010245FB
//  #03 //238   ----------------------------------------
 BYTE   PATT
  POIN2 Label_01024605
//  #03 //239   ----------------------------------------
 BYTE   PATT
  POIN2 Label_01024610
//  #03 //240   ----------------------------------------
 BYTE   PATT
  POIN2 Label_0102461A
//  #03 //241   ----------------------------------------
 BYTE   PATT
  POIN2 Label_01024625
//  #03 //242   ----------------------------------------
 BYTE   PATT
  POIN2 Label_0102462F
//  #03 //243   ----------------------------------------
 BYTE   PATT
  POIN2 Label_0102463A
//  #03 //244   ----------------------------------------
 BYTE   PATT
  POIN2 Label_01024648
//  #03 //245   ----------------------------------------
 BYTE   PATT
  POIN2 Label_01024652
//  #03 //246   ----------------------------------------
 BYTE   W96
//  #03 //247   ----------------------------------------
 BYTE   W96
//  #03 //248   ----------------------------------------
 BYTE   W96
//  #03 //249   ----------------------------------------
 BYTE   W96
//  #03 //250   ----------------------------------------
 BYTE   W96
//  #03 //251   ----------------------------------------
 BYTE   W96
//  #03 //252   ----------------------------------------
 BYTE   W96
//  #03 //253   ----------------------------------------
 BYTE   W96
//  #03 //254   ----------------------------------------
 BYTE   W96
//  #03 //255   ----------------------------------------
 BYTE   W96
//  #03 //256   ----------------------------------------
 BYTE   W96
//  #03 //257   ----------------------------------------
 BYTE   W96
//  #03 //258   ----------------------------------------
 BYTE   W96
//  #03 //259   ----------------------------------------
 BYTE   W96
//  #03 //260   ----------------------------------------
 BYTE   W96
//  #03 //261   ----------------------------------------
 BYTE   W96
//  #03 //262   ----------------------------------------
 BYTE   W96
//  #03 //263   ----------------------------------------
 BYTE   W96
//  #03 //264   ----------------------------------------
 BYTE   W96
//  #03 //265   ----------------------------------------
 BYTE   PATT
  POIN2 Label_0102454B
//  #03 //266   ----------------------------------------
 BYTE   PATT
  POIN2 Label_01024559
//  #03 //267   ----------------------------------------
 BYTE   PATT
  POIN2 Label_0102457C
//  #03 //268   ----------------------------------------
 BYTE   PATT
  POIN2 Label_0102459F
//  #03 //269   ----------------------------------------
 BYTE   PATT
  POIN2 Label_010245C3
//  #03 //270   ----------------------------------------
 BYTE   PATT
  POIN2 Label_010245DE
//  #03 //271   ----------------------------------------
 BYTE   PATT
  POIN2 Label_010245E5
//  #03 //272   ----------------------------------------
 BYTE   PATT
  POIN2 Label_010245EF
//  #03 //273   ----------------------------------------
 BYTE   PATT
  POIN2 Label_010245FB
//  #03 //274   ----------------------------------------
 BYTE   PATT
  POIN2 Label_01024605
//  #03 //275   ----------------------------------------
 BYTE   PATT
  POIN2 Label_01024610
//  #03 //276   ----------------------------------------
 BYTE   PATT
  POIN2 Label_0102461A
//  #03 //277   ----------------------------------------
 BYTE   PATT
  POIN2 Label_01024625
//  #03 //278   ----------------------------------------
 BYTE   PATT
  POIN2 Label_0102462F
//  #03 //279   ----------------------------------------
 BYTE   PATT
  POIN2 Label_0102463A
//  #03 //280   ----------------------------------------
 BYTE   PATT
  POIN2 Label_01024648
//  #03 //281   ----------------------------------------
 BYTE   PATT
  POIN2 Label_01024652
//  #03 //282   ----------------------------------------
 BYTE   W96
//  #03 //283   ----------------------------------------
 BYTE   W96
//  #03 //284   ----------------------------------------
 BYTE   W96
//  #03 //285   ----------------------------------------
 BYTE   W96
//  #03 //286   ----------------------------------------
 BYTE   W96
//  #03 //287   ----------------------------------------
 BYTE   W96
//  #03 //288   ----------------------------------------
 BYTE   W96
//  #03 //289   ----------------------------------------
 BYTE   W96
//  #03 //290   ----------------------------------------
 BYTE   W96
//  #03 //291   ----------------------------------------
 BYTE   W96
//  #03 //292   ----------------------------------------
 BYTE   W96
//  #03 //293   ----------------------------------------
 BYTE   W96
//  #03 //294   ----------------------------------------
 BYTE   W96
//  #03 //295   ----------------------------------------
 BYTE   W96
//  #03 //296   ----------------------------------------
 BYTE   W96
//  #03 //297   ----------------------------------------
 BYTE   W96
//  #03 //298   ----------------------------------------
 BYTE   W96
//  #03 //299   ----------------------------------------
 BYTE   W96
//  #03 //300   ----------------------------------------
 BYTE   W96
//  #03 //301   ----------------------------------------
 BYTE   PATT
  POIN2 Label_0102454B
//  #03 //302   ----------------------------------------
 BYTE   PATT
  POIN2 Label_01024559
//  #03 //303   ----------------------------------------
 BYTE   PATT
  POIN2 Label_0102457C
//  #03 //304   ----------------------------------------
 BYTE   PATT
  POIN2 Label_0102459F
//  #03 //305   ----------------------------------------
 BYTE   PATT
  POIN2 Label_010245C3
//  #03 //306   ----------------------------------------
 BYTE   PATT
  POIN2 Label_010245DE
//  #03 //307   ----------------------------------------
 BYTE   PATT
  POIN2 Label_010245E5
//  #03 //308   ----------------------------------------
 BYTE   PATT
  POIN2 Label_010245EF
//  #03 //309   ----------------------------------------
 BYTE   PATT
  POIN2 Label_010245FB
//  #03 //310   ----------------------------------------
 BYTE   PATT
  POIN2 Label_01024605
//  #03 //311   ----------------------------------------
 BYTE   PATT
  POIN2 Label_01024610
//  #03 //312   ----------------------------------------
 BYTE   PATT
  POIN2 Label_0102461A
//  #03 //313   ----------------------------------------
 BYTE   PATT
  POIN2 Label_01024625
//  #03 //314   ----------------------------------------
 BYTE   PATT
  POIN2 Label_0102462F
//  #03 //315   ----------------------------------------
 BYTE   PATT
  POIN2 Label_0102463A
//  #03 //316   ----------------------------------------
 BYTE   PATT
  POIN2 Label_01024648
//  #03 //317   ----------------------------------------
 BYTE   PATT
  POIN2 Label_01024652
//  #03 //318   ----------------------------------------
 BYTE   W96
//  #03 //319   ----------------------------------------
 BYTE   W96
//  #03 //320   ----------------------------------------
 BYTE   W96
//  #03 //321   ----------------------------------------
 BYTE   W96
//  #03 //322   ----------------------------------------
 BYTE   W96
//  #03 //323   ----------------------------------------
 BYTE   W96
//  #03 //324   ----------------------------------------
 BYTE   W96
//  #03 //325   ----------------------------------------
 BYTE   W96
//  #03 //326   ----------------------------------------
 BYTE   W96
//  #03 //327   ----------------------------------------
 BYTE   W96
//  #03 //328   ----------------------------------------
 BYTE   W96
//  #03 //329   ----------------------------------------
 BYTE   W96
//  #03 //330   ----------------------------------------
 BYTE   W96
//  #03 //331   ----------------------------------------
 BYTE   W96
//  #03 //332   ----------------------------------------
 BYTE   W96
//  #03 //333   ----------------------------------------
 BYTE   W96
//  #03 //334   ----------------------------------------
 BYTE   W96
//  #03 //335   ----------------------------------------
 BYTE   W96
//  #03 //336   ----------------------------------------
 BYTE   W96
//  #03 //337   ----------------------------------------
 BYTE   PATT
  POIN2 Label_0102454B
//  #03 //338   ----------------------------------------
 BYTE   PATT
  POIN2 Label_01024559
//  #03 //339   ----------------------------------------
 BYTE   PATT
  POIN2 Label_0102457C
//  #03 //340   ----------------------------------------
 BYTE   PATT
  POIN2 Label_0102459F
//  #03 //341   ----------------------------------------
 BYTE   PATT
  POIN2 Label_010245C3
//  #03 //342   ----------------------------------------
 BYTE   PATT
  POIN2 Label_010245DE
//  #03 //343   ----------------------------------------
 BYTE   PATT
  POIN2 Label_010245E5
//  #03 //344   ----------------------------------------
 BYTE   PATT
  POIN2 Label_010245EF
//  #03 //345   ----------------------------------------
 BYTE   PATT
  POIN2 Label_010245FB
//  #03 //346   ----------------------------------------
 BYTE   PATT
  POIN2 Label_01024605
//  #03 //347   ----------------------------------------
 BYTE   PATT
  POIN2 Label_01024610
//  #03 //348   ----------------------------------------
 BYTE   PATT
  POIN2 Label_0102461A
//  #03 //349   ----------------------------------------
 BYTE   PATT
  POIN2 Label_01024625
//  #03 //350   ----------------------------------------
 BYTE   PATT
  POIN2 Label_0102462F
//  #03 //351   ----------------------------------------
 BYTE   PATT
  POIN2 Label_0102463A
//  #03 //352   ----------------------------------------
 BYTE   PATT
  POIN2 Label_01024648
//  #03 //353   ----------------------------------------
 BYTE   PATT
  POIN2 Label_01024652
//  #03 //354   ----------------------------------------
 BYTE   W96
//  #03 //355   ----------------------------------------
 BYTE   W96
//  #03 //356   ----------------------------------------
 BYTE   W96
//  #03 //357   ----------------------------------------
 BYTE   W96
//  #03 //358   ----------------------------------------
 BYTE   W96
//  #03 //359   ----------------------------------------
 BYTE   W96
//  #03 //360   ----------------------------------------
 BYTE   W96
//  #03 //361   ----------------------------------------
 BYTE   W96
//  #03 //362   ----------------------------------------
 BYTE   W96
//  #03 //363   ----------------------------------------
 BYTE   W96
//  #03 //364   ----------------------------------------
 BYTE   W92
 BYTE   W03
 BYTE   FINE

//**************** Track 4 (Midi-Chn.3) ****************//

PowerHungryFool_004:
//  #04 //000   ----------------------------------------
 BYTE   KEYSH   PowerHungryFool_key+0
 BYTE   VOICE   49
 BYTE   VOL   57*PowerHungryFool_mvl/mxv
 BYTE   PAN   c_v+0
 BYTE   W96
//  #04 //001   ----------------------------------------
 BYTE   W96
//  #04 //002   ----------------------------------------
 BYTE   W96
//  #04 //003   ----------------------------------------
 BYTE   W96
//  #04 //004   ----------------------------------------
 BYTE   W96
//  #04 //005   ----------------------------------------
 BYTE   W96
//  #04 //006   ----------------------------------------
 BYTE   W12
Label_0102689F:
 BYTE   W84
//  #04 //007   ----------------------------------------
 BYTE   W96
//  #04 //008   ----------------------------------------
 BYTE   W96
//  #04 //009   ----------------------------------------
 BYTE   W96
//  #04 //010   ----------------------------------------
 BYTE   W96
//  #04 //011   ----------------------------------------
 BYTE   W96
//  #04 //012   ----------------------------------------
 BYTE   W96
//  #04 //013   ----------------------------------------
 BYTE   W96
//  #04 //014   ----------------------------------------
Label_010268A7:
 BYTE   N23  As1  v080
 BYTE   W24
 BYTE   Cn2
 BYTE   W24
 BYTE   As1
 BYTE   W24
 BYTE   Cn2
 BYTE   W24
 BYTE   PEND 
//  #04 //015   ----------------------------------------
Label_010268B2:
 BYTE   N23  As1  v080
 BYTE   W24
 BYTE   N11  Cn2
 BYTE   W12
 BYTE   Cs2
 BYTE   W12
 BYTE   Dn2
 BYTE   W12
 BYTE   Cn2
 BYTE   W12
 BYTE   N23  As1
 BYTE   W24
 BYTE   PEND 
//  #04 //016   ----------------------------------------
Label_010268C3:
 BYTE   N11  Gn1  v080
 BYTE   W12
 BYTE   Cn2
 BYTE   W12
 BYTE   An1
 BYTE   W12
 BYTE   An2
 BYTE   W12
 BYTE   As2
 BYTE   W12
 BYTE   Gn2
 BYTE   W12
 BYTE   Dn2
 BYTE   N11  An2
 BYTE   W12
 BYTE   Fs2
 BYTE   W12
 BYTE   PEND 
//  #04 //017   ----------------------------------------
Label_010268D8:
 BYTE   N02  Dn2  v080
 BYTE   W03
 BYTE   Ds2
 BYTE   W03
 BYTE   Dn2
 BYTE   W03
 BYTE   Ds2
 BYTE   W03
 BYTE   Dn2
 BYTE   W03
 BYTE   Ds2
 BYTE   W03
 BYTE   Dn2
 BYTE   W03
 BYTE   Ds2
 BYTE   W03
 BYTE   Dn2
 BYTE   W03
 BYTE   Ds2
 BYTE   W03
 BYTE   Dn2
 BYTE   W03
 BYTE   Ds2
 BYTE   W03
 BYTE   Dn2
 BYTE   W03
 BYTE   Ds2
 BYTE   W03
 BYTE   Dn2
 BYTE   W03
 BYTE   Ds2
 BYTE   W03
 BYTE   Dn2
 BYTE   W03
 BYTE   Ds2
 BYTE   W03
 BYTE   Dn2
 BYTE   W03
 BYTE   Ds2
 BYTE   W03
 BYTE   Dn2
 BYTE   W03
 BYTE   Ds2
 BYTE   W03
 BYTE   Dn2
 BYTE   W03
 BYTE   Ds2
 BYTE   W03
 BYTE   Dn2
 BYTE   W03
 BYTE   Ds2
 BYTE   W03
 BYTE   Dn2
 BYTE   W03
 BYTE   Ds2
 BYTE   W03
 BYTE   Dn2
 BYTE   W03
 BYTE   Ds2
 BYTE   W03
 BYTE   Dn2
 BYTE   W03
 BYTE   Ds2
 BYTE   W03
 BYTE   PEND 
//  #04 //018   ----------------------------------------
Label_0102691B:
 BYTE   N11  Cn2  v080
 BYTE   W12
 BYTE   As1
 BYTE   W12
 BYTE   An2
 BYTE   W12
 BYTE   N05  Dn3
 BYTE   W06
 BYTE   Cn3
 BYTE   W06
 BYTE   N11  As2
 BYTE   W24
 BYTE   An2
 BYTE   W24
 BYTE   PEND 
//  #04 //019   ----------------------------------------
Label_0102692E:
 BYTE   TIE  Gn1  v080
 BYTE   N11  As2
 BYTE   W48
 BYTE   PEND 
Label_01026935:
 BYTE   W68
//  #04 //020   ----------------------------------------
 BYTE   W03
 BYTE   PEND 
 BYTE   EOT
 BYTE   Gn1
 BYTE   W24
 BYTE   W01
Label_0102693C:
 BYTE   N44  Fn2  v080
 BYTE   W48
 BYTE   As1
 BYTE   W48
 BYTE   PEND 
//  #04 //021   ----------------------------------------
Label_01026943:
 BYTE   N44  Dn2  v080
 BYTE   W48
 BYTE   Gs1
 BYTE   W48
 BYTE   PEND 
//  #04 //022   ----------------------------------------
Label_0102694A:
 BYTE   N44  En2  v080
 BYTE   W48
 BYTE   Dn2
 BYTE   W48
 BYTE   PEND 
//  #04 //023   ----------------------------------------
 BYTE   W96
//  #04 //024   ----------------------------------------
 BYTE   W96
//  #04 //025   ----------------------------------------
 BYTE   W96
//  #04 //026   ----------------------------------------
 BYTE   W96
//  #04 //027   ----------------------------------------
Label_01026955:
 BYTE   N05  An1  v080
 BYTE   W12
 BYTE   Bn1
 BYTE   W12
 BYTE   Cs2
 BYTE   W12
 BYTE   En2
 BYTE   W12
 BYTE   N44  An1
 BYTE   W48
 BYTE   PEND 
//  #04 //028   ----------------------------------------
Label_01026963:
 BYTE   N02  An1  v080
 BYTE   W03
 BYTE   As1
 BYTE   W03
 BYTE   An1
 BYTE   W03
 BYTE   As1
 BYTE   W03
 BYTE   An1
 BYTE   W03
 BYTE   As1
 BYTE   W03
 BYTE   An1
 BYTE   W03
 BYTE   As1
 BYTE   W03
 BYTE   An1
 BYTE   W03
 BYTE   As1
 BYTE   W03
 BYTE   An1
 BYTE   W03
 BYTE   As1
 BYTE   W03
 BYTE   An1
 BYTE   W03
 BYTE   As1
 BYTE   W03
 BYTE   An1
 BYTE   W03
 BYTE   As1
 BYTE   W03
 BYTE   N68  An1
 BYTE   W48
 BYTE   PEND 
//  #04 //029   ----------------------------------------
Label_01026989:
 BYTE   W24
 BYTE   N68  An3  v080
 BYTE   W72
 BYTE   PEND 
//  #04 //030   ----------------------------------------
 BYTE   W96
//  #04 //031   ----------------------------------------
 BYTE   W96
//  #04 //032   ----------------------------------------
 BYTE   W96
//  #04 //033   ----------------------------------------
 BYTE   W96
//  #04 //034   ----------------------------------------
 BYTE   W96
//  #04 //035   ----------------------------------------
 BYTE   W96
//  #04 //036   ----------------------------------------
 BYTE   W96
//  #04 //037   ----------------------------------------
 BYTE   W96
//  #04 //038   ----------------------------------------
 BYTE   W96
//  #04 //039   ----------------------------------------
 BYTE   W96
//  #04 //040   ----------------------------------------
 BYTE   W96
//  #04 //041   ----------------------------------------
 BYTE   W12
 BYTE   GoTo
  POIN2 Label_0102689F
//  #04 //042   ----------------------------------------
 BYTE   W84
 BYTE   W96
//  #04 //043   ----------------------------------------
 BYTE   W96
//  #04 //044   ----------------------------------------
 BYTE   W96
//  #04 //045   ----------------------------------------
 BYTE   W96
//  #04 //046   ----------------------------------------
 BYTE   W96
//  #04 //047   ----------------------------------------
 BYTE   W96
//  #04 //048   ----------------------------------------
 BYTE   W96
//  #04 //049   ----------------------------------------
 BYTE   PATT
  POIN2 Label_010268A7
//  #04 //050   ----------------------------------------
 BYTE   PATT
  POIN2 Label_010268B2
//  #04 //051   ----------------------------------------
 BYTE   PATT
  POIN2 Label_010268C3
//  #04 //052   ----------------------------------------
 BYTE   PATT
  POIN2 Label_010268D8
//  #04 //053   ----------------------------------------
 BYTE   PATT
  POIN2 Label_0102691B
//  #04 //054   ----------------------------------------
 BYTE   PATT
  POIN2 Label_0102692E
//  #04 //055   ----------------------------------------
 BYTE   PATT
  POIN2 Label_01026935
//  #04 //056   ----------------------------------------
 BYTE   EOT
 BYTE   Gn1
 BYTE   W24
 BYTE   W01
//  #04 //057   ----------------------------------------
 BYTE   PATT
  POIN2 Label_0102693C
//  #04 //058   ----------------------------------------
 BYTE   PATT
  POIN2 Label_01026943
//  #04 //059   ----------------------------------------
 BYTE   PATT
  POIN2 Label_0102694A
//  #04 //060   ----------------------------------------
 BYTE   W96
//  #04 //061   ----------------------------------------
 BYTE   W96
//  #04 //062   ----------------------------------------
 BYTE   W96
//  #04 //063   ----------------------------------------
 BYTE   W96
//  #04 //064   ----------------------------------------
 BYTE   PATT
  POIN2 Label_01026955
//  #04 //065   ----------------------------------------
 BYTE   PATT
  POIN2 Label_01026963
//  #04 //066   ----------------------------------------
 BYTE   PATT
  POIN2 Label_01026989
//  #04 //067   ----------------------------------------
 BYTE   W96
//  #04 //068   ----------------------------------------
 BYTE   W96
//  #04 //069   ----------------------------------------
 BYTE   W96
//  #04 //070   ----------------------------------------
 BYTE   W96
//  #04 //071   ----------------------------------------
 BYTE   W96
//  #04 //072   ----------------------------------------
 BYTE   W96
//  #04 //073   ----------------------------------------
 BYTE   W96
//  #04 //074   ----------------------------------------
 BYTE   W96
//  #04 //075   ----------------------------------------
 BYTE   W96
//  #04 //076   ----------------------------------------
 BYTE   W96
//  #04 //077   ----------------------------------------
 BYTE   W96
//  #04 //078   ----------------------------------------
 BYTE   W96
//  #04 //079   ----------------------------------------
 BYTE   W96
//  #04 //080   ----------------------------------------
 BYTE   W96
//  #04 //081   ----------------------------------------
 BYTE   W96
//  #04 //082   ----------------------------------------
 BYTE   W96
//  #04 //083   ----------------------------------------
 BYTE   W96
//  #04 //084   ----------------------------------------
 BYTE   W96
//  #04 //085   ----------------------------------------
 BYTE   W96
//  #04 //086   ----------------------------------------
 BYTE   PATT
  POIN2 Label_010268A7
//  #04 //087   ----------------------------------------
 BYTE   PATT
  POIN2 Label_010268B2
//  #04 //088   ----------------------------------------
 BYTE   PATT
  POIN2 Label_010268C3
//  #04 //089   ----------------------------------------
 BYTE   PATT
  POIN2 Label_010268D8
//  #04 //090   ----------------------------------------
 BYTE   PATT
  POIN2 Label_0102691B
//  #04 //091   ----------------------------------------
 BYTE   PATT
  POIN2 Label_0102692E
//  #04 //092   ----------------------------------------
 BYTE   PATT
  POIN2 Label_01026935
//  #04 //093   ----------------------------------------
 BYTE   EOT
 BYTE   Gn1
 BYTE   W24
 BYTE   W01
//  #04 //094   ----------------------------------------
 BYTE   PATT
  POIN2 Label_0102693C
//  #04 //095   ----------------------------------------
 BYTE   PATT
  POIN2 Label_01026943
//  #04 //096   ----------------------------------------
 BYTE   PATT
  POIN2 Label_0102694A
//  #04 //097   ----------------------------------------
 BYTE   W96
//  #04 //098   ----------------------------------------
 BYTE   W96
//  #04 //099   ----------------------------------------
 BYTE   W96
//  #04 //100   ----------------------------------------
 BYTE   W96
//  #04 //101   ----------------------------------------
 BYTE   PATT
  POIN2 Label_01026955
//  #04 //102   ----------------------------------------
 BYTE   PATT
  POIN2 Label_01026963
//  #04 //103   ----------------------------------------
 BYTE   PATT
  POIN2 Label_01026989
//  #04 //104   ----------------------------------------
 BYTE   W96
//  #04 //105   ----------------------------------------
 BYTE   W96
//  #04 //106   ----------------------------------------
 BYTE   W96
//  #04 //107   ----------------------------------------
 BYTE   W96
//  #04 //108   ----------------------------------------
 BYTE   W96
//  #04 //109   ----------------------------------------
 BYTE   W96
//  #04 //110   ----------------------------------------
 BYTE   W96
//  #04 //111   ----------------------------------------
 BYTE   W96
//  #04 //112   ----------------------------------------
 BYTE   W96
//  #04 //113   ----------------------------------------
 BYTE   W96
//  #04 //114   ----------------------------------------
 BYTE   W96
//  #04 //115   ----------------------------------------
 BYTE   W96
//  #04 //116   ----------------------------------------
 BYTE   W96
//  #04 //117   ----------------------------------------
 BYTE   W96
//  #04 //118   ----------------------------------------
 BYTE   W96
//  #04 //119   ----------------------------------------
 BYTE   W96
//  #04 //120   ----------------------------------------
 BYTE   W96
//  #04 //121   ----------------------------------------
 BYTE   W96
//  #04 //122   ----------------------------------------
 BYTE   W96
//  #04 //123   ----------------------------------------
 BYTE   PATT
  POIN2 Label_010268A7
//  #04 //124   ----------------------------------------
 BYTE   PATT
  POIN2 Label_010268B2
//  #04 //125   ----------------------------------------
 BYTE   PATT
  POIN2 Label_010268C3
//  #04 //126   ----------------------------------------
 BYTE   PATT
  POIN2 Label_010268D8
//  #04 //127   ----------------------------------------
 BYTE   PATT
  POIN2 Label_0102691B
//  #04 //128   ----------------------------------------
 BYTE   PATT
  POIN2 Label_0102692E
//  #04 //129   ----------------------------------------
 BYTE   PATT
  POIN2 Label_01026935
//  #04 //130   ----------------------------------------
 BYTE   EOT
 BYTE   Gn1
 BYTE   W24
 BYTE   W01
//  #04 //131   ----------------------------------------
 BYTE   PATT
  POIN2 Label_0102693C
//  #04 //132   ----------------------------------------
 BYTE   PATT
  POIN2 Label_01026943
//  #04 //133   ----------------------------------------
 BYTE   PATT
  POIN2 Label_0102694A
//  #04 //134   ----------------------------------------
 BYTE   W96
//  #04 //135   ----------------------------------------
 BYTE   W96
//  #04 //136   ----------------------------------------
 BYTE   W96
//  #04 //137   ----------------------------------------
 BYTE   W96
//  #04 //138   ----------------------------------------
 BYTE   PATT
  POIN2 Label_01026955
//  #04 //139   ----------------------------------------
 BYTE   PATT
  POIN2 Label_01026963
//  #04 //140   ----------------------------------------
 BYTE   PATT
  POIN2 Label_01026989
//  #04 //141   ----------------------------------------
 BYTE   W96
//  #04 //142   ----------------------------------------
 BYTE   W96
//  #04 //143   ----------------------------------------
 BYTE   W96
//  #04 //144   ----------------------------------------
 BYTE   W96
//  #04 //145   ----------------------------------------
 BYTE   W96
//  #04 //146   ----------------------------------------
 BYTE   W96
//  #04 //147   ----------------------------------------
 BYTE   W96
//  #04 //148   ----------------------------------------
 BYTE   W96
//  #04 //149   ----------------------------------------
 BYTE   W96
//  #04 //150   ----------------------------------------
 BYTE   W96
//  #04 //151   ----------------------------------------
 BYTE   W96
//  #04 //152   ----------------------------------------
 BYTE   W96
//  #04 //153   ----------------------------------------
 BYTE   W96
//  #04 //154   ----------------------------------------
 BYTE   W96
//  #04 //155   ----------------------------------------
 BYTE   W96
//  #04 //156   ----------------------------------------
 BYTE   W96
//  #04 //157   ----------------------------------------
 BYTE   W96
//  #04 //158   ----------------------------------------
 BYTE   W96
//  #04 //159   ----------------------------------------
 BYTE   W96
//  #04 //160   ----------------------------------------
 BYTE   PATT
  POIN2 Label_010268A7
//  #04 //161   ----------------------------------------
 BYTE   PATT
  POIN2 Label_010268B2
//  #04 //162   ----------------------------------------
 BYTE   PATT
  POIN2 Label_010268C3
//  #04 //163   ----------------------------------------
 BYTE   PATT
  POIN2 Label_010268D8
//  #04 //164   ----------------------------------------
 BYTE   PATT
  POIN2 Label_0102691B
//  #04 //165   ----------------------------------------
 BYTE   PATT
  POIN2 Label_0102692E
//  #04 //166   ----------------------------------------
 BYTE   PATT
  POIN2 Label_01026935
//  #04 //167   ----------------------------------------
 BYTE   EOT
 BYTE   Gn1
 BYTE   W24
 BYTE   W01
//  #04 //168   ----------------------------------------
 BYTE   PATT
  POIN2 Label_0102693C
//  #04 //169   ----------------------------------------
 BYTE   PATT
  POIN2 Label_01026943
//  #04 //170   ----------------------------------------
 BYTE   PATT
  POIN2 Label_0102694A
//  #04 //171   ----------------------------------------
 BYTE   W96
//  #04 //172   ----------------------------------------
 BYTE   W96
//  #04 //173   ----------------------------------------
 BYTE   W96
//  #04 //174   ----------------------------------------
 BYTE   W96
//  #04 //175   ----------------------------------------
 BYTE   PATT
  POIN2 Label_01026955
//  #04 //176   ----------------------------------------
 BYTE   PATT
  POIN2 Label_01026963
//  #04 //177   ----------------------------------------
 BYTE   PATT
  POIN2 Label_01026989
//  #04 //178   ----------------------------------------
 BYTE   W96
//  #04 //179   ----------------------------------------
 BYTE   W96
//  #04 //180   ----------------------------------------
 BYTE   W96
//  #04 //181   ----------------------------------------
 BYTE   W96
//  #04 //182   ----------------------------------------
 BYTE   W96
//  #04 //183   ----------------------------------------
 BYTE   W96
//  #04 //184   ----------------------------------------
 BYTE   W96
//  #04 //185   ----------------------------------------
 BYTE   W96
//  #04 //186   ----------------------------------------
 BYTE   W96
//  #04 //187   ----------------------------------------
 BYTE   W96
//  #04 //188   ----------------------------------------
 BYTE   W96
//  #04 //189   ----------------------------------------
 BYTE   W96
//  #04 //190   ----------------------------------------
 BYTE   W96
//  #04 //191   ----------------------------------------
 BYTE   W96
//  #04 //192   ----------------------------------------
 BYTE   W96
//  #04 //193   ----------------------------------------
 BYTE   W96
//  #04 //194   ----------------------------------------
 BYTE   W96
//  #04 //195   ----------------------------------------
 BYTE   W96
//  #04 //196   ----------------------------------------
 BYTE   W96
//  #04 //197   ----------------------------------------
 BYTE   PATT
  POIN2 Label_010268A7
//  #04 //198   ----------------------------------------
 BYTE   PATT
  POIN2 Label_010268B2
//  #04 //199   ----------------------------------------
 BYTE   PATT
  POIN2 Label_010268C3
//  #04 //200   ----------------------------------------
 BYTE   PATT
  POIN2 Label_010268D8
//  #04 //201   ----------------------------------------
 BYTE   PATT
  POIN2 Label_0102691B
//  #04 //202   ----------------------------------------
 BYTE   PATT
  POIN2 Label_0102692E
//  #04 //203   ----------------------------------------
 BYTE   PATT
  POIN2 Label_01026935
//  #04 //204   ----------------------------------------
 BYTE   EOT
 BYTE   Gn1
 BYTE   W24
 BYTE   W01
//  #04 //205   ----------------------------------------
 BYTE   PATT
  POIN2 Label_0102693C
//  #04 //206   ----------------------------------------
 BYTE   PATT
  POIN2 Label_01026943
//  #04 //207   ----------------------------------------
 BYTE   PATT
  POIN2 Label_0102694A
//  #04 //208   ----------------------------------------
 BYTE   W96
//  #04 //209   ----------------------------------------
 BYTE   W96
//  #04 //210   ----------------------------------------
 BYTE   W96
//  #04 //211   ----------------------------------------
 BYTE   W96
//  #04 //212   ----------------------------------------
 BYTE   PATT
  POIN2 Label_01026955
//  #04 //213   ----------------------------------------
 BYTE   PATT
  POIN2 Label_01026963
//  #04 //214   ----------------------------------------
 BYTE   PATT
  POIN2 Label_01026989
//  #04 //215   ----------------------------------------
 BYTE   W96
//  #04 //216   ----------------------------------------
 BYTE   W96
//  #04 //217   ----------------------------------------
 BYTE   W96
//  #04 //218   ----------------------------------------
 BYTE   W96
//  #04 //219   ----------------------------------------
 BYTE   W96
//  #04 //220   ----------------------------------------
 BYTE   W96
//  #04 //221   ----------------------------------------
 BYTE   W96
//  #04 //222   ----------------------------------------
 BYTE   W96
//  #04 //223   ----------------------------------------
 BYTE   W96
//  #04 //224   ----------------------------------------
 BYTE   W96
//  #04 //225   ----------------------------------------
 BYTE   W96
//  #04 //226   ----------------------------------------
 BYTE   W96
//  #04 //227   ----------------------------------------
 BYTE   W96
//  #04 //228   ----------------------------------------
 BYTE   W96
//  #04 //229   ----------------------------------------
 BYTE   W96
//  #04 //230   ----------------------------------------
 BYTE   W96
//  #04 //231   ----------------------------------------
 BYTE   W96
//  #04 //232   ----------------------------------------
 BYTE   W96
//  #04 //233   ----------------------------------------
 BYTE   W96
//  #04 //234   ----------------------------------------
 BYTE   PATT
  POIN2 Label_010268A7
//  #04 //235   ----------------------------------------
 BYTE   PATT
  POIN2 Label_010268B2
//  #04 //236   ----------------------------------------
 BYTE   PATT
  POIN2 Label_010268C3
//  #04 //237   ----------------------------------------
 BYTE   PATT
  POIN2 Label_010268D8
//  #04 //238   ----------------------------------------
 BYTE   PATT
  POIN2 Label_0102691B
//  #04 //239   ----------------------------------------
 BYTE   PATT
  POIN2 Label_0102692E
//  #04 //240   ----------------------------------------
 BYTE   PATT
  POIN2 Label_01026935
//  #04 //241   ----------------------------------------
 BYTE   EOT
 BYTE   Gn1
 BYTE   W24
 BYTE   W01
//  #04 //242   ----------------------------------------
 BYTE   PATT
  POIN2 Label_0102693C
//  #04 //243   ----------------------------------------
 BYTE   PATT
  POIN2 Label_01026943
//  #04 //244   ----------------------------------------
 BYTE   PATT
  POIN2 Label_0102694A
//  #04 //245   ----------------------------------------
 BYTE   W96
//  #04 //246   ----------------------------------------
 BYTE   W96
//  #04 //247   ----------------------------------------
 BYTE   W96
//  #04 //248   ----------------------------------------
 BYTE   W96
//  #04 //249   ----------------------------------------
 BYTE   PATT
  POIN2 Label_01026955
//  #04 //250   ----------------------------------------
 BYTE   PATT
  POIN2 Label_01026963
//  #04 //251   ----------------------------------------
 BYTE   PATT
  POIN2 Label_01026989
//  #04 //252   ----------------------------------------
 BYTE   W96
//  #04 //253   ----------------------------------------
 BYTE   W96
//  #04 //254   ----------------------------------------
 BYTE   W96
//  #04 //255   ----------------------------------------
 BYTE   W96
//  #04 //256   ----------------------------------------
 BYTE   W96
//  #04 //257   ----------------------------------------
 BYTE   W96
//  #04 //258   ----------------------------------------
 BYTE   W96
//  #04 //259   ----------------------------------------
 BYTE   W96
//  #04 //260   ----------------------------------------
 BYTE   W96
//  #04 //261   ----------------------------------------
 BYTE   W96
//  #04 //262   ----------------------------------------
 BYTE   W96
//  #04 //263   ----------------------------------------
 BYTE   W96
//  #04 //264   ----------------------------------------
 BYTE   W96
//  #04 //265   ----------------------------------------
 BYTE   W96
//  #04 //266   ----------------------------------------
 BYTE   W96
//  #04 //267   ----------------------------------------
 BYTE   W96
//  #04 //268   ----------------------------------------
 BYTE   W96
//  #04 //269   ----------------------------------------
 BYTE   W96
//  #04 //270   ----------------------------------------
 BYTE   W96
//  #04 //271   ----------------------------------------
 BYTE   PATT
  POIN2 Label_010268A7
//  #04 //272   ----------------------------------------
 BYTE   PATT
  POIN2 Label_010268B2
//  #04 //273   ----------------------------------------
 BYTE   PATT
  POIN2 Label_010268C3
//  #04 //274   ----------------------------------------
 BYTE   PATT
  POIN2 Label_010268D8
//  #04 //275   ----------------------------------------
 BYTE   PATT
  POIN2 Label_0102691B
//  #04 //276   ----------------------------------------
 BYTE   PATT
  POIN2 Label_0102692E
//  #04 //277   ----------------------------------------
 BYTE   PATT
  POIN2 Label_01026935
//  #04 //278   ----------------------------------------
 BYTE   EOT
 BYTE   Gn1
 BYTE   W24
 BYTE   W01
//  #04 //279   ----------------------------------------
 BYTE   PATT
  POIN2 Label_0102693C
//  #04 //280   ----------------------------------------
 BYTE   PATT
  POIN2 Label_01026943
//  #04 //281   ----------------------------------------
 BYTE   PATT
  POIN2 Label_0102694A
//  #04 //282   ----------------------------------------
 BYTE   W96
//  #04 //283   ----------------------------------------
 BYTE   W96
//  #04 //284   ----------------------------------------
 BYTE   W96
//  #04 //285   ----------------------------------------
 BYTE   W96
//  #04 //286   ----------------------------------------
 BYTE   PATT
  POIN2 Label_01026955
//  #04 //287   ----------------------------------------
 BYTE   PATT
  POIN2 Label_01026963
//  #04 //288   ----------------------------------------
 BYTE   PATT
  POIN2 Label_01026989
//  #04 //289   ----------------------------------------
 BYTE   W96
//  #04 //290   ----------------------------------------
 BYTE   W96
//  #04 //291   ----------------------------------------
 BYTE   W96
//  #04 //292   ----------------------------------------
 BYTE   W96
//  #04 //293   ----------------------------------------
 BYTE   W96
//  #04 //294   ----------------------------------------
 BYTE   W96
//  #04 //295   ----------------------------------------
 BYTE   W96
//  #04 //296   ----------------------------------------
 BYTE   W96
//  #04 //297   ----------------------------------------
 BYTE   W96
//  #04 //298   ----------------------------------------
 BYTE   W96
//  #04 //299   ----------------------------------------
 BYTE   W96
//  #04 //300   ----------------------------------------
 BYTE   W96
//  #04 //301   ----------------------------------------
 BYTE   W96
//  #04 //302   ----------------------------------------
 BYTE   W96
//  #04 //303   ----------------------------------------
 BYTE   W96
//  #04 //304   ----------------------------------------
 BYTE   W96
//  #04 //305   ----------------------------------------
 BYTE   W96
//  #04 //306   ----------------------------------------
 BYTE   W96
//  #04 //307   ----------------------------------------
 BYTE   W96
//  #04 //308   ----------------------------------------
 BYTE   PATT
  POIN2 Label_010268A7
//  #04 //309   ----------------------------------------
 BYTE   PATT
  POIN2 Label_010268B2
//  #04 //310   ----------------------------------------
 BYTE   PATT
  POIN2 Label_010268C3
//  #04 //311   ----------------------------------------
 BYTE   PATT
  POIN2 Label_010268D8
//  #04 //312   ----------------------------------------
 BYTE   PATT
  POIN2 Label_0102691B
//  #04 //313   ----------------------------------------
 BYTE   PATT
  POIN2 Label_0102692E
//  #04 //314   ----------------------------------------
 BYTE   PATT
  POIN2 Label_01026935
//  #04 //315   ----------------------------------------
 BYTE   EOT
 BYTE   Gn1
 BYTE   W24
 BYTE   W01
//  #04 //316   ----------------------------------------
 BYTE   PATT
  POIN2 Label_0102693C
//  #04 //317   ----------------------------------------
 BYTE   PATT
  POIN2 Label_01026943
//  #04 //318   ----------------------------------------
 BYTE   PATT
  POIN2 Label_0102694A
//  #04 //319   ----------------------------------------
 BYTE   W96
//  #04 //320   ----------------------------------------
 BYTE   W96
//  #04 //321   ----------------------------------------
 BYTE   W96
//  #04 //322   ----------------------------------------
 BYTE   W96
//  #04 //323   ----------------------------------------
 BYTE   PATT
  POIN2 Label_01026955
//  #04 //324   ----------------------------------------
 BYTE   PATT
  POIN2 Label_01026963
//  #04 //325   ----------------------------------------
 BYTE   PATT
  POIN2 Label_01026989
//  #04 //326   ----------------------------------------
 BYTE   W96
//  #04 //327   ----------------------------------------
 BYTE   W96
//  #04 //328   ----------------------------------------
 BYTE   W96
//  #04 //329   ----------------------------------------
 BYTE   W96
//  #04 //330   ----------------------------------------
 BYTE   W96
//  #04 //331   ----------------------------------------
 BYTE   W96
//  #04 //332   ----------------------------------------
 BYTE   W96
//  #04 //333   ----------------------------------------
 BYTE   W96
//  #04 //334   ----------------------------------------
 BYTE   W96
//  #04 //335   ----------------------------------------
 BYTE   W96
//  #04 //336   ----------------------------------------
 BYTE   W96
//  #04 //337   ----------------------------------------
 BYTE   W96
//  #04 //338   ----------------------------------------
 BYTE   W96
//  #04 //339   ----------------------------------------
 BYTE   W96
//  #04 //340   ----------------------------------------
 BYTE   W96
//  #04 //341   ----------------------------------------
 BYTE   W96
//  #04 //342   ----------------------------------------
 BYTE   W96
//  #04 //343   ----------------------------------------
 BYTE   W96
//  #04 //344   ----------------------------------------
 BYTE   W96
//  #04 //345   ----------------------------------------
 BYTE   PATT
  POIN2 Label_010268A7
//  #04 //346   ----------------------------------------
 BYTE   PATT
  POIN2 Label_010268B2
//  #04 //347   ----------------------------------------
 BYTE   PATT
  POIN2 Label_010268C3
//  #04 //348   ----------------------------------------
 BYTE   PATT
  POIN2 Label_010268D8
//  #04 //349   ----------------------------------------
 BYTE   PATT
  POIN2 Label_0102691B
//  #04 //350   ----------------------------------------
 BYTE   PATT
  POIN2 Label_0102692E
//  #04 //351   ----------------------------------------
 BYTE   PATT
  POIN2 Label_01026935
//  #04 //352   ----------------------------------------
 BYTE   EOT
 BYTE   Gn1
 BYTE   W24
 BYTE   W01
//  #04 //353   ----------------------------------------
 BYTE   PATT
  POIN2 Label_0102693C
//  #04 //354   ----------------------------------------
 BYTE   PATT
  POIN2 Label_01026943
//  #04 //355   ----------------------------------------
 BYTE   PATT
  POIN2 Label_0102694A
//  #04 //356   ----------------------------------------
 BYTE   W96
//  #04 //357   ----------------------------------------
 BYTE   W96
//  #04 //358   ----------------------------------------
 BYTE   W96
//  #04 //359   ----------------------------------------
 BYTE   W96
//  #04 //360   ----------------------------------------
 BYTE   PATT
  POIN2 Label_01026955
//  #04 //361   ----------------------------------------
 BYTE   PATT
  POIN2 Label_01026963
//  #04 //362   ----------------------------------------
 BYTE   PATT
  POIN2 Label_01026989
//  #04 //363   ----------------------------------------
 BYTE   W96
//  #04 //364   ----------------------------------------
 BYTE   W96
//  #04 //365   ----------------------------------------
 BYTE   W96
//  #04 //366   ----------------------------------------
 BYTE   W96
//  #04 //367   ----------------------------------------
 BYTE   W96
//  #04 //368   ----------------------------------------
 BYTE   W96
//  #04 //369   ----------------------------------------
 BYTE   W96
//  #04 //370   ----------------------------------------
 BYTE   W96
//  #04 //371   ----------------------------------------
 BYTE   W96
//  #04 //372   ----------------------------------------
 BYTE   W96
//  #04 //373   ----------------------------------------
 BYTE   W92
 BYTE   W03
 BYTE   FINE

//**************** Track 5 (Midi-Chn.4) ****************//

PowerHungryFool_005:
//  #05 //000   ----------------------------------------
 BYTE   KEYSH   PowerHungryFool_key+0
 BYTE   VOICE   7
 BYTE   VOL   57*PowerHungryFool_mvl/mxv
 BYTE   PAN   c_v+0
 BYTE   N44  Dn1  v080
 BYTE   W06
 BYTE   N05  Dn3
 BYTE   W06
 BYTE   Fn3
 BYTE   W06
 BYTE   An3
 BYTE   W06
 BYTE   Dn4
 BYTE   W06
 BYTE   Cs4
 BYTE   W06
 BYTE   Dn4
 BYTE   W06
 BYTE   An3
 BYTE   W06
 BYTE   N44  Gn1
 BYTE   W06
 BYTE   N05  Dn3
 BYTE   W06
 BYTE   An3
 BYTE   W06
 BYTE   Dn4
 BYTE   W06
 BYTE   En4
 BYTE   W06
 BYTE   Dn4
 BYTE   W06
 BYTE   En4
 BYTE   W06
 BYTE   An3
 BYTE   W06
//  #05 //001   ----------------------------------------
 BYTE   N23  Fn1
 BYTE   W06
 BYTE   N05  Dn3
 BYTE   W06
 BYTE   An3
 BYTE   W06
 BYTE   Dn4
 BYTE   W06
 BYTE   N11  Gn1
 BYTE   N05  Fn4
 BYTE   W06
 BYTE   En4
 BYTE   W06
 BYTE   N11  Gs1
 BYTE   N05  Fn4
 BYTE   W06
 BYTE   Dn4
 BYTE   W06
 BYTE   N11  An1
 BYTE   N05  Cs4
 BYTE   W06
 BYTE   Bn3
 BYTE   W06
 BYTE   N11  Gn1
 BYTE   N05  Cs4
 BYTE   W06
 BYTE   An3
 BYTE   W06
 BYTE   N11  Fn1
 BYTE   N05  Dn4
 BYTE   W06
 BYTE   An4
 BYTE   W06
 BYTE   N11  Dn1
 BYTE   N05  As4
 BYTE   W06
 BYTE   Gn4
 BYTE   W06
//  #05 //002   ----------------------------------------
Label_01032209:
 BYTE   N23  Dn2  v080
 BYTE   N05  Fn4
 BYTE   W06
 BYTE   An4
 BYTE   W06
 BYTE   N11  Dn5
 BYTE   W12
 BYTE   N23  En1
 BYTE   N05  Cs5
 BYTE   W06
 BYTE   An4
 BYTE   W06
 BYTE   N11  Gn4
 BYTE   W12
 BYTE   N23  Dn1
 BYTE   N05  Fn4
 BYTE   W06
 BYTE   An4
 BYTE   W06
 BYTE   N11  Fn5
 BYTE   W12
 BYTE   Gn1
 BYTE   N11  Dn2
 BYTE   N05  En5
 BYTE   W06
 BYTE   Dn5
 BYTE   W06
 BYTE   N11  An1
 BYTE   N11  En2
 BYTE   N02  Cs5
 BYTE   W03
 BYTE   Dn5
 BYTE   W03
 BYTE   N05  En5
 BYTE   W06
 BYTE   PEND 
//  #05 //003   ----------------------------------------
Label_0103223D:
 BYTE   N11  An2  v080
 BYTE   N05  Dn5
 BYTE   W06
 BYTE   Cs5
 BYTE   W06
 BYTE   N11  Gs2
 BYTE   N05  Dn5
 BYTE   W06
 BYTE   Cs5
 BYTE   W06
 BYTE   N11  Gn2
 BYTE   N05  Dn5
 BYTE   W06
 BYTE   Cs5
 BYTE   W06
 BYTE   N11  Fs2
 BYTE   N05  Dn5
 BYTE   W06
 BYTE   Cs5
 BYTE   W06
 BYTE   N11  Fn2
 BYTE   N05  Dn5
 BYTE   W06
 BYTE   An4
 BYTE   W06
 BYTE   N11  En2
 BYTE   N05  Gn4
 BYTE   W06
 BYTE   Fn4
 BYTE   W06
 BYTE   N11  Dn2
 BYTE   N05  En4
 BYTE   W06
 BYTE   Dn4
 BYTE   W06
 BYTE   N11  An1
 BYTE   N11  An2
 BYTE   N05  Cs4
 BYTE   W06
 BYTE   An3
 BYTE   W06
 BYTE   PEND 
//  #05 //004   ----------------------------------------
Label_01032279:
 BYTE   N23  As1  v080
 BYTE   N23  Gn2
 BYTE   W06
 BYTE   N05  As3
 BYTE   W06
 BYTE   An3
 BYTE   W06
 BYTE   Gn3
 BYTE   W06
 BYTE   N23  Bn1
 BYTE   N23  Gs2
 BYTE   N05  Fn3
 BYTE   W06
 BYTE   En3
 BYTE   W06
 BYTE   N02  Cs3
 BYTE   W03
 BYTE   Dn3
 BYTE   W03
 BYTE   N05  Cs3
 BYTE   W06
 BYTE   N11  Dn2
 BYTE   N11  Fn2
 BYTE   N11  An2
 BYTE   N11  Dn3
 BYTE   N11  Fn3
 BYTE   W24
 BYTE   En2
 BYTE   N11  Gn2
 BYTE   N11  An2
 BYTE   N11  Cs3
 BYTE   N11  En3
 BYTE   N11  Gn3
 BYTE   W24
 BYTE   PEND 
//  #05 //005   ----------------------------------------
Label_010322AF:
 BYTE   N44  Dn2  v080
 BYTE   N44  Fn2
 BYTE   N44  An2
 BYTE   N11  Dn3
 BYTE   W12
 BYTE   Fn3
 BYTE   W12
 BYTE   N02  En3
 BYTE   W03
 BYTE   Fn3
 BYTE   W03
 BYTE   En3
 BYTE   W03
 BYTE   Fn3
 BYTE   W03
 BYTE   N56  Dn3
 BYTE   W12
 BYTE   N11  An1
 BYTE   W12
 BYTE   Fn1
 BYTE   W12
 BYTE   N23  Dn1
 BYTE   W24
 BYTE   PEND 
//  #05 //006   ----------------------------------------
Label_010322D0:
 BYTE   N44  Fn2  v080
 BYTE   N11  Dn4
 BYTE   W12
 BYTE   PEND 
Label_010322D7:
 BYTE   N11  An3  v080
 BYTE   W12
 BYTE   Gn3
 BYTE   W12
 BYTE   Dn3
 BYTE   W12
 BYTE   N44  En2
 BYTE   N11  Cs4
 BYTE   W12
 BYTE   An3
 BYTE   W12
 BYTE   Gn3
 BYTE   W12
 BYTE   Cs3
 BYTE   W12
//  #05 //007   ----------------------------------------
Label_010322EA:
 BYTE   N44  Ds2  v080
 BYTE   N11  Cn4
 BYTE   W12
 BYTE   An3
 BYTE   W12
 BYTE   Gn3
 BYTE   W12
 BYTE   Cn3
 BYTE   W12
 BYTE   N44  Dn2
 BYTE   N11  Bn3
 BYTE   W12
 BYTE   Gn3
 BYTE   W12
 BYTE   Fn3
 BYTE   W12
 BYTE   Bn2
 BYTE   W12
 BYTE   PEND 
//  #05 //008   ----------------------------------------
Label_01032302:
 BYTE   N44  Cs2  v080
 BYTE   N11  As3
 BYTE   W12
 BYTE   Gn3
 BYTE   W12
 BYTE   Fn3
 BYTE   W12
 BYTE   As2
 BYTE   W12
 BYTE   N44  Cn2
 BYTE   N11  An3
 BYTE   W12
 BYTE   Gn3
 BYTE   W12
 BYTE   Fn3
 BYTE   W12
 BYTE   An2
 BYTE   W12
 BYTE   PEND 
//  #05 //009   ----------------------------------------
Label_0103231A:
 BYTE   N44  Bn1  v080
 BYTE   N11  Gs3
 BYTE   W12
 BYTE   Fn3
 BYTE   W12
 BYTE   En3
 BYTE   W12
 BYTE   Gs2
 BYTE   W12
 BYTE   N05  Cs2
 BYTE   N05  An2
 BYTE   W06
 BYTE   Dn2
 BYTE   N05  Bn2
 BYTE   W06
 BYTE   En2
 BYTE   N05  Cs3
 BYTE   W06
 BYTE   Fn2
 BYTE   N05  Dn3
 BYTE   W06
 BYTE   Gn2
 BYTE   N05  En3
 BYTE   W06
 BYTE   An2
 BYTE   N05  Fn3
 BYTE   W06
 BYTE   Bn2
 BYTE   N05  Gn3
 BYTE   W06
 BYTE   Cs3
 BYTE   N05  An3
 BYTE   W06
 BYTE   PEND 
//  #05 //010   ----------------------------------------
Label_01032348:
 BYTE   N23  Fn2  v080
 BYTE   N11  Dn4
 BYTE   W12
 BYTE   An3
 BYTE   W12
 BYTE   Gn2
 BYTE   N11  Gn3
 BYTE   W12
 BYTE   N05  Fn2
 BYTE   N11  Dn3
 BYTE   N11  Dn4
 BYTE   W06
 BYTE   N02  En2
 BYTE   W03
 BYTE   Fn2
 BYTE   W03
 BYTE   N23  En2
 BYTE   N11  Cs4
 BYTE   W12
 BYTE   An3
 BYTE   W12
 BYTE   Fn2
 BYTE   N11  Gn3
 BYTE   W12
 BYTE   Gn2
 BYTE   N11  Cs3
 BYTE   N11  Cs4
 BYTE   W12
 BYTE   PEND 
//  #05 //011   ----------------------------------------
Label_01032372:
 BYTE   N11  An2  v080
 BYTE   N11  Cn4
 BYTE   W12
 BYTE   As2
 BYTE   N11  An3
 BYTE   W12
 BYTE   An2
 BYTE   N11  Gn3
 BYTE   W12
 BYTE   Fn2
 BYTE   N11  Fn3
 BYTE   N11  Cn4
 BYTE   W12
 BYTE   N44  Gn2
 BYTE   N11  Bn3
 BYTE   W12
 BYTE   Gn3
 BYTE   W12
 BYTE   Fn3
 BYTE   W12
 BYTE   Bn2
 BYTE   N11  Bn3
 BYTE   W12
 BYTE   PEND 
//  #05 //012   ----------------------------------------
Label_01032394:
 BYTE   N11  Gn2  v080
 BYTE   N11  As3
 BYTE   W12
 BYTE   An2
 BYTE   N11  Gn3
 BYTE   W12
 BYTE   Gn2
 BYTE   N11  Fn3
 BYTE   W12
 BYTE   En2
 BYTE   N11  As2
 BYTE   N11  En3
 BYTE   W12
 BYTE   Fn2
 BYTE   N11  An3
 BYTE   W12
 BYTE   As2
 BYTE   N11  Gn3
 BYTE   W12
 BYTE   An2
 BYTE   N11  Fn3
 BYTE   W12
 BYTE   Fn2
 BYTE   N11  An2
 BYTE   N11  Fn3
 BYTE   W12
 BYTE   PEND 
//  #05 //013   ----------------------------------------
Label_010323BB:
 BYTE   N11  Gs2  v080
 BYTE   N11  Gs3
 BYTE   W12
 BYTE   Fn2
 BYTE   N11  Fn3
 BYTE   W12
 BYTE   En2
 BYTE   N11  En3
 BYTE   W12
 BYTE   Gs1
 BYTE   N11  Gs2
 BYTE   W12
 BYTE   N05  Cs2
 BYTE   N05  An2
 BYTE   W06
 BYTE   Dn2
 BYTE   N05  Bn2
 BYTE   W06
 BYTE   En2
 BYTE   N05  Cs3
 BYTE   W06
 BYTE   Fs2
 BYTE   N05  Dn3
 BYTE   W06
 BYTE   Gn2
 BYTE   N05  En3
 BYTE   W06
 BYTE   An2
 BYTE   N05  Fs3
 BYTE   W06
 BYTE   Bn2
 BYTE   N05  Gn3
 BYTE   W06
 BYTE   Cs3
 BYTE   N05  An3
 BYTE   W06
 BYTE   PEND 
//  #05 //014   ----------------------------------------
Label_010323EF:
 BYTE   N23  As1  v080
 BYTE   W06
 BYTE   N05  Gn3
 BYTE   W06
 BYTE   As3
 BYTE   W06
 BYTE   Dn4
 BYTE   W06
 BYTE   N23  Cn2
 BYTE   N05  Gn4
 BYTE   W06
 BYTE   Fs4
 BYTE   W06
 BYTE   Gn4
 BYTE   W06
 BYTE   Dn4
 BYTE   W06
 BYTE   N23  As1
 BYTE   W06
 BYTE   N05  Gn3
 BYTE   W06
 BYTE   Dn4
 BYTE   W06
 BYTE   Gn4
 BYTE   W06
 BYTE   N23  Cn2
 BYTE   N05  An4
 BYTE   W06
 BYTE   Gn4
 BYTE   W06
 BYTE   An4
 BYTE   W06
 BYTE   Dn4
 BYTE   W06
 BYTE   PEND 
//  #05 //015   ----------------------------------------
Label_0103241B:
 BYTE   N23  As1  v080
 BYTE   W06
 BYTE   N05  Gn3
 BYTE   W06
 BYTE   Dn4
 BYTE   W06
 BYTE   Gn4
 BYTE   W06
 BYTE   N11  Cn2
 BYTE   N05  As4
 BYTE   W06
 BYTE   An4
 BYTE   W06
 BYTE   N11  Cs2
 BYTE   N05  As4
 BYTE   W06
 BYTE   Gn4
 BYTE   W06
 BYTE   N11  Dn2
 BYTE   N05  Fs4
 BYTE   W06
 BYTE   En4
 BYTE   W06
 BYTE   N11  Cn2
 BYTE   N05  Fs4
 BYTE   W06
 BYTE   Dn4
 BYTE   W06
 BYTE   N23  As1
 BYTE   N05  Gn4
 BYTE   W06
 BYTE   Dn4
 BYTE   W06
 BYTE   Ds4
 BYTE   W06
 BYTE   Cn4
 BYTE   W06
 BYTE   PEND 
//  #05 //016   ----------------------------------------
Label_0103244E:
 BYTE   N11  Gn1  v080
 BYTE   N11  Gn3
 BYTE   W12
 BYTE   Cn4
 BYTE   W12
 BYTE   An1
 BYTE   N11  Ds4
 BYTE   W12
 BYTE   An3
 BYTE   W12
 BYTE   As1
 BYTE   N11  Gn3
 BYTE   W12
 BYTE   As3
 BYTE   W12
 BYTE   An1
 BYTE   N11  Fs4
 BYTE   W12
 BYTE   Dn4
 BYTE   W12
 BYTE   PEND 
//  #05 //017   ----------------------------------------
Label_01032469:
 BYTE   N11  Dn2  v080
 BYTE   N11  Dn4
 BYTE   W48
 BYTE   Dn2
 BYTE   N11  Dn4
 BYTE   W48
 BYTE   PEND 
//  #05 //018   ----------------------------------------
Label_01032474:
 BYTE   N11  Cn4  v080
 BYTE   W12
 BYTE   As3
 BYTE   W12
 BYTE   An3
 BYTE   W12
 BYTE   Fs3
 BYTE   W12
 BYTE   Gn3
 BYTE   N11  As3
 BYTE   N11  Dn4
 BYTE   N11  Gn4
 BYTE   W24
 BYTE   Fs3
 BYTE   N11  An3
 BYTE   N11  Dn4
 BYTE   N11  Fs4
 BYTE   W24
 BYTE   PEND 
//  #05 //019   ----------------------------------------
Label_0103248F:
 BYTE   N11  Gn3  v080
 BYTE   N11  As3
 BYTE   N11  Dn4
 BYTE   N11  Gn4
 BYTE   W48
 BYTE   PEND 
Label_0103249A:
 BYTE   N11  Gn3  v080
 BYTE   N11  As3
 BYTE   N11  Dn4
 BYTE   W48
//  #05 //020   ----------------------------------------
 BYTE   Gn3
 BYTE   N11  Cn4
 BYTE   N11  Ds4
 BYTE   W48
 BYTE   PEND 
Label_010324A9:
 BYTE   N11  Fn3  v080
 BYTE   N11  An3
 BYTE   N11  Ds4
 BYTE   W48
//  #05 //021   ----------------------------------------
 BYTE   Fn3
 BYTE   N11  An3
 BYTE   N11  Dn4
 BYTE   W48
 BYTE   PEND 
Label_010324B8:
 BYTE   N11  Gn3  v080
 BYTE   N11  An3
 BYTE   N11  Dn4
 BYTE   W48
//  #05 //022   ----------------------------------------
 BYTE   Gn3
 BYTE   N11  As3
 BYTE   N11  Dn4
 BYTE   W48
 BYTE   PEND 
Label_010324C7:
 BYTE   N11  Gn3  v080
 BYTE   N11  As3
 BYTE   N11  Dn4
 BYTE   W48
//  #05 //023   ----------------------------------------
 BYTE   Fs3
 BYTE   N11  An3
 BYTE   N11  Dn4
 BYTE   W48
 BYTE   PEND 
Label_010324D6:
 BYTE   N44  Gn2  v080
 BYTE   N11  Gn3
 BYTE   N11  As3
 BYTE   N11  Dn4
 BYTE   W12
 BYTE   Gn3
 BYTE   W12
 BYTE   As3
 BYTE   W12
 BYTE   Dn4
 BYTE   W12
//  #05 //024   ----------------------------------------
 BYTE   N44  Gn2
 BYTE   N11  Gn3
 BYTE   N11  As3
 BYTE   N11  Ds4
 BYTE   W12
 BYTE   Gn3
 BYTE   W12
 BYTE   As3
 BYTE   W12
 BYTE   Cn4
 BYTE   W12
 BYTE   PEND 
Label_010324F6:
 BYTE   N44  Fn2  v080
 BYTE   N11  Fn3
 BYTE   N11  An3
 BYTE   N11  Cn4
 BYTE   W12
 BYTE   Fn3
 BYTE   W12
 BYTE   An3
 BYTE   W12
 BYTE   Cn4
 BYTE   W12
//  #05 //025   ----------------------------------------
 BYTE   N44  As1
 BYTE   N11  Fn3
 BYTE   N11  An3
 BYTE   N11  Dn4
 BYTE   W12
 BYTE   As3
 BYTE   W12
 BYTE   An3
 BYTE   W12
 BYTE   Fn3
 BYTE   W12
 BYTE   PEND 
Label_01032516:
 BYTE   N44  As2  v080
 BYTE   N11  Gn3
 BYTE   N11  As3
 BYTE   N11  Dn4
 BYTE   W12
 BYTE   Gn3
 BYTE   W12
 BYTE   As3
 BYTE   W12
 BYTE   Dn4
 BYTE   W12
//  #05 //026   ----------------------------------------
 BYTE   N44  Gs2
 BYTE   N11  Ds3
 BYTE   N11  Gs3
 BYTE   N11  Cn4
 BYTE   W12
 BYTE   N11
 BYTE   W12
 BYTE   Gs3
 BYTE   W12
 BYTE   Fn3
 BYTE   W12
 BYTE   PEND 
Label_01032536:
 BYTE   N44  Cs2  v080
 BYTE   N11  En3
 BYTE   N11  Gn3
 BYTE   N11  Cs4
 BYTE   W12
 BYTE   En3
 BYTE   W12
 BYTE   Gn3
 BYTE   W12
 BYTE   Cs4
 BYTE   W12
//  #05 //027   ----------------------------------------
 BYTE   N44  An1
 BYTE   N11  En3
 BYTE   N11  An3
 BYTE   N11  Cs4
 BYTE   W48
 BYTE   PEND 
Label_01032550:
 BYTE   N05  An1  v080
 BYTE   W12
 BYTE   Bn1
 BYTE   W12
 BYTE   Cs2
 BYTE   W12
 BYTE   En2
 BYTE   W12
//  #05 //028   ----------------------------------------
 BYTE   N44  An1
 BYTE   N44  An3
 BYTE   W48
 BYTE   PEND 
 BYTE   An1
 BYTE   N44  An3
 BYTE   W96
//  #05 //029   ----------------------------------------
 BYTE   An1
 BYTE   N44  An3
 BYTE   W96
//  #05 //030   ----------------------------------------
Label_01032568:
 BYTE   N44  Dn1  v080
 BYTE   W06
 BYTE   N05  Dn3
 BYTE   W06
 BYTE   Fn3
 BYTE   W06
 BYTE   An3
 BYTE   W06
 BYTE   Dn4
 BYTE   W06
 BYTE   Cs4
 BYTE   W06
 BYTE   Dn4
 BYTE   W06
 BYTE   An3
 BYTE   W06
 BYTE   N44  Dn1
 BYTE   W06
 BYTE   N05  Dn3
 BYTE   W06
 BYTE   An3
 BYTE   W06
 BYTE   Dn4
 BYTE   W06
 BYTE   En4
 BYTE   W06
 BYTE   Dn4
 BYTE   W06
 BYTE   En4
 BYTE   W06
 BYTE   An3
 BYTE   W06
 BYTE   PEND 
//  #05 //031   ----------------------------------------
Label_0103258E:
 BYTE   N23  Dn1  v080
 BYTE   W06
 BYTE   N05  Dn3
 BYTE   W06
 BYTE   An3
 BYTE   W06
 BYTE   Dn4
 BYTE   W06
 BYTE   N11  Gn1
 BYTE   N05  Fn4
 BYTE   W06
 BYTE   En4
 BYTE   W06
 BYTE   N11  Gs1
 BYTE   N05  Fn4
 BYTE   W06
 BYTE   Dn4
 BYTE   W06
 BYTE   N11  An1
 BYTE   N05  Cs4
 BYTE   W06
 BYTE   Bn3
 BYTE   W06
 BYTE   N11  Gn1
 BYTE   N05  Cs4
 BYTE   W06
 BYTE   An3
 BYTE   W06
 BYTE   N23  Fn1
 BYTE   N05  Dn4
 BYTE   W06
 BYTE   An4
 BYTE   W06
 BYTE   As4
 BYTE   W06
 BYTE   Gn4
 BYTE   W06
 BYTE   PEND 
//  #05 //032   ----------------------------------------
 BYTE   PATT
  POIN2 Label_01032209
//  #05 //033   ----------------------------------------
 BYTE   PATT
  POIN2 Label_0103223D
//  #05 //034   ----------------------------------------
Label_010325CB:
 BYTE   N23  As1  v080
 BYTE   N23  Gn2
 BYTE   W06
 BYTE   N05  As3
 BYTE   W06
 BYTE   An3
 BYTE   W06
 BYTE   Gn3
 BYTE   W06
 BYTE   N23  Bn1
 BYTE   N23  Gs2
 BYTE   N05  Fn3
 BYTE   W06
 BYTE   En3
 BYTE   W06
 BYTE   N02  Cs3
 BYTE   W03
 BYTE   Dn3
 BYTE   W03
 BYTE   N05  Cs3
 BYTE   W06
 BYTE   Dn1
 BYTE   N05  Dn2
 BYTE   N23  Dn3
 BYTE   N23  Fn3
 BYTE   W06
 BYTE   N05  Gn1
 BYTE   N05  Gn2
 BYTE   W06
 BYTE   Fn1
 BYTE   N05  Fn2
 BYTE   W06
 BYTE   En1
 BYTE   N05  En2
 BYTE   W06
 BYTE   Dn1
 BYTE   N05  Cs2
 BYTE   N23  Cs3
 BYTE   N23  En3
 BYTE   N23  Gn3
 BYTE   W06
 BYTE   N05  Cs1
 BYTE   N05  An1
 BYTE   W06
 BYTE   Fn1
 BYTE   W06
 BYTE   An1
 BYTE   W06
 BYTE   PEND 
//  #05 //035   ----------------------------------------
Label_01032612:
 BYTE   N44  As1  v080
 BYTE   W06
 BYTE   N05  Dn3
 BYTE   W06
 BYTE   Fn3
 BYTE   W06
 BYTE   An3
 BYTE   W06
 BYTE   Dn4
 BYTE   W06
 BYTE   Cs4
 BYTE   W06
 BYTE   Dn4
 BYTE   W06
 BYTE   An3
 BYTE   W06
 BYTE   N44  Gn2
 BYTE   W06
 BYTE   N05  Dn3
 BYTE   W06
 BYTE   An3
 BYTE   W06
 BYTE   Dn4
 BYTE   W06
 BYTE   En4
 BYTE   W06
 BYTE   Dn4
 BYTE   W06
 BYTE   En4
 BYTE   W06
 BYTE   An3
 BYTE   W06
 BYTE   PEND 
//  #05 //036   ----------------------------------------
Label_01032638:
 BYTE   N23  Fn2  v080
 BYTE   W06
 BYTE   N05  Dn3
 BYTE   W06
 BYTE   An3
 BYTE   W06
 BYTE   Dn4
 BYTE   W06
 BYTE   N11  An1
 BYTE   N11  Gn2
 BYTE   N05  Fn4
 BYTE   W06
 BYTE   En4
 BYTE   W06
 BYTE   N11  Bn1
 BYTE   N11  Gs2
 BYTE   N05  Fn4
 BYTE   W06
 BYTE   Dn4
 BYTE   W06
 BYTE   N11  Cs2
 BYTE   N11  An2
 BYTE   N05  Cs4
 BYTE   W06
 BYTE   Bn3
 BYTE   W06
 BYTE   N11  An1
 BYTE   N11  Gn2
 BYTE   N05  Cs4
 BYTE   W06
 BYTE   An3
 BYTE   W06
 BYTE   N11  Fn1
 BYTE   N11  Fn2
 BYTE   N05  Dn4
 BYTE   W06
 BYTE   An4
 BYTE   W06
 BYTE   N11  Dn1
 BYTE   N05  As4
 BYTE   W06
 BYTE   Gn4
 BYTE   W06
 BYTE   PEND 
//  #05 //037   ----------------------------------------
 BYTE   PATT
  POIN2 Label_01032209
//  #05 //038   ----------------------------------------
 BYTE   PATT
  POIN2 Label_0103223D
//  #05 //039   ----------------------------------------
 BYTE   PATT
  POIN2 Label_01032279
//  #05 //040   ----------------------------------------
 BYTE   PATT
  POIN2 Label_010322AF
//  #05 //041   ----------------------------------------
 BYTE   PATT
  POIN2 Label_010322D0
//  #05 //042   ----------------------------------------
 BYTE   GoTo
  POIN2 Label_010322D7
//  #05 //043   ----------------------------------------
 BYTE   N11  An3  v080
 BYTE   W12
 BYTE   Gn3
 BYTE   W12
 BYTE   Dn3
 BYTE   W12
 BYTE   N44  En2
 BYTE   N11  Cs4
 BYTE   W12
 BYTE   An3
 BYTE   W12
 BYTE   Gn3
 BYTE   W12
 BYTE   Cs3
 BYTE   W12
//  #05 //044   ----------------------------------------
 BYTE   PATT
  POIN2 Label_010322EA
//  #05 //045   ----------------------------------------
 BYTE   PATT
  POIN2 Label_01032302
//  #05 //046   ----------------------------------------
 BYTE   PATT
  POIN2 Label_0103231A
//  #05 //047   ----------------------------------------
 BYTE   PATT
  POIN2 Label_01032348
//  #05 //048   ----------------------------------------
 BYTE   PATT
  POIN2 Label_01032372
//  #05 //049   ----------------------------------------
 BYTE   PATT
  POIN2 Label_01032394
//  #05 //050   ----------------------------------------
 BYTE   PATT
  POIN2 Label_010323BB
//  #05 //051   ----------------------------------------
 BYTE   PATT
  POIN2 Label_010323EF
//  #05 //052   ----------------------------------------
 BYTE   PATT
  POIN2 Label_0103241B
//  #05 //053   ----------------------------------------
 BYTE   PATT
  POIN2 Label_0103244E
//  #05 //054   ----------------------------------------
 BYTE   PATT
  POIN2 Label_01032469
//  #05 //055   ----------------------------------------
 BYTE   PATT
  POIN2 Label_01032474
//  #05 //056   ----------------------------------------
 BYTE   PATT
  POIN2 Label_0103248F
//  #05 //057   ----------------------------------------
 BYTE   PATT
  POIN2 Label_0103249A
//  #05 //058   ----------------------------------------
 BYTE   PATT
  POIN2 Label_010324A9
//  #05 //059   ----------------------------------------
 BYTE   PATT
  POIN2 Label_010324B8
//  #05 //060   ----------------------------------------
 BYTE   PATT
  POIN2 Label_010324C7
//  #05 //061   ----------------------------------------
 BYTE   PATT
  POIN2 Label_010324D6
//  #05 //062   ----------------------------------------
 BYTE   PATT
  POIN2 Label_010324F6
//  #05 //063   ----------------------------------------
 BYTE   PATT
  POIN2 Label_01032516
//  #05 //064   ----------------------------------------
 BYTE   PATT
  POIN2 Label_01032536
//  #05 //065   ----------------------------------------
 BYTE   PATT
  POIN2 Label_01032550
//  #05 //066   ----------------------------------------
 BYTE   N44  An1  v080
 BYTE   N44  An3
 BYTE   W96
//  #05 //067   ----------------------------------------
 BYTE   An1
 BYTE   N44  An3
 BYTE   W96
//  #05 //068   ----------------------------------------
 BYTE   PATT
  POIN2 Label_01032568
//  #05 //069   ----------------------------------------
 BYTE   PATT
  POIN2 Label_0103258E
//  #05 //070   ----------------------------------------
 BYTE   PATT
  POIN2 Label_01032209
//  #05 //071   ----------------------------------------
 BYTE   PATT
  POIN2 Label_0103223D
//  #05 //072   ----------------------------------------
 BYTE   PATT
  POIN2 Label_010325CB
//  #05 //073   ----------------------------------------
 BYTE   PATT
  POIN2 Label_01032612
//  #05 //074   ----------------------------------------
 BYTE   PATT
  POIN2 Label_01032638
//  #05 //075   ----------------------------------------
 BYTE   PATT
  POIN2 Label_01032209
//  #05 //076   ----------------------------------------
 BYTE   PATT
  POIN2 Label_0103223D
//  #05 //077   ----------------------------------------
 BYTE   PATT
  POIN2 Label_01032279
//  #05 //078   ----------------------------------------
 BYTE   PATT
  POIN2 Label_010322AF
//  #05 //079   ----------------------------------------
Label_01032758:
 BYTE   N44  Fn2  v080
 BYTE   N11  Dn4
 BYTE   W12
 BYTE   An3
 BYTE   W12
 BYTE   Gn3
 BYTE   W12
 BYTE   Dn3
 BYTE   W12
 BYTE   N44  En2
 BYTE   N11  Cs4
 BYTE   W12
 BYTE   An3
 BYTE   W12
 BYTE   Gn3
 BYTE   W12
 BYTE   Cs3
 BYTE   W12
 BYTE   PEND 
//  #05 //080   ----------------------------------------
 BYTE   PATT
  POIN2 Label_010322EA
//  #05 //081   ----------------------------------------
 BYTE   PATT
  POIN2 Label_01032302
//  #05 //082   ----------------------------------------
 BYTE   PATT
  POIN2 Label_0103231A
//  #05 //083   ----------------------------------------
 BYTE   PATT
  POIN2 Label_01032348
//  #05 //084   ----------------------------------------
 BYTE   PATT
  POIN2 Label_01032372
//  #05 //085   ----------------------------------------
 BYTE   PATT
  POIN2 Label_01032394
//  #05 //086   ----------------------------------------
 BYTE   PATT
  POIN2 Label_010323BB
//  #05 //087   ----------------------------------------
 BYTE   PATT
  POIN2 Label_010323EF
//  #05 //088   ----------------------------------------
 BYTE   PATT
  POIN2 Label_0103241B
//  #05 //089   ----------------------------------------
 BYTE   PATT
  POIN2 Label_0103244E
//  #05 //090   ----------------------------------------
 BYTE   PATT
  POIN2 Label_01032469
//  #05 //091   ----------------------------------------
 BYTE   PATT
  POIN2 Label_01032474
//  #05 //092   ----------------------------------------
 BYTE   PATT
  POIN2 Label_0103248F
//  #05 //093   ----------------------------------------
 BYTE   PATT
  POIN2 Label_0103249A
//  #05 //094   ----------------------------------------
 BYTE   PATT
  POIN2 Label_010324A9
//  #05 //095   ----------------------------------------
 BYTE   PATT
  POIN2 Label_010324B8
//  #05 //096   ----------------------------------------
 BYTE   PATT
  POIN2 Label_010324C7
//  #05 //097   ----------------------------------------
 BYTE   PATT
  POIN2 Label_010324D6
//  #05 //098   ----------------------------------------
 BYTE   PATT
  POIN2 Label_010324F6
//  #05 //099   ----------------------------------------
 BYTE   PATT
  POIN2 Label_01032516
//  #05 //100   ----------------------------------------
 BYTE   PATT
  POIN2 Label_01032536
//  #05 //101   ----------------------------------------
 BYTE   PATT
  POIN2 Label_01032550
//  #05 //102   ----------------------------------------
 BYTE   N44  An1  v080
 BYTE   N44  An3
 BYTE   W96
//  #05 //103   ----------------------------------------
 BYTE   An1
 BYTE   N44  An3
 BYTE   W96
//  #05 //104   ----------------------------------------
 BYTE   PATT
  POIN2 Label_01032568
//  #05 //105   ----------------------------------------
 BYTE   PATT
  POIN2 Label_0103258E
//  #05 //106   ----------------------------------------
 BYTE   PATT
  POIN2 Label_01032209
//  #05 //107   ----------------------------------------
 BYTE   PATT
  POIN2 Label_0103223D
//  #05 //108   ----------------------------------------
 BYTE   PATT
  POIN2 Label_010325CB
//  #05 //109   ----------------------------------------
 BYTE   PATT
  POIN2 Label_01032612
//  #05 //110   ----------------------------------------
 BYTE   PATT
  POIN2 Label_01032638
//  #05 //111   ----------------------------------------
 BYTE   PATT
  POIN2 Label_01032209
//  #05 //112   ----------------------------------------
 BYTE   PATT
  POIN2 Label_0103223D
//  #05 //113   ----------------------------------------
 BYTE   PATT
  POIN2 Label_01032279
//  #05 //114   ----------------------------------------
 BYTE   PATT
  POIN2 Label_010322AF
//  #05 //115   ----------------------------------------
 BYTE   PATT
  POIN2 Label_01032758
//  #05 //116   ----------------------------------------
 BYTE   PATT
  POIN2 Label_010322EA
//  #05 //117   ----------------------------------------
 BYTE   PATT
  POIN2 Label_01032302
//  #05 //118   ----------------------------------------
 BYTE   PATT
  POIN2 Label_0103231A
//  #05 //119   ----------------------------------------
 BYTE   PATT
  POIN2 Label_01032348
//  #05 //120   ----------------------------------------
 BYTE   PATT
  POIN2 Label_01032372
//  #05 //121   ----------------------------------------
 BYTE   PATT
  POIN2 Label_01032394
//  #05 //122   ----------------------------------------
 BYTE   PATT
  POIN2 Label_010323BB
//  #05 //123   ----------------------------------------
 BYTE   PATT
  POIN2 Label_010323EF
//  #05 //124   ----------------------------------------
 BYTE   PATT
  POIN2 Label_0103241B
//  #05 //125   ----------------------------------------
 BYTE   PATT
  POIN2 Label_0103244E
//  #05 //126   ----------------------------------------
 BYTE   PATT
  POIN2 Label_01032469
//  #05 //127   ----------------------------------------
 BYTE   PATT
  POIN2 Label_01032474
//  #05 //128   ----------------------------------------
 BYTE   PATT
  POIN2 Label_0103248F
//  #05 //129   ----------------------------------------
 BYTE   PATT
  POIN2 Label_0103249A
//  #05 //130   ----------------------------------------
 BYTE   PATT
  POIN2 Label_010324A9
//  #05 //131   ----------------------------------------
 BYTE   PATT
  POIN2 Label_010324B8
//  #05 //132   ----------------------------------------
 BYTE   PATT
  POIN2 Label_010324C7
//  #05 //133   ----------------------------------------
 BYTE   PATT
  POIN2 Label_010324D6
//  #05 //134   ----------------------------------------
 BYTE   PATT
  POIN2 Label_010324F6
//  #05 //135   ----------------------------------------
 BYTE   PATT
  POIN2 Label_01032516
//  #05 //136   ----------------------------------------
 BYTE   PATT
  POIN2 Label_01032536
//  #05 //137   ----------------------------------------
 BYTE   PATT
  POIN2 Label_01032550
//  #05 //138   ----------------------------------------
 BYTE   N44  An1  v080
 BYTE   N44  An3
 BYTE   W96
//  #05 //139   ----------------------------------------
 BYTE   An1
 BYTE   N44  An3
 BYTE   W96
//  #05 //140   ----------------------------------------
 BYTE   PATT
  POIN2 Label_01032568
//  #05 //141   ----------------------------------------
 BYTE   PATT
  POIN2 Label_0103258E
//  #05 //142   ----------------------------------------
 BYTE   PATT
  POIN2 Label_01032209
//  #05 //143   ----------------------------------------
 BYTE   PATT
  POIN2 Label_0103223D
//  #05 //144   ----------------------------------------
 BYTE   PATT
  POIN2 Label_010325CB
//  #05 //145   ----------------------------------------
 BYTE   PATT
  POIN2 Label_01032612
//  #05 //146   ----------------------------------------
 BYTE   PATT
  POIN2 Label_01032638
//  #05 //147   ----------------------------------------
 BYTE   PATT
  POIN2 Label_01032209
//  #05 //148   ----------------------------------------
 BYTE   PATT
  POIN2 Label_0103223D
//  #05 //149   ----------------------------------------
 BYTE   PATT
  POIN2 Label_01032279
//  #05 //150   ----------------------------------------
 BYTE   PATT
  POIN2 Label_010322AF
//  #05 //151   ----------------------------------------
 BYTE   PATT
  POIN2 Label_01032758
//  #05 //152   ----------------------------------------
 BYTE   PATT
  POIN2 Label_010322EA
//  #05 //153   ----------------------------------------
 BYTE   PATT
  POIN2 Label_01032302
//  #05 //154   ----------------------------------------
 BYTE   PATT
  POIN2 Label_0103231A
//  #05 //155   ----------------------------------------
 BYTE   PATT
  POIN2 Label_01032348
//  #05 //156   ----------------------------------------
 BYTE   PATT
  POIN2 Label_01032372
//  #05 //157   ----------------------------------------
 BYTE   PATT
  POIN2 Label_01032394
//  #05 //158   ----------------------------------------
 BYTE   PATT
  POIN2 Label_010323BB
//  #05 //159   ----------------------------------------
 BYTE   PATT
  POIN2 Label_010323EF
//  #05 //160   ----------------------------------------
 BYTE   PATT
  POIN2 Label_0103241B
//  #05 //161   ----------------------------------------
 BYTE   PATT
  POIN2 Label_0103244E
//  #05 //162   ----------------------------------------
 BYTE   PATT
  POIN2 Label_01032469
//  #05 //163   ----------------------------------------
 BYTE   PATT
  POIN2 Label_01032474
//  #05 //164   ----------------------------------------
 BYTE   PATT
  POIN2 Label_0103248F
//  #05 //165   ----------------------------------------
 BYTE   PATT
  POIN2 Label_0103249A
//  #05 //166   ----------------------------------------
 BYTE   PATT
  POIN2 Label_010324A9
//  #05 //167   ----------------------------------------
 BYTE   PATT
  POIN2 Label_010324B8
//  #05 //168   ----------------------------------------
 BYTE   PATT
  POIN2 Label_010324C7
//  #05 //169   ----------------------------------------
 BYTE   PATT
  POIN2 Label_010324D6
//  #05 //170   ----------------------------------------
 BYTE   PATT
  POIN2 Label_010324F6
//  #05 //171   ----------------------------------------
 BYTE   PATT
  POIN2 Label_01032516
//  #05 //172   ----------------------------------------
 BYTE   PATT
  POIN2 Label_01032536
//  #05 //173   ----------------------------------------
 BYTE   PATT
  POIN2 Label_01032550
//  #05 //174   ----------------------------------------
 BYTE   N44  An1  v080
 BYTE   N44  An3
 BYTE   W96
//  #05 //175   ----------------------------------------
 BYTE   An1
 BYTE   N44  An3
 BYTE   W96
//  #05 //176   ----------------------------------------
 BYTE   PATT
  POIN2 Label_01032568
//  #05 //177   ----------------------------------------
 BYTE   PATT
  POIN2 Label_0103258E
//  #05 //178   ----------------------------------------
 BYTE   PATT
  POIN2 Label_01032209
//  #05 //179   ----------------------------------------
 BYTE   PATT
  POIN2 Label_0103223D
//  #05 //180   ----------------------------------------
 BYTE   PATT
  POIN2 Label_010325CB
//  #05 //181   ----------------------------------------
 BYTE   PATT
  POIN2 Label_01032612
//  #05 //182   ----------------------------------------
 BYTE   PATT
  POIN2 Label_01032638
//  #05 //183   ----------------------------------------
 BYTE   PATT
  POIN2 Label_01032209
//  #05 //184   ----------------------------------------
 BYTE   PATT
  POIN2 Label_0103223D
//  #05 //185   ----------------------------------------
 BYTE   PATT
  POIN2 Label_01032279
//  #05 //186   ----------------------------------------
 BYTE   PATT
  POIN2 Label_010322AF
//  #05 //187   ----------------------------------------
 BYTE   PATT
  POIN2 Label_01032758
//  #05 //188   ----------------------------------------
 BYTE   PATT
  POIN2 Label_010322EA
//  #05 //189   ----------------------------------------
 BYTE   PATT
  POIN2 Label_01032302
//  #05 //190   ----------------------------------------
 BYTE   PATT
  POIN2 Label_0103231A
//  #05 //191   ----------------------------------------
 BYTE   PATT
  POIN2 Label_01032348
//  #05 //192   ----------------------------------------
 BYTE   PATT
  POIN2 Label_01032372
//  #05 //193   ----------------------------------------
 BYTE   PATT
  POIN2 Label_01032394
//  #05 //194   ----------------------------------------
 BYTE   PATT
  POIN2 Label_010323BB
//  #05 //195   ----------------------------------------
 BYTE   PATT
  POIN2 Label_010323EF
//  #05 //196   ----------------------------------------
 BYTE   PATT
  POIN2 Label_0103241B
//  #05 //197   ----------------------------------------
 BYTE   PATT
  POIN2 Label_0103244E
//  #05 //198   ----------------------------------------
 BYTE   PATT
  POIN2 Label_01032469
//  #05 //199   ----------------------------------------
 BYTE   PATT
  POIN2 Label_01032474
//  #05 //200   ----------------------------------------
 BYTE   PATT
  POIN2 Label_0103248F
//  #05 //201   ----------------------------------------
 BYTE   PATT
  POIN2 Label_0103249A
//  #05 //202   ----------------------------------------
 BYTE   PATT
  POIN2 Label_010324A9
//  #05 //203   ----------------------------------------
 BYTE   PATT
  POIN2 Label_010324B8
//  #05 //204   ----------------------------------------
 BYTE   PATT
  POIN2 Label_010324C7
//  #05 //205   ----------------------------------------
 BYTE   PATT
  POIN2 Label_010324D6
//  #05 //206   ----------------------------------------
 BYTE   PATT
  POIN2 Label_010324F6
//  #05 //207   ----------------------------------------
 BYTE   PATT
  POIN2 Label_01032516
//  #05 //208   ----------------------------------------
 BYTE   PATT
  POIN2 Label_01032536
//  #05 //209   ----------------------------------------
 BYTE   PATT
  POIN2 Label_01032550
//  #05 //210   ----------------------------------------
 BYTE   N44  An1  v080
 BYTE   N44  An3
 BYTE   W96
//  #05 //211   ----------------------------------------
 BYTE   An1
 BYTE   N44  An3
 BYTE   W96
//  #05 //212   ----------------------------------------
 BYTE   PATT
  POIN2 Label_01032568
//  #05 //213   ----------------------------------------
 BYTE   PATT
  POIN2 Label_0103258E
//  #05 //214   ----------------------------------------
 BYTE   PATT
  POIN2 Label_01032209
//  #05 //215   ----------------------------------------
 BYTE   PATT
  POIN2 Label_0103223D
//  #05 //216   ----------------------------------------
 BYTE   PATT
  POIN2 Label_010325CB
//  #05 //217   ----------------------------------------
 BYTE   PATT
  POIN2 Label_01032612
//  #05 //218   ----------------------------------------
 BYTE   PATT
  POIN2 Label_01032638
//  #05 //219   ----------------------------------------
 BYTE   PATT
  POIN2 Label_01032209
//  #05 //220   ----------------------------------------
 BYTE   PATT
  POIN2 Label_0103223D
//  #05 //221   ----------------------------------------
 BYTE   PATT
  POIN2 Label_01032279
//  #05 //222   ----------------------------------------
 BYTE   PATT
  POIN2 Label_010322AF
//  #05 //223   ----------------------------------------
 BYTE   PATT
  POIN2 Label_01032758
//  #05 //224   ----------------------------------------
 BYTE   PATT
  POIN2 Label_010322EA
//  #05 //225   ----------------------------------------
 BYTE   PATT
  POIN2 Label_01032302
//  #05 //226   ----------------------------------------
 BYTE   PATT
  POIN2 Label_0103231A
//  #05 //227   ----------------------------------------
 BYTE   PATT
  POIN2 Label_01032348
//  #05 //228   ----------------------------------------
 BYTE   PATT
  POIN2 Label_01032372
//  #05 //229   ----------------------------------------
 BYTE   PATT
  POIN2 Label_01032394
//  #05 //230   ----------------------------------------
 BYTE   PATT
  POIN2 Label_010323BB
//  #05 //231   ----------------------------------------
 BYTE   PATT
  POIN2 Label_010323EF
//  #05 //232   ----------------------------------------
 BYTE   PATT
  POIN2 Label_0103241B
//  #05 //233   ----------------------------------------
 BYTE   PATT
  POIN2 Label_0103244E
//  #05 //234   ----------------------------------------
 BYTE   PATT
  POIN2 Label_01032469
//  #05 //235   ----------------------------------------
 BYTE   PATT
  POIN2 Label_01032474
//  #05 //236   ----------------------------------------
 BYTE   PATT
  POIN2 Label_0103248F
//  #05 //237   ----------------------------------------
 BYTE   PATT
  POIN2 Label_0103249A
//  #05 //238   ----------------------------------------
 BYTE   PATT
  POIN2 Label_010324A9
//  #05 //239   ----------------------------------------
 BYTE   PATT
  POIN2 Label_010324B8
//  #05 //240   ----------------------------------------
 BYTE   PATT
  POIN2 Label_010324C7
//  #05 //241   ----------------------------------------
 BYTE   PATT
  POIN2 Label_010324D6
//  #05 //242   ----------------------------------------
 BYTE   PATT
  POIN2 Label_010324F6
//  #05 //243   ----------------------------------------
 BYTE   PATT
  POIN2 Label_01032516
//  #05 //244   ----------------------------------------
 BYTE   PATT
  POIN2 Label_01032536
//  #05 //245   ----------------------------------------
 BYTE   PATT
  POIN2 Label_01032550
//  #05 //246   ----------------------------------------
 BYTE   N44  An1  v080
 BYTE   N44  An3
 BYTE   W96
//  #05 //247   ----------------------------------------
 BYTE   An1
 BYTE   N44  An3
 BYTE   W96
//  #05 //248   ----------------------------------------
 BYTE   PATT
  POIN2 Label_01032568
//  #05 //249   ----------------------------------------
 BYTE   PATT
  POIN2 Label_0103258E
//  #05 //250   ----------------------------------------
 BYTE   PATT
  POIN2 Label_01032209
//  #05 //251   ----------------------------------------
 BYTE   PATT
  POIN2 Label_0103223D
//  #05 //252   ----------------------------------------
 BYTE   PATT
  POIN2 Label_010325CB
//  #05 //253   ----------------------------------------
 BYTE   PATT
  POIN2 Label_01032612
//  #05 //254   ----------------------------------------
 BYTE   PATT
  POIN2 Label_01032638
//  #05 //255   ----------------------------------------
 BYTE   PATT
  POIN2 Label_01032209
//  #05 //256   ----------------------------------------
 BYTE   PATT
  POIN2 Label_0103223D
//  #05 //257   ----------------------------------------
 BYTE   PATT
  POIN2 Label_01032279
//  #05 //258   ----------------------------------------
 BYTE   PATT
  POIN2 Label_010322AF
//  #05 //259   ----------------------------------------
 BYTE   PATT
  POIN2 Label_01032758
//  #05 //260   ----------------------------------------
 BYTE   PATT
  POIN2 Label_010322EA
//  #05 //261   ----------------------------------------
 BYTE   PATT
  POIN2 Label_01032302
//  #05 //262   ----------------------------------------
 BYTE   PATT
  POIN2 Label_0103231A
//  #05 //263   ----------------------------------------
 BYTE   PATT
  POIN2 Label_01032348
//  #05 //264   ----------------------------------------
 BYTE   PATT
  POIN2 Label_01032372
//  #05 //265   ----------------------------------------
 BYTE   PATT
  POIN2 Label_01032394
//  #05 //266   ----------------------------------------
 BYTE   PATT
  POIN2 Label_010323BB
//  #05 //267   ----------------------------------------
 BYTE   PATT
  POIN2 Label_010323EF
//  #05 //268   ----------------------------------------
 BYTE   PATT
  POIN2 Label_0103241B
//  #05 //269   ----------------------------------------
 BYTE   PATT
  POIN2 Label_0103244E
//  #05 //270   ----------------------------------------
 BYTE   PATT
  POIN2 Label_01032469
//  #05 //271   ----------------------------------------
 BYTE   PATT
  POIN2 Label_01032474
//  #05 //272   ----------------------------------------
 BYTE   PATT
  POIN2 Label_0103248F
//  #05 //273   ----------------------------------------
 BYTE   PATT
  POIN2 Label_0103249A
//  #05 //274   ----------------------------------------
 BYTE   PATT
  POIN2 Label_010324A9
//  #05 //275   ----------------------------------------
 BYTE   PATT
  POIN2 Label_010324B8
//  #05 //276   ----------------------------------------
 BYTE   PATT
  POIN2 Label_010324C7
//  #05 //277   ----------------------------------------
 BYTE   PATT
  POIN2 Label_010324D6
//  #05 //278   ----------------------------------------
 BYTE   PATT
  POIN2 Label_010324F6
//  #05 //279   ----------------------------------------
 BYTE   PATT
  POIN2 Label_01032516
//  #05 //280   ----------------------------------------
 BYTE   PATT
  POIN2 Label_01032536
//  #05 //281   ----------------------------------------
 BYTE   PATT
  POIN2 Label_01032550
//  #05 //282   ----------------------------------------
 BYTE   N44  An1  v080
 BYTE   N44  An3
 BYTE   W96
//  #05 //283   ----------------------------------------
 BYTE   An1
 BYTE   N44  An3
 BYTE   W96
//  #05 //284   ----------------------------------------
 BYTE   PATT
  POIN2 Label_01032568
//  #05 //285   ----------------------------------------
 BYTE   PATT
  POIN2 Label_0103258E
//  #05 //286   ----------------------------------------
 BYTE   PATT
  POIN2 Label_01032209
//  #05 //287   ----------------------------------------
 BYTE   PATT
  POIN2 Label_0103223D
//  #05 //288   ----------------------------------------
 BYTE   PATT
  POIN2 Label_010325CB
//  #05 //289   ----------------------------------------
 BYTE   PATT
  POIN2 Label_01032612
//  #05 //290   ----------------------------------------
 BYTE   PATT
  POIN2 Label_01032638
//  #05 //291   ----------------------------------------
 BYTE   PATT
  POIN2 Label_01032209
//  #05 //292   ----------------------------------------
 BYTE   PATT
  POIN2 Label_0103223D
//  #05 //293   ----------------------------------------
 BYTE   PATT
  POIN2 Label_01032279
//  #05 //294   ----------------------------------------
 BYTE   PATT
  POIN2 Label_010322AF
//  #05 //295   ----------------------------------------
 BYTE   PATT
  POIN2 Label_01032758
//  #05 //296   ----------------------------------------
 BYTE   PATT
  POIN2 Label_010322EA
//  #05 //297   ----------------------------------------
 BYTE   PATT
  POIN2 Label_01032302
//  #05 //298   ----------------------------------------
 BYTE   PATT
  POIN2 Label_0103231A
//  #05 //299   ----------------------------------------
 BYTE   PATT
  POIN2 Label_01032348
//  #05 //300   ----------------------------------------
 BYTE   PATT
  POIN2 Label_01032372
//  #05 //301   ----------------------------------------
 BYTE   PATT
  POIN2 Label_01032394
//  #05 //302   ----------------------------------------
 BYTE   PATT
  POIN2 Label_010323BB
//  #05 //303   ----------------------------------------
 BYTE   PATT
  POIN2 Label_010323EF
//  #05 //304   ----------------------------------------
 BYTE   PATT
  POIN2 Label_0103241B
//  #05 //305   ----------------------------------------
 BYTE   PATT
  POIN2 Label_0103244E
//  #05 //306   ----------------------------------------
 BYTE   PATT
  POIN2 Label_01032469
//  #05 //307   ----------------------------------------
 BYTE   PATT
  POIN2 Label_01032474
//  #05 //308   ----------------------------------------
 BYTE   PATT
  POIN2 Label_0103248F
//  #05 //309   ----------------------------------------
 BYTE   PATT
  POIN2 Label_0103249A
//  #05 //310   ----------------------------------------
 BYTE   PATT
  POIN2 Label_010324A9
//  #05 //311   ----------------------------------------
 BYTE   PATT
  POIN2 Label_010324B8
//  #05 //312   ----------------------------------------
 BYTE   PATT
  POIN2 Label_010324C7
//  #05 //313   ----------------------------------------
 BYTE   PATT
  POIN2 Label_010324D6
//  #05 //314   ----------------------------------------
 BYTE   PATT
  POIN2 Label_010324F6
//  #05 //315   ----------------------------------------
 BYTE   PATT
  POIN2 Label_01032516
//  #05 //316   ----------------------------------------
 BYTE   PATT
  POIN2 Label_01032536
//  #05 //317   ----------------------------------------
 BYTE   PATT
  POIN2 Label_01032550
//  #05 //318   ----------------------------------------
 BYTE   N44  An1  v080
 BYTE   N44  An3
 BYTE   W96
//  #05 //319   ----------------------------------------
 BYTE   An1
 BYTE   N44  An3
 BYTE   W96
//  #05 //320   ----------------------------------------
 BYTE   PATT
  POIN2 Label_01032568
//  #05 //321   ----------------------------------------
 BYTE   PATT
  POIN2 Label_0103258E
//  #05 //322   ----------------------------------------
 BYTE   PATT
  POIN2 Label_01032209
//  #05 //323   ----------------------------------------
 BYTE   PATT
  POIN2 Label_0103223D
//  #05 //324   ----------------------------------------
 BYTE   PATT
  POIN2 Label_010325CB
//  #05 //325   ----------------------------------------
 BYTE   PATT
  POIN2 Label_01032612
//  #05 //326   ----------------------------------------
 BYTE   PATT
  POIN2 Label_01032638
//  #05 //327   ----------------------------------------
 BYTE   PATT
  POIN2 Label_01032209
//  #05 //328   ----------------------------------------
 BYTE   PATT
  POIN2 Label_0103223D
//  #05 //329   ----------------------------------------
 BYTE   PATT
  POIN2 Label_01032279
//  #05 //330   ----------------------------------------
 BYTE   PATT
  POIN2 Label_010322AF
//  #05 //331   ----------------------------------------
 BYTE   PATT
  POIN2 Label_01032758
//  #05 //332   ----------------------------------------
 BYTE   PATT
  POIN2 Label_010322EA
//  #05 //333   ----------------------------------------
 BYTE   PATT
  POIN2 Label_01032302
//  #05 //334   ----------------------------------------
 BYTE   PATT
  POIN2 Label_0103231A
//  #05 //335   ----------------------------------------
 BYTE   PATT
  POIN2 Label_01032348
//  #05 //336   ----------------------------------------
 BYTE   PATT
  POIN2 Label_01032372
//  #05 //337   ----------------------------------------
 BYTE   PATT
  POIN2 Label_01032394
//  #05 //338   ----------------------------------------
 BYTE   PATT
  POIN2 Label_010323BB
//  #05 //339   ----------------------------------------
 BYTE   PATT
  POIN2 Label_010323EF
//  #05 //340   ----------------------------------------
 BYTE   PATT
  POIN2 Label_0103241B
//  #05 //341   ----------------------------------------
 BYTE   PATT
  POIN2 Label_0103244E
//  #05 //342   ----------------------------------------
 BYTE   PATT
  POIN2 Label_01032469
//  #05 //343   ----------------------------------------
 BYTE   PATT
  POIN2 Label_01032474
//  #05 //344   ----------------------------------------
 BYTE   PATT
  POIN2 Label_0103248F
//  #05 //345   ----------------------------------------
 BYTE   PATT
  POIN2 Label_0103249A
//  #05 //346   ----------------------------------------
 BYTE   PATT
  POIN2 Label_010324A9
//  #05 //347   ----------------------------------------
 BYTE   PATT
  POIN2 Label_010324B8
//  #05 //348   ----------------------------------------
 BYTE   PATT
  POIN2 Label_010324C7
//  #05 //349   ----------------------------------------
 BYTE   PATT
  POIN2 Label_010324D6
//  #05 //350   ----------------------------------------
 BYTE   PATT
  POIN2 Label_010324F6
//  #05 //351   ----------------------------------------
 BYTE   PATT
  POIN2 Label_01032516
//  #05 //352   ----------------------------------------
 BYTE   PATT
  POIN2 Label_01032536
//  #05 //353   ----------------------------------------
 BYTE   PATT
  POIN2 Label_01032550
//  #05 //354   ----------------------------------------
 BYTE   N44  An1  v080
 BYTE   N44  An3
 BYTE   W96
//  #05 //355   ----------------------------------------
 BYTE   An1
 BYTE   N44  An3
 BYTE   W96
//  #05 //356   ----------------------------------------
 BYTE   PATT
  POIN2 Label_01032568
//  #05 //357   ----------------------------------------
 BYTE   PATT
  POIN2 Label_0103258E
//  #05 //358   ----------------------------------------
 BYTE   PATT
  POIN2 Label_01032209
//  #05 //359   ----------------------------------------
 BYTE   PATT
  POIN2 Label_0103223D
//  #05 //360   ----------------------------------------
 BYTE   PATT
  POIN2 Label_010325CB
//  #05 //361   ----------------------------------------
 BYTE   PATT
  POIN2 Label_01032612
//  #05 //362   ----------------------------------------
 BYTE   PATT
  POIN2 Label_01032638
//  #05 //363   ----------------------------------------
 BYTE   PATT
  POIN2 Label_01032209
//  #05 //364   ----------------------------------------
 BYTE   PATT
  POIN2 Label_0103223D
//  #05 //365   ----------------------------------------
 BYTE   PATT
  POIN2 Label_01032279
//  #05 //366   ----------------------------------------
 BYTE   N44  Dn2  v080
 BYTE   N44  Fn2
 BYTE   N44  An2
 BYTE   N11  Dn3
 BYTE   W12
 BYTE   Fn3
 BYTE   W12
 BYTE   N02  En3
 BYTE   W03
 BYTE   Fn3
 BYTE   W03
 BYTE   En3
 BYTE   W03
 BYTE   Fn3
 BYTE   W03
 BYTE   N56  Dn3
 BYTE   W12
 BYTE   N11  An1
 BYTE   W12
 BYTE   Fn1
 BYTE   W12
 BYTE   N23  Dn1
 BYTE   W23
 BYTE   FINE

//******************************************************//
	ALIGN 4

PowerHungryFool:
	BYTE	5	// NumTrks
	BYTE	0	// NumBlks
	BYTE	PowerHungryFool_pri	// Priority
	BYTE	PowerHungryFool_rev	// Reverb.
    
	POIN2	PowerHungryFool_grp
    
	POIN2	PowerHungryFool_001
	POIN2	PowerHungryFool_002
	POIN2	PowerHungryFool_003
	POIN2	PowerHungryFool_004
	POIN2	PowerHungryFool_005

	
