//Event file generated from Sappy .s format.
	#include "MPlayDef.event"

	#define	Heathern_FINAL_grp  voicegroup000
	#define	Heathern_FINAL_pri  0
	#define	Heathern_FINAL_rev  0
	#define	Heathern_FINAL_mvl  95
	#define	Heathern_FINAL_key  0
	#define	Heathern_FINAL_tbs  1
	#define	Heathern_FINAL_exg  0
	#define	Heathern_FINAL_cmp  1

	// .rodata
	//	Heathern_FINAL
	ALIGN 4

//**************** Track 1 (Midi-Chn.1) ****************//

Heathern_FINAL_1:
	BYTE	KEYSH   Heathern_FINAL_key+0
// 000   ----------------------------------------
	BYTE	TEMPO   172*Heathern_FINAL_tbs/2
	BYTE		VOICE   71
	BYTE		MODT    0
	BYTE		LFOS    44
	BYTE		PAN     c_v+8
	BYTE		VOL     103*Heathern_FINAL_mvl/mxv
	BYTE	W48
Heathern_FINAL_1_B1:
	BYTE	W48
// 001   ----------------------------------------
	BYTE	W96
// 002   ----------------------------------------
	BYTE	W96
// 003   ----------------------------------------
	BYTE	W96
// 004   ----------------------------------------
	BYTE	W96
// 005   ----------------------------------------
	BYTE	W96
// 006   ----------------------------------------
	BYTE	W96
// 007   ----------------------------------------
	BYTE	W48
	BYTE		N96     Cn3   v036
	BYTE		N96     Cn4 
	BYTE	W48
// 008   ----------------------------------------
	BYTE	W96
// 009   ----------------------------------------
	BYTE	W96
// 010   ----------------------------------------
	BYTE	W96
// 011   ----------------------------------------
	BYTE	W96
// 012   ----------------------------------------
	BYTE	W96
// 013   ----------------------------------------
	BYTE	W96
// 014   ----------------------------------------
	BYTE	W96
// 015   ----------------------------------------
	BYTE	W96
// 016   ----------------------------------------
	BYTE	W48
	BYTE		N12     Dn4   v048
	BYTE	W12
	BYTE		        En4 
	BYTE	W12
	BYTE		        Fn4 
	BYTE	W12
	BYTE		        Gn4 
	BYTE	W12
// 017   ----------------------------------------
	BYTE		        An4 
	BYTE	W12
	BYTE		        Gn4 
	BYTE	W12
	BYTE		        Fn4 
	BYTE	W12
	BYTE		        En4 
	BYTE	W12
	BYTE		N72     Dn4 
	BYTE	W48
// 018   ----------------------------------------
	BYTE	W24
	BYTE		TIE     Cn5 
	BYTE	W72
// 019   ----------------------------------------
	BYTE	W48
	BYTE		EOT   
	BYTE		N96     An4 
	BYTE	W48
// 020   ----------------------------------------
	BYTE	W48
	BYTE		TIE     Dn4 
	BYTE	W48
// 021   ----------------------------------------
	BYTE	W96
// 022   ----------------------------------------
	BYTE	W36
	BYTE		EOT   
	BYTE	W12
	BYTE		N12   
	BYTE	W12
	BYTE		        En4 
	BYTE	W12
	BYTE		        Fn4 
	BYTE	W12
	BYTE		        Gn4 
	BYTE	W12
// 023   ----------------------------------------
	BYTE		        An4 
	BYTE	W12
	BYTE		        Gn4 
	BYTE	W12
	BYTE		        Fn4 
	BYTE	W12
	BYTE		        En4 
	BYTE	W12
	BYTE		N48     Dn4 
	BYTE	W48
// 024   ----------------------------------------
	BYTE		        Cn4 
	BYTE	W48
	BYTE		N12     Dn2 
	BYTE	W48
// 025   ----------------------------------------
	BYTE	W96
// 026   ----------------------------------------
	BYTE	W96
// 027   ----------------------------------------
	BYTE	W96
// 028   ----------------------------------------
	BYTE	W96
// 029   ----------------------------------------
	BYTE	W96
// 030   ----------------------------------------
	BYTE	W96
// 031   ----------------------------------------
	BYTE	W96
// 032   ----------------------------------------
Heathern_FINAL_1_032:
	BYTE	W48
	BYTE		TIE     Dn2   v056
	BYTE	W48
	BYTE	PEND
// 033   ----------------------------------------
	BYTE	W96
// 034   ----------------------------------------
	BYTE	W48
	BYTE		EOT   
	BYTE		TIE     Cn2 
	BYTE	W48
// 035   ----------------------------------------
	BYTE	W96
// 036   ----------------------------------------
	BYTE	W48
	BYTE		EOT   
	BYTE		TIE     As1 
	BYTE	W48
// 037   ----------------------------------------
	BYTE	W96
// 038   ----------------------------------------
	BYTE	W48
	BYTE		EOT   
	BYTE		N96     An1 
	BYTE	W48
// 039   ----------------------------------------
	BYTE	W48
	BYTE		        Cn2 
	BYTE	W48
// 040   ----------------------------------------
	BYTE	PATT
	 POIN2	Heathern_FINAL_1_032
// 041   ----------------------------------------
	BYTE	W96
// 042   ----------------------------------------
	BYTE	W48
	BYTE		EOT     Dn2 
	BYTE		TIE     Cn2   v056
	BYTE	W48
// 043   ----------------------------------------
	BYTE	W96
// 044   ----------------------------------------
	BYTE	W48
	BYTE		EOT   
	BYTE		TIE     As1 
	BYTE	W48
// 045   ----------------------------------------
	BYTE	W96
// 046   ----------------------------------------
	BYTE	W48
	BYTE		EOT   
	BYTE		N96     Cn2 
	BYTE	W48
// 047   ----------------------------------------
	BYTE	W48
	BYTE		N48     Dn2 
	BYTE	W48
// 048   ----------------------------------------
	BYTE	W48
	BYTE	GoTo
	 POIN2	Heathern_FINAL_1_B1
Heathern_FINAL_1_B2:
	BYTE	FINE

//**************** Track 2 (Midi-Chn.2) ****************//

Heathern_FINAL_2:
	BYTE		VOL     127*Heathern_FINAL_mvl/mxv
	BYTE	KEYSH   Heathern_FINAL_key+0
// 000   ----------------------------------------
	BYTE		VOICE   49
	BYTE		MODT    0
	BYTE		LFOS    44
	BYTE		PAN     c_v-7
	BYTE	W48
Heathern_FINAL_2_B1:
	BYTE	W48
// 001   ----------------------------------------
	BYTE	W96
// 002   ----------------------------------------
	BYTE	W96
// 003   ----------------------------------------
	BYTE	W96
// 004   ----------------------------------------
	BYTE	W96
// 005   ----------------------------------------
	BYTE	W96
// 006   ----------------------------------------
	BYTE	W96
// 007   ----------------------------------------
	BYTE	W96
// 008   ----------------------------------------
	BYTE	W48
	BYTE		N96     Dn1   v092
	BYTE	W48
// 009   ----------------------------------------
	BYTE	W48
	BYTE		N48     Fn1 
	BYTE	W48
// 010   ----------------------------------------
Heathern_FINAL_2_010:
	BYTE		N48     Gn1   v092
	BYTE	W48
	BYTE		        Dn1 
	BYTE	W48
	BYTE	PEND
// 011   ----------------------------------------
Heathern_FINAL_2_011:
	BYTE		N12     Dn1   v088
	BYTE	W36
	BYTE		N60     Fn1   v092
	BYTE	W60
	BYTE	PEND
// 012   ----------------------------------------
Heathern_FINAL_2_012:
	BYTE		N48     Gn1   v092
	BYTE	W48
	BYTE		N96     Dn1 
	BYTE	W48
	BYTE	PEND
// 013   ----------------------------------------
	BYTE	W48
	BYTE		N48     Fn1 
	BYTE	W48
// 014   ----------------------------------------
Heathern_FINAL_2_014:
	BYTE		N48     Gn1   v092
	BYTE	W48
	BYTE		N96     As0 
	BYTE	W48
	BYTE	PEND
// 015   ----------------------------------------
	BYTE	W48
	BYTE		        Cn1 
	BYTE	W48
// 016   ----------------------------------------
	BYTE	W48
	BYTE		        Dn1 
	BYTE	W48
// 017   ----------------------------------------
	BYTE	W48
	BYTE		N48     Fn1 
	BYTE	W48
// 018   ----------------------------------------
	BYTE	PATT
	 POIN2	Heathern_FINAL_2_010
// 019   ----------------------------------------
	BYTE	PATT
	 POIN2	Heathern_FINAL_2_011
// 020   ----------------------------------------
	BYTE	PATT
	 POIN2	Heathern_FINAL_2_012
// 021   ----------------------------------------
	BYTE	W48
	BYTE		N48     Fn1   v092
	BYTE	W48
// 022   ----------------------------------------
	BYTE	PATT
	 POIN2	Heathern_FINAL_2_014
// 023   ----------------------------------------
	BYTE	W48
	BYTE		N96     Cn1   v092
	BYTE	W48
// 024   ----------------------------------------
	BYTE	W48
	BYTE		N24     Dn1 
	BYTE	W48
// 025   ----------------------------------------
	BYTE	W96
// 026   ----------------------------------------
	BYTE	W96
// 027   ----------------------------------------
	BYTE	W96
// 028   ----------------------------------------
	BYTE	W96
// 029   ----------------------------------------
	BYTE	W96
// 030   ----------------------------------------
	BYTE	W96
// 031   ----------------------------------------
	BYTE	W96
// 032   ----------------------------------------
Heathern_FINAL_2_032:
	BYTE	W48
	BYTE		TIE     Dn1   v072
	BYTE	W48
	BYTE	PEND
// 033   ----------------------------------------
	BYTE	W96
// 034   ----------------------------------------
	BYTE	W48
	BYTE		EOT   
	BYTE		TIE     Cn1 
	BYTE	W48
// 035   ----------------------------------------
	BYTE	W96
// 036   ----------------------------------------
	BYTE	W48
	BYTE		EOT   
	BYTE		TIE     As0 
	BYTE	W48
// 037   ----------------------------------------
	BYTE	W96
// 038   ----------------------------------------
	BYTE	W48
	BYTE		EOT   
	BYTE		N96     An0 
	BYTE	W48
// 039   ----------------------------------------
	BYTE	W48
	BYTE		        Cn1 
	BYTE	W48
// 040   ----------------------------------------
	BYTE	PATT
	 POIN2	Heathern_FINAL_2_032
// 041   ----------------------------------------
	BYTE	W96
// 042   ----------------------------------------
	BYTE	W48
	BYTE		EOT     Dn1 
	BYTE		TIE     En1   v072
	BYTE	W48
// 043   ----------------------------------------
	BYTE	W96
// 044   ----------------------------------------
	BYTE	W48
	BYTE		EOT   
	BYTE		TIE     Fn1 
	BYTE	W48
// 045   ----------------------------------------
	BYTE	W96
// 046   ----------------------------------------
	BYTE	W48
	BYTE		EOT   
	BYTE		N96     Cn2   v068
	BYTE	W48
// 047   ----------------------------------------
	BYTE	W48
	BYTE		N48     Dn2 
	BYTE	W48
// 048   ----------------------------------------
	BYTE	W48
	BYTE	GoTo
	 POIN2	Heathern_FINAL_2_B1
Heathern_FINAL_2_B2:
	BYTE	FINE

//**************** Track 3 (Midi-Chn.3) ****************//

Heathern_FINAL_3:
	BYTE	KEYSH   Heathern_FINAL_key+0
// 000   ----------------------------------------
	BYTE		VOICE   100
	BYTE		MODT    0
	BYTE		LFOS    44
	BYTE		PAN     c_v+11
	BYTE		VOL     98*Heathern_FINAL_mvl/mxv
	BYTE	W48
Heathern_FINAL_3_B1:
	BYTE	W48
// 001   ----------------------------------------
	BYTE	W96
// 002   ----------------------------------------
	BYTE	W96
// 003   ----------------------------------------
	BYTE	W96
// 004   ----------------------------------------
	BYTE	W96
// 005   ----------------------------------------
	BYTE	W96
// 006   ----------------------------------------
	BYTE	W96
// 007   ----------------------------------------
	BYTE	W96
// 008   ----------------------------------------
	BYTE	W96
// 009   ----------------------------------------
	BYTE	W96
// 010   ----------------------------------------
	BYTE	W96
// 011   ----------------------------------------
	BYTE	W96
// 012   ----------------------------------------
	BYTE	W96
// 013   ----------------------------------------
	BYTE	W96
// 014   ----------------------------------------
	BYTE	W96
// 015   ----------------------------------------
	BYTE	W96
// 016   ----------------------------------------
	BYTE	W96
// 017   ----------------------------------------
	BYTE	W96
// 018   ----------------------------------------
	BYTE	W96
// 019   ----------------------------------------
	BYTE	W96
// 020   ----------------------------------------
	BYTE	W96
// 021   ----------------------------------------
	BYTE	W96
// 022   ----------------------------------------
	BYTE	W96
// 023   ----------------------------------------
	BYTE	W96
// 024   ----------------------------------------
	BYTE	W72
	BYTE		N12     Gn2   v040
	BYTE		N12     An2 
	BYTE		N12     Dn3 
	BYTE	W12
	BYTE		        An2 
	BYTE		N12     Cn3 
	BYTE	W12
// 025   ----------------------------------------
Heathern_FINAL_3_025:
	BYTE		N12     Gn2   v040
	BYTE		N12     An2 
	BYTE		N12     Dn3 
	BYTE	W24
	BYTE		        Gn2 
	BYTE		N12     An2 
	BYTE		N12     Cn3 
	BYTE	W12
	BYTE		        Gn2 
	BYTE		N12     An2 
	BYTE		N12     Dn3 
	BYTE	W24
	BYTE		        Gn2 
	BYTE		N12     An2 
	BYTE		N12     Dn3 
	BYTE	W24
	BYTE		        Gn2 
	BYTE		N12     An2 
	BYTE		N12     Cn3 
	BYTE	W12
	BYTE	PEND
// 026   ----------------------------------------
Heathern_FINAL_3_026:
	BYTE		N12     Gn2   v040
	BYTE		N12     Dn3 
	BYTE	W24
	BYTE		        Gn2 
	BYTE		N12     An2 
	BYTE		N12     Cn3 
	BYTE	W48
	BYTE		        Gn2 
	BYTE		N12     An2 
	BYTE		N12     Dn3 
	BYTE	W12
	BYTE		        An2 
	BYTE		N12     Cn3 
	BYTE	W12
	BYTE	PEND
// 027   ----------------------------------------
	BYTE	PATT
	 POIN2	Heathern_FINAL_3_025
// 028   ----------------------------------------
	BYTE		N12     Gn2   v040
	BYTE		N12     Dn3 
	BYTE	W24
	BYTE		        Gn2 
	BYTE		N12     An2 
	BYTE		N12     Cn3 
	BYTE	W48
	BYTE		        Gn2 
	BYTE		N12     An2 
	BYTE		N12     Dn3 
	BYTE	W12
	BYTE		        Gn2 
	BYTE		N12     An2 
	BYTE		N12     Cn3 
	BYTE	W12
// 029   ----------------------------------------
	BYTE	PATT
	 POIN2	Heathern_FINAL_3_025
// 030   ----------------------------------------
	BYTE	PATT
	 POIN2	Heathern_FINAL_3_026
// 031   ----------------------------------------
	BYTE		N12     Gn2   v040
	BYTE		N12     An2 
	BYTE		N12     Dn3 
	BYTE	W96
// 032   ----------------------------------------
	BYTE	W96
// 033   ----------------------------------------
	BYTE	W96
// 034   ----------------------------------------
	BYTE	W96
// 035   ----------------------------------------
	BYTE	W96
// 036   ----------------------------------------
	BYTE	W96
// 037   ----------------------------------------
	BYTE	W96
// 038   ----------------------------------------
	BYTE	W96
// 039   ----------------------------------------
	BYTE	W96
// 040   ----------------------------------------
	BYTE	W96
// 041   ----------------------------------------
	BYTE	W96
// 042   ----------------------------------------
	BYTE	W96
// 043   ----------------------------------------
	BYTE	W96
// 044   ----------------------------------------
	BYTE	W96
// 045   ----------------------------------------
	BYTE	W96
// 046   ----------------------------------------
	BYTE	W96
// 047   ----------------------------------------
	BYTE	W96
// 048   ----------------------------------------
	BYTE	W48
	BYTE	GoTo
	 POIN2	Heathern_FINAL_3_B1
Heathern_FINAL_3_B2:
	BYTE	FINE

//**************** Track 4 (Midi-Chn.4) ****************//

Heathern_FINAL_4:
	BYTE	KEYSH   Heathern_FINAL_key+0
// 000   ----------------------------------------
	BYTE		VOICE   14
	BYTE		MODT    0
	BYTE		LFOS    44
	BYTE		PAN     c_v-8
	BYTE		VOL     108*Heathern_FINAL_mvl/mxv
	BYTE	W48
Heathern_FINAL_4_B1:
	BYTE	W48
// 001   ----------------------------------------
	BYTE	W96
// 002   ----------------------------------------
	BYTE	W96
// 003   ----------------------------------------
	BYTE	W96
// 004   ----------------------------------------
	BYTE	W96
// 005   ----------------------------------------
	BYTE	W96
// 006   ----------------------------------------
	BYTE	W96
// 007   ----------------------------------------
	BYTE	W96
// 008   ----------------------------------------
	BYTE	W96
// 009   ----------------------------------------
	BYTE	W96
// 010   ----------------------------------------
	BYTE	W96
// 011   ----------------------------------------
	BYTE	W96
// 012   ----------------------------------------
	BYTE	W96
// 013   ----------------------------------------
	BYTE	W96
// 014   ----------------------------------------
	BYTE	W96
// 015   ----------------------------------------
	BYTE	W96
// 016   ----------------------------------------
	BYTE	W48
	BYTE		N02     Dn2   v056
	BYTE	W02
	BYTE		N09   
	BYTE	W10
	BYTE		N12     Dn3   v044
	BYTE	W24
	BYTE		        Dn4 
	BYTE	W10
	BYTE		N13     Dn2   v056
	BYTE	W02
// 017   ----------------------------------------
	BYTE		N12     Dn3   v044
	BYTE	W24
	BYTE		N11     Dn2   v056
	BYTE	W11
	BYTE		N01   
	BYTE	W01
	BYTE		N12     Dn3   v044
	BYTE	W24
	BYTE		        Dn4 
	BYTE	W12
	BYTE		        Dn3 
	BYTE	W24
// 018   ----------------------------------------
Heathern_FINAL_4_018:
	BYTE	W48
	BYTE		N11     Dn2   v056
	BYTE	W12
	BYTE		N12     Dn3   v044
	BYTE	W24
	BYTE		        Dn4 
	BYTE	W11
	BYTE		        Dn2   v056
	BYTE	W01
	BYTE	PEND
// 019   ----------------------------------------
Heathern_FINAL_4_019:
	BYTE		N12     Dn3   v044
	BYTE	W24
	BYTE		        Dn2   v056
	BYTE	W12
	BYTE		N11   
	BYTE		N12     Dn3   v044
	BYTE	W24
	BYTE		        Dn4 
	BYTE	W12
	BYTE		        Dn3 
	BYTE	W24
	BYTE	PEND
// 020   ----------------------------------------
	BYTE	W44
	BYTE	W02
	BYTE		N01     Dn2   v056
	BYTE	W02
	BYTE		N11   
	BYTE	W12
	BYTE		N12     Dn3   v044
	BYTE	W24
	BYTE		        Dn4 
	BYTE	W11
	BYTE		        Dn2   v056
	BYTE	W01
// 021   ----------------------------------------
	BYTE	PATT
	 POIN2	Heathern_FINAL_4_019
// 022   ----------------------------------------
Heathern_FINAL_4_022:
	BYTE	W44
	BYTE	W02
	BYTE		N01     Dn2   v056
	BYTE	W02
	BYTE		N01   
	BYTE	W01
	BYTE		N10   
	BYTE	W11
	BYTE		N12     Dn3   v044
	BYTE	W24
	BYTE		        Dn4 
	BYTE	W11
	BYTE		        Dn2   v056
	BYTE	W01
	BYTE	PEND
// 023   ----------------------------------------
Heathern_FINAL_4_023:
	BYTE		N12     Dn3   v044
	BYTE	W24
	BYTE		N11     Dn2   v056
	BYTE	W11
	BYTE		N01   
	BYTE	W01
	BYTE		N12     Dn3   v044
	BYTE	W60
	BYTE	PEND
// 024   ----------------------------------------
	BYTE	W96
// 025   ----------------------------------------
	BYTE	W96
// 026   ----------------------------------------
	BYTE	W96
// 027   ----------------------------------------
	BYTE	W96
// 028   ----------------------------------------
	BYTE	PATT
	 POIN2	Heathern_FINAL_4_018
// 029   ----------------------------------------
	BYTE	PATT
	 POIN2	Heathern_FINAL_4_019
// 030   ----------------------------------------
	BYTE	PATT
	 POIN2	Heathern_FINAL_4_022
// 031   ----------------------------------------
	BYTE	PATT
	 POIN2	Heathern_FINAL_4_023
// 032   ----------------------------------------
	BYTE	W48
	BYTE		N12     Dn3   v060
	BYTE	W24
	BYTE		        An2 
	BYTE	W24
// 033   ----------------------------------------
	BYTE		        Gn2 
	BYTE	W24
	BYTE		        Fn2 
	BYTE	W24
	BYTE		        Gn2 
	BYTE	W24
	BYTE		        An3 
	BYTE	W24
// 034   ----------------------------------------
	BYTE		N12   
	BYTE	W24
	BYTE		N12   
	BYTE	W24
	BYTE		        Dn3 
	BYTE	W24
	BYTE		        An2 
	BYTE	W24
// 035   ----------------------------------------
	BYTE		        Gn2 
	BYTE	W24
	BYTE		        Fn2   v064
	BYTE	W24
	BYTE		        Gn2 
	BYTE	W24
	BYTE		        Dn2 
	BYTE	W24
// 036   ----------------------------------------
	BYTE		N12   
	BYTE	W24
	BYTE		N12   
	BYTE	W24
	BYTE		        Dn3   v068
	BYTE	W24
	BYTE		        An2 
	BYTE	W24
// 037   ----------------------------------------
	BYTE		        Gn2 
	BYTE	W24
	BYTE		        Fn2 
	BYTE	W24
	BYTE		        Gn2 
	BYTE	W24
	BYTE		        An3 
	BYTE	W24
// 038   ----------------------------------------
	BYTE		N12   
	BYTE	W24
	BYTE		N12   
	BYTE	W24
	BYTE		        Dn3 
	BYTE	W24
	BYTE		        An2 
	BYTE	W24
// 039   ----------------------------------------
	BYTE		        Gn2 
	BYTE	W24
	BYTE		        Fn2 
	BYTE	W24
	BYTE		        Fn3 
	BYTE	W48
// 040   ----------------------------------------
	BYTE		        En3   v072
	BYTE	W48
	BYTE		        Dn3 
	BYTE	W24
	BYTE		        An2 
	BYTE	W24
// 041   ----------------------------------------
	BYTE		        Gn2 
	BYTE	W24
	BYTE		        Fn2 
	BYTE	W24
	BYTE		        Gn2 
	BYTE	W24
	BYTE		        An3 
	BYTE	W24
// 042   ----------------------------------------
	BYTE		N12   
	BYTE	W24
	BYTE		N12   
	BYTE	W24
	BYTE		        Dn3 
	BYTE	W24
	BYTE		        An2 
	BYTE	W24
// 043   ----------------------------------------
	BYTE		        Gn2 
	BYTE	W24
	BYTE		        Fn2 
	BYTE	W24
	BYTE		        Gn2 
	BYTE	W24
	BYTE		        Dn2   v076
	BYTE	W24
// 044   ----------------------------------------
	BYTE		N12   
	BYTE	W24
	BYTE		N12   
	BYTE	W24
	BYTE		        Dn3 
	BYTE	W24
	BYTE		        An2 
	BYTE	W24
// 045   ----------------------------------------
	BYTE		        Gn2 
	BYTE	W24
	BYTE		        Fn2 
	BYTE	W24
	BYTE		        Gn2 
	BYTE	W24
	BYTE		        An3 
	BYTE	W24
// 046   ----------------------------------------
	BYTE		N12   
	BYTE	W24
	BYTE		N12   
	BYTE	W72
// 047   ----------------------------------------
	BYTE	W96
// 048   ----------------------------------------
	BYTE		N48     En3   v080
	BYTE	W48
	BYTE	GoTo
	 POIN2	Heathern_FINAL_4_B1
Heathern_FINAL_4_B2:
	BYTE	FINE

//**************** Track 5 (Midi-Chn.5) ****************//

Heathern_FINAL_5:
	BYTE	KEYSH   Heathern_FINAL_key+0
// 000   ----------------------------------------
	BYTE		VOICE   24
	BYTE		MODT    0
	BYTE		LFOS    44
	BYTE		PAN     c_v+18
	BYTE		VOL     77*Heathern_FINAL_mvl/mxv
	BYTE	W48
Heathern_FINAL_5_B1:
	BYTE		N60     Dn2   v096
	BYTE	W48
// 001   ----------------------------------------
Heathern_FINAL_5_001:
	BYTE	W24
	BYTE		N12     Dn2   v096
	BYTE	W12
	BYTE		N12   
	BYTE	W60
	BYTE	PEND
// 002   ----------------------------------------
	BYTE	W48
	BYTE		N72   
	BYTE	W48
// 003   ----------------------------------------
	BYTE	PATT
	 POIN2	Heathern_FINAL_5_001
// 004   ----------------------------------------
	BYTE	W48
	BYTE		N60     Dn2   v096
	BYTE	W48
// 005   ----------------------------------------
	BYTE	PATT
	 POIN2	Heathern_FINAL_5_001
// 006   ----------------------------------------
	BYTE	W48
	BYTE		N96     As1   v096
	BYTE	W48
// 007   ----------------------------------------
Heathern_FINAL_5_007:
	BYTE	W48
	BYTE		N12     Cn2   v096
	BYTE	W24
	BYTE		N12   
	BYTE	W24
	BYTE	PEND
// 008   ----------------------------------------
	BYTE		N12   
	BYTE	W24
	BYTE		N12   
	BYTE	W24
	BYTE		N96     Dn2   v092
	BYTE		N96     Dn3 
	BYTE	W48
// 009   ----------------------------------------
Heathern_FINAL_5_009:
	BYTE	W48
	BYTE		N48     Fn2   v092
	BYTE		N48     Fn3 
	BYTE	W48
	BYTE	PEND
// 010   ----------------------------------------
Heathern_FINAL_5_010:
	BYTE		N48     Gn2   v092
	BYTE		N48     Gn3 
	BYTE	W48
	BYTE		        Dn2 
	BYTE		N48     Dn3 
	BYTE	W48
	BYTE	PEND
// 011   ----------------------------------------
Heathern_FINAL_5_011:
	BYTE		N12     Dn2   v088
	BYTE		N12     Dn3 
	BYTE	W36
	BYTE		N60     Fn2   v092
	BYTE		N60     Fn3 
	BYTE	W60
	BYTE	PEND
// 012   ----------------------------------------
Heathern_FINAL_5_012:
	BYTE		N48     Gn2   v092
	BYTE		N48     Gn3 
	BYTE	W48
	BYTE		N96     Dn2 
	BYTE		N96     Dn3 
	BYTE	W48
	BYTE	PEND
// 013   ----------------------------------------
	BYTE	PATT
	 POIN2	Heathern_FINAL_5_009
// 014   ----------------------------------------
Heathern_FINAL_5_014:
	BYTE		N48     Gn2   v092
	BYTE		N48     Gn3 
	BYTE	W48
	BYTE		N96     As1 
	BYTE		N96     As2 
	BYTE	W48
	BYTE	PEND
// 015   ----------------------------------------
Heathern_FINAL_5_015:
	BYTE	W48
	BYTE		N96     Cn2   v092
	BYTE		N96     Cn3 
	BYTE	W48
	BYTE	PEND
// 016   ----------------------------------------
	BYTE	W48
	BYTE		        Dn2 
	BYTE		N96     Dn3 
	BYTE	W48
// 017   ----------------------------------------
	BYTE	PATT
	 POIN2	Heathern_FINAL_5_009
// 018   ----------------------------------------
	BYTE	PATT
	 POIN2	Heathern_FINAL_5_010
// 019   ----------------------------------------
	BYTE	PATT
	 POIN2	Heathern_FINAL_5_011
// 020   ----------------------------------------
	BYTE	PATT
	 POIN2	Heathern_FINAL_5_012
// 021   ----------------------------------------
	BYTE	PATT
	 POIN2	Heathern_FINAL_5_009
// 022   ----------------------------------------
	BYTE	PATT
	 POIN2	Heathern_FINAL_5_014
// 023   ----------------------------------------
	BYTE	PATT
	 POIN2	Heathern_FINAL_5_015
// 024   ----------------------------------------
	BYTE	W48
	BYTE		N60     Dn2   v096
	BYTE	W48
// 025   ----------------------------------------
	BYTE	PATT
	 POIN2	Heathern_FINAL_5_001
// 026   ----------------------------------------
	BYTE	W48
	BYTE		N72     Dn2   v096
	BYTE	W48
// 027   ----------------------------------------
	BYTE	PATT
	 POIN2	Heathern_FINAL_5_001
// 028   ----------------------------------------
	BYTE	W48
	BYTE		N60     Dn2   v096
	BYTE	W48
// 029   ----------------------------------------
	BYTE	PATT
	 POIN2	Heathern_FINAL_5_001
// 030   ----------------------------------------
	BYTE	W48
	BYTE		N96     As1   v096
	BYTE	W48
// 031   ----------------------------------------
	BYTE	PATT
	 POIN2	Heathern_FINAL_5_007
// 032   ----------------------------------------
	BYTE		N12     Cn2   v096
	BYTE	W24
	BYTE		N12   
	BYTE	W24
	BYTE		        Dn1   v092
	BYTE		N12     Dn2 
	BYTE	W24
	BYTE		        Dn1 
	BYTE		N12     Dn2 
	BYTE	W24
// 033   ----------------------------------------
Heathern_FINAL_5_033:
	BYTE		N12     Dn1   v092
	BYTE		N12     Dn2 
	BYTE	W24
	BYTE		        Dn1 
	BYTE		N12     Dn2 
	BYTE	W24
	BYTE		        Dn1 
	BYTE		N12     Dn2 
	BYTE	W24
	BYTE		        Dn1 
	BYTE		N12     Dn2 
	BYTE	W24
	BYTE	PEND
// 034   ----------------------------------------
Heathern_FINAL_5_034:
	BYTE		N24     Fn1   v092
	BYTE		N24     Fn2 
	BYTE	W24
	BYTE		        Dn1 
	BYTE		N24     Dn2 
	BYTE	W24
	BYTE		N12     Cn1 
	BYTE		N12     Cn2 
	BYTE	W24
	BYTE		        Cn1 
	BYTE		N12     Cn2 
	BYTE	W24
	BYTE	PEND
// 035   ----------------------------------------
Heathern_FINAL_5_035:
	BYTE		N12     Cn1   v092
	BYTE		N12     Cn2 
	BYTE	W24
	BYTE		        Cn1 
	BYTE		N12     Cn2 
	BYTE	W24
	BYTE		        Cn1 
	BYTE		N12     Cn2 
	BYTE	W24
	BYTE		        Cn1 
	BYTE		N12     Cn2 
	BYTE	W24
	BYTE	PEND
// 036   ----------------------------------------
Heathern_FINAL_5_036:
	BYTE		N24     En1   v092
	BYTE		N24     En2 
	BYTE	W24
	BYTE		N12     Cn1 
	BYTE		N12     Cn2 
	BYTE	W24
	BYTE		        As0 
	BYTE		N12     As1 
	BYTE	W24
	BYTE		        As0 
	BYTE		N12     As1 
	BYTE	W24
	BYTE	PEND
// 037   ----------------------------------------
Heathern_FINAL_5_037:
	BYTE		N12     As0   v092
	BYTE		N12     As1 
	BYTE	W24
	BYTE		        As0 
	BYTE		N12     As1 
	BYTE	W24
	BYTE		        As0 
	BYTE		N12     As1 
	BYTE	W24
	BYTE		        As0 
	BYTE		N12     As1 
	BYTE	W24
	BYTE	PEND
// 038   ----------------------------------------
	BYTE		        As0 
	BYTE		N12     As1 
	BYTE	W24
	BYTE		        As0 
	BYTE		N12     As1 
	BYTE	W24
	BYTE		        An0 
	BYTE		N12     An1 
	BYTE	W24
	BYTE		        An0 
	BYTE		N12     An1 
	BYTE	W24
// 039   ----------------------------------------
	BYTE		        An0 
	BYTE		N12     An1 
	BYTE	W24
	BYTE		        An0 
	BYTE		N12     An1 
	BYTE	W24
	BYTE		        Cn1 
	BYTE		N12     Cn2 
	BYTE	W24
	BYTE		        Cn1 
	BYTE		N12     Cn2 
	BYTE	W24
// 040   ----------------------------------------
	BYTE		N24     Fn1 
	BYTE		N24     Fn2 
	BYTE	W24
	BYTE		N12     En1 
	BYTE		N12     En2 
	BYTE	W24
	BYTE		        Dn1 
	BYTE		N12     Dn2 
	BYTE	W24
	BYTE		        Dn1 
	BYTE		N12     Dn2 
	BYTE	W24
// 041   ----------------------------------------
	BYTE	PATT
	 POIN2	Heathern_FINAL_5_033
// 042   ----------------------------------------
	BYTE	PATT
	 POIN2	Heathern_FINAL_5_034
// 043   ----------------------------------------
	BYTE	PATT
	 POIN2	Heathern_FINAL_5_035
// 044   ----------------------------------------
	BYTE	PATT
	 POIN2	Heathern_FINAL_5_036
// 045   ----------------------------------------
	BYTE	PATT
	 POIN2	Heathern_FINAL_5_037
// 046   ----------------------------------------
	BYTE		N12     As0   v092
	BYTE		N12     As1 
	BYTE	W24
	BYTE		        As0 
	BYTE		N12     As1 
	BYTE	W24
	BYTE		N24     Cn1 
	BYTE		N24     Cn2 
	BYTE	W24
	BYTE		        Cn1 
	BYTE		N24     Cn2 
	BYTE	W24
// 047   ----------------------------------------
	BYTE		        Cn1 
	BYTE		N24     Cn2 
	BYTE	W24
	BYTE		        Cn1 
	BYTE		N24     Cn2 
	BYTE	W24
	BYTE		        Dn1 
	BYTE		N24     Dn2 
	BYTE	W24
	BYTE		N12     Dn1 
	BYTE		N12     Dn2 
	BYTE	W24
// 048   ----------------------------------------
	BYTE		N24     Fn1 
	BYTE		N24     Fn2 
	BYTE	W48
	BYTE	GoTo
	 POIN2	Heathern_FINAL_5_B1
Heathern_FINAL_5_B2:
	BYTE	FINE

//**************** Track 6 (Midi-Chn.6) ****************//

Heathern_FINAL_6:
	BYTE	KEYSH   Heathern_FINAL_key+0
// 000   ----------------------------------------
	BYTE		VOICE   121
	BYTE		MODT    0
	BYTE		LFOS    44
	BYTE		VOL     103*Heathern_FINAL_mvl/mxv
	BYTE	W48
Heathern_FINAL_6_B1:
	BYTE		N12     En1   v064
	BYTE		TIE     Dn2 
	BYTE	W24
	BYTE		N12     Fn1   v044
	BYTE	W24
// 001   ----------------------------------------
	BYTE		N12   
	BYTE		N12     Bn1   v096
	BYTE	W24
	BYTE		        Fn1   v044
	BYTE	W12
	BYTE		N12   
	BYTE	W12
	BYTE		N12   
	BYTE	W12
	BYTE		EOT     Dn2 
	BYTE	W12
	BYTE		N12     Fn1 
	BYTE	W24
// 002   ----------------------------------------
	BYTE		N12   
	BYTE		N12     Bn1   v096
	BYTE	W24
	BYTE		        En1   v044
	BYTE	W24
	BYTE		N12   
	BYTE	W24
	BYTE		        Fn1 
	BYTE	W24
// 003   ----------------------------------------
	BYTE		N12   
	BYTE		N12     Bn1   v096
	BYTE	W24
	BYTE		        Fn1   v044
	BYTE	W12
	BYTE		N12   
	BYTE	W12
	BYTE		N12   
	BYTE	W24
	BYTE		N12   
	BYTE	W24
// 004   ----------------------------------------
Heathern_FINAL_6_004:
	BYTE		N12     Fn1   v044
	BYTE		N12     Bn1   v092
	BYTE	W24
	BYTE		        En1   v044
	BYTE	W24
	BYTE		N12   
	BYTE	W24
	BYTE		        Fn1 
	BYTE	W24
	BYTE	PEND
// 005   ----------------------------------------
	BYTE		N12   
	BYTE		N12     Bn1   v092
	BYTE	W24
	BYTE		        Fn1   v044
	BYTE	W24
	BYTE		N12   
	BYTE	W24
	BYTE		N12   
	BYTE	W12
	BYTE		N12   
	BYTE	W12
// 006   ----------------------------------------
	BYTE	PATT
	 POIN2	Heathern_FINAL_6_004
// 007   ----------------------------------------
	BYTE		N12     Fn1   v044
	BYTE		N12     Bn1   v092
	BYTE	W24
	BYTE		        Fn1   v044
	BYTE	W12
	BYTE		N12   
	BYTE	W12
	BYTE		N12   
	BYTE	W24
	BYTE		N12   
	BYTE	W24
// 008   ----------------------------------------
	BYTE		        Cn1 
	BYTE	W24
	BYTE		        Bn0 
	BYTE		N12     Cn1   v096
	BYTE	W24
	BYTE		N12   
	BYTE		N12     En1   v064
	BYTE		TIE     Dn2 
	BYTE	W24
	BYTE		N12     Fn1   v044
	BYTE	W12
	BYTE		        Cn1   v096
	BYTE	W12
// 009   ----------------------------------------
	BYTE		        Fn1   v044
	BYTE		N12     Cn2   v096
	BYTE	W24
	BYTE		        Cn1 
	BYTE		N12     Fn1   v044
	BYTE	W12
	BYTE		N12   
	BYTE	W12
	BYTE		        Cn1   v096
	BYTE		N12     Fn1   v044
	BYTE	W12
	BYTE		EOT     Dn2 
	BYTE	W12
	BYTE		N12     Cn1   v096
	BYTE		N12     Fn1   v044
	BYTE	W24
// 010   ----------------------------------------
	BYTE		N12   
	BYTE		N12     Bn1   v096
	BYTE	W24
	BYTE		        Cn1 
	BYTE		N12     En1   v044
	BYTE	W24
	BYTE		        Cn1   v096
	BYTE		N12     En1   v044
	BYTE	W24
	BYTE		        Fn1 
	BYTE	W12
	BYTE		        Cn1   v096
	BYTE	W12
// 011   ----------------------------------------
	BYTE		N24     Cn1   v060
	BYTE		N12     Bn1   v096
	BYTE	W24
	BYTE		        Cn1 
	BYTE		N12     Fn1   v044
	BYTE	W12
	BYTE		N12   
	BYTE	W12
	BYTE		        Cn1   v096
	BYTE		N12     Fn1   v044
	BYTE	W24
	BYTE		        Cn1   v096
	BYTE		N12     Fn1   v044
	BYTE	W24
// 012   ----------------------------------------
Heathern_FINAL_6_012:
	BYTE		N12     Fn1   v044
	BYTE		N12     Bn1   v092
	BYTE	W24
	BYTE		        Cn1 
	BYTE		N12     En1   v044
	BYTE	W24
	BYTE		        Cn1   v092
	BYTE		N12     En1   v044
	BYTE	W24
	BYTE		        Fn1 
	BYTE	W12
	BYTE		        Cn1   v092
	BYTE	W12
	BYTE	PEND
// 013   ----------------------------------------
	BYTE		        Fn1   v044
	BYTE		N12     Bn1   v092
	BYTE	W24
	BYTE		        Cn1 
	BYTE		N12     Fn1   v044
	BYTE	W24
	BYTE		        Cn1   v092
	BYTE		N12     Fn1   v044
	BYTE	W24
	BYTE		        Cn1   v092
	BYTE		N12     Fn1   v044
	BYTE	W12
	BYTE		N12   
	BYTE	W12
// 014   ----------------------------------------
	BYTE	PATT
	 POIN2	Heathern_FINAL_6_012
// 015   ----------------------------------------
	BYTE		N12     Fn1   v044
	BYTE		N12     Bn1   v092
	BYTE	W24
	BYTE		        Cn1 
	BYTE		N12     Fn1   v044
	BYTE	W12
	BYTE		N12   
	BYTE	W12
	BYTE		        Cn1   v092
	BYTE		N12     Fn1   v044
	BYTE	W24
	BYTE		        Cn1   v096
	BYTE		N12     Fn1   v044
	BYTE	W24
// 016   ----------------------------------------
	BYTE		        Cn1   v096
	BYTE	W12
	BYTE		        Cn1   v092
	BYTE	W12
	BYTE		        Bn0   v044
	BYTE		N12     Cn1   v096
	BYTE	W24
	BYTE		N12   
	BYTE		N12     En1   v064
	BYTE		TIE     Dn2 
	BYTE	W24
	BYTE		N12     Fn1   v052
	BYTE	W12
	BYTE		        Cn1   v096
	BYTE	W12
// 017   ----------------------------------------
	BYTE		        Fn1   v052
	BYTE		N12     Cn2   v096
	BYTE	W24
	BYTE		        Cn1 
	BYTE		N12     Fn1   v052
	BYTE	W12
	BYTE		N12   
	BYTE	W12
	BYTE		        Cn1   v096
	BYTE		N12     Fn1   v052
	BYTE	W12
	BYTE		EOT     Dn2 
	BYTE	W12
	BYTE		N12     Cn1   v096
	BYTE		N12     Fn1   v052
	BYTE	W24
// 018   ----------------------------------------
	BYTE		N12   
	BYTE		N12     Bn1   v096
	BYTE	W24
	BYTE		        Cn1 
	BYTE		N12     En1   v052
	BYTE	W24
	BYTE		        Cn1   v096
	BYTE		N12     En1   v052
	BYTE	W24
	BYTE		        Fn1 
	BYTE	W12
	BYTE		        Cn1   v100
	BYTE	W12
// 019   ----------------------------------------
	BYTE		        Cn1   v104
	BYTE		N24     Dn1   v088
	BYTE	W24
	BYTE		N12     Cn1   v096
	BYTE		N12     Fn1   v052
	BYTE	W12
	BYTE		N12   
	BYTE	W12
	BYTE		        Cn1   v096
	BYTE		N12     Fn1   v052
	BYTE	W24
	BYTE		        Cn1   v096
	BYTE		N12     Fn1   v052
	BYTE	W24
// 020   ----------------------------------------
	BYTE		N12   
	BYTE		N12     Bn1   v092
	BYTE	W24
	BYTE		        Cn1 
	BYTE		N12     En1   v052
	BYTE	W24
	BYTE		        Cn1   v092
	BYTE		N12     En1   v052
	BYTE	W24
	BYTE		        Fn1 
	BYTE	W12
	BYTE		        Cn1   v092
	BYTE	W12
// 021   ----------------------------------------
	BYTE		        Fn1   v052
	BYTE		N12     Bn1   v092
	BYTE	W24
	BYTE		        Cn1 
	BYTE		N12     Fn1   v052
	BYTE	W24
	BYTE		        Cn1   v092
	BYTE		N12     Fn1   v052
	BYTE	W24
	BYTE		        Cn1   v092
	BYTE		N12     Fn1   v052
	BYTE	W12
	BYTE		N12   
	BYTE	W12
// 022   ----------------------------------------
	BYTE		N12   
	BYTE		N12     Bn1   v092
	BYTE	W24
	BYTE		        Cn1 
	BYTE		N12     En1   v052
	BYTE	W24
	BYTE		        Cn1   v092
	BYTE		N12     En1   v052
	BYTE	W36
	BYTE		        Cn1   v092
	BYTE	W12
// 023   ----------------------------------------
	BYTE		        Bn1 
	BYTE	W24
	BYTE		        Cn1 
	BYTE	W24
	BYTE		N12   
	BYTE	W24
	BYTE		        Cn1   v096
	BYTE	W24
// 024   ----------------------------------------
	BYTE		N12   
	BYTE	W12
	BYTE		        Cn1   v092
	BYTE	W12
	BYTE		        Cn1   v096
	BYTE	W24
	BYTE		TIE     Dn2   v064
	BYTE	W48
// 025   ----------------------------------------
	BYTE		N12     Bn1   v096
	BYTE	W60
	BYTE		EOT     Dn2 
	BYTE	W36
// 026   ----------------------------------------
	BYTE		N12     Bn1 
	BYTE	W96
// 027   ----------------------------------------
	BYTE		N12   
	BYTE	W96
// 028   ----------------------------------------
	BYTE		        Bn1   v092
	BYTE	W96
// 029   ----------------------------------------
	BYTE		N12   
	BYTE	W96
// 030   ----------------------------------------
	BYTE		N12   
	BYTE	W96
// 031   ----------------------------------------
	BYTE		N12   
	BYTE	W96
// 032   ----------------------------------------
	BYTE		        Bn1   v076
	BYTE	W12
	BYTE		        Bn1   v092
	BYTE	W12
	BYTE		        Bn1   v104
	BYTE	W12
	BYTE		        Bn1   v116
	BYTE	W12
	BYTE		TIE     Dn2   v104
	BYTE	W48
// 033   ----------------------------------------
	BYTE		N12     Bn1   v096
	BYTE	W60
	BYTE		EOT     Dn2 
	BYTE	W36
// 034   ----------------------------------------
	BYTE		N12     Bn1 
	BYTE	W96
// 035   ----------------------------------------
	BYTE		N12   
	BYTE	W96
// 036   ----------------------------------------
	BYTE		        Bn1   v092
	BYTE	W96
// 037   ----------------------------------------
	BYTE		N12   
	BYTE	W96
// 038   ----------------------------------------
	BYTE		N12   
	BYTE	W96
// 039   ----------------------------------------
Heathern_FINAL_6_039:
	BYTE		N12     Bn1   v092
	BYTE	W72
	BYTE		        Cn1   v096
	BYTE	W24
	BYTE	PEND
// 040   ----------------------------------------
	BYTE		N12   
	BYTE	W24
	BYTE		N12   
	BYTE	W24
	BYTE		TIE     Dn2   v064
	BYTE	W48
// 041   ----------------------------------------
	BYTE		N12     Bn1   v096
	BYTE	W60
	BYTE		EOT     Dn2 
	BYTE	W36
// 042   ----------------------------------------
	BYTE		N12     Bn1 
	BYTE	W96
// 043   ----------------------------------------
	BYTE		N12   
	BYTE	W96
// 044   ----------------------------------------
	BYTE		        Bn1   v092
	BYTE	W96
// 045   ----------------------------------------
	BYTE		N12   
	BYTE	W96
// 046   ----------------------------------------
	BYTE		N12   
	BYTE	W96
// 047   ----------------------------------------
	BYTE	PATT
	 POIN2	Heathern_FINAL_6_039
// 048   ----------------------------------------
	BYTE		N12     Cn1   v096
	BYTE	W48
	BYTE	GoTo
	 POIN2	Heathern_FINAL_6_B1
Heathern_FINAL_6_B2:
	BYTE	FINE

//**************** Track 7 (Midi-Chn.7) ****************//

Heathern_FINAL_7:
	BYTE	KEYSH   Heathern_FINAL_key+0
// 000   ----------------------------------------
	BYTE		VOICE   48
	BYTE		MODT    0
	BYTE		LFOS    44
	BYTE		VOL     98*Heathern_FINAL_mvl/mxv
	BYTE	W48
Heathern_FINAL_7_B1:
	BYTE		TIE     Dn3   v056
	BYTE	W48
// 001   ----------------------------------------
	BYTE	W96
	BYTE		EOT   
// 002   ----------------------------------------
Heathern_FINAL_7_002:
	BYTE		N48     Cn3   v056
	BYTE	W48
	BYTE		TIE     Dn3 
	BYTE	W48
	BYTE	PEND
// 003   ----------------------------------------
	BYTE	W96
	BYTE		EOT   
// 004   ----------------------------------------
	BYTE	PATT
	 POIN2	Heathern_FINAL_7_002
// 005   ----------------------------------------
	BYTE	W96
	BYTE		EOT     Dn3 
// 006   ----------------------------------------
Heathern_FINAL_7_006:
	BYTE		N48     Cn3   v056
	BYTE	W48
	BYTE		N96     As2 
	BYTE	W48
	BYTE	PEND
// 007   ----------------------------------------
	BYTE	W48
	BYTE		        Cn3 
	BYTE	W48
// 008   ----------------------------------------
Heathern_FINAL_7_008:
	BYTE	W48
	BYTE		TIE     Dn3   v056
	BYTE	W48
	BYTE	PEND
// 009   ----------------------------------------
	BYTE	W96
	BYTE		EOT   
// 010   ----------------------------------------
	BYTE	PATT
	 POIN2	Heathern_FINAL_7_002
// 011   ----------------------------------------
	BYTE	W96
	BYTE		EOT     Dn3 
// 012   ----------------------------------------
	BYTE	PATT
	 POIN2	Heathern_FINAL_7_002
// 013   ----------------------------------------
	BYTE	W96
	BYTE		EOT     Dn3 
// 014   ----------------------------------------
	BYTE	PATT
	 POIN2	Heathern_FINAL_7_006
// 015   ----------------------------------------
	BYTE	W48
	BYTE		N96     Cn3   v056
	BYTE	W48
// 016   ----------------------------------------
	BYTE	PATT
	 POIN2	Heathern_FINAL_7_008
// 017   ----------------------------------------
	BYTE	W96
	BYTE		EOT     Dn3 
// 018   ----------------------------------------
	BYTE	PATT
	 POIN2	Heathern_FINAL_7_002
// 019   ----------------------------------------
	BYTE	W96
	BYTE		EOT     Dn3 
// 020   ----------------------------------------
	BYTE	PATT
	 POIN2	Heathern_FINAL_7_002
// 021   ----------------------------------------
	BYTE	W96
	BYTE		EOT     Dn3 
// 022   ----------------------------------------
	BYTE	PATT
	 POIN2	Heathern_FINAL_7_006
// 023   ----------------------------------------
	BYTE	W48
	BYTE		N96     Cn3   v056
	BYTE	W48
// 024   ----------------------------------------
	BYTE	W96
// 025   ----------------------------------------
	BYTE	W96
// 026   ----------------------------------------
	BYTE	W96
// 027   ----------------------------------------
	BYTE	W96
// 028   ----------------------------------------
	BYTE	W96
// 029   ----------------------------------------
	BYTE	W96
// 030   ----------------------------------------
	BYTE	W96
// 031   ----------------------------------------
	BYTE	W96
// 032   ----------------------------------------
	BYTE	W96
// 033   ----------------------------------------
	BYTE	W96
// 034   ----------------------------------------
	BYTE	W96
// 035   ----------------------------------------
	BYTE	W96
// 036   ----------------------------------------
	BYTE	W96
// 037   ----------------------------------------
	BYTE	W96
// 038   ----------------------------------------
	BYTE	W96
// 039   ----------------------------------------
	BYTE	W96
// 040   ----------------------------------------
	BYTE	W48
	BYTE		TIE     Dn3   v068
	BYTE	W48
// 041   ----------------------------------------
	BYTE	W96
// 042   ----------------------------------------
	BYTE	W48
	BYTE		EOT   
	BYTE		TIE     En3 
	BYTE	W48
// 043   ----------------------------------------
	BYTE	W96
// 044   ----------------------------------------
	BYTE	W48
	BYTE		EOT   
	BYTE		TIE     Fn3 
	BYTE	W48
// 045   ----------------------------------------
	BYTE	W96
// 046   ----------------------------------------
	BYTE	W48
	BYTE		EOT   
	BYTE	W48
// 047   ----------------------------------------
	BYTE	W96
// 048   ----------------------------------------
	BYTE	W48
	BYTE	GoTo
	 POIN2	Heathern_FINAL_7_B1
Heathern_FINAL_7_B2:
	BYTE	FINE

//**************** Track 8 (Midi-Chn.8) ****************//

Heathern_FINAL_8:
	BYTE	KEYSH   Heathern_FINAL_key+0
// 000   ----------------------------------------
	BYTE		VOICE   19
	BYTE		MODT    0
	BYTE		LFOS    44
	BYTE		VOL     103*Heathern_FINAL_mvl/mxv
	BYTE	W48
Heathern_FINAL_8_B1:
	BYTE	W48
// 001   ----------------------------------------
	BYTE	W96
// 002   ----------------------------------------
	BYTE	W96
// 003   ----------------------------------------
	BYTE	W96
// 004   ----------------------------------------
	BYTE	W96
// 005   ----------------------------------------
	BYTE	W96
// 006   ----------------------------------------
	BYTE	W96
// 007   ----------------------------------------
	BYTE	W96
// 008   ----------------------------------------
	BYTE	W96
// 009   ----------------------------------------
	BYTE	W96
// 010   ----------------------------------------
	BYTE	W96
// 011   ----------------------------------------
	BYTE	W96
// 012   ----------------------------------------
	BYTE	W96
// 013   ----------------------------------------
	BYTE	W96
// 014   ----------------------------------------
	BYTE	W96
// 015   ----------------------------------------
	BYTE	W96
// 016   ----------------------------------------
Heathern_FINAL_8_016:
	BYTE	W48
	BYTE		TIE     Dn3   v056
	BYTE	W48
	BYTE	PEND
// 017   ----------------------------------------
	BYTE	W96
	BYTE		EOT   
// 018   ----------------------------------------
	BYTE		N48     Cn3 
	BYTE	W48
	BYTE		N54     Dn3 
	BYTE	W48
// 019   ----------------------------------------
	BYTE	W48
	BYTE		N96     Cn3 
	BYTE	W48
// 020   ----------------------------------------
	BYTE	PATT
	 POIN2	Heathern_FINAL_8_016
// 021   ----------------------------------------
	BYTE	W96
	BYTE		EOT     Dn3 
// 022   ----------------------------------------
	BYTE		N48     Cn3   v056
	BYTE	W48
	BYTE		N96     As2 
	BYTE	W48
// 023   ----------------------------------------
	BYTE	W48
	BYTE		        Cn3 
	BYTE	W48
// 024   ----------------------------------------
	BYTE	W96
// 025   ----------------------------------------
	BYTE	W96
// 026   ----------------------------------------
	BYTE	W96
// 027   ----------------------------------------
	BYTE	W96
// 028   ----------------------------------------
	BYTE	W96
// 029   ----------------------------------------
	BYTE	W96
// 030   ----------------------------------------
	BYTE	W96
// 031   ----------------------------------------
	BYTE	W96
// 032   ----------------------------------------
	BYTE	W48
	BYTE		TIE     Fn2   v060
	BYTE	W48
// 033   ----------------------------------------
	BYTE	W96
// 034   ----------------------------------------
	BYTE	W48
	BYTE		EOT   
	BYTE		TIE     En2 
	BYTE	W48
// 035   ----------------------------------------
	BYTE	W96
// 036   ----------------------------------------
	BYTE	W48
	BYTE		EOT   
	BYTE		TIE     Dn2 
	BYTE	W48
// 037   ----------------------------------------
	BYTE	W96
// 038   ----------------------------------------
	BYTE	W48
	BYTE		EOT   
	BYTE		N96     An2 
	BYTE	W48
// 039   ----------------------------------------
	BYTE	W48
	BYTE		        Cn3 
	BYTE	W48
// 040   ----------------------------------------
	BYTE	W48
	BYTE		TIE     Dn2 
	BYTE		TIE     Dn3 
	BYTE	W48
// 041   ----------------------------------------
	BYTE	W96
// 042   ----------------------------------------
	BYTE	W48
	BYTE		EOT     Dn2 
	BYTE		TIE     En2 
	BYTE		TIE     En3 
	BYTE	W12
	BYTE		EOT     Dn3 
	BYTE	W36
// 043   ----------------------------------------
	BYTE	W96
// 044   ----------------------------------------
	BYTE	W48
	BYTE		        En2 
	BYTE		        En3 
	BYTE		TIE     Fn2 
	BYTE		TIE     Fn3 
	BYTE	W48
// 045   ----------------------------------------
	BYTE	W96
// 046   ----------------------------------------
	BYTE	W48
	BYTE		EOT     Fn2 
	BYTE		        Fn3 
	BYTE	W48
// 047   ----------------------------------------
	BYTE	W96
// 048   ----------------------------------------
	BYTE	W48
	BYTE	GoTo
	 POIN2	Heathern_FINAL_8_B1
Heathern_FINAL_8_B2:
	BYTE	FINE

//**************** Track 9 (Midi-Chn.9) ****************//

Heathern_FINAL_9:
	BYTE	KEYSH   Heathern_FINAL_key+0
// 000   ----------------------------------------
	BYTE		VOICE   47
	BYTE		MODT    0
	BYTE		LFOS    44
	BYTE		PAN     c_v+2
	BYTE		VOL     105*Heathern_FINAL_mvl/mxv
	BYTE	W48
Heathern_FINAL_9_B1:
	BYTE	W48
// 001   ----------------------------------------
	BYTE	W96
// 002   ----------------------------------------
	BYTE	W96
// 003   ----------------------------------------
	BYTE	W96
// 004   ----------------------------------------
	BYTE	W96
// 005   ----------------------------------------
	BYTE	W96
// 006   ----------------------------------------
	BYTE	W96
// 007   ----------------------------------------
	BYTE	W96
// 008   ----------------------------------------
	BYTE	W48
	BYTE		N56     Dn3   v100
	BYTE	W48
// 009   ----------------------------------------
	BYTE	W96
// 010   ----------------------------------------
	BYTE	W96
// 011   ----------------------------------------
	BYTE	W96
// 012   ----------------------------------------
	BYTE	W24
	BYTE		N13     Cn3   v096
	BYTE	W24
	BYTE		N19     Dn3 
	BYTE	W48
// 013   ----------------------------------------
	BYTE	W96
// 014   ----------------------------------------
	BYTE	W96
// 015   ----------------------------------------
	BYTE	W96
// 016   ----------------------------------------
	BYTE	W96
// 017   ----------------------------------------
	BYTE	W96
// 018   ----------------------------------------
	BYTE	W96
// 019   ----------------------------------------
	BYTE	W96
// 020   ----------------------------------------
	BYTE	W96
// 021   ----------------------------------------
	BYTE	W96
// 022   ----------------------------------------
	BYTE	W96
// 023   ----------------------------------------
	BYTE	W96
// 024   ----------------------------------------
	BYTE	W48
	BYTE		N56     Dn3   v100
	BYTE	W48
// 025   ----------------------------------------
	BYTE	W96
// 026   ----------------------------------------
	BYTE	W96
// 027   ----------------------------------------
	BYTE	W96
// 028   ----------------------------------------
	BYTE	W96
// 029   ----------------------------------------
	BYTE	W96
// 030   ----------------------------------------
	BYTE	W96
// 031   ----------------------------------------
	BYTE	W96
// 032   ----------------------------------------
	BYTE	W96
// 033   ----------------------------------------
	BYTE	W96
// 034   ----------------------------------------
	BYTE	W96
// 035   ----------------------------------------
	BYTE	W96
// 036   ----------------------------------------
	BYTE	W96
// 037   ----------------------------------------
	BYTE	W96
// 038   ----------------------------------------
	BYTE	W96
// 039   ----------------------------------------
	BYTE	W96
// 040   ----------------------------------------
	BYTE	W96
// 041   ----------------------------------------
	BYTE	W96
// 042   ----------------------------------------
	BYTE	W96
// 043   ----------------------------------------
	BYTE	W96
// 044   ----------------------------------------
	BYTE	W96
// 045   ----------------------------------------
	BYTE	W96
// 046   ----------------------------------------
	BYTE	W96
// 047   ----------------------------------------
	BYTE	W96
// 048   ----------------------------------------
	BYTE	W48
	BYTE	GoTo
	 POIN2	Heathern_FINAL_9_B1
Heathern_FINAL_9_B2:
	BYTE	FINE

//**************** Track 10 (Midi-Chn.11) ****************//

Heathern_FINAL_10:
	BYTE	KEYSH   Heathern_FINAL_key+0
// 000   ----------------------------------------
	BYTE		VOICE   52
	BYTE		MODT    0
	BYTE		LFOS    44
	BYTE	W48
Heathern_FINAL_10_B1:
	BYTE		VOL     127*Heathern_FINAL_mvl/mxv
	BYTE	W48
// 001   ----------------------------------------
	BYTE	W96
// 002   ----------------------------------------
	BYTE	W96
// 003   ----------------------------------------
	BYTE	W96
// 004   ----------------------------------------
	BYTE	W96
// 005   ----------------------------------------
	BYTE	W96
// 006   ----------------------------------------
	BYTE	W96
// 007   ----------------------------------------
	BYTE	W96
// 008   ----------------------------------------
	BYTE	W96
// 009   ----------------------------------------
	BYTE	W96
// 010   ----------------------------------------
	BYTE	W96
// 011   ----------------------------------------
	BYTE	W96
// 012   ----------------------------------------
	BYTE	W96
// 013   ----------------------------------------
	BYTE	W96
// 014   ----------------------------------------
	BYTE	W96
// 015   ----------------------------------------
	BYTE	W96
// 016   ----------------------------------------
	BYTE		N48     Cn1   v088
	BYTE	W48
	BYTE		N12     Dn1 
	BYTE	W48
// 017   ----------------------------------------
	BYTE	W96
// 018   ----------------------------------------
	BYTE	W96
// 019   ----------------------------------------
	BYTE	W96
// 020   ----------------------------------------
	BYTE	W96
// 021   ----------------------------------------
	BYTE	W96
// 022   ----------------------------------------
	BYTE	W96
// 023   ----------------------------------------
	BYTE	W96
// 024   ----------------------------------------
	BYTE	W96
// 025   ----------------------------------------
	BYTE	W96
// 026   ----------------------------------------
	BYTE	W96
// 027   ----------------------------------------
	BYTE	W96
// 028   ----------------------------------------
	BYTE	W96
// 029   ----------------------------------------
	BYTE	W96
// 030   ----------------------------------------
	BYTE	W96
// 031   ----------------------------------------
	BYTE	W96
// 032   ----------------------------------------
	BYTE	W12
	BYTE		VOL     85*Heathern_FINAL_mvl/mxv
	BYTE	W36
	BYTE		TIE     Dn1   v060
	BYTE	W48
// 033   ----------------------------------------
	BYTE	W96
// 034   ----------------------------------------
	BYTE	W48
	BYTE		EOT   
	BYTE		TIE     En1 
	BYTE	W48
// 035   ----------------------------------------
	BYTE	W96
// 036   ----------------------------------------
	BYTE	W48
	BYTE		EOT   
	BYTE		TIE     Fn1 
	BYTE	W48
// 037   ----------------------------------------
	BYTE	W96
// 038   ----------------------------------------
	BYTE	W48
	BYTE		EOT   
	BYTE		N96     An1 
	BYTE	W48
// 039   ----------------------------------------
	BYTE	W48
	BYTE		        Cn2 
	BYTE	W48
// 040   ----------------------------------------
	BYTE	W48
	BYTE		TIE     Dn2 
	BYTE	W48
// 041   ----------------------------------------
	BYTE	W96
// 042   ----------------------------------------
	BYTE	W48
	BYTE		EOT   
	BYTE		TIE     En1 
	BYTE		TIE     En2 
	BYTE	W48
// 043   ----------------------------------------
	BYTE	W96
// 044   ----------------------------------------
	BYTE	W48
	BYTE		EOT     En1 
	BYTE		        En2 
	BYTE		TIE     Fn1 
	BYTE		TIE     Fn2 
	BYTE	W01
	BYTE		VOL     85*Heathern_FINAL_mvl/mxv
	BYTE	W09
	BYTE		        84*Heathern_FINAL_mvl/mxv
	BYTE	W02
	BYTE		        82*Heathern_FINAL_mvl/mxv
	BYTE	W03
	BYTE		        81*Heathern_FINAL_mvl/mxv
	BYTE	W02
	BYTE		        80*Heathern_FINAL_mvl/mxv
	BYTE	W01
	BYTE		        78*Heathern_FINAL_mvl/mxv
	BYTE	W02
	BYTE		        77*Heathern_FINAL_mvl/mxv
	BYTE	W02
	BYTE		        76*Heathern_FINAL_mvl/mxv
	BYTE	W01
	BYTE		        74*Heathern_FINAL_mvl/mxv
	BYTE	W02
	BYTE		        72*Heathern_FINAL_mvl/mxv
	BYTE	W02
	BYTE		        70*Heathern_FINAL_mvl/mxv
	BYTE	W02
	BYTE		        69*Heathern_FINAL_mvl/mxv
	BYTE	W01
	BYTE		        66*Heathern_FINAL_mvl/mxv
	BYTE	W02
	BYTE		        64*Heathern_FINAL_mvl/mxv
	BYTE	W16
// 045   ----------------------------------------
	BYTE	W03
	BYTE		        65*Heathern_FINAL_mvl/mxv
	BYTE	W14
	BYTE		        66*Heathern_FINAL_mvl/mxv
	BYTE	W12
	BYTE		        68*Heathern_FINAL_mvl/mxv
	BYTE	W06
	BYTE		        69*Heathern_FINAL_mvl/mxv
	BYTE	W09
	BYTE		        70*Heathern_FINAL_mvl/mxv
	BYTE	W05
	BYTE		        72*Heathern_FINAL_mvl/mxv
	BYTE	W07
	BYTE		        73*Heathern_FINAL_mvl/mxv
	BYTE	W05
	BYTE		        74*Heathern_FINAL_mvl/mxv
	BYTE	W05
	BYTE		        76*Heathern_FINAL_mvl/mxv
	BYTE	W05
	BYTE		        77*Heathern_FINAL_mvl/mxv
	BYTE	W06
	BYTE		        78*Heathern_FINAL_mvl/mxv
	BYTE	W03
	BYTE		        80*Heathern_FINAL_mvl/mxv
	BYTE	W05
	BYTE		        81*Heathern_FINAL_mvl/mxv
	BYTE	W03
	BYTE		        82*Heathern_FINAL_mvl/mxv
	BYTE	W04
	BYTE		        84*Heathern_FINAL_mvl/mxv
	BYTE	W03
	BYTE		        85*Heathern_FINAL_mvl/mxv
	BYTE	W01
// 046   ----------------------------------------
	BYTE	W03
	BYTE		        87*Heathern_FINAL_mvl/mxv
	BYTE	W05
	BYTE		        88*Heathern_FINAL_mvl/mxv
	BYTE	W02
	BYTE		        90*Heathern_FINAL_mvl/mxv
	BYTE	W05
	BYTE		        91*Heathern_FINAL_mvl/mxv
	BYTE	W01
	BYTE		        92*Heathern_FINAL_mvl/mxv
	BYTE	W04
	BYTE		        94*Heathern_FINAL_mvl/mxv
	BYTE	W03
	BYTE		        95*Heathern_FINAL_mvl/mxv
	BYTE	W04
	BYTE		        97*Heathern_FINAL_mvl/mxv
	BYTE	W01
	BYTE		        98*Heathern_FINAL_mvl/mxv
	BYTE	W04
	BYTE		        100*Heathern_FINAL_mvl/mxv
	BYTE	W02
	BYTE		        101*Heathern_FINAL_mvl/mxv
	BYTE	W03
	BYTE		        103*Heathern_FINAL_mvl/mxv
	BYTE	W03
	BYTE		        105*Heathern_FINAL_mvl/mxv
	BYTE	W02
	BYTE		        106*Heathern_FINAL_mvl/mxv
	BYTE	W04
	BYTE		        108*Heathern_FINAL_mvl/mxv
	BYTE	W01
	BYTE		        109*Heathern_FINAL_mvl/mxv
	BYTE	W04
	BYTE		        111*Heathern_FINAL_mvl/mxv
	BYTE	W01
	BYTE		        112*Heathern_FINAL_mvl/mxv
	BYTE	W02
	BYTE		EOT     Fn1 
	BYTE		        Fn2 
	BYTE	W24
	BYTE	W02
	BYTE		VOL     85*Heathern_FINAL_mvl/mxv
	BYTE	W16
// 047   ----------------------------------------
	BYTE		N48     Cn1 
	BYTE		N48     Cn2 
	BYTE	W48
	BYTE		        Dn1 
	BYTE		N48     Dn2 
	BYTE	W48
// 048   ----------------------------------------
	BYTE	W48
	BYTE	GoTo
	 POIN2	Heathern_FINAL_10_B1
Heathern_FINAL_10_B2:
	BYTE	FINE

//**************** Track 11 (Midi-Chn.12) ****************//

Heathern_FINAL_11:
	BYTE	KEYSH   Heathern_FINAL_key+0
// 000   ----------------------------------------
	BYTE		VOICE   63
	BYTE		MODT    0
	BYTE		LFOS    44
	BYTE		VOL     78*Heathern_FINAL_mvl/mxv
	BYTE		PAN     c_v+8
	BYTE	W48
Heathern_FINAL_11_B1:
	BYTE	W48
// 001   ----------------------------------------
	BYTE	W96
// 002   ----------------------------------------
	BYTE	W96
// 003   ----------------------------------------
	BYTE	W96
// 004   ----------------------------------------
	BYTE	W96
// 005   ----------------------------------------
	BYTE	W96
// 006   ----------------------------------------
	BYTE	W96
// 007   ----------------------------------------
	BYTE	W96
// 008   ----------------------------------------
	BYTE	W48
	BYTE		N12     Dn4   v048
	BYTE	W12
	BYTE		        En4 
	BYTE	W12
	BYTE		        Fn4 
	BYTE	W12
	BYTE		        Gn4 
	BYTE	W12
// 009   ----------------------------------------
	BYTE		        An4 
	BYTE	W12
	BYTE		        Gn4 
	BYTE	W12
	BYTE		        Fn4 
	BYTE	W12
	BYTE		        En4 
	BYTE	W12
	BYTE		N72     Dn4 
	BYTE	W48
// 010   ----------------------------------------
	BYTE	W24
	BYTE		TIE     Cn5 
	BYTE	W72
// 011   ----------------------------------------
	BYTE	W48
	BYTE		EOT   
	BYTE		N96     An4 
	BYTE	W48
// 012   ----------------------------------------
	BYTE	W48
	BYTE		TIE     Dn4 
	BYTE	W48
// 013   ----------------------------------------
	BYTE	W96
// 014   ----------------------------------------
	BYTE	W36
	BYTE		EOT   
	BYTE	W12
	BYTE		N12   
	BYTE	W12
	BYTE		        En4 
	BYTE	W12
	BYTE		        Fn4 
	BYTE	W12
	BYTE		        Gn4 
	BYTE	W12
// 015   ----------------------------------------
	BYTE		        An4 
	BYTE	W12
	BYTE		        Gn4 
	BYTE	W12
	BYTE		        Fn4 
	BYTE	W12
	BYTE		        En4 
	BYTE	W12
	BYTE		N48     Dn4 
	BYTE	W48
// 016   ----------------------------------------
	BYTE		        Cn4 
	BYTE	W48
	BYTE		N12     Dn3   v088
	BYTE	W48
// 017   ----------------------------------------
	BYTE	W96
// 018   ----------------------------------------
	BYTE	W96
// 019   ----------------------------------------
	BYTE	W96
// 020   ----------------------------------------
	BYTE	W96
// 021   ----------------------------------------
	BYTE	W96
// 022   ----------------------------------------
	BYTE	W96
// 023   ----------------------------------------
	BYTE	W96
// 024   ----------------------------------------
	BYTE	W96
// 025   ----------------------------------------
	BYTE	W96
// 026   ----------------------------------------
	BYTE	W24
	BYTE		N24     Cn3   v044
	BYTE	W24
	BYTE		N16     Dn3 
	BYTE	W48
// 027   ----------------------------------------
	BYTE	W96
// 028   ----------------------------------------
	BYTE		N48     Cn3 
	BYTE	W48
	BYTE		N16     Dn3 
	BYTE	W48
// 029   ----------------------------------------
	BYTE	W96
// 030   ----------------------------------------
	BYTE	W96
// 031   ----------------------------------------
	BYTE	W96
// 032   ----------------------------------------
	BYTE	W48
	BYTE		N24     Dn4   v064
	BYTE	W24
	BYTE		        An3 
	BYTE	W24
// 033   ----------------------------------------
	BYTE		        Gn3 
	BYTE	W24
	BYTE		        Fn3 
	BYTE	W24
	BYTE		        Gn3 
	BYTE	W24
	BYTE		N12     An4 
	BYTE	W24
// 034   ----------------------------------------
	BYTE		N12   
	BYTE	W24
	BYTE		N12   
	BYTE	W24
	BYTE		N24     Dn4 
	BYTE	W24
	BYTE		        An3 
	BYTE	W24
// 035   ----------------------------------------
	BYTE		        Gn3 
	BYTE	W24
	BYTE		        Fn3 
	BYTE	W24
	BYTE		N12     Gn3 
	BYTE	W24
	BYTE		        Dn3 
	BYTE	W24
// 036   ----------------------------------------
	BYTE		N12   
	BYTE	W24
	BYTE		N12   
	BYTE	W24
	BYTE		N24     Dn4 
	BYTE	W24
	BYTE		        An3 
	BYTE	W24
// 037   ----------------------------------------
	BYTE		        Gn3 
	BYTE	W24
	BYTE		        Fn3 
	BYTE	W24
	BYTE		N12     Gn3 
	BYTE	W24
	BYTE		        An4 
	BYTE	W24
// 038   ----------------------------------------
	BYTE		N12   
	BYTE	W24
	BYTE		N12   
	BYTE	W24
	BYTE		N24     Dn4 
	BYTE		N24     Dn5 
	BYTE	W24
	BYTE		        An3 
	BYTE		N24     An4 
	BYTE	W24
// 039   ----------------------------------------
	BYTE		        Gn3 
	BYTE		N24     Gn4 
	BYTE	W24
	BYTE		        Fn3 
	BYTE		N24     Fn4 
	BYTE	W24
	BYTE		N48   
	BYTE		N48     Fn5 
	BYTE	W48
// 040   ----------------------------------------
	BYTE		        En4 
	BYTE		N48     En5 
	BYTE	W48
	BYTE		N24     Dn4 
	BYTE		N24     Dn5 
	BYTE	W24
	BYTE		        An3 
	BYTE		N24     An4 
	BYTE	W24
// 041   ----------------------------------------
	BYTE		        Gn3 
	BYTE		N24     Gn4 
	BYTE	W24
	BYTE		        Fn3 
	BYTE		N24     Fn4 
	BYTE	W24
	BYTE		        Gn3 
	BYTE		N24     Gn4 
	BYTE	W24
	BYTE		N12     An4 
	BYTE		N12     An5 
	BYTE	W24
// 042   ----------------------------------------
Heathern_FINAL_11_042:
	BYTE		N12     An4   v064
	BYTE		N12     An5 
	BYTE	W24
	BYTE		        An4 
	BYTE		N12     An5 
	BYTE	W24
	BYTE		N24     Dn4 
	BYTE		N24     Dn5 
	BYTE	W24
	BYTE		        An3 
	BYTE		N24     An4 
	BYTE	W24
	BYTE	PEND
// 043   ----------------------------------------
	BYTE		        Gn3 
	BYTE		N24     Gn4 
	BYTE	W24
	BYTE		        Fn3 
	BYTE		N24     Fn4 
	BYTE	W24
	BYTE		N12     Gn3 
	BYTE		N12     Gn4 
	BYTE	W24
	BYTE		        Dn3 
	BYTE		N12     Dn4 
	BYTE	W24
// 044   ----------------------------------------
	BYTE		        Dn3 
	BYTE		N12     Dn4 
	BYTE	W24
	BYTE		        Dn3 
	BYTE		N12     Dn4 
	BYTE	W24
	BYTE		N24   
	BYTE		N24     Dn5 
	BYTE	W24
	BYTE		        An3 
	BYTE		N24     An4 
	BYTE	W24
// 045   ----------------------------------------
	BYTE		        Gn3 
	BYTE		N24     Gn4 
	BYTE	W24
	BYTE		        Fn3 
	BYTE		N24     Fn4 
	BYTE	W24
	BYTE		N12     Gn3 
	BYTE		N12     Gn4 
	BYTE	W24
	BYTE		        An4 
	BYTE		N12     An5 
	BYTE	W24
// 046   ----------------------------------------
	BYTE	PATT
	 POIN2	Heathern_FINAL_11_042
// 047   ----------------------------------------
	BYTE		N24     Gn3   v064
	BYTE		N24     Gn4 
	BYTE	W24
	BYTE		        En3 
	BYTE		N24     En4 
	BYTE	W24
	BYTE		N48     Dn3 
	BYTE		N48     Dn4 
	BYTE	W48
// 048   ----------------------------------------
	BYTE	W48
	BYTE	GoTo
	 POIN2	Heathern_FINAL_11_B1
Heathern_FINAL_11_B2:
	BYTE	FINE

//**************** Track 12 (Midi-Chn.13) ****************//

Heathern_FINAL_12:
	BYTE	KEYSH   Heathern_FINAL_key+0
// 000   ----------------------------------------
	BYTE		VOICE   40
	BYTE		MODT    0
	BYTE		LFOS    44
	BYTE		VOL     124*Heathern_FINAL_mvl/mxv
	BYTE	W48
Heathern_FINAL_12_B1:
	BYTE		N36     Dn3   v056
	BYTE	W36
	BYTE		N12     An3 
	BYTE	W12
// 001   ----------------------------------------
	BYTE		N96     Gn3 
	BYTE	W96
// 002   ----------------------------------------
Heathern_FINAL_12_002:
	BYTE		N12     Cn4   v056
	BYTE	W48
	BYTE		N36     Dn3 
	BYTE	W36
	BYTE		N12     An3 
	BYTE	W12
	BYTE	PEND
// 003   ----------------------------------------
	BYTE		N96     Gn3 
	BYTE	W96
// 004   ----------------------------------------
	BYTE	PATT
	 POIN2	Heathern_FINAL_12_002
// 005   ----------------------------------------
	BYTE		N96     Gn3   v056
	BYTE	W96
// 006   ----------------------------------------
Heathern_FINAL_12_006:
	BYTE		N12     Cn4   v056
	BYTE	W48
	BYTE		N36     As2 
	BYTE	W36
	BYTE		N12     Fn3 
	BYTE	W12
	BYTE	PEND
// 007   ----------------------------------------
	BYTE		N96     En3 
	BYTE	W96
// 008   ----------------------------------------
	BYTE		N36     Cn3 
	BYTE	W48
	BYTE		        Dn3 
	BYTE	W36
	BYTE		N12     An3 
	BYTE	W12
// 009   ----------------------------------------
	BYTE		N96     Gn3 
	BYTE	W96
// 010   ----------------------------------------
	BYTE	PATT
	 POIN2	Heathern_FINAL_12_002
// 011   ----------------------------------------
	BYTE		N96     Gn3   v056
	BYTE	W96
// 012   ----------------------------------------
	BYTE	PATT
	 POIN2	Heathern_FINAL_12_002
// 013   ----------------------------------------
	BYTE		N96     Gn3   v056
	BYTE	W96
// 014   ----------------------------------------
	BYTE	PATT
	 POIN2	Heathern_FINAL_12_006
// 015   ----------------------------------------
	BYTE		N96     En3   v056
	BYTE	W96
// 016   ----------------------------------------
	BYTE		N36     Cn3 
	BYTE	W96
// 017   ----------------------------------------
	BYTE	W96
// 018   ----------------------------------------
	BYTE	W96
// 019   ----------------------------------------
	BYTE	W96
// 020   ----------------------------------------
	BYTE	W96
// 021   ----------------------------------------
	BYTE	W96
// 022   ----------------------------------------
	BYTE	W96
// 023   ----------------------------------------
	BYTE	W96
// 024   ----------------------------------------
	BYTE	W96
// 025   ----------------------------------------
	BYTE	W96
// 026   ----------------------------------------
	BYTE	W96
// 027   ----------------------------------------
	BYTE	W96
// 028   ----------------------------------------
	BYTE	W96
// 029   ----------------------------------------
	BYTE	W96
// 030   ----------------------------------------
	BYTE	W96
// 031   ----------------------------------------
	BYTE	W96
// 032   ----------------------------------------
	BYTE	W96
// 033   ----------------------------------------
	BYTE	W96
// 034   ----------------------------------------
	BYTE	W96
// 035   ----------------------------------------
	BYTE	W96
// 036   ----------------------------------------
	BYTE	W96
// 037   ----------------------------------------
	BYTE	W96
// 038   ----------------------------------------
	BYTE	W96
// 039   ----------------------------------------
	BYTE	W96
// 040   ----------------------------------------
	BYTE	W96
// 041   ----------------------------------------
	BYTE	W96
// 042   ----------------------------------------
	BYTE	W96
// 043   ----------------------------------------
	BYTE	W96
// 044   ----------------------------------------
	BYTE	W96
// 045   ----------------------------------------
	BYTE	W96
// 046   ----------------------------------------
	BYTE	W96
// 047   ----------------------------------------
	BYTE	W96
// 048   ----------------------------------------
	BYTE	W48
	BYTE	GoTo
	 POIN2	Heathern_FINAL_12_B1
Heathern_FINAL_12_B2:
	BYTE	FINE

//**************** Track 13 (Midi-Chn.14) ****************//

Heathern_FINAL_13:
	BYTE	KEYSH   Heathern_FINAL_key+0
// 000   ----------------------------------------
	BYTE		VOICE   57
	BYTE		MODT    0
	BYTE		LFOS    44
	BYTE		PAN     c_v-13
	BYTE		VOL     127*Heathern_FINAL_mvl/mxv
	BYTE	W48
Heathern_FINAL_13_B1:
	BYTE		N36     Dn2   v060
	BYTE	W36
	BYTE		N12     An2 
	BYTE	W12
// 001   ----------------------------------------
	BYTE		N96     Gn2 
	BYTE	W96
// 002   ----------------------------------------
Heathern_FINAL_13_002:
	BYTE		N12     Cn3   v060
	BYTE	W48
	BYTE		N36     Dn2 
	BYTE	W36
	BYTE		N12     An2 
	BYTE	W12
	BYTE	PEND
// 003   ----------------------------------------
	BYTE		N96     Gn2 
	BYTE	W96
// 004   ----------------------------------------
	BYTE	PATT
	 POIN2	Heathern_FINAL_13_002
// 005   ----------------------------------------
	BYTE		N96     Gn2   v060
	BYTE	W96
// 006   ----------------------------------------
	BYTE		N12     Cn3 
	BYTE	W48
	BYTE		N36     As1 
	BYTE	W36
	BYTE		N12     Fn2 
	BYTE	W12
// 007   ----------------------------------------
	BYTE		N96     En2 
	BYTE	W96
// 008   ----------------------------------------
	BYTE		N36     Cn2 
	BYTE	W48
	BYTE		        Dn2 
	BYTE	W36
	BYTE		N12     An2 
	BYTE	W12
// 009   ----------------------------------------
	BYTE		N96     Gn2 
	BYTE	W96
// 010   ----------------------------------------
	BYTE	PATT
	 POIN2	Heathern_FINAL_13_002
// 011   ----------------------------------------
	BYTE		N96     Gn2   v060
	BYTE	W96
// 012   ----------------------------------------
Heathern_FINAL_13_012:
	BYTE		N12     Cn3   v064
	BYTE	W48
	BYTE		N36     Dn2 
	BYTE	W36
	BYTE		N12     An2 
	BYTE	W12
	BYTE	PEND
// 013   ----------------------------------------
	BYTE		N96     Gn2 
	BYTE	W96
// 014   ----------------------------------------
	BYTE		N12     Cn3 
	BYTE	W48
	BYTE		N36     As1 
	BYTE	W36
	BYTE		N12     Fn2 
	BYTE	W12
// 015   ----------------------------------------
	BYTE		N96     En2 
	BYTE	W96
// 016   ----------------------------------------
	BYTE		N36     Cn2 
	BYTE	W96
// 017   ----------------------------------------
	BYTE	W96
// 018   ----------------------------------------
	BYTE	W96
// 019   ----------------------------------------
	BYTE	W96
// 020   ----------------------------------------
	BYTE	W96
// 021   ----------------------------------------
	BYTE	W96
// 022   ----------------------------------------
	BYTE	W96
// 023   ----------------------------------------
	BYTE	W96
// 024   ----------------------------------------
	BYTE	W96
// 025   ----------------------------------------
	BYTE	W96
// 026   ----------------------------------------
	BYTE	W96
// 027   ----------------------------------------
	BYTE	W96
// 028   ----------------------------------------
	BYTE	W96
// 029   ----------------------------------------
	BYTE	W96
// 030   ----------------------------------------
	BYTE	W48
	BYTE		        As1   v056
	BYTE	W36
	BYTE		N12     Fn2 
	BYTE	W12
// 031   ----------------------------------------
	BYTE		N96     En2 
	BYTE	W96
// 032   ----------------------------------------
	BYTE		N36     Cn2 
	BYTE	W48
	BYTE		        Dn2   v060
	BYTE	W36
	BYTE		N12     An2 
	BYTE	W12
// 033   ----------------------------------------
	BYTE		N96     Gn2 
	BYTE	W96
// 034   ----------------------------------------
Heathern_FINAL_13_034:
	BYTE		N12     Cn3   v060
	BYTE	W48
	BYTE		N36     Cn2 
	BYTE	W36
	BYTE		N12     An2 
	BYTE	W12
	BYTE	PEND
// 035   ----------------------------------------
	BYTE		N96     Gn2 
	BYTE	W96
// 036   ----------------------------------------
	BYTE	PATT
	 POIN2	Heathern_FINAL_13_012
// 037   ----------------------------------------
	BYTE		N96     Gn2   v064
	BYTE	W96
// 038   ----------------------------------------
	BYTE		N12     Cn3 
	BYTE	W48
	BYTE		N48     An2 
	BYTE	W48
// 039   ----------------------------------------
	BYTE		        Gn2 
	BYTE	W48
	BYTE		        Fn2 
	BYTE	W48
// 040   ----------------------------------------
	BYTE		        En2 
	BYTE	W48
	BYTE		N36     Dn2   v060
	BYTE	W36
	BYTE		N12     An2 
	BYTE	W12
// 041   ----------------------------------------
	BYTE		N96     Gn2 
	BYTE	W96
// 042   ----------------------------------------
	BYTE	PATT
	 POIN2	Heathern_FINAL_13_034
// 043   ----------------------------------------
	BYTE		N96     Gn2   v060
	BYTE	W96
// 044   ----------------------------------------
	BYTE	PATT
	 POIN2	Heathern_FINAL_13_012
// 045   ----------------------------------------
	BYTE		N96     Gn2   v064
	BYTE	W96
// 046   ----------------------------------------
	BYTE		N12     Cn3 
	BYTE	W48
	BYTE		N48     Gn2 
	BYTE	W48
// 047   ----------------------------------------
	BYTE		        En2 
	BYTE	W48
	BYTE		        Dn2 
	BYTE	W48
// 048   ----------------------------------------
	BYTE	W48
	BYTE	GoTo
	 POIN2	Heathern_FINAL_13_B1
Heathern_FINAL_13_B2:
	BYTE	FINE

//**************** Track 14 (Midi-Chn.15) ****************//

Heathern_FINAL_14:
	BYTE	KEYSH   Heathern_FINAL_key+0
// 000   ----------------------------------------
	BYTE		VOICE   11
	BYTE		MODT    0
	BYTE		LFOS    44
	BYTE		PAN     c_v-8
	BYTE		VOL     122*Heathern_FINAL_mvl/mxv
	BYTE	W48
Heathern_FINAL_14_B1:
	BYTE	W48
// 001   ----------------------------------------
	BYTE	W96
// 002   ----------------------------------------
	BYTE	W96
// 003   ----------------------------------------
	BYTE	W96
// 004   ----------------------------------------
	BYTE	W96
// 005   ----------------------------------------
	BYTE	W96
// 006   ----------------------------------------
	BYTE	W96
// 007   ----------------------------------------
	BYTE	W96
// 008   ----------------------------------------
	BYTE	W48
	BYTE		N12     Dn4   v048
	BYTE	W12
	BYTE		        En4 
	BYTE	W12
	BYTE		        Fn4 
	BYTE	W12
	BYTE		        Gn4 
	BYTE	W12
// 009   ----------------------------------------
Heathern_FINAL_14_009:
	BYTE		N12     An4   v048
	BYTE	W12
	BYTE		        Gn4 
	BYTE	W12
	BYTE		        Fn4 
	BYTE	W12
	BYTE		        En4 
	BYTE	W12
	BYTE		N72     Dn4 
	BYTE	W48
	BYTE	PEND
// 010   ----------------------------------------
Heathern_FINAL_14_010:
	BYTE	W24
	BYTE		TIE     Cn5   v048
	BYTE	W72
	BYTE	PEND
// 011   ----------------------------------------
	BYTE	W48
	BYTE		EOT   
	BYTE		N96     An4 
	BYTE	W48
// 012   ----------------------------------------
Heathern_FINAL_14_012:
	BYTE	W48
	BYTE		TIE     Dn4   v048
	BYTE	W48
	BYTE	PEND
// 013   ----------------------------------------
	BYTE	W96
// 014   ----------------------------------------
	BYTE	W36
	BYTE		EOT   
	BYTE	W12
	BYTE		N12   
	BYTE	W12
	BYTE		        En4 
	BYTE	W12
	BYTE		        Fn4 
	BYTE	W12
	BYTE		        Gn4 
	BYTE	W12
// 015   ----------------------------------------
Heathern_FINAL_14_015:
	BYTE		N12     An4   v048
	BYTE	W12
	BYTE		        Gn4 
	BYTE	W12
	BYTE		        Fn4 
	BYTE	W12
	BYTE		        En4 
	BYTE	W12
	BYTE		N48     Dn4 
	BYTE	W48
	BYTE	PEND
// 016   ----------------------------------------
	BYTE		        Cn4 
	BYTE	W48
	BYTE		N12     Dn4 
	BYTE	W12
	BYTE		        En4 
	BYTE	W12
	BYTE		        Fn4 
	BYTE	W12
	BYTE		        Gn4 
	BYTE	W12
// 017   ----------------------------------------
	BYTE	PATT
	 POIN2	Heathern_FINAL_14_009
// 018   ----------------------------------------
	BYTE	PATT
	 POIN2	Heathern_FINAL_14_010
// 019   ----------------------------------------
	BYTE	W48
	BYTE		EOT     Cn5 
	BYTE		N96     An4   v048
	BYTE	W48
// 020   ----------------------------------------
	BYTE	PATT
	 POIN2	Heathern_FINAL_14_012
// 021   ----------------------------------------
	BYTE	W96
// 022   ----------------------------------------
	BYTE	W36
	BYTE		EOT     Dn4 
	BYTE	W12
	BYTE		N12     Dn4   v048
	BYTE	W12
	BYTE		        En4 
	BYTE	W12
	BYTE		        Fn4 
	BYTE	W12
	BYTE		        Gn4 
	BYTE	W12
// 023   ----------------------------------------
	BYTE	PATT
	 POIN2	Heathern_FINAL_14_015
// 024   ----------------------------------------
	BYTE		N48     Cn4   v048
	BYTE	W48
	BYTE		N12     Dn4 
	BYTE	W48
// 025   ----------------------------------------
	BYTE	W96
// 026   ----------------------------------------
	BYTE	W96
// 027   ----------------------------------------
	BYTE	W96
// 028   ----------------------------------------
	BYTE	W96
// 029   ----------------------------------------
	BYTE	W96
// 030   ----------------------------------------
	BYTE	W96
// 031   ----------------------------------------
	BYTE	W96
// 032   ----------------------------------------
	BYTE	W96
// 033   ----------------------------------------
	BYTE	W96
// 034   ----------------------------------------
	BYTE	W96
// 035   ----------------------------------------
	BYTE	W96
// 036   ----------------------------------------
	BYTE	W96
// 037   ----------------------------------------
	BYTE	W96
// 038   ----------------------------------------
	BYTE	W96
// 039   ----------------------------------------
	BYTE	W96
// 040   ----------------------------------------
	BYTE	W96
// 041   ----------------------------------------
	BYTE	W96
// 042   ----------------------------------------
	BYTE	W96
// 043   ----------------------------------------
	BYTE	W96
// 044   ----------------------------------------
	BYTE	W96
// 045   ----------------------------------------
	BYTE	W96
// 046   ----------------------------------------
	BYTE	W96
// 047   ----------------------------------------
	BYTE	W96
// 048   ----------------------------------------
	BYTE	W48
	BYTE	GoTo
	 POIN2	Heathern_FINAL_14_B1
Heathern_FINAL_14_B2:
	BYTE	FINE

//**************** Track 15 (Midi-Chn.16) ****************//

Heathern_FINAL_15:
	BYTE	KEYSH   Heathern_FINAL_key+0
// 000   ----------------------------------------
	BYTE		VOICE   47
	BYTE		MODT    0
	BYTE		LFOS    44
	BYTE		PAN     c_v-2
	BYTE		VOL     50*Heathern_FINAL_mvl/mxv
	BYTE		N08     Dn2   v124
	BYTE	W24
	BYTE		N11   
	BYTE	W24
Heathern_FINAL_15_B1:
	BYTE		N12     Dn3   v124
	BYTE	W36
	BYTE		N12   
	BYTE	W12
// 001   ----------------------------------------
Heathern_FINAL_15_001:
	BYTE	W24
	BYTE		N12     Dn3   v124
	BYTE	W24
	BYTE		N12   
	BYTE	W24
	BYTE		N12   
	BYTE	W24
	BYTE	PEND
// 002   ----------------------------------------
Heathern_FINAL_15_002:
	BYTE	W24
	BYTE		N12     Dn3   v124
	BYTE	W24
	BYTE		N12   
	BYTE	W36
	BYTE		N12   
	BYTE	W12
	BYTE	PEND
// 003   ----------------------------------------
	BYTE	PATT
	 POIN2	Heathern_FINAL_15_001
// 004   ----------------------------------------
	BYTE	PATT
	 POIN2	Heathern_FINAL_15_002
// 005   ----------------------------------------
	BYTE	PATT
	 POIN2	Heathern_FINAL_15_001
// 006   ----------------------------------------
	BYTE	PATT
	 POIN2	Heathern_FINAL_15_002
// 007   ----------------------------------------
	BYTE	PATT
	 POIN2	Heathern_FINAL_15_001
// 008   ----------------------------------------
	BYTE		N12     Dn3   v127
	BYTE	W12
	BYTE		N12   
	BYTE	W12
	BYTE		N12   
	BYTE	W72
// 009   ----------------------------------------
	BYTE	W96
// 010   ----------------------------------------
	BYTE	W96
// 011   ----------------------------------------
	BYTE	W96
// 012   ----------------------------------------
	BYTE	W96
// 013   ----------------------------------------
	BYTE	W96
// 014   ----------------------------------------
	BYTE	W96
// 015   ----------------------------------------
	BYTE	W96
// 016   ----------------------------------------
	BYTE	W48
	BYTE		        Dn3   v124
	BYTE	W36
	BYTE		N12   
	BYTE	W12
// 017   ----------------------------------------
	BYTE	PATT
	 POIN2	Heathern_FINAL_15_001
// 018   ----------------------------------------
	BYTE	W24
	BYTE		N12     Dn3   v124
	BYTE	W24
	BYTE		N12   
	BYTE	W48
// 019   ----------------------------------------
	BYTE		N12   
	BYTE	W24
	BYTE		N12   
	BYTE	W24
	BYTE		N12   
	BYTE	W24
	BYTE		N12   
	BYTE	W24
// 020   ----------------------------------------
	BYTE	PATT
	 POIN2	Heathern_FINAL_15_002
// 021   ----------------------------------------
	BYTE	PATT
	 POIN2	Heathern_FINAL_15_001
// 022   ----------------------------------------
	BYTE	PATT
	 POIN2	Heathern_FINAL_15_002
// 023   ----------------------------------------
	BYTE	PATT
	 POIN2	Heathern_FINAL_15_001
// 024   ----------------------------------------
	BYTE		N12     Dn3   v127
	BYTE	W12
	BYTE		N12   
	BYTE	W12
	BYTE		N12   
	BYTE	W24
	BYTE		        Dn3   v124
	BYTE	W36
	BYTE		N12   
	BYTE	W12
// 025   ----------------------------------------
	BYTE	W24
	BYTE		N12   
	BYTE	W24
	BYTE		N12   
	BYTE	W24
	BYTE		N12   
	BYTE		N06     An4   v064
	BYTE	W12
	BYTE		N09     An5 
	BYTE	W12
// 026   ----------------------------------------
	BYTE	W12
	BYTE		N07     Fn5 
	BYTE	W12
	BYTE		N12     Dn3   v124
	BYTE	W12
	BYTE		N05     Dn5   v064
	BYTE	W12
	BYTE		N12     Dn3   v124
	BYTE		N07     An4   v064
	BYTE	W36
	BYTE		N12     Dn3   v124
	BYTE	W12
// 027   ----------------------------------------
	BYTE	W24
	BYTE		N12   
	BYTE	W24
	BYTE		N12   
	BYTE	W24
	BYTE		N12   
	BYTE		N05     An5   v064
	BYTE	W12
	BYTE		N07   
	BYTE	W12
// 028   ----------------------------------------
	BYTE	W12
	BYTE		        Fn5 
	BYTE	W12
	BYTE		N12     Dn3   v124
	BYTE	W12
	BYTE		N06     Dn5   v064
	BYTE	W12
	BYTE		N12     Dn3   v124
	BYTE		N13     An4   v064
	BYTE	W36
	BYTE		N12     Dn3   v124
	BYTE	W12
// 029   ----------------------------------------
	BYTE	W24
	BYTE		N12   
	BYTE	W24
	BYTE		N12   
	BYTE		N05     Dn5   v064
	BYTE	W12
	BYTE		N04   
	BYTE	W12
	BYTE		N12     Dn3   v124
	BYTE		N05     Dn5   v064
	BYTE	W12
	BYTE		N08     An5 
	BYTE	W12
// 030   ----------------------------------------
	BYTE	W12
	BYTE		N12   
	BYTE	W12
	BYTE		        Dn3   v124
	BYTE	W12
	BYTE		N08     An5   v068
	BYTE	W12
	BYTE		N12     Dn3   v124
	BYTE	W12
	BYTE		N09     An5   v068
	BYTE	W24
	BYTE		N12     Dn3   v124
	BYTE		N11     An5   v068
	BYTE	W12
// 031   ----------------------------------------
	BYTE	W12
	BYTE		N10   
	BYTE	W12
	BYTE		N12     Dn3   v124
	BYTE	W12
	BYTE		        An5   v068
	BYTE	W12
	BYTE		        Dn3   v124
	BYTE	W12
	BYTE		N11     An5   v068
	BYTE	W24
	BYTE		N05     Dn5 
	BYTE	W12
// 032   ----------------------------------------
	BYTE		N09   
	BYTE	W24
	BYTE		N05   
	BYTE	W72
// 033   ----------------------------------------
	BYTE	W96
// 034   ----------------------------------------
	BYTE	W96
// 035   ----------------------------------------
	BYTE	W96
// 036   ----------------------------------------
	BYTE	W96
// 037   ----------------------------------------
	BYTE	W96
// 038   ----------------------------------------
	BYTE	W96
// 039   ----------------------------------------
	BYTE	W96
// 040   ----------------------------------------
	BYTE	W96
// 041   ----------------------------------------
	BYTE	W96
// 042   ----------------------------------------
	BYTE	W96
// 043   ----------------------------------------
	BYTE	W96
// 044   ----------------------------------------
	BYTE	W96
// 045   ----------------------------------------
	BYTE	W96
// 046   ----------------------------------------
	BYTE	W96
// 047   ----------------------------------------
	BYTE	W96
// 048   ----------------------------------------
	BYTE	W48
	BYTE	GoTo
	 POIN2	Heathern_FINAL_15_B1
Heathern_FINAL_15_B2:
	BYTE	FINE

//******************************************************//
	ALIGN 4

Heathern_FINAL:
	BYTE	15	// NumTrks
	BYTE	0	// NumBlks
	BYTE	Heathern_FINAL_pri	// Priority
	BYTE	Heathern_FINAL_rev	// Reverb.

	POIN2	Heathern_FINAL_grp

	POIN2	Heathern_FINAL_1
	POIN2	Heathern_FINAL_2
	POIN2	Heathern_FINAL_3
	POIN2	Heathern_FINAL_4
	POIN2	Heathern_FINAL_5
	POIN2	Heathern_FINAL_6
	POIN2	Heathern_FINAL_7
	POIN2	Heathern_FINAL_8
	POIN2	Heathern_FINAL_9
	POIN2	Heathern_FINAL_10
	POIN2	Heathern_FINAL_11
	POIN2	Heathern_FINAL_12
	POIN2	Heathern_FINAL_13
	POIN2	Heathern_FINAL_14
	POIN2	Heathern_FINAL_15

	
