//Event file generated from Sappy .s format.
	#include "MPlayDef.event"

	#define	Uncontrollable_grp  voicegroup000
	#define	Uncontrollable_pri  0
	#define	Uncontrollable_rev  0
	#define	Uncontrollable_mvl  127
	#define	Uncontrollable_key  0
	#define	Uncontrollable_tbs  1
	#define	Uncontrollable_exg  0
	#define	Uncontrollable_cmp  1

	// .rodata
	//	Uncontrollable
	ALIGN 4


//**************** Track 1 (Midi-Chn.0) ****************//

Uncontrollable_001:
//  #01 //000   ----------------------------------------
 BYTE   KEYSH   Uncontrollable_key+0
 BYTE   TEMPO   138*Uncontrollable_tbs/2
 BYTE   VOICE   29
 BYTE   VOL   32*Uncontrollable_mvl/mxv
 BYTE   PAN   c_v+0
 BYTE   N11  En2  v127
 BYTE   N11  En3
 BYTE   W12
 BYTE   Fs2
 BYTE   N11  Fs3
 BYTE   W12
 BYTE   N23  Gn2
 BYTE   N23  Gn3
 BYTE   W24
 BYTE   Gn2  v096
 BYTE   N23  Gn3
 BYTE   W24
 BYTE   N32  En2
 BYTE   N32  En3
 BYTE   W24
//  #01 //001   ----------------------------------------
Label_0100E6FB:
 BYTE   W12
 BYTE   N23  Bn2  v096
 BYTE   N23  Gn3
 BYTE   W24
 BYTE   N68  Dn3
 BYTE   N68  Dn4
 BYTE   W60
 BYTE   PEND 
//  #01 //002   ----------------------------------------
Label_0100E708:
 BYTE   W12
 BYTE   N11  En2  v096
 BYTE   N11  En3
 BYTE   W12
 BYTE   Fs2
 BYTE   N11  Fs3
 BYTE   W12
 BYTE   Gn2
 BYTE   N11  Gn3
 BYTE   W12
 BYTE   N32  Bn2
 BYTE   N32  Bn3
 BYTE   W36
 BYTE   N23  Gn2
 BYTE   N23  Gn3
 BYTE   W12
 BYTE   PEND 
//  #01 //003   ----------------------------------------
Label_0100E722:
 BYTE   W12
 BYTE   N23  En2  v096
 BYTE   N23  En3
 BYTE   W24
 BYTE   N68  Dn3
 BYTE   N68  Dn4
 BYTE   W60
 BYTE   PEND 
//  #01 //004   ----------------------------------------
Label_0100E72F:
 BYTE   W12
 BYTE   N11  En2  v096
 BYTE   N11  En3
 BYTE   W12
 BYTE   Fs2
 BYTE   N11  Fs3
 BYTE   W12
 BYTE   Gn2
 BYTE   N11  Gn3
 BYTE   W12
 BYTE   N32  Gn2
 BYTE   N32  Gn3
 BYTE   W36
 BYTE   En2
 BYTE   N32  En3
 BYTE   W12
 BYTE   PEND 
//  #01 //005   ----------------------------------------
Label_0100E748:
 BYTE   W24
 BYTE   N23  Fs2  v096
 BYTE   N23  Fs3
 BYTE   W24
 BYTE   N32  Gn2
 BYTE   N32  Gn3
 BYTE   W36
 BYTE   En2
 BYTE   N32  En3
 BYTE   W12
 BYTE   PEND 
//  #01 //006   ----------------------------------------
Label_0100E759:
 BYTE   W24
 BYTE   N23  Gn2  v096
 BYTE   N23  Gn3
 BYTE   W24
 BYTE   N68  Bn2
 BYTE   N68  Bn3
 BYTE   W48
 BYTE   PEND 
//  #01 //007   ----------------------------------------
 BYTE   W24
 BYTE   N11  Dn3
 BYTE   N11  Dn4
 BYTE   W12
 BYTE   N68  An2
 BYTE   N68  An3
 BYTE   W60
//  #01 //008   ----------------------------------------
 BYTE   W12
 BYTE   N11  En2
 BYTE   N11  En3
 BYTE   W12
 BYTE   Fs2
 BYTE   N11  Fs3
 BYTE   W12
 BYTE   Gn2
 BYTE   N11  Gn3
 BYTE   W12
 BYTE   N23  Gn2
 BYTE   N23  Gn3
 BYTE   W24
 BYTE   N32  En2
 BYTE   N32  En3
 BYTE   W24
//  #01 //009   ----------------------------------------
 BYTE   PATT
  POIN2 Label_0100E6FB
//  #01 //010   ----------------------------------------
 BYTE   PATT
  POIN2 Label_0100E708
//  #01 //011   ----------------------------------------
 BYTE   PATT
  POIN2 Label_0100E722
//  #01 //012   ----------------------------------------
 BYTE   PATT
  POIN2 Label_0100E72F
//  #01 //013   ----------------------------------------
 BYTE   PATT
  POIN2 Label_0100E748
//  #01 //014   ----------------------------------------
 BYTE   PATT
  POIN2 Label_0100E759
//  #01 //015   ----------------------------------------
 BYTE   W24
 BYTE   N11  Dn3  v096
 BYTE   N11  Dn4
 BYTE   W12
 BYTE   TIE  An2
 BYTE   TIE  An3
 BYTE   W60
//  #01 //016   ----------------------------------------
 BYTE   W44
 BYTE   W03
 BYTE   EOT
 BYTE   An2  v069
 BYTE   W01
Label_0100E7B9:
 BYTE   N11  En2  v064
 BYTE   W12
 BYTE   Bn1
 BYTE   W12
 BYTE   En2
 BYTE   W12
 BYTE   Gn2
 BYTE   W12
//  #01 //017   ----------------------------------------
Label_0100E7C3:
 BYTE   N11  En2  v064
 BYTE   W12
 BYTE   Bn1
 BYTE   W12
 BYTE   En2
 BYTE   W12
 BYTE   Gn2
 BYTE   W12
 BYTE   En2
 BYTE   W12
 BYTE   Bn1
 BYTE   W12
 BYTE   En2
 BYTE   W12
 BYTE   Gn2
 BYTE   W12
 BYTE   PEND 
//  #01 //018   ----------------------------------------
 BYTE   PATT
  POIN2 Label_0100E7C3
//  #01 //019   ----------------------------------------
 BYTE   PATT
  POIN2 Label_0100E7C3
//  #01 //020   ----------------------------------------
Label_0100E7E0:
 BYTE   N11  En2  v064
 BYTE   W12
 BYTE   Bn1
 BYTE   W12
 BYTE   En2
 BYTE   W12
 BYTE   Gn2
 BYTE   W12
 BYTE   Dn2
 BYTE   W12
 BYTE   En2
 BYTE   W12
 BYTE   Dn2
 BYTE   W12
 BYTE   An2
 BYTE   W12
 BYTE   PEND 
//  #01 //021   ----------------------------------------
Label_0100E7F3:
 BYTE   N11  Dn2  v064
 BYTE   W12
 BYTE   En2
 BYTE   W12
 BYTE   Dn2
 BYTE   W12
 BYTE   An2
 BYTE   W12
 BYTE   Dn2
 BYTE   W12
 BYTE   En2
 BYTE   W12
 BYTE   Dn2
 BYTE   W12
 BYTE   An2
 BYTE   W12
 BYTE   PEND 
//  #01 //022   ----------------------------------------
 BYTE   PATT
  POIN2 Label_0100E7F3
//  #01 //023   ----------------------------------------
 BYTE   PATT
  POIN2 Label_0100E7F3
//  #01 //024   ----------------------------------------
 BYTE   N11  Dn2  v064
 BYTE   W12
 BYTE   En2
 BYTE   W12
 BYTE   Dn2
 BYTE   W12
 BYTE   An2
 BYTE   W12
 BYTE   En2
 BYTE   W12
 BYTE   Bn1
 BYTE   W12
 BYTE   En2
 BYTE   W12
 BYTE   Gn2
 BYTE   W12
//  #01 //025   ----------------------------------------
 BYTE   PATT
  POIN2 Label_0100E7C3
//  #01 //026   ----------------------------------------
 BYTE   PATT
  POIN2 Label_0100E7C3
//  #01 //027   ----------------------------------------
 BYTE   PATT
  POIN2 Label_0100E7C3
//  #01 //028   ----------------------------------------
 BYTE   PATT
  POIN2 Label_0100E7E0
//  #01 //029   ----------------------------------------
 BYTE   PATT
  POIN2 Label_0100E7F3
//  #01 //030   ----------------------------------------
 BYTE   PATT
  POIN2 Label_0100E7F3
//  #01 //031   ----------------------------------------
 BYTE   PATT
  POIN2 Label_0100E7F3
//  #01 //032   ----------------------------------------
 BYTE   N11  Dn2  v064
 BYTE   W12
 BYTE   En2
 BYTE   W12
 BYTE   Dn2
 BYTE   W12
 BYTE   An2
 BYTE   W60
//  #01 //033   ----------------------------------------
 BYTE   W96
//  #01 //034   ----------------------------------------
 BYTE   W96
//  #01 //035   ----------------------------------------
 BYTE   W96
//  #01 //036   ----------------------------------------
 BYTE   W96
//  #01 //037   ----------------------------------------
 BYTE   W96
//  #01 //038   ----------------------------------------
 BYTE   W48
 BYTE   TIE  En2  v096
 BYTE   W48
//  #01 //039   ----------------------------------------
 BYTE   W92
 BYTE   W03
 BYTE   EOT
 BYTE   W01
//  #01 //040   ----------------------------------------
 BYTE   W12
 BYTE   N11  Fs2
 BYTE   N11  Fs3
 BYTE   W12
 BYTE   N23  Gn2
 BYTE   N23  Gn3
 BYTE   W24
 BYTE   N32  Dn4
 BYTE   W36
 BYTE   An3
 BYTE   W12
//  #01 //041   ----------------------------------------
Label_0100E86D:
 BYTE   W24
 BYTE   N23  Dn3  v096
 BYTE   W24
 BYTE   N32  An3
 BYTE   W36
 BYTE   N17  Gn3
 BYTE   W12
 BYTE   PEND 
//  #01 //042   ----------------------------------------
 BYTE   W06
 BYTE   An3
 BYTE   W18
 BYTE   N56  Dn4
 BYTE   W60
 BYTE   N32  An3
 BYTE   W12
//  #01 //043   ----------------------------------------
 BYTE   PATT
  POIN2 Label_0100E86D
//  #01 //044   ----------------------------------------
 BYTE   W06
 BYTE   N17  Dn3  v096
 BYTE   W18
 BYTE   N11  Gn3
 BYTE   W12
 BYTE   An3
 BYTE   W12
 BYTE   N32  Dn4
 BYTE   W36
 BYTE   An3
 BYTE   W12
//  #01 //045   ----------------------------------------
 BYTE   PATT
  POIN2 Label_0100E86D
//  #01 //046   ----------------------------------------
Label_0100E89B:
 BYTE   W06
 BYTE   N17  Dn3  v096
 BYTE   W18
 BYTE   N23  Gn3
 BYTE   W24
 BYTE   N32  An3
 BYTE   W36
 BYTE   Gn3
 BYTE   W12
 BYTE   PEND 
//  #01 //047   ----------------------------------------
 BYTE   W24
 BYTE   N23  Dn3
 BYTE   W24
 BYTE   N32  Dn4
 BYTE   W36
 BYTE   N17  Gn3
 BYTE   W12
//  #01 //048   ----------------------------------------
 BYTE   W06
 BYTE   Dn3
 BYTE   W18
 BYTE   N11  Gn3
 BYTE   W12
 BYTE   Dn3
 BYTE   W12
 BYTE   N32  Dn4
 BYTE   W36
 BYTE   An3
 BYTE   W12
//  #01 //049   ----------------------------------------
 BYTE   PATT
  POIN2 Label_0100E86D
//  #01 //050   ----------------------------------------
 BYTE   PATT
  POIN2 Label_0100E89B
//  #01 //051   ----------------------------------------
Label_0100E8CA:
 BYTE   W24
 BYTE   N23  Dn3  v096
 BYTE   W24
 BYTE   N32  An3
 BYTE   W36
 BYTE   Gn3
 BYTE   W12
 BYTE   PEND 
//  #01 //052   ----------------------------------------
 BYTE   PATT
  POIN2 Label_0100E8CA
//  #01 //053   ----------------------------------------
 BYTE   PATT
  POIN2 Label_0100E8CA
//  #01 //054   ----------------------------------------
 BYTE   PATT
  POIN2 Label_0100E8CA
//  #01 //055   ----------------------------------------
 BYTE   PATT
  POIN2 Label_0100E8CA
//  #01 //056   ----------------------------------------
 BYTE   W24
 BYTE   N23  Dn3  v096
 BYTE   W72
//  #01 //057   ----------------------------------------
 BYTE   W96
//  #01 //058   ----------------------------------------
 BYTE   W96
//  #01 //059   ----------------------------------------
 BYTE   W96
//  #01 //060   ----------------------------------------
 BYTE   W48
 BYTE   N11  En3
 BYTE   W24
 BYTE   N05  Bn2
 BYTE   W12
 BYTE   N11  Dn3
 BYTE   W12
//  #01 //061   ----------------------------------------
Label_0100E8FB:
 BYTE   W12
 BYTE   N05  Bn2  v096
 BYTE   W12
 BYTE   Dn3
 BYTE   W12
 BYTE   Bn2
 BYTE   W12
 BYTE   N11  En3
 BYTE   W24
 BYTE   N05  Bn2
 BYTE   W12
 BYTE   N11  Dn3
 BYTE   W12
 BYTE   PEND 
//  #01 //062   ----------------------------------------
 BYTE   PATT
  POIN2 Label_0100E8FB
//  #01 //063   ----------------------------------------
 BYTE   PATT
  POIN2 Label_0100E8FB
//  #01 //064   ----------------------------------------
 BYTE   W12
 BYTE   N05  Bn2  v096
 BYTE   W12
 BYTE   Dn3
 BYTE   W12
 BYTE   Bn2
 BYTE   W60
//  #01 //065   ----------------------------------------
 BYTE   W96
//  #01 //066   ----------------------------------------
 BYTE   W96
//  #01 //067   ----------------------------------------
 BYTE   W96
//  #01 //068   ----------------------------------------
 BYTE   W96
//  #01 //069   ----------------------------------------
 BYTE   W96
//  #01 //070   ----------------------------------------
 BYTE   W96
//  #01 //071   ----------------------------------------
 BYTE   W96
//  #01 //072   ----------------------------------------
 BYTE   W96
//  #01 //073   ----------------------------------------
 BYTE   W96
//  #01 //074   ----------------------------------------
 BYTE   W96
//  #01 //075   ----------------------------------------
 BYTE   W96
//  #01 //076   ----------------------------------------
 BYTE   W96
//  #01 //077   ----------------------------------------
 BYTE   W96
//  #01 //078   ----------------------------------------
 BYTE   W96
//  #01 //079   ----------------------------------------
 BYTE   W96
//  #01 //080   ----------------------------------------
 BYTE   W96
//  #01 //081   ----------------------------------------
 BYTE   W12
 BYTE   N11  Fs2  v112
 BYTE   N11  Fs3
 BYTE   W12
 BYTE   N23  Gn2
 BYTE   N23  Gn3
 BYTE   W24
 BYTE   Dn4
 BYTE   W24
 BYTE   An3
 BYTE   W24
//  #01 //082   ----------------------------------------
Label_0100E941:
 BYTE   N23  Gn3  v112
 BYTE   W24
 BYTE   Dn3
 BYTE   W24
 BYTE   An3
 BYTE   W24
 BYTE   Gn3
 BYTE   W24
 BYTE   PEND 
//  #01 //083   ----------------------------------------
Label_0100E94C:
 BYTE   N23  Dn3  v112
 BYTE   W24
 BYTE   Dn4
 BYTE   W24
 BYTE   N23
 BYTE   W24
 BYTE   An3
 BYTE   W24
 BYTE   PEND 
//  #01 //084   ----------------------------------------
 BYTE   PATT
  POIN2 Label_0100E941
//  #01 //085   ----------------------------------------
 BYTE   PATT
  POIN2 Label_0100E94C
//  #01 //086   ----------------------------------------
 BYTE   PATT
  POIN2 Label_0100E941
//  #01 //087   ----------------------------------------
Label_0100E966:
 BYTE   N23  Dn3  v112
 BYTE   W24
 BYTE   Dn4
 BYTE   W24
 BYTE   N23
 BYTE   W24
 BYTE   N23
 BYTE   W24
 BYTE   PEND 
//  #01 //088   ----------------------------------------
Label_0100E971:
 BYTE   N23  Gn3  v112
 BYTE   W24
 BYTE   N23
 BYTE   W24
 BYTE   N23
 BYTE   W24
 BYTE   N23
 BYTE   W24
 BYTE   PEND 
//  #01 //089   ----------------------------------------
 BYTE   En3
 BYTE   W24
 BYTE   Dn4
 BYTE   W24
 BYTE   An3
 BYTE   W24
 BYTE   Gn3
 BYTE   W24
//  #01 //090   ----------------------------------------
 BYTE   PATT
  POIN2 Label_0100E94C
//  #01 //091   ----------------------------------------
 BYTE   PATT
  POIN2 Label_0100E941
//  #01 //092   ----------------------------------------
 BYTE   PATT
  POIN2 Label_0100E94C
//  #01 //093   ----------------------------------------
 BYTE   PATT
  POIN2 Label_0100E941
//  #01 //094   ----------------------------------------
 BYTE   PATT
  POIN2 Label_0100E94C
//  #01 //095   ----------------------------------------
 BYTE   N23  Gn3  v112
 BYTE   W24
 BYTE   Dn3
 BYTE   W24
 BYTE   En4
 BYTE   W24
 BYTE   N23
 BYTE   W24
//  #01 //096   ----------------------------------------
Label_0100E9A7:
 BYTE   N23  Fs4  v112
 BYTE   W24
 BYTE   TIE  Gn4
 BYTE   W72
 BYTE   PEND 
//  #01 //097   ----------------------------------------
 BYTE   W44
 BYTE   W03
 BYTE   EOT
 BYTE   W01
 BYTE   N23  Dn4
 BYTE   W24
 BYTE   An3
 BYTE   W24
//  #01 //098   ----------------------------------------
 BYTE   PATT
  POIN2 Label_0100E941
//  #01 //099   ----------------------------------------
 BYTE   PATT
  POIN2 Label_0100E94C
//  #01 //100   ----------------------------------------
 BYTE   PATT
  POIN2 Label_0100E941
//  #01 //101   ----------------------------------------
 BYTE   PATT
  POIN2 Label_0100E94C
//  #01 //102   ----------------------------------------
 BYTE   PATT
  POIN2 Label_0100E941
//  #01 //103   ----------------------------------------
 BYTE   PATT
  POIN2 Label_0100E966
//  #01 //104   ----------------------------------------
 BYTE   PATT
  POIN2 Label_0100E971
//  #01 //105   ----------------------------------------
 BYTE   N23  En3  v112
 BYTE   W24
 BYTE   Dn4
 BYTE   W24
 BYTE   N23
 BYTE   W24
 BYTE   An3
 BYTE   W24
//  #01 //106   ----------------------------------------
 BYTE   PATT
  POIN2 Label_0100E941
//  #01 //107   ----------------------------------------
 BYTE   PATT
  POIN2 Label_0100E94C
//  #01 //108   ----------------------------------------
 BYTE   PATT
  POIN2 Label_0100E941
//  #01 //109   ----------------------------------------
 BYTE   PATT
  POIN2 Label_0100E94C
//  #01 //110   ----------------------------------------
 BYTE   PATT
  POIN2 Label_0100E941
//  #01 //111   ----------------------------------------
 BYTE   N23  Dn3  v112
 BYTE   W24
 BYTE   Dn4
 BYTE   W24
 BYTE   En4
 BYTE   W24
 BYTE   N23
 BYTE   W24
//  #01 //112   ----------------------------------------
 BYTE   PATT
  POIN2 Label_0100E9A7
//  #01 //113   ----------------------------------------
 BYTE   W44
 BYTE   W03
 BYTE   EOT
 BYTE   Gn4
 BYTE   W01
 BYTE   N11  En3  v112
 BYTE   W24
 BYTE   N05  Bn2
 BYTE   W12
 BYTE   N11  Dn3
 BYTE   W12
//  #01 //114   ----------------------------------------
Label_0100EA1C:
 BYTE   W12
 BYTE   N05  Bn2  v112
 BYTE   W12
 BYTE   Dn3
 BYTE   W12
 BYTE   Bn2
 BYTE   W12
 BYTE   N11  En3
 BYTE   W24
 BYTE   N05  Bn2
 BYTE   W12
 BYTE   N11  Dn3
 BYTE   W12
 BYTE   PEND 
//  #01 //115   ----------------------------------------
 BYTE   PATT
  POIN2 Label_0100EA1C
//  #01 //116   ----------------------------------------
 BYTE   PATT
  POIN2 Label_0100EA1C
//  #01 //117   ----------------------------------------
 BYTE   PATT
  POIN2 Label_0100EA1C
//  #01 //118   ----------------------------------------
 BYTE   PATT
  POIN2 Label_0100EA1C
//  #01 //119   ----------------------------------------
 BYTE   PATT
  POIN2 Label_0100EA1C
//  #01 //120   ----------------------------------------
 BYTE   PATT
  POIN2 Label_0100EA1C
//  #01 //121   ----------------------------------------
 BYTE   W12
 BYTE   N05  Bn2  v112
 BYTE   W12
 BYTE   Dn3
 BYTE   W12
 BYTE   Bn2
 BYTE   W12
 BYTE   GoTo
  POIN2 Label_0100E7B9
//  #01 //122   ----------------------------------------
 BYTE   N11  En3  v112
 BYTE   W24
 BYTE   N05  Bn2
 BYTE   W12
 BYTE   N11  Dn3
 BYTE   W12
//  #01 //123   ----------------------------------------
 BYTE   PATT
  POIN2 Label_0100EA1C
//  #01 //124   ----------------------------------------
 BYTE   PATT
  POIN2 Label_0100EA1C
//  #01 //125   ----------------------------------------
 BYTE   PATT
  POIN2 Label_0100EA1C
//  #01 //126   ----------------------------------------
 BYTE   W12
 BYTE   N05  Bn2  v112
 BYTE   W12
 BYTE   Dn3
 BYTE   W12
 BYTE   Bn2
 BYTE   W11
 BYTE   FINE

//**************** Track 2 (Midi-Chn.1) ****************//

Uncontrollable_002:
//  #02 //000   ----------------------------------------
 BYTE   KEYSH   Uncontrollable_key+0
 BYTE   VOICE   29
 BYTE   VOL   32*Uncontrollable_mvl/mxv
 BYTE   PAN   c_v+0
 BYTE   W12
 BYTE   N04  En3  v096
 BYTE   W04
 BYTE   Ds3
 BYTE   W05
 BYTE   Dn3
 BYTE   W05
 BYTE   Cs3
 BYTE   W05
 BYTE   Cn3
 BYTE   W05
 BYTE   N11  Bn2
 BYTE   W12
 BYTE   N23  Dn3
 BYTE   W24
 BYTE   N32  Bn2
 BYTE   W24
//  #02 //001   ----------------------------------------
Label_0100D8BA:
 BYTE   W12
 BYTE   N23  Gn3  v096
 BYTE   W24
 BYTE   N68  An3
 BYTE   W60
 BYTE   PEND 
//  #02 //002   ----------------------------------------
Label_0100D8C3:
 BYTE   W12
 BYTE   N11  Cs3  v096
 BYTE   W12
 BYTE   Dn3
 BYTE   W12
 BYTE   En3
 BYTE   W12
 BYTE   N32  Fs3
 BYTE   W36
 BYTE   N23  Dn3
 BYTE   W12
 BYTE   PEND 
//  #02 //003   ----------------------------------------
Label_0100D8D3:
 BYTE   W12
 BYTE   N23  Bn2  v096
 BYTE   W24
 BYTE   N68  An3
 BYTE   W60
 BYTE   PEND 
//  #02 //004   ----------------------------------------
Label_0100D8DC:
 BYTE   W12
 BYTE   N11  Cs3  v096
 BYTE   W12
 BYTE   Dn3
 BYTE   W12
 BYTE   En3
 BYTE   W12
 BYTE   N32  Gn4
 BYTE   W36
 BYTE   En4
 BYTE   W12
 BYTE   PEND 
//  #02 //005   ----------------------------------------
Label_0100D8EB:
 BYTE   W24
 BYTE   N23  Fs4  v096
 BYTE   W24
 BYTE   N32  Gn4
 BYTE   W36
 BYTE   En4
 BYTE   W12
 BYTE   PEND 
//  #02 //006   ----------------------------------------
Label_0100D8F6:
 BYTE   W24
 BYTE   N23  Gn4  v096
 BYTE   W24
 BYTE   N68  Fs4
 BYTE   W48
 BYTE   PEND 
//  #02 //007   ----------------------------------------
 BYTE   W24
 BYTE   N11  An4
 BYTE   W12
 BYTE   N68  En4
 BYTE   W60
//  #02 //008   ----------------------------------------
 BYTE   W12
 BYTE   N11  Bn2
 BYTE   W12
 BYTE   Cs3
 BYTE   W12
 BYTE   Dn3
 BYTE   W12
 BYTE   N23
 BYTE   W24
 BYTE   N32  Bn2
 BYTE   W24
//  #02 //009   ----------------------------------------
 BYTE   PATT
  POIN2 Label_0100D8BA
//  #02 //010   ----------------------------------------
 BYTE   PATT
  POIN2 Label_0100D8C3
//  #02 //011   ----------------------------------------
 BYTE   PATT
  POIN2 Label_0100D8D3
//  #02 //012   ----------------------------------------
 BYTE   PATT
  POIN2 Label_0100D8DC
//  #02 //013   ----------------------------------------
 BYTE   PATT
  POIN2 Label_0100D8EB
//  #02 //014   ----------------------------------------
 BYTE   PATT
  POIN2 Label_0100D8F6
//  #02 //015   ----------------------------------------
 BYTE   W24
 BYTE   N11  An4  v096
 BYTE   W12
 BYTE   TIE  En4
 BYTE   W60
//  #02 //016   ----------------------------------------
 BYTE   W44
 BYTE   W03
 BYTE   EOT
 BYTE   W01
Label_0100D93D:
 BYTE   W48
//  #02 //017   ----------------------------------------
 BYTE   W96
//  #02 //018   ----------------------------------------
 BYTE   W96
//  #02 //019   ----------------------------------------
 BYTE   W96
//  #02 //020   ----------------------------------------
 BYTE   W96
//  #02 //021   ----------------------------------------
 BYTE   W96
//  #02 //022   ----------------------------------------
 BYTE   W96
//  #02 //023   ----------------------------------------
 BYTE   W96
//  #02 //024   ----------------------------------------
 BYTE   W96
//  #02 //025   ----------------------------------------
 BYTE   W96
//  #02 //026   ----------------------------------------
 BYTE   W96
//  #02 //027   ----------------------------------------
 BYTE   W96
//  #02 //028   ----------------------------------------
 BYTE   W96
//  #02 //029   ----------------------------------------
 BYTE   W96
//  #02 //030   ----------------------------------------
 BYTE   W96
//  #02 //031   ----------------------------------------
 BYTE   W96
//  #02 //032   ----------------------------------------
 BYTE   W96
//  #02 //033   ----------------------------------------
 BYTE   W96
//  #02 //034   ----------------------------------------
 BYTE   W96
//  #02 //035   ----------------------------------------
 BYTE   W96
//  #02 //036   ----------------------------------------
 BYTE   W96
//  #02 //037   ----------------------------------------
 BYTE   W96
//  #02 //038   ----------------------------------------
 BYTE   W96
//  #02 //039   ----------------------------------------
 BYTE   W96
//  #02 //040   ----------------------------------------
 BYTE   W48
 BYTE   TIE  En3  v064
 BYTE   W48
//  #02 //041   ----------------------------------------
 BYTE   W96
//  #02 //042   ----------------------------------------
 BYTE   W44
 BYTE   W03
 BYTE   EOT
 BYTE   W01
 BYTE   TIE  Cn3
 BYTE   W48
//  #02 //043   ----------------------------------------
 BYTE   W96
//  #02 //044   ----------------------------------------
 BYTE   W44
 BYTE   W03
 BYTE   EOT
 BYTE   W01
 BYTE   TIE  Dn3
 BYTE   W48
//  #02 //045   ----------------------------------------
 BYTE   W96
//  #02 //046   ----------------------------------------
 BYTE   W44
 BYTE   W03
 BYTE   EOT
 BYTE   W01
 BYTE   N92  Bn2
 BYTE   W48
//  #02 //047   ----------------------------------------
 BYTE   W48
 BYTE   An2
 BYTE   W48
//  #02 //048   ----------------------------------------
 BYTE   W48
 BYTE   TIE  En3
 BYTE   W48
//  #02 //049   ----------------------------------------
 BYTE   W96
//  #02 //050   ----------------------------------------
 BYTE   W44
 BYTE   W03
 BYTE   EOT
 BYTE   W01
 BYTE   TIE  Cn3
 BYTE   W48
//  #02 //051   ----------------------------------------
 BYTE   W96
//  #02 //052   ----------------------------------------
 BYTE   W44
 BYTE   W03
 BYTE   EOT
 BYTE   W01
 BYTE   TIE  Dn3
 BYTE   W48
//  #02 //053   ----------------------------------------
 BYTE   W96
//  #02 //054   ----------------------------------------
 BYTE   W44
 BYTE   W03
 BYTE   EOT
 BYTE   W01
 BYTE   N92  An2
 BYTE   W48
//  #02 //055   ----------------------------------------
 BYTE   W48
 BYTE   Bn2
 BYTE   W48
//  #02 //056   ----------------------------------------
 BYTE   W96
//  #02 //057   ----------------------------------------
 BYTE   W96
//  #02 //058   ----------------------------------------
 BYTE   W96
//  #02 //059   ----------------------------------------
 BYTE   W96
//  #02 //060   ----------------------------------------
 BYTE   W96
//  #02 //061   ----------------------------------------
 BYTE   W96
//  #02 //062   ----------------------------------------
 BYTE   W96
//  #02 //063   ----------------------------------------
 BYTE   W96
//  #02 //064   ----------------------------------------
 BYTE   W96
//  #02 //065   ----------------------------------------
 BYTE   W96
//  #02 //066   ----------------------------------------
 BYTE   W96
//  #02 //067   ----------------------------------------
 BYTE   W96
//  #02 //068   ----------------------------------------
 BYTE   W96
//  #02 //069   ----------------------------------------
 BYTE   W96
//  #02 //070   ----------------------------------------
 BYTE   W96
//  #02 //071   ----------------------------------------
 BYTE   W96
//  #02 //072   ----------------------------------------
 BYTE   W96
//  #02 //073   ----------------------------------------
 BYTE   W96
//  #02 //074   ----------------------------------------
 BYTE   W96
//  #02 //075   ----------------------------------------
 BYTE   W96
//  #02 //076   ----------------------------------------
 BYTE   W96
//  #02 //077   ----------------------------------------
 BYTE   W96
//  #02 //078   ----------------------------------------
 BYTE   W96
//  #02 //079   ----------------------------------------
 BYTE   W96
//  #02 //080   ----------------------------------------
 BYTE   W96
//  #02 //081   ----------------------------------------
 BYTE   W48
 BYTE   TIE  Gn3  v080
 BYTE   W48
//  #02 //082   ----------------------------------------
 BYTE   W96
//  #02 //083   ----------------------------------------
 BYTE   W44
 BYTE   W03
 BYTE   EOT
 BYTE   W01
 BYTE   TIE  Bn2
 BYTE   W48
//  #02 //084   ----------------------------------------
 BYTE   W96
//  #02 //085   ----------------------------------------
 BYTE   W44
 BYTE   W03
 BYTE   EOT
 BYTE   W01
 BYTE   TIE  En2
 BYTE   W48
//  #02 //086   ----------------------------------------
 BYTE   W96
//  #02 //087   ----------------------------------------
 BYTE   W44
 BYTE   W03
 BYTE   EOT
 BYTE   W01
 BYTE   TIE  Dn3
 BYTE   W48
//  #02 //088   ----------------------------------------
 BYTE   W96
//  #02 //089   ----------------------------------------
 BYTE   W44
 BYTE   W03
 BYTE   EOT
 BYTE   W01
 BYTE   TIE  Gn3
 BYTE   W48
//  #02 //090   ----------------------------------------
 BYTE   W96
//  #02 //091   ----------------------------------------
 BYTE   W44
 BYTE   W03
 BYTE   EOT
 BYTE   W01
 BYTE   TIE  Bn2
 BYTE   W48
//  #02 //092   ----------------------------------------
 BYTE   W96
//  #02 //093   ----------------------------------------
 BYTE   W44
 BYTE   W03
 BYTE   EOT
 BYTE   W01
 BYTE   N92  Cn3
 BYTE   W48
//  #02 //094   ----------------------------------------
 BYTE   W48
 BYTE   Dn3
 BYTE   W48
//  #02 //095   ----------------------------------------
 BYTE   W48
 BYTE   N32  En3
 BYTE   W36
 BYTE   Fs3
 BYTE   W12
//  #02 //096   ----------------------------------------
 BYTE   W24
 BYTE   TIE  Gn3
 BYTE   W72
//  #02 //097   ----------------------------------------
 BYTE   W44
 BYTE   W03
 BYTE   EOT
 BYTE   W01
 BYTE   TIE
 BYTE   W48
//  #02 //098   ----------------------------------------
 BYTE   W96
//  #02 //099   ----------------------------------------
 BYTE   W44
 BYTE   W03
 BYTE   EOT
 BYTE   W01
 BYTE   TIE  Bn2
 BYTE   W48
//  #02 //100   ----------------------------------------
 BYTE   W96
//  #02 //101   ----------------------------------------
 BYTE   W44
 BYTE   W03
 BYTE   EOT
 BYTE   W01
 BYTE   TIE  En2
 BYTE   W48
//  #02 //102   ----------------------------------------
 BYTE   W96
//  #02 //103   ----------------------------------------
 BYTE   W44
 BYTE   W03
 BYTE   EOT
 BYTE   W01
 BYTE   TIE  Dn3
 BYTE   W48
//  #02 //104   ----------------------------------------
 BYTE   W96
//  #02 //105   ----------------------------------------
 BYTE   W44
 BYTE   W03
 BYTE   EOT
 BYTE   W01
 BYTE   TIE  Gn2
 BYTE   W48
//  #02 //106   ----------------------------------------
 BYTE   W96
//  #02 //107   ----------------------------------------
 BYTE   W44
 BYTE   W03
 BYTE   EOT
 BYTE   W01
 BYTE   TIE  Bn2
 BYTE   W48
//  #02 //108   ----------------------------------------
 BYTE   W96
//  #02 //109   ----------------------------------------
 BYTE   W44
 BYTE   W03
 BYTE   EOT
 BYTE   W01
 BYTE   TIE  En3
 BYTE   W48
//  #02 //110   ----------------------------------------
 BYTE   W96
//  #02 //111   ----------------------------------------
 BYTE   W44
 BYTE   W03
 BYTE   EOT
 BYTE   W01
 BYTE   N32  En2
 BYTE   W36
 BYTE   Fs2
 BYTE   W12
//  #02 //112   ----------------------------------------
 BYTE   W24
 BYTE   TIE  Gn2
 BYTE   W72
//  #02 //113   ----------------------------------------
 BYTE   W44
 BYTE   W03
 BYTE   EOT
 BYTE   W01
 BYTE   TIE
 BYTE   W48
//  #02 //114   ----------------------------------------
 BYTE   W96
//  #02 //115   ----------------------------------------
 BYTE   W44
 BYTE   W03
 BYTE   EOT
 BYTE   W01
 BYTE   TIE  Bn2
 BYTE   W48
//  #02 //116   ----------------------------------------
 BYTE   W96
//  #02 //117   ----------------------------------------
 BYTE   W44
 BYTE   W03
 BYTE   EOT
 BYTE   W01
 BYTE   TIE  En3
 BYTE   W48
//  #02 //118   ----------------------------------------
 BYTE   W96
//  #02 //119   ----------------------------------------
 BYTE   W44
 BYTE   W03
 BYTE   EOT
 BYTE   W01
 BYTE   TIE  Dn3
 BYTE   W48
//  #02 //120   ----------------------------------------
 BYTE   W96
//  #02 //121   ----------------------------------------
 BYTE   W44
 BYTE   W03
 BYTE   EOT
 BYTE   W01
 BYTE   GoTo
  POIN2 Label_0100D93D
//  #02 //122   ----------------------------------------
 BYTE   W48
 BYTE   W96
//  #02 //123   ----------------------------------------
 BYTE   W96
//  #02 //124   ----------------------------------------
 BYTE   W96
//  #02 //125   ----------------------------------------
 BYTE   W44
 BYTE   W03
 BYTE   FINE

//**************** Track 3 (Midi-Chn.2) ****************//

Uncontrollable_003:
//  #03 //000   ----------------------------------------
 BYTE   KEYSH   Uncontrollable_key+0
 BYTE   VOICE   34
 BYTE   VOL   32*Uncontrollable_mvl/mxv
 BYTE   PAN   c_v+0
 BYTE   W24
 BYTE   N05  Gn2  v080
 BYTE   W06
 BYTE   N05
 BYTE   W06
 BYTE   N05
 BYTE   W06
 BYTE   N05
 BYTE   W06
 BYTE   N11  En1  v096
 BYTE   W12
 BYTE   N11
 BYTE   W12
 BYTE   N23
 BYTE   W24
//  #03 //001   ----------------------------------------
Label_0100E0C3:
 BYTE   N11  En1  v096
 BYTE   W12
 BYTE   N23
 BYTE   W24
 BYTE   N11
 BYTE   W12
 BYTE   N11
 BYTE   W12
 BYTE   N11
 BYTE   W12
 BYTE   N23
 BYTE   W24
 BYTE   PEND 
//  #03 //002   ----------------------------------------
Label_0100E0D2:
 BYTE   N11  En1  v096
 BYTE   W12
 BYTE   N23
 BYTE   W24
 BYTE   N11
 BYTE   W12
 BYTE   An1
 BYTE   W12
 BYTE   N11
 BYTE   W12
 BYTE   N23
 BYTE   W24
 BYTE   PEND 
//  #03 //003   ----------------------------------------
Label_0100E0E1:
 BYTE   N11  An1  v096
 BYTE   W12
 BYTE   N23
 BYTE   W24
 BYTE   N11
 BYTE   W12
 BYTE   N11
 BYTE   W12
 BYTE   N11
 BYTE   W12
 BYTE   N23
 BYTE   W24
 BYTE   PEND 
//  #03 //004   ----------------------------------------
Label_0100E0F0:
 BYTE   N11  An1  v096
 BYTE   W12
 BYTE   N23
 BYTE   W24
 BYTE   N11
 BYTE   W12
 BYTE   Cn2
 BYTE   W12
 BYTE   N11
 BYTE   W12
 BYTE   N23
 BYTE   W24
 BYTE   PEND 
//  #03 //005   ----------------------------------------
Label_0100E0FF:
 BYTE   N11  Cn2  v096
 BYTE   W12
 BYTE   N23
 BYTE   W24
 BYTE   N11
 BYTE   W12
 BYTE   N11
 BYTE   W12
 BYTE   N11
 BYTE   W12
 BYTE   N23
 BYTE   W24
 BYTE   PEND 
//  #03 //006   ----------------------------------------
Label_0100E10E:
 BYTE   N11  Cn2  v096
 BYTE   W12
 BYTE   N23
 BYTE   W24
 BYTE   N11
 BYTE   W12
 BYTE   An1
 BYTE   W12
 BYTE   N11
 BYTE   W12
 BYTE   N23
 BYTE   W24
 BYTE   PEND 
//  #03 //007   ----------------------------------------
Label_0100E11D:
 BYTE   N11  An1  v096
 BYTE   W12
 BYTE   N23
 BYTE   W24
 BYTE   N11
 BYTE   W12
 BYTE   Bn1
 BYTE   W12
 BYTE   N11
 BYTE   W12
 BYTE   N23
 BYTE   W24
 BYTE   PEND 
//  #03 //008   ----------------------------------------
 BYTE   N11
 BYTE   W12
 BYTE   N23
 BYTE   W24
 BYTE   N11
 BYTE   W12
 BYTE   En1
 BYTE   W12
 BYTE   N11
 BYTE   W12
 BYTE   N23
 BYTE   W24
//  #03 //009   ----------------------------------------
 BYTE   PATT
  POIN2 Label_0100E0C3
//  #03 //010   ----------------------------------------
 BYTE   PATT
  POIN2 Label_0100E0D2
//  #03 //011   ----------------------------------------
 BYTE   PATT
  POIN2 Label_0100E0E1
//  #03 //012   ----------------------------------------
 BYTE   PATT
  POIN2 Label_0100E0F0
//  #03 //013   ----------------------------------------
 BYTE   PATT
  POIN2 Label_0100E0FF
//  #03 //014   ----------------------------------------
 BYTE   PATT
  POIN2 Label_0100E10E
//  #03 //015   ----------------------------------------
 BYTE   PATT
  POIN2 Label_0100E11D
//  #03 //016   ----------------------------------------
 BYTE   N11  Bn1  v096
 BYTE   W12
 BYTE   N23
 BYTE   W24
 BYTE   N11
 BYTE   W12
Label_0100E163:
 BYTE   N05  En2  v096
 BYTE   W12
 BYTE   N05
 BYTE   W12
 BYTE   N05
 BYTE   W12
 BYTE   N05
 BYTE   W12
//  #03 //017   ----------------------------------------
Label_0100E16D:
 BYTE   N05  En2  v096
 BYTE   W12
 BYTE   N05
 BYTE   W12
 BYTE   N05
 BYTE   W12
 BYTE   N05
 BYTE   W12
 BYTE   N05
 BYTE   W12
 BYTE   N05
 BYTE   W12
 BYTE   N05
 BYTE   W12
 BYTE   N05
 BYTE   W12
 BYTE   PEND 
//  #03 //018   ----------------------------------------
 BYTE   PATT
  POIN2 Label_0100E16D
//  #03 //019   ----------------------------------------
 BYTE   PATT
  POIN2 Label_0100E16D
//  #03 //020   ----------------------------------------
Label_0100E18A:
 BYTE   N05  En2  v096
 BYTE   W12
 BYTE   N05
 BYTE   W12
 BYTE   N05
 BYTE   W12
 BYTE   N05
 BYTE   W12
 BYTE   Dn2
 BYTE   W12
 BYTE   N05
 BYTE   W12
 BYTE   N05
 BYTE   W12
 BYTE   N05
 BYTE   W12
 BYTE   PEND 
//  #03 //021   ----------------------------------------
Label_0100E19D:
 BYTE   N05  Dn2  v096
 BYTE   W12
 BYTE   N05
 BYTE   W12
 BYTE   N05
 BYTE   W12
 BYTE   N05
 BYTE   W12
 BYTE   N05
 BYTE   W12
 BYTE   N05
 BYTE   W12
 BYTE   N05
 BYTE   W12
 BYTE   N05
 BYTE   W12
 BYTE   PEND 
//  #03 //022   ----------------------------------------
Label_0100E1B0:
 BYTE   N05  Dn2  v096
 BYTE   W12
 BYTE   N05
 BYTE   W12
 BYTE   N05
 BYTE   W12
 BYTE   N05
 BYTE   W12
 BYTE   An2
 BYTE   W12
 BYTE   N05
 BYTE   W12
 BYTE   N05
 BYTE   W12
 BYTE   N05
 BYTE   W12
 BYTE   PEND 
//  #03 //023   ----------------------------------------
 BYTE   N05
 BYTE   W12
 BYTE   N05
 BYTE   W12
 BYTE   N05
 BYTE   W12
 BYTE   N05
 BYTE   W12
 BYTE   N05
 BYTE   W12
 BYTE   N05
 BYTE   W12
 BYTE   N05
 BYTE   W12
 BYTE   N05
 BYTE   W12
//  #03 //024   ----------------------------------------
 BYTE   N05
 BYTE   W12
 BYTE   N05
 BYTE   W12
 BYTE   N05
 BYTE   W12
 BYTE   N05
 BYTE   W12
 BYTE   En2
 BYTE   W12
 BYTE   N05
 BYTE   W12
 BYTE   N05
 BYTE   W12
 BYTE   N05
 BYTE   W12
//  #03 //025   ----------------------------------------
 BYTE   PATT
  POIN2 Label_0100E16D
//  #03 //026   ----------------------------------------
 BYTE   PATT
  POIN2 Label_0100E16D
//  #03 //027   ----------------------------------------
 BYTE   PATT
  POIN2 Label_0100E16D
//  #03 //028   ----------------------------------------
 BYTE   PATT
  POIN2 Label_0100E18A
//  #03 //029   ----------------------------------------
 BYTE   PATT
  POIN2 Label_0100E19D
//  #03 //030   ----------------------------------------
 BYTE   PATT
  POIN2 Label_0100E1B0
//  #03 //031   ----------------------------------------
 BYTE   N05  An2  v096
 BYTE   W12
 BYTE   N05
 BYTE   W12
 BYTE   N05
 BYTE   W12
 BYTE   N05
 BYTE   W12
 BYTE   Bn2
 BYTE   W12
 BYTE   N05
 BYTE   W12
 BYTE   N05
 BYTE   W12
 BYTE   N05
 BYTE   W12
//  #03 //032   ----------------------------------------
 BYTE   N05
 BYTE   W12
 BYTE   N05
 BYTE   W12
 BYTE   N05
 BYTE   W12
 BYTE   N05
 BYTE   W12
 BYTE   N44  Gn2  v064
 BYTE   W48
//  #03 //033   ----------------------------------------
Label_0100E21F:
 BYTE   N44  Fs2  v064
 BYTE   W48
 BYTE   En2
 BYTE   W48
 BYTE   PEND 
//  #03 //034   ----------------------------------------
 BYTE   Dn2
 BYTE   W48
 BYTE   TIE  En2
 BYTE   W48
//  #03 //035   ----------------------------------------
 BYTE   W96
//  #03 //036   ----------------------------------------
 BYTE   W44
 BYTE   W03
 BYTE   EOT
 BYTE   W01
 BYTE   N44  Gn2
 BYTE   W48
//  #03 //037   ----------------------------------------
 BYTE   PATT
  POIN2 Label_0100E21F
//  #03 //038   ----------------------------------------
 BYTE   N44  Dn2  v064
 BYTE   W48
 BYTE   N92  En2
 BYTE   W48
//  #03 //039   ----------------------------------------
 BYTE   W96
//  #03 //040   ----------------------------------------
Label_0100E240:
 BYTE   W48
 BYTE   TIE  En2  v080
 BYTE   W48
 BYTE   PEND 
//  #03 //041   ----------------------------------------
 BYTE   W96
//  #03 //042   ----------------------------------------
 BYTE   W44
 BYTE   W03
 BYTE   EOT
 BYTE   W01
 BYTE   TIE  Cn2
 BYTE   W48
//  #03 //043   ----------------------------------------
 BYTE   W96
//  #03 //044   ----------------------------------------
 BYTE   W44
 BYTE   W03
 BYTE   EOT
 BYTE   W01
 BYTE   TIE  Dn2
 BYTE   W48
//  #03 //045   ----------------------------------------
 BYTE   W96
//  #03 //046   ----------------------------------------
 BYTE   W44
 BYTE   W03
 BYTE   EOT
 BYTE   W01
 BYTE   N92  Bn1
 BYTE   W48
//  #03 //047   ----------------------------------------
 BYTE   W48
 BYTE   An1
 BYTE   W48
//  #03 //048   ----------------------------------------
 BYTE   PATT
  POIN2 Label_0100E240
//  #03 //049   ----------------------------------------
 BYTE   W96
//  #03 //050   ----------------------------------------
 BYTE   W44
 BYTE   W03
 BYTE   EOT
 BYTE   En2
 BYTE   W01
 BYTE   TIE  Cn2  v080
 BYTE   W48
//  #03 //051   ----------------------------------------
 BYTE   W96
//  #03 //052   ----------------------------------------
 BYTE   W44
 BYTE   W03
 BYTE   EOT
 BYTE   W01
 BYTE   TIE  Dn2
 BYTE   W48
//  #03 //053   ----------------------------------------
 BYTE   W96
//  #03 //054   ----------------------------------------
 BYTE   W44
 BYTE   W03
 BYTE   EOT
 BYTE   W01
 BYTE   N92  An1
 BYTE   W48
//  #03 //055   ----------------------------------------
 BYTE   W48
 BYTE   Bn1
 BYTE   W48
//  #03 //056   ----------------------------------------
 BYTE   W48
 BYTE   N02  En2
 BYTE   W06
 BYTE   N02
 BYTE   W06
 BYTE   N02
 BYTE   W06
 BYTE   N02
 BYTE   W06
 BYTE   N02
 BYTE   W06
 BYTE   N02
 BYTE   W06
 BYTE   N02
 BYTE   W06
 BYTE   N02
 BYTE   W06
//  #03 //057   ----------------------------------------
Label_0100E295:
 BYTE   N02  En2  v080
 BYTE   W06
 BYTE   N02
 BYTE   W06
 BYTE   N02
 BYTE   W06
 BYTE   N02
 BYTE   W06
 BYTE   N02
 BYTE   W06
 BYTE   N02
 BYTE   W06
 BYTE   N02
 BYTE   W06
 BYTE   N02
 BYTE   W06
 BYTE   N02
 BYTE   W06
 BYTE   N02
 BYTE   W06
 BYTE   N02
 BYTE   W06
 BYTE   N02
 BYTE   W06
 BYTE   N02
 BYTE   W06
 BYTE   N02
 BYTE   W06
 BYTE   N02
 BYTE   W06
 BYTE   N02
 BYTE   W06
 BYTE   PEND 
//  #03 //058   ----------------------------------------
 BYTE   PATT
  POIN2 Label_0100E295
//  #03 //059   ----------------------------------------
 BYTE   PATT
  POIN2 Label_0100E295
//  #03 //060   ----------------------------------------
 BYTE   PATT
  POIN2 Label_0100E295
//  #03 //061   ----------------------------------------
 BYTE   PATT
  POIN2 Label_0100E295
//  #03 //062   ----------------------------------------
 BYTE   PATT
  POIN2 Label_0100E295
//  #03 //063   ----------------------------------------
 BYTE   PATT
  POIN2 Label_0100E295
//  #03 //064   ----------------------------------------
 BYTE   N02  En2  v080
 BYTE   W06
 BYTE   N02
 BYTE   W06
 BYTE   N02
 BYTE   W06
 BYTE   N02
 BYTE   W06
 BYTE   N02
 BYTE   W06
 BYTE   N02
 BYTE   W06
 BYTE   N02
 BYTE   W06
 BYTE   N02
 BYTE   W06
 BYTE   N32  Gn2  v052
 BYTE   W36
 BYTE   N11
 BYTE   W12
//  #03 //065   ----------------------------------------
Label_0100E2EE:
 BYTE   N23  Gn2  v052
 BYTE   W24
 BYTE   N23
 BYTE   W24
 BYTE   N32
 BYTE   W36
 BYTE   N11
 BYTE   W12
 BYTE   PEND 
//  #03 //066   ----------------------------------------
 BYTE   PATT
  POIN2 Label_0100E2EE
//  #03 //067   ----------------------------------------
 BYTE   PATT
  POIN2 Label_0100E2EE
//  #03 //068   ----------------------------------------
 BYTE   PATT
  POIN2 Label_0100E2EE
//  #03 //069   ----------------------------------------
 BYTE   PATT
  POIN2 Label_0100E2EE
//  #03 //070   ----------------------------------------
 BYTE   N23  Gn2  v052
 BYTE   W24
 BYTE   N23
 BYTE   W24
 BYTE   N32  Fs2
 BYTE   W36
 BYTE   N11
 BYTE   W12
//  #03 //071   ----------------------------------------
 BYTE   N23
 BYTE   W24
 BYTE   N23
 BYTE   W24
 BYTE   N32
 BYTE   W36
 BYTE   N11
 BYTE   W12
//  #03 //072   ----------------------------------------
 BYTE   N23
 BYTE   W24
 BYTE   N23
 BYTE   W24
 BYTE   N32  En2  v080
 BYTE   W36
 BYTE   N11
 BYTE   W12
//  #03 //073   ----------------------------------------
 BYTE   N23
 BYTE   W24
 BYTE   N23
 BYTE   W24
 BYTE   N32
 BYTE   W36
 BYTE   N11
 BYTE   W12
//  #03 //074   ----------------------------------------
 BYTE   N23
 BYTE   W24
 BYTE   N23
 BYTE   W24
 BYTE   N32  Cn2
 BYTE   W36
 BYTE   N11
 BYTE   W12
//  #03 //075   ----------------------------------------
 BYTE   N23
 BYTE   W24
 BYTE   N23
 BYTE   W24
 BYTE   N32
 BYTE   W36
 BYTE   N11
 BYTE   W12
//  #03 //076   ----------------------------------------
 BYTE   N23
 BYTE   W24
 BYTE   N23
 BYTE   W24
 BYTE   N32  Bn1
 BYTE   W36
 BYTE   N11
 BYTE   W12
//  #03 //077   ----------------------------------------
 BYTE   N23
 BYTE   W24
 BYTE   N23
 BYTE   W24
 BYTE   N32
 BYTE   W36
 BYTE   N11
 BYTE   W12
//  #03 //078   ----------------------------------------
 BYTE   N23
 BYTE   W24
 BYTE   N23
 BYTE   W24
 BYTE   N32  An1
 BYTE   W36
 BYTE   N11
 BYTE   W12
//  #03 //079   ----------------------------------------
 BYTE   N23
 BYTE   W24
 BYTE   N23
 BYTE   W24
 BYTE   N32
 BYTE   W36
 BYTE   N11
 BYTE   W12
//  #03 //080   ----------------------------------------
 BYTE   N23
 BYTE   W24
 BYTE   N23
 BYTE   W72
//  #03 //081   ----------------------------------------
 BYTE   W12
 BYTE   N02  En2
 BYTE   W02
 BYTE   N02
 BYTE   W03
 BYTE   N02
 BYTE   W03
 BYTE   N02
 BYTE   W03
 BYTE   N02
 BYTE   W03
 BYTE   N02
 BYTE   W03
 BYTE   N02
 BYTE   W03
 BYTE   N02
 BYTE   W03
 BYTE   N02
 BYTE   W03
 BYTE   N02
 BYTE   W03
 BYTE   N02
 BYTE   W03
 BYTE   N02
 BYTE   W04
 BYTE   TIE  Gn2  v096
 BYTE   W48
//  #03 //082   ----------------------------------------
 BYTE   W96
//  #03 //083   ----------------------------------------
 BYTE   W44
 BYTE   W03
 BYTE   EOT
 BYTE   W01
 BYTE   TIE  Bn1
 BYTE   W48
//  #03 //084   ----------------------------------------
 BYTE   W96
//  #03 //085   ----------------------------------------
 BYTE   W44
 BYTE   W03
 BYTE   EOT
 BYTE   W01
 BYTE   TIE  En2
 BYTE   W48
//  #03 //086   ----------------------------------------
 BYTE   W96
//  #03 //087   ----------------------------------------
 BYTE   W44
 BYTE   W03
 BYTE   EOT
 BYTE   W01
 BYTE   TIE  Dn2
 BYTE   W48
//  #03 //088   ----------------------------------------
 BYTE   W96
//  #03 //089   ----------------------------------------
 BYTE   W44
 BYTE   W03
 BYTE   EOT
 BYTE   W01
 BYTE   TIE  Gn2
 BYTE   W48
//  #03 //090   ----------------------------------------
 BYTE   W96
//  #03 //091   ----------------------------------------
 BYTE   W44
 BYTE   W03
 BYTE   EOT
 BYTE   W01
 BYTE   TIE  Bn1
 BYTE   W48
//  #03 //092   ----------------------------------------
 BYTE   W96
//  #03 //093   ----------------------------------------
 BYTE   W44
 BYTE   W03
 BYTE   EOT
 BYTE   W01
 BYTE   N92  Cn2
 BYTE   W48
//  #03 //094   ----------------------------------------
 BYTE   W48
 BYTE   Dn2
 BYTE   W48
//  #03 //095   ----------------------------------------
 BYTE   W48
 BYTE   N32  En2
 BYTE   W36
 BYTE   Fs2
 BYTE   W12
//  #03 //096   ----------------------------------------
Label_0100E3C0:
 BYTE   W24
 BYTE   TIE  Gn2  v096
 BYTE   W72
 BYTE   PEND 
//  #03 //097   ----------------------------------------
 BYTE   W44
 BYTE   W03
 BYTE   EOT
 BYTE   W01
 BYTE   TIE
 BYTE   W48
//  #03 //098   ----------------------------------------
 BYTE   W96
//  #03 //099   ----------------------------------------
 BYTE   W44
 BYTE   W03
 BYTE   EOT
 BYTE   W01
 BYTE   TIE  Bn1
 BYTE   W48
//  #03 //100   ----------------------------------------
 BYTE   W96
//  #03 //101   ----------------------------------------
 BYTE   W44
 BYTE   W03
 BYTE   EOT
 BYTE   W01
 BYTE   TIE  En2
 BYTE   W48
//  #03 //102   ----------------------------------------
 BYTE   W96
//  #03 //103   ----------------------------------------
 BYTE   W44
 BYTE   W03
 BYTE   EOT
 BYTE   W01
 BYTE   TIE  Dn2
 BYTE   W48
//  #03 //104   ----------------------------------------
 BYTE   W96
//  #03 //105   ----------------------------------------
 BYTE   W44
 BYTE   W03
 BYTE   EOT
 BYTE   W01
 BYTE   TIE  Gn2
 BYTE   W48
//  #03 //106   ----------------------------------------
 BYTE   W96
//  #03 //107   ----------------------------------------
 BYTE   W44
 BYTE   W03
 BYTE   EOT
 BYTE   W01
 BYTE   TIE  Bn1
 BYTE   W48
//  #03 //108   ----------------------------------------
 BYTE   W96
//  #03 //109   ----------------------------------------
 BYTE   W44
 BYTE   W03
 BYTE   EOT
 BYTE   W01
 BYTE   TIE  En2
 BYTE   W48
//  #03 //110   ----------------------------------------
 BYTE   W96
//  #03 //111   ----------------------------------------
 BYTE   W44
 BYTE   W03
 BYTE   EOT
 BYTE   W01
 BYTE   N32
 BYTE   W36
 BYTE   Fs2
 BYTE   W12
//  #03 //112   ----------------------------------------
 BYTE   PATT
  POIN2 Label_0100E3C0
//  #03 //113   ----------------------------------------
 BYTE   W44
 BYTE   W03
 BYTE   EOT
 BYTE   Gn2
 BYTE   W01
 BYTE   N02  En2  v096
 BYTE   W06
 BYTE   N02
 BYTE   W06
 BYTE   N02
 BYTE   W06
 BYTE   N02
 BYTE   W06
 BYTE   N02
 BYTE   W06
 BYTE   N02
 BYTE   W06
 BYTE   N02
 BYTE   W06
 BYTE   N02
 BYTE   W06
//  #03 //114   ----------------------------------------
Label_0100E421:
 BYTE   N02  En2  v096
 BYTE   W06
 BYTE   N02
 BYTE   W06
 BYTE   N02
 BYTE   W06
 BYTE   N02
 BYTE   W06
 BYTE   N02
 BYTE   W06
 BYTE   N02
 BYTE   W06
 BYTE   N02
 BYTE   W06
 BYTE   N02
 BYTE   W06
 BYTE   N02
 BYTE   W06
 BYTE   N02
 BYTE   W06
 BYTE   N02
 BYTE   W06
 BYTE   N02
 BYTE   W06
 BYTE   N02
 BYTE   W06
 BYTE   N02
 BYTE   W06
 BYTE   N02
 BYTE   W06
 BYTE   N02
 BYTE   W06
 BYTE   PEND 
//  #03 //115   ----------------------------------------
 BYTE   PATT
  POIN2 Label_0100E421
//  #03 //116   ----------------------------------------
 BYTE   PATT
  POIN2 Label_0100E421
//  #03 //117   ----------------------------------------
 BYTE   PATT
  POIN2 Label_0100E421
//  #03 //118   ----------------------------------------
 BYTE   PATT
  POIN2 Label_0100E421
//  #03 //119   ----------------------------------------
 BYTE   PATT
  POIN2 Label_0100E421
//  #03 //120   ----------------------------------------
 BYTE   PATT
  POIN2 Label_0100E421
//  #03 //121   ----------------------------------------
 BYTE   N02  En2  v096
 BYTE   W06
 BYTE   N02
 BYTE   W06
 BYTE   N02
 BYTE   W06
 BYTE   N02
 BYTE   W06
 BYTE   N02
 BYTE   W06
 BYTE   N02
 BYTE   W06
 BYTE   N02
 BYTE   W06
 BYTE   N02
 BYTE   W06
 BYTE   GoTo
  POIN2 Label_0100E163
//  #03 //122   ----------------------------------------
 BYTE   W48
 BYTE   W96
//  #03 //123   ----------------------------------------
 BYTE   W96
//  #03 //124   ----------------------------------------
 BYTE   W96
//  #03 //125   ----------------------------------------
 BYTE   W44
 BYTE   W03
 BYTE   FINE

//**************** Track 4 (Midi-Chn.3) ****************//

Uncontrollable_004:
//  #04 //000   ----------------------------------------
 BYTE   KEYSH   Uncontrollable_key+0
 BYTE   VOICE   29
 BYTE   VOL   32*Uncontrollable_mvl/mxv
 BYTE   PAN   c_v+0
 BYTE   W48
 BYTE   N11  En1  v112
 BYTE   W12
 BYTE   Dn1
 BYTE   W12
 BYTE   N23  En1
 BYTE   W24
//  #04 //001   ----------------------------------------
Label_0100C23E:
 BYTE   N11  En1  v112
 BYTE   W12
 BYTE   N23
 BYTE   W24
 BYTE   N11  Dn1
 BYTE   W12
 BYTE   En1
 BYTE   W12
 BYTE   Dn1
 BYTE   W12
 BYTE   N23  En1
 BYTE   W24
 BYTE   PEND 
//  #04 //002   ----------------------------------------
Label_0100C24F:
 BYTE   N11  En1  v112
 BYTE   W12
 BYTE   N23
 BYTE   W24
 BYTE   N11  Dn1
 BYTE   W12
 BYTE   An1
 BYTE   W12
 BYTE   Gn1
 BYTE   W12
 BYTE   N23  An1
 BYTE   W24
 BYTE   PEND 
//  #04 //003   ----------------------------------------
Label_0100C260:
 BYTE   N11  An1  v112
 BYTE   W12
 BYTE   N23
 BYTE   W24
 BYTE   N11  Gn1
 BYTE   W12
 BYTE   An1
 BYTE   W12
 BYTE   Gn1
 BYTE   W12
 BYTE   N23  An1
 BYTE   W24
 BYTE   PEND 
//  #04 //004   ----------------------------------------
Label_0100C271:
 BYTE   N11  An1  v112
 BYTE   W12
 BYTE   N23
 BYTE   W24
 BYTE   N11  Gn1
 BYTE   W12
 BYTE   Cn2
 BYTE   W12
 BYTE   N11
 BYTE   W12
 BYTE   N23
 BYTE   W24
 BYTE   PEND 
//  #04 //005   ----------------------------------------
Label_0100C281:
 BYTE   N11  Cn2  v112
 BYTE   W12
 BYTE   N23
 BYTE   W24
 BYTE   N11
 BYTE   W12
 BYTE   N11
 BYTE   W12
 BYTE   N11
 BYTE   W12
 BYTE   N23
 BYTE   W24
 BYTE   PEND 
//  #04 //006   ----------------------------------------
Label_0100C290:
 BYTE   N11  Cn2  v112
 BYTE   W12
 BYTE   N23
 BYTE   W24
 BYTE   N11
 BYTE   W12
 BYTE   An1
 BYTE   W12
 BYTE   N11
 BYTE   W12
 BYTE   N23
 BYTE   W24
 BYTE   PEND 
//  #04 //007   ----------------------------------------
Label_0100C29F:
 BYTE   N11  An1  v112
 BYTE   W12
 BYTE   N23
 BYTE   W24
 BYTE   N11
 BYTE   W12
 BYTE   Bn1
 BYTE   W12
 BYTE   N11
 BYTE   W12
 BYTE   N23
 BYTE   W24
 BYTE   PEND 
//  #04 //008   ----------------------------------------
 BYTE   N11
 BYTE   W12
 BYTE   N23
 BYTE   W24
 BYTE   N11
 BYTE   W12
 BYTE   En1
 BYTE   W12
 BYTE   Dn1
 BYTE   W12
 BYTE   N23  En1
 BYTE   W24
//  #04 //009   ----------------------------------------
 BYTE   PATT
  POIN2 Label_0100C23E
//  #04 //010   ----------------------------------------
 BYTE   PATT
  POIN2 Label_0100C24F
//  #04 //011   ----------------------------------------
 BYTE   PATT
  POIN2 Label_0100C260
//  #04 //012   ----------------------------------------
 BYTE   PATT
  POIN2 Label_0100C271
//  #04 //013   ----------------------------------------
 BYTE   PATT
  POIN2 Label_0100C281
//  #04 //014   ----------------------------------------
 BYTE   PATT
  POIN2 Label_0100C290
//  #04 //015   ----------------------------------------
 BYTE   PATT
  POIN2 Label_0100C29F
//  #04 //016   ----------------------------------------
 BYTE   N11  Bn1  v112
 BYTE   W12
 BYTE   N23
 BYTE   W24
 BYTE   N11
 BYTE   W12
Label_0100C2E6:
 BYTE   N11  En1  v064
 BYTE   W24
 BYTE   N05
 BYTE   W12
 BYTE   N11
 BYTE   W12
//  #04 //017   ----------------------------------------
Label_0100C2EE:
 BYTE   W12
 BYTE   N11  En1  v064
 BYTE   W12
 BYTE   N05
 BYTE   W06
 BYTE   N05
 BYTE   W18
 BYTE   N11
 BYTE   W24
 BYTE   N05
 BYTE   W12
 BYTE   N11
 BYTE   W12
 BYTE   PEND 
//  #04 //018   ----------------------------------------
 BYTE   PATT
  POIN2 Label_0100C2EE
//  #04 //019   ----------------------------------------
 BYTE   PATT
  POIN2 Label_0100C2EE
//  #04 //020   ----------------------------------------
 BYTE   W12
 BYTE   N11  En1  v064
 BYTE   W12
 BYTE   N05
 BYTE   W06
 BYTE   N05
 BYTE   W18
 BYTE   N11  Dn1
 BYTE   W24
 BYTE   N05
 BYTE   W12
 BYTE   N11
 BYTE   W12
//  #04 //021   ----------------------------------------
 BYTE   W12
 BYTE   N11
 BYTE   W12
 BYTE   N05
 BYTE   W06
 BYTE   N05
 BYTE   W18
 BYTE   N11
 BYTE   W24
 BYTE   N05
 BYTE   W12
 BYTE   N11
 BYTE   W12
//  #04 //022   ----------------------------------------
 BYTE   W12
 BYTE   N11
 BYTE   W12
 BYTE   N05
 BYTE   W06
 BYTE   N05
 BYTE   W18
 BYTE   N11  Cn1
 BYTE   W24
 BYTE   N05
 BYTE   W12
 BYTE   N11
 BYTE   W12
//  #04 //023   ----------------------------------------
 BYTE   W12
 BYTE   N11
 BYTE   W12
 BYTE   N05
 BYTE   W06
 BYTE   N05
 BYTE   W18
 BYTE   N11  Dn1
 BYTE   W24
 BYTE   N05
 BYTE   W12
 BYTE   N11
 BYTE   W12
//  #04 //024   ----------------------------------------
 BYTE   W12
 BYTE   N11
 BYTE   W12
 BYTE   N05
 BYTE   W06
 BYTE   N05
 BYTE   W18
 BYTE   En1  v096
 BYTE   N05  En2
 BYTE   W06
 BYTE   En1  v080
 BYTE   N05  En2
 BYTE   W06
 BYTE   En1
 BYTE   N05  En2
 BYTE   W06
 BYTE   En1
 BYTE   N05  En2
 BYTE   W06
 BYTE   En1  v096
 BYTE   N05  En2
 BYTE   W06
 BYTE   En1  v080
 BYTE   N05  En2
 BYTE   W06
 BYTE   En1
 BYTE   N05  En2
 BYTE   W06
 BYTE   En1
 BYTE   N05  En2
 BYTE   W06
//  #04 //025   ----------------------------------------
Label_0100C36C:
 BYTE   N05  En1  v096
 BYTE   N05  En2
 BYTE   W06
 BYTE   En1  v080
 BYTE   N05  En2
 BYTE   W06
 BYTE   En1
 BYTE   N05  En2
 BYTE   W06
 BYTE   En1
 BYTE   N05  En2
 BYTE   W06
 BYTE   En1  v096
 BYTE   N05  En2
 BYTE   W06
 BYTE   En1  v080
 BYTE   N05  En2
 BYTE   W06
 BYTE   En1
 BYTE   N05  En2
 BYTE   W06
 BYTE   En1
 BYTE   N05  En2
 BYTE   W06
 BYTE   En1  v096
 BYTE   N05  En2
 BYTE   W06
 BYTE   En1  v080
 BYTE   N05  En2
 BYTE   W06
 BYTE   En1
 BYTE   N05  En2
 BYTE   W06
 BYTE   En1
 BYTE   N05  En2
 BYTE   W06
 BYTE   En1  v096
 BYTE   N05  En2
 BYTE   W06
 BYTE   En1  v080
 BYTE   N05  En2
 BYTE   W06
 BYTE   En1
 BYTE   N05  En2
 BYTE   W06
 BYTE   En1
 BYTE   N05  En2
 BYTE   W06
 BYTE   PEND 
//  #04 //026   ----------------------------------------
 BYTE   PATT
  POIN2 Label_0100C36C
//  #04 //027   ----------------------------------------
 BYTE   PATT
  POIN2 Label_0100C36C
//  #04 //028   ----------------------------------------
 BYTE   N05  En1  v096
 BYTE   N05  En2
 BYTE   W06
 BYTE   En1  v080
 BYTE   N05  En2
 BYTE   W06
 BYTE   En1
 BYTE   N05  En2
 BYTE   W06
 BYTE   En1
 BYTE   N05  En2
 BYTE   W06
 BYTE   En1  v096
 BYTE   N05  En2
 BYTE   W06
 BYTE   En1  v080
 BYTE   N05  En2
 BYTE   W06
 BYTE   En1
 BYTE   N05  En2
 BYTE   W06
 BYTE   En1
 BYTE   N05  En2
 BYTE   W06
 BYTE   Dn1  v096
 BYTE   N05  Dn2
 BYTE   W06
 BYTE   Dn1  v080
 BYTE   N05  Dn2
 BYTE   W06
 BYTE   Dn1
 BYTE   N05  Dn2
 BYTE   W06
 BYTE   Dn1
 BYTE   N05  Dn2
 BYTE   W06
 BYTE   Dn1  v096
 BYTE   N05  Dn2
 BYTE   W06
 BYTE   Dn1  v080
 BYTE   N05  Dn2
 BYTE   W06
 BYTE   Dn1
 BYTE   N05  Dn2
 BYTE   W06
 BYTE   Dn1
 BYTE   N05  Dn2
 BYTE   W06
//  #04 //029   ----------------------------------------
 BYTE   Dn1  v096
 BYTE   N05  Dn2
 BYTE   W06
 BYTE   Dn1  v080
 BYTE   N05  Dn2
 BYTE   W06
 BYTE   Dn1
 BYTE   N05  Dn2
 BYTE   W06
 BYTE   Dn1
 BYTE   N05  Dn2
 BYTE   W06
 BYTE   Dn1  v096
 BYTE   N05  Dn2
 BYTE   W06
 BYTE   Dn1  v080
 BYTE   N05  Dn2
 BYTE   W06
 BYTE   Dn1
 BYTE   N05  Dn2
 BYTE   W06
 BYTE   Dn1
 BYTE   N05  Dn2
 BYTE   W06
 BYTE   Dn1  v096
 BYTE   N05  Dn2
 BYTE   W06
 BYTE   Dn1  v080
 BYTE   N05  Dn2
 BYTE   W06
 BYTE   Dn1
 BYTE   N05  Dn2
 BYTE   W06
 BYTE   Dn1
 BYTE   N05  Dn2
 BYTE   W06
 BYTE   Dn1  v096
 BYTE   N05  Dn2
 BYTE   W06
 BYTE   Dn1  v080
 BYTE   N05  Dn2
 BYTE   W06
 BYTE   Dn1
 BYTE   N05  Dn2
 BYTE   W06
 BYTE   Dn1
 BYTE   N05  Dn2
 BYTE   W06
//  #04 //030   ----------------------------------------
 BYTE   Dn1  v096
 BYTE   N05  Dn2
 BYTE   W06
 BYTE   Dn1  v080
 BYTE   N05  Dn2
 BYTE   W06
 BYTE   Dn1
 BYTE   N05  Dn2
 BYTE   W06
 BYTE   Dn1
 BYTE   N05  Dn2
 BYTE   W06
 BYTE   Dn1  v096
 BYTE   N05  Dn2
 BYTE   W06
 BYTE   Dn1  v080
 BYTE   N05  Dn2
 BYTE   W06
 BYTE   Dn1
 BYTE   N05  Dn2
 BYTE   W06
 BYTE   Dn1
 BYTE   N05  Dn2
 BYTE   W06
 BYTE   Cn1  v096
 BYTE   N05  Cn2
 BYTE   W06
 BYTE   Cn1  v080
 BYTE   N05  Cn2
 BYTE   W06
 BYTE   Cn1
 BYTE   N05  Cn2
 BYTE   W06
 BYTE   Cn1
 BYTE   N05  Cn2
 BYTE   W06
 BYTE   Cn1  v096
 BYTE   N05  Cn2
 BYTE   W06
 BYTE   Cn1  v080
 BYTE   N05  Cn2
 BYTE   W06
 BYTE   Cn1
 BYTE   N05  Cn2
 BYTE   W06
 BYTE   Cn1
 BYTE   N05  Cn2
 BYTE   W06
//  #04 //031   ----------------------------------------
 BYTE   Cn1  v096
 BYTE   N05  Cn2
 BYTE   W06
 BYTE   Cn1  v080
 BYTE   N05  Cn2
 BYTE   W06
 BYTE   Cn1
 BYTE   N05  Cn2
 BYTE   W06
 BYTE   Cn1
 BYTE   N05  Cn2
 BYTE   W06
 BYTE   Cn1  v096
 BYTE   N05  Cn2
 BYTE   W06
 BYTE   Cn1  v080
 BYTE   N05  Cn2
 BYTE   W06
 BYTE   Cn1
 BYTE   N05  Cn2
 BYTE   W06
 BYTE   Cn1
 BYTE   N05  Cn2
 BYTE   W06
 BYTE   Dn1  v096
 BYTE   N05  Dn2
 BYTE   W06
 BYTE   Dn1  v080
 BYTE   N05  Dn2
 BYTE   W06
 BYTE   Dn1
 BYTE   N05  Dn2
 BYTE   W06
 BYTE   Dn1
 BYTE   N05  Dn2
 BYTE   W06
 BYTE   Dn1  v096
 BYTE   N05  Dn2
 BYTE   W06
 BYTE   Dn1  v080
 BYTE   N05  Dn2
 BYTE   W06
 BYTE   Dn1
 BYTE   N05  Dn2
 BYTE   W06
 BYTE   Dn1
 BYTE   N05  Dn2
 BYTE   W06
//  #04 //032   ----------------------------------------
 BYTE   Dn1  v096
 BYTE   N05  Dn2
 BYTE   W06
 BYTE   Dn1  v080
 BYTE   N05  Dn2
 BYTE   W06
 BYTE   Dn1
 BYTE   N05  Dn2
 BYTE   W06
 BYTE   Dn1
 BYTE   N05  Dn2
 BYTE   W06
 BYTE   Dn1  v096
 BYTE   N05  Dn2
 BYTE   W06
 BYTE   Dn1  v080
 BYTE   N05  Dn2
 BYTE   W06
 BYTE   Dn1
 BYTE   N05  Dn2
 BYTE   W06
 BYTE   Dn1
 BYTE   N05  Dn2
 BYTE   W06
 BYTE   Gn1  v060
 BYTE   W06
 BYTE   Gn1  v052
 BYTE   W06
 BYTE   N05
 BYTE   W06
 BYTE   N05
 BYTE   W06
 BYTE   Gn1  v060
 BYTE   W06
 BYTE   Gn1  v052
 BYTE   W06
 BYTE   N05
 BYTE   W06
 BYTE   N05
 BYTE   W06
//  #04 //033   ----------------------------------------
Label_0100C519:
 BYTE   N05  Gn1  v060
 BYTE   W06
 BYTE   Gn1  v052
 BYTE   W06
 BYTE   N05
 BYTE   W06
 BYTE   N05
 BYTE   W06
 BYTE   Gn1  v060
 BYTE   W06
 BYTE   Gn1  v052
 BYTE   W06
 BYTE   N05
 BYTE   W06
 BYTE   N05
 BYTE   W06
 BYTE   Gn1  v060
 BYTE   W06
 BYTE   Gn1  v052
 BYTE   W06
 BYTE   N05
 BYTE   W06
 BYTE   N05
 BYTE   W06
 BYTE   Gn1  v060
 BYTE   W06
 BYTE   Gn1  v052
 BYTE   W06
 BYTE   N05
 BYTE   W06
 BYTE   N05
 BYTE   W06
 BYTE   PEND 
//  #04 //034   ----------------------------------------
 BYTE   PATT
  POIN2 Label_0100C519
//  #04 //035   ----------------------------------------
 BYTE   PATT
  POIN2 Label_0100C519
//  #04 //036   ----------------------------------------
 BYTE   PATT
  POIN2 Label_0100C519
//  #04 //037   ----------------------------------------
 BYTE   PATT
  POIN2 Label_0100C519
//  #04 //038   ----------------------------------------
 BYTE   PATT
  POIN2 Label_0100C519
//  #04 //039   ----------------------------------------
 BYTE   N05  Gn1  v060
 BYTE   W06
 BYTE   Gn1  v052
 BYTE   W06
 BYTE   N05
 BYTE   W06
 BYTE   N05
 BYTE   W06
 BYTE   Gn1  v060
 BYTE   W06
 BYTE   Gn1  v052
 BYTE   W06
 BYTE   N05
 BYTE   W06
 BYTE   N05
 BYTE   W54
//  #04 //040   ----------------------------------------
 BYTE   W48
 BYTE   En1  v080
 BYTE   W06
 BYTE   N05
 BYTE   W06
 BYTE   N05
 BYTE   W06
 BYTE   N05
 BYTE   W06
 BYTE   N05
 BYTE   W06
 BYTE   N05
 BYTE   W06
 BYTE   N05
 BYTE   W06
 BYTE   N05
 BYTE   W06
//  #04 //041   ----------------------------------------
Label_0100C583:
 BYTE   N05  En1  v080
 BYTE   W06
 BYTE   N05
 BYTE   W06
 BYTE   N05
 BYTE   W06
 BYTE   N05
 BYTE   W06
 BYTE   N05
 BYTE   W06
 BYTE   N05
 BYTE   W06
 BYTE   N05
 BYTE   W06
 BYTE   N05
 BYTE   W06
 BYTE   N05
 BYTE   W06
 BYTE   N05
 BYTE   W06
 BYTE   N05
 BYTE   W06
 BYTE   N05
 BYTE   W06
 BYTE   N05
 BYTE   W06
 BYTE   N05
 BYTE   W06
 BYTE   N05
 BYTE   W06
 BYTE   N05
 BYTE   W06
 BYTE   PEND 
//  #04 //042   ----------------------------------------
Label_0100C5A6:
 BYTE   N05  En1  v080
 BYTE   W06
 BYTE   N05
 BYTE   W06
 BYTE   N05
 BYTE   W06
 BYTE   N05
 BYTE   W06
 BYTE   N05
 BYTE   W06
 BYTE   N05
 BYTE   W06
 BYTE   N05
 BYTE   W06
 BYTE   N05
 BYTE   W06
 BYTE   Cn1
 BYTE   W06
 BYTE   N05
 BYTE   W06
 BYTE   N05
 BYTE   W06
 BYTE   N05
 BYTE   W06
 BYTE   N05
 BYTE   W06
 BYTE   N05
 BYTE   W06
 BYTE   N05
 BYTE   W06
 BYTE   N05
 BYTE   W06
 BYTE   PEND 
//  #04 //043   ----------------------------------------
Label_0100C5C9:
 BYTE   N05  Cn1  v080
 BYTE   W06
 BYTE   N05
 BYTE   W06
 BYTE   N05
 BYTE   W06
 BYTE   N05
 BYTE   W06
 BYTE   N05
 BYTE   W06
 BYTE   N05
 BYTE   W06
 BYTE   N05
 BYTE   W06
 BYTE   N05
 BYTE   W06
 BYTE   N05
 BYTE   W06
 BYTE   N05
 BYTE   W06
 BYTE   N05
 BYTE   W06
 BYTE   N05
 BYTE   W06
 BYTE   N05
 BYTE   W06
 BYTE   N05
 BYTE   W06
 BYTE   N05
 BYTE   W06
 BYTE   N05
 BYTE   W06
 BYTE   PEND 
//  #04 //044   ----------------------------------------
Label_0100C5EC:
 BYTE   N05  Cn1  v080
 BYTE   W06
 BYTE   N05
 BYTE   W06
 BYTE   N05
 BYTE   W06
 BYTE   N05
 BYTE   W06
 BYTE   N05
 BYTE   W06
 BYTE   N05
 BYTE   W06
 BYTE   N05
 BYTE   W06
 BYTE   N05
 BYTE   W06
 BYTE   Dn1
 BYTE   W06
 BYTE   N05
 BYTE   W06
 BYTE   N05
 BYTE   W06
 BYTE   N05
 BYTE   W06
 BYTE   N05
 BYTE   W06
 BYTE   N05
 BYTE   W06
 BYTE   N05
 BYTE   W06
 BYTE   N05
 BYTE   W06
 BYTE   PEND 
//  #04 //045   ----------------------------------------
Label_0100C60F:
 BYTE   N05  Dn1  v080
 BYTE   W06
 BYTE   N05
 BYTE   W06
 BYTE   N05
 BYTE   W06
 BYTE   N05
 BYTE   W06
 BYTE   N05
 BYTE   W06
 BYTE   N05
 BYTE   W06
 BYTE   N05
 BYTE   W06
 BYTE   N05
 BYTE   W06
 BYTE   N05
 BYTE   W06
 BYTE   N05
 BYTE   W06
 BYTE   N05
 BYTE   W06
 BYTE   N05
 BYTE   W06
 BYTE   N05
 BYTE   W06
 BYTE   N05
 BYTE   W06
 BYTE   N05
 BYTE   W06
 BYTE   N05
 BYTE   W06
 BYTE   PEND 
//  #04 //046   ----------------------------------------
 BYTE   N05
 BYTE   W06
 BYTE   N05
 BYTE   W06
 BYTE   N05
 BYTE   W06
 BYTE   N05
 BYTE   W06
 BYTE   N05
 BYTE   W06
 BYTE   N05
 BYTE   W06
 BYTE   N05
 BYTE   W06
 BYTE   N05
 BYTE   W06
 BYTE   Bn0
 BYTE   W06
 BYTE   N05
 BYTE   W06
 BYTE   N05
 BYTE   W06
 BYTE   N05
 BYTE   W06
 BYTE   N05
 BYTE   W06
 BYTE   N05
 BYTE   W06
 BYTE   N05
 BYTE   W06
 BYTE   N05
 BYTE   W06
//  #04 //047   ----------------------------------------
 BYTE   N05
 BYTE   W06
 BYTE   N05
 BYTE   W06
 BYTE   N05
 BYTE   W06
 BYTE   N05
 BYTE   W06
 BYTE   N05
 BYTE   W06
 BYTE   N05
 BYTE   W06
 BYTE   N05
 BYTE   W06
 BYTE   N05
 BYTE   W06
 BYTE   An0
 BYTE   W06
 BYTE   N05
 BYTE   W06
 BYTE   N05
 BYTE   W06
 BYTE   N05
 BYTE   W06
 BYTE   N05
 BYTE   W06
 BYTE   N05
 BYTE   W06
 BYTE   N05
 BYTE   W06
 BYTE   N05
 BYTE   W06
//  #04 //048   ----------------------------------------
 BYTE   N05
 BYTE   W06
 BYTE   N05
 BYTE   W06
 BYTE   N05
 BYTE   W06
 BYTE   N05
 BYTE   W06
 BYTE   N05
 BYTE   W06
 BYTE   N05
 BYTE   W06
 BYTE   N05
 BYTE   W06
 BYTE   N05
 BYTE   W06
 BYTE   En1
 BYTE   W06
 BYTE   N05
 BYTE   W06
 BYTE   N05
 BYTE   W06
 BYTE   N05
 BYTE   W06
 BYTE   N05
 BYTE   W06
 BYTE   N05
 BYTE   W06
 BYTE   N05
 BYTE   W06
 BYTE   N05
 BYTE   W06
//  #04 //049   ----------------------------------------
 BYTE   PATT
  POIN2 Label_0100C583
//  #04 //050   ----------------------------------------
 BYTE   PATT
  POIN2 Label_0100C5A6
//  #04 //051   ----------------------------------------
 BYTE   PATT
  POIN2 Label_0100C5C9
//  #04 //052   ----------------------------------------
 BYTE   PATT
  POIN2 Label_0100C5EC
//  #04 //053   ----------------------------------------
 BYTE   PATT
  POIN2 Label_0100C60F
//  #04 //054   ----------------------------------------
 BYTE   N05  Dn1  v080
 BYTE   W06
 BYTE   N05
 BYTE   W06
 BYTE   N05
 BYTE   W06
 BYTE   N05
 BYTE   W06
 BYTE   N05
 BYTE   W06
 BYTE   N05
 BYTE   W06
 BYTE   N05
 BYTE   W06
 BYTE   N05
 BYTE   W06
 BYTE   An0
 BYTE   W06
 BYTE   N05
 BYTE   W06
 BYTE   N05
 BYTE   W06
 BYTE   N05
 BYTE   W06
 BYTE   N05
 BYTE   W06
 BYTE   N05
 BYTE   W06
 BYTE   N05
 BYTE   W06
 BYTE   N05
 BYTE   W06
//  #04 //055   ----------------------------------------
 BYTE   N05
 BYTE   W06
 BYTE   N05
 BYTE   W06
 BYTE   N05
 BYTE   W06
 BYTE   N05
 BYTE   W06
 BYTE   N05
 BYTE   W06
 BYTE   N05
 BYTE   W06
 BYTE   N05
 BYTE   W06
 BYTE   N05
 BYTE   W06
 BYTE   Bn0
 BYTE   W06
 BYTE   N05
 BYTE   W06
 BYTE   N05
 BYTE   W06
 BYTE   N05
 BYTE   W06
 BYTE   N05
 BYTE   W06
 BYTE   N05
 BYTE   W06
 BYTE   N05
 BYTE   W06
 BYTE   N05
 BYTE   W06
//  #04 //056   ----------------------------------------
 BYTE   N05
 BYTE   W06
 BYTE   N05
 BYTE   W06
 BYTE   N05
 BYTE   W06
 BYTE   N05
 BYTE   W06
 BYTE   N05
 BYTE   W06
 BYTE   N05
 BYTE   W06
 BYTE   N05
 BYTE   W06
 BYTE   N05
 BYTE   W54
//  #04 //057   ----------------------------------------
 BYTE   W96
//  #04 //058   ----------------------------------------
 BYTE   W96
//  #04 //059   ----------------------------------------
 BYTE   W96
//  #04 //060   ----------------------------------------
 BYTE   W48
 BYTE   N02  En1  v096
 BYTE   W06
 BYTE   N02
 BYTE   W06
 BYTE   N02
 BYTE   W06
 BYTE   N02
 BYTE   W06
 BYTE   N02
 BYTE   W06
 BYTE   N02
 BYTE   W06
 BYTE   N02
 BYTE   W06
 BYTE   N02
 BYTE   W06
//  #04 //061   ----------------------------------------
Label_0100C713:
 BYTE   N02  En1  v096
 BYTE   W06
 BYTE   N02
 BYTE   W06
 BYTE   N02
 BYTE   W06
 BYTE   N02
 BYTE   W06
 BYTE   N02
 BYTE   W06
 BYTE   N02
 BYTE   W06
 BYTE   N02
 BYTE   W06
 BYTE   N02
 BYTE   W06
 BYTE   N02
 BYTE   W06
 BYTE   N02
 BYTE   W06
 BYTE   N02
 BYTE   W06
 BYTE   N02
 BYTE   W06
 BYTE   N02
 BYTE   W06
 BYTE   N02
 BYTE   W06
 BYTE   N02
 BYTE   W06
 BYTE   N02
 BYTE   W06
 BYTE   PEND 
//  #04 //062   ----------------------------------------
 BYTE   PATT
  POIN2 Label_0100C713
//  #04 //063   ----------------------------------------
 BYTE   PATT
  POIN2 Label_0100C713
//  #04 //064   ----------------------------------------
 BYTE   N02  En1  v096
 BYTE   W06
 BYTE   N02
 BYTE   W06
 BYTE   N02
 BYTE   W06
 BYTE   N02
 BYTE   W06
 BYTE   N02
 BYTE   W06
 BYTE   N02
 BYTE   W06
 BYTE   N02
 BYTE   W06
 BYTE   N02
 BYTE   W54
//  #04 //065   ----------------------------------------
 BYTE   W96
//  #04 //066   ----------------------------------------
 BYTE   W96
//  #04 //067   ----------------------------------------
 BYTE   W96
//  #04 //068   ----------------------------------------
 BYTE   W96
//  #04 //069   ----------------------------------------
 BYTE   W96
//  #04 //070   ----------------------------------------
 BYTE   W96
//  #04 //071   ----------------------------------------
 BYTE   W96
//  #04 //072   ----------------------------------------
 BYTE   W48
 BYTE   N07  Bn0  v116
 BYTE   N07  En1
 BYTE   N07  Gn1
 BYTE   W12
 BYTE   Bn0
 BYTE   N07  En1
 BYTE   N07  Gn1
 BYTE   W12
 BYTE   Bn0
 BYTE   N07  En1
 BYTE   N07  Gn1
 BYTE   W12
 BYTE   Bn0
 BYTE   N07  En1
 BYTE   N07  Gn1
 BYTE   W12
//  #04 //073   ----------------------------------------
 BYTE   Bn0
 BYTE   N07  En1
 BYTE   N07  Gn1
 BYTE   W12
 BYTE   Bn0
 BYTE   N07  En1
 BYTE   N07  Gn1
 BYTE   W12
 BYTE   Bn0
 BYTE   N07  En1
 BYTE   N07  Gn1
 BYTE   W12
 BYTE   Bn0
 BYTE   N07  En1
 BYTE   N07  Gn1
 BYTE   W12
 BYTE   Bn0
 BYTE   N07  En1
 BYTE   N07  Gn1
 BYTE   W12
 BYTE   Bn0
 BYTE   N07  En1
 BYTE   N07  Gn1
 BYTE   W12
 BYTE   Bn0
 BYTE   N07  En1
 BYTE   N07  Gn1
 BYTE   W12
 BYTE   Bn0
 BYTE   N07  En1
 BYTE   N07  Gn1
 BYTE   W12
//  #04 //074   ----------------------------------------
 BYTE   Bn0
 BYTE   N07  En1
 BYTE   N07  Gn1
 BYTE   W12
 BYTE   Bn0
 BYTE   N07  En1
 BYTE   N07  Gn1
 BYTE   W12
 BYTE   Bn0
 BYTE   N07  En1
 BYTE   N07  Gn1
 BYTE   W12
 BYTE   Bn0
 BYTE   N07  En1
 BYTE   N07  Gn1
 BYTE   W12
 BYTE   Cn1
 BYTE   N07  En1
 BYTE   N07  Gn1
 BYTE   W12
 BYTE   Cn1
 BYTE   N07  En1
 BYTE   N07  Gn1
 BYTE   W12
 BYTE   Cn1
 BYTE   N07  En1
 BYTE   N07  Gn1
 BYTE   W12
 BYTE   Cn1
 BYTE   N07  En1
 BYTE   N07  Gn1
 BYTE   W12
//  #04 //075   ----------------------------------------
 BYTE   Cn1
 BYTE   N07  En1
 BYTE   N07  Gn1
 BYTE   W12
 BYTE   Cn1
 BYTE   N07  En1
 BYTE   N07  Gn1
 BYTE   W12
 BYTE   Cn1
 BYTE   N07  En1
 BYTE   N07  Gn1
 BYTE   W12
 BYTE   Cn1
 BYTE   N07  En1
 BYTE   N07  Gn1
 BYTE   W12
 BYTE   Cn1
 BYTE   N07  En1
 BYTE   N07  Gn1
 BYTE   W12
 BYTE   Cn1
 BYTE   N07  En1
 BYTE   N07  Gn1
 BYTE   W12
 BYTE   Cn1
 BYTE   N07  En1
 BYTE   N07  Gn1
 BYTE   W12
 BYTE   Cn1
 BYTE   N07  En1
 BYTE   N07  Gn1
 BYTE   W12
//  #04 //076   ----------------------------------------
 BYTE   Cn1
 BYTE   N07  En1
 BYTE   N07  Gn1
 BYTE   W12
 BYTE   Cn1
 BYTE   N07  En1
 BYTE   N07  Gn1
 BYTE   W12
 BYTE   Cn1
 BYTE   N07  En1
 BYTE   N07  Gn1
 BYTE   W12
 BYTE   Cn1
 BYTE   N07  En1
 BYTE   N07  Gn1
 BYTE   W12
 BYTE   Bn0
 BYTE   N07  Dn1
 BYTE   N07  Gn1
 BYTE   W12
 BYTE   Bn0
 BYTE   N07  Dn1
 BYTE   N07  Gn1
 BYTE   W12
 BYTE   Bn0
 BYTE   N07  Dn1
 BYTE   N07  Gn1
 BYTE   W12
 BYTE   Bn0
 BYTE   N07  Dn1
 BYTE   N07  Gn1
 BYTE   W12
//  #04 //077   ----------------------------------------
 BYTE   Bn0
 BYTE   N07  Dn1
 BYTE   N07  Gn1
 BYTE   W12
 BYTE   Bn0
 BYTE   N07  Dn1
 BYTE   N07  Gn1
 BYTE   W12
 BYTE   Bn0
 BYTE   N07  Dn1
 BYTE   N07  Gn1
 BYTE   W12
 BYTE   Bn0
 BYTE   N07  Dn1
 BYTE   N07  Gn1
 BYTE   W12
 BYTE   Bn0
 BYTE   N07  Dn1
 BYTE   N07  Gn1
 BYTE   W12
 BYTE   Bn0
 BYTE   N07  Dn1
 BYTE   N07  Gn1
 BYTE   W12
 BYTE   Bn0
 BYTE   N07  Dn1
 BYTE   N07  Gn1
 BYTE   W12
 BYTE   Bn0
 BYTE   N07  Dn1
 BYTE   N07  Gn1
 BYTE   W12
//  #04 //078   ----------------------------------------
 BYTE   Bn0
 BYTE   N07  Dn1
 BYTE   N07  Gn1
 BYTE   W12
 BYTE   Bn0
 BYTE   N07  Dn1
 BYTE   N07  Gn1
 BYTE   W12
 BYTE   Bn0
 BYTE   N07  Dn1
 BYTE   N07  Gn1
 BYTE   W12
 BYTE   Bn0
 BYTE   N07  Dn1
 BYTE   N07  Gn1
 BYTE   W12
 BYTE   Dn1
 BYTE   N07  Fs1
 BYTE   N07  An1
 BYTE   W12
 BYTE   Dn1
 BYTE   N07  Fs1
 BYTE   N07  An1
 BYTE   W12
 BYTE   Dn1
 BYTE   N07  Fs1
 BYTE   N07  An1
 BYTE   W12
 BYTE   Dn1
 BYTE   N07  Fs1
 BYTE   N07  An1
 BYTE   W12
//  #04 //079   ----------------------------------------
 BYTE   Dn1
 BYTE   N07  Fs1
 BYTE   N07  An1
 BYTE   W12
 BYTE   Dn1
 BYTE   N07  Fs1
 BYTE   N07  An1
 BYTE   W12
 BYTE   Dn1
 BYTE   N07  Fs1
 BYTE   N07  An1
 BYTE   W12
 BYTE   Dn1
 BYTE   N07  Fs1
 BYTE   N07  An1
 BYTE   W12
 BYTE   Dn1
 BYTE   N07  Fs1
 BYTE   N07  An1
 BYTE   W12
 BYTE   Dn1
 BYTE   N07  Fs1
 BYTE   N07  An1
 BYTE   W12
 BYTE   Dn1
 BYTE   N07  Fs1
 BYTE   N07  An1
 BYTE   W12
 BYTE   Dn1
 BYTE   N07  Fs1
 BYTE   N07  An1
 BYTE   W12
//  #04 //080   ----------------------------------------
 BYTE   Dn1
 BYTE   N07  Fs1
 BYTE   N07  An1
 BYTE   W12
 BYTE   Dn1
 BYTE   N07  Fs1
 BYTE   N07  An1
 BYTE   W12
 BYTE   Dn1
 BYTE   N07  Fs1
 BYTE   N07  An1
 BYTE   W12
 BYTE   Dn1
 BYTE   N07  Fs1
 BYTE   N07  An1
 BYTE   W60
//  #04 //081   ----------------------------------------
 BYTE   W48
 BYTE   N05  Gn1  v080
 BYTE   W06
 BYTE   N05
 BYTE   W06
 BYTE   N05
 BYTE   W06
 BYTE   N05
 BYTE   W06
 BYTE   N05
 BYTE   W06
 BYTE   N05
 BYTE   W06
 BYTE   N05
 BYTE   W06
 BYTE   N05
 BYTE   W06
//  #04 //082   ----------------------------------------
Label_0100C8EF:
 BYTE   N05  Gn1  v080
 BYTE   W06
 BYTE   N05
 BYTE   W06
 BYTE   N05
 BYTE   W06
 BYTE   N05
 BYTE   W06
 BYTE   N05
 BYTE   W06
 BYTE   N05
 BYTE   W06
 BYTE   N05
 BYTE   W06
 BYTE   N05
 BYTE   W06
 BYTE   N05
 BYTE   W06
 BYTE   N05
 BYTE   W06
 BYTE   N05
 BYTE   W06
 BYTE   N05
 BYTE   W06
 BYTE   N05
 BYTE   W06
 BYTE   N05
 BYTE   W06
 BYTE   N05
 BYTE   W06
 BYTE   N05
 BYTE   W06
 BYTE   PEND 
//  #04 //083   ----------------------------------------
Label_0100C912:
 BYTE   N05  Gn1  v080
 BYTE   W06
 BYTE   N05
 BYTE   W06
 BYTE   N05
 BYTE   W06
 BYTE   N05
 BYTE   W06
 BYTE   N05
 BYTE   W06
 BYTE   N05
 BYTE   W06
 BYTE   N05
 BYTE   W06
 BYTE   N05
 BYTE   W06
 BYTE   Bn0
 BYTE   W06
 BYTE   N05
 BYTE   W06
 BYTE   N05
 BYTE   W06
 BYTE   N05
 BYTE   W06
 BYTE   N05
 BYTE   W06
 BYTE   N05
 BYTE   W06
 BYTE   N05
 BYTE   W06
 BYTE   N05
 BYTE   W06
 BYTE   PEND 
//  #04 //084   ----------------------------------------
Label_0100C935:
 BYTE   N05  Bn0  v080
 BYTE   W06
 BYTE   N05
 BYTE   W06
 BYTE   N05
 BYTE   W06
 BYTE   N05
 BYTE   W06
 BYTE   N05
 BYTE   W06
 BYTE   N05
 BYTE   W06
 BYTE   N05
 BYTE   W06
 BYTE   N05
 BYTE   W06
 BYTE   N05
 BYTE   W06
 BYTE   N05
 BYTE   W06
 BYTE   N05
 BYTE   W06
 BYTE   N05
 BYTE   W06
 BYTE   N05
 BYTE   W06
 BYTE   N05
 BYTE   W06
 BYTE   N05
 BYTE   W06
 BYTE   N05
 BYTE   W06
 BYTE   PEND 
//  #04 //085   ----------------------------------------
Label_0100C958:
 BYTE   N05  Bn0  v080
 BYTE   W06
 BYTE   N05
 BYTE   W06
 BYTE   N05
 BYTE   W06
 BYTE   N05
 BYTE   W06
 BYTE   N05
 BYTE   W06
 BYTE   N05
 BYTE   W06
 BYTE   N05
 BYTE   W06
 BYTE   N05
 BYTE   W06
 BYTE   En1
 BYTE   W06
 BYTE   N05
 BYTE   W06
 BYTE   N05
 BYTE   W06
 BYTE   N05
 BYTE   W06
 BYTE   N05
 BYTE   W06
 BYTE   N05
 BYTE   W06
 BYTE   N05
 BYTE   W06
 BYTE   N05
 BYTE   W06
 BYTE   PEND 
//  #04 //086   ----------------------------------------
 BYTE   PATT
  POIN2 Label_0100C583
//  #04 //087   ----------------------------------------
Label_0100C980:
 BYTE   N05  En1  v080
 BYTE   W06
 BYTE   N05
 BYTE   W06
 BYTE   N05
 BYTE   W06
 BYTE   N05
 BYTE   W06
 BYTE   N05
 BYTE   W06
 BYTE   N05
 BYTE   W06
 BYTE   N05
 BYTE   W06
 BYTE   N05
 BYTE   W06
 BYTE   Dn1
 BYTE   W06
 BYTE   N05
 BYTE   W06
 BYTE   N05
 BYTE   W06
 BYTE   N05
 BYTE   W06
 BYTE   N05
 BYTE   W06
 BYTE   N05
 BYTE   W06
 BYTE   N05
 BYTE   W06
 BYTE   N05
 BYTE   W06
 BYTE   PEND 
//  #04 //088   ----------------------------------------
 BYTE   PATT
  POIN2 Label_0100C60F
//  #04 //089   ----------------------------------------
Label_0100C9A8:
 BYTE   N05  Dn1  v080
 BYTE   W06
 BYTE   N05
 BYTE   W06
 BYTE   N05
 BYTE   W06
 BYTE   N05
 BYTE   W06
 BYTE   N05
 BYTE   W06
 BYTE   N05
 BYTE   W06
 BYTE   N05
 BYTE   W06
 BYTE   N05
 BYTE   W06
 BYTE   Gn1
 BYTE   W06
 BYTE   N05
 BYTE   W06
 BYTE   N05
 BYTE   W06
 BYTE   N05
 BYTE   W06
 BYTE   N05
 BYTE   W06
 BYTE   N05
 BYTE   W06
 BYTE   N05
 BYTE   W06
 BYTE   N05
 BYTE   W06
 BYTE   PEND 
//  #04 //090   ----------------------------------------
 BYTE   PATT
  POIN2 Label_0100C8EF
//  #04 //091   ----------------------------------------
 BYTE   PATT
  POIN2 Label_0100C912
//  #04 //092   ----------------------------------------
 BYTE   PATT
  POIN2 Label_0100C935
//  #04 //093   ----------------------------------------
 BYTE   N05  Bn0  v080
 BYTE   W06
 BYTE   N05
 BYTE   W06
 BYTE   N05
 BYTE   W06
 BYTE   N05
 BYTE   W06
 BYTE   N05
 BYTE   W06
 BYTE   N05
 BYTE   W06
 BYTE   N05
 BYTE   W06
 BYTE   N05
 BYTE   W06
 BYTE   Cn1
 BYTE   W06
 BYTE   N05
 BYTE   W06
 BYTE   N05
 BYTE   W06
 BYTE   N05
 BYTE   W06
 BYTE   N05
 BYTE   W06
 BYTE   N05
 BYTE   W06
 BYTE   N05
 BYTE   W06
 BYTE   N05
 BYTE   W06
//  #04 //094   ----------------------------------------
 BYTE   PATT
  POIN2 Label_0100C5EC
//  #04 //095   ----------------------------------------
 BYTE   N05  Dn1  v080
 BYTE   W06
 BYTE   N05
 BYTE   W06
 BYTE   N05
 BYTE   W06
 BYTE   N05
 BYTE   W06
 BYTE   N05
 BYTE   W06
 BYTE   N05
 BYTE   W06
 BYTE   N05
 BYTE   W06
 BYTE   N05
 BYTE   W06
 BYTE   En1
 BYTE   W06
 BYTE   N05
 BYTE   W06
 BYTE   N05
 BYTE   W06
 BYTE   N05
 BYTE   W06
 BYTE   N05
 BYTE   W06
 BYTE   N05
 BYTE   W06
 BYTE   Fs1
 BYTE   W06
 BYTE   N05
 BYTE   W06
//  #04 //096   ----------------------------------------
Label_0100CA23:
 BYTE   N05  Fs1  v080
 BYTE   W06
 BYTE   N05
 BYTE   W06
 BYTE   N05
 BYTE   W06
 BYTE   N05
 BYTE   W06
 BYTE   Gn1
 BYTE   W06
 BYTE   N05
 BYTE   W06
 BYTE   N05
 BYTE   W06
 BYTE   N05
 BYTE   W06
 BYTE   N05
 BYTE   W06
 BYTE   N05
 BYTE   W06
 BYTE   N05
 BYTE   W06
 BYTE   N05
 BYTE   W06
 BYTE   N05
 BYTE   W06
 BYTE   N05
 BYTE   W06
 BYTE   N05
 BYTE   W06
 BYTE   N05
 BYTE   W06
 BYTE   PEND 
//  #04 //097   ----------------------------------------
 BYTE   PATT
  POIN2 Label_0100C8EF
//  #04 //098   ----------------------------------------
 BYTE   PATT
  POIN2 Label_0100C8EF
//  #04 //099   ----------------------------------------
 BYTE   PATT
  POIN2 Label_0100C912
//  #04 //100   ----------------------------------------
 BYTE   PATT
  POIN2 Label_0100C935
//  #04 //101   ----------------------------------------
 BYTE   PATT
  POIN2 Label_0100C958
//  #04 //102   ----------------------------------------
 BYTE   PATT
  POIN2 Label_0100C583
//  #04 //103   ----------------------------------------
 BYTE   PATT
  POIN2 Label_0100C980
//  #04 //104   ----------------------------------------
 BYTE   PATT
  POIN2 Label_0100C60F
//  #04 //105   ----------------------------------------
 BYTE   PATT
  POIN2 Label_0100C9A8
//  #04 //106   ----------------------------------------
 BYTE   PATT
  POIN2 Label_0100C8EF
//  #04 //107   ----------------------------------------
 BYTE   PATT
  POIN2 Label_0100C912
//  #04 //108   ----------------------------------------
 BYTE   PATT
  POIN2 Label_0100C935
//  #04 //109   ----------------------------------------
 BYTE   PATT
  POIN2 Label_0100C958
//  #04 //110   ----------------------------------------
 BYTE   PATT
  POIN2 Label_0100C583
//  #04 //111   ----------------------------------------
 BYTE   N05  En1  v080
 BYTE   W06
 BYTE   N05
 BYTE   W06
 BYTE   N05
 BYTE   W06
 BYTE   N05
 BYTE   W06
 BYTE   N05
 BYTE   W06
 BYTE   N05
 BYTE   W06
 BYTE   N05
 BYTE   W06
 BYTE   N05
 BYTE   W06
 BYTE   N05
 BYTE   W06
 BYTE   N05
 BYTE   W06
 BYTE   N05
 BYTE   W06
 BYTE   N05
 BYTE   W06
 BYTE   N05
 BYTE   W06
 BYTE   N05
 BYTE   W06
 BYTE   Fs1
 BYTE   W06
 BYTE   N05
 BYTE   W06
//  #04 //112   ----------------------------------------
 BYTE   PATT
  POIN2 Label_0100CA23
//  #04 //113   ----------------------------------------
 BYTE   N05  Gn1  v080
 BYTE   W06
 BYTE   N05
 BYTE   W06
 BYTE   N05
 BYTE   W06
 BYTE   N05
 BYTE   W06
 BYTE   N05
 BYTE   W06
 BYTE   N05
 BYTE   W06
 BYTE   N05
 BYTE   W06
 BYTE   N05
 BYTE   W06
 BYTE   N02  En1
 BYTE   W06
 BYTE   N02
 BYTE   W06
 BYTE   N02
 BYTE   W06
 BYTE   N02
 BYTE   W06
 BYTE   N02
 BYTE   W06
 BYTE   N02
 BYTE   W06
 BYTE   N02
 BYTE   W06
 BYTE   N02
 BYTE   W06
//  #04 //114   ----------------------------------------
Label_0100CAD6:
 BYTE   N02  En1  v080
 BYTE   W06
 BYTE   N02
 BYTE   W06
 BYTE   N02
 BYTE   W06
 BYTE   N02
 BYTE   W06
 BYTE   N02
 BYTE   W06
 BYTE   N02
 BYTE   W06
 BYTE   N02
 BYTE   W06
 BYTE   N02
 BYTE   W06
 BYTE   N02
 BYTE   W06
 BYTE   N02
 BYTE   W06
 BYTE   N02
 BYTE   W06
 BYTE   N02
 BYTE   W06
 BYTE   N02
 BYTE   W06
 BYTE   N02
 BYTE   W06
 BYTE   N02
 BYTE   W06
 BYTE   N02
 BYTE   W06
 BYTE   PEND 
//  #04 //115   ----------------------------------------
 BYTE   PATT
  POIN2 Label_0100CAD6
//  #04 //116   ----------------------------------------
 BYTE   PATT
  POIN2 Label_0100CAD6
//  #04 //117   ----------------------------------------
 BYTE   PATT
  POIN2 Label_0100CAD6
//  #04 //118   ----------------------------------------
 BYTE   PATT
  POIN2 Label_0100CAD6
//  #04 //119   ----------------------------------------
 BYTE   PATT
  POIN2 Label_0100CAD6
//  #04 //120   ----------------------------------------
 BYTE   PATT
  POIN2 Label_0100CAD6
//  #04 //121   ----------------------------------------
 BYTE   N02  En1  v080
 BYTE   W06
 BYTE   N02
 BYTE   W06
 BYTE   N02
 BYTE   W06
 BYTE   N02
 BYTE   W06
 BYTE   N02
 BYTE   W06
 BYTE   N02
 BYTE   W06
 BYTE   N02
 BYTE   W06
 BYTE   N02
 BYTE   W06
 BYTE   GoTo
  POIN2 Label_0100C2E6
//  #04 //122   ----------------------------------------
 BYTE   N02  En1  v080
 BYTE   W06
 BYTE   N02
 BYTE   W06
 BYTE   N02
 BYTE   W06
 BYTE   N02
 BYTE   W06
 BYTE   N02
 BYTE   W06
 BYTE   N02
 BYTE   W06
 BYTE   N02
 BYTE   W06
 BYTE   N02
 BYTE   W06
//  #04 //123   ----------------------------------------
 BYTE   PATT
  POIN2 Label_0100CAD6
//  #04 //124   ----------------------------------------
 BYTE   PATT
  POIN2 Label_0100CAD6
//  #04 //125   ----------------------------------------
 BYTE   PATT
  POIN2 Label_0100CAD6
//  #04 //126   ----------------------------------------
 BYTE   N02  En1  v080
 BYTE   W06
 BYTE   N02
 BYTE   W06
 BYTE   N02
 BYTE   W06
 BYTE   N02
 BYTE   W06
 BYTE   N02
 BYTE   W06
 BYTE   N02
 BYTE   W06
 BYTE   N02
 BYTE   W06
 BYTE   N02
 BYTE   W05
 BYTE   FINE

//**************** Track 5 (Midi-Chn.4) ****************//

Uncontrollable_005:
//  #05 //000   ----------------------------------------
 BYTE   KEYSH   Uncontrollable_key+0
 BYTE   VOICE   1
 BYTE   VOL   32*Uncontrollable_mvl/mxv
 BYTE   PAN   c_v+22
 BYTE   W48
 BYTE   N11  En3  v064
 BYTE   W24
 BYTE   N05  Bn2
 BYTE   W12
 BYTE   N23  Dn3
 BYTE   W12
//  #05 //001   ----------------------------------------
Label_0100D0BF:
 BYTE   W12
 BYTE   N11  Bn2  v064
 BYTE   W12
 BYTE   Dn3
 BYTE   W12
 BYTE   Bn2
 BYTE   W12
 BYTE   En3
 BYTE   W24
 BYTE   N05  Bn2
 BYTE   W12
 BYTE   N23  Dn3
 BYTE   W12
 BYTE   PEND 
//  #05 //002   ----------------------------------------
 BYTE   PATT
  POIN2 Label_0100D0BF
//  #05 //003   ----------------------------------------
 BYTE   PATT
  POIN2 Label_0100D0BF
//  #05 //004   ----------------------------------------
 BYTE   PATT
  POIN2 Label_0100D0BF
//  #05 //005   ----------------------------------------
 BYTE   PATT
  POIN2 Label_0100D0BF
//  #05 //006   ----------------------------------------
 BYTE   PATT
  POIN2 Label_0100D0BF
//  #05 //007   ----------------------------------------
Label_0100D0EA:
 BYTE   W12
 BYTE   N11  Bn2  v064
 BYTE   W12
 BYTE   Dn3
 BYTE   W12
 BYTE   Bn2
 BYTE   W12
 BYTE   En3
 BYTE   W36
 BYTE   N23  Dn3
 BYTE   W12
 BYTE   PEND 
//  #05 //008   ----------------------------------------
 BYTE   W12
 BYTE   N11  Bn2
 BYTE   W12
 BYTE   Dn3
 BYTE   W24
 BYTE   En3
 BYTE   W24
 BYTE   N05  Bn2
 BYTE   W12
 BYTE   N23  Dn3
 BYTE   W12
//  #05 //009   ----------------------------------------
 BYTE   PATT
  POIN2 Label_0100D0BF
//  #05 //010   ----------------------------------------
 BYTE   PATT
  POIN2 Label_0100D0BF
//  #05 //011   ----------------------------------------
 BYTE   PATT
  POIN2 Label_0100D0BF
//  #05 //012   ----------------------------------------
 BYTE   PATT
  POIN2 Label_0100D0BF
//  #05 //013   ----------------------------------------
 BYTE   PATT
  POIN2 Label_0100D0BF
//  #05 //014   ----------------------------------------
 BYTE   PATT
  POIN2 Label_0100D0BF
//  #05 //015   ----------------------------------------
 BYTE   PATT
  POIN2 Label_0100D0EA
//  #05 //016   ----------------------------------------
 BYTE   W12
 BYTE   N11  Bn2  v064
 BYTE   W12
 BYTE   Dn3
 BYTE   W24
Label_0100D131:
 BYTE   W48
//  #05 //017   ----------------------------------------
 BYTE   W96
//  #05 //018   ----------------------------------------
 BYTE   W96
//  #05 //019   ----------------------------------------
 BYTE   W96
//  #05 //020   ----------------------------------------
 BYTE   W48
 BYTE   N11  En3  v064
 BYTE   W24
 BYTE   N05  Bn2
 BYTE   W12
 BYTE   N23  Dn3
 BYTE   W12
//  #05 //021   ----------------------------------------
Label_0100D140:
 BYTE   W12
 BYTE   N11  En3  v064
 BYTE   W12
 BYTE   N11
 BYTE   W12
 BYTE   Bn2
 BYTE   W12
 BYTE   En3
 BYTE   W24
 BYTE   N05  Bn2
 BYTE   W12
 BYTE   N23  Dn3
 BYTE   W12
 BYTE   PEND 
//  #05 //022   ----------------------------------------
 BYTE   PATT
  POIN2 Label_0100D140
//  #05 //023   ----------------------------------------
 BYTE   PATT
  POIN2 Label_0100D140
//  #05 //024   ----------------------------------------
 BYTE   PATT
  POIN2 Label_0100D140
//  #05 //025   ----------------------------------------
 BYTE   PATT
  POIN2 Label_0100D140
//  #05 //026   ----------------------------------------
 BYTE   PATT
  POIN2 Label_0100D140
//  #05 //027   ----------------------------------------
 BYTE   PATT
  POIN2 Label_0100D140
//  #05 //028   ----------------------------------------
 BYTE   PATT
  POIN2 Label_0100D140
//  #05 //029   ----------------------------------------
 BYTE   PATT
  POIN2 Label_0100D140
//  #05 //030   ----------------------------------------
 BYTE   PATT
  POIN2 Label_0100D140
//  #05 //031   ----------------------------------------
 BYTE   PATT
  POIN2 Label_0100D140
//  #05 //032   ----------------------------------------
 BYTE   W12
 BYTE   N11  En3  v064
 BYTE   W12
 BYTE   N11
 BYTE   W12
 BYTE   Bn2
 BYTE   W60
//  #05 //033   ----------------------------------------
 BYTE   W96
//  #05 //034   ----------------------------------------
 BYTE   W96
//  #05 //035   ----------------------------------------
 BYTE   W96
//  #05 //036   ----------------------------------------
 BYTE   W96
//  #05 //037   ----------------------------------------
 BYTE   W96
//  #05 //038   ----------------------------------------
 BYTE   W96
//  #05 //039   ----------------------------------------
 BYTE   W96
//  #05 //040   ----------------------------------------
 BYTE   W96
//  #05 //041   ----------------------------------------
 BYTE   W96
//  #05 //042   ----------------------------------------
 BYTE   W96
//  #05 //043   ----------------------------------------
 BYTE   W96
//  #05 //044   ----------------------------------------
 BYTE   W96
//  #05 //045   ----------------------------------------
 BYTE   W96
//  #05 //046   ----------------------------------------
 BYTE   W96
//  #05 //047   ----------------------------------------
 BYTE   W96
//  #05 //048   ----------------------------------------
Label_0100D19C:
 BYTE   W48
 BYTE   N11  En3  v080
 BYTE   W24
 BYTE   N05  Bn2
 BYTE   W12
 BYTE   N23  Dn3
 BYTE   W12
 BYTE   PEND 
//  #05 //049   ----------------------------------------
Label_0100D1A8:
 BYTE   W12
 BYTE   N11  Bn2  v080
 BYTE   W12
 BYTE   En3
 BYTE   W12
 BYTE   Bn2
 BYTE   W12
 BYTE   En3
 BYTE   W24
 BYTE   N05  Bn2
 BYTE   W12
 BYTE   N23  Dn3
 BYTE   W12
 BYTE   PEND 
//  #05 //050   ----------------------------------------
 BYTE   PATT
  POIN2 Label_0100D1A8
//  #05 //051   ----------------------------------------
 BYTE   PATT
  POIN2 Label_0100D1A8
//  #05 //052   ----------------------------------------
 BYTE   PATT
  POIN2 Label_0100D1A8
//  #05 //053   ----------------------------------------
 BYTE   PATT
  POIN2 Label_0100D1A8
//  #05 //054   ----------------------------------------
 BYTE   PATT
  POIN2 Label_0100D1A8
//  #05 //055   ----------------------------------------
 BYTE   PATT
  POIN2 Label_0100D1A8
//  #05 //056   ----------------------------------------
 BYTE   W12
 BYTE   N11  Bn2  v080
 BYTE   W12
 BYTE   En3
 BYTE   W12
 BYTE   Bn2
 BYTE   W60
//  #05 //057   ----------------------------------------
 BYTE   W96
//  #05 //058   ----------------------------------------
 BYTE   W96
//  #05 //059   ----------------------------------------
 BYTE   W96
//  #05 //060   ----------------------------------------
 BYTE   PATT
  POIN2 Label_0100D19C
//  #05 //061   ----------------------------------------
Label_0100D1E9:
 BYTE   W12
 BYTE   N11  Bn2  v080
 BYTE   W12
 BYTE   Dn3
 BYTE   W12
 BYTE   Bn2
 BYTE   W12
 BYTE   En3
 BYTE   W24
 BYTE   N05  Bn2
 BYTE   W12
 BYTE   N23  Dn3
 BYTE   W12
 BYTE   PEND 
//  #05 //062   ----------------------------------------
 BYTE   PATT
  POIN2 Label_0100D1E9
//  #05 //063   ----------------------------------------
 BYTE   PATT
  POIN2 Label_0100D1E9
//  #05 //064   ----------------------------------------
 BYTE   W12
 BYTE   N11  Bn2  v080
 BYTE   W12
 BYTE   Dn3
 BYTE   W12
 BYTE   Bn2
 BYTE   W60
//  #05 //065   ----------------------------------------
 BYTE   W96
//  #05 //066   ----------------------------------------
 BYTE   W96
//  #05 //067   ----------------------------------------
 BYTE   W96
//  #05 //068   ----------------------------------------
 BYTE   W96
//  #05 //069   ----------------------------------------
 BYTE   W96
//  #05 //070   ----------------------------------------
 BYTE   W96
//  #05 //071   ----------------------------------------
 BYTE   W96
//  #05 //072   ----------------------------------------
 BYTE   W96
//  #05 //073   ----------------------------------------
 BYTE   W96
//  #05 //074   ----------------------------------------
 BYTE   W96
//  #05 //075   ----------------------------------------
 BYTE   W96
//  #05 //076   ----------------------------------------
 BYTE   W96
//  #05 //077   ----------------------------------------
 BYTE   W96
//  #05 //078   ----------------------------------------
 BYTE   W96
//  #05 //079   ----------------------------------------
 BYTE   W96
//  #05 //080   ----------------------------------------
 BYTE   W96
//  #05 //081   ----------------------------------------
 BYTE   W96
//  #05 //082   ----------------------------------------
 BYTE   W96
//  #05 //083   ----------------------------------------
 BYTE   W96
//  #05 //084   ----------------------------------------
 BYTE   W96
//  #05 //085   ----------------------------------------
 BYTE   W96
//  #05 //086   ----------------------------------------
 BYTE   W96
//  #05 //087   ----------------------------------------
 BYTE   W96
//  #05 //088   ----------------------------------------
 BYTE   W96
//  #05 //089   ----------------------------------------
 BYTE   W96
//  #05 //090   ----------------------------------------
 BYTE   W96
//  #05 //091   ----------------------------------------
 BYTE   W96
//  #05 //092   ----------------------------------------
 BYTE   W96
//  #05 //093   ----------------------------------------
 BYTE   W96
//  #05 //094   ----------------------------------------
 BYTE   W96
//  #05 //095   ----------------------------------------
 BYTE   W96
//  #05 //096   ----------------------------------------
 BYTE   W96
//  #05 //097   ----------------------------------------
 BYTE   W96
//  #05 //098   ----------------------------------------
 BYTE   W96
//  #05 //099   ----------------------------------------
 BYTE   W96
//  #05 //100   ----------------------------------------
 BYTE   W96
//  #05 //101   ----------------------------------------
 BYTE   W96
//  #05 //102   ----------------------------------------
 BYTE   W96
//  #05 //103   ----------------------------------------
 BYTE   W96
//  #05 //104   ----------------------------------------
 BYTE   W96
//  #05 //105   ----------------------------------------
 BYTE   W96
//  #05 //106   ----------------------------------------
 BYTE   W96
//  #05 //107   ----------------------------------------
 BYTE   W96
//  #05 //108   ----------------------------------------
 BYTE   W96
//  #05 //109   ----------------------------------------
 BYTE   W96
//  #05 //110   ----------------------------------------
 BYTE   W96
//  #05 //111   ----------------------------------------
 BYTE   W96
//  #05 //112   ----------------------------------------
 BYTE   W96
//  #05 //113   ----------------------------------------
 BYTE   W48
 BYTE   En4  v064
 BYTE   W24
 BYTE   N05  Bn3
 BYTE   W12
 BYTE   N23  Dn4
 BYTE   W12
//  #05 //114   ----------------------------------------
Label_0100D248:
 BYTE   W12
 BYTE   N11  Bn3  v064
 BYTE   W12
 BYTE   Dn4
 BYTE   W12
 BYTE   Bn3
 BYTE   W12
 BYTE   En4
 BYTE   W24
 BYTE   N05  Bn3
 BYTE   W12
 BYTE   N23  Dn4
 BYTE   W12
 BYTE   PEND 
//  #05 //115   ----------------------------------------
 BYTE   PATT
  POIN2 Label_0100D248
//  #05 //116   ----------------------------------------
 BYTE   PATT
  POIN2 Label_0100D248
//  #05 //117   ----------------------------------------
 BYTE   PATT
  POIN2 Label_0100D248
//  #05 //118   ----------------------------------------
 BYTE   PATT
  POIN2 Label_0100D248
//  #05 //119   ----------------------------------------
 BYTE   PATT
  POIN2 Label_0100D248
//  #05 //120   ----------------------------------------
 BYTE   PATT
  POIN2 Label_0100D248
//  #05 //121   ----------------------------------------
 BYTE   W12
 BYTE   N11  Bn3  v064
 BYTE   W12
 BYTE   Dn4
 BYTE   W12
 BYTE   Bn3
 BYTE   W12
 BYTE   GoTo
  POIN2 Label_0100D131
//  #05 //122   ----------------------------------------
 BYTE   N11  En4  v064
 BYTE   W24
 BYTE   N05  Bn3
 BYTE   W12
 BYTE   N23  Dn4
 BYTE   W12
//  #05 //123   ----------------------------------------
 BYTE   PATT
  POIN2 Label_0100D248
//  #05 //124   ----------------------------------------
 BYTE   PATT
  POIN2 Label_0100D248
//  #05 //125   ----------------------------------------
 BYTE   PATT
  POIN2 Label_0100D248
//  #05 //126   ----------------------------------------
 BYTE   W12
 BYTE   N11  Bn3  v064
 BYTE   W12
 BYTE   Dn4
 BYTE   W12
 BYTE   Bn3
 BYTE   W11
 BYTE   FINE

//**************** Track 6 (Midi-Chn.5) ****************//

Uncontrollable_006:
//  #06 //000   ----------------------------------------
 BYTE   KEYSH   Uncontrollable_key+0
 BYTE   VOICE   51
 BYTE   VOL   50*Uncontrollable_mvl/mxv
 BYTE   PAN   c_v+0
 BYTE   W96
//  #06 //001   ----------------------------------------
 BYTE   W96
//  #06 //002   ----------------------------------------
 BYTE   W96
//  #06 //003   ----------------------------------------
 BYTE   W96
//  #06 //004   ----------------------------------------
 BYTE   W96
//  #06 //005   ----------------------------------------
 BYTE   W96
//  #06 //006   ----------------------------------------
 BYTE   W96
//  #06 //007   ----------------------------------------
 BYTE   W96
//  #06 //008   ----------------------------------------
 BYTE   W96
//  #06 //009   ----------------------------------------
 BYTE   W96
//  #06 //010   ----------------------------------------
 BYTE   W96
//  #06 //011   ----------------------------------------
 BYTE   W96
//  #06 //012   ----------------------------------------
 BYTE   W96
//  #06 //013   ----------------------------------------
 BYTE   W96
//  #06 //014   ----------------------------------------
 BYTE   W96
//  #06 //015   ----------------------------------------
 BYTE   W96
//  #06 //016   ----------------------------------------
 BYTE   W48
Label_0100D2E9:
 BYTE   W12
 BYTE   N11  En2  v080
 BYTE   W12
 BYTE   N11
 BYTE   W24
//  #06 //017   ----------------------------------------
 BYTE   N23
 BYTE   W48
 BYTE   N11  Fs2
 BYTE   W12
 BYTE   N05  Gn2
 BYTE   W24
 BYTE   N11  Fs2
 BYTE   W12
//  #06 //018   ----------------------------------------
 BYTE   W12
 BYTE   N32  Dn2
 BYTE   W48
 BYTE   N11  En2
 BYTE   W12
 BYTE   N11
 BYTE   W24
//  #06 //019   ----------------------------------------
 BYTE   N23
 BYTE   W48
 BYTE   Fs2
 BYTE   W24
 BYTE   N11  Gn2
 BYTE   W12
 BYTE   Fs2
 BYTE   W12
//  #06 //020   ----------------------------------------
 BYTE   W12
 BYTE   N32  Dn2
 BYTE   W36
 BYTE   N11
 BYTE   W12
 BYTE   En2
 BYTE   W12
 BYTE   N05  Dn2
 BYTE   W12
 BYTE   N11
 BYTE   W12
//  #06 //021   ----------------------------------------
 BYTE   W12
 BYTE   N32  An1
 BYTE   W36
 BYTE   N11  Dn2
 BYTE   W12
 BYTE   En2
 BYTE   W12
 BYTE   Dn2
 BYTE   W12
 BYTE   N44
 BYTE   W12
//  #06 //022   ----------------------------------------
 BYTE   W48
 BYTE   N11
 BYTE   W12
 BYTE   En2
 BYTE   W12
 BYTE   N05  Dn2
 BYTE   W12
 BYTE   N11
 BYTE   W12
//  #06 //023   ----------------------------------------
 BYTE   W12
 BYTE   N32  An1
 BYTE   W36
 BYTE   N11  Dn2
 BYTE   W12
 BYTE   En2
 BYTE   W12
 BYTE   Dn2
 BYTE   W12
 BYTE   N23
 BYTE   W12
//  #06 //024   ----------------------------------------
 BYTE   W12
 BYTE   An1
 BYTE   W84
//  #06 //025   ----------------------------------------
 BYTE   W96
//  #06 //026   ----------------------------------------
 BYTE   W96
//  #06 //027   ----------------------------------------
 BYTE   W96
//  #06 //028   ----------------------------------------
 BYTE   W96
//  #06 //029   ----------------------------------------
 BYTE   W96
//  #06 //030   ----------------------------------------
 BYTE   W96
//  #06 //031   ----------------------------------------
 BYTE   W96
//  #06 //032   ----------------------------------------
 BYTE   W12
 BYTE   N17  En2  v096
 BYTE   W18
 BYTE   Fs2
 BYTE   W18
 BYTE   N44  Gn2
 BYTE   W48
//  #06 //033   ----------------------------------------
 BYTE   Fs2
 BYTE   W48
 BYTE   En2
 BYTE   W48
//  #06 //034   ----------------------------------------
 BYTE   Dn2
 BYTE   W48
 BYTE   TIE  En2
 BYTE   W48
//  #06 //035   ----------------------------------------
 BYTE   W92
 BYTE   W03
 BYTE   EOT
 BYTE   W01
//  #06 //036   ----------------------------------------
 BYTE   N23
 BYTE   W24
 BYTE   Fs2
 BYTE   W24
 BYTE   N44  Gn2
 BYTE   W48
//  #06 //037   ----------------------------------------
 BYTE   An2
 BYTE   W48
 BYTE   En2
 BYTE   W48
//  #06 //038   ----------------------------------------
 BYTE   Dn2
 BYTE   W48
 BYTE   N92  En2
 BYTE   W48
//  #06 //039   ----------------------------------------
 BYTE   W96
//  #06 //040   ----------------------------------------
 BYTE   W24
 BYTE   N11  En2  v112
 BYTE   W12
 BYTE   Bn2
 BYTE   W12
 BYTE   N80  Dn3
 BYTE   W48
//  #06 //041   ----------------------------------------
Label_0100D37A:
 BYTE   W36
 BYTE   N23  Bn2  v112
 BYTE   W24
 BYTE   N44  An2
 BYTE   W36
 BYTE   PEND 
//  #06 //042   ----------------------------------------
 BYTE   W12
 BYTE   N11  Fs2
 BYTE   W12
 BYTE   Gn2
 BYTE   W12
 BYTE   Bn2
 BYTE   W12
 BYTE   N44  Dn3
 BYTE   W48
//  #06 //043   ----------------------------------------
 BYTE   An2
 BYTE   W48
 BYTE   N23  Bn2
 BYTE   W24
 BYTE   N11  Cn3
 BYTE   W12
 BYTE   N44  Bn2
 BYTE   W12
//  #06 //044   ----------------------------------------
 BYTE   W48
 BYTE   N23
 BYTE   W24
 BYTE   N11  Cn3
 BYTE   W12
 BYTE   N32  Bn2
 BYTE   W12
//  #06 //045   ----------------------------------------
 BYTE   W24
 BYTE   N11  Gn2
 BYTE   W12
 BYTE   An2
 BYTE   W12
 BYTE   N23  Bn2
 BYTE   W24
 BYTE   N11  Cn3
 BYTE   W12
 BYTE   N32  Bn2
 BYTE   W12
//  #06 //046   ----------------------------------------
 BYTE   W24
 BYTE   N11  Gn2
 BYTE   W12
 BYTE   An2
 BYTE   W12
 BYTE   N23
 BYTE   W24
 BYTE   N11
 BYTE   W24
//  #06 //047   ----------------------------------------
 BYTE   N11
 BYTE   W24
 BYTE   N23
 BYTE   W24
 BYTE   N23
 BYTE   W24
 BYTE   N11  Gn2
 BYTE   W12
 BYTE   Fs2
 BYTE   W12
//  #06 //048   ----------------------------------------
 BYTE   N23  An2
 BYTE   W48
 BYTE   N80  Dn3
 BYTE   W48
//  #06 //049   ----------------------------------------
 BYTE   PATT
  POIN2 Label_0100D37A
//  #06 //050   ----------------------------------------
 BYTE   W12
 BYTE   N11  Fs2  v112
 BYTE   W12
 BYTE   Gn2
 BYTE   W12
 BYTE   N80  Bn2
 BYTE   W60
//  #06 //051   ----------------------------------------
 BYTE   W24
 BYTE   N11  An2
 BYTE   W12
 BYTE   Gn2
 BYTE   W12
 BYTE   N23  Fs2
 BYTE   W24
 BYTE   N11  Gn2
 BYTE   W12
 BYTE   N44  En2
 BYTE   W12
//  #06 //052   ----------------------------------------
 BYTE   W36
 BYTE   N11  Cn3
 BYTE   W12
 BYTE   N44  Bn2
 BYTE   W48
//  #06 //053   ----------------------------------------
Label_0100D3F1:
 BYTE   N11  Gn2  v112
 BYTE   W12
 BYTE   An2
 BYTE   W12
 BYTE   Gn2
 BYTE   W12
 BYTE   Cn3
 BYTE   W12
 BYTE   N44  Bn2
 BYTE   W48
 BYTE   PEND 
//  #06 //054   ----------------------------------------
 BYTE   PATT
  POIN2 Label_0100D3F1
//  #06 //055   ----------------------------------------
 BYTE   N11  En2  v112
 BYTE   W12
 BYTE   Fs2
 BYTE   W12
 BYTE   Gn2
 BYTE   W12
 BYTE   N32  Bn2
 BYTE   W36
 BYTE   N11  An2
 BYTE   W12
 BYTE   N32  Gn2
 BYTE   W12
//  #06 //056   ----------------------------------------
 BYTE   W24
 BYTE   N11  Fs2
 BYTE   W12
 BYTE   TIE  An2
 BYTE   W60
//  #06 //057   ----------------------------------------
 BYTE   W44
 BYTE   W03
 BYTE   EOT
 BYTE   W48
 BYTE   W01
//  #06 //058   ----------------------------------------
 BYTE   W96
//  #06 //059   ----------------------------------------
 BYTE   W96
//  #06 //060   ----------------------------------------
 BYTE   W96
//  #06 //061   ----------------------------------------
 BYTE   W96
//  #06 //062   ----------------------------------------
 BYTE   W96
//  #06 //063   ----------------------------------------
 BYTE   W96
//  #06 //064   ----------------------------------------
 BYTE   W96
//  #06 //065   ----------------------------------------
 BYTE   W96
//  #06 //066   ----------------------------------------
 BYTE   W96
//  #06 //067   ----------------------------------------
 BYTE   W96
//  #06 //068   ----------------------------------------
 BYTE   W96
//  #06 //069   ----------------------------------------
 BYTE   W96
//  #06 //070   ----------------------------------------
 BYTE   W96
//  #06 //071   ----------------------------------------
 BYTE   W96
//  #06 //072   ----------------------------------------
 BYTE   N23  Bn1
 BYTE   W24
 BYTE   En2
 BYTE   W24
 BYTE   N32  Fs2
 BYTE   W36
 BYTE   N11  Gn2
 BYTE   W12
//  #06 //073   ----------------------------------------
 BYTE   N44  En2
 BYTE   W48
 BYTE   Fs2
 BYTE   W48
//  #06 //074   ----------------------------------------
 BYTE   An2
 BYTE   W48
 BYTE   Bn2
 BYTE   W48
//  #06 //075   ----------------------------------------
 BYTE   Cn3
 BYTE   W48
 BYTE   Bn2
 BYTE   W48
//  #06 //076   ----------------------------------------
 BYTE   N23  Gn2
 BYTE   W24
 BYTE   An2
 BYTE   W24
 BYTE   TIE  Bn2
 BYTE   W48
//  #06 //077   ----------------------------------------
 BYTE   W92
 BYTE   W03
 BYTE   EOT
 BYTE   W01
//  #06 //078   ----------------------------------------
 BYTE   N23  Dn2
 BYTE   W24
 BYTE   Gn2
 BYTE   W24
 BYTE   TIE  An2
 BYTE   W48
//  #06 //079   ----------------------------------------
 BYTE   W96
//  #06 //080   ----------------------------------------
 BYTE   W44
 BYTE   W03
 BYTE   EOT
 BYTE   W48
 BYTE   W01
//  #06 //081   ----------------------------------------
Label_0100D461:
 BYTE   W24
 BYTE   N11  Dn3  v127
 BYTE   W12
 BYTE   Gn3
 BYTE   W12
 BYTE   N32  Dn3
 BYTE   W36
 BYTE   N11  Cn3
 BYTE   W12
 BYTE   PEND 
//  #06 //082   ----------------------------------------
Label_0100D46F:
 BYTE   N32  Bn2  v127
 BYTE   W36
 BYTE   N11  Cn3
 BYTE   W12
 BYTE   N23  Dn3
 BYTE   W48
 BYTE   PEND 
//  #06 //083   ----------------------------------------
Label_0100D47A:
 BYTE   N23  Dn3  v127
 BYTE   W24
 BYTE   Gn3
 BYTE   W24
 BYTE   N32  Dn3
 BYTE   W36
 BYTE   N11  Cn3
 BYTE   W12
 BYTE   PEND 
//  #06 //084   ----------------------------------------
Label_0100D487:
 BYTE   N32  Bn2  v127
 BYTE   W36
 BYTE   N11  Gn3
 BYTE   W12
 BYTE   N44  Dn3
 BYTE   W48
 BYTE   PEND 
//  #06 //085   ----------------------------------------
 BYTE   N23
 BYTE   W24
 BYTE   Gn3
 BYTE   W24
 BYTE   N32  Dn3
 BYTE   W36
 BYTE   N11
 BYTE   W12
//  #06 //086   ----------------------------------------
 BYTE   N32  Cn3
 BYTE   W36
 BYTE   N11  Bn2
 BYTE   W12
 BYTE   N32  An2
 BYTE   W36
 BYTE   N11  Bn2
 BYTE   W12
//  #06 //087   ----------------------------------------
 BYTE   N40  Gn2
 BYTE   W42
 BYTE   N01
 BYTE   N01  Gs2
 BYTE   W01
 BYTE   An2
 BYTE   W01
 BYTE   As2
 BYTE   W01
 BYTE   Bn2
 BYTE   W01
 BYTE   Cn3
 BYTE   W01
 BYTE   Cs3
 BYTE   W01
 BYTE   N92  Dn3
 BYTE   W48
//  #06 //088   ----------------------------------------
 BYTE   W48
 BYTE   N68  Gn2
 BYTE   W48
//  #06 //089   ----------------------------------------
 BYTE   PATT
  POIN2 Label_0100D461
//  #06 //090   ----------------------------------------
 BYTE   N32  Bn2  v127
 BYTE   W36
 BYTE   N11  Gn3
 BYTE   W12
 BYTE   N23  Dn3
 BYTE   W48
//  #06 //091   ----------------------------------------
 BYTE   PATT
  POIN2 Label_0100D47A
//  #06 //092   ----------------------------------------
 BYTE   PATT
  POIN2 Label_0100D487
//  #06 //093   ----------------------------------------
 BYTE   N23  Dn3  v127
 BYTE   W24
 BYTE   N23
 BYTE   W24
 BYTE   N32  Gn3
 BYTE   W36
 BYTE   N11  Fs3
 BYTE   W12
//  #06 //094   ----------------------------------------
Label_0100D4E4:
 BYTE   N32  Gn3  v127
 BYTE   W36
 BYTE   N11  Fs3
 BYTE   W12
 BYTE   N44  Gn3
 BYTE   W48
 BYTE   PEND 
//  #06 //095   ----------------------------------------
Label_0100D4EF:
 BYTE   N23  Dn3  v127
 BYTE   W24
 BYTE   N23
 BYTE   W24
 BYTE   N32  En3
 BYTE   W36
 BYTE   Fs3
 BYTE   W12
 BYTE   PEND 
//  #06 //096   ----------------------------------------
Label_0100D4FB:
 BYTE   W24
 BYTE   TIE  Gn3  v127
 BYTE   W72
 BYTE   PEND 
//  #06 //097   ----------------------------------------
 BYTE   W44
 BYTE   W03
 BYTE   EOT
 BYTE   W48
 BYTE   W01
//  #06 //098   ----------------------------------------
 BYTE   W96
//  #06 //099   ----------------------------------------
 BYTE   W96
//  #06 //100   ----------------------------------------
 BYTE   W96
//  #06 //101   ----------------------------------------
 BYTE   W96
//  #06 //102   ----------------------------------------
 BYTE   W96
//  #06 //103   ----------------------------------------
 BYTE   W96
//  #06 //104   ----------------------------------------
 BYTE   W96
//  #06 //105   ----------------------------------------
 BYTE   PATT
  POIN2 Label_0100D461
//  #06 //106   ----------------------------------------
 BYTE   PATT
  POIN2 Label_0100D46F
//  #06 //107   ----------------------------------------
 BYTE   PATT
  POIN2 Label_0100D47A
//  #06 //108   ----------------------------------------
 BYTE   PATT
  POIN2 Label_0100D487
//  #06 //109   ----------------------------------------
 BYTE   N23  Dn3  v127
 BYTE   W24
 BYTE   En3
 BYTE   W24
 BYTE   N32  Gn3
 BYTE   W36
 BYTE   N11  Fs3
 BYTE   W12
//  #06 //110   ----------------------------------------
 BYTE   PATT
  POIN2 Label_0100D4E4
//  #06 //111   ----------------------------------------
 BYTE   PATT
  POIN2 Label_0100D4EF
//  #06 //112   ----------------------------------------
 BYTE   PATT
  POIN2 Label_0100D4FB
//  #06 //113   ----------------------------------------
 BYTE   W44
 BYTE   W03
 BYTE   EOT
 BYTE   Gn3
 BYTE   W48
 BYTE   W01
//  #06 //114   ----------------------------------------
 BYTE   W96
//  #06 //115   ----------------------------------------
 BYTE   W96
//  #06 //116   ----------------------------------------
 BYTE   W96
//  #06 //117   ----------------------------------------
 BYTE   W96
//  #06 //118   ----------------------------------------
 BYTE   W96
//  #06 //119   ----------------------------------------
 BYTE   W96
//  #06 //120   ----------------------------------------
 BYTE   W96
//  #06 //121   ----------------------------------------
 BYTE   W48
 BYTE   GoTo
  POIN2 Label_0100D2E9
//  #06 //122   ----------------------------------------
 BYTE   W48
 BYTE   W96
//  #06 //123   ----------------------------------------
 BYTE   W96
//  #06 //124   ----------------------------------------
 BYTE   W96
//  #06 //125   ----------------------------------------
 BYTE   W44
 BYTE   W03
 BYTE   FINE

//**************** Track 7 (Midi-Chn.6) ****************//

Uncontrollable_007:
//  #07 //000   ----------------------------------------
 BYTE   KEYSH   Uncontrollable_key+0
 BYTE   VOICE   73
 BYTE   VOL   50*Uncontrollable_mvl/mxv
 BYTE   PAN   c_v+5
 BYTE   W96
//  #07 //001   ----------------------------------------
 BYTE   W96
//  #07 //002   ----------------------------------------
 BYTE   W96
//  #07 //003   ----------------------------------------
 BYTE   W96
//  #07 //004   ----------------------------------------
 BYTE   W96
//  #07 //005   ----------------------------------------
 BYTE   W96
//  #07 //006   ----------------------------------------
 BYTE   W96
//  #07 //007   ----------------------------------------
 BYTE   W96
//  #07 //008   ----------------------------------------
 BYTE   W96
//  #07 //009   ----------------------------------------
 BYTE   W96
//  #07 //010   ----------------------------------------
 BYTE   W96
//  #07 //011   ----------------------------------------
 BYTE   W96
//  #07 //012   ----------------------------------------
 BYTE   W96
//  #07 //013   ----------------------------------------
 BYTE   W96
//  #07 //014   ----------------------------------------
 BYTE   W96
//  #07 //015   ----------------------------------------
 BYTE   W96
//  #07 //016   ----------------------------------------
 BYTE   W48
Label_0100D5B5:
 BYTE   W48
//  #07 //017   ----------------------------------------
 BYTE   W96
//  #07 //018   ----------------------------------------
 BYTE   W96
//  #07 //019   ----------------------------------------
 BYTE   W96
//  #07 //020   ----------------------------------------
 BYTE   W96
//  #07 //021   ----------------------------------------
 BYTE   W96
//  #07 //022   ----------------------------------------
 BYTE   W96
//  #07 //023   ----------------------------------------
 BYTE   W96
//  #07 //024   ----------------------------------------
 BYTE   W60
 BYTE   N11  En4  v080
 BYTE   W12
 BYTE   N11
 BYTE   W24
//  #07 //025   ----------------------------------------
 BYTE   N23
 BYTE   W48
 BYTE   N11  Fs4
 BYTE   W12
 BYTE   N05  Gn4
 BYTE   W24
 BYTE   N11  Fs4
 BYTE   W12
//  #07 //026   ----------------------------------------
 BYTE   W12
 BYTE   N32  Dn4
 BYTE   W48
 BYTE   N11  En4
 BYTE   W12
 BYTE   N11
 BYTE   W24
//  #07 //027   ----------------------------------------
 BYTE   N23
 BYTE   W48
 BYTE   Fs4
 BYTE   W24
 BYTE   N11  Gn4
 BYTE   W12
 BYTE   Fs4
 BYTE   W12
//  #07 //028   ----------------------------------------
 BYTE   W12
 BYTE   N32  Dn4
 BYTE   W36
 BYTE   N11
 BYTE   W12
 BYTE   En4
 BYTE   W12
 BYTE   N05  Dn4
 BYTE   W12
 BYTE   N11
 BYTE   W12
//  #07 //029   ----------------------------------------
 BYTE   W12
 BYTE   N32  An3
 BYTE   W36
 BYTE   N11  Dn4
 BYTE   W12
 BYTE   En4
 BYTE   W12
 BYTE   Dn4
 BYTE   W12
 BYTE   N44
 BYTE   W12
//  #07 //030   ----------------------------------------
 BYTE   W48
 BYTE   N11
 BYTE   W12
 BYTE   En4
 BYTE   W12
 BYTE   N05  Dn4
 BYTE   W12
 BYTE   N11
 BYTE   W12
//  #07 //031   ----------------------------------------
 BYTE   W12
 BYTE   N32  An3
 BYTE   W36
 BYTE   N11  Dn4
 BYTE   W12
 BYTE   En4
 BYTE   W12
 BYTE   Dn4
 BYTE   W12
 BYTE   N23
 BYTE   W12
//  #07 //032   ----------------------------------------
 BYTE   W12
 BYTE   An3
 BYTE   W36
 BYTE   TIE  Bn3  v064
 BYTE   W48
//  #07 //033   ----------------------------------------
 BYTE   W96
//  #07 //034   ----------------------------------------
 BYTE   W44
 BYTE   W03
 BYTE   EOT
 BYTE   W01
 BYTE   TIE
 BYTE   W48
//  #07 //035   ----------------------------------------
 BYTE   W96
//  #07 //036   ----------------------------------------
 BYTE   W44
 BYTE   W03
 BYTE   EOT
 BYTE   W01
 BYTE   TIE
 BYTE   W48
//  #07 //037   ----------------------------------------
 BYTE   W96
//  #07 //038   ----------------------------------------
 BYTE   W44
 BYTE   W03
 BYTE   EOT
 BYTE   W01
 BYTE   N92
 BYTE   W48
//  #07 //039   ----------------------------------------
 BYTE   W48
 BYTE   N23  En3
 BYTE   W48
//  #07 //040   ----------------------------------------
 BYTE   W24
 BYTE   N11  En3  v112
 BYTE   W12
 BYTE   Bn3
 BYTE   W12
 BYTE   N80  Dn4
 BYTE   W48
//  #07 //041   ----------------------------------------
Label_0100D63C:
 BYTE   W36
 BYTE   N23  Bn3  v112
 BYTE   W24
 BYTE   N44  An3
 BYTE   W36
 BYTE   PEND 
//  #07 //042   ----------------------------------------
 BYTE   W12
 BYTE   N11  Fs3
 BYTE   W12
 BYTE   Gn3
 BYTE   W12
 BYTE   Bn3
 BYTE   W12
 BYTE   N44  Dn4
 BYTE   W48
//  #07 //043   ----------------------------------------
 BYTE   An3
 BYTE   W48
 BYTE   N23  Bn3
 BYTE   W24
 BYTE   N11  Cn4
 BYTE   W12
 BYTE   N44  Bn3
 BYTE   W12
//  #07 //044   ----------------------------------------
 BYTE   W48
 BYTE   N23
 BYTE   W24
 BYTE   N11  Cn4
 BYTE   W12
 BYTE   N32  Bn3
 BYTE   W12
//  #07 //045   ----------------------------------------
 BYTE   W24
 BYTE   N11  Gn3
 BYTE   W12
 BYTE   An3
 BYTE   W12
 BYTE   N23  Bn3
 BYTE   W24
 BYTE   N11  Cn4
 BYTE   W12
 BYTE   N32  Bn3
 BYTE   W12
//  #07 //046   ----------------------------------------
 BYTE   W24
 BYTE   N11  Gn3
 BYTE   W12
 BYTE   An3
 BYTE   W12
 BYTE   N23
 BYTE   W24
 BYTE   N11
 BYTE   W24
//  #07 //047   ----------------------------------------
 BYTE   N11
 BYTE   W24
 BYTE   N23
 BYTE   W24
 BYTE   N23
 BYTE   W24
 BYTE   N11  Gn3
 BYTE   W12
 BYTE   Fs3
 BYTE   W12
//  #07 //048   ----------------------------------------
 BYTE   N23  An3
 BYTE   W48
 BYTE   N80  Dn4
 BYTE   W48
//  #07 //049   ----------------------------------------
 BYTE   PATT
  POIN2 Label_0100D63C
//  #07 //050   ----------------------------------------
 BYTE   W12
 BYTE   N11  Fs3  v112
 BYTE   W12
 BYTE   Gn3
 BYTE   W12
 BYTE   N80  Bn3
 BYTE   W60
//  #07 //051   ----------------------------------------
 BYTE   W24
 BYTE   N11  An3
 BYTE   W12
 BYTE   Gn3
 BYTE   W12
 BYTE   N23  Fs3
 BYTE   W24
 BYTE   N11  Gn3
 BYTE   W12
 BYTE   N44  En3
 BYTE   W12
//  #07 //052   ----------------------------------------
 BYTE   W36
 BYTE   N11  Cn4
 BYTE   W12
 BYTE   N44  Bn3
 BYTE   W48
//  #07 //053   ----------------------------------------
Label_0100D6B3:
 BYTE   N11  Gn3  v112
 BYTE   W12
 BYTE   An3
 BYTE   W12
 BYTE   Gn3
 BYTE   W12
 BYTE   Cn4
 BYTE   W12
 BYTE   N44  Bn3
 BYTE   W48
 BYTE   PEND 
//  #07 //054   ----------------------------------------
 BYTE   PATT
  POIN2 Label_0100D6B3
//  #07 //055   ----------------------------------------
 BYTE   N11  En3  v112
 BYTE   W12
 BYTE   Fs3
 BYTE   W12
 BYTE   Gn3
 BYTE   W12
 BYTE   N32  Bn3
 BYTE   W36
 BYTE   N11  An3
 BYTE   W12
 BYTE   N32  Gn3
 BYTE   W12
//  #07 //056   ----------------------------------------
 BYTE   W24
 BYTE   N11  Fs3
 BYTE   W12
 BYTE   TIE  An3
 BYTE   W60
//  #07 //057   ----------------------------------------
 BYTE   W44
 BYTE   W03
 BYTE   EOT
 BYTE   W48
 BYTE   W01
//  #07 //058   ----------------------------------------
 BYTE   W96
//  #07 //059   ----------------------------------------
 BYTE   W96
//  #07 //060   ----------------------------------------
 BYTE   W96
//  #07 //061   ----------------------------------------
 BYTE   W96
//  #07 //062   ----------------------------------------
 BYTE   W96
//  #07 //063   ----------------------------------------
 BYTE   W96
//  #07 //064   ----------------------------------------
 BYTE   N23  Bn3  v080
 BYTE   W24
 BYTE   En4
 BYTE   W24
 BYTE   N44  Fs4
 BYTE   W48
//  #07 //065   ----------------------------------------
 BYTE   En4
 BYTE   W48
 BYTE   Fs4
 BYTE   W48
//  #07 //066   ----------------------------------------
 BYTE   N40  Gn4
 BYTE   W42
 BYTE   N02
 BYTE   W03
 BYTE   Gs4
 BYTE   W03
 BYTE   N44  An4
 BYTE   W48
//  #07 //067   ----------------------------------------
 BYTE   Gn4
 BYTE   W48
 BYTE   N32  Fs4
 BYTE   W48
//  #07 //068   ----------------------------------------
 BYTE   N23
 BYTE   W24
 BYTE   An4
 BYTE   W24
 BYTE   TIE  Bn4
 BYTE   W48
//  #07 //069   ----------------------------------------
 BYTE   W92
 BYTE   W03
 BYTE   EOT
 BYTE   W01
//  #07 //070   ----------------------------------------
 BYTE   N23  Dn4
 BYTE   W24
 BYTE   Gn4
 BYTE   W24
 BYTE   N92  An4
 BYTE   W48
//  #07 //071   ----------------------------------------
 BYTE   W48
 BYTE   N23  Gn4
 BYTE   W24
 BYTE   Fs4
 BYTE   W24
//  #07 //072   ----------------------------------------
 BYTE   N32  En4
 BYTE   W36
 BYTE   N11  Gn4
 BYTE   W12
 BYTE   N92  Gn4  v112
 BYTE   W48
//  #07 //073   ----------------------------------------
 BYTE   W48
 BYTE   N23  Fs4
 BYTE   W24
 BYTE   En4
 BYTE   W24
//  #07 //074   ----------------------------------------
 BYTE   Dn4
 BYTE   W24
 BYTE   Bn3
 BYTE   W24
 BYTE   N92  Dn4
 BYTE   W48
//  #07 //075   ----------------------------------------
 BYTE   W48
 BYTE   N23  Gn4
 BYTE   W24
 BYTE   Dn4
 BYTE   W24
//  #07 //076   ----------------------------------------
 BYTE   N32  Gn4
 BYTE   W36
 BYTE   N11
 BYTE   W12
 BYTE   N92  Bn4
 BYTE   W48
//  #07 //077   ----------------------------------------
 BYTE   W48
 BYTE   N23  Gn4
 BYTE   W24
 BYTE   An4
 BYTE   W24
//  #07 //078   ----------------------------------------
 BYTE   Bn4
 BYTE   W24
 BYTE   Gn4
 BYTE   W24
 BYTE   TIE  An4
 BYTE   W48
//  #07 //079   ----------------------------------------
 BYTE   W96
//  #07 //080   ----------------------------------------
 BYTE   W44
 BYTE   W03
 BYTE   EOT
 BYTE   W48
 BYTE   W01
//  #07 //081   ----------------------------------------
 BYTE   W12
 BYTE   N17  Gn3  v127
 BYTE   W18
 BYTE   Bn3
 BYTE   W18
 BYTE   N80  Dn4  v112
 BYTE   W48
//  #07 //082   ----------------------------------------
Label_0100D761:
 BYTE   W36
 BYTE   N11  An3  v112
 BYTE   W12
 BYTE   N44  Bn3
 BYTE   W48
 BYTE   PEND 
//  #07 //083   ----------------------------------------
Label_0100D76A:
 BYTE   N23  Gn3  v112
 BYTE   W24
 BYTE   N23
 BYTE   W24
 BYTE   N80  Dn4
 BYTE   W48
 BYTE   PEND 
//  #07 //084   ----------------------------------------
 BYTE   PATT
  POIN2 Label_0100D761
//  #07 //085   ----------------------------------------
 BYTE   N23  Gn3  v112
 BYTE   W24
 BYTE   N23
 BYTE   W24
 BYTE   N68  Cn4
 BYTE   W48
//  #07 //086   ----------------------------------------
 BYTE   W24
 BYTE   N11  Bn3
 BYTE   W12
 BYTE   N32  An3
 BYTE   W36
 BYTE   N11  Bn3
 BYTE   W12
 BYTE   N32
 BYTE   W12
//  #07 //087   ----------------------------------------
 BYTE   W48
 BYTE   Dn4
 BYTE   W36
 BYTE   N11  Gn3
 BYTE   W12
//  #07 //088   ----------------------------------------
 BYTE   N23
 BYTE   W24
 BYTE   N11  Fs3
 BYTE   W12
 BYTE   N80  Gn3
 BYTE   W60
//  #07 //089   ----------------------------------------
 BYTE   W24
 BYTE   N11
 BYTE   W12
 BYTE   N11
 BYTE   W12
 BYTE   N80  Dn4
 BYTE   W48
//  #07 //090   ----------------------------------------
 BYTE   PATT
  POIN2 Label_0100D761
//  #07 //091   ----------------------------------------
 BYTE   PATT
  POIN2 Label_0100D76A
//  #07 //092   ----------------------------------------
 BYTE   PATT
  POIN2 Label_0100D761
//  #07 //093   ----------------------------------------
 BYTE   N23  Gn3  v112
 BYTE   W24
 BYTE   N23
 BYTE   W24
 BYTE   N32  Bn3
 BYTE   W36
 BYTE   N11  An3
 BYTE   W12
//  #07 //094   ----------------------------------------
 BYTE   N32  Bn3
 BYTE   W36
 BYTE   N11  An3
 BYTE   W12
 BYTE   N92  Bn3
 BYTE   W48
//  #07 //095   ----------------------------------------
 BYTE   W48
 BYTE   N32  En3
 BYTE   W36
 BYTE   Fs3
 BYTE   W12
//  #07 //096   ----------------------------------------
 BYTE   W24
 BYTE   N23  Gn3
 BYTE   W24
 BYTE   N44  Bn3  v052
 BYTE   W48
//  #07 //097   ----------------------------------------
Label_0100D7D6:
 BYTE   N23  Gn3  v127
 BYTE   W24
 BYTE   N23
 BYTE   W24
 BYTE   N80  Dn4
 BYTE   W48
 BYTE   PEND 
//  #07 //098   ----------------------------------------
Label_0100D7E0:
 BYTE   W36
 BYTE   N11  An3  v127
 BYTE   W12
 BYTE   N44  Bn3
 BYTE   W48
 BYTE   PEND 
//  #07 //099   ----------------------------------------
 BYTE   PATT
  POIN2 Label_0100D7D6
//  #07 //100   ----------------------------------------
 BYTE   PATT
  POIN2 Label_0100D7E0
//  #07 //101   ----------------------------------------
 BYTE   N23  Gn3  v127
 BYTE   W24
 BYTE   N23
 BYTE   W24
 BYTE   N68  Cn4
 BYTE   W48
//  #07 //102   ----------------------------------------
 BYTE   W24
 BYTE   N11  Bn3
 BYTE   W12
 BYTE   N32  An3
 BYTE   W36
 BYTE   N11  Bn3
 BYTE   W12
 BYTE   N32
 BYTE   W12
//  #07 //103   ----------------------------------------
 BYTE   W48
 BYTE   Dn4
 BYTE   W36
 BYTE   N11  Gn3
 BYTE   W12
//  #07 //104   ----------------------------------------
 BYTE   N23
 BYTE   W24
 BYTE   N11  Fs3
 BYTE   W12
 BYTE   N80  Gn3
 BYTE   W60
//  #07 //105   ----------------------------------------
 BYTE   W24
 BYTE   N11
 BYTE   W12
 BYTE   N11
 BYTE   W12
 BYTE   N80  Dn4
 BYTE   W48
//  #07 //106   ----------------------------------------
 BYTE   PATT
  POIN2 Label_0100D7E0
//  #07 //107   ----------------------------------------
 BYTE   PATT
  POIN2 Label_0100D7D6
//  #07 //108   ----------------------------------------
 BYTE   PATT
  POIN2 Label_0100D7E0
//  #07 //109   ----------------------------------------
 BYTE   N23  Gn3  v127
 BYTE   W24
 BYTE   N23
 BYTE   W24
 BYTE   N32  Bn3
 BYTE   W36
 BYTE   N11  An3
 BYTE   W12
//  #07 //110   ----------------------------------------
 BYTE   N32  Bn3
 BYTE   W36
 BYTE   N11  An3
 BYTE   W12
 BYTE   TIE  Bn3
 BYTE   W48
//  #07 //111   ----------------------------------------
 BYTE   W96
//  #07 //112   ----------------------------------------
 BYTE   W44
 BYTE   W03
 BYTE   EOT
 BYTE   W01
 BYTE   N92  Gn3
 BYTE   W48
//  #07 //113   ----------------------------------------
 BYTE   W96
//  #07 //114   ----------------------------------------
 BYTE   W96
//  #07 //115   ----------------------------------------
 BYTE   W96
//  #07 //116   ----------------------------------------
 BYTE   W96
//  #07 //117   ----------------------------------------
 BYTE   W96
//  #07 //118   ----------------------------------------
 BYTE   W96
//  #07 //119   ----------------------------------------
 BYTE   W96
//  #07 //120   ----------------------------------------
 BYTE   W96
//  #07 //121   ----------------------------------------
 BYTE   W48
 BYTE   GoTo
  POIN2 Label_0100D5B5
//  #07 //122   ----------------------------------------
 BYTE   W48
 BYTE   W96
//  #07 //123   ----------------------------------------
 BYTE   W96
//  #07 //124   ----------------------------------------
 BYTE   W96
//  #07 //125   ----------------------------------------
 BYTE   W44
 BYTE   W03
 BYTE   FINE

//**************** Track 8 (Midi-Chn.7) ****************//

Uncontrollable_008:
//  #08 //000   ----------------------------------------
 BYTE   KEYSH   Uncontrollable_key+0
 BYTE   VOICE   28
 BYTE   VOL   32*Uncontrollable_mvl/mxv
 BYTE   PAN   c_v+20
 BYTE   W96
//  #08 //001   ----------------------------------------
 BYTE   W96
//  #08 //002   ----------------------------------------
 BYTE   W96
//  #08 //003   ----------------------------------------
 BYTE   W96
//  #08 //004   ----------------------------------------
 BYTE   W96
//  #08 //005   ----------------------------------------
 BYTE   W96
//  #08 //006   ----------------------------------------
 BYTE   W96
//  #08 //007   ----------------------------------------
 BYTE   W96
//  #08 //008   ----------------------------------------
 BYTE   W48
 BYTE   N11  En3  v064
 BYTE   W24
 BYTE   N05  Bn2
 BYTE   W12
 BYTE   N23  Dn3
 BYTE   W12
//  #08 //009   ----------------------------------------
Label_0100ECCF:
 BYTE   W12
 BYTE   N11  En3  v064
 BYTE   W12
 BYTE   N11
 BYTE   W12
 BYTE   Bn2
 BYTE   W12
 BYTE   En3
 BYTE   W24
 BYTE   N05  Bn2
 BYTE   W12
 BYTE   N23  Dn3
 BYTE   W12
 BYTE   PEND 
//  #08 //010   ----------------------------------------
 BYTE   PATT
  POIN2 Label_0100ECCF
//  #08 //011   ----------------------------------------
 BYTE   PATT
  POIN2 Label_0100ECCF
//  #08 //012   ----------------------------------------
 BYTE   PATT
  POIN2 Label_0100ECCF
//  #08 //013   ----------------------------------------
 BYTE   PATT
  POIN2 Label_0100ECCF
//  #08 //014   ----------------------------------------
 BYTE   PATT
  POIN2 Label_0100ECCF
//  #08 //015   ----------------------------------------
 BYTE   PATT
  POIN2 Label_0100ECCF
//  #08 //016   ----------------------------------------
 BYTE   W12
 BYTE   N11  En3  v064
 BYTE   W12
 BYTE   N11
 BYTE   W12
 BYTE   Bn2
 BYTE   W12
Label_0100ED08:
 BYTE   N23  En3  v064
 BYTE   W24
 BYTE   N11
 BYTE   W12
 BYTE   N23
 BYTE   W12
//  #08 //017   ----------------------------------------
Label_0100ED10:
 BYTE   W12
 BYTE   N11  En3  v064
 BYTE   W12
 BYTE   N11
 BYTE   W12
 BYTE   N11
 BYTE   W12
 BYTE   N23
 BYTE   W24
 BYTE   N11
 BYTE   W12
 BYTE   N23
 BYTE   W12
 BYTE   PEND 
//  #08 //018   ----------------------------------------
 BYTE   PATT
  POIN2 Label_0100ED10
//  #08 //019   ----------------------------------------
 BYTE   PATT
  POIN2 Label_0100ED10
//  #08 //020   ----------------------------------------
Label_0100ED2A:
 BYTE   W12
 BYTE   N11  En3  v064
 BYTE   W12
 BYTE   N11
 BYTE   W12
 BYTE   N11
 BYTE   W12
 BYTE   N23  Dn3
 BYTE   W24
 BYTE   N11
 BYTE   W12
 BYTE   N23
 BYTE   W12
 BYTE   PEND 
//  #08 //021   ----------------------------------------
Label_0100ED3B:
 BYTE   W12
 BYTE   N11  Dn3  v064
 BYTE   W12
 BYTE   N11
 BYTE   W12
 BYTE   N11
 BYTE   W12
 BYTE   N23
 BYTE   W24
 BYTE   N11
 BYTE   W12
 BYTE   N23
 BYTE   W12
 BYTE   PEND 
//  #08 //022   ----------------------------------------
 BYTE   PATT
  POIN2 Label_0100ED3B
//  #08 //023   ----------------------------------------
 BYTE   PATT
  POIN2 Label_0100ED3B
//  #08 //024   ----------------------------------------
 BYTE   W12
 BYTE   N11  Dn3  v064
 BYTE   W12
 BYTE   N11
 BYTE   W12
 BYTE   N11
 BYTE   W12
 BYTE   N23  En3
 BYTE   W24
 BYTE   N11
 BYTE   W12
 BYTE   N23
 BYTE   W12
//  #08 //025   ----------------------------------------
 BYTE   PATT
  POIN2 Label_0100ED10
//  #08 //026   ----------------------------------------
 BYTE   PATT
  POIN2 Label_0100ED10
//  #08 //027   ----------------------------------------
 BYTE   PATT
  POIN2 Label_0100ED10
//  #08 //028   ----------------------------------------
 BYTE   PATT
  POIN2 Label_0100ED2A
//  #08 //029   ----------------------------------------
 BYTE   PATT
  POIN2 Label_0100ED3B
//  #08 //030   ----------------------------------------
 BYTE   PATT
  POIN2 Label_0100ED3B
//  #08 //031   ----------------------------------------
 BYTE   PATT
  POIN2 Label_0100ED3B
//  #08 //032   ----------------------------------------
 BYTE   W12
 BYTE   N11  Dn3  v064
 BYTE   W12
 BYTE   N11
 BYTE   W12
 BYTE   N11
 BYTE   W12
 BYTE   N02  En3
 BYTE   W06
 BYTE   N02
 BYTE   W06
 BYTE   N02
 BYTE   W06
 BYTE   N02
 BYTE   W06
 BYTE   N02
 BYTE   W06
 BYTE   N02
 BYTE   W06
 BYTE   N02
 BYTE   W06
 BYTE   N02
 BYTE   W06
//  #08 //033   ----------------------------------------
Label_0100EDA2:
 BYTE   N02  En3  v064
 BYTE   W06
 BYTE   N02
 BYTE   W06
 BYTE   N02
 BYTE   W06
 BYTE   N02
 BYTE   W06
 BYTE   N02
 BYTE   W06
 BYTE   N02
 BYTE   W06
 BYTE   N02
 BYTE   W06
 BYTE   N02
 BYTE   W06
 BYTE   N02
 BYTE   W06
 BYTE   N02
 BYTE   W06
 BYTE   N02
 BYTE   W06
 BYTE   N02
 BYTE   W06
 BYTE   N02
 BYTE   W06
 BYTE   N02
 BYTE   W06
 BYTE   N02
 BYTE   W06
 BYTE   N02
 BYTE   W06
 BYTE   PEND 
//  #08 //034   ----------------------------------------
Label_0100EDC5:
 BYTE   N02  En3  v064
 BYTE   W06
 BYTE   N02
 BYTE   W06
 BYTE   N02
 BYTE   W06
 BYTE   N02
 BYTE   W06
 BYTE   N02
 BYTE   W06
 BYTE   N02
 BYTE   W06
 BYTE   N02
 BYTE   W06
 BYTE   N02
 BYTE   W06
 BYTE   Dn3
 BYTE   W06
 BYTE   N02
 BYTE   W06
 BYTE   N02
 BYTE   W06
 BYTE   N02
 BYTE   W06
 BYTE   N02
 BYTE   W06
 BYTE   N02
 BYTE   W06
 BYTE   N02
 BYTE   W06
 BYTE   N02
 BYTE   W06
 BYTE   PEND 
//  #08 //035   ----------------------------------------
 BYTE   N02
 BYTE   W06
 BYTE   N02
 BYTE   W06
 BYTE   N02
 BYTE   W06
 BYTE   N02
 BYTE   W06
 BYTE   N02
 BYTE   W06
 BYTE   N02
 BYTE   W06
 BYTE   N02
 BYTE   W06
 BYTE   N02
 BYTE   W06
 BYTE   En3
 BYTE   W06
 BYTE   N02
 BYTE   W06
 BYTE   N02
 BYTE   W06
 BYTE   N02
 BYTE   W06
 BYTE   N02
 BYTE   W06
 BYTE   N02
 BYTE   W06
 BYTE   N02
 BYTE   W06
 BYTE   N02
 BYTE   W06
//  #08 //036   ----------------------------------------
 BYTE   PATT
  POIN2 Label_0100EDA2
//  #08 //037   ----------------------------------------
 BYTE   PATT
  POIN2 Label_0100EDA2
//  #08 //038   ----------------------------------------
 BYTE   PATT
  POIN2 Label_0100EDC5
//  #08 //039   ----------------------------------------
 BYTE   N02  Dn3  v064
 BYTE   W06
 BYTE   N02
 BYTE   W06
 BYTE   N02
 BYTE   W06
 BYTE   N02
 BYTE   W06
 BYTE   N02
 BYTE   W06
 BYTE   N02
 BYTE   W06
 BYTE   N02
 BYTE   W06
 BYTE   N02
 BYTE   W54
//  #08 //040   ----------------------------------------
 BYTE   W48
 BYTE   N11  En3  v052
 BYTE   W12
 BYTE   N05
 BYTE   W06
 BYTE   N05
 BYTE   W06
 BYTE   N11
 BYTE   W12
 BYTE   N05
 BYTE   W06
 BYTE   N05
 BYTE   W06
//  #08 //041   ----------------------------------------
Label_0100EE38:
 BYTE   N11  En3  v052
 BYTE   W12
 BYTE   N05
 BYTE   W06
 BYTE   N05
 BYTE   W06
 BYTE   N11
 BYTE   W12
 BYTE   N05
 BYTE   W06
 BYTE   N05
 BYTE   W06
 BYTE   N11
 BYTE   W12
 BYTE   N05
 BYTE   W06
 BYTE   N05
 BYTE   W06
 BYTE   N11
 BYTE   W12
 BYTE   N05
 BYTE   W06
 BYTE   N05
 BYTE   W06
 BYTE   PEND 
//  #08 //042   ----------------------------------------
Label_0100EE53:
 BYTE   N11  En3  v052
 BYTE   W12
 BYTE   N05
 BYTE   W06
 BYTE   N05
 BYTE   W06
 BYTE   N11
 BYTE   W12
 BYTE   N05
 BYTE   W06
 BYTE   N05
 BYTE   W06
 BYTE   N11  Cn3
 BYTE   W12
 BYTE   N05
 BYTE   W06
 BYTE   N05
 BYTE   W06
 BYTE   N11
 BYTE   W12
 BYTE   N05
 BYTE   W06
 BYTE   N05
 BYTE   W06
 BYTE   PEND 
//  #08 //043   ----------------------------------------
Label_0100EE6F:
 BYTE   N11  Cn3  v052
 BYTE   W12
 BYTE   N05
 BYTE   W06
 BYTE   N05
 BYTE   W06
 BYTE   N11
 BYTE   W12
 BYTE   N05
 BYTE   W06
 BYTE   N05
 BYTE   W06
 BYTE   N11
 BYTE   W12
 BYTE   N05
 BYTE   W06
 BYTE   N05
 BYTE   W06
 BYTE   N11
 BYTE   W12
 BYTE   N05
 BYTE   W06
 BYTE   N05
 BYTE   W06
 BYTE   PEND 
//  #08 //044   ----------------------------------------
Label_0100EE8A:
 BYTE   N11  Cn3  v052
 BYTE   W12
 BYTE   N05
 BYTE   W06
 BYTE   N05
 BYTE   W06
 BYTE   N11
 BYTE   W12
 BYTE   N05
 BYTE   W06
 BYTE   N05
 BYTE   W06
 BYTE   N11  Dn3
 BYTE   W12
 BYTE   N05
 BYTE   W06
 BYTE   N05
 BYTE   W06
 BYTE   N11
 BYTE   W12
 BYTE   N05
 BYTE   W06
 BYTE   N05
 BYTE   W06
 BYTE   PEND 
//  #08 //045   ----------------------------------------
Label_0100EEA6:
 BYTE   N11  Dn3  v052
 BYTE   W12
 BYTE   N05
 BYTE   W06
 BYTE   N05
 BYTE   W06
 BYTE   N11
 BYTE   W12
 BYTE   N05
 BYTE   W06
 BYTE   N05
 BYTE   W06
 BYTE   N11
 BYTE   W12
 BYTE   N05
 BYTE   W06
 BYTE   N05
 BYTE   W06
 BYTE   N11
 BYTE   W12
 BYTE   N05
 BYTE   W06
 BYTE   N05
 BYTE   W06
 BYTE   PEND 
//  #08 //046   ----------------------------------------
 BYTE   N11
 BYTE   W12
 BYTE   N05
 BYTE   W06
 BYTE   N05
 BYTE   W06
 BYTE   N11
 BYTE   W12
 BYTE   N05
 BYTE   W06
 BYTE   N05
 BYTE   W06
 BYTE   N11  An2
 BYTE   W12
 BYTE   N05
 BYTE   W06
 BYTE   N05
 BYTE   W06
 BYTE   N11
 BYTE   W12
 BYTE   N05
 BYTE   W06
 BYTE   N05
 BYTE   W06
//  #08 //047   ----------------------------------------
Label_0100EEDA:
 BYTE   N11  An2  v052
 BYTE   W12
 BYTE   N05
 BYTE   W06
 BYTE   N05
 BYTE   W06
 BYTE   N11
 BYTE   W12
 BYTE   N05
 BYTE   W06
 BYTE   N05
 BYTE   W06
 BYTE   N11
 BYTE   W12
 BYTE   N05
 BYTE   W06
 BYTE   N05
 BYTE   W06
 BYTE   N11
 BYTE   W12
 BYTE   N05
 BYTE   W06
 BYTE   N05
 BYTE   W06
 BYTE   PEND 
//  #08 //048   ----------------------------------------
 BYTE   N11
 BYTE   W12
 BYTE   N05
 BYTE   W06
 BYTE   N05
 BYTE   W06
 BYTE   N11
 BYTE   W12
 BYTE   N05
 BYTE   W06
 BYTE   N05
 BYTE   W06
 BYTE   N11  En3
 BYTE   W12
 BYTE   N05
 BYTE   W06
 BYTE   N05
 BYTE   W06
 BYTE   N11
 BYTE   W12
 BYTE   N05
 BYTE   W06
 BYTE   N05
 BYTE   W06
//  #08 //049   ----------------------------------------
 BYTE   PATT
  POIN2 Label_0100EE38
//  #08 //050   ----------------------------------------
 BYTE   PATT
  POIN2 Label_0100EE53
//  #08 //051   ----------------------------------------
 BYTE   PATT
  POIN2 Label_0100EE6F
//  #08 //052   ----------------------------------------
 BYTE   N11  Cn3  v052
 BYTE   W12
 BYTE   N05
 BYTE   W06
 BYTE   N05
 BYTE   W06
 BYTE   N11
 BYTE   W12
 BYTE   N05
 BYTE   W06
 BYTE   N05
 BYTE   W06
 BYTE   N11  Bn2
 BYTE   W12
 BYTE   N05
 BYTE   W06
 BYTE   N05
 BYTE   W06
 BYTE   N11
 BYTE   W12
 BYTE   N05
 BYTE   W06
 BYTE   N05
 BYTE   W06
//  #08 //053   ----------------------------------------
Label_0100EF38:
 BYTE   N11  Bn2  v052
 BYTE   W12
 BYTE   N05
 BYTE   W06
 BYTE   N05
 BYTE   W06
 BYTE   N11
 BYTE   W12
 BYTE   N05
 BYTE   W06
 BYTE   N05
 BYTE   W06
 BYTE   N11
 BYTE   W12
 BYTE   N05
 BYTE   W06
 BYTE   N05
 BYTE   W06
 BYTE   N11
 BYTE   W12
 BYTE   N05
 BYTE   W06
 BYTE   N05
 BYTE   W06
 BYTE   PEND 
//  #08 //054   ----------------------------------------
 BYTE   N11
 BYTE   W12
 BYTE   N05
 BYTE   W06
 BYTE   N05
 BYTE   W06
 BYTE   N11
 BYTE   W12
 BYTE   N05
 BYTE   W06
 BYTE   N05
 BYTE   W06
 BYTE   N11  An2
 BYTE   W12
 BYTE   N05
 BYTE   W06
 BYTE   N05
 BYTE   W06
 BYTE   N11
 BYTE   W12
 BYTE   N05
 BYTE   W06
 BYTE   N05
 BYTE   W06
//  #08 //055   ----------------------------------------
 BYTE   PATT
  POIN2 Label_0100EEDA
//  #08 //056   ----------------------------------------
 BYTE   N11  An2  v052
 BYTE   W12
 BYTE   N05
 BYTE   W06
 BYTE   N05
 BYTE   W06
 BYTE   N11
 BYTE   W12
 BYTE   N05
 BYTE   W06
 BYTE   N05
 BYTE   W54
//  #08 //057   ----------------------------------------
 BYTE   W96
//  #08 //058   ----------------------------------------
 BYTE   W96
//  #08 //059   ----------------------------------------
 BYTE   W96
//  #08 //060   ----------------------------------------
 BYTE   W96
//  #08 //061   ----------------------------------------
 BYTE   W96
//  #08 //062   ----------------------------------------
 BYTE   W96
//  #08 //063   ----------------------------------------
 BYTE   W96
//  #08 //064   ----------------------------------------
 BYTE   W48
 BYTE   TIE  En2  v112
 BYTE   W01
 BYTE   Gn2
 BYTE   W02
 BYTE   Bn2
 BYTE   W44
 BYTE   W01
//  #08 //065   ----------------------------------------
 BYTE   W96
//  #08 //066   ----------------------------------------
 BYTE   W44
 BYTE   W03
 BYTE   EOT
 BYTE   En2  v055
 BYTE   Bn2
 BYTE   W01
 BYTE   TIE  En2
 BYTE   W01
 BYTE   Gn2
 BYTE   W02
 BYTE   Cn3
 BYTE   W44
 BYTE   W01
//  #08 //067   ----------------------------------------
 BYTE   W96
//  #08 //068   ----------------------------------------
 BYTE   W44
 BYTE   W03
 BYTE   EOT
 BYTE   En2  v055
 BYTE   Cn3
 BYTE   W01
 BYTE   TIE  Gn2
 BYTE   W01
 BYTE   Bn2
 BYTE   W02
 BYTE   Dn3
 BYTE   W44
 BYTE   W01
//  #08 //069   ----------------------------------------
 BYTE   W96
//  #08 //070   ----------------------------------------
 BYTE   W44
 BYTE   W03
 BYTE   EOT
 BYTE   Gn2  v059
 BYTE   Dn3
 BYTE   W01
 BYTE   TIE  Dn2
 BYTE   W01
 BYTE   Fs2
 BYTE   W02
 BYTE   An2
 BYTE   W44
 BYTE   W01
//  #08 //071   ----------------------------------------
 BYTE   W96
//  #08 //072   ----------------------------------------
 BYTE   W44
 BYTE   W03
 BYTE   EOT
 BYTE   Dn2  v054
 BYTE   An2
 BYTE   W01
 BYTE   N11  En2  v064
 BYTE   W12
 BYTE   Bn2
 BYTE   W12
 BYTE   Gn2
 BYTE   W12
 BYTE   N23  Bn2
 BYTE   W12
//  #08 //073   ----------------------------------------
 BYTE   W12
 BYTE   N32  En3
 BYTE   W36
 BYTE   N11  En2
 BYTE   W12
 BYTE   Bn2
 BYTE   W12
 BYTE   Gn2
 BYTE   W12
 BYTE   N23  Bn2
 BYTE   W12
//  #08 //074   ----------------------------------------
Label_0100EFE1:
 BYTE   W12
 BYTE   N32  En3  v064
 BYTE   W36
 BYTE   N11  En2
 BYTE   W12
 BYTE   Cn3
 BYTE   W12
 BYTE   Gn2
 BYTE   W12
 BYTE   N23  Cn3
 BYTE   W12
 BYTE   PEND 
//  #08 //075   ----------------------------------------
 BYTE   PATT
  POIN2 Label_0100EFE1
//  #08 //076   ----------------------------------------
 BYTE   W12
 BYTE   N32  En3  v064
 BYTE   W36
 BYTE   N11  Gn2
 BYTE   W12
 BYTE   Dn3
 BYTE   W12
 BYTE   Bn2
 BYTE   W12
 BYTE   N23  Dn3
 BYTE   W12
//  #08 //077   ----------------------------------------
 BYTE   W12
 BYTE   N32  Gn3
 BYTE   W36
 BYTE   N11  Gn2
 BYTE   W12
 BYTE   Dn3
 BYTE   W12
 BYTE   Bn2
 BYTE   W12
 BYTE   N23  Dn3
 BYTE   W12
//  #08 //078   ----------------------------------------
 BYTE   W12
 BYTE   N32  Gn3
 BYTE   W36
 BYTE   N11  Dn2
 BYTE   W12
 BYTE   An2
 BYTE   W12
 BYTE   Fs2
 BYTE   W12
 BYTE   N23  An2
 BYTE   W12
//  #08 //079   ----------------------------------------
 BYTE   W12
 BYTE   N32  Dn3
 BYTE   W36
 BYTE   N11  Dn2
 BYTE   W12
 BYTE   An2
 BYTE   W12
 BYTE   Fs2
 BYTE   W12
 BYTE   N23  An2
 BYTE   W12
//  #08 //080   ----------------------------------------
 BYTE   W12
 BYTE   N32  Dn3
 BYTE   W84
//  #08 //081   ----------------------------------------
Label_0100F033:
 BYTE   W48
 BYTE   N11  Gn3  v052
 BYTE   W12
 BYTE   N05
 BYTE   W06
 BYTE   N05
 BYTE   W06
 BYTE   N11
 BYTE   W12
 BYTE   N05
 BYTE   W06
 BYTE   N05
 BYTE   W06
 BYTE   PEND 
//  #08 //082   ----------------------------------------
Label_0100F043:
 BYTE   N11  Gn3  v052
 BYTE   W12
 BYTE   N05
 BYTE   W06
 BYTE   N05
 BYTE   W06
 BYTE   N11
 BYTE   W12
 BYTE   N05
 BYTE   W06
 BYTE   N05
 BYTE   W06
 BYTE   N11
 BYTE   W12
 BYTE   N05
 BYTE   W06
 BYTE   N05
 BYTE   W06
 BYTE   N11
 BYTE   W12
 BYTE   N05
 BYTE   W06
 BYTE   N05
 BYTE   W06
 BYTE   PEND 
//  #08 //083   ----------------------------------------
Label_0100F05E:
 BYTE   N11  Gn3  v052
 BYTE   W12
 BYTE   N05
 BYTE   W06
 BYTE   N05
 BYTE   W06
 BYTE   N11
 BYTE   W12
 BYTE   N05
 BYTE   W06
 BYTE   N05
 BYTE   W06
 BYTE   N11  Bn2
 BYTE   W12
 BYTE   N05
 BYTE   W06
 BYTE   N05
 BYTE   W06
 BYTE   N11
 BYTE   W12
 BYTE   N05
 BYTE   W06
 BYTE   N05
 BYTE   W06
 BYTE   PEND 
//  #08 //084   ----------------------------------------
 BYTE   PATT
  POIN2 Label_0100EF38
//  #08 //085   ----------------------------------------
Label_0100F07F:
 BYTE   N11  Bn2  v052
 BYTE   W12
 BYTE   N05
 BYTE   W06
 BYTE   N05
 BYTE   W06
 BYTE   N11
 BYTE   W12
 BYTE   N05
 BYTE   W06
 BYTE   N05
 BYTE   W06
 BYTE   N11  En3
 BYTE   W12
 BYTE   N05
 BYTE   W06
 BYTE   N05
 BYTE   W06
 BYTE   N11
 BYTE   W12
 BYTE   N05
 BYTE   W06
 BYTE   N05
 BYTE   W06
 BYTE   PEND 
//  #08 //086   ----------------------------------------
 BYTE   PATT
  POIN2 Label_0100EE38
//  #08 //087   ----------------------------------------
Label_0100F0A0:
 BYTE   N11  En3  v052
 BYTE   W12
 BYTE   N05
 BYTE   W06
 BYTE   N05
 BYTE   W06
 BYTE   N11
 BYTE   W12
 BYTE   N05
 BYTE   W06
 BYTE   N05
 BYTE   W06
 BYTE   N11  Dn3
 BYTE   W12
 BYTE   N05
 BYTE   W06
 BYTE   N05
 BYTE   W06
 BYTE   N11
 BYTE   W12
 BYTE   N05
 BYTE   W06
 BYTE   N05
 BYTE   W06
 BYTE   PEND 
//  #08 //088   ----------------------------------------
 BYTE   PATT
  POIN2 Label_0100EEA6
//  #08 //089   ----------------------------------------
 BYTE   N11  Dn3  v052
 BYTE   W12
 BYTE   N05
 BYTE   W06
 BYTE   N05
 BYTE   W06
 BYTE   N11
 BYTE   W12
 BYTE   N05
 BYTE   W06
 BYTE   N05
 BYTE   W06
 BYTE   N11  Gn3
 BYTE   W12
 BYTE   N05
 BYTE   W06
 BYTE   N05
 BYTE   W06
 BYTE   N11
 BYTE   W12
 BYTE   N05
 BYTE   W06
 BYTE   N05
 BYTE   W06
//  #08 //090   ----------------------------------------
 BYTE   PATT
  POIN2 Label_0100F043
//  #08 //091   ----------------------------------------
 BYTE   PATT
  POIN2 Label_0100F05E
//  #08 //092   ----------------------------------------
 BYTE   PATT
  POIN2 Label_0100EF38
//  #08 //093   ----------------------------------------
 BYTE   N11  Bn2  v052
 BYTE   W12
 BYTE   N05
 BYTE   W06
 BYTE   N05
 BYTE   W06
 BYTE   N11
 BYTE   W12
 BYTE   N05
 BYTE   W06
 BYTE   N05
 BYTE   W06
 BYTE   N11  Cn3
 BYTE   W12
 BYTE   N05
 BYTE   W06
 BYTE   N05
 BYTE   W06
 BYTE   N11
 BYTE   W12
 BYTE   N05
 BYTE   W06
 BYTE   N05
 BYTE   W06
//  #08 //094   ----------------------------------------
 BYTE   PATT
  POIN2 Label_0100EE8A
//  #08 //095   ----------------------------------------
 BYTE   N11  Dn3  v052
 BYTE   W12
 BYTE   N05
 BYTE   W06
 BYTE   N05
 BYTE   W06
 BYTE   N11
 BYTE   W12
 BYTE   N05
 BYTE   W06
 BYTE   N05
 BYTE   W54
//  #08 //096   ----------------------------------------
 BYTE   PATT
  POIN2 Label_0100F033
//  #08 //097   ----------------------------------------
 BYTE   PATT
  POIN2 Label_0100F043
//  #08 //098   ----------------------------------------
 BYTE   PATT
  POIN2 Label_0100F043
//  #08 //099   ----------------------------------------
 BYTE   PATT
  POIN2 Label_0100F05E
//  #08 //100   ----------------------------------------
 BYTE   PATT
  POIN2 Label_0100EF38
//  #08 //101   ----------------------------------------
 BYTE   PATT
  POIN2 Label_0100F07F
//  #08 //102   ----------------------------------------
 BYTE   PATT
  POIN2 Label_0100EE38
//  #08 //103   ----------------------------------------
 BYTE   PATT
  POIN2 Label_0100F0A0
//  #08 //104   ----------------------------------------
 BYTE   PATT
  POIN2 Label_0100EEA6
//  #08 //105   ----------------------------------------
 BYTE   N11  Dn3  v052
 BYTE   W12
 BYTE   N05
 BYTE   W06
 BYTE   N05
 BYTE   W06
 BYTE   N11
 BYTE   W12
 BYTE   N05
 BYTE   W06
 BYTE   N05
 BYTE   W06
 BYTE   N11  Gn2
 BYTE   W12
 BYTE   N05
 BYTE   W06
 BYTE   N05
 BYTE   W06
 BYTE   N11
 BYTE   W12
 BYTE   N05
 BYTE   W06
 BYTE   N05
 BYTE   W06
//  #08 //106   ----------------------------------------
 BYTE   N11
 BYTE   W12
 BYTE   N05
 BYTE   W06
 BYTE   N05
 BYTE   W06
 BYTE   N11
 BYTE   W12
 BYTE   N05
 BYTE   W06
 BYTE   N05
 BYTE   W06
 BYTE   N11
 BYTE   W12
 BYTE   N05
 BYTE   W06
 BYTE   N05
 BYTE   W06
 BYTE   N11
 BYTE   W12
 BYTE   N05
 BYTE   W06
 BYTE   N05
 BYTE   W06
//  #08 //107   ----------------------------------------
 BYTE   N11
 BYTE   W12
 BYTE   N05
 BYTE   W06
 BYTE   N05
 BYTE   W06
 BYTE   N11
 BYTE   W12
 BYTE   N05
 BYTE   W06
 BYTE   N05
 BYTE   W06
 BYTE   N11  Bn2
 BYTE   W12
 BYTE   N05
 BYTE   W06
 BYTE   N05
 BYTE   W06
 BYTE   N11
 BYTE   W12
 BYTE   N05
 BYTE   W06
 BYTE   N05
 BYTE   W06
//  #08 //108   ----------------------------------------
 BYTE   PATT
  POIN2 Label_0100EF38
//  #08 //109   ----------------------------------------
 BYTE   PATT
  POIN2 Label_0100F07F
//  #08 //110   ----------------------------------------
 BYTE   PATT
  POIN2 Label_0100EE38
//  #08 //111   ----------------------------------------
 BYTE   N11  En3  v052
 BYTE   W12
 BYTE   N05
 BYTE   W06
 BYTE   N05
 BYTE   W06
 BYTE   N11
 BYTE   W12
 BYTE   N05
 BYTE   W06
 BYTE   N05
 BYTE   W54
//  #08 //112   ----------------------------------------
 BYTE   PATT
  POIN2 Label_0100F033
//  #08 //113   ----------------------------------------
 BYTE   N11  Gn3  v052
 BYTE   W12
 BYTE   N05
 BYTE   W06
 BYTE   N05
 BYTE   W06
 BYTE   N11
 BYTE   W12
 BYTE   N05
 BYTE   W06
 BYTE   N05
 BYTE   W54
//  #08 //114   ----------------------------------------
 BYTE   W96
//  #08 //115   ----------------------------------------
 BYTE   W96
//  #08 //116   ----------------------------------------
 BYTE   W96
//  #08 //117   ----------------------------------------
 BYTE   W96
//  #08 //118   ----------------------------------------
 BYTE   W96
//  #08 //119   ----------------------------------------
 BYTE   W96
//  #08 //120   ----------------------------------------
 BYTE   W96
//  #08 //121   ----------------------------------------
 BYTE   W48
 BYTE   GoTo
  POIN2 Label_0100ED08
//  #08 //122   ----------------------------------------
 BYTE   W48
 BYTE   W96
//  #08 //123   ----------------------------------------
 BYTE   W96
//  #08 //124   ----------------------------------------
 BYTE   W96
//  #08 //125   ----------------------------------------
 BYTE   W44
 BYTE   W03
 BYTE   FINE

//**************** Track 9 (Midi-Chn.8) ****************//

Uncontrollable_009:
//  #09 //000   ----------------------------------------
 BYTE   KEYSH   Uncontrollable_key+0
 BYTE   VOICE   29
 BYTE   VOL   32*Uncontrollable_mvl/mxv
 BYTE   PAN   c_v+0
 BYTE   N11  En1  v080
 BYTE   W12
 BYTE   Fs1
 BYTE   W12
 BYTE   N23  Gn1
 BYTE   W24
 BYTE   N80  En1  v127
 BYTE   W48
//  #09 //001   ----------------------------------------
 BYTE   W36
 BYTE   N11
 BYTE   W12
 BYTE   N80
 BYTE   W48
//  #09 //002   ----------------------------------------
 BYTE   W36
 BYTE   N02
 BYTE   W02
 BYTE   Fn1
 BYTE   W02
 BYTE   Fs1
 BYTE   W03
 BYTE   Gn1
 BYTE   W02
 BYTE   Gs1
 BYTE   W03
 BYTE   N80  An1
 BYTE   W48
//  #09 //003   ----------------------------------------
 BYTE   W36
 BYTE   N11
 BYTE   W12
 BYTE   N80
 BYTE   W48
//  #09 //004   ----------------------------------------
 BYTE   W36
 BYTE   N03
 BYTE   W03
 BYTE   As1
 BYTE   W04
 BYTE   Bn1
 BYTE   W05
 BYTE   N80  Cn2
 BYTE   W48
//  #09 //005   ----------------------------------------
 BYTE   W36
 BYTE   N11
 BYTE   W12
 BYTE   N80
 BYTE   W48
//  #09 //006   ----------------------------------------
 BYTE   W36
 BYTE   N03
 BYTE   W03
 BYTE   Bn1
 BYTE   W04
 BYTE   As1
 BYTE   W05
 BYTE   N80  An1
 BYTE   W48
//  #09 //007   ----------------------------------------
 BYTE   W36
 BYTE   N05
 BYTE   W06
 BYTE   As1
 BYTE   W06
 BYTE   N80  Bn1
 BYTE   W48
//  #09 //008   ----------------------------------------
 BYTE   W36
 BYTE   N01
 BYTE   W01
 BYTE   As1
 BYTE   W02
 BYTE   An1
 BYTE   W02
 BYTE   Gs1
 BYTE   W01
 BYTE   Gn1
 BYTE   W02
 BYTE   Fs1
 BYTE   W02
 BYTE   Fn1
 BYTE   W02
 BYTE   N76  En1
 BYTE   W48
//  #09 //009   ----------------------------------------
 BYTE   W30
 BYTE   N05
 BYTE   W06
 BYTE   N11
 BYTE   W12
 BYTE   N76
 BYTE   W48
//  #09 //010   ----------------------------------------
 BYTE   W30
 BYTE   N05
 BYTE   W06
 BYTE   N02
 BYTE   W02
 BYTE   Fn1
 BYTE   W02
 BYTE   Fs1
 BYTE   W03
 BYTE   Gn1
 BYTE   W02
 BYTE   Gs1
 BYTE   W03
 BYTE   N76  An1
 BYTE   W48
//  #09 //011   ----------------------------------------
 BYTE   W30
 BYTE   N05
 BYTE   W06
 BYTE   N11
 BYTE   W12
 BYTE   N76
 BYTE   W48
//  #09 //012   ----------------------------------------
 BYTE   W30
 BYTE   N05
 BYTE   W06
 BYTE   N03
 BYTE   W03
 BYTE   As1
 BYTE   W04
 BYTE   Bn1
 BYTE   W05
 BYTE   N76  Cn2
 BYTE   W48
//  #09 //013   ----------------------------------------
 BYTE   W30
 BYTE   N05
 BYTE   W06
 BYTE   N11
 BYTE   W12
 BYTE   N76
 BYTE   W48
//  #09 //014   ----------------------------------------
 BYTE   W30
 BYTE   N05
 BYTE   W06
 BYTE   N03
 BYTE   W03
 BYTE   Bn1
 BYTE   W04
 BYTE   As1
 BYTE   W05
 BYTE   N76  An1
 BYTE   W48
//  #09 //015   ----------------------------------------
 BYTE   W30
 BYTE   N05
 BYTE   W06
 BYTE   N05
 BYTE   W06
 BYTE   As1
 BYTE   W06
 BYTE   N76  Bn1
 BYTE   W48
//  #09 //016   ----------------------------------------
 BYTE   W30
 BYTE   N05
 BYTE   W06
 BYTE   N11
 BYTE   W12
Label_549FD4:
 BYTE   W48
//  #09 //017   ----------------------------------------
 BYTE   W96
//  #09 //018   ----------------------------------------
 BYTE   W96
//  #09 //019   ----------------------------------------
 BYTE   W96
//  #09 //020   ----------------------------------------
 BYTE   W96
//  #09 //021   ----------------------------------------
 BYTE   W96
//  #09 //022   ----------------------------------------
 BYTE   W96
//  #09 //023   ----------------------------------------
 BYTE   W96
//  #09 //024   ----------------------------------------
Label_549FDC:
 BYTE   W48
 BYTE   N23  En1  v127
 BYTE   W24
 BYTE   N68
 BYTE   W24
 BYTE   PEND 
//  #09 //025   ----------------------------------------
 BYTE   W96
//  #09 //026   ----------------------------------------
 BYTE   PATT
  POIN2 Label_549FDC
//  #09 //027   ----------------------------------------
 BYTE   W96
//  #09 //028   ----------------------------------------
 BYTE   W48
 BYTE   N23  Dn1  v127
 BYTE   W24
 BYTE   N68
 BYTE   W24
//  #09 //029   ----------------------------------------
 BYTE   W96
//  #09 //030   ----------------------------------------
 BYTE   W48
 BYTE   N23  Cn1
 BYTE   W24
 BYTE   N68
 BYTE   W24
//  #09 //031   ----------------------------------------
 BYTE   W96
//  #09 //032   ----------------------------------------
 BYTE   W96
//  #09 //033   ----------------------------------------
 BYTE   W96
//  #09 //034   ----------------------------------------
 BYTE   W96
//  #09 //035   ----------------------------------------
 BYTE   W96
//  #09 //036   ----------------------------------------
 BYTE   W96
//  #09 //037   ----------------------------------------
 BYTE   W96
//  #09 //038   ----------------------------------------
 BYTE   W96
//  #09 //039   ----------------------------------------
 BYTE   W96
//  #09 //040   ----------------------------------------
Label_54A002:
 BYTE   W48
 BYTE   TIE  En0  v080
 BYTE   W48
 BYTE   PEND 
//  #09 //041   ----------------------------------------
 BYTE   W96
//  #09 //042   ----------------------------------------
 BYTE   W44
 BYTE   W03
 BYTE   EOT
 BYTE   W01
 BYTE   TIE  Cn1
 BYTE   W48
//  #09 //043   ----------------------------------------
 BYTE   W96
//  #09 //044   ----------------------------------------
 BYTE   W44
 BYTE   W03
 BYTE   EOT
 BYTE   W01
 BYTE   TIE  Dn1
 BYTE   W48
//  #09 //045   ----------------------------------------
 BYTE   W96
//  #09 //046   ----------------------------------------
 BYTE   W44
 BYTE   W03
 BYTE   EOT
 BYTE   W01
 BYTE   N92  Bn0
 BYTE   W48
//  #09 //047   ----------------------------------------
 BYTE   W48
 BYTE   An0
 BYTE   W48
//  #09 //048   ----------------------------------------
 BYTE   PATT
  POIN2 Label_54A002
//  #09 //049   ----------------------------------------
 BYTE   W96
//  #09 //050   ----------------------------------------
 BYTE   W44
 BYTE   W03
 BYTE   EOT
 BYTE   En0
 BYTE   W01
 BYTE   TIE  Cn1  v080
 BYTE   W48
//  #09 //051   ----------------------------------------
 BYTE   W96
//  #09 //052   ----------------------------------------
 BYTE   W44
 BYTE   W03
 BYTE   EOT
 BYTE   W01
 BYTE   TIE  Dn1
 BYTE   W48
//  #09 //053   ----------------------------------------
 BYTE   W96
//  #09 //054   ----------------------------------------
 BYTE   W44
 BYTE   W03
 BYTE   EOT
 BYTE   W01
 BYTE   N92  An0
 BYTE   W48
//  #09 //055   ----------------------------------------
 BYTE   W48
 BYTE   Bn0
 BYTE   W48
//  #09 //056   ----------------------------------------
 BYTE   W96
//  #09 //057   ----------------------------------------
 BYTE   W96
//  #09 //058   ----------------------------------------
 BYTE   W96
//  #09 //059   ----------------------------------------
 BYTE   W96
//  #09 //060   ----------------------------------------
 BYTE   W96
//  #09 //061   ----------------------------------------
 BYTE   W96
//  #09 //062   ----------------------------------------
 BYTE   W96
//  #09 //063   ----------------------------------------
 BYTE   W96
//  #09 //064   ----------------------------------------
 BYTE   W96
//  #09 //065   ----------------------------------------
 BYTE   W96
//  #09 //066   ----------------------------------------
 BYTE   W96
//  #09 //067   ----------------------------------------
 BYTE   W96
//  #09 //068   ----------------------------------------
 BYTE   W96
//  #09 //069   ----------------------------------------
 BYTE   W96
//  #09 //070   ----------------------------------------
 BYTE   W96
//  #09 //071   ----------------------------------------
 BYTE   W96
//  #09 //072   ----------------------------------------
 BYTE   W96
//  #09 //073   ----------------------------------------
 BYTE   W96
//  #09 //074   ----------------------------------------
 BYTE   W96
//  #09 //075   ----------------------------------------
 BYTE   W96
//  #09 //076   ----------------------------------------
 BYTE   W96
//  #09 //077   ----------------------------------------
 BYTE   W96
//  #09 //078   ----------------------------------------
 BYTE   W96
//  #09 //079   ----------------------------------------
 BYTE   W96
//  #09 //080   ----------------------------------------
 BYTE   W96
//  #09 //081   ----------------------------------------
 BYTE   W48
 BYTE   TIE  Gn0
 BYTE   W48
//  #09 //082   ----------------------------------------
 BYTE   W96
//  #09 //083   ----------------------------------------
 BYTE   W44
 BYTE   W03
 BYTE   EOT
 BYTE   W01
 BYTE   TIE  Bn0
 BYTE   W48
//  #09 //084   ----------------------------------------
 BYTE   W96
//  #09 //085   ----------------------------------------
 BYTE   W44
 BYTE   W03
 BYTE   EOT
 BYTE   W01
 BYTE   TIE  En0
 BYTE   W48
//  #09 //086   ----------------------------------------
 BYTE   W96
//  #09 //087   ----------------------------------------
 BYTE   W44
 BYTE   W03
 BYTE   EOT
 BYTE   W01
 BYTE   TIE  Dn1
 BYTE   W48
//  #09 //088   ----------------------------------------
 BYTE   W96
//  #09 //089   ----------------------------------------
 BYTE   W44
 BYTE   W03
 BYTE   EOT
 BYTE   W01
 BYTE   TIE  Gn0
 BYTE   W48
//  #09 //090   ----------------------------------------
 BYTE   W96
//  #09 //091   ----------------------------------------
 BYTE   W44
 BYTE   W03
 BYTE   EOT
 BYTE   W01
 BYTE   TIE  Bn0
 BYTE   W48
//  #09 //092   ----------------------------------------
 BYTE   W96
//  #09 //093   ----------------------------------------
 BYTE   W44
 BYTE   W03
 BYTE   EOT
 BYTE   W01
 BYTE   N92  Cn1
 BYTE   W48
//  #09 //094   ----------------------------------------
 BYTE   W48
 BYTE   Dn1
 BYTE   W48
//  #09 //095   ----------------------------------------
 BYTE   W48
 BYTE   N32  En0
 BYTE   W36
 BYTE   Fs0
 BYTE   W12
//  #09 //096   ----------------------------------------
Label_54A09B:
 BYTE   W24
 BYTE   TIE  Gn0  v080
 BYTE   W72
 BYTE   PEND 
//  #09 //097   ----------------------------------------
 BYTE   W44
 BYTE   W03
 BYTE   EOT
 BYTE   W01
 BYTE   TIE
 BYTE   W48
//  #09 //098   ----------------------------------------
 BYTE   W96
//  #09 //099   ----------------------------------------
 BYTE   W44
 BYTE   W03
 BYTE   EOT
 BYTE   W01
 BYTE   TIE  Bn0
 BYTE   W48
//  #09 //100   ----------------------------------------
 BYTE   W96
//  #09 //101   ----------------------------------------
 BYTE   W44
 BYTE   W03
 BYTE   EOT
 BYTE   W01
 BYTE   TIE  En0
 BYTE   W48
//  #09 //102   ----------------------------------------
 BYTE   W96
//  #09 //103   ----------------------------------------
 BYTE   W44
 BYTE   W03
 BYTE   EOT
 BYTE   W01
 BYTE   TIE  Dn1
 BYTE   W48
//  #09 //104   ----------------------------------------
 BYTE   W96
//  #09 //105   ----------------------------------------
 BYTE   W44
 BYTE   W03
 BYTE   EOT
 BYTE   W01
 BYTE   TIE  Gn0
 BYTE   W48
//  #09 //106   ----------------------------------------
 BYTE   W96
//  #09 //107   ----------------------------------------
 BYTE   W44
 BYTE   W03
 BYTE   EOT
 BYTE   W01
 BYTE   TIE  Bn0
 BYTE   W48
//  #09 //108   ----------------------------------------
 BYTE   W96
//  #09 //109   ----------------------------------------
 BYTE   W44
 BYTE   W03
 BYTE   EOT
 BYTE   W01
 BYTE   TIE  En0
 BYTE   W48
//  #09 //110   ----------------------------------------
 BYTE   W96
//  #09 //111   ----------------------------------------
 BYTE   W44
 BYTE   W03
 BYTE   EOT
 BYTE   W01
 BYTE   N32
 BYTE   W36
 BYTE   Fs0
 BYTE   W12
//  #09 //112   ----------------------------------------
 BYTE   PATT
  POIN2 Label_54A09B
//  #09 //113   ----------------------------------------
 BYTE   W44
 BYTE   W03
 BYTE   EOT
 BYTE   Gn0
 BYTE   W01
 BYTE   TIE  Gn0  v080
 BYTE   W48
//  #09 //114   ----------------------------------------
 BYTE   W96
//  #09 //115   ----------------------------------------
 BYTE   W44
 BYTE   W03
 BYTE   EOT
 BYTE   W01
 BYTE   TIE  Bn0
 BYTE   W48
//  #09 //116   ----------------------------------------
 BYTE   W96
//  #09 //117   ----------------------------------------
 BYTE   W44
 BYTE   W03
 BYTE   EOT
 BYTE   W01
 BYTE   TIE  En1
 BYTE   W48
//  #09 //118   ----------------------------------------
 BYTE   W96
//  #09 //119   ----------------------------------------
 BYTE   W44
 BYTE   W03
 BYTE   EOT
 BYTE   W01
 BYTE   TIE  Dn1
 BYTE   W48
//  #09 //120   ----------------------------------------
 BYTE   W96
//  #09 //121   ----------------------------------------
 BYTE   W44
 BYTE   W03
 BYTE   EOT
 BYTE   W01
 BYTE   GoTo
  POIN2 Label_549FD4
//  #09 //122   ----------------------------------------
 BYTE   W48
 BYTE   W96
//  #09 //123   ----------------------------------------
 BYTE   W96
//  #09 //124   ----------------------------------------
 BYTE   W96
//  #09 //125   ----------------------------------------
 BYTE   W44
 BYTE   W03
 BYTE   FINE

//**************** Track 10 (Midi-Chn.9) ****************//

Uncontrollable_010:
//  #10 //000   ----------------------------------------
 BYTE   KEYSH   Uncontrollable_key+0
 BYTE   VOICE   122
 BYTE   VOL   50*Uncontrollable_mvl/mxv
 BYTE   PAN   c_v-10
 BYTE   W48
 BYTE   N23  Cn1  v080
 BYTE   W24
 BYTE   N11  Dn1  v096
 BYTE   N11  En1
 BYTE   N11  Fn1
 BYTE   W12
 BYTE   N23  Cn1  v080
 BYTE   W12
//  #10 //001   ----------------------------------------
Label_01013CF1:
 BYTE   W12
 BYTE   N23  Dn1  v096
 BYTE   N23  En1
 BYTE   N23  Fn1
 BYTE   W24
 BYTE   N11  Cn1  v080
 BYTE   N11  Dn1  v096
 BYTE   N11  En1
 BYTE   N11  Fn1
 BYTE   W12
 BYTE   N23  Cn1  v080
 BYTE   W24
 BYTE   N11  Dn1  v096
 BYTE   N11  En1
 BYTE   N11  Fn1
 BYTE   W12
 BYTE   N23  Cn1  v080
 BYTE   W12
 BYTE   PEND 
//  #10 //002   ----------------------------------------
Label_01013D16:
 BYTE   W12
 BYTE   N23  Dn1  v096
 BYTE   N23  En1
 BYTE   N23  Fn1
 BYTE   W24
 BYTE   N11  Cn1  v080
 BYTE   N05  Dn1
 BYTE   N05  En1
 BYTE   W06
 BYTE   Dn1  v096
 BYTE   N05  Fn1
 BYTE   W06
 BYTE   N23  Cn1  v080
 BYTE   W24
 BYTE   N11  Dn1  v096
 BYTE   N11  En1
 BYTE   N11  Fn1
 BYTE   W12
 BYTE   N23  Cn1  v080
 BYTE   W12
 BYTE   PEND 
//  #10 //003   ----------------------------------------
 BYTE   PATT
  POIN2 Label_01013CF1
//  #10 //004   ----------------------------------------
 BYTE   PATT
  POIN2 Label_01013D16
//  #10 //005   ----------------------------------------
 BYTE   PATT
  POIN2 Label_01013CF1
//  #10 //006   ----------------------------------------
 BYTE   PATT
  POIN2 Label_01013D16
//  #10 //007   ----------------------------------------
 BYTE   PATT
  POIN2 Label_01013CF1
//  #10 //008   ----------------------------------------
 BYTE   W12
 BYTE   N11  Dn1  v080
 BYTE   N11  En1
 BYTE   N11  Fn1
 BYTE   W12
 BYTE   N05  Dn1
 BYTE   N05  En1
 BYTE   N05  Fn1
 BYTE   W06
 BYTE   Dn1  v096
 BYTE   N05  En1
 BYTE   N05  Fn1
 BYTE   W06
 BYTE   N11  Cn1  v080
 BYTE   N05  Dn1
 BYTE   N05  En1
 BYTE   W06
 BYTE   Dn1  v096
 BYTE   N05  Fn1
 BYTE   W06
 BYTE   N23  Cn1
 BYTE   N11  Cs2  v080
 BYTE   W24
 BYTE   Dn1  v096
 BYTE   N11  En1
 BYTE   N11  Fn1
 BYTE   W12
 BYTE   N23  Cn1  v080
 BYTE   W12
//  #10 //009   ----------------------------------------
 BYTE   PATT
  POIN2 Label_01013CF1
//  #10 //010   ----------------------------------------
Label_01013D90:
 BYTE   W12
 BYTE   N23  Dn1  v096
 BYTE   N23  En1
 BYTE   N23  Fn1
 BYTE   W24
 BYTE   N11  Cn1  v080
 BYTE   N05  Dn1
 BYTE   N05  En1
 BYTE   W06
 BYTE   Dn1  v096
 BYTE   N05  Fn1
 BYTE   W06
 BYTE   N23  Cn1
 BYTE   N11  Cs2  v080
 BYTE   W24
 BYTE   Dn1  v096
 BYTE   N11  En1
 BYTE   N11  Fn1
 BYTE   W12
 BYTE   N23  Cn1  v080
 BYTE   W12
 BYTE   PEND 
//  #10 //011   ----------------------------------------
 BYTE   PATT
  POIN2 Label_01013CF1
//  #10 //012   ----------------------------------------
 BYTE   PATT
  POIN2 Label_01013D90
//  #10 //013   ----------------------------------------
Label_01013DC2:
 BYTE   W12
 BYTE   N23  Dn1  v096
 BYTE   N23  En1
 BYTE   N23  Fn1
 BYTE   W24
 BYTE   N11  Cn1  v080
 BYTE   N11  Dn1  v096
 BYTE   N11  En1
 BYTE   N11  Fn1
 BYTE   W12
 BYTE   N23  Cn1  v080
 BYTE   N11  Cs2
 BYTE   W24
 BYTE   Dn1  v096
 BYTE   N11  En1
 BYTE   N11  Fn1
 BYTE   W12
 BYTE   N23  Cn1  v080
 BYTE   W12
 BYTE   PEND 
//  #10 //014   ----------------------------------------
 BYTE   PATT
  POIN2 Label_01013D90
//  #10 //015   ----------------------------------------
 BYTE   PATT
  POIN2 Label_01013DC2
//  #10 //016   ----------------------------------------
 BYTE   W12
 BYTE   N23  Dn1  v096
 BYTE   N23  En1
 BYTE   N23  Fn1
 BYTE   W24
 BYTE   N11  Cn1  v080
 BYTE   N05  Dn1  v096
 BYTE   N05  En1
 BYTE   N05  Fn1
 BYTE   W06
 BYTE   Dn1  v080
 BYTE   N05  En1
 BYTE   N05  Fn1
 BYTE   W06
Label_01013E0D:
 BYTE   N23  Cn1  v064
 BYTE   N23  Dn1
 BYTE   N23  En1
 BYTE   N23  Fn1
 BYTE   N23  As1
 BYTE   W24
 BYTE   N11  Cn1
 BYTE   N11  Dn1
 BYTE   N11  En1
 BYTE   N11  Fn1
 BYTE   N11  Fs1
 BYTE   W12
 BYTE   N23  Cn1
 BYTE   N23  Dn1
 BYTE   N23  En1
 BYTE   N23  Fn1
 BYTE   N23  As1
 BYTE   W12
//  #10 //017   ----------------------------------------
Label_01013E2F:
 BYTE   W12
 BYTE   N11  Cn1  v064
 BYTE   N23  Dn1
 BYTE   N23  En1
 BYTE   N23  Fn1
 BYTE   N23  Fs1
 BYTE   W12
 BYTE   N11  Cn1
 BYTE   W12
 BYTE   N11
 BYTE   N05  Dn1
 BYTE   N05  En1
 BYTE   N05  Fn1
 BYTE   N05  Fs1
 BYTE   W06
 BYTE   Dn1
 BYTE   N05  En1
 BYTE   N05  Fn1
 BYTE   N05  As1
 BYTE   W06
 BYTE   N23  Cn1
 BYTE   N23  Dn1
 BYTE   N23  En1
 BYTE   N23  Fn1
 BYTE   N23  As1
 BYTE   W24
 BYTE   N11  Cn1
 BYTE   N11  Dn1
 BYTE   N11  En1
 BYTE   N11  Fn1
 BYTE   N11  Fs1
 BYTE   W12
 BYTE   N23  Cn1
 BYTE   N23  Dn1
 BYTE   N23  En1
 BYTE   N23  Fn1
 BYTE   N23  As1
 BYTE   W12
 BYTE   PEND 
//  #10 //018   ----------------------------------------
 BYTE   PATT
  POIN2 Label_01013E2F
//  #10 //019   ----------------------------------------
 BYTE   PATT
  POIN2 Label_01013E2F
//  #10 //020   ----------------------------------------
 BYTE   PATT
  POIN2 Label_01013E2F
//  #10 //021   ----------------------------------------
 BYTE   PATT
  POIN2 Label_01013E2F
//  #10 //022   ----------------------------------------
 BYTE   PATT
  POIN2 Label_01013E2F
//  #10 //023   ----------------------------------------
 BYTE   PATT
  POIN2 Label_01013E2F
//  #10 //024   ----------------------------------------
 BYTE   PATT
  POIN2 Label_01013E2F
//  #10 //025   ----------------------------------------
 BYTE   PATT
  POIN2 Label_01013E2F
//  #10 //026   ----------------------------------------
 BYTE   PATT
  POIN2 Label_01013E2F
//  #10 //027   ----------------------------------------
 BYTE   PATT
  POIN2 Label_01013E2F
//  #10 //028   ----------------------------------------
 BYTE   PATT
  POIN2 Label_01013E2F
//  #10 //029   ----------------------------------------
 BYTE   PATT
  POIN2 Label_01013E2F
//  #10 //030   ----------------------------------------
 BYTE   PATT
  POIN2 Label_01013E2F
//  #10 //031   ----------------------------------------
 BYTE   PATT
  POIN2 Label_01013E2F
//  #10 //032   ----------------------------------------
 BYTE   W12
 BYTE   N11  Cn1  v064
 BYTE   N23  Dn1
 BYTE   N23  En1
 BYTE   N23  Fn1
 BYTE   N23  Fs1
 BYTE   W12
 BYTE   N11  Cn1
 BYTE   W12
 BYTE   N11
 BYTE   N05  Dn1
 BYTE   N05  En1
 BYTE   N05  Fn1
 BYTE   N05  Fs1
 BYTE   W06
 BYTE   Dn1
 BYTE   N05  En1
 BYTE   N05  Fn1
 BYTE   N05  As1
 BYTE   W06
 BYTE   N23  Cn1  v080
 BYTE   N23  Fn1
 BYTE   W24
 BYTE   Cn1
 BYTE   N23  Cs1
 BYTE   N23  Ds3
 BYTE   W24
//  #10 //033   ----------------------------------------
Label_01013EE7:
 BYTE   N23  Cn1  v080
 BYTE   W12
 BYTE   N11  Dn1
 BYTE   N11  En1
 BYTE   W12
 BYTE   N23  Cn1
 BYTE   N23  Dn1
 BYTE   N23  En1
 BYTE   N23  Fn1
 BYTE   N23  Bn1
 BYTE   N23  Cn2
 BYTE   W24
 BYTE   Cn1
 BYTE   N23  Fn1
 BYTE   W24
 BYTE   Cn1
 BYTE   N23  Cs1  v096
 BYTE   N23  Ds3
 BYTE   W24
 BYTE   PEND 
//  #10 //034   ----------------------------------------
 BYTE   PATT
  POIN2 Label_01013EE7
//  #10 //035   ----------------------------------------
 BYTE   PATT
  POIN2 Label_01013EE7
//  #10 //036   ----------------------------------------
 BYTE   N23  Cn1  v080
 BYTE   W12
 BYTE   N11  Dn1
 BYTE   N11  En1
 BYTE   W12
 BYTE   N23  Cn1
 BYTE   N11  Dn1
 BYTE   N11  En1
 BYTE   N11  Fn1
 BYTE   W12
 BYTE   N05  Dn1
 BYTE   N05  En1
 BYTE   N05  Fn1
 BYTE   N05  Bn1
 BYTE   N05  Cn2
 BYTE   W06
 BYTE   Dn1
 BYTE   N05  En1
 BYTE   N05  Fn1
 BYTE   N05  Bn1
 BYTE   N05  Cn2
 BYTE   W06
 BYTE   N23  Cn1
 BYTE   N23  Fn1
 BYTE   W24
 BYTE   Cn1
 BYTE   N23  Cs1  v096
 BYTE   N23  Ds3
 BYTE   W24
//  #10 //037   ----------------------------------------
 BYTE   PATT
  POIN2 Label_01013EE7
//  #10 //038   ----------------------------------------
 BYTE   PATT
  POIN2 Label_01013EE7
//  #10 //039   ----------------------------------------
 BYTE   N23  Cn1  v080
 BYTE   W12
 BYTE   N11  Dn1
 BYTE   N11  En1
 BYTE   W12
 BYTE   N23  Cn1
 BYTE   N11  Dn1
 BYTE   N11  En1
 BYTE   N11  Fn1
 BYTE   W12
 BYTE   N05  Dn1
 BYTE   N05  En1
 BYTE   N05  Fn1
 BYTE   N05  Bn1
 BYTE   N05  Cn2
 BYTE   W06
 BYTE   Dn1
 BYTE   N05  En1
 BYTE   N05  Fn1
 BYTE   N05  Bn1
 BYTE   N05  Cn2
 BYTE   W54
//  #10 //040   ----------------------------------------
 BYTE   W48
 BYTE   N23  Cn1
 BYTE   N23  Cs2
 BYTE   W24
 BYTE   N11  Dn1  v096
 BYTE   N11  En1
 BYTE   N11  Fn1
 BYTE   W12
 BYTE   N23  Cn1  v080
 BYTE   W12
//  #10 //041   ----------------------------------------
Label_01013F89:
 BYTE   W12
 BYTE   N11  Dn1  v080
 BYTE   N11  En1
 BYTE   N11  Fn1
 BYTE   W12
 BYTE   N23  Dn1  v096
 BYTE   N23  En1
 BYTE   N23  Fn1
 BYTE   W12
 BYTE   N11  Cn1  v080
 BYTE   W12
 BYTE   N23
 BYTE   W24
 BYTE   N11  Dn1  v096
 BYTE   N11  En1
 BYTE   N11  Fn1
 BYTE   W12
 BYTE   N23  Cn1  v080
 BYTE   W12
 BYTE   PEND 
//  #10 //042   ----------------------------------------
Label_01013FAD:
 BYTE   W12
 BYTE   N11  Dn1  v080
 BYTE   N11  En1
 BYTE   N11  Fn1
 BYTE   W12
 BYTE   Dn1  v096
 BYTE   N11  En1
 BYTE   N11  Fn1
 BYTE   W12
 BYTE   Cn1  v080
 BYTE   N05  Dn1
 BYTE   N05  En1
 BYTE   N05  Fn1
 BYTE   W06
 BYTE   Dn1  v096
 BYTE   N05  En1
 BYTE   N05  Fn1
 BYTE   W06
 BYTE   N23  Cn1  v080
 BYTE   W24
 BYTE   N11  Dn1  v096
 BYTE   N11  En1
 BYTE   N11  Fn1
 BYTE   W12
 BYTE   N23  Cn1  v080
 BYTE   W12
 BYTE   PEND 
//  #10 //043   ----------------------------------------
 BYTE   PATT
  POIN2 Label_01013F89
//  #10 //044   ----------------------------------------
Label_01013FE3:
 BYTE   W12
 BYTE   N11  Dn1  v080
 BYTE   N11  En1
 BYTE   N11  Fn1
 BYTE   W12
 BYTE   Dn1  v096
 BYTE   N11  En1
 BYTE   N11  Fn1
 BYTE   W12
 BYTE   Cn1  v080
 BYTE   N05  Dn1
 BYTE   N05  En1
 BYTE   N05  Fn1
 BYTE   W06
 BYTE   Dn1  v096
 BYTE   N05  En1
 BYTE   N05  Fn1
 BYTE   W06
 BYTE   N23  Cn1  v080
 BYTE   N23  Cs2
 BYTE   W24
 BYTE   N11  Dn1  v096
 BYTE   N11  En1
 BYTE   N11  Fn1
 BYTE   W12
 BYTE   N23  Cn1  v080
 BYTE   W12
 BYTE   PEND 
//  #10 //045   ----------------------------------------
 BYTE   PATT
  POIN2 Label_01013F89
//  #10 //046   ----------------------------------------
 BYTE   PATT
  POIN2 Label_01013FAD
//  #10 //047   ----------------------------------------
 BYTE   PATT
  POIN2 Label_01013F89
//  #10 //048   ----------------------------------------
 BYTE   PATT
  POIN2 Label_01013FE3
//  #10 //049   ----------------------------------------
 BYTE   PATT
  POIN2 Label_01013F89
//  #10 //050   ----------------------------------------
 BYTE   W12
 BYTE   N11  Dn1  v080
 BYTE   N11  En1
 BYTE   N11  Fn1
 BYTE   W12
 BYTE   Dn1  v096
 BYTE   N11  En1
 BYTE   N11  Fn1
 BYTE   W12
 BYTE   Cn1  v080
 BYTE   N05  Dn1
 BYTE   N05  En1
 BYTE   N05  Fn1
 BYTE   W06
 BYTE   Dn1  v096
 BYTE   N05  En1
 BYTE   N05  Fn1
 BYTE   W06
 BYTE   N23  Cn1  v080
 BYTE   N23  An2
 BYTE   W24
 BYTE   N11  Dn1  v096
 BYTE   N11  En1
 BYTE   N11  Fn1
 BYTE   W12
 BYTE   N23  Cn1  v080
 BYTE   W12
//  #10 //051   ----------------------------------------
 BYTE   PATT
  POIN2 Label_01013F89
//  #10 //052   ----------------------------------------
 BYTE   PATT
  POIN2 Label_01013FE3
//  #10 //053   ----------------------------------------
 BYTE   PATT
  POIN2 Label_01013F89
//  #10 //054   ----------------------------------------
 BYTE   PATT
  POIN2 Label_01013FAD
//  #10 //055   ----------------------------------------
 BYTE   PATT
  POIN2 Label_01013F89
//  #10 //056   ----------------------------------------
 BYTE   W12
 BYTE   N11  Dn1  v080
 BYTE   N11  En1
 BYTE   N11  Fn1
 BYTE   W12
 BYTE   Dn1  v096
 BYTE   N11  En1
 BYTE   N11  Fn1
 BYTE   W12
 BYTE   Cn1  v080
 BYTE   N05  Dn1
 BYTE   N05  En1
 BYTE   N05  Fn1
 BYTE   W06
 BYTE   Dn1  v096
 BYTE   N05  En1
 BYTE   N05  Fn1
 BYTE   W06
 BYTE   N23  Cn1  v080
 BYTE   N05  Bn1
 BYTE   N23  Cs2
 BYTE   W06
 BYTE   N05  Cn2
 BYTE   W06
 BYTE   Bn1
 BYTE   W06
 BYTE   Cn2
 BYTE   W06
 BYTE   Fn1
 BYTE   N05  Bn1
 BYTE   W06
 BYTE   Cn2
 BYTE   W06
 BYTE   Bn1
 BYTE   W06
 BYTE   Cn2
 BYTE   W06
//  #10 //057   ----------------------------------------
Label_010140B3:
 BYTE   N23  Cn1  v080
 BYTE   N05  Bn1
 BYTE   W06
 BYTE   Fn1
 BYTE   N05  Cn2
 BYTE   W06
 BYTE   Bn1
 BYTE   W06
 BYTE   Cn2
 BYTE   W06
 BYTE   Fn1
 BYTE   N05  Bn1
 BYTE   W06
 BYTE   Cn2
 BYTE   W06
 BYTE   Bn1
 BYTE   W06
 BYTE   Cn2
 BYTE   W06
 BYTE   N23  Cn1
 BYTE   N05  Bn1
 BYTE   W06
 BYTE   Cn2
 BYTE   W06
 BYTE   Bn1
 BYTE   W06
 BYTE   Cn2
 BYTE   W06
 BYTE   Fn1
 BYTE   N05  Bn1
 BYTE   W06
 BYTE   Cn2
 BYTE   W06
 BYTE   Bn1
 BYTE   W06
 BYTE   Cn2
 BYTE   W06
 BYTE   PEND 
//  #10 //058   ----------------------------------------
 BYTE   PATT
  POIN2 Label_010140B3
//  #10 //059   ----------------------------------------
 BYTE   PATT
  POIN2 Label_010140B3
//  #10 //060   ----------------------------------------
 BYTE   N23  Cn1  v080
 BYTE   N05  Bn1
 BYTE   W06
 BYTE   Fn1
 BYTE   N05  Cn2
 BYTE   W06
 BYTE   Bn1
 BYTE   W06
 BYTE   Cn2
 BYTE   W06
 BYTE   Fn1
 BYTE   N05  Bn1
 BYTE   W06
 BYTE   Cn2
 BYTE   W06
 BYTE   Bn1
 BYTE   W06
 BYTE   Cn2
 BYTE   W06
 BYTE   N23  Cn1
 BYTE   N05  Bn1
 BYTE   N23  Cs2
 BYTE   W06
 BYTE   N05  Cn2
 BYTE   W06
 BYTE   Bn1
 BYTE   W06
 BYTE   Cn2
 BYTE   W06
 BYTE   Fn1
 BYTE   N05  Bn1
 BYTE   W06
 BYTE   Cn2
 BYTE   W06
 BYTE   Bn1
 BYTE   W06
 BYTE   Cn2
 BYTE   W06
//  #10 //061   ----------------------------------------
 BYTE   PATT
  POIN2 Label_010140B3
//  #10 //062   ----------------------------------------
 BYTE   PATT
  POIN2 Label_010140B3
//  #10 //063   ----------------------------------------
 BYTE   PATT
  POIN2 Label_010140B3
//  #10 //064   ----------------------------------------
 BYTE   N23  Cn1  v080
 BYTE   N05  Bn1
 BYTE   W06
 BYTE   Fn1
 BYTE   N05  Cn2
 BYTE   W06
 BYTE   Bn1
 BYTE   W06
 BYTE   Cn2
 BYTE   W06
 BYTE   Fn1
 BYTE   N05  Bn1
 BYTE   W06
 BYTE   Cn2
 BYTE   W06
 BYTE   Bn1
 BYTE   W06
 BYTE   Cn2
 BYTE   W06
 BYTE   N92  Cs2
 BYTE   W48
//  #10 //065   ----------------------------------------
 BYTE   W96
//  #10 //066   ----------------------------------------
 BYTE   W96
//  #10 //067   ----------------------------------------
 BYTE   W96
//  #10 //068   ----------------------------------------
 BYTE   W96
//  #10 //069   ----------------------------------------
Label_01014149:
 BYTE   N44  Dn1  v096
 BYTE   N44  En1
 BYTE   N44  Fn1
 BYTE   N44  Bn1
 BYTE   N44  Cn2
 BYTE   W96
 BYTE   PEND 
//  #10 //070   ----------------------------------------
 BYTE   PATT
  POIN2 Label_01014149
//  #10 //071   ----------------------------------------
 BYTE   PATT
  POIN2 Label_01014149
//  #10 //072   ----------------------------------------
 BYTE   W48
 BYTE   N23  Cn1  v112
 BYTE   W24
 BYTE   N23
 BYTE   W24
//  #10 //073   ----------------------------------------
Label_01014167:
 BYTE   N23  Cn1  v112
 BYTE   N44  Dn1  v127
 BYTE   N44  En1
 BYTE   N44  Fn1
 BYTE   N44  Bn1
 BYTE   N44  Cn2
 BYTE   W24
 BYTE   N23  Cn1  v112
 BYTE   W24
 BYTE   N11
 BYTE   W12
 BYTE   N11
 BYTE   N11  Dn1  v127
 BYTE   N11  En1
 BYTE   N11  Fn1
 BYTE   N11  Bn1
 BYTE   N11  Cn2
 BYTE   W12
 BYTE   N23  Cn1  v112
 BYTE   W24
 BYTE   PEND 
//  #10 //074   ----------------------------------------
Label_0101418E:
 BYTE   N23  Cn1  v112
 BYTE   N44  Dn1  v127
 BYTE   N44  En1
 BYTE   N44  Fn1
 BYTE   N44  Bn1
 BYTE   N44  Cn2
 BYTE   W24
 BYTE   N23  Cn1  v112
 BYTE   W24
 BYTE   N32
 BYTE   W36
 BYTE   N11
 BYTE   W12
 BYTE   PEND 
//  #10 //075   ----------------------------------------
 BYTE   PATT
  POIN2 Label_01014167
//  #10 //076   ----------------------------------------
 BYTE   N23  Cn1  v112
 BYTE   N44  Dn1  v127
 BYTE   N44  En1
 BYTE   N44  Fn1
 BYTE   N44  Bn1
 BYTE   N44  Cn2
 BYTE   W24
 BYTE   N23  Cn1  v112
 BYTE   W24
 BYTE   N23
 BYTE   W24
 BYTE   N23
 BYTE   W24
//  #10 //077   ----------------------------------------
 BYTE   PATT
  POIN2 Label_01014167
//  #10 //078   ----------------------------------------
 BYTE   PATT
  POIN2 Label_0101418E
//  #10 //079   ----------------------------------------
 BYTE   PATT
  POIN2 Label_01014167
//  #10 //080   ----------------------------------------
 BYTE   N23  Cn1  v112
 BYTE   N44  Dn1  v127
 BYTE   N44  En1
 BYTE   N44  Fn1
 BYTE   N44  Bn1
 BYTE   N44  Cn2
 BYTE   W24
 BYTE   N23  Cn1  v112
 BYTE   W72
//  #10 //081   ----------------------------------------
 BYTE   W12
 BYTE   N17
 BYTE   N11  Dn1
 BYTE   N11  En1
 BYTE   N11  Fn1
 BYTE   N17  Gn1
 BYTE   W12
 BYTE   N05  Dn1
 BYTE   N05  En1
 BYTE   W06
 BYTE   N17  Cn1
 BYTE   N17  Dn1
 BYTE   N17  En1
 BYTE   N17  Fn1
 BYTE   N17  Gn1
 BYTE   W18
 BYTE   N23  Cn1  v080
 BYTE   N16  Dn1  v096
 BYTE   N23  Ds1  v080
 BYTE   N16  En1  v096
 BYTE   N16  Fn1
 BYTE   N16  Cs2
 BYTE   N23  En2  v080
 BYTE   N16  An2  v096
 BYTE   W24
 BYTE   N11  Dn1
 BYTE   N23  Ds1  v080
 BYTE   N11  En1  v096
 BYTE   N11  Fn1
 BYTE   N23  En2  v080
 BYTE   W12
 BYTE   Cn1
 BYTE   W12
//  #10 //082   ----------------------------------------
Label_01014226:
 BYTE   N23  Ds1  v080
 BYTE   N23  En2
 BYTE   W12
 BYTE   N11  Dn1
 BYTE   N11  En1
 BYTE   N11  Fn1
 BYTE   W12
 BYTE   N23  Dn1  v096
 BYTE   N23  Ds1  v080
 BYTE   N23  En1  v096
 BYTE   N23  Fn1
 BYTE   N23  En2  v080
 BYTE   W12
 BYTE   N11  Cn1
 BYTE   W12
 BYTE   N23
 BYTE   N23  Ds1
 BYTE   N23  En2
 BYTE   W24
 BYTE   N11  Dn1  v096
 BYTE   N23  Ds1  v080
 BYTE   N11  En1  v096
 BYTE   N11  Fn1
 BYTE   N23  En2  v080
 BYTE   W12
 BYTE   Cn1
 BYTE   W12
 BYTE   PEND 
//  #10 //083   ----------------------------------------
Label_0101425D:
 BYTE   N23  Ds1  v080
 BYTE   N23  En2
 BYTE   W12
 BYTE   N11  Dn1
 BYTE   N11  En1
 BYTE   N11  Fn1
 BYTE   W12
 BYTE   Dn1  v096
 BYTE   N23  Ds1  v080
 BYTE   N11  En1  v096
 BYTE   N11  Fn1
 BYTE   N23  En2  v080
 BYTE   W12
 BYTE   N11  Cn1
 BYTE   N05  Dn1
 BYTE   N05  En1
 BYTE   N05  Fn1
 BYTE   W06
 BYTE   Dn1  v096
 BYTE   N05  En1
 BYTE   N05  Fn1
 BYTE   W06
 BYTE   N23  Cn1  v080
 BYTE   N16  Dn1  v096
 BYTE   N23  Ds1  v080
 BYTE   N16  En1  v096
 BYTE   N16  Fn1
 BYTE   N23  En2  v080
 BYTE   W24
 BYTE   N11  Dn1  v096
 BYTE   N23  Ds1  v080
 BYTE   N11  En1  v096
 BYTE   N11  Fn1
 BYTE   N23  En2  v080
 BYTE   W12
 BYTE   Cn1
 BYTE   W12
 BYTE   PEND 
//  #10 //084   ----------------------------------------
 BYTE   PATT
  POIN2 Label_01014226
//  #10 //085   ----------------------------------------
Label_010142B1:
 BYTE   N23  Ds1  v080
 BYTE   N23  En2
 BYTE   W12
 BYTE   N11  Dn1
 BYTE   N11  En1
 BYTE   N11  Fn1
 BYTE   W12
 BYTE   Dn1  v096
 BYTE   N23  Ds1  v080
 BYTE   N11  En1  v096
 BYTE   N11  Fn1
 BYTE   N23  En2  v080
 BYTE   W12
 BYTE   N11  Cn1
 BYTE   N05  Dn1
 BYTE   N05  En1
 BYTE   N05  Fn1
 BYTE   W06
 BYTE   Dn1  v096
 BYTE   N05  En1
 BYTE   N05  Fn1
 BYTE   W06
 BYTE   N23  Cn1  v080
 BYTE   N16  Dn1  v096
 BYTE   N23  Ds1  v080
 BYTE   N16  En1  v096
 BYTE   N16  Fn1
 BYTE   N16  Cs2
 BYTE   N23  En2  v080
 BYTE   N16  An2  v096
 BYTE   W24
 BYTE   N11  Dn1
 BYTE   N23  Ds1  v080
 BYTE   N11  En1  v096
 BYTE   N11  Fn1
 BYTE   N23  En2  v080
 BYTE   W12
 BYTE   Cn1
 BYTE   W12
 BYTE   PEND 
//  #10 //086   ----------------------------------------
 BYTE   PATT
  POIN2 Label_01014226
//  #10 //087   ----------------------------------------
 BYTE   PATT
  POIN2 Label_010142B1
//  #10 //088   ----------------------------------------
 BYTE   PATT
  POIN2 Label_01014226
//  #10 //089   ----------------------------------------
 BYTE   N23  Ds1  v080
 BYTE   N23  En2
 BYTE   W12
 BYTE   N11  Dn1
 BYTE   N11  En1
 BYTE   N11  Fn1
 BYTE   W12
 BYTE   Dn1  v096
 BYTE   N23  Ds1  v080
 BYTE   N11  En1  v096
 BYTE   N11  Fn1
 BYTE   N23  En2  v080
 BYTE   W12
 BYTE   N11  Cn1
 BYTE   N02  Dn1
 BYTE   N02  En1
 BYTE   N02  Fn1
 BYTE   W03
 BYTE   Dn1
 BYTE   N02  En1
 BYTE   N02  Fn1
 BYTE   W03
 BYTE   Dn1
 BYTE   N02  En1
 BYTE   N02  Fn1
 BYTE   W03
 BYTE   Dn1  v096
 BYTE   N02  En1
 BYTE   N02  Fn1
 BYTE   W03
 BYTE   N23  Cn1  v080
 BYTE   N16  Dn1  v096
 BYTE   N23  Ds1  v080
 BYTE   N16  En1  v096
 BYTE   N16  Fn1
 BYTE   N16  Cs2
 BYTE   N23  En2  v080
 BYTE   N16  An2  v096
 BYTE   W24
 BYTE   N11  Dn1
 BYTE   N23  Ds1  v080
 BYTE   N11  En1  v096
 BYTE   N11  Fn1
 BYTE   N23  En2  v080
 BYTE   W12
 BYTE   Cn1
 BYTE   W12
//  #10 //090   ----------------------------------------
 BYTE   PATT
  POIN2 Label_01014226
//  #10 //091   ----------------------------------------
 BYTE   PATT
  POIN2 Label_0101425D
//  #10 //092   ----------------------------------------
 BYTE   PATT
  POIN2 Label_01014226
//  #10 //093   ----------------------------------------
 BYTE   PATT
  POIN2 Label_010142B1
//  #10 //094   ----------------------------------------
 BYTE   PATT
  POIN2 Label_01014226
//  #10 //095   ----------------------------------------
 BYTE   PATT
  POIN2 Label_0101425D
//  #10 //096   ----------------------------------------
 BYTE   PATT
  POIN2 Label_01014226
//  #10 //097   ----------------------------------------
 BYTE   N23  Ds1  v080
 BYTE   N23  En2
 BYTE   W12
 BYTE   N11  Dn1
 BYTE   N11  En1
 BYTE   N11  Fn1
 BYTE   W12
 BYTE   Dn1  v096
 BYTE   N23  Ds1  v080
 BYTE   N11  En1  v096
 BYTE   N11  Fn1
 BYTE   N23  En2  v080
 BYTE   W12
 BYTE   N11  Cn1
 BYTE   N02  Dn1
 BYTE   N02  En1
 BYTE   N02  Fn1
 BYTE   W03
 BYTE   Dn1
 BYTE   N02  En1
 BYTE   N02  Fn1
 BYTE   W03
 BYTE   Dn1
 BYTE   N02  En1
 BYTE   N02  Fn1
 BYTE   W03
 BYTE   Dn1  v096
 BYTE   N02  En1
 BYTE   N02  Fn1
 BYTE   W03
 BYTE   N23  Cn1  v080
 BYTE   N16  Dn1  v096
 BYTE   N23  Ds1  v080
 BYTE   N16  En1  v096
 BYTE   N16  Fn1
 BYTE   N16  Cs2
 BYTE   N23  En2  v080
 BYTE   N16  An2  v096
 BYTE   W24
 BYTE   N11  Dn1
 BYTE   N23  Ds1
 BYTE   N11  En1
 BYTE   N11  Fn1
 BYTE   N23  En2
 BYTE   W12
 BYTE   Cn1  v080
 BYTE   W12
//  #10 //098   ----------------------------------------
Label_010143F0:
 BYTE   N23  Ds1  v096
 BYTE   N23  En2
 BYTE   W12
 BYTE   N11  Dn1  v080
 BYTE   N11  En1
 BYTE   N11  Fn1
 BYTE   W12
 BYTE   N23  Dn1  v096
 BYTE   N23  Ds1
 BYTE   N23  En1
 BYTE   N23  Fn1
 BYTE   N23  En2
 BYTE   W12
 BYTE   N11  Cn1  v080
 BYTE   W12
 BYTE   N23
 BYTE   N23  Ds1  v096
 BYTE   N23  En2
 BYTE   W24
 BYTE   N11  Dn1
 BYTE   N23  Ds1
 BYTE   N11  En1
 BYTE   N11  Fn1
 BYTE   N23  En2
 BYTE   W12
 BYTE   Cn1  v080
 BYTE   W12
 BYTE   PEND 
//  #10 //099   ----------------------------------------
 BYTE   Ds1  v096
 BYTE   N23  En2
 BYTE   W12
 BYTE   N11  Dn1  v080
 BYTE   N11  En1
 BYTE   N11  Fn1
 BYTE   W12
 BYTE   Dn1  v096
 BYTE   N23  Ds1
 BYTE   N11  En1
 BYTE   N11  Fn1
 BYTE   N23  En2
 BYTE   W12
 BYTE   N11  Cn1  v080
 BYTE   N05  Dn1
 BYTE   N05  En1
 BYTE   N05  Fn1
 BYTE   W06
 BYTE   Dn1  v096
 BYTE   N05  En1
 BYTE   N05  Fn1
 BYTE   W06
 BYTE   N23  Cn1  v080
 BYTE   N16  Dn1  v096
 BYTE   N23  Ds1  v080
 BYTE   N16  En1  v096
 BYTE   N16  Fn1
 BYTE   N23  En2  v080
 BYTE   W24
 BYTE   N11  Dn1  v096
 BYTE   N23  Ds1
 BYTE   N11  En1
 BYTE   N11  Fn1
 BYTE   N23  En2
 BYTE   W12
 BYTE   Cn1  v080
 BYTE   W12
//  #10 //100   ----------------------------------------
 BYTE   PATT
  POIN2 Label_010143F0
//  #10 //101   ----------------------------------------
Label_01014473:
 BYTE   N23  Ds1  v096
 BYTE   N23  En2
 BYTE   W12
 BYTE   N11  Dn1  v080
 BYTE   N11  En1
 BYTE   N11  Fn1
 BYTE   W12
 BYTE   Dn1  v096
 BYTE   N23  Ds1
 BYTE   N11  En1
 BYTE   N11  Fn1
 BYTE   N23  En2
 BYTE   W12
 BYTE   N11  Cn1  v080
 BYTE   N05  Dn1
 BYTE   N05  En1
 BYTE   N05  Fn1
 BYTE   W06
 BYTE   Dn1  v096
 BYTE   N05  En1
 BYTE   N05  Fn1
 BYTE   W06
 BYTE   N23  Cn1  v080
 BYTE   N16  Dn1  v096
 BYTE   N23  Ds1  v080
 BYTE   N16  En1  v096
 BYTE   N16  Fn1
 BYTE   N16  Cs2
 BYTE   N23  En2  v080
 BYTE   N16  An2  v096
 BYTE   W24
 BYTE   N11  Dn1
 BYTE   N23  Ds1
 BYTE   N11  En1
 BYTE   N11  Fn1
 BYTE   N23  En2
 BYTE   W12
 BYTE   Cn1  v080
 BYTE   W12
 BYTE   PEND 
//  #10 //102   ----------------------------------------
 BYTE   PATT
  POIN2 Label_010143F0
//  #10 //103   ----------------------------------------
Label_010144C8:
 BYTE   N23  Ds1  v096
 BYTE   N23  En2
 BYTE   W12
 BYTE   N11  Dn1  v080
 BYTE   N11  En1
 BYTE   N11  Fn1
 BYTE   W12
 BYTE   Dn1  v096
 BYTE   N23  Ds1
 BYTE   N11  En1
 BYTE   N11  Fn1
 BYTE   N23  En2
 BYTE   W12
 BYTE   N11  Cn1  v080
 BYTE   N05  Dn1
 BYTE   N05  En1
 BYTE   N05  Fn1
 BYTE   W06
 BYTE   Dn1  v096
 BYTE   N05  En1
 BYTE   N05  Fn1
 BYTE   W06
 BYTE   N23  Cn1  v080
 BYTE   N16  Dn1  v096
 BYTE   N23  Ds1
 BYTE   N16  En1
 BYTE   N16  Fn1
 BYTE   N23  En2
 BYTE   W24
 BYTE   N11  Dn1
 BYTE   N23  Ds1
 BYTE   N11  En1
 BYTE   N11  Fn1
 BYTE   N23  En2
 BYTE   W12
 BYTE   Cn1  v080
 BYTE   W12
 BYTE   PEND 
//  #10 //104   ----------------------------------------
 BYTE   PATT
  POIN2 Label_010143F0
//  #10 //105   ----------------------------------------
 BYTE   N23  Ds1  v096
 BYTE   N23  En2
 BYTE   W12
 BYTE   N11  Dn1  v080
 BYTE   N11  En1
 BYTE   N11  Fn1
 BYTE   W12
 BYTE   Dn1  v096
 BYTE   N23  Ds1
 BYTE   N11  En1
 BYTE   N11  Fn1
 BYTE   N23  En2
 BYTE   W12
 BYTE   N11  Cn1  v080
 BYTE   N02  Dn1
 BYTE   N02  En1
 BYTE   N02  Fn1
 BYTE   W03
 BYTE   Dn1
 BYTE   N02  En1
 BYTE   N02  Fn1
 BYTE   W03
 BYTE   Dn1
 BYTE   N02  En1
 BYTE   N02  Fn1
 BYTE   W03
 BYTE   Dn1  v096
 BYTE   N02  En1
 BYTE   N02  Fn1
 BYTE   W03
 BYTE   N23  Cn1  v080
 BYTE   N16  Dn1  v096
 BYTE   N23  Ds1  v080
 BYTE   N16  En1  v096
 BYTE   N16  Fn1
 BYTE   N16  Cs2
 BYTE   N23  En2  v080
 BYTE   N16  An2  v096
 BYTE   W24
 BYTE   N11  Dn1
 BYTE   N23  Ds1
 BYTE   N11  En1
 BYTE   N11  Fn1
 BYTE   N23  En2
 BYTE   W12
 BYTE   Cn1  v080
 BYTE   W12
//  #10 //106   ----------------------------------------
 BYTE   PATT
  POIN2 Label_010143F0
//  #10 //107   ----------------------------------------
 BYTE   PATT
  POIN2 Label_010144C8
//  #10 //108   ----------------------------------------
 BYTE   PATT
  POIN2 Label_010143F0
//  #10 //109   ----------------------------------------
 BYTE   PATT
  POIN2 Label_01014473
//  #10 //110   ----------------------------------------
 BYTE   PATT
  POIN2 Label_010143F0
//  #10 //111   ----------------------------------------
 BYTE   PATT
  POIN2 Label_010144C8
//  #10 //112   ----------------------------------------
 BYTE   PATT
  POIN2 Label_010143F0
//  #10 //113   ----------------------------------------
 BYTE   N23  Ds1  v096
 BYTE   N23  En2
 BYTE   W12
 BYTE   N11  Dn1  v080
 BYTE   N11  En1
 BYTE   N11  Fn1
 BYTE   W12
 BYTE   Dn1  v096
 BYTE   N23  Ds1
 BYTE   N11  En1
 BYTE   N11  Fn1
 BYTE   N23  En2
 BYTE   W12
 BYTE   N11  Cn1  v080
 BYTE   N02  Dn1
 BYTE   N02  En1
 BYTE   N02  Fn1
 BYTE   W03
 BYTE   Dn1
 BYTE   N02  En1
 BYTE   N02  Fn1
 BYTE   W03
 BYTE   Dn1
 BYTE   N02  En1
 BYTE   N02  Fn1
 BYTE   W03
 BYTE   Dn1  v096
 BYTE   N02  En1
 BYTE   N02  Fn1
 BYTE   W03
 BYTE   N23  Cn1  v080
 BYTE   N05  Bn1
 BYTE   N23  Cs2
 BYTE   W06
 BYTE   N05  Cn2
 BYTE   W06
 BYTE   Bn1
 BYTE   W06
 BYTE   Cn2
 BYTE   W06
 BYTE   Fn1
 BYTE   N05  Bn1
 BYTE   W06
 BYTE   Cn2
 BYTE   W06
 BYTE   Bn1
 BYTE   W06
 BYTE   Cn2
 BYTE   W06
//  #10 //114   ----------------------------------------
 BYTE   PATT
  POIN2 Label_010140B3
//  #10 //115   ----------------------------------------
 BYTE   PATT
  POIN2 Label_010140B3
//  #10 //116   ----------------------------------------
 BYTE   PATT
  POIN2 Label_010140B3
//  #10 //117   ----------------------------------------
 BYTE   PATT
  POIN2 Label_010140B3
//  #10 //118   ----------------------------------------
 BYTE   PATT
  POIN2 Label_010140B3
//  #10 //119   ----------------------------------------
 BYTE   PATT
  POIN2 Label_010140B3
//  #10 //120   ----------------------------------------
 BYTE   PATT
  POIN2 Label_010140B3
//  #10 //121   ----------------------------------------
 BYTE   N23  Cn1  v080
 BYTE   N05  Bn1
 BYTE   W06
 BYTE   Fn1
 BYTE   N05  Cn2
 BYTE   W06
 BYTE   Bn1
 BYTE   W06
 BYTE   Cn2
 BYTE   W06
 BYTE   Fn1
 BYTE   N05  Bn1
 BYTE   W06
 BYTE   Cn2
 BYTE   W06
 BYTE   Bn1
 BYTE   W06
 BYTE   Cn2
 BYTE   W06
 BYTE   GoTo
  POIN2 Label_01013E0D
//  #10 //122   ----------------------------------------
 BYTE   W48
 BYTE   W96
//  #10 //123   ----------------------------------------
 BYTE   W96
//  #10 //124   ----------------------------------------
 BYTE   W96
//  #10 //125   ----------------------------------------
 BYTE   W44
 BYTE   W03
 BYTE   FINE

//**************** Track 11 (Midi-Chn.10) ****************//

Uncontrollable_011:
//  #11 //000   ----------------------------------------
 BYTE   KEYSH   Uncontrollable_key+0
 BYTE   VOICE   48
 BYTE   VOL   32*Uncontrollable_mvl/mxv
 BYTE   PAN   c_v+0
 BYTE   W96
//  #11 //001   ----------------------------------------
 BYTE   W96
//  #11 //002   ----------------------------------------
 BYTE   W96
//  #11 //003   ----------------------------------------
 BYTE   W96
//  #11 //004   ----------------------------------------
 BYTE   W96
//  #11 //005   ----------------------------------------
 BYTE   W96
//  #11 //006   ----------------------------------------
 BYTE   W96
//  #11 //007   ----------------------------------------
 BYTE   W96
//  #11 //008   ----------------------------------------
 BYTE   W96
//  #11 //009   ----------------------------------------
 BYTE   W96
//  #11 //010   ----------------------------------------
 BYTE   W96
//  #11 //011   ----------------------------------------
 BYTE   W96
//  #11 //012   ----------------------------------------
 BYTE   W96
//  #11 //013   ----------------------------------------
 BYTE   W96
//  #11 //014   ----------------------------------------
 BYTE   W96
//  #11 //015   ----------------------------------------
 BYTE   W96
//  #11 //016   ----------------------------------------
 BYTE   W48
Label_549625:
 BYTE   W48
//  #11 //017   ----------------------------------------
 BYTE   W96
//  #11 //018   ----------------------------------------
 BYTE   W96
//  #11 //019   ----------------------------------------
 BYTE   W96
//  #11 //020   ----------------------------------------
 BYTE   W96
//  #11 //021   ----------------------------------------
 BYTE   W96
//  #11 //022   ----------------------------------------
 BYTE   W96
//  #11 //023   ----------------------------------------
 BYTE   W96
//  #11 //024   ----------------------------------------
 BYTE   W96
//  #11 //025   ----------------------------------------
 BYTE   W96
//  #11 //026   ----------------------------------------
 BYTE   W96
//  #11 //027   ----------------------------------------
 BYTE   W96
//  #11 //028   ----------------------------------------
 BYTE   W96
//  #11 //029   ----------------------------------------
 BYTE   W96
//  #11 //030   ----------------------------------------
 BYTE   W96
//  #11 //031   ----------------------------------------
 BYTE   W96
//  #11 //032   ----------------------------------------
 BYTE   W96
//  #11 //033   ----------------------------------------
 BYTE   W96
//  #11 //034   ----------------------------------------
 BYTE   W96
//  #11 //035   ----------------------------------------
 BYTE   W96
//  #11 //036   ----------------------------------------
 BYTE   W96
//  #11 //037   ----------------------------------------
 BYTE   W96
//  #11 //038   ----------------------------------------
 BYTE   W96
//  #11 //039   ----------------------------------------
 BYTE   W96
//  #11 //040   ----------------------------------------
 BYTE   W96
//  #11 //041   ----------------------------------------
 BYTE   W96
//  #11 //042   ----------------------------------------
 BYTE   W96
//  #11 //043   ----------------------------------------
 BYTE   W96
//  #11 //044   ----------------------------------------
 BYTE   W96
//  #11 //045   ----------------------------------------
 BYTE   W96
//  #11 //046   ----------------------------------------
 BYTE   W96
//  #11 //047   ----------------------------------------
 BYTE   W96
//  #11 //048   ----------------------------------------
 BYTE   W96
//  #11 //049   ----------------------------------------
 BYTE   W96
//  #11 //050   ----------------------------------------
 BYTE   W96
//  #11 //051   ----------------------------------------
 BYTE   W96
//  #11 //052   ----------------------------------------
 BYTE   W96
//  #11 //053   ----------------------------------------
 BYTE   W96
//  #11 //054   ----------------------------------------
 BYTE   W96
//  #11 //055   ----------------------------------------
 BYTE   W96
//  #11 //056   ----------------------------------------
 BYTE   W96
//  #11 //057   ----------------------------------------
 BYTE   W96
//  #11 //058   ----------------------------------------
 BYTE   W96
//  #11 //059   ----------------------------------------
 BYTE   W96
//  #11 //060   ----------------------------------------
 BYTE   W96
//  #11 //061   ----------------------------------------
 BYTE   W96
//  #11 //062   ----------------------------------------
 BYTE   W96
//  #11 //063   ----------------------------------------
 BYTE   W96
//  #11 //064   ----------------------------------------
 BYTE   W48
 BYTE   TIE  En3  v052
 BYTE   TIE  Gn3
 BYTE   TIE  Bn3
 BYTE   W48
//  #11 //065   ----------------------------------------
 BYTE   W96
//  #11 //066   ----------------------------------------
 BYTE   W44
 BYTE   W03
 BYTE   EOT
 BYTE   En3  v067
 BYTE   Bn3
 BYTE   W01
 BYTE   TIE  En3
 BYTE   TIE  Gn3
 BYTE   TIE  Cn4
 BYTE   W48
//  #11 //067   ----------------------------------------
 BYTE   W96
//  #11 //068   ----------------------------------------
 BYTE   W44
 BYTE   W03
 BYTE   EOT
 BYTE   En3  v067
 BYTE   Cn4
 BYTE   W01
 BYTE   TIE  Gn3
 BYTE   TIE  Bn3
 BYTE   TIE  Dn4
 BYTE   W48
//  #11 //069   ----------------------------------------
 BYTE   W96
//  #11 //070   ----------------------------------------
 BYTE   W44
 BYTE   W03
 BYTE   EOT
 BYTE   Gn3  v071
 BYTE   Dn4
 BYTE   W01
 BYTE   TIE  Dn3
 BYTE   TIE  Fs3
 BYTE   TIE  An3
 BYTE   W48
//  #11 //071   ----------------------------------------
 BYTE   W96
//  #11 //072   ----------------------------------------
 BYTE   W44
 BYTE   W03
 BYTE   EOT
 BYTE   Dn3  v066
 BYTE   An3
 BYTE   W01
 BYTE   TIE  En3
 BYTE   TIE  Gn3
 BYTE   TIE  Bn3
 BYTE   W48
//  #11 //073   ----------------------------------------
 BYTE   W96
//  #11 //074   ----------------------------------------
 BYTE   W44
 BYTE   W03
 BYTE   EOT
 BYTE   En3  v067
 BYTE   Bn3
 BYTE   W01
 BYTE   TIE  En3
 BYTE   TIE  Gn3
 BYTE   TIE  Cn4
 BYTE   W48
//  #11 //075   ----------------------------------------
 BYTE   W96
//  #11 //076   ----------------------------------------
 BYTE   W44
 BYTE   W03
 BYTE   EOT
 BYTE   En3  v067
 BYTE   Cn4
 BYTE   W01
 BYTE   TIE  Gn3
 BYTE   TIE  Bn3
 BYTE   TIE  Dn4
 BYTE   W48
//  #11 //077   ----------------------------------------
 BYTE   W96
//  #11 //078   ----------------------------------------
 BYTE   W44
 BYTE   W03
 BYTE   EOT
 BYTE   Gn3  v071
 BYTE   Dn4
 BYTE   W01
 BYTE   TIE  Dn3
 BYTE   TIE  Fs3
 BYTE   TIE  An3
 BYTE   W48
//  #11 //079   ----------------------------------------
 BYTE   W96
//  #11 //080   ----------------------------------------
 BYTE   W44
 BYTE   W03
 BYTE   EOT
 BYTE   Dn3  v066
 BYTE   An3
 BYTE   W48
 BYTE   W01
//  #11 //081   ----------------------------------------
 BYTE   W96
//  #11 //082   ----------------------------------------
 BYTE   W96
//  #11 //083   ----------------------------------------
 BYTE   W96
//  #11 //084   ----------------------------------------
 BYTE   W96
//  #11 //085   ----------------------------------------
 BYTE   W96
//  #11 //086   ----------------------------------------
 BYTE   W96
//  #11 //087   ----------------------------------------
 BYTE   W96
//  #11 //088   ----------------------------------------
 BYTE   W96
//  #11 //089   ----------------------------------------
 BYTE   W96
//  #11 //090   ----------------------------------------
 BYTE   W96
//  #11 //091   ----------------------------------------
 BYTE   W96
//  #11 //092   ----------------------------------------
 BYTE   W96
//  #11 //093   ----------------------------------------
 BYTE   W96
//  #11 //094   ----------------------------------------
 BYTE   W96
//  #11 //095   ----------------------------------------
 BYTE   W96
//  #11 //096   ----------------------------------------
 BYTE   W96
//  #11 //097   ----------------------------------------
 BYTE   W96
//  #11 //098   ----------------------------------------
 BYTE   W96
//  #11 //099   ----------------------------------------
 BYTE   W96
//  #11 //100   ----------------------------------------
 BYTE   W96
//  #11 //101   ----------------------------------------
 BYTE   W96
//  #11 //102   ----------------------------------------
 BYTE   W96
//  #11 //103   ----------------------------------------
 BYTE   W96
//  #11 //104   ----------------------------------------
 BYTE   W96
//  #11 //105   ----------------------------------------
 BYTE   W96
//  #11 //106   ----------------------------------------
 BYTE   W96
//  #11 //107   ----------------------------------------
 BYTE   W96
//  #11 //108   ----------------------------------------
 BYTE   W96
//  #11 //109   ----------------------------------------
 BYTE   W96
//  #11 //110   ----------------------------------------
 BYTE   W96
//  #11 //111   ----------------------------------------
 BYTE   W96
//  #11 //112   ----------------------------------------
 BYTE   W96
//  #11 //113   ----------------------------------------
 BYTE   W96
//  #11 //114   ----------------------------------------
 BYTE   W96
//  #11 //115   ----------------------------------------
 BYTE   W96
//  #11 //116   ----------------------------------------
 BYTE   W96
//  #11 //117   ----------------------------------------
 BYTE   W96
//  #11 //118   ----------------------------------------
 BYTE   W96
//  #11 //119   ----------------------------------------
 BYTE   W96
//  #11 //120   ----------------------------------------
 BYTE   W96
//  #11 //121   ----------------------------------------
 BYTE   W48
 BYTE   GoTo
  POIN2 Label_549625
//  #11 //122   ----------------------------------------
 BYTE   W48
 BYTE   W96
//  #11 //123   ----------------------------------------
 BYTE   W96
//  #11 //124   ----------------------------------------
 BYTE   W96
//  #11 //125   ----------------------------------------
 BYTE   W44
 BYTE   W03
 BYTE   FINE

//**************** Track 12 (Midi-Chn.11) ****************//

Uncontrollable_012:
//  #12 //000   ----------------------------------------
 BYTE   VOL   50*Uncontrollable_mvl/mxv
 BYTE   KEYSH   Uncontrollable_key+0
 BYTE   VOICE   1
 BYTE   W48
 BYTE   N05  En2  v064
 BYTE   W06
 BYTE   N05
 BYTE   W06
 BYTE   N05
 BYTE   W06
 BYTE   N05
 BYTE   W06
 BYTE   N23
 BYTE   W24
//  #12 //001   ----------------------------------------
Label_0100B37F:
 BYTE   N23  En2  v064
 BYTE   W24
 BYTE   N11
 BYTE   W12
 BYTE   N11
 BYTE   W12
 BYTE   N05
 BYTE   W06
 BYTE   N05
 BYTE   W06
 BYTE   N05
 BYTE   W06
 BYTE   N05
 BYTE   W06
 BYTE   N23
 BYTE   W24
 BYTE   PEND 
//  #12 //002   ----------------------------------------
Label_0100B392:
 BYTE   N23  En2  v064
 BYTE   W24
 BYTE   N11
 BYTE   W12
 BYTE   N11
 BYTE   W12
 BYTE   N05  An2
 BYTE   W06
 BYTE   N05
 BYTE   W06
 BYTE   N05
 BYTE   W06
 BYTE   N05
 BYTE   W06
 BYTE   N23
 BYTE   W24
 BYTE   PEND 
//  #12 //003   ----------------------------------------
Label_0100B3A6:
 BYTE   N23  An2  v064
 BYTE   W24
 BYTE   N11
 BYTE   W12
 BYTE   N11
 BYTE   W12
 BYTE   N05
 BYTE   W06
 BYTE   N05
 BYTE   W06
 BYTE   N05
 BYTE   W06
 BYTE   N05
 BYTE   W06
 BYTE   N23
 BYTE   W24
 BYTE   PEND 
//  #12 //004   ----------------------------------------
Label_0100B3B9:
 BYTE   N23  An2  v064
 BYTE   W24
 BYTE   N11
 BYTE   W12
 BYTE   N11
 BYTE   W12
 BYTE   N05  Cn3
 BYTE   W06
 BYTE   N05
 BYTE   W06
 BYTE   N05
 BYTE   W06
 BYTE   N05
 BYTE   W06
 BYTE   N23
 BYTE   W24
 BYTE   PEND 
//  #12 //005   ----------------------------------------
Label_0100B3CD:
 BYTE   N23  Cn3  v064
 BYTE   W24
 BYTE   N11
 BYTE   W12
 BYTE   N11
 BYTE   W12
 BYTE   N05
 BYTE   W06
 BYTE   N05
 BYTE   W06
 BYTE   N05
 BYTE   W06
 BYTE   N05
 BYTE   W06
 BYTE   N23
 BYTE   W24
 BYTE   PEND 
//  #12 //006   ----------------------------------------
Label_0100B3E0:
 BYTE   N23  Cn3  v064
 BYTE   W24
 BYTE   N11
 BYTE   W12
 BYTE   N11
 BYTE   W12
 BYTE   N05  An2
 BYTE   W06
 BYTE   N05
 BYTE   W06
 BYTE   N05
 BYTE   W06
 BYTE   N05
 BYTE   W06
 BYTE   N23
 BYTE   W24
 BYTE   PEND 
//  #12 //007   ----------------------------------------
Label_0100B3F4:
 BYTE   N23  An2  v064
 BYTE   W24
 BYTE   N11
 BYTE   W12
 BYTE   N11
 BYTE   W12
 BYTE   N05  Bn2
 BYTE   W06
 BYTE   N05
 BYTE   W06
 BYTE   N05
 BYTE   W06
 BYTE   N05
 BYTE   W06
 BYTE   N23
 BYTE   W24
 BYTE   PEND 
//  #12 //008   ----------------------------------------
 BYTE   N12
 BYTE   W24
 BYTE   N11
 BYTE   W12
 BYTE   N11
 BYTE   W12
 BYTE   N05  En2
 BYTE   W06
 BYTE   N05
 BYTE   W06
 BYTE   N05
 BYTE   W06
 BYTE   N05
 BYTE   W06
 BYTE   N23
 BYTE   W24
//  #12 //009   ----------------------------------------
 BYTE   PATT
  POIN2 Label_0100B37F
//  #12 //010   ----------------------------------------
 BYTE   PATT
  POIN2 Label_0100B392
//  #12 //011   ----------------------------------------
 BYTE   PATT
  POIN2 Label_0100B3A6
//  #12 //012   ----------------------------------------
 BYTE   PATT
  POIN2 Label_0100B3B9
//  #12 //013   ----------------------------------------
 BYTE   PATT
  POIN2 Label_0100B3CD
//  #12 //014   ----------------------------------------
 BYTE   PATT
  POIN2 Label_0100B3E0
//  #12 //015   ----------------------------------------
 BYTE   PATT
  POIN2 Label_0100B3F4
//  #12 //016   ----------------------------------------
 BYTE   N12  Bn2  v064
 BYTE   W24
 BYTE   N11
 BYTE   W12
 BYTE   N11
 BYTE   W12
Label_0100B444:
 BYTE   W48
//  #12 //017   ----------------------------------------
 BYTE   W96
//  #12 //018   ----------------------------------------
 BYTE   W96
//  #12 //019   ----------------------------------------
 BYTE   W96
//  #12 //020   ----------------------------------------
 BYTE   W96
//  #12 //021   ----------------------------------------
 BYTE   W96
//  #12 //022   ----------------------------------------
 BYTE   W96
//  #12 //023   ----------------------------------------
 BYTE   W96
//  #12 //024   ----------------------------------------
 BYTE   W96
//  #12 //025   ----------------------------------------
 BYTE   W96
//  #12 //026   ----------------------------------------
 BYTE   W96
//  #12 //027   ----------------------------------------
 BYTE   W96
//  #12 //028   ----------------------------------------
 BYTE   W96
//  #12 //029   ----------------------------------------
 BYTE   W96
//  #12 //030   ----------------------------------------
 BYTE   W96
//  #12 //031   ----------------------------------------
 BYTE   W96
//  #12 //032   ----------------------------------------
 BYTE   W48
 BYTE   N11  Cn3  v080
 BYTE   W12
 BYTE   Gn2
 BYTE   W12
 BYTE   An2
 BYTE   W24
//  #12 //033   ----------------------------------------
Label_0100B45D:
 BYTE   N11  Cn3  v080
 BYTE   W12
 BYTE   Gn2
 BYTE   W12
 BYTE   An2
 BYTE   W24
 BYTE   Cn3
 BYTE   W12
 BYTE   Gn2
 BYTE   W12
 BYTE   An2
 BYTE   W24
 BYTE   PEND 
//  #12 //034   ----------------------------------------
 BYTE   PATT
  POIN2 Label_0100B45D
//  #12 //035   ----------------------------------------
 BYTE   PATT
  POIN2 Label_0100B45D
//  #12 //036   ----------------------------------------
 BYTE   PATT
  POIN2 Label_0100B45D
//  #12 //037   ----------------------------------------
 BYTE   PATT
  POIN2 Label_0100B45D
//  #12 //038   ----------------------------------------
 BYTE   PATT
  POIN2 Label_0100B45D
//  #12 //039   ----------------------------------------
 BYTE   PATT
  POIN2 Label_0100B45D
//  #12 //040   ----------------------------------------
 BYTE   W96
//  #12 //041   ----------------------------------------
 BYTE   W96
//  #12 //042   ----------------------------------------
 BYTE   W96
//  #12 //043   ----------------------------------------
 BYTE   W96
//  #12 //044   ----------------------------------------
 BYTE   W96
//  #12 //045   ----------------------------------------
 BYTE   W96
//  #12 //046   ----------------------------------------
 BYTE   W96
//  #12 //047   ----------------------------------------
 BYTE   W96
//  #12 //048   ----------------------------------------
 BYTE   W96
//  #12 //049   ----------------------------------------
 BYTE   W96
//  #12 //050   ----------------------------------------
 BYTE   W96
//  #12 //051   ----------------------------------------
 BYTE   W96
//  #12 //052   ----------------------------------------
 BYTE   W96
//  #12 //053   ----------------------------------------
 BYTE   W96
//  #12 //054   ----------------------------------------
 BYTE   W96
//  #12 //055   ----------------------------------------
 BYTE   W96
//  #12 //056   ----------------------------------------
 BYTE   W96
//  #12 //057   ----------------------------------------
 BYTE   W96
//  #12 //058   ----------------------------------------
 BYTE   W96
//  #12 //059   ----------------------------------------
 BYTE   W96
//  #12 //060   ----------------------------------------
 BYTE   W96
//  #12 //061   ----------------------------------------
 BYTE   W96
//  #12 //062   ----------------------------------------
 BYTE   W96
//  #12 //063   ----------------------------------------
 BYTE   W96
//  #12 //064   ----------------------------------------
 BYTE   W48
 BYTE   N23  Gn3  v052
 BYTE   W24
 BYTE   En3
 BYTE   W24
//  #12 //065   ----------------------------------------
Label_0100B4A9:
 BYTE   N07  Gn3  v052
 BYTE   W08
 BYTE   En3
 BYTE   W08
 BYTE   Gn3
 BYTE   W08
 BYTE   N23  En3
 BYTE   W24
 BYTE   Gn3
 BYTE   W24
 BYTE   En3
 BYTE   W24
 BYTE   PEND 
//  #12 //066   ----------------------------------------
 BYTE   PATT
  POIN2 Label_0100B4A9
//  #12 //067   ----------------------------------------
 BYTE   PATT
  POIN2 Label_0100B4A9
//  #12 //068   ----------------------------------------
Label_0100B4C3:
 BYTE   N07  Gn3  v052
 BYTE   W08
 BYTE   En3
 BYTE   W08
 BYTE   Gn3
 BYTE   W08
 BYTE   N23  En3
 BYTE   W24
 BYTE   Bn3
 BYTE   W24
 BYTE   En3
 BYTE   W24
 BYTE   PEND 
//  #12 //069   ----------------------------------------
Label_0100B4D3:
 BYTE   N07  Bn3  v052
 BYTE   W08
 BYTE   En3
 BYTE   W08
 BYTE   Bn3
 BYTE   W08
 BYTE   N23  En3
 BYTE   W24
 BYTE   Bn3
 BYTE   W24
 BYTE   En3
 BYTE   W24
 BYTE   PEND 
//  #12 //070   ----------------------------------------
 BYTE   PATT
  POIN2 Label_0100B4D3
//  #12 //071   ----------------------------------------
 BYTE   PATT
  POIN2 Label_0100B4D3
//  #12 //072   ----------------------------------------
 BYTE   N07  Bn3  v052
 BYTE   W08
 BYTE   En3
 BYTE   W08
 BYTE   Bn3
 BYTE   W08
 BYTE   N23  En3
 BYTE   W24
 BYTE   Gn3
 BYTE   W24
 BYTE   En3
 BYTE   W24
//  #12 //073   ----------------------------------------
 BYTE   PATT
  POIN2 Label_0100B4A9
//  #12 //074   ----------------------------------------
 BYTE   PATT
  POIN2 Label_0100B4A9
//  #12 //075   ----------------------------------------
 BYTE   PATT
  POIN2 Label_0100B4A9
//  #12 //076   ----------------------------------------
 BYTE   PATT
  POIN2 Label_0100B4C3
//  #12 //077   ----------------------------------------
 BYTE   PATT
  POIN2 Label_0100B4D3
//  #12 //078   ----------------------------------------
 BYTE   PATT
  POIN2 Label_0100B4D3
//  #12 //079   ----------------------------------------
 BYTE   PATT
  POIN2 Label_0100B4D3
//  #12 //080   ----------------------------------------
 BYTE   N07  Bn3  v052
 BYTE   W08
 BYTE   En3
 BYTE   W08
 BYTE   Bn3
 BYTE   W08
 BYTE   N23  En3
 BYTE   W72
//  #12 //081   ----------------------------------------
 BYTE   W96
//  #12 //082   ----------------------------------------
 BYTE   W96
//  #12 //083   ----------------------------------------
 BYTE   W96
//  #12 //084   ----------------------------------------
 BYTE   W96
//  #12 //085   ----------------------------------------
 BYTE   W96
//  #12 //086   ----------------------------------------
 BYTE   W96
//  #12 //087   ----------------------------------------
 BYTE   W96
//  #12 //088   ----------------------------------------
 BYTE   W96
//  #12 //089   ----------------------------------------
 BYTE   W96
//  #12 //090   ----------------------------------------
 BYTE   W96
//  #12 //091   ----------------------------------------
 BYTE   W96
//  #12 //092   ----------------------------------------
 BYTE   W96
//  #12 //093   ----------------------------------------
 BYTE   W96
//  #12 //094   ----------------------------------------
 BYTE   W96
//  #12 //095   ----------------------------------------
 BYTE   W96
//  #12 //096   ----------------------------------------
 BYTE   W96
//  #12 //097   ----------------------------------------
 BYTE   W96
//  #12 //098   ----------------------------------------
 BYTE   W96
//  #12 //099   ----------------------------------------
 BYTE   W96
//  #12 //100   ----------------------------------------
 BYTE   W96
//  #12 //101   ----------------------------------------
 BYTE   W96
//  #12 //102   ----------------------------------------
 BYTE   W96
//  #12 //103   ----------------------------------------
 BYTE   W96
//  #12 //104   ----------------------------------------
 BYTE   W96
//  #12 //105   ----------------------------------------
 BYTE   W48
 BYTE   N11  Dn3  v064
 BYTE   W24
 BYTE   N05  Bn2
 BYTE   W12
 BYTE   N23  Cn3
 BYTE   W12
//  #12 //106   ----------------------------------------
Label_0100B54D:
 BYTE   W12
 BYTE   N11  Bn2  v064
 BYTE   W12
 BYTE   Dn3
 BYTE   W12
 BYTE   Cn3
 BYTE   W12
 BYTE   Dn3
 BYTE   W24
 BYTE   N05  Bn2
 BYTE   W12
 BYTE   N23  Cn3
 BYTE   W12
 BYTE   PEND 
//  #12 //107   ----------------------------------------
 BYTE   PATT
  POIN2 Label_0100B54D
//  #12 //108   ----------------------------------------
 BYTE   PATT
  POIN2 Label_0100B54D
//  #12 //109   ----------------------------------------
 BYTE   PATT
  POIN2 Label_0100B54D
//  #12 //110   ----------------------------------------
 BYTE   PATT
  POIN2 Label_0100B54D
//  #12 //111   ----------------------------------------
 BYTE   W12
 BYTE   N11  Bn2  v064
 BYTE   W12
 BYTE   Dn3
 BYTE   W12
 BYTE   Cn3
 BYTE   W60
//  #12 //112   ----------------------------------------
 BYTE   W96
//  #12 //113   ----------------------------------------
 BYTE   W48
 BYTE   En3
 BYTE   W24
 BYTE   N05  Bn2
 BYTE   W12
 BYTE   N23  Dn3
 BYTE   W12
//  #12 //114   ----------------------------------------
Label_0100B586:
 BYTE   W12
 BYTE   N11  Bn2  v064
 BYTE   W12
 BYTE   Dn3
 BYTE   W12
 BYTE   Bn2
 BYTE   W12
 BYTE   En3
 BYTE   W24
 BYTE   N05  Bn2
 BYTE   W12
 BYTE   N23  Dn3
 BYTE   W12
 BYTE   PEND 
//  #12 //115   ----------------------------------------
 BYTE   PATT
  POIN2 Label_0100B586
//  #12 //116   ----------------------------------------
 BYTE   PATT
  POIN2 Label_0100B586
//  #12 //117   ----------------------------------------
 BYTE   PATT
  POIN2 Label_0100B586
//  #12 //118   ----------------------------------------
 BYTE   PATT
  POIN2 Label_0100B586
//  #12 //119   ----------------------------------------
 BYTE   PATT
  POIN2 Label_0100B586
//  #12 //120   ----------------------------------------
 BYTE   PATT
  POIN2 Label_0100B586
//  #12 //121   ----------------------------------------
 BYTE   W12
 BYTE   N11  Bn2  v064
 BYTE   W12
 BYTE   Dn3
 BYTE   W12
 BYTE   Bn2
 BYTE   W12
 BYTE   GoTo
  POIN2 Label_0100B444
//  #12 //122   ----------------------------------------
 BYTE   N11  En3  v064
 BYTE   W24
 BYTE   N05  Bn2
 BYTE   W12
 BYTE   N23  Dn3
 BYTE   W12
//  #12 //123   ----------------------------------------
 BYTE   PATT
  POIN2 Label_0100B586
//  #12 //124   ----------------------------------------
 BYTE   PATT
  POIN2 Label_0100B586
//  #12 //125   ----------------------------------------
 BYTE   PATT
  POIN2 Label_0100B586
//  #12 //126   ----------------------------------------
 BYTE   W12
 BYTE   N11  Bn2  v064
 BYTE   W12
 BYTE   Dn3
 BYTE   W12
 BYTE   Bn2
 BYTE   W11
 BYTE   FINE

//**************** Track 13 (Midi-Chn.12) ****************//

Uncontrollable_013:
//  #13 //000   ----------------------------------------
 BYTE   KEYSH   Uncontrollable_key+0
 BYTE   VOICE   121
 BYTE   VOL   38*Uncontrollable_mvl/mxv
 BYTE   PAN   c_v+10
 BYTE   W48
 BYTE   N05  Fs1  v060
 BYTE   W06
 BYTE   Fs1  v052
 BYTE   W06
 BYTE   N05
 BYTE   W06
 BYTE   N05
 BYTE   W06
 BYTE   Fs1  v060
 BYTE   W06
 BYTE   Fs1  v052
 BYTE   W06
 BYTE   N05
 BYTE   W06
 BYTE   N05
 BYTE   W06
//  #13 //001   ----------------------------------------
Label_01013972:
 BYTE   N05  Fs1  v060
 BYTE   W06
 BYTE   Fs1  v052
 BYTE   W06
 BYTE   N05
 BYTE   W06
 BYTE   N05
 BYTE   W06
 BYTE   Fs1  v060
 BYTE   W06
 BYTE   Fs1  v052
 BYTE   W06
 BYTE   N05
 BYTE   W06
 BYTE   N05
 BYTE   W06
 BYTE   Fs1  v060
 BYTE   W06
 BYTE   Fs1  v052
 BYTE   W06
 BYTE   N05
 BYTE   W06
 BYTE   N05
 BYTE   W06
 BYTE   Fs1  v060
 BYTE   W06
 BYTE   Fs1  v052
 BYTE   W06
 BYTE   N05
 BYTE   W06
 BYTE   N05
 BYTE   W06
 BYTE   PEND 
//  #13 //002   ----------------------------------------
 BYTE   PATT
  POIN2 Label_01013972
//  #13 //003   ----------------------------------------
 BYTE   PATT
  POIN2 Label_01013972
//  #13 //004   ----------------------------------------
 BYTE   PATT
  POIN2 Label_01013972
//  #13 //005   ----------------------------------------
 BYTE   PATT
  POIN2 Label_01013972
//  #13 //006   ----------------------------------------
 BYTE   PATT
  POIN2 Label_01013972
//  #13 //007   ----------------------------------------
 BYTE   PATT
  POIN2 Label_01013972
//  #13 //008   ----------------------------------------
 BYTE   PATT
  POIN2 Label_01013972
//  #13 //009   ----------------------------------------
 BYTE   PATT
  POIN2 Label_01013972
//  #13 //010   ----------------------------------------
 BYTE   PATT
  POIN2 Label_01013972
//  #13 //011   ----------------------------------------
 BYTE   PATT
  POIN2 Label_01013972
//  #13 //012   ----------------------------------------
 BYTE   PATT
  POIN2 Label_01013972
//  #13 //013   ----------------------------------------
 BYTE   PATT
  POIN2 Label_01013972
//  #13 //014   ----------------------------------------
 BYTE   PATT
  POIN2 Label_01013972
//  #13 //015   ----------------------------------------
 BYTE   PATT
  POIN2 Label_01013972
//  #13 //016   ----------------------------------------
 BYTE   N05  Fs1  v060
 BYTE   W06
 BYTE   Fs1  v052
 BYTE   W06
 BYTE   N05
 BYTE   W06
 BYTE   N05
 BYTE   W06
 BYTE   Fs1  v060
 BYTE   W06
 BYTE   Fs1  v052
 BYTE   W06
 BYTE   N05
 BYTE   W06
 BYTE   N05
 BYTE   W06
Label_010139F7:
 BYTE   N05  Fs1  v060
 BYTE   W06
 BYTE   Fs1  v052
 BYTE   W06
 BYTE   N05
 BYTE   W06
 BYTE   N05
 BYTE   W06
 BYTE   Fs1  v060
 BYTE   W06
 BYTE   Fs1  v052
 BYTE   W06
 BYTE   N05
 BYTE   W06
 BYTE   N05
 BYTE   W06
//  #13 //017   ----------------------------------------
 BYTE   PATT
  POIN2 Label_01013972
//  #13 //018   ----------------------------------------
 BYTE   PATT
  POIN2 Label_01013972
//  #13 //019   ----------------------------------------
 BYTE   PATT
  POIN2 Label_01013972
//  #13 //020   ----------------------------------------
 BYTE   PATT
  POIN2 Label_01013972
//  #13 //021   ----------------------------------------
 BYTE   PATT
  POIN2 Label_01013972
//  #13 //022   ----------------------------------------
 BYTE   PATT
  POIN2 Label_01013972
//  #13 //023   ----------------------------------------
 BYTE   PATT
  POIN2 Label_01013972
//  #13 //024   ----------------------------------------
 BYTE   PATT
  POIN2 Label_01013972
//  #13 //025   ----------------------------------------
 BYTE   PATT
  POIN2 Label_01013972
//  #13 //026   ----------------------------------------
 BYTE   PATT
  POIN2 Label_01013972
//  #13 //027   ----------------------------------------
 BYTE   PATT
  POIN2 Label_01013972
//  #13 //028   ----------------------------------------
 BYTE   PATT
  POIN2 Label_01013972
//  #13 //029   ----------------------------------------
 BYTE   PATT
  POIN2 Label_01013972
//  #13 //030   ----------------------------------------
 BYTE   PATT
  POIN2 Label_01013972
//  #13 //031   ----------------------------------------
 BYTE   PATT
  POIN2 Label_01013972
//  #13 //032   ----------------------------------------
 BYTE   N05  Fs1  v060
 BYTE   W06
 BYTE   Fs1  v052
 BYTE   W06
 BYTE   N05
 BYTE   W06
 BYTE   N05
 BYTE   W06
 BYTE   Fs1  v060
 BYTE   W06
 BYTE   Fs1  v052
 BYTE   W06
 BYTE   N05
 BYTE   W06
 BYTE   N05
 BYTE   W06
 BYTE   As1  v036
 BYTE   W06
 BYTE   Fs1
 BYTE   W06
 BYTE   N05
 BYTE   W06
 BYTE   N05
 BYTE   W06
 BYTE   As1
 BYTE   W06
 BYTE   Fs1
 BYTE   W06
 BYTE   N05
 BYTE   W06
 BYTE   N05
 BYTE   W06
//  #13 //033   ----------------------------------------
Label_01013A7D:
 BYTE   N05  As1  v036
 BYTE   W06
 BYTE   Fs1
 BYTE   W06
 BYTE   N05
 BYTE   W06
 BYTE   N05
 BYTE   W06
 BYTE   As1
 BYTE   W06
 BYTE   Fs1
 BYTE   W06
 BYTE   N05
 BYTE   W06
 BYTE   N05
 BYTE   W06
 BYTE   As1
 BYTE   W06
 BYTE   Fs1
 BYTE   W06
 BYTE   N05
 BYTE   W06
 BYTE   N05
 BYTE   W06
 BYTE   As1
 BYTE   W06
 BYTE   Fs1
 BYTE   W06
 BYTE   N05
 BYTE   W06
 BYTE   N05
 BYTE   W06
 BYTE   PEND 
//  #13 //034   ----------------------------------------
 BYTE   PATT
  POIN2 Label_01013A7D
//  #13 //035   ----------------------------------------
 BYTE   PATT
  POIN2 Label_01013A7D
//  #13 //036   ----------------------------------------
 BYTE   PATT
  POIN2 Label_01013A7D
//  #13 //037   ----------------------------------------
 BYTE   PATT
  POIN2 Label_01013A7D
//  #13 //038   ----------------------------------------
 BYTE   PATT
  POIN2 Label_01013A7D
//  #13 //039   ----------------------------------------
 BYTE   PATT
  POIN2 Label_01013A7D
//  #13 //040   ----------------------------------------
 BYTE   W48
 BYTE   N05  As1  v040
 BYTE   W06
 BYTE   Fs1  v036
 BYTE   W06
 BYTE   N05
 BYTE   W06
 BYTE   N05
 BYTE   W06
 BYTE   As1  v040
 BYTE   W06
 BYTE   Fs1  v036
 BYTE   W06
 BYTE   N05
 BYTE   W06
 BYTE   N05
 BYTE   W06
//  #13 //041   ----------------------------------------
Label_01013AD4:
 BYTE   N05  As1  v040
 BYTE   W06
 BYTE   Fs1  v036
 BYTE   W06
 BYTE   N05
 BYTE   W06
 BYTE   N05
 BYTE   W06
 BYTE   As1  v040
 BYTE   W06
 BYTE   Fs1  v036
 BYTE   W06
 BYTE   N05
 BYTE   W06
 BYTE   N05
 BYTE   W06
 BYTE   As1  v040
 BYTE   W06
 BYTE   Fs1  v036
 BYTE   W06
 BYTE   N05
 BYTE   W06
 BYTE   N05
 BYTE   W06
 BYTE   As1  v040
 BYTE   W06
 BYTE   Fs1  v036
 BYTE   W06
 BYTE   N05
 BYTE   W06
 BYTE   N05
 BYTE   W06
 BYTE   PEND 
//  #13 //042   ----------------------------------------
 BYTE   PATT
  POIN2 Label_01013AD4
//  #13 //043   ----------------------------------------
 BYTE   PATT
  POIN2 Label_01013AD4
//  #13 //044   ----------------------------------------
 BYTE   PATT
  POIN2 Label_01013AD4
//  #13 //045   ----------------------------------------
 BYTE   PATT
  POIN2 Label_01013AD4
//  #13 //046   ----------------------------------------
 BYTE   PATT
  POIN2 Label_01013AD4
//  #13 //047   ----------------------------------------
 BYTE   PATT
  POIN2 Label_01013AD4
//  #13 //048   ----------------------------------------
 BYTE   PATT
  POIN2 Label_01013AD4
//  #13 //049   ----------------------------------------
 BYTE   PATT
  POIN2 Label_01013AD4
//  #13 //050   ----------------------------------------
 BYTE   PATT
  POIN2 Label_01013AD4
//  #13 //051   ----------------------------------------
 BYTE   PATT
  POIN2 Label_01013AD4
//  #13 //052   ----------------------------------------
 BYTE   PATT
  POIN2 Label_01013AD4
//  #13 //053   ----------------------------------------
 BYTE   PATT
  POIN2 Label_01013AD4
//  #13 //054   ----------------------------------------
 BYTE   PATT
  POIN2 Label_01013AD4
//  #13 //055   ----------------------------------------
 BYTE   PATT
  POIN2 Label_01013AD4
//  #13 //056   ----------------------------------------
 BYTE   PATT
  POIN2 Label_01013AD4
//  #13 //057   ----------------------------------------
 BYTE   PATT
  POIN2 Label_01013AD4
//  #13 //058   ----------------------------------------
 BYTE   PATT
  POIN2 Label_01013AD4
//  #13 //059   ----------------------------------------
 BYTE   PATT
  POIN2 Label_01013AD4
//  #13 //060   ----------------------------------------
 BYTE   PATT
  POIN2 Label_01013AD4
//  #13 //061   ----------------------------------------
 BYTE   PATT
  POIN2 Label_01013AD4
//  #13 //062   ----------------------------------------
 BYTE   PATT
  POIN2 Label_01013AD4
//  #13 //063   ----------------------------------------
 BYTE   PATT
  POIN2 Label_01013AD4
//  #13 //064   ----------------------------------------
 BYTE   N05  As1  v040
 BYTE   W06
 BYTE   Fs1  v036
 BYTE   W06
 BYTE   N05
 BYTE   W06
 BYTE   N05
 BYTE   W06
 BYTE   As1  v040
 BYTE   W06
 BYTE   Fs1  v036
 BYTE   W06
 BYTE   N05
 BYTE   W06
 BYTE   N05
 BYTE   W54
//  #13 //065   ----------------------------------------
 BYTE   W96
//  #13 //066   ----------------------------------------
 BYTE   W96
//  #13 //067   ----------------------------------------
 BYTE   W96
//  #13 //068   ----------------------------------------
 BYTE   W96
//  #13 //069   ----------------------------------------
 BYTE   W96
//  #13 //070   ----------------------------------------
 BYTE   W96
//  #13 //071   ----------------------------------------
 BYTE   W96
//  #13 //072   ----------------------------------------
 BYTE   W96
//  #13 //073   ----------------------------------------
 BYTE   W96
//  #13 //074   ----------------------------------------
 BYTE   W96
//  #13 //075   ----------------------------------------
 BYTE   W96
//  #13 //076   ----------------------------------------
 BYTE   W96
//  #13 //077   ----------------------------------------
 BYTE   W96
//  #13 //078   ----------------------------------------
 BYTE   W96
//  #13 //079   ----------------------------------------
 BYTE   W96
//  #13 //080   ----------------------------------------
 BYTE   W96
//  #13 //081   ----------------------------------------
 BYTE   W24
 BYTE   N11  Fs1  v080
 BYTE   W12
 BYTE   N11
 BYTE   W12
 BYTE   N05  As1  v060
 BYTE   W06
 BYTE   Fs1  v052
 BYTE   W06
 BYTE   N05
 BYTE   W06
 BYTE   N05
 BYTE   W06
 BYTE   As1  v060
 BYTE   W06
 BYTE   Fs1  v052
 BYTE   W06
 BYTE   N05
 BYTE   W06
 BYTE   N05
 BYTE   W06
//  #13 //082   ----------------------------------------
Label_01013BAD:
 BYTE   N05  As1  v060
 BYTE   W06
 BYTE   Fs1  v052
 BYTE   W06
 BYTE   N05
 BYTE   W06
 BYTE   N05
 BYTE   W06
 BYTE   As1  v060
 BYTE   W06
 BYTE   Fs1  v052
 BYTE   W06
 BYTE   N05
 BYTE   W06
 BYTE   N05
 BYTE   W06
 BYTE   As1  v060
 BYTE   W06
 BYTE   Fs1  v052
 BYTE   W06
 BYTE   N05
 BYTE   W06
 BYTE   N05
 BYTE   W06
 BYTE   As1  v060
 BYTE   W06
 BYTE   Fs1  v052
 BYTE   W06
 BYTE   N05
 BYTE   W06
 BYTE   N05
 BYTE   W06
 BYTE   PEND 
//  #13 //083   ----------------------------------------
 BYTE   PATT
  POIN2 Label_01013BAD
//  #13 //084   ----------------------------------------
 BYTE   PATT
  POIN2 Label_01013BAD
//  #13 //085   ----------------------------------------
 BYTE   PATT
  POIN2 Label_01013BAD
//  #13 //086   ----------------------------------------
 BYTE   PATT
  POIN2 Label_01013BAD
//  #13 //087   ----------------------------------------
 BYTE   PATT
  POIN2 Label_01013BAD
//  #13 //088   ----------------------------------------
 BYTE   PATT
  POIN2 Label_01013BAD
//  #13 //089   ----------------------------------------
 BYTE   PATT
  POIN2 Label_01013BAD
//  #13 //090   ----------------------------------------
 BYTE   PATT
  POIN2 Label_01013BAD
//  #13 //091   ----------------------------------------
 BYTE   PATT
  POIN2 Label_01013BAD
//  #13 //092   ----------------------------------------
 BYTE   PATT
  POIN2 Label_01013BAD
//  #13 //093   ----------------------------------------
 BYTE   PATT
  POIN2 Label_01013BAD
//  #13 //094   ----------------------------------------
 BYTE   PATT
  POIN2 Label_01013BAD
//  #13 //095   ----------------------------------------
 BYTE   PATT
  POIN2 Label_01013BAD
//  #13 //096   ----------------------------------------
 BYTE   PATT
  POIN2 Label_01013BAD
//  #13 //097   ----------------------------------------
 BYTE   PATT
  POIN2 Label_01013BAD
//  #13 //098   ----------------------------------------
 BYTE   PATT
  POIN2 Label_01013BAD
//  #13 //099   ----------------------------------------
 BYTE   PATT
  POIN2 Label_01013BAD
//  #13 //100   ----------------------------------------
 BYTE   PATT
  POIN2 Label_01013BAD
//  #13 //101   ----------------------------------------
 BYTE   PATT
  POIN2 Label_01013BAD
//  #13 //102   ----------------------------------------
 BYTE   PATT
  POIN2 Label_01013BAD
//  #13 //103   ----------------------------------------
 BYTE   PATT
  POIN2 Label_01013BAD
//  #13 //104   ----------------------------------------
 BYTE   PATT
  POIN2 Label_01013BAD
//  #13 //105   ----------------------------------------
 BYTE   PATT
  POIN2 Label_01013BAD
//  #13 //106   ----------------------------------------
 BYTE   PATT
  POIN2 Label_01013BAD
//  #13 //107   ----------------------------------------
 BYTE   PATT
  POIN2 Label_01013BAD
//  #13 //108   ----------------------------------------
 BYTE   PATT
  POIN2 Label_01013BAD
//  #13 //109   ----------------------------------------
 BYTE   PATT
  POIN2 Label_01013BAD
//  #13 //110   ----------------------------------------
 BYTE   PATT
  POIN2 Label_01013BAD
//  #13 //111   ----------------------------------------
 BYTE   PATT
  POIN2 Label_01013BAD
//  #13 //112   ----------------------------------------
 BYTE   PATT
  POIN2 Label_01013BAD
//  #13 //113   ----------------------------------------
 BYTE   N05  As1  v060
 BYTE   W06
 BYTE   Fs1  v052
 BYTE   W06
 BYTE   N05
 BYTE   W06
 BYTE   N05
 BYTE   W06
 BYTE   As1  v060
 BYTE   W06
 BYTE   Fs1  v052
 BYTE   W06
 BYTE   N05
 BYTE   W06
 BYTE   N05
 BYTE   W54
//  #13 //114   ----------------------------------------
 BYTE   W96
//  #13 //115   ----------------------------------------
 BYTE   W96
//  #13 //116   ----------------------------------------
 BYTE   W96
//  #13 //117   ----------------------------------------
 BYTE   W96
//  #13 //118   ----------------------------------------
 BYTE   W96
//  #13 //119   ----------------------------------------
 BYTE   W96
//  #13 //120   ----------------------------------------
 BYTE   W96
//  #13 //121   ----------------------------------------
 BYTE   W48
 BYTE   GoTo
  POIN2 Label_010139F7
//  #13 //122   ----------------------------------------
 BYTE   W48
 BYTE   W96
//  #13 //123   ----------------------------------------
 BYTE   W96
//  #13 //124   ----------------------------------------
 BYTE   W96
//  #13 //125   ----------------------------------------
 BYTE   W44
 BYTE   W03
 BYTE   FINE

//******************************************************//
	ALIGN 4

Uncontrollable:
	BYTE	13	// NumTrks
	BYTE	0	// NumBlks
	BYTE	Uncontrollable_pri	// Priority
	BYTE	Uncontrollable_rev	// Reverb.
    
	POIN2	Uncontrollable_grp
    
	POIN2	Uncontrollable_001
	POIN2	Uncontrollable_002
	POIN2	Uncontrollable_003
	POIN2	Uncontrollable_004
	POIN2	Uncontrollable_005
	POIN2	Uncontrollable_006
	POIN2	Uncontrollable_007
	POIN2	Uncontrollable_008
	POIN2	Uncontrollable_009
	POIN2	Uncontrollable_010
	POIN2	Uncontrollable_011
	POIN2	Uncontrollable_012
	POIN2	Uncontrollable_013

	
